<svg version="1.1" viewBox="0.0 0.0 515.4698162729659 287.4461942257218" fill="none" stroke="none" stroke-linecap="square" stroke-miterlimit="10" xmlns:xlink="http://www.w3.org/1999/xlink" xmlns="http://www.w3.org/2000/svg"><clipPath id="p.0"><path d="m0 0l515.4698 0l0 287.4462l-515.4698 0l0 -287.4462z" clip-rule="nonzero"/></clipPath><g clip-path="url(#p.0)"><path fill="#000000" fill-opacity="0.0" d="m0 0l515.4698 0l0 287.4462l-515.4698 0z" fill-rule="evenodd"/><path fill="#000000" fill-opacity="0.0" d="m119.67716 78.64567l277.95276 -54.04724" fill-rule="evenodd"/><path stroke="#44546a" stroke-width="3.0" stroke-linejoin="round" stroke-linecap="butt" d="m119.67716 78.64567l267.86053 -52.08483" fill-rule="evenodd"/><path fill="#44546a" stroke="#44546a" stroke-width="3.0" stroke-linecap="butt" d="m387.5377 26.560837l-2.6677856 3.9556808l8.454956 -5.0809803l-9.742859 -1.5424671z" fill-rule="evenodd"/><path fill="#000000" fill-opacity="0.0" d="m0 65.073494l107.90551 0l0 38.267715l-107.90551 0z" fill-rule="evenodd"/><path fill="#000000" d="m19.421875 81.80599q0 0.171875 -0.015625 0.3125q-0.015625 0.125 -0.0625 0.21875q-0.03125 0.078125 -0.09375 0.125q-0.046875 0.03125 -0.109375 0.03125q-0.109375 0 -0.375 -0.171875q-0.25 -0.171875 -0.6875 -0.375q-0.421875 -0.21875 -1.015625 -0.390625q-0.59375 -0.171875 -1.40625 -0.171875q-0.984375 0 -1.765625 0.359375q-0.765625 0.34375 -1.3125 0.984375q-0.53125 0.625 -0.8125 1.484375q-0.28125 0.859375 -0.28125 1.875q0 1.140625 0.3125 2.015625q0.3125 0.859375 0.859375 1.46875q0.5625 0.59375 1.328125 0.90625q0.765625 0.3125 1.6875 0.3125q0.546875 0 1.109375 -0.125q0.5625 -0.140625 1.046875 -0.40625l0 -3.4375l-2.734375 0q-0.15625 0 -0.234375 -0.140625q-0.078125 -0.15625 -0.078125 -0.484375q0 -0.171875 0.015625 -0.296875q0.03125 -0.125 0.0625 -0.203125q0.046875 -0.078125 0.09375 -0.109375q0.0625 -0.046875 0.140625 -0.046875l3.75 0q0.09375 0 0.1875 0.046875q0.109375 0.03125 0.1875 0.109375q0.078125 0.0625 0.125 0.203125q0.046875 0.125 0.046875 0.28125l0 4.484375q0 0.25 -0.078125 0.421875q-0.078125 0.171875 -0.34375 0.3125q-0.265625 0.125 -0.6875 0.28125q-0.421875 0.15625 -0.875 0.265625q-0.4375 0.09375 -0.890625 0.140625q-0.453125 0.0625 -0.90625 0.0625q-1.359375 0 -2.4375 -0.421875q-1.078125 -0.421875 -1.828125 -1.203125q-0.734375 -0.78125 -1.125 -1.875q-0.390625 -1.09375 -0.390625 -2.4375q0 -1.40625 0.421875 -2.546875q0.421875 -1.140625 1.1875 -1.9375q0.78125 -0.796875 1.859375 -1.234375q1.078125 -0.453125 2.390625 -0.453125q0.671875 0 1.265625 0.125q0.59375 0.109375 1.046875 0.28125q0.46875 0.15625 0.78125 0.34375q0.3125 0.1875 0.421875 0.3125q0.125 0.109375 0.171875 0.265625q0.046875 0.15625 0.046875 0.4375zm9.73822 5.5q0 0.359375 -0.1875 0.515625q-0.171875 0.140625 -0.390625 0.140625l-5.375 0q0 0.6875 0.125 1.234375q0.140625 0.546875 0.453125 0.9375q0.328125 0.390625 0.828125 0.609375q0.515625 0.203125 1.25 0.203125q0.59375 0 1.046875 -0.09375q0.453125 -0.09375 0.78125 -0.203125q0.34375 -0.125 0.546875 -0.21875q0.21875 -0.109375 0.328125 -0.109375q0.0625 0 0.109375 0.03125q0.0625 0.03125 0.078125 0.109375q0.03125 0.0625 0.046875 0.171875q0.015625 0.109375 0.015625 0.28125q0 0.109375 -0.015625 0.203125q0 0.078125 -0.015625 0.15625q-0.015625 0.0625 -0.046875 0.125q-0.03125 0.046875 -0.09375 0.09375q-0.046875 0.046875 -0.296875 0.171875q-0.234375 0.109375 -0.625 0.21875q-0.390625 0.109375 -0.90625 0.1875q-0.515625 0.09375 -1.09375 0.09375q-1.015625 0 -1.78125 -0.28125q-0.765625 -0.28125 -1.28125 -0.828125q-0.515625 -0.5625 -0.78125 -1.390625q-0.265625 -0.84375 -0.265625 -1.96875q0 -1.046875 0.265625 -1.890625q0.28125 -0.84375 0.796875 -1.421875q0.515625 -0.59375 1.234375 -0.90625q0.734375 -0.328125 1.640625 -0.328125q0.96875 0 1.640625 0.3125q0.6875 0.3125 1.125 0.84375q0.4375 0.515625 0.640625 1.234375q0.203125 0.703125 0.203125 1.5l0 0.265625zm-1.515625 -0.4375q0.03125 -1.1875 -0.53125 -1.859375q-0.546875 -0.671875 -1.625 -0.671875q-0.5625 0 -0.984375 0.21875q-0.40625 0.203125 -0.6875 0.546875q-0.28125 0.34375 -0.4375 0.8125q-0.15625 0.453125 -0.171875 0.953125l4.4375 0zm8.5950775 -2.765625q0 0.203125 -0.015625 0.34375q0 0.125 -0.03125 0.203125q-0.03125 0.078125 -0.078125 0.125q-0.03125 0.046875 -0.109375 0.046875q-0.0625 0 -0.171875 -0.046875q-0.109375 -0.046875 -0.25 -0.078125q-0.125 -0.046875 -0.296875 -0.078125q-0.15625 -0.046875 -0.34375 -0.046875q-0.21875 0 -0.4375 0.09375q-0.21875 0.09375 -0.46875 0.3125q-0.234375 0.203125 -0.5 0.546875q-0.265625 0.34375 -0.59375 0.84375l0 5.390625q0 0.078125 -0.03125 0.140625q-0.03125 0.046875 -0.125 0.078125q-0.078125 0.03125 -0.21875 0.046875q-0.140625 0.015625 -0.375 0.015625q-0.21875 0 -0.375 -0.015625q-0.140625 -0.015625 -0.234375 -0.046875q-0.078125 -0.03125 -0.109375 -0.078125q-0.03125 -0.0625 -0.03125 -0.140625l0 -8.1875q0 -0.078125 0.03125 -0.125q0.03125 -0.046875 0.109375 -0.09375q0.078125 -0.046875 0.203125 -0.046875q0.140625 -0.015625 0.34375 -0.015625q0.203125 0 0.328125 0.015625q0.140625 0 0.203125 0.046875q0.078125 0.046875 0.109375 0.09375q0.03125 0.046875 0.03125 0.125l0 1.1875q0.34375 -0.484375 0.640625 -0.796875q0.296875 -0.3125 0.546875 -0.484375q0.265625 -0.1875 0.53125 -0.25q0.265625 -0.078125 0.515625 -0.078125q0.125 0 0.265625 0.015625q0.15625 0.015625 0.3125 0.0625q0.171875 0.03125 0.296875 0.078125q0.140625 0.046875 0.1875 0.09375q0.0625 0.046875 0.078125 0.09375q0.03125 0.03125 0.03125 0.09375q0.015625 0.0625 0.015625 0.1875q0.015625 0.125 0.015625 0.328125zm13.879181 7.65625q0 0.078125 -0.046875 0.140625q-0.03125 0.046875 -0.125 0.078125q-0.078125 0.03125 -0.21875 0.046875q-0.140625 0.015625 -0.359375 0.015625q-0.234375 0 -0.390625 -0.015625q-0.140625 -0.015625 -0.234375 -0.046875q-0.078125 -0.03125 -0.109375 -0.078125q-0.03125 -0.0625 -0.03125 -0.140625l0 -4.96875q0 -0.53125 -0.09375 -0.953125q-0.09375 -0.4375 -0.296875 -0.734375q-0.203125 -0.3125 -0.515625 -0.46875q-0.296875 -0.171875 -0.71875 -0.171875q-0.515625 0 -1.046875 0.40625q-0.515625 0.390625 -1.15625 1.171875l0 5.71875q0 0.078125 -0.03125 0.140625q-0.03125 0.046875 -0.125 0.078125q-0.078125 0.03125 -0.234375 0.046875q-0.140625 0.015625 -0.359375 0.015625q-0.203125 0 -0.359375 -0.015625q-0.15625 -0.015625 -0.25 -0.046875q-0.078125 -0.03125 -0.109375 -0.078125q-0.03125 -0.0625 -0.03125 -0.140625l0 -4.96875q0 -0.53125 -0.109375 -0.953125q-0.09375 -0.4375 -0.296875 -0.734375q-0.1875 -0.3125 -0.5 -0.46875q-0.296875 -0.171875 -0.71875 -0.171875q-0.515625 0 -1.046875 0.40625q-0.53125 0.390625 -1.15625 1.171875l0 5.71875q0 0.078125 -0.03125 0.140625q-0.03125 0.046875 -0.125 0.078125q-0.078125 0.03125 -0.21875 0.046875q-0.140625 0.015625 -0.375 0.015625q-0.21875 0 -0.375 -0.015625q-0.140625 -0.015625 -0.234375 -0.046875q-0.078125 -0.03125 -0.109375 -0.078125q-0.03125 -0.0625 -0.03125 -0.140625l0 -8.1875q0 -0.078125 0.03125 -0.125q0.03125 -0.046875 0.109375 -0.09375q0.078125 -0.046875 0.203125 -0.046875q0.140625 -0.015625 0.34375 -0.015625q0.203125 0 0.328125 0.015625q0.140625 0 0.203125 0.046875q0.078125 0.046875 0.109375 0.09375q0.03125 0.046875 0.03125 0.125l0 1.078125q0.6875 -0.765625 1.34375 -1.125q0.65625 -0.375 1.3125 -0.375q0.515625 0 0.921875 0.125q0.40625 0.125 0.703125 0.34375q0.3125 0.203125 0.53125 0.5q0.21875 0.296875 0.375 0.65625q0.40625 -0.4375 0.765625 -0.75q0.375 -0.3125 0.71875 -0.5q0.34375 -0.1875 0.65625 -0.28125q0.328125 -0.09375 0.65625 -0.09375q0.796875 0 1.328125 0.28125q0.546875 0.28125 0.875 0.75q0.328125 0.46875 0.46875 1.09375q0.15625 0.609375 0.15625 1.3125l0 5.171875zm8.903137 0.015625q0 0.109375 -0.078125 0.171875q-0.0625 0.046875 -0.1875 0.0625q-0.125 0.03125 -0.375 0.03125q-0.234375 0 -0.375 -0.03125q-0.140625 -0.015625 -0.203125 -0.0625q-0.0625 -0.0625 -0.0625 -0.171875l0 -0.8125q-0.546875 0.5625 -1.203125 0.890625q-0.65625 0.3125 -1.390625 0.3125q-0.65625 0 -1.1875 -0.171875q-0.515625 -0.15625 -0.890625 -0.46875q-0.359375 -0.328125 -0.5625 -0.796875q-0.203125 -0.46875 -0.203125 -1.0625q0 -0.6875 0.28125 -1.1875q0.28125 -0.515625 0.796875 -0.84375q0.53125 -0.34375 1.296875 -0.515625q0.765625 -0.171875 1.734375 -0.171875l1.125 0l0 -0.640625q0 -0.46875 -0.109375 -0.828125q-0.09375 -0.375 -0.328125 -0.609375q-0.21875 -0.25 -0.578125 -0.359375q-0.34375 -0.125 -0.859375 -0.125q-0.5625 0 -1.0 0.140625q-0.4375 0.125 -0.78125 0.28125q-0.328125 0.15625 -0.546875 0.296875q-0.21875 0.125 -0.328125 0.125q-0.078125 0 -0.140625 -0.03125q-0.046875 -0.046875 -0.09375 -0.109375q-0.03125 -0.078125 -0.0625 -0.1875q-0.015625 -0.125 -0.015625 -0.25q0 -0.234375 0.03125 -0.359375q0.03125 -0.140625 0.15625 -0.25q0.125 -0.125 0.421875 -0.28125q0.3125 -0.171875 0.703125 -0.296875q0.390625 -0.125 0.84375 -0.21875q0.46875 -0.09375 0.953125 -0.09375q0.875 0 1.484375 0.203125q0.625 0.203125 1.0 0.59375q0.390625 0.390625 0.5625 0.96875q0.171875 0.5625 0.171875 1.328125l0 5.53125zm-1.484375 -3.75l-1.28125 0q-0.625 0 -1.078125 0.109375q-0.453125 0.109375 -0.765625 0.3125q-0.296875 0.203125 -0.4375 0.5q-0.140625 0.28125 -0.140625 0.65625q0 0.625 0.40625 1.015625q0.40625 0.375 1.140625 0.375q0.59375 0 1.09375 -0.296875q0.5 -0.3125 1.0625 -0.921875l0 -1.75zm11.311417 3.734375q0 0.078125 -0.046875 0.140625q-0.03125 0.046875 -0.109375 0.078125q-0.078125 0.03125 -0.234375 0.046875q-0.140625 0.015625 -0.359375 0.015625q-0.21875 0 -0.375 -0.015625q-0.140625 -0.015625 -0.234375 -0.046875q-0.078125 -0.03125 -0.109375 -0.078125q-0.03125 -0.0625 -0.03125 -0.140625l0 -4.796875q0 -0.703125 -0.109375 -1.125q-0.109375 -0.4375 -0.328125 -0.734375q-0.203125 -0.3125 -0.546875 -0.46875q-0.328125 -0.171875 -0.765625 -0.171875q-0.5625 0 -1.125 0.40625q-0.5625 0.390625 -1.1875 1.171875l0 5.71875q0 0.078125 -0.03125 0.140625q-0.03125 0.046875 -0.125 0.078125q-0.078125 0.03125 -0.21875 0.046875q-0.140625 0.015625 -0.375 0.015625q-0.21875 0 -0.375 -0.015625q-0.140625 -0.015625 -0.234375 -0.046875q-0.078125 -0.03125 -0.109375 -0.078125q-0.03125 -0.0625 -0.03125 -0.140625l0 -8.1875q0 -0.078125 0.03125 -0.125q0.03125 -0.046875 0.109375 -0.09375q0.078125 -0.046875 0.203125 -0.046875q0.140625 -0.015625 0.34375 -0.015625q0.203125 0 0.328125 0.015625q0.140625 0 0.203125 0.046875q0.078125 0.046875 0.109375 0.09375q0.03125 0.046875 0.03125 0.125l0 1.078125q0.6875 -0.765625 1.375 -1.125q0.6875 -0.375 1.390625 -0.375q0.828125 0 1.375 0.28125q0.5625 0.28125 0.90625 0.75q0.359375 0.46875 0.5 1.09375q0.15625 0.609375 0.15625 1.484375l0 5.0zm6.1273346 0.234375l-1.09375 3.015625q-0.046875 0.140625 -0.28125 0.21875q-0.21875 0.078125 -0.671875 0.078125q-0.234375 0 -0.390625 -0.03125q-0.140625 -0.015625 -0.21875 -0.078125q-0.078125 -0.046875 -0.09375 -0.140625q0 -0.078125 0.0625 -0.21875l1.125 -2.84375q-0.078125 -0.03125 -0.15625 -0.109375q-0.078125 -0.09375 -0.09375 -0.1875l-2.9375 -7.828125q-0.0625 -0.1875 -0.0625 -0.296875q0 -0.109375 0.0625 -0.171875q0.078125 -0.0625 0.234375 -0.078125q0.171875 -0.03125 0.453125 -0.03125q0.265625 0 0.421875 0.015625q0.15625 0 0.25 0.046875q0.09375 0.03125 0.125 0.109375q0.046875 0.0625 0.09375 0.171875l2.34375 6.578125l0.015625 0l2.265625 -6.609375q0.046875 -0.171875 0.125 -0.21875q0.078125 -0.046875 0.234375 -0.0625q0.15625 -0.03125 0.453125 -0.03125q0.25 0 0.40625 0.03125q0.171875 0.015625 0.25 0.078125q0.078125 0.0625 0.078125 0.171875q0 0.109375 -0.046875 0.265625l-2.953125 8.15625z" fill-rule="nonzero"/><path fill="#000000" fill-opacity="0.0" d="m415.56955 0l107.90549 0l0 38.267715l-107.90549 0z" fill-rule="evenodd"/><path fill="#000000" d="m433.9133 23.544998q0 0.546875 -0.140625 1.015625q-0.140625 0.46875 -0.40625 0.84375q-0.25 0.375 -0.609375 0.65625q-0.359375 0.28125 -0.8125 0.484375q-0.453125 0.1875 -0.96875 0.28125q-0.515625 0.09375 -1.171875 0.09375l-3.078125 0q-0.21875 0 -0.40625 -0.140625q-0.1875 -0.140625 -0.1875 -0.5l0 -10.515625q0 -0.34375 0.1875 -0.484375q0.1875 -0.140625 0.40625 -0.140625l2.671875 0q1.0625 0 1.734375 0.203125q0.671875 0.1875 1.125 0.578125q0.453125 0.375 0.671875 0.9375q0.234375 0.546875 0.234375 1.25q0 0.421875 -0.109375 0.8125q-0.09375 0.375 -0.296875 0.703125q-0.1875 0.3125 -0.484375 0.578125q-0.296875 0.25 -0.6875 0.421875q0.484375 0.078125 0.90625 0.328125q0.421875 0.234375 0.734375 0.609375q0.3125 0.375 0.5 0.875q0.1875 0.5 0.1875 1.109375zm-2.359375 -5.28125q0 -0.421875 -0.125 -0.765625q-0.125 -0.359375 -0.375 -0.59375q-0.25 -0.234375 -0.671875 -0.359375q-0.40625 -0.140625 -1.078125 -0.140625l-1.625 0l0 3.8125l1.796875 0q0.609375 0 0.984375 -0.15625q0.375 -0.15625 0.609375 -0.421875q0.25 -0.265625 0.359375 -0.625q0.125 -0.359375 0.125 -0.75zm0.703125 5.375q0 -0.53125 -0.171875 -0.9375q-0.171875 -0.40625 -0.5 -0.671875q-0.3125 -0.28125 -0.796875 -0.421875q-0.484375 -0.140625 -1.234375 -0.140625l-1.875 0l0 4.15625l2.28125 0q0.546875 0 0.9375 -0.125q0.40625 -0.125 0.703125 -0.375q0.3125 -0.25 0.484375 -0.625q0.171875 -0.375 0.171875 -0.859375zm10.851105 -1.40625q0 0.359375 -0.1875 0.515625q-0.171875 0.140625 -0.390625 0.140625l-5.375 0q0 0.6875 0.125 1.234375q0.140625 0.546875 0.453125 0.9375q0.328125 0.390625 0.828125 0.609375q0.515625 0.203125 1.25 0.203125q0.59375 0 1.046875 -0.09375q0.453125 -0.09375 0.78125 -0.203125q0.34375 -0.125 0.546875 -0.21875q0.21875 -0.109375 0.328125 -0.109375q0.0625 0 0.109375 0.03125q0.0625 0.03125 0.078125 0.109375q0.03125 0.0625 0.046875 0.171875q0.015625 0.109375 0.015625 0.28125q0 0.109375 -0.015625 0.203125q0 0.078125 -0.015625 0.15625q-0.015625 0.0625 -0.046875 0.125q-0.03125 0.046875 -0.09375 0.09375q-0.046875 0.046875 -0.296875 0.171875q-0.234375 0.109375 -0.625 0.21875q-0.390625 0.109375 -0.90625 0.1875q-0.515625 0.09375 -1.09375 0.09375q-1.015625 0 -1.78125 -0.28125q-0.765625 -0.28125 -1.28125 -0.828125q-0.515625 -0.5625 -0.78125 -1.390625q-0.265625 -0.84375 -0.265625 -1.96875q0 -1.046875 0.265625 -1.890625q0.28125 -0.84375 0.796875 -1.421875q0.515625 -0.59375 1.234375 -0.90625q0.734375 -0.328125 1.640625 -0.328125q0.96875 0 1.640625 0.3125q0.6875 0.3125 1.125 0.84375q0.4375 0.515625 0.640625 1.234375q0.203125 0.703125 0.203125 1.5l0 0.265625zm-1.515625 -0.4375q0.03125 -1.1875 -0.53125 -1.859375q-0.546875 -0.671875 -1.625 -0.671875q-0.5625 0 -0.984375 0.21875q-0.40625 0.203125 -0.6875 0.546875q-0.28125 0.34375 -0.4375 0.8125q-0.15625 0.453125 -0.171875 0.953125l4.4375 0zm8.595093 -2.765625q0 0.203125 -0.015625 0.34375q0 0.125 -0.03125 0.203125q-0.03125 0.078125 -0.078125 0.125q-0.03125 0.046875 -0.109375 0.046875q-0.0625 0 -0.171875 -0.046875q-0.109375 -0.046875 -0.25 -0.078125q-0.125 -0.046875 -0.296875 -0.078125q-0.15625 -0.046875 -0.34375 -0.046875q-0.21875 0 -0.4375 0.09375q-0.21875 0.09375 -0.46875 0.3125q-0.234375 0.203125 -0.5 0.546875q-0.265625 0.34375 -0.59375 0.84375l0 5.390625q0 0.078125 -0.03125 0.140625q-0.03125 0.046875 -0.125 0.078125q-0.078125 0.03125 -0.21875 0.046875q-0.140625 0.015625 -0.375 0.015625q-0.21875 0 -0.375 -0.015625q-0.140625 -0.015625 -0.234375 -0.046875q-0.078125 -0.03125 -0.109375 -0.078125q-0.03125 -0.0625 -0.03125 -0.140625l0 -8.1875q0 -0.078125 0.03125 -0.125q0.03125 -0.046875 0.109375 -0.09375q0.078125 -0.046875 0.203125 -0.046875q0.140625 -0.015625 0.34375 -0.015625q0.203125 0 0.328125 0.015625q0.140625 0 0.203125 0.046875q0.078125 0.046875 0.109375 0.09375q0.03125 0.046875 0.03125 0.125l0 1.1875q0.34375 -0.484375 0.640625 -0.796875q0.296875 -0.3125 0.546875 -0.484375q0.265625 -0.1875 0.53125 -0.25q0.265625 -0.078125 0.515625 -0.078125q0.125 0 0.265625 0.015625q0.15625 0.015625 0.3125 0.0625q0.171875 0.03125 0.296875 0.078125q0.140625 0.046875 0.1875 0.09375q0.0625 0.046875 0.078125 0.09375q0.03125 0.03125 0.03125 0.09375q0.015625 0.0625 0.015625 0.1875q0.015625 0.125 0.015625 0.328125zm3.207306 7.65625q0 0.078125 -0.03125 0.140625q-0.03125 0.046875 -0.125 0.078125q-0.078125 0.03125 -0.21875 0.046875q-0.140625 0.015625 -0.375 0.015625q-0.21875 0 -0.375 -0.015625q-0.140625 -0.015625 -0.234375 -0.046875q-0.078125 -0.03125 -0.109375 -0.078125q-0.03125 -0.0625 -0.03125 -0.140625l0 -12.15625q0 -0.078125 0.03125 -0.125q0.03125 -0.0625 0.109375 -0.09375q0.09375 -0.046875 0.234375 -0.0625q0.15625 -0.015625 0.375 -0.015625q0.234375 0 0.375 0.015625q0.140625 0.015625 0.21875 0.0625q0.09375 0.03125 0.125 0.09375q0.03125 0.046875 0.03125 0.125l0 12.15625zm4.2814636 0q0 0.078125 -0.03125 0.140625q-0.03125 0.046875 -0.125 0.078125q-0.078125 0.03125 -0.21875 0.046875q-0.140625 0.015625 -0.375 0.015625q-0.21875 0 -0.375 -0.015625q-0.140625 -0.015625 -0.234375 -0.046875q-0.078125 -0.03125 -0.109375 -0.078125q-0.03125 -0.0625 -0.03125 -0.140625l0 -8.1875q0 -0.0625 0.03125 -0.109375q0.03125 -0.0625 0.109375 -0.09375q0.09375 -0.046875 0.234375 -0.0625q0.15625 -0.015625 0.375 -0.015625q0.234375 0 0.375 0.015625q0.140625 0.015625 0.21875 0.0625q0.09375 0.03125 0.125 0.09375q0.03125 0.046875 0.03125 0.109375l0 8.1875zm0.171875 -10.96875q0 0.53125 -0.203125 0.734375q-0.1875 0.1875 -0.734375 0.1875q-0.515625 0 -0.71875 -0.1875q-0.1875 -0.1875 -0.1875 -0.703125q0 -0.53125 0.1875 -0.71875q0.203125 -0.203125 0.75 -0.203125q0.515625 0 0.703125 0.1875q0.203125 0.1875 0.203125 0.703125zm9.672089 10.96875q0 0.078125 -0.046875 0.140625q-0.03125 0.046875 -0.109375 0.078125q-0.078125 0.03125 -0.234375 0.046875q-0.140625 0.015625 -0.359375 0.015625q-0.21875 0 -0.375 -0.015625q-0.140625 -0.015625 -0.234375 -0.046875q-0.078125 -0.03125 -0.109375 -0.078125q-0.03125 -0.0625 -0.03125 -0.140625l0 -4.796875q0 -0.703125 -0.109375 -1.125q-0.109375 -0.4375 -0.328125 -0.734375q-0.203125 -0.3125 -0.546875 -0.46875q-0.328125 -0.171875 -0.765625 -0.171875q-0.5625 0 -1.125 0.40625q-0.5625 0.390625 -1.1875 1.171875l0 5.71875q0 0.078125 -0.03125 0.140625q-0.03125 0.046875 -0.125 0.078125q-0.078125 0.03125 -0.21875 0.046875q-0.140625 0.015625 -0.375 0.015625q-0.21875 0 -0.375 -0.015625q-0.140625 -0.015625 -0.234375 -0.046875q-0.078125 -0.03125 -0.109375 -0.078125q-0.03125 -0.0625 -0.03125 -0.140625l0 -8.1875q0 -0.078125 0.03125 -0.125q0.03125 -0.046875 0.109375 -0.09375q0.078125 -0.046875 0.203125 -0.046875q0.140625 -0.015625 0.34375 -0.015625q0.203125 0 0.328125 0.015625q0.140625 0 0.203125 0.046875q0.078125 0.046875 0.109375 0.09375q0.03125 0.046875 0.03125 0.125l0 1.078125q0.6875 -0.765625 1.375 -1.125q0.6875 -0.375 1.390625 -0.375q0.828125 0 1.375 0.28125q0.5625 0.28125 0.90625 0.75q0.359375 0.46875 0.5 1.09375q0.15625 0.609375 0.15625 1.484375l0 5.0z" fill-rule="nonzero"/><path fill="#000000" fill-opacity="0.0" d="m25.650919 224.96326l107.90551 0l0 38.2677l-107.90551 0z" fill-rule="evenodd"/><path fill="#000000" d="m42.416542 240.77388q0 0.171875 -0.03125 0.296875q-0.015625 0.125 -0.0625 0.203125q-0.03125 0.078125 -0.09375 0.125q-0.0625 0.03125 -0.125 0.03125l-4.3125 0l0 4.0l4.078125 0q0.0625 0 0.109375 0.03125q0.0625 0.03125 0.109375 0.109375q0.046875 0.078125 0.0625 0.203125q0.03125 0.109375 0.03125 0.3125q0 0.171875 -0.03125 0.296875q-0.015625 0.109375 -0.0625 0.1875q-0.046875 0.078125 -0.109375 0.125q-0.046875 0.046875 -0.109375 0.046875l-4.078125 0l0 4.90625q0 0.0625 -0.046875 0.125q-0.03125 0.0625 -0.125 0.09375q-0.09375 0.03125 -0.234375 0.046875q-0.140625 0.015625 -0.390625 0.015625q-0.21875 0 -0.375 -0.015625q-0.140625 -0.015625 -0.234375 -0.046875q-0.09375 -0.03125 -0.140625 -0.09375q-0.03125 -0.0625 -0.03125 -0.125l0 -10.921875q0 -0.34375 0.1875 -0.484375q0.1875 -0.140625 0.40625 -0.140625l5.296875 0q0.0625 0 0.125 0.03125q0.0625 0.03125 0.09375 0.125q0.046875 0.078125 0.0625 0.21875q0.03125 0.125 0.03125 0.296875zm6.9939117 3.21875q0 0.203125 -0.015625 0.34375q0 0.125 -0.03125 0.203125q-0.03125 0.078125 -0.078125 0.125q-0.03125 0.046875 -0.109375 0.046875q-0.0625 0 -0.171875 -0.046875q-0.109375 -0.046875 -0.25 -0.078125q-0.125 -0.046875 -0.296875 -0.078125q-0.15625 -0.046875 -0.34375 -0.046875q-0.21875 0 -0.4375 0.09375q-0.21875 0.09375 -0.46875 0.3125q-0.234375 0.203125 -0.5 0.546875q-0.265625 0.34375 -0.59375 0.84375l0 5.390625q0 0.078125 -0.03125 0.140625q-0.03125 0.046875 -0.125 0.078125q-0.078125 0.03125 -0.21875 0.046875q-0.140625 0.015625 -0.375 0.015625q-0.21875 0 -0.375 -0.015625q-0.140625 -0.015625 -0.234375 -0.046875q-0.078125 -0.03125 -0.109375 -0.078125q-0.03125 -0.0625 -0.03125 -0.140625l0 -8.1875q0 -0.078125 0.03125 -0.125q0.03125 -0.046875 0.109375 -0.09375q0.078125 -0.046875 0.203125 -0.046875q0.140625 -0.015625 0.34375 -0.015625q0.203125 0 0.328125 0.015625q0.140625 0 0.203125 0.046875q0.078125 0.046875 0.109375 0.09375q0.03125 0.046875 0.03125 0.125l0 1.1875q0.34375 -0.484375 0.640625 -0.796875q0.296875 -0.3125 0.546875 -0.484375q0.265625 -0.1875 0.53125 -0.25q0.265625 -0.078125 0.515625 -0.078125q0.125 0 0.265625 0.015625q0.15625 0.015625 0.3125 0.0625q0.171875 0.03125 0.296875 0.078125q0.140625 0.046875 0.1875 0.09375q0.0625 0.046875 0.078125 0.09375q0.03125 0.03125 0.03125 0.09375q0.015625 0.0625 0.015625 0.1875q0.015625 0.125 0.015625 0.328125zm7.4963684 7.671875q0 0.109375 -0.078125 0.171875q-0.0625 0.046875 -0.1875 0.0625q-0.125 0.03125 -0.375 0.03125q-0.234375 0 -0.375 -0.03125q-0.140625 -0.015625 -0.203125 -0.0625q-0.0625 -0.0625 -0.0625 -0.171875l0 -0.8125q-0.546875 0.5625 -1.203125 0.890625q-0.65625 0.3125 -1.390625 0.3125q-0.65625 0 -1.1875 -0.171875q-0.515625 -0.15625 -0.890625 -0.46875q-0.359375 -0.328125 -0.5625 -0.796875q-0.203125 -0.46875 -0.203125 -1.0625q0 -0.6875 0.28125 -1.1875q0.28125 -0.515625 0.796875 -0.84375q0.53125 -0.34375 1.296875 -0.515625q0.765625 -0.171875 1.734375 -0.171875l1.125 0l0 -0.640625q0 -0.46875 -0.109375 -0.828125q-0.09375 -0.375 -0.328125 -0.609375q-0.21875 -0.25 -0.578125 -0.359375q-0.34375 -0.125 -0.859375 -0.125q-0.5625 0 -1.0 0.140625q-0.4375 0.125 -0.78125 0.28125q-0.328125 0.15625 -0.546875 0.296875q-0.21875 0.125 -0.328125 0.125q-0.078125 0 -0.140625 -0.03125q-0.046875 -0.046875 -0.09375 -0.109375q-0.03125 -0.078125 -0.0625 -0.1875q-0.015625 -0.125 -0.015625 -0.25q0 -0.234375 0.03125 -0.359375q0.03125 -0.140625 0.15625 -0.25q0.125 -0.125 0.421875 -0.28125q0.3125 -0.171875 0.703125 -0.296875q0.390625 -0.125 0.84375 -0.21875q0.46875 -0.09375 0.953125 -0.09375q0.875 0 1.484375 0.203125q0.625 0.203125 1.0 0.59375q0.390625 0.390625 0.5625 0.96875q0.171875 0.5625 0.171875 1.328125l0 5.53125zm-1.484375 -3.75l-1.28125 0q-0.625 0 -1.078125 0.109375q-0.453125 0.109375 -0.765625 0.3125q-0.296875 0.203125 -0.4375 0.5q-0.140625 0.28125 -0.140625 0.65625q0 0.625 0.40625 1.015625q0.40625 0.375 1.140625 0.375q0.59375 0 1.09375 -0.296875q0.5 -0.3125 1.0625 -0.921875l0 -1.75zm11.311417 3.734375q0 0.078125 -0.046875 0.140625q-0.03125 0.046875 -0.109375 0.078125q-0.078125 0.03125 -0.234375 0.046875q-0.140625 0.015625 -0.359375 0.015625q-0.21875 0 -0.375 -0.015625q-0.140625 -0.015625 -0.234375 -0.046875q-0.078125 -0.03125 -0.109375 -0.078125q-0.03125 -0.0625 -0.03125 -0.140625l0 -4.796875q0 -0.703125 -0.109375 -1.125q-0.109375 -0.4375 -0.328125 -0.734375q-0.203125 -0.3125 -0.546875 -0.46875q-0.328125 -0.171875 -0.765625 -0.171875q-0.5625 0 -1.125 0.40625q-0.5625 0.390625 -1.1875 1.171875l0 5.71875q0 0.078125 -0.03125 0.140625q-0.03125 0.046875 -0.125 0.078125q-0.078125 0.03125 -0.21875 0.046875q-0.140625 0.015625 -0.375 0.015625q-0.21875 0 -0.375 -0.015625q-0.140625 -0.015625 -0.234375 -0.046875q-0.078125 -0.03125 -0.109375 -0.078125q-0.03125 -0.0625 -0.03125 -0.140625l0 -8.1875q0 -0.078125 0.03125 -0.125q0.03125 -0.046875 0.109375 -0.09375q0.078125 -0.046875 0.203125 -0.046875q0.140625 -0.015625 0.34375 -0.015625q0.203125 0 0.328125 0.015625q0.140625 0 0.203125 0.046875q0.078125 0.046875 0.109375 0.09375q0.03125 0.046875 0.03125 0.125l0 1.078125q0.6875 -0.765625 1.375 -1.125q0.6875 -0.375 1.390625 -0.375q0.828125 0 1.375 0.28125q0.5625 0.28125 0.90625 0.75q0.359375 0.46875 0.5 1.09375q0.15625 0.609375 0.15625 1.484375l0 5.0zm8.629944 -1.234375q0 0.140625 -0.015625 0.265625q0 0.109375 -0.03125 0.1875q-0.015625 0.078125 -0.046875 0.140625q-0.03125 0.0625 -0.140625 0.171875q-0.109375 0.109375 -0.390625 0.28125q-0.265625 0.171875 -0.609375 0.3125q-0.34375 0.125 -0.75 0.203125q-0.390625 0.078125 -0.828125 0.078125q-0.875 0 -1.5625 -0.28125q-0.6875 -0.296875 -1.15625 -0.859375q-0.453125 -0.5625 -0.703125 -1.375q-0.234375 -0.8125 -0.234375 -1.890625q0 -1.203125 0.296875 -2.0625q0.296875 -0.875 0.8125 -1.4375q0.515625 -0.5625 1.203125 -0.828125q0.703125 -0.265625 1.515625 -0.265625q0.390625 0 0.765625 0.078125q0.375 0.0625 0.671875 0.1875q0.3125 0.125 0.546875 0.28125q0.25 0.140625 0.359375 0.25q0.109375 0.109375 0.140625 0.1875q0.046875 0.0625 0.078125 0.15625q0.03125 0.078125 0.03125 0.1875q0.015625 0.109375 0.015625 0.265625q0 0.359375 -0.078125 0.5q-0.078125 0.140625 -0.203125 0.140625q-0.140625 0 -0.3125 -0.140625q-0.171875 -0.15625 -0.453125 -0.34375q-0.265625 -0.1875 -0.65625 -0.328125q-0.390625 -0.15625 -0.921875 -0.15625q-1.078125 0 -1.65625 0.84375q-0.578125 0.828125 -0.578125 2.40625q0 0.796875 0.140625 1.390625q0.15625 0.59375 0.4375 1.0q0.296875 0.40625 0.71875 0.609375q0.4375 0.1875 0.984375 0.1875q0.515625 0 0.90625 -0.15625q0.390625 -0.171875 0.671875 -0.359375q0.296875 -0.203125 0.484375 -0.359375q0.203125 -0.171875 0.3125 -0.171875q0.0625 0 0.109375 0.046875q0.046875 0.03125 0.078125 0.125q0.03125 0.078125 0.03125 0.21875q0.015625 0.125 0.015625 0.3125zm8.998199 -3.21875q0 0.359375 -0.1875 0.515625q-0.171875 0.140625 -0.390625 0.140625l-5.375 0q0 0.6875 0.125 1.234375q0.140625 0.546875 0.453125 0.9375q0.328125 0.390625 0.828125 0.609375q0.515625 0.203125 1.25 0.203125q0.59375 0 1.046875 -0.09375q0.453125 -0.09375 0.78125 -0.203125q0.34375 -0.125 0.546875 -0.21875q0.21875 -0.109375 0.328125 -0.109375q0.0625 0 0.109375 0.03125q0.0625 0.03125 0.078125 0.109375q0.03125 0.0625 0.046875 0.171875q0.015625 0.109375 0.015625 0.28125q0 0.109375 -0.015625 0.203125q0 0.078125 -0.015625 0.15625q-0.015625 0.0625 -0.046875 0.125q-0.03125 0.046875 -0.09375 0.09375q-0.046875 0.046875 -0.296875 0.171875q-0.234375 0.109375 -0.625 0.21875q-0.390625 0.109375 -0.90625 0.1875q-0.515625 0.09375 -1.09375 0.09375q-1.015625 0 -1.78125 -0.28125q-0.765625 -0.28125 -1.28125 -0.828125q-0.515625 -0.5625 -0.78125 -1.390625q-0.265625 -0.84375 -0.265625 -1.96875q0 -1.046875 0.265625 -1.890625q0.28125 -0.84375 0.796875 -1.421875q0.515625 -0.59375 1.234375 -0.90625q0.734375 -0.328125 1.640625 -0.328125q0.96875 0 1.640625 0.3125q0.6875 0.3125 1.125 0.84375q0.4375 0.515625 0.640625 1.234375q0.203125 0.703125 0.203125 1.5l0 0.265625zm-1.515625 -0.4375q0.03125 -1.1875 -0.53125 -1.859375q-0.546875 -0.671875 -1.625 -0.671875q-0.5625 0 -0.984375 0.21875q-0.40625 0.203125 -0.6875 0.546875q-0.28125 0.34375 -0.4375 0.8125q-0.15625 0.453125 -0.171875 0.953125l4.4375 0z" fill-rule="nonzero"/><path fill="#000000" fill-opacity="0.0" d="m444.1181 159.85826l107.90552 0l0 38.26773l-107.90552 0z" fill-rule="evenodd"/><path fill="#000000" d="m461.9306 178.45013q0 0.875 -0.296875 1.59375q-0.296875 0.703125 -0.84375 1.203125q-0.53125 0.5 -1.328125 0.78125q-0.78125 0.265625 -1.875 0.265625l-1.328125 0l0 4.25q0 0.078125 -0.046875 0.140625q-0.046875 0.046875 -0.140625 0.078125q-0.078125 0.03125 -0.234375 0.046875q-0.140625 0.015625 -0.375 0.015625q-0.21875 0 -0.375 -0.015625q-0.140625 -0.015625 -0.234375 -0.046875q-0.09375 -0.03125 -0.140625 -0.078125q-0.03125 -0.0625 -0.03125 -0.140625l0 -10.875q0 -0.375 0.1875 -0.515625q0.203125 -0.15625 0.4375 -0.15625l2.515625 0q0.390625 0 0.734375 0.03125q0.359375 0.03125 0.828125 0.140625q0.484375 0.09375 0.984375 0.390625q0.5 0.28125 0.84375 0.703125q0.34375 0.40625 0.53125 0.96875q0.1875 0.546875 0.1875 1.21875zm-1.65625 0.125q0 -0.71875 -0.265625 -1.203125q-0.265625 -0.484375 -0.671875 -0.71875q-0.390625 -0.234375 -0.8125 -0.296875q-0.421875 -0.078125 -0.828125 -0.078125l-1.4375 0l0 4.734375l1.40625 0q0.703125 0 1.171875 -0.171875q0.46875 -0.1875 0.78125 -0.515625q0.328125 -0.328125 0.484375 -0.765625q0.171875 -0.453125 0.171875 -0.984375zm9.643066 7.984375q0 0.109375 -0.078125 0.171875q-0.0625 0.046875 -0.1875 0.0625q-0.125 0.03125 -0.375 0.03125q-0.234375 0 -0.375 -0.03125q-0.140625 -0.015625 -0.203125 -0.0625q-0.0625 -0.0625 -0.0625 -0.171875l0 -0.8125q-0.546875 0.5625 -1.203125 0.890625q-0.65625 0.3125 -1.390625 0.3125q-0.65625 0 -1.1875 -0.171875q-0.515625 -0.15625 -0.890625 -0.46875q-0.359375 -0.328125 -0.5625 -0.796875q-0.203125 -0.46875 -0.203125 -1.0625q0 -0.6875 0.28125 -1.1875q0.28125 -0.515625 0.796875 -0.84375q0.53125 -0.34375 1.296875 -0.515625q0.765625 -0.171875 1.734375 -0.171875l1.125 0l0 -0.640625q0 -0.46875 -0.109375 -0.828125q-0.09375 -0.375 -0.328125 -0.609375q-0.21875 -0.25 -0.578125 -0.359375q-0.34375 -0.125 -0.859375 -0.125q-0.5625 0 -1.0 0.140625q-0.4375 0.125 -0.78125 0.28125q-0.328125 0.15625 -0.546875 0.296875q-0.21875 0.125 -0.328125 0.125q-0.078125 0 -0.140625 -0.03125q-0.046875 -0.046875 -0.09375 -0.109375q-0.03125 -0.078125 -0.0625 -0.1875q-0.015625 -0.125 -0.015625 -0.25q0 -0.234375 0.03125 -0.359375q0.03125 -0.140625 0.15625 -0.25q0.125 -0.125 0.421875 -0.28125q0.3125 -0.171875 0.703125 -0.296875q0.390625 -0.125 0.84375 -0.21875q0.46875 -0.09375 0.953125 -0.09375q0.875 0 1.484375 0.203125q0.625 0.203125 1.0 0.59375q0.390625 0.390625 0.5625 0.96875q0.171875 0.5625 0.171875 1.328125l0 5.53125zm-1.484375 -3.75l-1.28125 0q-0.625 0 -1.078125 0.109375q-0.453125 0.109375 -0.765625 0.3125q-0.296875 0.203125 -0.4375 0.5q-0.140625 0.28125 -0.140625 0.65625q0 0.625 0.40625 1.015625q0.40625 0.375 1.140625 0.375q0.59375 0 1.09375 -0.296875q0.5 -0.3125 1.0625 -0.921875l0 -1.75zm9.045776 -3.921875q0 0.203125 -0.015625 0.34375q0 0.125 -0.03125 0.203125q-0.03125 0.078125 -0.078125 0.125q-0.03125 0.046875 -0.109375 0.046875q-0.0625 0 -0.171875 -0.046875q-0.109375 -0.046875 -0.25 -0.078125q-0.125 -0.046875 -0.296875 -0.078125q-0.15625 -0.046875 -0.34375 -0.046875q-0.21875 0 -0.4375 0.09375q-0.21875 0.09375 -0.46875 0.3125q-0.234375 0.203125 -0.5 0.546875q-0.265625 0.34375 -0.59375 0.84375l0 5.390625q0 0.078125 -0.03125 0.140625q-0.03125 0.046875 -0.125 0.078125q-0.078125 0.03125 -0.21875 0.046875q-0.140625 0.015625 -0.375 0.015625q-0.21875 0 -0.375 -0.015625q-0.140625 -0.015625 -0.234375 -0.046875q-0.078125 -0.03125 -0.109375 -0.078125q-0.03125 -0.0625 -0.03125 -0.140625l0 -8.1875q0 -0.078125 0.03125 -0.125q0.03125 -0.046875 0.109375 -0.09375q0.078125 -0.046875 0.203125 -0.046875q0.140625 -0.015625 0.34375 -0.015625q0.203125 0 0.328125 0.015625q0.140625 0 0.203125 0.046875q0.078125 0.046875 0.109375 0.09375q0.03125 0.046875 0.03125 0.125l0 1.1875q0.34375 -0.484375 0.640625 -0.796875q0.296875 -0.3125 0.546875 -0.484375q0.265625 -0.1875 0.53125 -0.25q0.265625 -0.078125 0.515625 -0.078125q0.125 0 0.265625 0.015625q0.15625 0.015625 0.3125 0.0625q0.171875 0.03125 0.296875 0.078125q0.140625 0.046875 0.1875 0.09375q0.0625 0.046875 0.078125 0.09375q0.03125 0.03125 0.03125 0.09375q0.015625 0.0625 0.015625 0.1875q0.015625 0.125 0.015625 0.328125zm3.207306 7.65625q0 0.078125 -0.03125 0.140625q-0.03125 0.046875 -0.125 0.078125q-0.078125 0.03125 -0.21875 0.046875q-0.140625 0.015625 -0.375 0.015625q-0.21875 0 -0.375 -0.015625q-0.140625 -0.015625 -0.234375 -0.046875q-0.078125 -0.03125 -0.109375 -0.078125q-0.03125 -0.0625 -0.03125 -0.140625l0 -8.1875q0 -0.0625 0.03125 -0.109375q0.03125 -0.0625 0.109375 -0.09375q0.09375 -0.046875 0.234375 -0.0625q0.15625 -0.015625 0.375 -0.015625q0.234375 0 0.375 0.015625q0.140625 0.015625 0.21875 0.0625q0.09375 0.03125 0.125 0.09375q0.03125 0.046875 0.03125 0.109375l0 8.1875zm0.171875 -10.96875q0 0.53125 -0.203125 0.734375q-0.1875 0.1875 -0.734375 0.1875q-0.515625 0 -0.71875 -0.1875q-0.1875 -0.1875 -0.1875 -0.703125q0 -0.53125 0.1875 -0.71875q0.203125 -0.203125 0.75 -0.203125q0.515625 0 0.703125 0.1875q0.203125 0.1875 0.203125 0.703125zm7.7658386 8.75q0 0.625 -0.234375 1.125q-0.234375 0.484375 -0.671875 0.828125q-0.421875 0.328125 -1.015625 0.5q-0.59375 0.171875 -1.296875 0.171875q-0.4375 0 -0.84375 -0.078125q-0.390625 -0.0625 -0.703125 -0.15625q-0.3125 -0.109375 -0.53125 -0.21875q-0.21875 -0.125 -0.328125 -0.203125q-0.09375 -0.09375 -0.140625 -0.25q-0.046875 -0.171875 -0.046875 -0.453125q0 -0.171875 0.015625 -0.296875q0.03125 -0.125 0.046875 -0.1875q0.03125 -0.078125 0.078125 -0.109375q0.046875 -0.03125 0.125 -0.03125q0.09375 0 0.28125 0.125q0.203125 0.125 0.484375 0.265625q0.296875 0.140625 0.6875 0.265625q0.390625 0.125 0.90625 0.125q0.375 0 0.6875 -0.078125q0.3125 -0.078125 0.53125 -0.234375q0.234375 -0.171875 0.359375 -0.40625q0.125 -0.25 0.125 -0.59375q0 -0.34375 -0.1875 -0.578125q-0.171875 -0.234375 -0.46875 -0.421875q-0.28125 -0.1875 -0.65625 -0.328125q-0.359375 -0.140625 -0.75 -0.296875q-0.390625 -0.15625 -0.765625 -0.34375q-0.359375 -0.203125 -0.65625 -0.484375q-0.28125 -0.28125 -0.46875 -0.671875q-0.171875 -0.390625 -0.171875 -0.9375q0 -0.484375 0.1875 -0.921875q0.1875 -0.4375 0.5625 -0.765625q0.375 -0.34375 0.921875 -0.546875q0.5625 -0.203125 1.3125 -0.203125q0.328125 0 0.65625 0.0625q0.328125 0.046875 0.59375 0.140625q0.265625 0.078125 0.453125 0.171875q0.1875 0.09375 0.28125 0.171875q0.09375 0.078125 0.125 0.140625q0.03125 0.046875 0.046875 0.109375q0.015625 0.0625 0.03125 0.171875q0.015625 0.09375 0.015625 0.234375q0 0.15625 -0.015625 0.28125q-0.015625 0.109375 -0.046875 0.1875q-0.03125 0.0625 -0.078125 0.09375q-0.046875 0.03125 -0.09375 0.03125q-0.09375 0 -0.25 -0.09375q-0.140625 -0.09375 -0.390625 -0.203125q-0.25 -0.125 -0.578125 -0.21875q-0.328125 -0.109375 -0.765625 -0.109375q-0.375 0 -0.671875 0.09375q-0.296875 0.078125 -0.484375 0.25q-0.1875 0.15625 -0.28125 0.375q-0.09375 0.21875 -0.09375 0.46875q0 0.359375 0.171875 0.609375q0.1875 0.234375 0.484375 0.421875q0.296875 0.171875 0.671875 0.328125q0.375 0.140625 0.75 0.296875q0.390625 0.140625 0.765625 0.34375q0.390625 0.1875 0.671875 0.46875q0.296875 0.265625 0.46875 0.65625q0.1875 0.375 0.1875 0.90625z" fill-rule="nonzero"/><path fill="#000000" fill-opacity="0.0" d="m149.75853 235.7664l277.95276 -54.04724" fill-rule="evenodd"/><path stroke="#44546a" stroke-width="3.0" stroke-linejoin="round" stroke-linecap="butt" d="m149.75853 235.7664l267.86053 -52.084824" fill-rule="evenodd"/><path fill="#44546a" stroke="#44546a" stroke-width="3.0" stroke-linecap="butt" d="m417.61905 183.68156l-2.6677551 3.9556885l8.454926 -5.0809784l-9.742859 -1.5424652z" fill-rule="evenodd"/><path fill="#000000" fill-opacity="0.0" d="m119.13123 78.64567l30.897636 160.22046" fill-rule="evenodd"/><path stroke="#44546a" stroke-width="3.0" stroke-linejoin="round" stroke-linecap="butt" d="m119.13123 78.64567l28.950813 150.12521" fill-rule="evenodd"/><path fill="#44546a" stroke="#44546a" stroke-width="3.0" stroke-linecap="butt" d="m148.08206 228.77089l-3.9515533 -2.673874l5.0679016 8.462769l1.5575256 -9.740448z" fill-rule="evenodd"/><path fill="#000000" fill-opacity="0.0" d="m391.8609 20.776903l30.897644 160.22047" fill-rule="evenodd"/><path stroke="#44546a" stroke-width="3.0" stroke-linejoin="round" stroke-linecap="butt" d="m393.8077 30.87216l28.950836 150.12521" fill-rule="evenodd"/><path fill="#44546a" stroke="#44546a" stroke-width="3.0" stroke-linecap="butt" d="m393.8077 30.87216l3.951538 2.6738758l-5.0679016 -8.46277l-1.5575256 9.74045z" fill-rule="evenodd"/></g></svg>