<svg version="1.1" viewBox="0.0 0.0 1159.4619422572177 327.5249343832021" fill="none" stroke="none" stroke-linecap="square" stroke-miterlimit="10" xmlns:xlink="http://www.w3.org/1999/xlink" xmlns="http://www.w3.org/2000/svg"><clipPath id="p.0"><path d="m0 0l1159.4619 0l0 327.52493l-1159.4619 0l0 -327.52493z" clip-rule="nonzero"/></clipPath><g clip-path="url(#p.0)"><path fill="#000000" fill-opacity="0.0" d="m0 0l1159.4619 0l0 327.52493l-1159.4619 0z" fill-rule="evenodd"/><path fill="#000000" fill-opacity="0.0" d="m0 0l1143.5591 0l0 90.67716l-1143.5591 0z" fill-rule="evenodd"/><path fill="#000000" d="m25.329773 62.21057l0 -29.578125l-11.0625 0l0 -3.96875l26.59375 0l0 3.96875l-11.09375 0l0 29.578125l-4.4375 0zm19.56108 0l0 -33.546875l4.109375 0l0 12.046875q2.890625 -3.34375 7.28125 -3.34375q2.703125 0 4.6875 1.0625q2.0 1.0625 2.84375 2.9375q0.859375 1.875 0.859375 5.4375l0 15.40625l-4.109375 0l0 -15.40625q0 -3.078125 -1.34375 -4.484375q-1.34375 -1.40625 -3.78125 -1.40625q-1.828125 0 -3.453125 0.953125q-1.609375 0.9375 -2.296875 2.5625q-0.6875 1.625 -0.6875 4.484375l0 13.296875l-4.109375 0zm42.68596 -7.828125l4.265625 0.53125q-1.015625 3.734375 -3.734375 5.796875q-2.71875 2.046875 -6.953125 2.046875q-5.328125 0 -8.453125 -3.28125q-3.125 -3.28125 -3.125 -9.203125q0 -6.140625 3.15625 -9.515625q3.15625 -3.390625 8.1875 -3.390625q4.875 0 7.953125 3.3125q3.09375 3.3125 3.09375 9.328125q0 0.375 -0.015625 1.109375l-18.125 0q0.234375 4.0 2.265625 6.125q2.03125 2.125 5.078125 2.125q2.265625 0 3.859375 -1.1875q1.609375 -1.1875 2.546875 -3.796875zm-13.515625 -6.65625l13.5625 0q-0.265625 -3.0625 -1.546875 -4.59375q-1.96875 -2.390625 -5.109375 -2.390625q-2.84375 0 -4.78125 1.90625q-1.921875 1.90625 -2.125 5.078125zm61.243088 16.5l4.015625 0.59375q0.25 1.859375 1.390625 2.703125q1.53125 1.140625 4.1875 1.140625q2.859375 0 4.40625 -1.140625q1.5625 -1.140625 2.109375 -3.203125q0.328125 -1.265625 0.296875 -5.296875q-2.6875 3.1875 -6.71875 3.1875q-5.015625 0 -7.765625 -3.609375q-2.734375 -3.625 -2.734375 -8.671875q0 -3.484375 1.25 -6.421875q1.265625 -2.9375 3.65625 -4.53125q2.390625 -1.609375 5.609375 -1.609375q4.3125 0 7.09375 3.46875l0 -2.921875l3.796875 0l0 21.0q0 5.671875 -1.15625 8.03125q-1.15625 2.375 -3.65625 3.75q-2.5 1.375 -6.171875 1.375q-4.34375 0 -7.015625 -1.953125q-2.671875 -1.953125 -2.59375 -5.890625zm3.421875 -14.59375q0 4.78125 1.890625 6.984375q1.90625 2.1875 4.765625 2.1875q2.828125 0 4.75 -2.1875q1.921875 -2.1875 1.921875 -6.859375q0 -4.453125 -1.984375 -6.71875q-1.96875 -2.265625 -4.765625 -2.265625q-2.734375 0 -4.65625 2.234375q-1.921875 2.21875 -1.921875 6.625zm23.420334 -16.234375l0 -4.734375l4.125 0l0 4.734375l-4.125 0zm0 28.8125l0 -24.296875l4.125 0l0 24.296875l-4.125 0zm10.34816 0l0 -24.296875l3.703125 0l0 3.6875q1.421875 -2.59375 2.625 -3.40625q1.203125 -0.828125 2.640625 -0.828125q2.078125 0 4.234375 1.328125l-1.421875 3.8125q-1.515625 -0.890625 -3.015625 -0.890625q-1.359375 0 -2.4375 0.8125q-1.0625 0.8125 -1.53125 2.25q-0.6875 2.203125 -0.6875 4.8125l0 12.71875l-4.109375 0zm15.557663 0l0 -33.546875l4.109375 0l0 33.546875l-4.109375 0zm11.582535 0l0 -4.6875l4.6875 0l0 4.6875q0 2.578125 -0.921875 4.171875q-0.90625 1.59375 -2.90625 2.46875l-1.140625 -1.765625q1.296875 -0.578125 1.90625 -1.6875q0.625 -1.109375 0.703125 -3.1875l-2.328125 0zm55.48242 0l-7.4375 -24.296875l4.25 0l3.875 14.03125l1.4374847 5.203125q0.09375 -0.390625 1.25 -5.0l3.875 -14.234375l4.234375 0l3.640625 14.09375l1.203125 4.640625l1.40625 -4.6875l4.15625 -14.046875l4.0 0l-7.59375 24.296875l-4.28125 0l-3.859375 -14.546875l-0.9375 -4.140625l-4.921875 18.6875l-4.2968597 0zm29.355972 0l0 -33.546875l4.109375 0l0 12.046875q2.890625 -3.34375 7.28125 -3.34375q2.703125 0 4.6875 1.0625q2.0 1.0625 2.84375 2.9375q0.859375 1.875 0.859375 5.4375l0 15.40625l-4.109375 0l0 -15.40625q0 -3.078125 -1.34375 -4.484375q-1.34375 -1.40625 -3.78125 -1.40625q-1.828125 0 -3.453125 0.953125q-1.609375 0.9375 -2.296875 2.5625q-0.6875 1.625 -0.6875 4.484375l0 13.296875l-4.109375 0zm24.529694 -12.15625q0 -6.75 3.75 -9.984375q3.125 -2.703125 7.640625 -2.703125q5.015625 0 8.1875 3.28125q3.1875 3.28125 3.1875 9.0625q0 4.703125 -1.421875 7.390625q-1.40625 2.6875 -4.09375 4.171875q-2.6875 1.484375 -5.859375 1.484375q-5.109375 0 -8.25 -3.265625q-3.140625 -3.28125 -3.140625 -9.4375zm4.21875 0q0 4.671875 2.03125 7.0q2.046875 2.3125 5.140625 2.3125q3.0625 0 5.09375 -2.328125q2.046875 -2.328125 2.046875 -7.109375q0 -4.515625 -2.046875 -6.828125q-2.046875 -2.328125 -5.09375 -2.328125q-3.09375 0 -5.140625 2.3125q-2.03125 2.3125 -2.03125 6.96875zm62.446228 -16.65625l0 -4.734375l4.125 0l0 4.734375l-4.125 0zm0 28.8125l0 -24.296875l4.125 0l0 24.296875l-4.125 0zm8.73877 -7.25l4.078125 -0.640625q0.34375 2.4375 1.90625 3.75q1.5625 1.296875 4.390625 1.296875q2.828125 0 4.203125 -1.140625q1.375 -1.15625 1.375 -2.71875q0 -1.390625 -1.21875 -2.203125q-0.84375 -0.546875 -4.203125 -1.390625q-4.53125 -1.140625 -6.28125 -1.96875q-1.75 -0.84375 -2.65625 -2.3125q-0.90625 -1.484375 -0.90625 -3.265625q0 -1.625 0.734375 -3.0q0.75 -1.390625 2.03125 -2.3125q0.96875 -0.703125 2.625 -1.1875q1.65625 -0.5 3.5625 -0.5q2.859375 0 5.015625 0.828125q2.171875 0.8125 3.1875 2.21875q1.03125 1.40625 1.421875 3.765625l-4.015625 0.546875q-0.28125 -1.875 -1.59375 -2.921875q-1.3125 -1.0625 -3.71875 -1.0625q-2.84375 0 -4.0625 0.953125q-1.203125 0.9375 -1.203125 2.1875q0 0.796875 0.5 1.4375q0.5 0.671875 1.578125 1.109375q0.625 0.21875 3.640625 1.046875q4.375 1.171875 6.09375 1.921875q1.734375 0.734375 2.71875 2.15625q0.984375 1.40625 0.984375 3.515625q0 2.0625 -1.203125 3.890625q-1.203125 1.8125 -3.46875 2.8125q-2.265625 0.984375 -5.125 0.984375q-4.734375 0 -7.21875 -1.96875q-2.484375 -1.96875 -3.171875 -5.828125zm64.14307 16.5625l0 -33.609375l3.75 0l0 3.15625q1.328125 -1.859375 3.0 -2.78125q1.671875 -0.921875 4.046875 -0.921875q3.109375 0 5.484375 1.609375q2.390625 1.59375 3.59375 4.515625q1.21875 2.90625 1.21875 6.390625q0 3.71875 -1.34375 6.71875q-1.34375 2.984375 -3.890625 4.578125q-2.546875 1.578125 -5.359375 1.578125q-2.0625 0 -3.703125 -0.859375q-1.625 -0.875 -2.6875 -2.203125l0 11.828125l-4.109375 0zm3.71875 -21.328125q0 4.6875 1.890625 6.9375q1.90625 2.234375 4.609375 2.234375q2.75 0 4.703125 -2.3125q1.953125 -2.328125 1.953125 -7.203125q0 -4.640625 -1.90625 -6.953125q-1.90625 -2.3125 -4.5625 -2.3125q-2.625 0 -4.65625 2.46875q-2.03125 2.453125 -2.03125 7.140625zm22.248474 12.015625l0 -33.546875l4.109375 0l0 33.546875l-4.109375 0zm26.348145 -3.0q-2.28125 1.953125 -4.40625 2.75q-2.109375 0.796875 -4.53125 0.796875q-4.0 0 -6.15625 -1.953125q-2.15625 -1.953125 -2.15625 -5.0q0 -1.78125 0.8125 -3.25q0.8125 -1.484375 2.125 -2.375q1.328125 -0.890625 2.96875 -1.359375q1.21875 -0.3125 3.65625 -0.609375q5.0 -0.59375 7.359375 -1.421875q0.015625 -0.84375 0.015625 -1.078125q0 -2.515625 -1.171875 -3.546875q-1.578125 -1.390625 -4.6875 -1.390625q-2.90625 0 -4.296875 1.015625q-1.375 1.015625 -2.046875 3.609375l-4.015625 -0.546875q0.546875 -2.59375 1.796875 -4.171875q1.265625 -1.59375 3.640625 -2.453125q2.390625 -0.859375 5.515625 -0.859375q3.109375 0 5.046875 0.734375q1.953125 0.71875 2.859375 1.828125q0.921875 1.109375 1.296875 2.8125q0.203125 1.046875 0.203125 3.796875l0 5.484375q0 5.75 0.265625 7.28125q0.265625 1.515625 1.046875 2.90625l-4.3125 0q-0.640625 -1.28125 -0.828125 -3.0zm-0.328125 -9.203125q-2.25 0.921875 -6.734375 1.5625q-2.546875 0.375 -3.59375 0.828125q-1.046875 0.453125 -1.625 1.34375q-0.5625 0.875 -0.5625 1.953125q0 1.640625 1.234375 2.75q1.25 1.09375 3.65625 1.09375q2.375 0 4.21875 -1.046875q1.859375 -1.046875 2.734375 -2.84375q0.671875 -1.40625 0.671875 -4.125l0 -1.515625zm10.357849 21.5625l-0.453125 -3.875q1.34375 0.375 2.359375 0.375q1.359375 0 2.1875 -0.46875q0.828125 -0.453125 1.34375 -1.265625q0.390625 -0.625 1.265625 -3.078125q0.109375 -0.34375 0.359375 -1.0l-9.21875 -24.34375l4.4375 0l5.0625 14.0625q0.984375 2.6875 1.765625 5.640625q0.703125 -2.84375 1.6875 -5.546875l5.203125 -14.15625l4.109375 0l-9.234375 24.703125q-1.5 4.015625 -2.3125 5.515625q-1.109375 2.046875 -2.53125 2.984375q-1.40625 0.953125 -3.375 0.953125q-1.1875 0 -2.65625 -0.5zm23.632812 -38.171875l0 -4.734375l4.125 0l0 4.734375l-4.125 0zm0 28.8125l0 -24.296875l4.125 0l0 24.296875l-4.125 0zm10.39502 0l0 -24.296875l3.703125 0l0 3.453125q2.671875 -4.0 7.734375 -4.0q2.1875 0 4.03125 0.796875q1.84375 0.78125 2.75 2.0625q0.921875 1.28125 1.296875 3.046875q0.21875 1.140625 0.21875 4.0l0 14.9375l-4.109375 0l0 -14.78125q0 -2.515625 -0.484375 -3.765625q-0.484375 -1.25 -1.703125 -1.984375q-1.21875 -0.75 -2.875 -0.75q-2.625 0 -4.546875 1.671875q-1.90625 1.671875 -1.90625 6.34375l0 13.265625l-4.109375 0zm25.29535 2.015625l4.015625 0.59375q0.25 1.859375 1.390625 2.703125q1.53125 1.140625 4.1875 1.140625q2.859375 0 4.40625 -1.140625q1.5625 -1.140625 2.109375 -3.203125q0.328125 -1.265625 0.296875 -5.296875q-2.6875 3.1875 -6.71875 3.1875q-5.015625 0 -7.765625 -3.609375q-2.734375 -3.625 -2.734375 -8.671875q0 -3.484375 1.25 -6.421875q1.265625 -2.9375 3.65625 -4.53125q2.390625 -1.609375 5.609375 -1.609375q4.3125 0 7.09375 3.46875l0 -2.921875l3.796875 0l0 21.0q0 5.671875 -1.15625 8.03125q-1.15625 2.375 -3.65625 3.75q-2.5 1.375 -6.171875 1.375q-4.34375 0 -7.015625 -1.953125q-2.671875 -1.953125 -2.59375 -5.890625zm3.421875 -14.59375q0 4.78125 1.890625 6.984375q1.90625 2.1875 4.765625 2.1875q2.828125 0 4.75 -2.1875q1.921875 -2.1875 1.921875 -6.859375q0 -4.453125 -1.984375 -6.71875q-1.96875 -2.265625 -4.765625 -2.265625q-2.734375 0 -4.65625 2.234375q-1.921875 2.21875 -1.921875 6.625zm66.94623 12.578125l-7.4375 -24.296875l4.25 0l3.875 14.03125l1.4375 5.203125q0.09375 -0.390625 1.25 -5.0l3.875 -14.234375l4.234375 0l3.640625 14.09375l1.203125 4.640625l1.40625 -4.6875l4.15625 -14.046875l4.0 0l-7.59375 24.296875l-4.28125 0l-3.859375 -14.546875l-0.9375 -4.140625l-4.921875 18.6875l-4.296875 0zm29.371582 -28.8125l0 -4.734375l4.125 0l0 4.734375l-4.125 0zm0 28.8125l0 -24.296875l4.125 0l0 24.296875l-4.125 0zm19.379395 -3.6875l0.59375 3.640625q-1.734375 0.375 -3.109375 0.375q-2.234375 0 -3.484375 -0.703125q-1.234375 -0.71875 -1.734375 -1.875q-0.5 -1.15625 -0.5 -4.859375l0 -13.984375l-3.015625 0l0 -3.203125l3.015625 0l0 -6.015625l4.09375 -2.46875l0 8.484375l4.140625 0l0 3.203125l-4.140625 0l0 14.203125q0 1.765625 0.21875 2.265625q0.21875 0.5 0.703125 0.796875q0.5 0.296875 1.40625 0.296875q0.6875 0 1.8125 -0.15625zm4.034668 3.6875l0 -33.546875l4.109375 0l0 12.046875q2.890625 -3.34375 7.28125 -3.34375q2.703125 0 4.6875 1.0625q2.0 1.0625 2.84375 2.9375q0.859375 1.875 0.859375 5.4375l0 15.40625l-4.109375 0l0 -15.40625q0 -3.078125 -1.34375 -4.484375q-1.34375 -1.40625 -3.78125 -1.40625q-1.828125 0 -3.453125 0.953125q-1.609375 0.9375 -2.296875 2.5625q-0.6875 1.625 -0.6875 4.484375l0 13.296875l-4.109375 0zm80.96185 -8.90625l4.0625 0.53125q-0.671875 4.1875 -3.40625 6.5625q-2.734375 2.359375 -6.71875 2.359375q-4.984375 0 -8.015625 -3.25q-3.03125 -3.265625 -3.03125 -9.359375q0 -3.9375 1.296875 -6.875q1.3125 -2.953125 3.96875 -4.421875q2.671875 -1.484375 5.8125 -1.484375q3.953125 0 6.46875 2.0q2.515625 2.0 3.234375 5.6875l-4.0 0.609375q-0.578125 -2.4375 -2.03125 -3.671875q-1.453125 -1.25 -3.515625 -1.25q-3.109375 0 -5.0625 2.234375q-1.9375 2.234375 -1.9375 7.0625q0 4.890625 1.875 7.109375q1.875 2.21875 4.90625 2.21875q2.421875 0 4.046875 -1.484375q1.625 -1.484375 2.046875 -4.578125zm23.429688 5.90625q-2.28125 1.953125 -4.40625 2.75q-2.109375 0.796875 -4.53125 0.796875q-4.0 0 -6.15625 -1.953125q-2.15625 -1.953125 -2.15625 -5.0q0 -1.78125 0.8125 -3.25q0.8125 -1.484375 2.125 -2.375q1.328125 -0.890625 2.96875 -1.359375q1.21875 -0.3125 3.65625 -0.609375q5.0 -0.59375 7.359375 -1.421875q0.015625 -0.84375 0.015625 -1.078125q0 -2.515625 -1.171875 -3.546875q-1.578125 -1.390625 -4.6875 -1.390625q-2.90625 0 -4.296875 1.015625q-1.375 1.015625 -2.046875 3.609375l-4.015625 -0.546875q0.546875 -2.59375 1.796875 -4.171875q1.265625 -1.59375 3.640625 -2.453125q2.390625 -0.859375 5.515625 -0.859375q3.109375 0 5.046875 0.734375q1.953125 0.71875 2.859375 1.828125q0.921875 1.109375 1.296875 2.8125q0.203125 1.046875 0.203125 3.796875l0 5.484375q0 5.75 0.265625 7.28125q0.265625 1.515625 1.046875 2.90625l-4.3125 0q-0.640625 -1.28125 -0.828125 -3.0zm-0.328125 -9.203125q-2.25 0.921875 -6.734375 1.5625q-2.546875 0.375 -3.59375 0.828125q-1.046875 0.453125 -1.625 1.34375q-0.5625 0.875 -0.5625 1.953125q0 1.640625 1.234375 2.75q1.25 1.09375 3.65625 1.09375q2.375 0 4.21875 -1.046875q1.859375 -1.046875 2.734375 -2.84375q0.671875 -1.40625 0.671875 -4.125l0 -1.515625zm10.498474 12.203125l0 -24.296875l3.703125 0l0 3.6875q1.421875 -2.59375 2.625 -3.40625q1.203125 -0.828125 2.640625 -0.828125q2.078125 0 4.234375 1.328125l-1.421875 3.8125q-1.515625 -0.890625 -3.015625 -0.890625q-1.359375 0 -2.4375 0.8125q-1.0625 0.8125 -1.53125 2.25q-0.6875 2.203125 -0.6875 4.8125l0 12.71875l-4.109375 0zm13.995178 -7.25l4.078125 -0.640625q0.34375 2.4375 1.90625 3.75q1.5625 1.296875 4.390625 1.296875q2.828125 0 4.203125 -1.140625q1.375 -1.15625 1.375 -2.71875q0 -1.390625 -1.21875 -2.203125q-0.84375 -0.546875 -4.203125 -1.390625q-4.53125 -1.140625 -6.28125 -1.96875q-1.75 -0.84375 -2.65625 -2.3125q-0.90625 -1.484375 -0.90625 -3.265625q0 -1.625 0.734375 -3.0q0.75 -1.390625 2.03125 -2.3125q0.96875 -0.703125 2.625 -1.1875q1.65625 -0.5 3.5625 -0.5q2.859375 0 5.015625 0.828125q2.171875 0.8125 3.1875 2.21875q1.03125 1.40625 1.421875 3.765625l-4.015625 0.546875q-0.28125 -1.875 -1.59375 -2.921875q-1.3125 -1.0625 -3.71875 -1.0625q-2.84375 0 -4.0625 0.953125q-1.203125 0.9375 -1.203125 2.1875q0 0.796875 0.5 1.4375q0.5 0.671875 1.578125 1.109375q0.625 0.21875 3.640625 1.046875q4.375 1.171875 6.09375 1.921875q1.734375 0.734375 2.71875 2.15625q0.984375 1.40625 0.984375 3.515625q0 2.0625 -1.203125 3.890625q-1.203125 1.8125 -3.46875 2.8125q-2.265625 0.984375 -5.125 0.984375q-4.734375 0 -7.21875 -1.96875q-2.484375 -1.96875 -3.171875 -5.828125zm26.164062 7.25l0 -4.6875l4.6875 0l0 4.6875q0 2.578125 -0.921875 4.171875q-0.90625 1.59375 -2.90625 2.46875l-1.140625 -1.765625q1.296875 -0.578125 1.90625 -1.6875q0.625 -1.109375 0.703125 -3.1875l-2.328125 0zm50.904297 0l0 -33.546875l4.109375 0l0 33.546875l-4.109375 0zm10.52002 -28.8125l0 -4.734375l4.125 0l0 4.734375l-4.125 0zm0 28.8125l0 -24.296875l4.125 0l0 24.296875l-4.125 0zm10.410645 0l0 -33.546875l4.125 0l0 19.125l9.75 -9.875l5.328125 0l-9.296875 9.015625l10.234375 15.28125l-5.078125 0l-8.03125 -12.421875l-2.90625 2.796875l0 9.625l-4.125 0zm40.039062 -7.828125l4.265625 0.53125q-1.015625 3.734375 -3.734375 5.796875q-2.71875 2.046875 -6.953125 2.046875q-5.328125 0 -8.453125 -3.28125q-3.125 -3.28125 -3.125 -9.203125q0 -6.140625 3.15625 -9.515625q3.15625 -3.390625 8.1875 -3.390625q4.875 0 7.953125 3.3125q3.09375 3.3125 3.09375 9.328125q0 0.375 -0.015625 1.109375l-18.125 0q0.234375 4.0 2.265625 6.125q2.03125 2.125 5.078125 2.125q2.265625 0 3.859375 -1.1875q1.609375 -1.1875 2.546875 -3.796875zm-13.515625 -6.65625l13.5625 0q-0.265625 -3.0625 -1.546875 -4.59375q-1.96875 -2.390625 -5.109375 -2.390625q-2.84375 0 -4.78125 1.90625q-1.921875 1.90625 -2.125 5.078125zm21.29535 7.234375l4.078125 -0.640625q0.34375 2.4375 1.90625 3.75q1.5625 1.296875 4.390625 1.296875q2.828125 0 4.203125 -1.140625q1.375 -1.15625 1.375 -2.71875q0 -1.390625 -1.21875 -2.203125q-0.84375 -0.546875 -4.203125 -1.390625q-4.53125 -1.140625 -6.28125 -1.96875q-1.75 -0.84375 -2.65625 -2.3125q-0.90625 -1.484375 -0.90625 -3.265625q0 -1.625 0.734375 -3.0q0.75 -1.390625 2.03125 -2.3125q0.96875 -0.703125 2.625 -1.1875q1.65625 -0.5 3.5625 -0.5q2.859375 0 5.015625 0.828125q2.171875 0.8125 3.1875 2.21875q1.03125 1.40625 1.421875 3.765625l-4.015625 0.546875q-0.28125 -1.875 -1.59375 -2.921875q-1.3125 -1.0625 -3.71875 -1.0625q-2.84375 0 -4.0625 0.953125q-1.203125 0.9375 -1.203125 2.1875q0 0.796875 0.5 1.4375q0.5 0.671875 1.578125 1.109375q0.625 0.21875 3.640625 1.046875q4.375 1.171875 6.09375 1.921875q1.734375 0.734375 2.71875 2.15625q0.984375 1.40625 0.984375 3.515625q0 2.0625 -1.203125 3.890625q-1.203125 1.8125 -3.46875 2.8125q-2.265625 0.984375 -5.125 0.984375q-4.734375 0 -7.21875 -1.96875q-2.484375 -1.96875 -3.171875 -5.828125zm73.12738 3.5625l0.59375 3.640625q-1.734375 0.375 -3.109375 0.375q-2.234375 0 -3.484375 -0.703125q-1.234375 -0.71875 -1.734375 -1.875q-0.5 -1.15625 -0.5 -4.859375l0 -13.984375l-3.015625 0l0 -3.203125l3.015625 0l0 -6.015625l4.09375 -2.46875l0 8.484375l4.140625 0l0 3.203125l-4.140625 0l0 14.203125q0 1.765625 0.21875 2.265625q0.21875 0.5 0.703125 0.796875q0.5 0.296875 1.40625 0.296875q0.6875 0 1.8125 -0.15625zm2.503418 -8.46875q0 -6.75 3.75 -9.984375q3.125 -2.703125 7.640625 -2.703125q5.015625 0 8.1875 3.28125q3.1875 3.28125 3.1875 9.0625q0 4.703125 -1.421875 7.390625q-1.40625 2.6875 -4.09375 4.171875q-2.6875 1.484375 -5.859375 1.484375q-5.109375 0 -8.25 -3.265625q-3.140625 -3.28125 -3.140625 -9.4375zm4.21875 0q0 4.671875 2.03125 7.0q2.046875 2.3125 5.140625 2.3125q3.0625 0 5.09375 -2.328125q2.046875 -2.328125 2.046875 -7.109375q0 -4.515625 -2.046875 -6.828125q-2.046875 -2.328125 -5.09375 -2.328125q-3.09375 0 -5.140625 2.3125q-2.03125 2.3125 -2.03125 6.96875zm39.217285 9.15625q-2.28125 1.953125 -4.40625 2.75q-2.109375 0.796875 -4.53125 0.796875q-4.0 0 -6.15625 -1.953125q-2.15625 -1.953125 -2.15625 -5.0q0 -1.78125 0.8125 -3.25q0.8125 -1.484375 2.125 -2.375q1.328125 -0.890625 2.96875 -1.359375q1.21875 -0.3125 3.65625 -0.609375q5.0 -0.59375 7.359375 -1.421875q0.015625 -0.84375 0.015625 -1.078125q0 -2.515625 -1.171875 -3.546875q-1.578125 -1.390625 -4.6875 -1.390625q-2.90625 0 -4.296875 1.015625q-1.375 1.015625 -2.046875 3.609375l-4.015625 -0.546875q0.546875 -2.59375 1.796875 -4.171875q1.265625 -1.59375 3.640625 -2.453125q2.390625 -0.859375 5.515625 -0.859375q3.109375 0 5.046875 0.734375q1.953125 0.71875 2.859375 1.828125q0.921875 1.109375 1.296875 2.8125q0.203125 1.046875 0.203125 3.796875l0 5.484375q0 5.75 0.265625 7.28125q0.265625 1.515625 1.046875 2.90625l-4.3125 0q-0.640625 -1.28125 -0.828125 -3.0zm-0.328125 -9.203125q-2.25 0.921875 -6.734375 1.5625q-2.546875 0.375 -3.59375 0.828125q-1.046875 0.453125 -1.625 1.34375q-0.5625 0.875 -0.5625 1.953125q0 1.640625 1.234375 2.75q1.25 1.09375 3.65625 1.09375q2.375 0 4.21875 -1.046875q1.859375 -1.046875 2.734375 -2.84375q0.671875 -1.40625 0.671875 -4.125l0 -1.515625zm8.888916 4.953125l4.078125 -0.640625q0.34375 2.4375 1.90625 3.75q1.5625 1.296875 4.390625 1.296875q2.828125 0 4.203125 -1.140625q1.375 -1.15625 1.375 -2.71875q0 -1.390625 -1.21875 -2.203125q-0.84375 -0.546875 -4.203125 -1.390625q-4.53125 -1.140625 -6.28125 -1.96875q-1.75 -0.84375 -2.65625 -2.3125q-0.90625 -1.484375 -0.90625 -3.265625q0 -1.625 0.734375 -3.0q0.75 -1.390625 2.03125 -2.3125q0.96875 -0.703125 2.625 -1.1875q1.65625 -0.5 3.5625 -0.5q2.859375 0 5.015625 0.828125q2.171875 0.8125 3.1875 2.21875q1.03125 1.40625 1.421875 3.765625l-4.015625 0.546875q-0.28125 -1.875 -1.59375 -2.921875q-1.3125 -1.0625 -3.71875 -1.0625q-2.84375 0 -4.0625 0.953125q-1.203125 0.9375 -1.203125 2.1875q0 0.796875 0.5 1.4375q0.5 0.671875 1.578125 1.109375q0.625 0.21875 3.640625 1.046875q4.375 1.171875 6.09375 1.921875q1.734375 0.734375 2.71875 2.15625q0.984375 1.40625 0.984375 3.515625q0 2.0625 -1.203125 3.890625q-1.203125 1.8125 -3.46875 2.8125q-2.265625 0.984375 -5.125 0.984375q-4.734375 0 -7.21875 -1.96875q-2.484375 -1.96875 -3.171875 -5.828125zm34.070312 3.5625l0.59375 3.640625q-1.734375 0.375 -3.109375 0.375q-2.234375 0 -3.484375 -0.703125q-1.234375 -0.71875 -1.734375 -1.875q-0.5 -1.15625 -0.5 -4.859375l0 -13.984375l-3.015625 0l0 -3.203125l3.015625 0l0 -6.015625l4.09375 -2.46875l0 8.484375l4.140625 0l0 3.203125l-4.140625 0l0 14.203125q0 1.765625 0.21875 2.265625q0.21875 0.5 0.703125 0.796875q0.5 0.296875 1.40625 0.296875q0.6875 0 1.8125 -0.15625z" fill-rule="nonzero"/><path fill="#000000" fill-opacity="0.0" d="m3.9265091 18.485565l105.039375 0l0 61.826767l-105.039375 0z" fill-rule="evenodd"/><path stroke="#212121" stroke-width="3.0" stroke-linejoin="round" stroke-linecap="butt" d="m3.9265091 18.485565l105.039375 0l0 61.826767l-105.039375 0z" fill-rule="evenodd"/><path fill="#000000" fill-opacity="0.0" d="m122.0105 18.485565l105.03937 0l0 61.826767l-105.03937 0z" fill-rule="evenodd"/><path stroke="#212121" stroke-width="3.0" stroke-linejoin="round" stroke-linecap="butt" d="m122.0105 18.485565l105.03937 0l0 61.826767l-105.03937 0z" fill-rule="evenodd"/><path fill="#000000" fill-opacity="0.0" d="m239.95013 18.485565l105.03937 0l0 61.826767l-105.03937 0z" fill-rule="evenodd"/><path stroke="#212121" stroke-width="3.0" stroke-linejoin="round" stroke-linecap="butt" d="m239.95013 18.485565l105.03937 0l0 61.826767l-105.03937 0z" fill-rule="evenodd"/><path fill="#000000" fill-opacity="0.0" d="m351.8609 18.485565l76.81888 0l0 61.826767l-76.81888 0z" fill-rule="evenodd"/><path stroke="#212121" stroke-width="3.0" stroke-linejoin="round" stroke-linecap="butt" d="m351.8609 18.485565l76.81888 0l0 61.826767l-76.81888 0z" fill-rule="evenodd"/><path fill="#000000" fill-opacity="0.0" d="m435.55118 18.485565l166.17325 0l0 61.826767l-166.17325 0z" fill-rule="evenodd"/><path stroke="#212121" stroke-width="3.0" stroke-linejoin="round" stroke-linecap="butt" d="m435.55118 18.485565l166.17325 0l0 61.826767l-166.17325 0z" fill-rule="evenodd"/><path fill="#000000" fill-opacity="0.0" d="m623.30444 18.485565l105.03937 0l0 61.826767l-105.03937 0z" fill-rule="evenodd"/><path stroke="#212121" stroke-width="3.0" stroke-linejoin="round" stroke-linecap="butt" d="m623.30444 18.485565l105.03937 0l0 61.826767l-105.03937 0z" fill-rule="evenodd"/><path fill="#000000" fill-opacity="0.0" d="m754.1522 18.485565l105.03937 0l0 61.826767l-105.03937 0z" fill-rule="evenodd"/><path stroke="#212121" stroke-width="3.0" stroke-linejoin="round" stroke-linecap="butt" d="m754.1522 18.485565l105.03937 0l0 61.826767l-105.03937 0z" fill-rule="evenodd"/><path fill="#000000" fill-opacity="0.0" d="m885.0 18.485565l105.03937 0l0 61.826767l-105.03937 0z" fill-rule="evenodd"/><path stroke="#212121" stroke-width="3.0" stroke-linejoin="round" stroke-linecap="butt" d="m885.0 18.485565l105.03937 0l0 61.826767l-105.03937 0z" fill-rule="evenodd"/><path fill="#000000" fill-opacity="0.0" d="m1011.61945 18.485565l127.02362 0l0 61.826767l-127.02362 0z" fill-rule="evenodd"/><path stroke="#212121" stroke-width="3.0" stroke-linejoin="round" stroke-linecap="butt" d="m1011.61945 18.485565l127.02362 0l0 61.826767l-127.02362 0z" fill-rule="evenodd"/><path fill="#000000" fill-opacity="0.0" d="m937.52234 80.249344c-22.779175 0 8.345093 38.275505 -45.55829 82.014435c-53.90338 43.738937 -192.83429 92.9413 -358.71692 82.014435c-165.88263 -10.926865 -358.71695 -81.98294 -358.71695 -163.96588" fill-rule="evenodd"/><path stroke="#212121" stroke-width="3.0" stroke-linejoin="round" stroke-linecap="butt" d="m937.52234 80.249344c-22.779175 0 8.345032 38.275497 -45.55829 82.014435c-53.90338 43.738922 -192.83429 92.9413 -358.71692 82.014435c-82.941315 -5.4634094 -172.62057 -25.959152 -241.56448 -55.3369c-34.471924 -14.688873 -63.760056 -31.598251 -84.43019 -49.95935c-10.3350525 -9.180542 -18.515625 -18.724022 -24.112427 -28.534325c-1.3992157 -2.452568 -2.636917 -4.9218216 -3.7064514 -7.40625c-0.53474426 -1.242218 -1.0274658 -2.4882278 -1.4772949 -3.7378387c-0.112457275 -0.31240845 -0.22224426 -0.6250305 -0.3293152 -0.93788147l-0.10273743 -0.3040924" fill-rule="evenodd"/><path fill="#212121" stroke="#212121" stroke-width="3.0" stroke-linecap="butt" d="m182.4104 97.23735l-7.150711 -12.600403l-2.6216278 14.248863z" fill-rule="evenodd"/><path fill="#000000" fill-opacity="0.0" d="m937.5197 80.31233c0 12.5 34.40155 24.992126 68.8031 25.0c34.40155 0.007881165 68.80316 -12.468498 68.80316 -24.937004" fill-rule="evenodd"/><path stroke="#212121" stroke-width="3.0" stroke-linejoin="round" stroke-linecap="butt" d="m937.5197 80.31233c0 12.5 34.40155 24.992126 68.8031 25.0c17.200806 0.003944397 34.40155 -3.113182 47.302185 -7.789856c3.2250977 -1.1691742 6.1815186 -2.435814 8.802002 -3.7755203l0.41516113 -0.21466827" fill-rule="evenodd"/><path fill="#212121" stroke="#212121" stroke-width="3.0" stroke-linecap="butt" d="m1066.464 96.9139l5.6690674 -13.332878l-12.912964 6.5696335z" fill-rule="evenodd"/><path fill="#000000" fill-opacity="0.0" d="m518.6378 80.31233c0 12.5 -32.094513 24.992126 -64.188995 25.0c-32.094482 0.007881165 -64.188965 -12.468498 -64.188965 -24.937004" fill-rule="evenodd"/><path stroke="#212121" stroke-width="3.0" stroke-linejoin="round" stroke-linecap="butt" d="m518.6378 80.31233c0 12.5 -32.094513 24.992126 -64.188995 25.0c-16.047241 0.003944397 -32.094482 -3.113182 -44.129913 -7.789856c-1.504425 -0.5845871 -2.9461975 -1.1935425 -4.317383 -1.8238144c-0.6856079 -0.31513214 -1.3536072 -0.6355972 -2.0029907 -0.96100616c-0.3246765 -0.1627121 -0.6447449 -0.3266449 -0.95999146 -0.49179077c-0.15762329 -0.08255768 -0.3140564 -0.16542053 -0.4692688 -0.24858093l-0.33584595 -0.18195343" fill-rule="evenodd"/><path fill="#212121" stroke="#212121" stroke-width="3.0" stroke-linecap="butt" d="m405.9333 90.519135l-12.756073 -6.8691483l5.3563232 13.461525z" fill-rule="evenodd"/><path fill="#000000" fill-opacity="0.0" d="m518.6378 80.31233c0 12.5 39.299194 24.992126 78.59839 25.0c39.299255 0.007881165 78.59845 -12.468498 78.59845 -24.937004" fill-rule="evenodd"/><path stroke="#212121" stroke-width="3.0" stroke-linejoin="round" stroke-linecap="butt" d="m518.6378 80.31233c0 12.5 39.299194 24.992126 78.59839 25.0c19.649597 0.003944397 39.299255 -3.113182 54.036438 -7.789856c3.6842651 -1.1691742 7.0615845 -2.435814 10.055054 -3.7755203c0.37420654 -0.16746521 0.7423706 -0.33607483 1.1044312 -0.50577545c0.18103027 -0.0848465 0.36053467 -0.16997528 0.53845215 -0.25536346l0.013366699 -0.0065078735" fill-rule="evenodd"/><path fill="#212121" stroke="#212121" stroke-width="3.0" stroke-linecap="butt" d="m666.45374 96.51695l6.249817 -13.070663l-13.189331 5.995369z" fill-rule="evenodd"/><path fill="#000000" fill-opacity="0.0" d="m675.82416 80.31233c0 12.5 32.70868 24.992126 65.4173 25.0c32.70868 0.007881165 65.41736 -12.468498 65.41736 -24.937004" fill-rule="evenodd"/><path stroke="#212121" stroke-width="3.0" stroke-linejoin="round" stroke-linecap="butt" d="m675.82416 80.31233c0 12.5 32.70868 24.992126 65.4173 25.0c16.35437 0.003944397 32.70868 -3.113182 44.974426 -7.789856c3.0664062 -1.1691742 5.8773193 -2.435814 8.368835 -3.7755203l0.015075684 -0.008224487" fill-rule="evenodd"/><path fill="#212121" stroke="#212121" stroke-width="3.0" stroke-linecap="butt" d="m798.2786 97.05844l5.4420166 -13.427116l-12.799622 6.7877045z" fill-rule="evenodd"/><path fill="#000000" fill-opacity="0.0" d="m518.6378 80.31233c0 17.902893 -56.543335 35.797905 -113.08664 35.80578c-56.543304 0.007873535 -113.08661 -17.871391 -113.08661 -35.742783" fill-rule="evenodd"/><path stroke="#212121" stroke-width="3.0" stroke-linejoin="round" stroke-linecap="butt" d="m518.6378 80.31233c0 17.902893 -56.543335 35.797905 -113.08664 35.80578c-28.271637 0.0039367676 -56.543304 -4.463913 -77.74704 -11.166664c-5.300934 -1.6756897 -10.160126 -3.491066 -14.467133 -5.4111633c-2.1535034 -0.96004486 -4.168976 -1.9462891 -6.032593 -2.954338c-0.9317932 -0.50401306 -1.8256226 -1.0134888 -2.679779 -1.5278778c-0.2135315 -0.12859344 -0.42459106 -0.2574997 -0.6331787 -0.3867035l-0.32647705 -0.20521545" fill-rule="evenodd"/><path fill="#212121" stroke="#212121" stroke-width="3.0" stroke-linecap="butt" d="m307.544 91.382805l-12.350464 -7.5742416l4.5923767 13.740929z" fill-rule="evenodd"/><path fill="#000000" fill-opacity="0.0" d="m174.53018 80.31233c0 33.814964 86.02362 67.622055 172.04724 67.62993c86.02362 0.007873535 172.04727 -33.78347 172.04727 -67.56693" fill-rule="evenodd"/><path stroke="#212121" stroke-width="3.0" stroke-linejoin="round" stroke-linecap="butt" d="m174.53018 80.31233c0 33.814964 86.02362 67.622055 172.04724 67.62993c43.01181 0.0039367676 86.02362 -8.441925 118.28247 -21.111717c16.129456 -6.3348923 29.570648 -13.725761 38.97946 -21.644379c2.3522034 -1.97966 4.4523926 -3.9922867 6.2795715 -6.0296555c0.4567871 -0.509346 0.8964844 -1.0202332 1.3188477 -1.5325317c0.1055603 -0.12808228 0.21008301 -0.25624847 0.31350708 -0.3844986l0.13720703 -0.17212677" fill-rule="evenodd"/><path fill="#212121" stroke="#212121" stroke-width="3.0" stroke-linecap="butt" d="m516.4836 98.92175l0.4998169 -14.479408l-9.690033 10.770607z" fill-rule="evenodd"/><path fill="#000000" fill-opacity="0.0" d="m174.53018 80.31233c0 12.5 -29.519684 24.992126 -59.039368 25.0c-29.519684 0.007881165 -59.03937 -12.468498 -59.03937 -24.937004" fill-rule="evenodd"/><path stroke="#212121" stroke-width="3.0" stroke-linejoin="round" stroke-linecap="butt" d="m174.53018 80.31233c0 12.5 -29.519684 24.992126 -59.039368 25.0c-14.759842 0.003944397 -29.519684 -3.113182 -40.58957 -7.789856c-1.3837357 -0.5845871 -2.709816 -1.1935425 -3.9710312 -1.8238144c-0.6306076 -0.31513214 -1.2450027 -0.6355972 -1.8422775 -0.96100616c-0.2986374 -0.1627121 -0.5929947 -0.3266449 -0.8829651 -0.49179077l-0.16651154 -0.09588623" fill-rule="evenodd"/><path fill="#212121" stroke="#212121" stroke-width="3.0" stroke-linecap="butt" d="m71.83047 90.960205l-12.555843 -7.228676l4.971836 13.608223z" fill-rule="evenodd"/><path fill="#000000" fill-opacity="0.0" d="m442.65878 262.40945l204.1575 0l0 54.92914l-204.1575 0z" fill-rule="evenodd"/><path fill="#000000" d="m526.41895 289.17883q0 0.5 -0.0625 0.984375q-0.046875 0.484375 -0.15625 1.0l-1.609375 8.046875q-0.03125 0.109375 -0.09375 0.203125q-0.0625 0.078125 -0.21875 0.140625q-0.140625 0.046875 -0.375 0.0625q-0.234375 0.03125 -0.59375 0.03125q-0.34375 0 -0.5625 -0.03125q-0.21875 -0.015625 -0.34375 -0.0625q-0.125 -0.0625 -0.15625 -0.140625q-0.03125 -0.09375 -0.015625 -0.203125l1.578125 -7.953125q0.109375 -0.453125 0.140625 -0.859375q0.03125 -0.421875 0.03125 -0.734375q0 -0.875 -0.375 -1.40625q-0.359375 -0.546875 -1.234375 -0.546875q-0.765625 0 -1.5625 0.4375q-0.78125 0.4375 -1.46875 1.203125q-0.6875 0.765625 -1.21875 1.828125q-0.53125 1.046875 -0.78125 2.28125l-1.140625 5.75q-0.03125 0.109375 -0.109375 0.203125q-0.0625 0.078125 -0.21875 0.140625q-0.140625 0.046875 -0.375 0.0625q-0.234375 0.03125 -0.578125 0.03125q-0.359375 0 -0.578125 -0.03125q-0.21875 -0.015625 -0.34375 -0.0625q-0.125 -0.0625 -0.15625 -0.140625q-0.03125 -0.09375 0 -0.203125l2.578125 -12.90625q0.015625 -0.09375 0.078125 -0.171875q0.078125 -0.09375 0.203125 -0.140625q0.140625 -0.0625 0.34375 -0.078125q0.21875 -0.03125 0.5 -0.03125q0.296875 0 0.484375 0.03125q0.203125 0.015625 0.3125 0.078125q0.109375 0.046875 0.125 0.140625q0.03125 0.078125 0.015625 0.171875l-0.484375 2.46875q0.21875 -0.484375 0.703125 -1.03125q0.484375 -0.546875 1.15625 -1.0q0.671875 -0.46875 1.484375 -0.765625q0.8125 -0.296875 1.6875 -0.296875q0.953125 0 1.59375 0.296875q0.65625 0.296875 1.046875 0.78125q0.40625 0.46875 0.578125 1.109375q0.171875 0.625 0.171875 1.3125zm12.266846 -2.15625q0 0.140625 -0.046875 0.390625q-0.046875 0.234375 -0.125 0.46875q-0.078125 0.21875 -0.1875 0.375q-0.109375 0.15625 -0.234375 0.15625q-0.171875 0 -0.40625 -0.125q-0.234375 -0.140625 -0.578125 -0.3125q-0.34375 -0.171875 -0.828125 -0.3125q-0.484375 -0.15625 -1.140625 -0.15625q-0.625 0 -1.109375 0.1875q-0.484375 0.171875 -0.828125 0.484375q-0.328125 0.3125 -0.5 0.703125q-0.171875 0.390625 -0.171875 0.828125q0 0.5625 0.375 0.953125q0.390625 0.375 0.953125 0.671875q0.578125 0.296875 1.25 0.59375q0.671875 0.296875 1.234375 0.71875q0.5625 0.421875 0.9375 1.015625q0.390625 0.59375 0.390625 1.5q0 1.0 -0.40625 1.875q-0.390625 0.859375 -1.125 1.484375q-0.734375 0.625 -1.78125 0.96875q-1.046875 0.34375 -2.34375 0.34375q-0.671875 0 -1.265625 -0.09375q-0.59375 -0.09375 -1.078125 -0.25q-0.46875 -0.171875 -0.8125 -0.359375q-0.34375 -0.1875 -0.53125 -0.359375q-0.109375 -0.125 -0.171875 -0.234375q-0.046875 -0.125 -0.046875 -0.296875q0 -0.125 0.015625 -0.28125q0.015625 -0.15625 0.0625 -0.328125q0.046875 -0.171875 0.09375 -0.328125q0.046875 -0.15625 0.109375 -0.28125q0.078125 -0.125 0.140625 -0.203125q0.078125 -0.078125 0.1875 -0.078125q0.171875 0 0.40625 0.1875q0.25 0.1875 0.640625 0.421875q0.390625 0.21875 0.96875 0.40625q0.59375 0.1875 1.46875 0.1875q0.796875 0 1.359375 -0.1875q0.5625 -0.1875 0.9375 -0.515625q0.375 -0.328125 0.546875 -0.75q0.1875 -0.4375 0.1875 -0.90625q0 -0.59375 -0.375 -0.96875q-0.375 -0.390625 -0.9375 -0.6875q-0.5625 -0.3125 -1.234375 -0.609375q-0.65625 -0.3125 -1.21875 -0.71875q-0.5625 -0.40625 -0.953125 -1.0q-0.375 -0.59375 -0.375 -1.515625q0 -0.9375 0.375 -1.75q0.375 -0.8125 1.046875 -1.40625q0.6875 -0.59375 1.640625 -0.921875q0.953125 -0.328125 2.109375 -0.328125q0.546875 0 1.046875 0.09375q0.515625 0.078125 0.9375 0.203125q0.4375 0.125 0.75 0.296875q0.3125 0.15625 0.484375 0.3125q0.15625 0.140625 0.15625 0.4375zm12.335266 12.1875q-0.015625 0.109375 -0.09375 0.203125q-0.0625 0.078125 -0.1875 0.140625q-0.125 0.046875 -0.34375 0.0625q-0.203125 0.03125 -0.5 0.03125q-0.296875 0 -0.484375 -0.03125q-0.1875 -0.015625 -0.296875 -0.0625q-0.109375 -0.0625 -0.15625 -0.140625q-0.03125 -0.09375 0 -0.203125l0.46875 -2.421875q-0.21875 0.484375 -0.71875 1.03125q-0.484375 0.53125 -1.15625 1.0q-0.671875 0.453125 -1.46875 0.734375q-0.78125 0.28125 -1.609375 0.28125q-0.96875 0 -1.640625 -0.265625q-0.65625 -0.25 -1.0625 -0.71875q-0.40625 -0.46875 -0.59375 -1.109375q-0.171875 -0.640625 -0.171875 -1.390625q0 -0.46875 0.0625 -0.96875q0.0625 -0.5 0.15625 -1.0l1.59375 -8.078125q0.03125 -0.09375 0.09375 -0.171875q0.078125 -0.09375 0.21875 -0.140625q0.15625 -0.0625 0.390625 -0.078125q0.25 -0.03125 0.59375 -0.03125q0.34375 0 0.5625 0.03125q0.21875 0.015625 0.34375 0.078125q0.125 0.046875 0.15625 0.140625q0.03125 0.078125 0.015625 0.171875l-1.578125 8.0q-0.078125 0.375 -0.125 0.78125q-0.046875 0.390625 -0.046875 0.796875q0 0.4375 0.078125 0.796875q0.078125 0.34375 0.265625 0.609375q0.203125 0.25 0.515625 0.390625q0.3125 0.140625 0.75 0.140625q0.765625 0 1.546875 -0.4375q0.796875 -0.4375 1.484375 -1.203125q0.6875 -0.78125 1.21875 -1.84375q0.546875 -1.0625 0.8125 -2.328125l1.125 -5.703125q0.015625 -0.09375 0.09375 -0.171875q0.078125 -0.09375 0.21875 -0.140625q0.15625 -0.0625 0.390625 -0.078125q0.234375 -0.03125 0.578125 -0.03125q0.34375 0 0.5625 0.03125q0.234375 0.015625 0.34375 0.078125q0.125 0.046875 0.15625 0.140625q0.046875 0.078125 0.03125 0.171875l-2.59375 12.90625zm17.43872 -8.859375q0 0.859375 -0.171875 1.90625q-0.15625 1.03125 -0.515625 2.078125q-0.34375 1.046875 -0.875 2.046875q-0.515625 1.0 -1.28125 1.765625q-0.765625 0.765625 -1.765625 1.234375q-1.0 0.453125 -2.25 0.453125q-1.28125 0 -2.203125 -0.484375q-0.90625 -0.484375 -1.625 -1.40625l-0.265625 1.265625q-0.03125 0.25 -0.3125 0.34375q-0.265625 0.09375 -0.84375 0.09375q-0.59375 0 -0.796875 -0.109375q-0.203125 -0.109375 -0.140625 -0.328125l3.796875 -19.125q0.03125 -0.125 0.09375 -0.203125q0.0625 -0.09375 0.21875 -0.140625q0.15625 -0.0625 0.390625 -0.09375q0.234375 -0.03125 0.59375 -0.03125q0.34375 0 0.546875 0.03125q0.21875 0.03125 0.34375 0.09375q0.140625 0.046875 0.171875 0.140625q0.03125 0.078125 0.015625 0.203125l-1.15625 5.75q-0.0625 0.375 -0.171875 0.78125q-0.09375 0.390625 -0.203125 0.796875q-0.109375 0.390625 -0.21875 0.75q-0.109375 0.34375 -0.1875 0.59375q0.234375 -0.5 0.71875 -1.03125q0.5 -0.546875 1.15625 -1.0q0.671875 -0.453125 1.453125 -0.75q0.796875 -0.296875 1.59375 -0.296875q0.859375 0 1.46875 0.234375q0.625 0.21875 1.046875 0.609375q0.4375 0.375 0.703125 0.859375q0.265625 0.484375 0.40625 1.0q0.140625 0.515625 0.203125 1.03125q0.0625 0.5 0.0625 0.9375zm-2.484375 0.203125q0 -0.390625 -0.078125 -0.890625q-0.0625 -0.5 -0.28125 -0.921875q-0.203125 -0.4375 -0.59375 -0.734375q-0.390625 -0.296875 -1.046875 -0.296875q-0.78125 0 -1.578125 0.453125q-0.796875 0.4375 -1.484375 1.21875q-0.6875 0.78125 -1.234375 1.84375q-0.53125 1.046875 -0.78125 2.28125l-0.46875 2.375q0.671875 1.0 1.4375 1.46875q0.78125 0.46875 1.75 0.46875q0.75 0 1.34375 -0.34375q0.609375 -0.34375 1.09375 -0.90625q0.484375 -0.578125 0.84375 -1.3125q0.359375 -0.75 0.59375 -1.546875q0.234375 -0.8125 0.359375 -1.625q0.125 -0.828125 0.125 -1.53125zm10.860596 -8.5625q-0.09375 0.390625 -0.21875 0.671875q-0.109375 0.265625 -0.3125 0.4375q-0.1875 0.15625 -0.484375 0.234375q-0.296875 0.0625 -0.71875 0.0625q-0.421875 0 -0.6875 -0.0625q-0.265625 -0.078125 -0.40625 -0.234375q-0.140625 -0.171875 -0.15625 -0.4375q0 -0.28125 0.078125 -0.671875q0.078125 -0.40625 0.1875 -0.671875q0.125 -0.265625 0.328125 -0.4375q0.203125 -0.1875 0.484375 -0.25q0.296875 -0.0625 0.71875 -0.0625q0.4375 0 0.703125 0.0625q0.28125 0.0625 0.40625 0.25q0.125 0.171875 0.140625 0.4375q0.015625 0.265625 -0.0625 0.671875zm-3.921875 18.0625q-0.203125 1.125 -0.546875 2.0q-0.34375 0.875 -0.890625 1.484375q-0.546875 0.609375 -1.328125 0.9375q-0.765625 0.328125 -1.828125 0.328125q-0.578125 0 -0.96875 -0.09375q-0.40625 -0.078125 -0.5 -0.171875q-0.0625 -0.078125 -0.09375 -0.171875q-0.03125 -0.078125 -0.03125 -0.21875q0 -0.0625 0.03125 -0.203125q0.015625 -0.140625 0.046875 -0.296875q0.03125 -0.15625 0.078125 -0.328125q0.03125 -0.171875 0.109375 -0.3125q0.078125 -0.125 0.171875 -0.21875q0.078125 -0.078125 0.171875 -0.078125q0.09375 0 0.171875 0.015625q0.078125 0.015625 0.171875 0.015625q0.078125 0 0.21875 0.015625q0.125 0.015625 0.34375 0.015625q0.46875 0 0.84375 -0.140625q0.375 -0.125 0.640625 -0.453125q0.28125 -0.328125 0.484375 -0.859375q0.203125 -0.53125 0.359375 -1.3125l2.734375 -13.6875q0.03125 -0.09375 0.09375 -0.171875q0.078125 -0.09375 0.21875 -0.15625q0.15625 -0.0625 0.390625 -0.078125q0.25 -0.03125 0.59375 -0.03125q0.328125 0 0.546875 0.03125q0.234375 0.015625 0.359375 0.078125q0.125 0.0625 0.15625 0.15625q0.03125 0.078125 0.015625 0.171875l-2.765625 13.734375z" fill-rule="nonzero"/><path fill="#000000" fill-opacity="0.0" d="m904.2441 119.461945l204.15753 0l0 54.92914l-204.15753 0z" fill-rule="evenodd"/><path fill="#000000" d="m991.8502 156.26257q-0.046875 0.25 -0.3125 0.34375q-0.25 0.09375 -0.84375 0.09375q-0.296875 0 -0.484375 -0.03125q-0.1875 -0.015625 -0.3125 -0.0625q-0.109375 -0.0625 -0.140625 -0.140625q-0.03125 -0.078125 -0.015625 -0.203125l0.46875 -2.40625q-0.1875 0.46875 -0.6875 1.015625q-0.484375 0.53125 -1.15625 0.984375q-0.65625 0.453125 -1.46875 0.75q-0.8125 0.28125 -1.65625 0.28125q-0.84375 0 -1.46875 -0.21875q-0.625 -0.21875 -1.046875 -0.59375q-0.421875 -0.375 -0.6875 -0.859375q-0.265625 -0.5 -0.421875 -1.015625q-0.140625 -0.53125 -0.203125 -1.0625q-0.046875 -0.53125 -0.046875 -0.96875q0 -0.828125 0.15625 -1.859375q0.15625 -1.03125 0.5 -2.0625q0.34375 -1.046875 0.875 -2.03125q0.546875 -1.0 1.296875 -1.765625q0.765625 -0.78125 1.765625 -1.25q1.0 -0.46875 2.25 -0.46875q0.625 0 1.15625 0.140625q0.546875 0.125 0.984375 0.375q0.453125 0.234375 0.828125 0.5625q0.375 0.328125 0.671875 0.6875l1.46875 -7.3125q0.015625 -0.09375 0.078125 -0.1875q0.078125 -0.09375 0.21875 -0.140625q0.140625 -0.046875 0.359375 -0.078125q0.234375 -0.046875 0.59375 -0.046875q0.34375 0 0.5625 0.046875q0.234375 0.03125 0.359375 0.078125q0.125 0.046875 0.15625 0.140625q0.046875 0.09375 0.015625 0.1875l-3.8125 19.078125zm-0.453125 -9.484375q-0.671875 -0.984375 -1.453125 -1.5q-0.78125 -0.515625 -1.765625 -0.515625q-0.75 0 -1.359375 0.359375q-0.609375 0.34375 -1.09375 0.9375q-0.484375 0.578125 -0.84375 1.34375q-0.34375 0.75 -0.578125 1.5625q-0.234375 0.8125 -0.34375 1.609375q-0.109375 0.78125 -0.109375 1.4375q0 1.390625 0.46875 2.125q0.46875 0.734375 1.515625 0.734375q0.796875 0 1.578125 -0.421875q0.796875 -0.4375 1.484375 -1.1875q0.6875 -0.765625 1.21875 -1.8125q0.53125 -1.046875 0.796875 -2.28125l0.484375 -2.390625zm17.876282 0.859375q0 1.0625 -0.203125 2.171875q-0.1875 1.09375 -0.59375 2.125q-0.40625 1.015625 -1.046875 1.921875q-0.625 0.90625 -1.484375 1.578125q-0.84375 0.671875 -1.9375 1.0625q-1.078125 0.390625 -2.40625 0.390625q-1.375 0 -2.359375 -0.328125q-0.96875 -0.328125 -1.609375 -0.953125q-0.625 -0.625 -0.9375 -1.546875q-0.296875 -0.921875 -0.296875 -2.078125q0 -1.0625 0.1875 -2.15625q0.203125 -1.109375 0.609375 -2.125q0.421875 -1.015625 1.046875 -1.921875q0.625 -0.90625 1.46875 -1.578125q0.859375 -0.6875 1.9375 -1.078125q1.09375 -0.390625 2.421875 -0.390625q1.375 0 2.34375 0.34375q0.984375 0.328125 1.625 0.96875q0.640625 0.625 0.9375 1.546875q0.296875 0.90625 0.296875 2.046875zm-2.484375 0.15625q0 -0.71875 -0.15625 -1.296875q-0.140625 -0.578125 -0.5 -0.96875q-0.34375 -0.390625 -0.921875 -0.609375q-0.5625 -0.21875 -1.359375 -0.21875q-0.859375 0 -1.5625 0.3125q-0.703125 0.3125 -1.25 0.84375q-0.546875 0.515625 -0.96875 1.21875q-0.40625 0.703125 -0.671875 1.5q-0.25 0.78125 -0.390625 1.625q-0.125 0.84375 -0.125 1.640625q0 0.71875 0.15625 1.296875q0.15625 0.5625 0.5 0.96875q0.359375 0.390625 0.921875 0.609375q0.5625 0.21875 1.359375 0.21875q0.875 0 1.5625 -0.3125q0.703125 -0.3125 1.25 -0.828125q0.546875 -0.53125 0.953125 -1.234375q0.421875 -0.703125 0.671875 -1.5q0.265625 -0.8125 0.390625 -1.640625q0.140625 -0.828125 0.140625 -1.625zm17.535095 -0.390625q0 0.859375 -0.171875 1.90625q-0.15625 1.03125 -0.515625 2.078125q-0.34375 1.046875 -0.875 2.046875q-0.515625 1.0 -1.28125 1.765625q-0.765625 0.765625 -1.765625 1.234375q-1.0 0.453125 -2.25 0.453125q-1.28125 0 -2.203125 -0.484375q-0.90625 -0.484375 -1.625 -1.40625l-0.265625 1.265625q-0.03125 0.25 -0.3125 0.34375q-0.265625 0.09375 -0.84375 0.09375q-0.59375 0 -0.796875 -0.109375q-0.203125 -0.109375 -0.140625 -0.328125l3.796875 -19.125q0.03125 -0.125 0.09375 -0.203125q0.0625 -0.09375 0.21875 -0.140625q0.15625 -0.0625 0.390625 -0.09375q0.234375 -0.03125 0.59375 -0.03125q0.34375 0 0.546875 0.03125q0.21875 0.03125 0.34375 0.09375q0.140625 0.046875 0.171875 0.140625q0.03125 0.078125 0.015625 0.203125l-1.15625 5.75q-0.0625 0.375 -0.171875 0.78125q-0.09375 0.390625 -0.203125 0.796875q-0.109375 0.390625 -0.21875 0.75q-0.109375 0.34375 -0.1875 0.59375q0.234375 -0.5 0.71875 -1.03125q0.5 -0.546875 1.15625 -1.0q0.671875 -0.453125 1.453125 -0.75q0.796875 -0.296875 1.59375 -0.296875q0.859375 0 1.46875 0.234375q0.625 0.21875 1.046875 0.609375q0.4375 0.375 0.703125 0.859375q0.265625 0.484375 0.40625 1.0q0.140625 0.515625 0.203125 1.03125q0.0625 0.5 0.0625 0.9375zm-2.484375 0.203125q0 -0.390625 -0.078125 -0.890625q-0.0625 -0.5 -0.28125 -0.921875q-0.203125 -0.4375 -0.59375 -0.734375q-0.390625 -0.296875 -1.046875 -0.296875q-0.78125 0 -1.578125 0.453125q-0.796875 0.4375 -1.484375 1.21875q-0.6875 0.78125 -1.234375 1.84375q-0.53125 1.046875 -0.78125 2.28125l-0.46875 2.375q0.671875 1.0 1.4375 1.46875q0.78125 0.46875 1.75 0.46875q0.75 0 1.34375 -0.34375q0.609375 -0.34375 1.09375 -0.90625q0.484375 -0.578125 0.84375 -1.3125q0.359375 -0.75 0.59375 -1.546875q0.234375 -0.8125 0.359375 -1.625q0.125 -0.828125 0.125 -1.53125zm10.860596 -8.5625q-0.09375 0.390625 -0.21875 0.671875q-0.109375 0.265625 -0.3125 0.4375q-0.1875 0.15625 -0.484375 0.234375q-0.296875 0.0625 -0.71875 0.0625q-0.421875 0 -0.6875 -0.0625q-0.265625 -0.078125 -0.40625 -0.234375q-0.140625 -0.171875 -0.15625 -0.4375q0 -0.28125 0.078125 -0.671875q0.078125 -0.40625 0.1875 -0.671875q0.125 -0.265625 0.328125 -0.4375q0.203125 -0.1875 0.484375 -0.25q0.296875 -0.0625 0.71875 -0.0625q0.4375 0 0.703125 0.0625q0.28125 0.0625 0.40625 0.25q0.125 0.171875 0.140625 0.4375q0.015625 0.265625 -0.0625 0.671875zm-3.921875 18.0625q-0.203125 1.125 -0.546875 2.0q-0.34375 0.875 -0.890625 1.484375q-0.546875 0.609375 -1.328125 0.9375q-0.765625 0.328125 -1.828125 0.328125q-0.578125 0 -0.96875 -0.09375q-0.40625 -0.078125 -0.5 -0.171875q-0.0625 -0.078125 -0.09375 -0.171875q-0.03125 -0.078125 -0.03125 -0.21875q0 -0.0625 0.03125 -0.203125q0.015625 -0.140625 0.046875 -0.296875q0.03125 -0.15625 0.078125 -0.328125q0.03125 -0.171875 0.109375 -0.3125q0.078125 -0.125 0.171875 -0.21875q0.078125 -0.078125 0.171875 -0.078125q0.09375 0 0.171875 0.015625q0.078125 0.015625 0.171875 0.015625q0.078125 0 0.21875 0.015625q0.125 0.015625 0.34375 0.015625q0.46875 0 0.84375 -0.140625q0.375 -0.125 0.640625 -0.453125q0.28125 -0.328125 0.484375 -0.859375q0.203125 -0.53125 0.359375 -1.3125l2.734375 -13.6875q0.03125 -0.09375 0.09375 -0.171875q0.078125 -0.09375 0.21875 -0.15625q0.15625 -0.0625 0.390625 -0.078125q0.25 -0.03125 0.59375 -0.03125q0.328125 0 0.546875 0.03125q0.234375 0.015625 0.359375 0.078125q0.125 0.0625 0.15625 0.15625q0.03125 0.078125 0.015625 0.171875l-2.765625 13.734375z" fill-rule="nonzero"/><path fill="#000000" fill-opacity="0.0" d="m244.49738 149.07874l204.15747 0l0 54.92914l-204.15747 0z" fill-rule="evenodd"/><path fill="#000000" d="m332.51282 173.00436q0 0.0625 -0.03125 0.234375q-0.015625 0.15625 -0.046875 0.375q-0.015625 0.203125 -0.078125 0.4375q-0.0625 0.234375 -0.15625 0.421875q-0.078125 0.1875 -0.171875 0.328125q-0.09375 0.125 -0.203125 0.125q-0.109375 0 -0.25 -0.046875q-0.140625 -0.046875 -0.3125 -0.125q-0.15625 -0.078125 -0.375 -0.125q-0.203125 -0.046875 -0.5 -0.046875q-0.484375 0 -1.125 0.421875q-0.625 0.421875 -1.25 1.171875q-0.609375 0.734375 -1.125 1.75q-0.5 1.015625 -0.75 2.21875l-1.125 5.734375q-0.03125 0.109375 -0.109375 0.203125q-0.0625 0.078125 -0.21875 0.140625q-0.140625 0.046875 -0.375 0.0625q-0.234375 0.03125 -0.578125 0.03125q-0.359375 0 -0.578125 -0.03125q-0.21875 -0.015625 -0.34375 -0.0625q-0.125 -0.0625 -0.15625 -0.140625q-0.03125 -0.09375 0 -0.203125l2.5625 -12.90625q0.015625 -0.09375 0.078125 -0.171875q0.078125 -0.09375 0.21875 -0.140625q0.140625 -0.0625 0.34375 -0.078125q0.21875 -0.03125 0.5 -0.03125q0.296875 0 0.484375 0.03125q0.203125 0.015625 0.3125 0.078125q0.109375 0.046875 0.125 0.140625q0.03125 0.078125 0.015625 0.171875l-0.46875 2.359375q0.328125 -0.59375 0.78125 -1.140625q0.453125 -0.546875 0.984375 -0.953125q0.53125 -0.40625 1.109375 -0.640625q0.578125 -0.25 1.140625 -0.25q0.234375 0 0.484375 0.046875q0.25 0.03125 0.46875 0.078125q0.21875 0.046875 0.375 0.109375q0.171875 0.0625 0.265625 0.15625q0.078125 0.078125 0.078125 0.265625zm12.5060425 2.625q0 0.984375 -0.46875 1.78125q-0.453125 0.78125 -1.4375 1.34375q-0.96875 0.546875 -2.484375 0.859375q-1.515625 0.296875 -3.625 0.296875l-1.53125 0q-0.09375 0.46875 -0.140625 0.921875q-0.03125 0.4375 -0.03125 0.828125q0 1.421875 0.703125 2.1875q0.71875 0.765625 2.3125 0.765625q0.90625 0 1.640625 -0.140625q0.734375 -0.140625 1.265625 -0.296875q0.546875 -0.15625 0.890625 -0.28125q0.34375 -0.140625 0.46875 -0.140625q0.125 0 0.1875 0.09375q0.0625 0.078125 0.0625 0.25q0 0.15625 -0.03125 0.359375q-0.015625 0.1875 -0.078125 0.40625q-0.0625 0.203125 -0.15625 0.390625q-0.078125 0.1875 -0.203125 0.3125q-0.171875 0.171875 -0.609375 0.34375q-0.4375 0.15625 -1.046875 0.296875q-0.59375 0.125 -1.3125 0.203125q-0.703125 0.09375 -1.421875 0.09375q-1.28125 0 -2.25 -0.28125q-0.953125 -0.28125 -1.59375 -0.875q-0.625 -0.59375 -0.9375 -1.484375q-0.3125 -0.890625 -0.3125 -2.09375q0 -0.9375 0.171875 -2.0q0.171875 -1.0625 0.5625 -2.109375q0.390625 -1.046875 1.0 -2.0q0.625 -0.96875 1.46875 -1.6875q0.859375 -0.734375 1.96875 -1.171875q1.125 -0.453125 2.53125 -0.453125q1.203125 0 2.03125 0.296875q0.84375 0.296875 1.375 0.78125q0.546875 0.46875 0.78125 1.046875q0.25 0.578125 0.25 1.15625zm-2.421875 0.21875q0 -0.734375 -0.578125 -1.1875q-0.5625 -0.453125 -1.625 -0.453125q-0.9375 0 -1.65625 0.328125q-0.703125 0.3125 -1.265625 0.859375q-0.546875 0.546875 -0.9375 1.28125q-0.390625 0.71875 -0.640625 1.515625l1.453125 0q1.515625 0 2.515625 -0.1875q1.015625 -0.1875 1.625 -0.5q0.609375 -0.328125 0.859375 -0.75q0.25 -0.4375 0.25 -0.90625zm6.47406 10.03125q-0.03125 0.109375 -0.109375 0.203125q-0.0625 0.078125 -0.21875 0.140625q-0.140625 0.046875 -0.375 0.0625q-0.234375 0.03125 -0.578125 0.03125q-0.359375 0 -0.578125 -0.03125q-0.21875 -0.015625 -0.34375 -0.0625q-0.125 -0.0625 -0.15625 -0.140625q-0.03125 -0.09375 0 -0.203125l3.796875 -19.125q0.03125 -0.125 0.09375 -0.203125q0.0625 -0.09375 0.21875 -0.140625q0.15625 -0.0625 0.390625 -0.09375q0.234375 -0.03125 0.59375 -0.03125q0.34375 0 0.5625 0.03125q0.21875 0.03125 0.34375 0.09375q0.125 0.046875 0.15625 0.140625q0.03125 0.078125 0.015625 0.203125l-3.8125 19.125zm15.668091 -11.75q0 0.25 -0.0625 0.53125q-0.046875 0.265625 -0.15625 0.5q-0.09375 0.234375 -0.234375 0.390625q-0.125 0.15625 -0.296875 0.15625q-0.203125 0 -0.421875 -0.203125q-0.203125 -0.203125 -0.5625 -0.453125q-0.34375 -0.265625 -0.890625 -0.484375q-0.53125 -0.21875 -1.359375 -0.21875q-0.921875 0 -1.625 0.390625q-0.703125 0.375 -1.234375 0.984375q-0.515625 0.609375 -0.859375 1.390625q-0.34375 0.765625 -0.5625 1.5625q-0.21875 0.78125 -0.3125 1.515625q-0.09375 0.734375 -0.09375 1.28125q0 1.46875 0.640625 2.234375q0.65625 0.75 1.921875 0.75q0.9375 0 1.59375 -0.21875q0.671875 -0.234375 1.140625 -0.53125q0.46875 -0.296875 0.765625 -0.515625q0.296875 -0.234375 0.53125 -0.234375q0.109375 0 0.171875 0.109375q0.0625 0.109375 0.0625 0.3125q0 0.171875 -0.03125 0.40625q-0.015625 0.234375 -0.09375 0.484375q-0.0625 0.25 -0.15625 0.46875q-0.078125 0.21875 -0.25 0.390625q-0.171875 0.171875 -0.609375 0.4375q-0.421875 0.25 -1.0 0.46875q-0.5625 0.203125 -1.21875 0.328125q-0.65625 0.140625 -1.359375 0.140625q-2.3125 0 -3.453125 -1.171875q-1.125 -1.171875 -1.125 -3.484375q0 -0.875 0.140625 -1.90625q0.15625 -1.046875 0.515625 -2.09375q0.359375 -1.0625 0.90625 -2.046875q0.5625 -0.984375 1.375 -1.75q0.828125 -0.765625 1.890625 -1.21875q1.078125 -0.46875 2.46875 -0.46875q0.578125 0 1.109375 0.09375q0.53125 0.09375 0.984375 0.25q0.46875 0.15625 0.84375 0.390625q0.390625 0.234375 0.59375 0.421875q0.203125 0.1875 0.25 0.328125q0.0625 0.125 0.0625 0.28125zm3.2634583 11.75q-0.03125 0.109375 -0.109375 0.203125q-0.0625 0.078125 -0.21875 0.140625q-0.140625 0.046875 -0.375 0.0625q-0.234375 0.03125 -0.578125 0.03125q-0.359375 0 -0.578125 -0.03125q-0.21875 -0.015625 -0.34375 -0.0625q-0.125 -0.0625 -0.15625 -0.140625q-0.03125 -0.09375 0 -0.203125l3.796875 -19.125q0.03125 -0.125 0.09375 -0.203125q0.0625 -0.09375 0.21875 -0.140625q0.15625 -0.0625 0.390625 -0.09375q0.234375 -0.03125 0.59375 -0.03125q0.34375 0 0.5625 0.03125q0.21875 0.03125 0.34375 0.09375q0.125 0.046875 0.15625 0.140625q0.03125 0.078125 0.015625 0.203125l-3.8125 19.125z" fill-rule="nonzero"/><path fill="#000000" fill-opacity="0.0" d="m11.926509 98.39895l204.15747 0l0 54.92913l-204.15747 0z" fill-rule="evenodd"/><path fill="#000000" d="m106.270424 135.19957q-0.046875 0.25 -0.3125 0.34375q-0.25 0.09375 -0.84375 0.09375q-0.296875 0 -0.484375 -0.03125q-0.1875 -0.015625 -0.3125 -0.0625q-0.109375 -0.0625 -0.140625 -0.140625q-0.03125 -0.078125 -0.015625 -0.203125l0.46875 -2.40625q-0.1875 0.46875 -0.6875 1.015625q-0.484375 0.53125 -1.15625 0.984375q-0.65625 0.453125 -1.46875 0.75q-0.8125 0.28125 -1.65625 0.28125q-0.84375 0 -1.46875 -0.21875q-0.625 -0.21875 -1.046875 -0.59375q-0.421875 -0.375 -0.6875 -0.859375q-0.265625 -0.5 -0.421875 -1.015625q-0.140625 -0.53125 -0.203125 -1.0625q-0.046875 -0.53125 -0.046875 -0.96875q0 -0.828125 0.15625 -1.859375q0.15625 -1.03125 0.5 -2.0624924q0.34375 -1.046875 0.875 -2.03125q0.546875 -1.0 1.296875 -1.765625q0.765625 -0.78125 1.765625 -1.25q1.0 -0.46875 2.25 -0.46875q0.625 0 1.15625 0.140625q0.546875 0.125 0.984375 0.375q0.453125 0.234375 0.828125 0.5625q0.375 0.328125 0.671875 0.6875l1.46875 -7.3125q0.015625 -0.09375 0.078125 -0.1875q0.078125 -0.09375 0.21875 -0.140625q0.140625 -0.046875 0.359375 -0.078125q0.234375 -0.046875 0.59375 -0.046875q0.34375 0 0.5625 0.046875q0.234375 0.03125 0.359375 0.078125q0.125 0.046875 0.15625 0.140625q0.046875 0.09375 0.015625 0.1875l-3.8125 19.078117zm-0.453125 -9.484367q-0.671875 -0.984375 -1.453125 -1.5q-0.78125 -0.515625 -1.765625 -0.515625q-0.75 0 -1.359375 0.359375q-0.609375 0.34375 -1.09375 0.9375q-0.484375 0.578125 -0.84375 1.34375q-0.34375 0.75 -0.578125 1.5625q-0.234375 0.8124924 -0.34375 1.6093674q-0.109375 0.78125 -0.109375 1.4375q0 1.390625 0.46875 2.125q0.46875 0.734375 1.515625 0.734375q0.796875 0 1.578125 -0.421875q0.796875 -0.4375 1.484375 -1.1875q0.6875 -0.765625 1.21875 -1.8125q0.53125 -1.046875 0.796875 -2.28125l0.484375 -2.3906174zm17.141861 -0.765625q0 0.984375 -0.46875 1.78125q-0.453125 0.78125 -1.4375 1.3437424q-0.96875 0.546875 -2.484375 0.859375q-1.515625 0.296875 -3.625 0.296875l-1.53125 0q-0.09375 0.46875 -0.140625 0.921875q-0.03125 0.4375 -0.03125 0.828125q0 1.421875 0.703125 2.1875q0.71875 0.765625 2.3125 0.765625q0.90625 0 1.640625 -0.140625q0.734375 -0.140625 1.265625 -0.296875q0.546875 -0.15625 0.890625 -0.28125q0.34375 -0.140625 0.46875 -0.140625q0.125 0 0.1875 0.09375q0.0625 0.078125 0.0625 0.25q0 0.15625 -0.03125 0.359375q-0.015625 0.1875 -0.078125 0.40625q-0.0625 0.203125 -0.15625 0.390625q-0.078125 0.1875 -0.203125 0.3125q-0.171875 0.171875 -0.609375 0.34375q-0.4375 0.15625 -1.046875 0.296875q-0.59375 0.125 -1.3125 0.203125q-0.703125 0.09375 -1.421875 0.09375q-1.28125 0 -2.25 -0.28125q-0.953125 -0.28125 -1.59375 -0.875q-0.625 -0.59375 -0.9375 -1.484375q-0.3125 -0.890625 -0.3125 -2.09375q0 -0.9375 0.171875 -2.0q0.171875 -1.0625 0.5625 -2.1093674q0.390625 -1.046875 1.0 -2.0q0.625 -0.96875 1.46875 -1.6875q0.859375 -0.734375 1.96875 -1.171875q1.125 -0.453125 2.53125 -0.453125q1.203125 0 2.03125 0.296875q0.84375 0.296875 1.375 0.78125q0.546875 0.46875 0.78125 1.046875q0.25 0.578125 0.25 1.15625zm-2.421875 0.21875q0 -0.734375 -0.578125 -1.1875q-0.5625 -0.453125 -1.625 -0.453125q-0.9375 0 -1.65625 0.328125q-0.703125 0.3125 -1.265625 0.859375q-0.546875 0.546875 -0.9375 1.28125q-0.390625 0.71875 -0.640625 1.515625l1.453125 0q1.515625 0 2.515625 -0.1875q1.015625 -0.1875 1.625 -0.5q0.609375 -0.328125 0.859375 -0.75q0.25 -0.4375 0.25 -0.90625zm13.175896 -2.71875q0 0.140625 -0.015625 0.296875q-0.015625 0.140625 -0.0625 0.296875q-0.046875 0.15625 -0.125 0.3125q-0.0625 0.15625 -0.140625 0.28125q-0.078125 0.125 -0.1875 0.203125q-0.09375 0.0625 -0.21875 0.0625l-3.296875 0l-1.4375 7.1874924q-0.0625 0.296875 -0.109375 0.671875q-0.03125 0.375 -0.03125 0.625q0 0.71875 0.296875 1.0625q0.3125 0.328125 1.0 0.328125q0.390625 0 0.671875 -0.0625q0.28125 -0.0625 0.484375 -0.125q0.21875 -0.078125 0.375 -0.140625q0.15625 -0.0625 0.265625 -0.0625q0.125 0 0.1875 0.078125q0.0625 0.078125 0.0625 0.296875q0 0.171875 -0.046875 0.40625q-0.03125 0.21875 -0.09375 0.4375q-0.046875 0.203125 -0.140625 0.375q-0.078125 0.171875 -0.171875 0.28125q-0.125 0.09375 -0.359375 0.203125q-0.21875 0.09375 -0.515625 0.171875q-0.296875 0.078125 -0.640625 0.125q-0.328125 0.046875 -0.671875 0.046875q-0.7968826 0 -1.3906326 -0.171875q-0.578125 -0.171875 -0.984375 -0.53125q-0.390625 -0.375 -0.59375 -0.921875q-0.1875 -0.5625 -0.1875 -1.328125q0 -0.171875 0.015625 -0.375q0.015625 -0.21875 0.046875 -0.4375q0.03125 -0.234375 0.0625 -0.453125q0.046875 -0.234375 0.09375 -0.4375l1.4375 -7.2499924l-1.78125 0q-0.15625 0 -0.25 -0.09375q-0.078125 -0.09375 -0.078125 -0.359375q0 -0.203125 0.03125 -0.46875q0.046875 -0.265625 0.125 -0.484375q0.09375 -0.234375 0.21875 -0.390625q0.140625 -0.171875 0.328125 -0.171875l1.8125 0l0.6093826 -3.0625q0.015625 -0.09375 0.09375 -0.171875q0.078125 -0.09375 0.21875 -0.15625q0.15625 -0.0625 0.390625 -0.09375q0.234375 -0.03125 0.578125 -0.03125q0.34375 0 0.5625 0.03125q0.21875 0.03125 0.34375 0.09375q0.125 0.0625 0.15625 0.15625q0.03125 0.078125 0.03125 0.171875l-0.625 3.0625l3.296875 0q0.21875 0 0.28125 0.171875q0.078125 0.15625 0.078125 0.34375z" fill-rule="nonzero"/><path fill="#000000" fill-opacity="0.0" d="m239.29265 92.41338l204.15749 0l0 54.92913l-204.15749 0z" fill-rule="evenodd"/><path fill="#000000" d="m323.05283 119.18276q0 0.5 -0.0625 0.984375q-0.046875 0.484375 -0.15625 1.0l-1.609375 8.046867q-0.03125 0.109375 -0.09375 0.203125q-0.0625 0.078125 -0.21875 0.140625q-0.140625 0.046875 -0.375 0.0625q-0.234375 0.03125 -0.59375 0.03125q-0.34375 0 -0.5625 -0.03125q-0.21875 -0.015625 -0.34375 -0.0625q-0.125 -0.0625 -0.15625 -0.140625q-0.03125 -0.09375 -0.015625 -0.203125l1.578125 -7.9531174q0.109375 -0.453125 0.140625 -0.859375q0.03125 -0.421875 0.03125 -0.734375q0 -0.875 -0.375 -1.40625q-0.359375 -0.546875 -1.234375 -0.546875q-0.765625 0 -1.5625 0.4375q-0.78125 0.4375 -1.46875 1.203125q-0.6875 0.765625 -1.21875 1.828125q-0.53125 1.046875 -0.78125 2.28125l-1.140625 5.7499924q-0.03125 0.109375 -0.109375 0.203125q-0.0625 0.078125 -0.21875 0.140625q-0.140625 0.046875 -0.375 0.0625q-0.234375 0.03125 -0.578125 0.03125q-0.359375 0 -0.578125 -0.03125q-0.21875 -0.015625 -0.34375 -0.0625q-0.125 -0.0625 -0.15625 -0.140625q-0.03125 -0.09375 0 -0.203125l2.578125 -12.906242q0.015625 -0.09375 0.078125 -0.171875q0.078125 -0.09375 0.203125 -0.140625q0.140625 -0.0625 0.34375 -0.078125q0.21875 -0.03125 0.5 -0.03125q0.296875 0 0.484375 0.03125q0.203125 0.015625 0.3125 0.078125q0.109375 0.046875 0.125 0.140625q0.03125 0.078125 0.015625 0.171875l-0.484375 2.46875q0.21875 -0.484375 0.703125 -1.03125q0.484375 -0.546875 1.15625 -1.0q0.671875 -0.46875 1.484375 -0.765625q0.8125 -0.296875 1.6875 -0.296875q0.953125 0 1.59375 0.296875q0.65625 0.296875 1.046875 0.78125q0.40625 0.46875 0.578125 1.109375q0.171875 0.625 0.171875 1.3125zm12.266846 -2.15625q0 0.140625 -0.046875 0.390625q-0.046875 0.234375 -0.125 0.46875q-0.078125 0.21875 -0.1875 0.375q-0.109375 0.15625 -0.234375 0.15625q-0.171875 0 -0.40625 -0.125q-0.234375 -0.140625 -0.578125 -0.3125q-0.34375 -0.171875 -0.828125 -0.3125q-0.484375 -0.15625 -1.140625 -0.15625q-0.625 0 -1.109375 0.1875q-0.484375 0.171875 -0.828125 0.484375q-0.328125 0.3125 -0.5 0.703125q-0.171875 0.390625 -0.171875 0.828125q0 0.5625 0.375 0.953125q0.390625 0.375 0.953125 0.671875q0.578125 0.296875 1.25 0.59375q0.671875 0.296875 1.234375 0.71875q0.5625 0.421875 0.9375 1.015625q0.390625 0.59375 0.390625 1.5q0 1.0 -0.40625 1.875q-0.390625 0.859375 -1.125 1.4843674q-0.734375 0.625 -1.78125 0.96875q-1.046875 0.34375 -2.34375 0.34375q-0.671875 0 -1.265625 -0.09375q-0.59375 -0.09375 -1.078125 -0.25q-0.46875 -0.171875 -0.8125 -0.359375q-0.34375 -0.1875 -0.53125 -0.359375q-0.109375 -0.125 -0.171875 -0.234375q-0.046875 -0.125 -0.046875 -0.296875q0 -0.125 0.015625 -0.28124237q0.015625 -0.15625 0.0625 -0.328125q0.046875 -0.171875 0.09375 -0.328125q0.046875 -0.15625 0.109375 -0.28125q0.078125 -0.125 0.140625 -0.203125q0.078125 -0.078125 0.1875 -0.078125q0.171875 0 0.40625 0.1875q0.25 0.1875 0.640625 0.421875q0.390625 0.21875 0.96875 0.40625q0.59375 0.1875 1.46875 0.1875q0.796875 0 1.359375 -0.1875q0.5625 -0.1875 0.9375 -0.515625q0.375 -0.328125 0.546875 -0.75q0.1875 -0.4375 0.1875 -0.90625q0 -0.59375 -0.375 -0.96875q-0.375 -0.390625 -0.9375 -0.6875q-0.5625 -0.3125 -1.234375 -0.609375q-0.65625 -0.3125 -1.21875 -0.71875q-0.5625 -0.40625 -0.953125 -1.0q-0.375 -0.59375 -0.375 -1.515625q0 -0.9375 0.375 -1.75q0.375 -0.8125 1.046875 -1.40625q0.6875 -0.59375 1.640625 -0.921875q0.953125 -0.328125 2.109375 -0.328125q0.546875 0 1.046875 0.09375q0.515625 0.078125 0.9375 0.203125q0.4375 0.125 0.75 0.296875q0.3125 0.15625 0.484375 0.3125q0.15625 0.140625 0.15625 0.4375zm12.335236 12.187492q-0.015625 0.109375 -0.09375 0.203125q-0.0625 0.078125 -0.1875 0.140625q-0.125 0.046875 -0.34375 0.0625q-0.203125 0.03125 -0.5 0.03125q-0.296875 0 -0.484375 -0.03125q-0.1875 -0.015625 -0.296875 -0.0625q-0.109375 -0.0625 -0.15625 -0.140625q-0.03125 -0.09375 0 -0.203125l0.46875 -2.4218674q-0.21875 0.484375 -0.71875 1.03125q-0.484375 0.5312424 -1.15625 0.9999924q-0.671875 0.453125 -1.46875 0.734375q-0.78125 0.28125 -1.609375 0.28125q-0.96875 0 -1.640625 -0.265625q-0.65625 -0.25 -1.0625 -0.71875q-0.40625 -0.46875 -0.59375 -1.1093674q-0.171875 -0.640625 -0.171875 -1.390625q0 -0.46875 0.0625 -0.96875q0.0625 -0.5 0.15625 -1.0l1.59375 -8.078125q0.03125 -0.09375 0.09375 -0.171875q0.078125 -0.09375 0.21875 -0.140625q0.15625 -0.0625 0.390625 -0.078125q0.25 -0.03125 0.59375 -0.03125q0.34375 0 0.5625 0.03125q0.21875 0.015625 0.34375 0.078125q0.125 0.046875 0.15625 0.140625q0.03125 0.078125 0.015625 0.171875l-1.578125 8.0q-0.078125 0.375 -0.125 0.78125q-0.046875 0.390625 -0.046875 0.796875q0 0.4375 0.078125 0.796875q0.078125 0.34375 0.265625 0.609375q0.203125 0.25 0.515625 0.390625q0.3125 0.140625 0.75 0.140625q0.765625 0 1.546875 -0.4375q0.796875 -0.4375 1.484375 -1.203125q0.6875 -0.78125 1.21875 -1.84375q0.546875 -1.0625 0.8125 -2.328125l1.125 -5.703125q0.015625 -0.09375 0.09375 -0.171875q0.078125 -0.09375 0.21875 -0.140625q0.15625 -0.0625 0.390625 -0.078125q0.234375 -0.03125 0.578125 -0.03125q0.34375 0 0.5625 0.03125q0.234375 0.015625 0.34375 0.078125q0.125 0.046875 0.15625 0.140625q0.046875 0.078125 0.03125 0.171875l-2.59375 12.906242zm17.43872 -8.859367q0 0.859375 -0.171875 1.90625q-0.15625 1.03125 -0.515625 2.078125q-0.34375 1.046875 -0.875 2.046875q-0.515625 1.0 -1.28125 1.7656174q-0.765625 0.765625 -1.765625 1.234375q-1.0 0.453125 -2.25 0.453125q-1.28125 0 -2.203125 -0.484375q-0.90625 -0.484375 -1.625 -1.4062424l-0.265625 1.2656174q-0.03125 0.25 -0.3125 0.34375q-0.265625 0.09375 -0.84375 0.09375q-0.59375 0 -0.796875 -0.109375q-0.203125 -0.109375 -0.140625 -0.328125l3.796875 -19.124992q0.03125 -0.125 0.09375 -0.203125q0.0625 -0.09375 0.21875 -0.140625q0.15625 -0.0625 0.390625 -0.09375q0.234375 -0.03125 0.59375 -0.03125q0.34375 0 0.546875 0.03125q0.21875 0.03125 0.34375 0.09375q0.140625 0.046875 0.171875 0.140625q0.03125 0.078125 0.015625 0.203125l-1.15625 5.75q-0.0625 0.375 -0.171875 0.78125q-0.09375 0.390625 -0.203125 0.796875q-0.109375 0.390625 -0.21875 0.75q-0.109375 0.34375 -0.1875 0.59375q0.234375 -0.5 0.71875 -1.03125q0.5 -0.546875 1.15625 -1.0q0.671875 -0.453125 1.453125 -0.75q0.796875 -0.296875 1.59375 -0.296875q0.859375 0 1.46875 0.234375q0.625 0.21875 1.046875 0.609375q0.4375 0.375 0.703125 0.859375q0.265625 0.484375 0.40625 1.0q0.140625 0.515625 0.203125 1.03125q0.0625 0.5 0.0625 0.9375zm-2.484375 0.203125q0 -0.390625 -0.078125 -0.890625q-0.0625 -0.5 -0.28125 -0.921875q-0.203125 -0.4375 -0.59375 -0.734375q-0.390625 -0.296875 -1.046875 -0.296875q-0.78125 0 -1.578125 0.453125q-0.796875 0.4375 -1.484375 1.21875q-0.6875 0.78125 -1.234375 1.84375q-0.53125 1.046875 -0.78125 2.28125l-0.46875 2.375q0.671875 1.0 1.4375 1.46875q0.78125 0.46875 1.75 0.46875q0.75 0 1.34375 -0.34375q0.609375 -0.34375 1.09375 -0.90625q0.484375 -0.578125 0.84375 -1.3125q0.359375 -0.75 0.59375 -1.546875q0.234375 -0.8125 0.359375 -1.625q0.125 -0.828125 0.125 -1.53125zm10.860626 -8.5625q-0.09375 0.390625 -0.21875 0.671875q-0.109375 0.265625 -0.3125 0.4375q-0.1875 0.15625 -0.484375 0.234375q-0.296875 0.0625 -0.71875 0.0625q-0.421875 0 -0.6875 -0.0625q-0.265625 -0.078125 -0.40625 -0.234375q-0.140625 -0.171875 -0.15625 -0.4375q0 -0.28125 0.078125 -0.671875q0.078125 -0.40625 0.1875 -0.671875q0.125 -0.265625 0.328125 -0.4375q0.203125 -0.1875 0.484375 -0.25q0.296875 -0.0625 0.71875 -0.0625q0.4375 0 0.703125 0.0625q0.28125 0.0625 0.40625 0.25q0.125 0.171875 0.140625 0.4375q0.015625 0.265625 -0.0625 0.671875zm-3.921875 18.062492q-0.203125 1.125 -0.546875 2.0q-0.34375 0.875 -0.890625 1.484375q-0.546875 0.609375 -1.328125 0.9375q-0.765625 0.328125 -1.828125 0.328125q-0.578125 0 -0.96875 -0.09375q-0.40625 -0.078125 -0.5 -0.171875q-0.0625 -0.078125 -0.09375 -0.171875q-0.03125 -0.078125 -0.03125 -0.21875q0 -0.0625 0.03125 -0.203125q0.015625 -0.140625 0.046875 -0.296875q0.03125 -0.15625 0.078125 -0.328125q0.03125 -0.171875 0.109375 -0.3125q0.078125 -0.125 0.171875 -0.21875q0.078125 -0.078125 0.171875 -0.078125q0.09375 0 0.171875 0.015625q0.078125 0.015625 0.171875 0.015625q0.078125 0 0.21875 0.015625q0.125 0.015625 0.34375 0.015625q0.46875 0 0.84375 -0.140625q0.375 -0.125 0.640625 -0.453125q0.28125 -0.328125 0.484375 -0.859375q0.203125 -0.53125 0.359375 -1.3125l2.734375 -13.687492q0.03125 -0.09375 0.09375 -0.171875q0.078125 -0.09375 0.21875 -0.15625q0.15625 -0.0625 0.390625 -0.078125q0.25 -0.03125 0.59375 -0.03125q0.328125 0 0.546875 0.03125q0.234375 0.015625 0.359375 0.078125q0.125 0.0625 0.15625 0.15625q0.03125 0.078125 0.015625 0.171875l-2.765625 13.734367z" fill-rule="nonzero"/><path fill="#000000" fill-opacity="0.0" d="m346.19946 60.333332l204.15747 0l0 54.929134l-204.15747 0z" fill-rule="evenodd"/><path fill="#000000" d="m438.47278 97.13396q-0.046875 0.25 -0.3125 0.34375q-0.25 0.09375 -0.859375 0.09375q-0.28125 0 -0.46875 -0.03125q-0.1875 -0.015625 -0.3125 -0.0625q-0.109375 -0.0625 -0.15625 -0.140625q-0.03125 -0.078125 0 -0.203125l0.484375 -2.4375q-0.1875 0.46875 -0.6875 1.015625q-0.484375 0.53125 -1.15625 1.0q-0.65625 0.453125 -1.46875 0.75q-0.8125 0.296875 -1.65625 0.296875q-1.15625 0 -1.90625 -0.390625q-0.75 -0.40625 -1.203125 -1.0625q-0.4375 -0.65625 -0.609375 -1.484375q-0.15625 -0.84375 -0.15625 -1.703125q0 -0.8125 0.140625 -1.828125q0.15625 -1.015625 0.5 -2.078125q0.34375 -1.0625 0.875 -2.0625q0.53125 -1.0 1.28125 -1.796875q0.765625 -0.796875 1.765625 -1.265625q1.015625 -0.484375 2.28125 -0.484375q1.28125 0 2.1875 0.515625q0.90625 0.515625 1.625 1.421875l0.28125 -1.3125q0.046875 -0.21875 0.3125 -0.3125q0.28125 -0.109375 0.859375 -0.109375q0.28125 0 0.46875 0.03125q0.203125 0.015625 0.3125 0.078125q0.109375 0.046875 0.140625 0.140625q0.03125 0.078125 0.015625 0.171875l-2.578125 12.90625zm-0.4375 -9.515625q-0.671875 -1.0 -1.453125 -1.484375q-0.78125 -0.5 -1.765625 -0.5q-0.765625 0 -1.390625 0.375q-0.625 0.359375 -1.109375 0.96875q-0.46875 0.59375 -0.828125 1.359375q-0.34375 0.765625 -0.5625 1.578125q-0.21875 0.8125 -0.328125 1.609375q-0.109375 0.78125 -0.109375 1.421875q0 0.5 0.078125 1.0q0.078125 0.484375 0.296875 0.890625q0.21875 0.40625 0.609375 0.65625q0.390625 0.25 1.0 0.25q0.796875 0 1.578125 -0.4375q0.796875 -0.4375 1.484375 -1.203125q0.6875 -0.78125 1.21875 -1.828125q0.53125 -1.046875 0.796875 -2.296875l0.484375 -2.359375zm15.516846 9.515625q-0.015625 0.109375 -0.09375 0.203125q-0.0625 0.078125 -0.1875 0.140625q-0.125 0.046875 -0.34375 0.0625q-0.203125 0.03125 -0.5 0.03125q-0.296875 0 -0.484375 -0.03125q-0.1875 -0.015625 -0.296875 -0.0625q-0.109375 -0.0625 -0.15625 -0.140625q-0.03125 -0.09375 0 -0.203125l0.46875 -2.421875q-0.21875 0.484375 -0.71875 1.03125q-0.484375 0.53125 -1.15625 1.0q-0.671875 0.453125 -1.46875 0.734375q-0.78125 0.28125 -1.609375 0.28125q-0.96875 0 -1.640625 -0.265625q-0.65625 -0.25 -1.0625 -0.71875q-0.40625 -0.46875 -0.59375 -1.109375q-0.171875 -0.640625 -0.171875 -1.390625q0 -0.46875 0.0625 -0.96875q0.0625 -0.5 0.15625 -1.0l1.59375 -8.078125q0.03125 -0.09375 0.09375 -0.171875q0.078125 -0.09375 0.21875 -0.140625q0.15625 -0.0625 0.390625 -0.078125q0.25 -0.03125 0.59375 -0.03125q0.34375 0 0.5625 0.03125q0.21875 0.015625 0.34375 0.078125q0.125 0.046875 0.15625 0.140625q0.03125 0.078125 0.015625 0.171875l-1.578125 8.0q-0.078125 0.375 -0.125 0.78125q-0.046875 0.390625 -0.046875 0.796875q0 0.4375 0.078125 0.796875q0.078125 0.34375 0.265625 0.609375q0.203125 0.25 0.515625 0.390625q0.3125 0.140625 0.75 0.140625q0.765625 0 1.546875 -0.4375q0.796875 -0.4375 1.484375 -1.203125q0.6875 -0.78125 1.21875 -1.84375q0.546875 -1.0625 0.8125 -2.328125l1.125 -5.703125q0.015625 -0.09375 0.09375 -0.171875q0.078125 -0.09375 0.21875 -0.140625q0.15625 -0.0625 0.390625 -0.078125q0.234375 -0.03125 0.578125 -0.03125q0.34375 0 0.5625 0.03125q0.234375 0.015625 0.34375 0.078125q0.125 0.046875 0.15625 0.140625q0.046875 0.078125 0.03125 0.171875l-2.59375 12.90625zm11.423126 -6.578125l2.8125 6.3125q0.09375 0.203125 0.0625 0.34375q-0.015625 0.125 -0.171875 0.21875q-0.15625 0.078125 -0.4375 0.109375q-0.28125 0.03125 -0.71875 0.03125q-0.40625 0 -0.640625 -0.015625q-0.21875 -0.015625 -0.359375 -0.0625q-0.125 -0.0625 -0.171875 -0.140625q-0.03125 -0.078125 -0.078125 -0.171875l-2.15625 -5.09375l-4.046875 5.09375q-0.09375 0.09375 -0.1875 0.171875q-0.078125 0.078125 -0.25 0.125q-0.171875 0.046875 -0.4375 0.0625q-0.265625 0.03125 -0.703125 0.03125q-0.40625 0 -0.65625 -0.03125q-0.265625 -0.03125 -0.390625 -0.109375q-0.125 -0.09375 -0.09375 -0.21875q0.015625 -0.140625 0.15625 -0.328125l5.359375 -6.359375l-2.65625 -6.015625q-0.078125 -0.203125 -0.078125 -0.34375q0.015625 -0.140625 0.15625 -0.21875q0.140625 -0.09375 0.40625 -0.109375q0.28125 -0.03125 0.71875 -0.03125q0.40625 0 0.625 0.03125q0.234375 0.015625 0.359375 0.0625q0.125 0.03125 0.171875 0.109375q0.046875 0.0625 0.09375 0.171875l2.046875 4.8125l3.859375 -4.8125q0.09375 -0.09375 0.171875 -0.15625q0.09375 -0.078125 0.25 -0.125q0.15625 -0.046875 0.390625 -0.0625q0.234375 -0.03125 0.625 -0.03125q0.4375 0 0.703125 0.03125q0.265625 0.015625 0.390625 0.09375q0.140625 0.078125 0.109375 0.21875q-0.015625 0.125 -0.203125 0.328125l-5.03125 6.078125z" fill-rule="nonzero"/><path fill="#000000" fill-opacity="0.0" d="m495.15616 94.149605l204.1575 0l0 54.92913l-204.1575 0z" fill-rule="evenodd"/><path fill="#000000" d="m584.11084 122.09086q0 0.828125 -0.171875 1.875q-0.15625 1.03125 -0.5 2.09375q-0.34375 1.046875 -0.875 2.0468674q-0.53125 1.0 -1.296875 1.78125q-0.765625 0.765625 -1.765625 1.234375q-0.984375 0.453125 -2.25 0.453125q-0.640625 0 -1.171875 -0.125q-0.53125 -0.125 -0.96875 -0.34375q-0.4375 -0.234375 -0.8125 -0.546875q-0.375 -0.3125 -0.6875 -0.6875l-1.21875 6.1875q-0.03125 0.125 -0.09375 0.203125q-0.0625 0.09375 -0.21875 0.140625q-0.140625 0.0625 -0.375 0.09375q-0.234375 0.03125 -0.59375 0.03125q-0.328125 0 -0.546875 -0.03125q-0.21875 -0.03125 -0.359375 -0.09375q-0.125 -0.046875 -0.15625 -0.140625q-0.03125 -0.078125 -0.015625 -0.203125l3.609375 -18.015617q0.03125 -0.21875 0.28125 -0.3125q0.265625 -0.109375 0.875 -0.109375q0.296875 0 0.484375 0.03125q0.1875 0.015625 0.296875 0.0625q0.125 0.046875 0.140625 0.140625q0.03125 0.078125 0.015625 0.1875l-0.484375 2.453125q0.203125 -0.46875 0.671875 -1.0q0.484375 -0.546875 1.15625 -1.015625q0.671875 -0.46875 1.484375 -0.765625q0.8125 -0.296875 1.65625 -0.296875q1.09375 0 1.828125 0.375q0.734375 0.375 1.1875 1.0q0.46875 0.609375 0.671875 1.46875q0.203125 0.84375 0.203125 1.828125zm-2.484375 0.15625q0 -0.625 -0.109375 -1.140625q-0.109375 -0.515625 -0.34375 -0.875q-0.234375 -0.375 -0.625 -0.578125q-0.375 -0.203125 -0.921875 -0.203125q-0.78125 0 -1.578125 0.4375q-0.796875 0.421875 -1.484375 1.203125q-0.6875 0.765625 -1.234375 1.828125q-0.53125 1.046875 -0.78125 2.296875l-0.46875 2.359375q0.671875 0.9999924 1.4375 1.4999924q0.78125 0.484375 1.75 0.484375q0.765625 0 1.390625 -0.359375q0.625 -0.359375 1.09375 -0.953125q0.484375 -0.6093674 0.828125 -1.3593674q0.359375 -0.765625 0.59375 -1.578125q0.234375 -0.8125 0.34375 -1.609375q0.109375 -0.8125 0.109375 -1.453125zm14.376221 -4.171875q0 0.0625 -0.03125 0.234375q-0.015625 0.15625 -0.046875 0.375q-0.015625 0.203125 -0.078125 0.4375q-0.0625 0.234375 -0.15625 0.421875q-0.078125 0.1875 -0.171875 0.328125q-0.09375 0.125 -0.203125 0.125q-0.109375 0 -0.25 -0.046875q-0.140625 -0.046875 -0.3125 -0.125q-0.15625 -0.078125 -0.375 -0.125q-0.203125 -0.046875 -0.5 -0.046875q-0.484375 0 -1.125 0.421875q-0.625 0.421875 -1.25 1.171875q-0.609375 0.734375 -1.125 1.75q-0.5 1.015625 -0.75 2.21875l-1.125 5.7343674q-0.03125 0.109375 -0.109375 0.203125q-0.0625 0.078125 -0.21875 0.140625q-0.140625 0.046875 -0.375 0.0625q-0.234375 0.03125 -0.578125 0.03125q-0.359375 0 -0.578125 -0.03125q-0.21875 -0.015625 -0.34375 -0.0625q-0.125 -0.0625 -0.15625 -0.140625q-0.03125 -0.09375 0 -0.203125l2.5625 -12.906242q0.015625 -0.09375 0.078125 -0.171875q0.078125 -0.09375 0.21875 -0.140625q0.140625 -0.0625 0.34375 -0.078125q0.21875 -0.03125 0.5 -0.03125q0.296875 0 0.484375 0.03125q0.203125 0.015625 0.3125 0.078125q0.109375 0.046875 0.125 0.140625q0.03125 0.078125 0.015625 0.171875l-0.46875 2.359375q0.328125 -0.59375 0.78125 -1.140625q0.453125 -0.546875 0.984375 -0.953125q0.53125 -0.40625 1.109375 -0.640625q0.578125 -0.25 1.140625 -0.25q0.234375 0 0.484375 0.046875q0.25 0.03125 0.46875 0.078125q0.21875 0.046875 0.375 0.109375q0.171875 0.0625 0.265625 0.15625q0.078125 0.078125 0.078125 0.265625zm12.5060425 2.625q0 0.984375 -0.46875 1.78125q-0.453125 0.78125 -1.4375 1.34375q-0.96875 0.546875 -2.484375 0.859375q-1.515625 0.296875 -3.625 0.296875l-1.53125 0q-0.09375 0.46875 -0.140625 0.921875q-0.03125 0.4375 -0.03125 0.828125q0 1.4218674 0.703125 2.1874924q0.71875 0.765625 2.3125 0.765625q0.90625 0 1.640625 -0.140625q0.734375 -0.140625 1.265625 -0.296875q0.546875 -0.15625 0.890625 -0.28125q0.34375 -0.140625 0.46875 -0.140625q0.125 0 0.1875 0.09375q0.0625 0.078125 0.0625 0.25q0 0.15625 -0.03125 0.359375q-0.015625 0.1875 -0.078125 0.40625q-0.0625 0.203125 -0.15625 0.390625q-0.078125 0.1875 -0.203125 0.3125q-0.171875 0.171875 -0.609375 0.34375q-0.4375 0.15625 -1.046875 0.296875q-0.59375 0.125 -1.3125 0.203125q-0.703125 0.09375 -1.421875 0.09375q-1.28125 0 -2.25 -0.28125q-0.953125 -0.28125 -1.59375 -0.875q-0.625 -0.59375 -0.9375 -1.484375q-0.3125 -0.890625 -0.3125 -2.0937424q0 -0.9375 0.171875 -2.0q0.171875 -1.0625 0.5625 -2.109375q0.390625 -1.046875 1.0 -2.0q0.625 -0.96875 1.46875 -1.6875q0.859375 -0.734375 1.96875 -1.171875q1.125 -0.453125 2.53125 -0.453125q1.203125 0 2.03125 0.296875q0.84375 0.296875 1.375 0.78125q0.546875 0.46875 0.78125 1.046875q0.25 0.578125 0.25 1.15625zm-2.421875 0.21875q0 -0.734375 -0.578125 -1.1875q-0.5625 -0.453125 -1.625 -0.453125q-0.9375 0 -1.65625 0.328125q-0.703125 0.3125 -1.265625 0.859375q-0.546875 0.546875 -0.9375 1.28125q-0.390625 0.71875 -0.640625 1.515625l1.453125 0q1.515625 0 2.515625 -0.1875q1.015625 -0.1875 1.625 -0.5q0.609375 -0.328125 0.859375 -0.75q0.25 -0.4375 0.25 -0.90625zm17.16156 1.171875q0 0.828125 -0.171875 1.875q-0.15625 1.03125 -0.5 2.09375q-0.34375 1.046875 -0.875 2.0468674q-0.53125 1.0 -1.296875 1.78125q-0.765625 0.765625 -1.765625 1.234375q-0.984375 0.453125 -2.25 0.453125q-0.640625 0 -1.171875 -0.125q-0.53125 -0.125 -0.96875 -0.34375q-0.4375 -0.234375 -0.8125 -0.546875q-0.375 -0.3125 -0.6875 -0.6875l-1.21875 6.1875q-0.03125 0.125 -0.09375 0.203125q-0.0625 0.09375 -0.21875 0.140625q-0.140625 0.0625 -0.375 0.09375q-0.234375 0.03125 -0.59375 0.03125q-0.328125 0 -0.546875 -0.03125q-0.21875 -0.03125 -0.359375 -0.09375q-0.125 -0.046875 -0.15625 -0.140625q-0.03125 -0.078125 -0.015625 -0.203125l3.609375 -18.015617q0.03125 -0.21875 0.28125 -0.3125q0.265625 -0.109375 0.875 -0.109375q0.296875 0 0.484375 0.03125q0.1875 0.015625 0.296875 0.0625q0.125 0.046875 0.140625 0.140625q0.03125 0.078125 0.015625 0.1875l-0.484375 2.453125q0.203125 -0.46875 0.671875 -1.0q0.484375 -0.546875 1.15625 -1.015625q0.671875 -0.46875 1.484375 -0.765625q0.8125 -0.296875 1.65625 -0.296875q1.09375 0 1.828125 0.375q0.734375 0.375 1.1875 1.0q0.46875 0.609375 0.671875 1.46875q0.203125 0.84375 0.203125 1.828125zm-2.484375 0.15625q0 -0.625 -0.109375 -1.140625q-0.109375 -0.515625 -0.34375 -0.875q-0.234375 -0.375 -0.625 -0.578125q-0.375 -0.203125 -0.921875 -0.203125q-0.78125 0 -1.578125 0.4375q-0.796875 0.421875 -1.484375 1.203125q-0.6875 0.765625 -1.234375 1.828125q-0.53125 1.046875 -0.78125 2.296875l-0.46875 2.359375q0.671875 0.9999924 1.4375 1.4999924q0.78125 0.484375 1.75 0.484375q0.765625 0 1.390625 -0.359375q0.625 -0.359375 1.09375 -0.953125q0.484375 -0.6093674 0.828125 -1.3593674q0.359375 -0.765625 0.59375 -1.578125q0.234375 -0.8125 0.34375 -1.609375q0.109375 -0.8125 0.109375 -1.453125z" fill-rule="nonzero"/><path fill="#000000" fill-opacity="0.0" d="m646.81494 92.414696l204.15747 0l0 54.92913l-204.15747 0z" fill-rule="evenodd"/><path fill="#000000" d="m736.7649 120.35595q0 0.828125 -0.171875 1.875q-0.15625 1.03125 -0.5 2.09375q-0.34375 1.046875 -0.875 2.046875q-0.53125 1.0 -1.296875 1.7812424q-0.765625 0.765625 -1.765625 1.234375q-0.984375 0.453125 -2.25 0.453125q-0.640625 0 -1.171875 -0.125q-0.53125 -0.125 -0.96875 -0.34375q-0.4375 -0.234375 -0.8125 -0.546875q-0.375 -0.3125 -0.6875 -0.6875l-1.21875 6.1875q-0.03125 0.125 -0.09375 0.203125q-0.0625 0.09375 -0.21875 0.140625q-0.140625 0.0625 -0.375 0.09375q-0.234375 0.03125 -0.59375 0.03125q-0.328125 0 -0.546875 -0.03125q-0.21875 -0.03125 -0.359375 -0.09375q-0.125 -0.046875 -0.15625 -0.140625q-0.03125 -0.078125 -0.015625 -0.203125l3.609375 -18.015617q0.03125 -0.21875 0.28125 -0.3125q0.265625 -0.109375 0.875 -0.109375q0.296875 0 0.484375 0.03125q0.1875 0.015625 0.296875 0.0625q0.125 0.046875 0.140625 0.140625q0.03125 0.078125 0.015625 0.1875l-0.484375 2.453125q0.203125 -0.46875 0.671875 -1.0q0.484375 -0.546875 1.15625 -1.015625q0.671875 -0.46875 1.484375 -0.765625q0.8125 -0.296875 1.65625 -0.296875q1.09375 0 1.828125 0.375q0.734375 0.375 1.1875 1.0q0.46875 0.609375 0.671875 1.46875q0.203125 0.84375 0.203125 1.828125zm-2.484375 0.15625q0 -0.625 -0.109375 -1.140625q-0.109375 -0.515625 -0.34375 -0.875q-0.234375 -0.375 -0.625 -0.578125q-0.375 -0.203125 -0.921875 -0.203125q-0.78125 0 -1.578125 0.4375q-0.796875 0.421875 -1.484375 1.203125q-0.6875 0.765625 -1.234375 1.828125q-0.53125 1.046875 -0.78125 2.296875l-0.46875 2.359375q0.671875 1.0 1.4375 1.5q0.78125 0.484375 1.75 0.484375q0.765625 0 1.390625 -0.359375q0.625 -0.359375 1.09375 -0.953125q0.484375 -0.609375 0.828125 -1.359375q0.359375 -0.765625 0.59375 -1.578125q0.234375 -0.8125 0.34375 -1.609375q0.109375 -0.8125 0.109375 -1.453125zm17.56372 0.078125q0 1.0625 -0.203125 2.171875q-0.1875 1.09375 -0.59375 2.125q-0.40625 1.015625 -1.046875 1.921875q-0.625 0.90625 -1.484375 1.5781174q-0.84375 0.671875 -1.9375 1.0625q-1.078125 0.390625 -2.40625 0.390625q-1.375 0 -2.359375 -0.328125q-0.96875 -0.328125 -1.609375 -0.953125q-0.625 -0.6249924 -0.9375 -1.5468674q-0.296875 -0.921875 -0.296875 -2.078125q0 -1.0625 0.1875 -2.15625q0.203125 -1.109375 0.609375 -2.125q0.421875 -1.015625 1.046875 -1.921875q0.625 -0.90625 1.46875 -1.578125q0.859375 -0.6875 1.9375 -1.078125q1.09375 -0.390625 2.421875 -0.390625q1.375 0 2.34375 0.34375q0.984375 0.328125 1.625 0.96875q0.640625 0.625 0.9375 1.546875q0.296875 0.90625 0.296875 2.046875zm-2.484375 0.15625q0 -0.71875 -0.15625 -1.296875q-0.140625 -0.578125 -0.5 -0.96875q-0.34375 -0.390625 -0.921875 -0.609375q-0.5625 -0.21875 -1.359375 -0.21875q-0.859375 0 -1.5625 0.3125q-0.703125 0.3125 -1.25 0.84375q-0.546875 0.515625 -0.96875 1.21875q-0.40625 0.703125 -0.671875 1.5q-0.25 0.78125 -0.390625 1.625q-0.125 0.84375 -0.125 1.640625q0 0.71875 0.15625 1.296875q0.15625 0.5625 0.5 0.96875q0.359375 0.390625 0.921875 0.609375q0.5625 0.21875 1.359375 0.21875q0.875 0 1.5625 -0.3125q0.703125 -0.3125 1.25 -0.828125q0.546875 -0.53125 0.953125 -1.234375q0.421875 -0.703125 0.671875 -1.5q0.265625 -0.8125 0.390625 -1.640625q0.140625 -0.828125 0.140625 -1.625zm17.535095 -0.390625q0 0.859375 -0.171875 1.90625q-0.15625 1.03125 -0.515625 2.078125q-0.34375 1.046875 -0.875 2.046875q-0.515625 1.0 -1.28125 1.7656174q-0.765625 0.765625 -1.765625 1.234375q-1.0 0.453125 -2.25 0.453125q-1.28125 0 -2.203125 -0.484375q-0.90625 -0.484375 -1.625 -1.4062424l-0.265625 1.2656174q-0.03125 0.25 -0.3125 0.34375q-0.265625 0.09375 -0.84375 0.09375q-0.59375 0 -0.796875 -0.109375q-0.203125 -0.109375 -0.140625 -0.328125l3.796875 -19.124992q0.03125 -0.125 0.09375 -0.203125q0.0625 -0.09375 0.21875 -0.140625q0.15625 -0.0625 0.390625 -0.09375q0.234375 -0.03125 0.59375 -0.03125q0.34375 0 0.546875 0.03125q0.21875 0.03125 0.34375 0.09375q0.140625 0.046875 0.171875 0.140625q0.03125 0.078125 0.015625 0.203125l-1.15625 5.75q-0.0625 0.375 -0.171875 0.78125q-0.09375 0.390625 -0.203125 0.796875q-0.109375 0.390625 -0.21875 0.75q-0.109375 0.34375 -0.1875 0.59375q0.234375 -0.5 0.71875 -1.03125q0.5 -0.546875 1.15625 -1.0q0.671875 -0.453125 1.453125 -0.75q0.796875 -0.296875 1.59375 -0.296875q0.859375 0 1.46875 0.234375q0.625 0.21875 1.046875 0.609375q0.4375 0.375 0.703125 0.859375q0.265625 0.484375 0.40625 1.0q0.140625 0.515625 0.203125 1.03125q0.0625 0.5 0.0625 0.9375zm-2.484375 0.203125q0 -0.390625 -0.078125 -0.890625q-0.0625 -0.5 -0.28125 -0.921875q-0.203125 -0.4375 -0.59375 -0.734375q-0.390625 -0.296875 -1.046875 -0.296875q-0.78125 0 -1.578125 0.453125q-0.796875 0.4375 -1.484375 1.21875q-0.6875 0.78125 -1.234375 1.84375q-0.53125 1.046875 -0.78125 2.28125l-0.46875 2.375q0.671875 1.0 1.4375 1.46875q0.78125 0.46875 1.75 0.46875q0.75 0 1.34375 -0.34375q0.609375 -0.34375 1.09375 -0.90625q0.484375 -0.578125 0.84375 -1.3125q0.359375 -0.75 0.59375 -1.546875q0.234375 -0.8125 0.359375 -1.625q0.125 -0.828125 0.125 -1.53125zm10.860596 -8.5625q-0.09375 0.390625 -0.21875 0.671875q-0.109375 0.265625 -0.3125 0.4375q-0.1875 0.15625 -0.484375 0.234375q-0.296875 0.0625 -0.71875 0.0625q-0.421875 0 -0.6875 -0.0625q-0.265625 -0.078125 -0.40625 -0.234375q-0.140625 -0.171875 -0.15625 -0.4375q0 -0.28125 0.078125 -0.671875q0.078125 -0.40625 0.1875 -0.671875q0.125 -0.265625 0.328125 -0.4375q0.203125 -0.1875 0.484375 -0.25q0.296875 -0.0625 0.71875 -0.0625q0.4375 0 0.703125 0.0625q0.28125 0.0625 0.40625 0.25q0.125 0.171875 0.140625 0.4375q0.015625 0.265625 -0.0625 0.671875zm-3.921875 18.062492q-0.203125 1.125 -0.546875 2.0q-0.34375 0.875 -0.890625 1.484375q-0.546875 0.609375 -1.328125 0.9375q-0.765625 0.328125 -1.828125 0.328125q-0.578125 0 -0.96875 -0.09375q-0.40625 -0.078125 -0.5 -0.171875q-0.0625 -0.078125 -0.09375 -0.171875q-0.03125 -0.078125 -0.03125 -0.21875q0 -0.0625 0.03125 -0.203125q0.015625 -0.140625 0.046875 -0.296875q0.03125 -0.15625 0.078125 -0.328125q0.03125 -0.171875 0.109375 -0.3125q0.078125 -0.125 0.171875 -0.21875q0.078125 -0.078125 0.171875 -0.078125q0.09375 0 0.171875 0.015625q0.078125 0.015625 0.171875 0.015625q0.078125 0 0.21875 0.015625q0.125 0.015625 0.34375 0.015625q0.46875 0 0.84375 -0.140625q0.375 -0.125 0.640625 -0.453125q0.28125 -0.328125 0.484375 -0.859375q0.203125 -0.53125 0.359375 -1.3125l2.734375 -13.687492q0.03125 -0.09375 0.09375 -0.171875q0.078125 -0.09375 0.21875 -0.15625q0.15625 -0.0625 0.390625 -0.078125q0.25 -0.03125 0.59375 -0.03125q0.328125 0 0.546875 0.03125q0.234375 0.015625 0.359375 0.078125q0.125 0.0625 0.15625 0.15625q0.03125 0.078125 0.015625 0.171875l-2.765625 13.734367z" fill-rule="nonzero"/></g></svg>