<svg version="1.1" viewBox="0.0 0.0 1247.9081364829397 447.753280839895" fill="none" stroke="none" stroke-linecap="square" stroke-miterlimit="10" xmlns:xlink="http://www.w3.org/1999/xlink" xmlns="http://www.w3.org/2000/svg"><clipPath id="p.0"><path d="m0 0l1247.9081 0l0 447.7533l-1247.9081 0l0 -447.7533z" clip-rule="nonzero"/></clipPath><g clip-path="url(#p.0)"><path fill="#000000" fill-opacity="0.0" d="m0 0l1247.9081 0l0 447.7533l-1247.9081 0z" fill-rule="evenodd"/><path fill="#e7e6e6" d="m329.7349 0l31.149628 0l0 410.58267l-31.149628 0z" fill-rule="evenodd"/><path stroke="#44546a" stroke-width="1.0" stroke-linejoin="round" stroke-linecap="butt" d="m329.7349 0l31.149628 0l0 410.58267l-31.149628 0z" fill-rule="evenodd"/><path fill="#000000" fill-opacity="0.0" d="m328.7638 26.811024l33.07086 0" fill-rule="evenodd"/><path stroke="#44546a" stroke-width="1.0" stroke-linejoin="round" stroke-linecap="butt" d="m328.7638 26.811024l33.07086 0" fill-rule="evenodd"/><path fill="#000000" fill-opacity="0.0" d="m328.7743 59.351707l33.07086 0" fill-rule="evenodd"/><path stroke="#44546a" stroke-width="1.0" stroke-linejoin="round" stroke-linecap="butt" d="m328.7743 59.351707l33.07086 0" fill-rule="evenodd"/><path fill="#000000" fill-opacity="0.0" d="m328.7638 94.81102l33.07086 0" fill-rule="evenodd"/><path stroke="#44546a" stroke-width="1.0" stroke-linejoin="round" stroke-linecap="butt" d="m328.7638 94.81102l33.07086 0" fill-rule="evenodd"/><path fill="#000000" fill-opacity="0.0" d="m328.7638 126.37795l33.07086 0" fill-rule="evenodd"/><path stroke="#44546a" stroke-width="1.0" stroke-linejoin="round" stroke-linecap="butt" d="m328.7638 126.37795l33.07086 0" fill-rule="evenodd"/><path fill="#000000" fill-opacity="0.0" d="m328.7638 158.91864l33.07086 0" fill-rule="evenodd"/><path stroke="#44546a" stroke-width="1.0" stroke-linejoin="round" stroke-linecap="butt" d="m328.7638 158.91864l33.07086 0" fill-rule="evenodd"/><path fill="#000000" fill-opacity="0.0" d="m328.7638 193.40683l33.07086 0" fill-rule="evenodd"/><path stroke="#44546a" stroke-width="1.0" stroke-linejoin="round" stroke-linecap="butt" d="m328.7638 193.40683l33.07086 0" fill-rule="evenodd"/><path fill="#000000" fill-opacity="0.0" d="m328.7638 228.86613l33.07086 0" fill-rule="evenodd"/><path stroke="#44546a" stroke-width="1.0" stroke-linejoin="round" stroke-linecap="butt" d="m328.7638 228.86613l33.07086 0" fill-rule="evenodd"/><path fill="#000000" fill-opacity="0.0" d="m328.7638 263.3517l33.07086 0" fill-rule="evenodd"/><path stroke="#44546a" stroke-width="1.0" stroke-linejoin="round" stroke-linecap="butt" d="m328.7638 263.3517l33.07086 0" fill-rule="evenodd"/><path fill="#000000" fill-opacity="0.0" d="m328.7743 297.62204l33.07086 0" fill-rule="evenodd"/><path stroke="#44546a" stroke-width="1.0" stroke-linejoin="round" stroke-linecap="butt" d="m328.7743 297.62204l33.07086 0" fill-rule="evenodd"/><path fill="#000000" fill-opacity="0.0" d="m328.7638 336.2152l33.07086 0" fill-rule="evenodd"/><path stroke="#44546a" stroke-width="1.0" stroke-linejoin="round" stroke-linecap="butt" d="m328.7638 336.2152l33.07086 0" fill-rule="evenodd"/><path fill="#000000" fill-opacity="0.0" d="m328.7743 373.61942l33.07086 0" fill-rule="evenodd"/><path stroke="#44546a" stroke-width="1.0" stroke-linejoin="round" stroke-linecap="butt" d="m328.7743 373.61942l33.07086 0" fill-rule="evenodd"/><path fill="#e7e6e6" d="m504.1706 134.81102l117.7323 0l0 -58.377953l116.75592 116.75591l-116.75592 116.755905l0 -58.37796l-117.7323 0z" fill-rule="evenodd"/><path stroke="#44546a" stroke-width="1.0" stroke-linejoin="round" stroke-linecap="butt" d="m504.1706 134.81102l117.7323 0l0 -58.377953l116.75592 116.75591l-116.75592 116.755905l0 -58.37796l-117.7323 0z" fill-rule="evenodd"/><path fill="#000000" d="m572.3468 179.1721q0 0.09375 -0.03125 0.296875q-0.015625 0.203125 -0.0625 0.453125q-0.03125 0.234375 -0.109375 0.515625q-0.0625 0.265625 -0.15625 0.5q-0.09375 0.234375 -0.21875 0.375q-0.109375 0.140625 -0.25 0.140625q-0.15625 0 -0.40625 -0.09375q-0.25 -0.09375 -0.578125 -0.203125q-0.328125 -0.109375 -0.78125 -0.203125q-0.4375 -0.09375 -0.96875 -0.09375q-1.015625 0 -1.734375 0.3125q-0.703125 0.296875 -1.21875 0.953125q-0.515625 0.640625 -0.875 1.625q-0.34375 0.984375 -0.609375 2.3125l-0.390625 2.109375l4.703125 0q0.265625 0 0.40625 0.1875q0.15625 0.171875 0.15625 0.5625q0 0.265625 -0.046875 0.546875q-0.046875 0.28125 -0.125 0.546875q-0.0625 0.265625 -0.171875 0.515625q-0.09375 0.25 -0.234375 0.4375q-0.125 0.1875 -0.296875 0.3125q-0.15625 0.109375 -0.3125 0.109375l-4.734375 0l-4.015625 19.96875q-0.390625 1.96875 -1.078125 3.40625q-0.671875 1.453125 -1.65625 2.390625q-0.984375 0.953125 -2.28125 1.40625q-1.296875 0.46875 -2.90625 0.46875q-1.0625 0 -1.71875 -0.171875q-0.671875 -0.15625 -0.84375 -0.296875q-0.09375 -0.125 -0.140625 -0.265625q-0.046875 -0.140625 -0.046875 -0.375q0 -0.09375 0.046875 -0.3125q0.03125 -0.21875 0.078125 -0.46875q0.046875 -0.25 0.125 -0.515625q0.0625 -0.265625 0.15625 -0.5q0.09375 -0.234375 0.21875 -0.375q0.109375 -0.140625 0.265625 -0.140625q0.171875 0 0.328125 0.03125q0.140625 0.03125 0.328125 0.0625q0.171875 0.046875 0.421875 0.078125q0.234375 0.03125 0.609375 0.03125q0.984375 0 1.703125 -0.3125q0.71875 -0.296875 1.21875 -0.9375q0.515625 -0.640625 0.84375 -1.625q0.34375 -0.984375 0.625 -2.375l3.84375 -19.171875l-3.0 0q-0.234375 0 -0.359375 -0.15625q-0.125 -0.15625 -0.125 -0.578125q0 -0.1875 0.015625 -0.453125q0.03125 -0.265625 0.078125 -0.546875q0.0625 -0.28125 0.15625 -0.53125q0.09375 -0.265625 0.234375 -0.46875q0.140625 -0.21875 0.296875 -0.34375q0.15625 -0.140625 0.390625 -0.140625l2.953125 0l0.578125 -2.921875q0.375 -1.921875 1.078125 -3.359375q0.703125 -1.453125 1.703125 -2.390625q1.0 -0.9375 2.296875 -1.390625q1.296875 -0.453125 2.875 -0.453125q0.515625 0 1.078125 0.0625q0.5625 0.046875 1.03125 0.15625q0.484375 0.109375 0.84375 0.25q0.375 0.140625 0.515625 0.28125q0.140625 0.109375 0.203125 0.328125q0.078125 0.203125 0.078125 0.4375zm11.4609375 -1.0q-2.5625 3.859375 -4.34375 7.671875q-1.78125 3.8125 -2.890625 7.453125q-1.109375 3.625 -1.625 7.03125q-0.515625 3.40625 -0.515625 6.453125q0 1.25 0.078125 2.625q0.078125 1.375 0.234375 2.765625q0.15625 1.390625 0.390625 2.765625q0.25 1.375 0.578125 2.5625q0.078125 0.28125 0.0625 0.484375q-0.015625 0.203125 -0.1875 0.328125q-0.15625 0.125 -0.515625 0.1875q-0.34375 0.0625 -0.921875 0.0625q-0.40625 0 -0.703125 -0.03125q-0.28125 -0.015625 -0.484375 -0.09375q-0.203125 -0.0625 -0.3125 -0.15625q-0.09375 -0.09375 -0.140625 -0.21875q-0.875 -2.6875 -1.40625 -5.734375q-0.515625 -3.03125 -0.515625 -6.546875q0 -3.03125 0.46875 -6.28125q0.484375 -3.265625 1.609375 -6.75q1.125 -3.5 2.96875 -7.234375q1.859375 -3.734375 4.609375 -7.671875q0.09375 -0.171875 0.234375 -0.28125q0.15625 -0.125 0.40625 -0.203125q0.25 -0.078125 0.625 -0.109375q0.375 -0.046875 0.90625 -0.046875q0.546875 0 0.875 0.078125q0.328125 0.0625 0.5 0.1875q0.171875 0.109375 0.171875 0.296875q0 0.1875 -0.15625 0.40625zm33.132812 10.421875q0 0.265625 -0.0625 0.53125q-0.046875 0.265625 -0.125 0.453125q-0.890625 2.5625 -1.953125 5.171875q-1.0625 2.609375 -2.34375 5.203125q-1.28125 2.59375 -2.765625 5.09375q-1.46875 2.484375 -3.15625 4.8125q-0.15625 0.25 -0.40625 0.390625q-0.25 0.140625 -0.5625 0.21875q-0.3125 0.09375 -0.71875 0.109375q-0.390625 0.03125 -0.890625 0.03125q-0.609375 0 -1.015625 -0.046875q-0.40625 -0.046875 -0.65625 -0.140625q-0.25 -0.09375 -0.359375 -0.25q-0.09375 -0.171875 -0.09375 -0.40625l-1.578125 -15.46875l-7.09375 15.390625q-0.125 0.265625 -0.3125 0.4375q-0.1875 0.171875 -0.5 0.28125q-0.296875 0.109375 -0.75 0.15625q-0.453125 0.046875 -1.109375 0.046875q-0.65625 0 -1.125 -0.046875q-0.46875 -0.046875 -0.765625 -0.140625q-0.296875 -0.09375 -0.4375 -0.25q-0.140625 -0.171875 -0.140625 -0.40625l-2.21875 -20.046875q-0.03125 -0.203125 -0.046875 -0.40625q0 -0.203125 0 -0.34375q0 -0.28125 0.09375 -0.453125q0.09375 -0.171875 0.3125 -0.28125q0.21875 -0.109375 0.609375 -0.140625q0.390625 -0.03125 1.0 -0.03125q0.609375 0 0.96875 0.03125q0.359375 0.03125 0.5625 0.125q0.203125 0.078125 0.265625 0.234375q0.078125 0.140625 0.09375 0.359375l1.640625 17.4375l0 0.203125l0.09375 -0.203125l8.0 -17.4375q0.09375 -0.1875 0.203125 -0.34375q0.125 -0.15625 0.328125 -0.25q0.21875 -0.09375 0.5625 -0.125q0.359375 -0.03125 0.890625 -0.03125q0.546875 0 0.90625 0.03125q0.359375 0.03125 0.5625 0.125q0.21875 0.078125 0.3125 0.21875q0.09375 0.140625 0.125 0.328125l1.734375 17.359375l0 0.1875l0.109375 -0.1875q1.078125 -1.6875 2.15625 -3.734375q1.078125 -2.046875 2.078125 -4.3125q1.015625 -2.265625 1.921875 -4.625q0.90625 -2.375 1.65625 -4.640625q0.046875 -0.21875 0.1875 -0.359375q0.140625 -0.15625 0.375 -0.234375q0.25 -0.09375 0.640625 -0.125q0.40625 -0.03125 1.015625 -0.03125q0.5625 0 0.921875 0.03125q0.375 0.03125 0.5625 0.09375q0.1875 0.0625 0.234375 0.171875q0.0625 0.09375 0.0625 0.234375zm-0.96875 29.0q2.5625 -3.84375 4.34375 -7.65625q1.78125 -3.8125 2.890625 -7.46875q1.125 -3.65625 1.640625 -7.046875q0.515625 -3.40625 0.515625 -6.453125q0 -1.234375 -0.09375 -2.609375q-0.078125 -1.375 -0.234375 -2.765625q-0.140625 -1.390625 -0.390625 -2.75q-0.25 -1.359375 -0.578125 -2.578125q-0.0625 -0.265625 -0.046875 -0.453125q0.03125 -0.203125 0.171875 -0.34375q0.15625 -0.140625 0.5 -0.203125q0.359375 -0.0625 0.953125 -0.0625q0.421875 0 0.703125 0.046875q0.296875 0.03125 0.5 0.09375q0.203125 0.046875 0.296875 0.140625q0.09375 0.09375 0.140625 0.234375q0.859375 2.671875 1.390625 5.71875q0.546875 3.03125 0.546875 6.5625q0 3.03125 -0.484375 6.28125q-0.46875 3.234375 -1.609375 6.734375q-1.140625 3.484375 -2.984375 7.234375q-1.828125 3.734375 -4.578125 7.703125q-0.109375 0.140625 -0.265625 0.25q-0.15625 0.125 -0.40625 0.203125q-0.234375 0.078125 -0.609375 0.109375q-0.375 0.046875 -0.921875 0.046875q-0.53125 0 -0.859375 -0.078125q-0.34375 -0.0625 -0.5 -0.1875q-0.171875 -0.109375 -0.171875 -0.296875q0 -0.171875 0.140625 -0.40625z" fill-rule="nonzero"/><path fill="#e7e6e6" d="m864.3307 130.69292l31.149597 0l0 149.19685l-31.149597 0z" fill-rule="evenodd"/><path stroke="#44546a" stroke-width="1.0" stroke-linejoin="round" stroke-linecap="butt" d="m864.3307 130.69292l31.149597 0l0 149.19685l-31.149597 0z" fill-rule="evenodd"/><path fill="#000000" fill-opacity="0.0" d="m863.37006 166.91602l33.07086 0" fill-rule="evenodd"/><path stroke="#44546a" stroke-width="1.0" stroke-linejoin="round" stroke-linecap="butt" d="m863.37006 166.91602l33.07086 0" fill-rule="evenodd"/><path fill="#000000" fill-opacity="0.0" d="m863.35956 205.50919l33.07086 0" fill-rule="evenodd"/><path stroke="#44546a" stroke-width="1.0" stroke-linejoin="round" stroke-linecap="butt" d="m863.35956 205.50919l33.07086 0" fill-rule="evenodd"/><path fill="#000000" fill-opacity="0.0" d="m863.37006 242.91339l33.07086 0" fill-rule="evenodd"/><path stroke="#44546a" stroke-width="1.0" stroke-linejoin="round" stroke-linecap="butt" d="m863.37006 242.91339l33.07086 0" fill-rule="evenodd"/><path fill="#000000" fill-opacity="0.0" d="m0 131.4063l318.17322 0l0 124.0l-318.17322 0z" fill-rule="evenodd"/><path fill="#000000" d="m38.383484 178.29066q0 0.15625 -0.078125 0.28125q-0.078125 0.109375 -0.28125 0.1875q-0.1875 0.0625 -0.515625 0.109375q-0.3125 0.0625 -0.78125 0.0625q-0.515625 0 -0.828125 -0.0625q-0.3125 -0.046875 -0.515625 -0.109375q-0.1875 -0.078125 -0.265625 -0.1875q-0.078125 -0.125 -0.078125 -0.28125l0 -11.203125l-11.5 0l0 11.203125q0 0.15625 -0.078125 0.28125q-0.078125 0.109375 -0.28125 0.1875q-0.1875 0.0625 -0.515625 0.109375q-0.3125 0.0625 -0.796875 0.0625q-0.46875 0 -0.8125 -0.0625q-0.328125 -0.046875 -0.53125 -0.109375q-0.1875 -0.078125 -0.265625 -0.1875q-0.078125 -0.125 -0.078125 -0.28125l0 -24.25q0 -0.15625 0.078125 -0.265625q0.078125 -0.125 0.265625 -0.1875q0.203125 -0.078125 0.53125 -0.125q0.34375 -0.046875 0.8125 -0.046875q0.484375 0 0.796875 0.046875q0.328125 0.046875 0.515625 0.125q0.203125 0.0625 0.28125 0.1875q0.078125 0.109375 0.078125 0.265625l0 10.109375l11.5 0l0 -10.109375q0 -0.15625 0.078125 -0.265625q0.078125 -0.125 0.265625 -0.1875q0.203125 -0.078125 0.515625 -0.125q0.3125 -0.046875 0.828125 -0.046875q0.46875 0 0.78125 0.046875q0.328125 0.046875 0.515625 0.125q0.203125 0.0625 0.28125 0.1875q0.078125 0.109375 0.078125 0.265625l0 24.25zm9.578125 0.03125q0 0.15625 -0.078125 0.265625q-0.078125 0.09375 -0.265625 0.1875q-0.171875 0.078125 -0.484375 0.109375q-0.3125 0.046875 -0.796875 0.046875q-0.46875 0 -0.78125 -0.046875q-0.3125 -0.03125 -0.5 -0.109375q-0.1875 -0.09375 -0.265625 -0.1875q-0.0625 -0.109375 -0.0625 -0.265625l0 -17.578125q0 -0.140625 0.0625 -0.25q0.078125 -0.125 0.265625 -0.203125q0.1875 -0.078125 0.5 -0.109375q0.3125 -0.046875 0.78125 -0.046875q0.484375 0 0.796875 0.046875q0.3125 0.03125 0.484375 0.109375q0.1875 0.078125 0.265625 0.203125q0.078125 0.109375 0.078125 0.25l0 17.578125zm0.359375 -23.515625q0 1.125 -0.4375 1.546875q-0.421875 0.40625 -1.5625 0.40625q-1.140625 0 -1.5625 -0.40625q-0.421875 -0.40625 -0.421875 -1.515625q0 -1.125 0.421875 -1.53125q0.4375 -0.421875 1.59375 -0.421875q1.140625 0 1.546875 0.40625q0.421875 0.390625 0.421875 1.515625zm20.273438 6.734375q0 0.6875 -0.1875 0.984375q-0.171875 0.296875 -0.46875 0.296875l-2.515625 0q0.671875 0.703125 0.9375 1.5625q0.28125 0.84375 0.28125 1.765625q0 1.515625 -0.484375 2.6875q-0.484375 1.171875 -1.390625 1.984375q-0.90625 0.8125 -2.15625 1.25q-1.25 0.421875 -2.78125 0.421875q-1.078125 0 -2.046875 -0.28125q-0.953125 -0.28125 -1.484375 -0.71875q-0.359375 0.359375 -0.578125 0.8125q-0.21875 0.4375 -0.21875 1.03125q0 0.6875 0.625 1.140625q0.640625 0.4375 1.6875 0.484375l4.59375 0.1875q1.3125 0.046875 2.40625 0.375q1.09375 0.3125 1.890625 0.90625q0.796875 0.59375 1.25 1.46875q0.453125 0.859375 0.453125 2.015625q0 1.21875 -0.515625 2.3125q-0.5 1.09375 -1.546875 1.921875q-1.046875 0.828125 -2.671875 1.296875q-1.609375 0.484375 -3.828125 0.484375q-2.125 0 -3.625 -0.359375q-1.484375 -0.359375 -2.453125 -0.984375q-0.953125 -0.625 -1.390625 -1.5q-0.421875 -0.859375 -0.421875 -1.875q0 -0.640625 0.15625 -1.25q0.15625 -0.609375 0.484375 -1.15625q0.328125 -0.546875 0.796875 -1.046875q0.484375 -0.5 1.109375 -0.984375q-0.953125 -0.484375 -1.421875 -1.21875q-0.453125 -0.75 -0.453125 -1.609375q0 -1.203125 0.484375 -2.140625q0.484375 -0.9375 1.21875 -1.671875q-0.609375 -0.71875 -0.96875 -1.625q-0.34375 -0.921875 -0.34375 -2.203125q0 -1.5 0.5 -2.6875q0.515625 -1.203125 1.40625 -2.015625q0.90625 -0.828125 2.15625 -1.265625q1.265625 -0.4375 2.75 -0.4375q0.796875 0 1.484375 0.09375q0.703125 0.078125 1.3125 0.234375l5.3125 0q0.328125 0 0.484375 0.328125q0.171875 0.3125 0.171875 0.984375zm-5.03125 4.625q0 -1.796875 -0.984375 -2.796875q-0.984375 -1.015625 -2.8125 -1.015625q-0.9375 0 -1.625 0.3125q-0.6875 0.3125 -1.15625 0.859375q-0.453125 0.546875 -0.6875 1.265625q-0.21875 0.71875 -0.21875 1.5q0 1.734375 0.984375 2.734375q0.984375 0.984375 2.765625 0.984375q0.953125 0 1.65625 -0.296875q0.703125 -0.296875 1.15625 -0.828125q0.46875 -0.546875 0.6875 -1.25q0.234375 -0.703125 0.234375 -1.46875zm1.625 13.9375q0 -1.140625 -0.9375 -1.75q-0.921875 -0.625 -2.5 -0.65625l-4.5625 -0.15625q-0.625 0.484375 -1.03125 0.921875q-0.390625 0.4375 -0.625 0.84375q-0.234375 0.40625 -0.328125 0.796875q-0.078125 0.390625 -0.078125 0.796875q0 1.265625 1.28125 1.921875q1.296875 0.65625 3.59375 0.65625q1.46875 0 2.453125 -0.28125q0.984375 -0.28125 1.59375 -0.75q0.609375 -0.46875 0.875 -1.078125q0.265625 -0.609375 0.265625 -1.265625zm22.6875 -1.78125q0 0.15625 -0.078125 0.265625q-0.078125 0.09375 -0.25 0.1875q-0.171875 0.078125 -0.484375 0.109375q-0.3125 0.046875 -0.78125 0.046875q-0.5 0 -0.8125 -0.046875q-0.3125 -0.03125 -0.484375 -0.109375q-0.171875 -0.09375 -0.25 -0.1875q-0.078125 -0.109375 -0.078125 -0.265625l0 -10.296875q0 -1.5 -0.234375 -2.421875q-0.234375 -0.921875 -0.6875 -1.578125q-0.453125 -0.671875 -1.171875 -1.015625q-0.703125 -0.359375 -1.640625 -0.359375q-1.203125 0 -2.421875 0.859375q-1.203125 0.859375 -2.53125 2.515625l0 12.296875q0 0.15625 -0.078125 0.265625q-0.078125 0.09375 -0.265625 0.1875q-0.171875 0.078125 -0.484375 0.109375q-0.3125 0.046875 -0.796875 0.046875q-0.46875 0 -0.78125 -0.046875q-0.3125 -0.03125 -0.5 -0.109375q-0.1875 -0.09375 -0.265625 -0.1875q-0.0625 -0.109375 -0.0625 -0.265625l0 -26.09375q0 -0.15625 0.0625 -0.265625q0.078125 -0.125 0.265625 -0.203125q0.1875 -0.078125 0.5 -0.109375q0.3125 -0.046875 0.78125 -0.046875q0.484375 0 0.796875 0.046875q0.3125 0.03125 0.484375 0.109375q0.1875 0.078125 0.265625 0.203125q0.078125 0.109375 0.078125 0.265625l0 10.515625q1.375 -1.453125 2.78125 -2.171875q1.40625 -0.71875 2.84375 -0.71875q1.75 0 2.953125 0.609375q1.203125 0.59375 1.9375 1.59375q0.75 0.984375 1.0625 2.328125q0.328125 1.328125 0.328125 3.234375l0 10.703125zm13.796875 -9.375q0 0.75 -0.1875 1.046875q-0.171875 0.296875 -0.5 0.296875l-8.171875 0q-0.34375 0 -0.53125 -0.296875q-0.171875 -0.3125 -0.171875 -1.046875q0 -0.75 0.171875 -1.03125q0.1875 -0.296875 0.53125 -0.296875l8.171875 0q0.15625 0 0.28125 0.0625q0.125 0.046875 0.203125 0.21875q0.09375 0.15625 0.140625 0.421875q0.0625 0.25 0.0625 0.625zm19.386719 9.375q0 0.15625 -0.078125 0.28125q-0.0625 0.109375 -0.234375 0.1875q-0.15625 0.0625 -0.4375 0.09375q-0.265625 0.046875 -0.65625 0.046875q-0.40625 0 -0.6875 -0.046875q-0.265625 -0.03125 -0.453125 -0.09375q-0.171875 -0.078125 -0.25 -0.1875q-0.078125 -0.125 -0.078125 -0.28125l0 -2.328125q-1.375 1.5 -2.875 2.34375q-1.5 0.84375 -3.265625 0.84375q-1.9375 0 -3.3125 -0.75q-1.359375 -0.765625 -2.21875 -2.03125q-0.84375 -1.28125 -1.234375 -3.015625q-0.390625 -1.734375 -0.390625 -3.640625q0 -2.265625 0.484375 -4.09375q0.5 -1.828125 1.453125 -3.109375q0.953125 -1.296875 2.359375 -1.984375q1.421875 -0.703125 3.28125 -0.703125q1.546875 0 2.828125 0.6875q1.28125 0.671875 2.53125 1.96875l0 -10.203125q0 -0.140625 0.0625 -0.265625q0.0625 -0.125 0.25 -0.1875q0.203125 -0.078125 0.5 -0.125q0.3125 -0.046875 0.78125 -0.046875q0.484375 0 0.796875 0.046875q0.3125 0.046875 0.484375 0.125q0.1875 0.0625 0.265625 0.1875q0.09375 0.125 0.09375 0.265625l0 26.015625zm-3.234375 -12.375q-1.3125 -1.609375 -2.53125 -2.453125q-1.21875 -0.859375 -2.546875 -0.859375q-1.234375 0 -2.09375 0.59375q-0.859375 0.578125 -1.40625 1.53125q-0.53125 0.953125 -0.78125 2.171875q-0.234375 1.203125 -0.234375 2.453125q0 1.328125 0.203125 2.609375q0.203125 1.265625 0.703125 2.25q0.515625 0.984375 1.359375 1.578125q0.84375 0.59375 2.109375 0.59375q0.640625 0 1.234375 -0.171875q0.59375 -0.171875 1.21875 -0.578125q0.625 -0.421875 1.3125 -1.0625q0.6875 -0.65625 1.453125 -1.625l0 -7.03125zm12.421875 12.375q0 0.15625 -0.078125 0.265625q-0.078125 0.09375 -0.265625 0.1875q-0.171875 0.078125 -0.484375 0.109375q-0.3125 0.046875 -0.796875 0.046875q-0.46875 0 -0.78125 -0.046875q-0.3125 -0.03125 -0.5 -0.109375q-0.1875 -0.09375 -0.265625 -0.1875q-0.0625 -0.109375 -0.0625 -0.265625l0 -17.578125q0 -0.140625 0.0625 -0.25q0.078125 -0.125 0.265625 -0.203125q0.1875 -0.078125 0.5 -0.109375q0.3125 -0.046875 0.78125 -0.046875q0.484375 0 0.796875 0.046875q0.3125 0.03125 0.484375 0.109375q0.1875 0.078125 0.265625 0.203125q0.078125 0.109375 0.078125 0.25l0 17.578125zm0.359375 -23.515625q0 1.125 -0.4375 1.546875q-0.421875 0.40625 -1.5625 0.40625q-1.140625 0 -1.5625 -0.40625q-0.421875 -0.40625 -0.421875 -1.515625q0 -1.125 0.421875 -1.53125q0.4375 -0.421875 1.59375 -0.421875q1.140625 0 1.546875 0.40625q0.421875 0.390625 0.421875 1.515625zm31.664062 23.515625q0 0.15625 -0.078125 0.265625q-0.078125 0.09375 -0.25 0.1875q-0.171875 0.078125 -0.484375 0.109375q-0.3125 0.046875 -0.78125 0.046875q-0.5 0 -0.8125 -0.046875q-0.3125 -0.03125 -0.5 -0.109375q-0.171875 -0.09375 -0.25 -0.1875q-0.078125 -0.109375 -0.078125 -0.265625l0 -10.6875q0 -1.109375 -0.203125 -2.03125q-0.1875 -0.921875 -0.625 -1.578125q-0.421875 -0.671875 -1.09375 -1.015625q-0.65625 -0.359375 -1.5625 -0.359375q-1.109375 0 -2.234375 0.859375q-1.125 0.859375 -2.46875 2.515625l0 12.296875q0 0.15625 -0.078125 0.265625q-0.078125 0.09375 -0.265625 0.1875q-0.1875 0.078125 -0.5 0.109375q-0.3125 0.046875 -0.78125 0.046875q-0.453125 0 -0.78125 -0.046875q-0.3125 -0.03125 -0.5 -0.109375q-0.1875 -0.09375 -0.25 -0.1875q-0.0625 -0.109375 -0.0625 -0.265625l0 -10.6875q0 -1.109375 -0.21875 -2.03125q-0.21875 -0.921875 -0.65625 -1.578125q-0.421875 -0.671875 -1.078125 -1.015625q-0.65625 -0.359375 -1.546875 -0.359375q-1.109375 0 -2.25 0.859375q-1.125 0.859375 -2.453125 2.515625l0 12.296875q0 0.15625 -0.078125 0.265625q-0.078125 0.09375 -0.265625 0.1875q-0.171875 0.078125 -0.484375 0.109375q-0.3125 0.046875 -0.796875 0.046875q-0.46875 0 -0.78125 -0.046875q-0.3125 -0.03125 -0.5 -0.109375q-0.1875 -0.09375 -0.265625 -0.1875q-0.0625 -0.109375 -0.0625 -0.265625l0 -17.578125q0 -0.15625 0.0625 -0.265625q0.0625 -0.109375 0.234375 -0.1875q0.171875 -0.09375 0.4375 -0.125q0.28125 -0.03125 0.734375 -0.03125q0.4375 0 0.71875 0.03125q0.28125 0.03125 0.4375 0.125q0.15625 0.078125 0.21875 0.1875q0.078125 0.109375 0.078125 0.265625l0 2.3125q1.484375 -1.65625 2.875 -2.421875q1.390625 -0.78125 2.828125 -0.78125q1.09375 0 1.953125 0.265625q0.875 0.25 1.53125 0.71875q0.671875 0.453125 1.140625 1.09375q0.46875 0.625 0.78125 1.40625q0.875 -0.953125 1.65625 -1.609375q0.796875 -0.671875 1.53125 -1.078125q0.734375 -0.421875 1.421875 -0.609375q0.703125 -0.1875 1.40625 -0.1875q1.703125 0 2.84375 0.609375q1.15625 0.59375 1.859375 1.59375q0.71875 0.984375 1.015625 2.328125q0.3125 1.328125 0.3125 2.8125l0 11.125zm20.875 -9.5625q0 0.765625 -0.375 1.09375q-0.375 0.3125 -0.875 0.3125l-11.515625 0q0 1.46875 0.28125 2.640625q0.296875 1.171875 0.984375 2.015625q0.6875 0.84375 1.78125 1.296875q1.09375 0.4375 2.671875 0.4375q1.25 0 2.21875 -0.203125q0.984375 -0.203125 1.6875 -0.453125q0.71875 -0.265625 1.171875 -0.46875q0.46875 -0.203125 0.703125 -0.203125q0.140625 0 0.25 0.078125q0.109375 0.0625 0.15625 0.203125q0.0625 0.125 0.09375 0.375q0.03125 0.25 0.03125 0.59375q0 0.25 -0.03125 0.4375q-0.015625 0.1875 -0.046875 0.34375q-0.015625 0.140625 -0.09375 0.265625q-0.0625 0.109375 -0.171875 0.21875q-0.109375 0.109375 -0.640625 0.359375q-0.515625 0.234375 -1.359375 0.46875q-0.84375 0.234375 -1.953125 0.421875q-1.09375 0.1875 -2.34375 0.1875q-2.171875 0 -3.8125 -0.609375q-1.625 -0.609375 -2.734375 -1.796875q-1.109375 -1.1875 -1.6875 -2.984375q-0.5625 -1.796875 -0.5625 -4.1875q0 -2.265625 0.578125 -4.0625q0.59375 -1.8125 1.703125 -3.0625q1.109375 -1.265625 2.671875 -1.9375q1.5625 -0.6875 3.484375 -0.6875q2.078125 0 3.53125 0.671875q1.453125 0.65625 2.390625 1.78125q0.9375 1.125 1.375 2.640625q0.4375 1.515625 0.4375 3.234375l0 0.578125zm-3.234375 -0.953125q0.0625 -2.53125 -1.125 -3.96875q-1.1875 -1.453125 -3.5 -1.453125q-1.203125 0 -2.109375 0.453125q-0.890625 0.4375 -1.5 1.1875q-0.59375 0.734375 -0.9375 1.71875q-0.328125 0.984375 -0.359375 2.0625l9.53125 0zm23.277344 10.515625q0 0.15625 -0.078125 0.265625q-0.078125 0.09375 -0.25 0.1875q-0.171875 0.078125 -0.484375 0.109375q-0.3125 0.046875 -0.78125 0.046875q-0.5 0 -0.8125 -0.046875q-0.3125 -0.03125 -0.484375 -0.109375q-0.171875 -0.09375 -0.25 -0.1875q-0.078125 -0.109375 -0.078125 -0.265625l0 -10.296875q0 -1.5 -0.234375 -2.421875q-0.234375 -0.921875 -0.6875 -1.578125q-0.453125 -0.671875 -1.171875 -1.015625q-0.703125 -0.359375 -1.640625 -0.359375q-1.203125 0 -2.421875 0.859375q-1.203125 0.859375 -2.53125 2.515625l0 12.296875q0 0.15625 -0.078125 0.265625q-0.078125 0.09375 -0.265625 0.1875q-0.171875 0.078125 -0.484375 0.109375q-0.3125 0.046875 -0.796875 0.046875q-0.46875 0 -0.78125 -0.046875q-0.3125 -0.03125 -0.5 -0.109375q-0.1875 -0.09375 -0.265625 -0.1875q-0.0625 -0.109375 -0.0625 -0.265625l0 -17.578125q0 -0.15625 0.0625 -0.265625q0.0625 -0.109375 0.234375 -0.1875q0.171875 -0.09375 0.4375 -0.125q0.28125 -0.03125 0.734375 -0.03125q0.4375 0 0.71875 0.03125q0.28125 0.03125 0.4375 0.125q0.15625 0.078125 0.21875 0.1875q0.078125 0.109375 0.078125 0.265625l0 2.3125q1.484375 -1.65625 2.953125 -2.421875q1.46875 -0.78125 2.984375 -0.78125q1.75 0 2.953125 0.609375q1.203125 0.59375 1.9375 1.59375q0.75 0.984375 1.0625 2.328125q0.328125 1.328125 0.328125 3.203125l0 10.734375zm16.921875 -4.796875q0 1.359375 -0.5 2.421875q-0.5 1.046875 -1.421875 1.765625q-0.921875 0.71875 -2.1875 1.09375q-1.265625 0.375 -2.796875 0.375q-0.9375 0 -1.78125 -0.15625q-0.84375 -0.140625 -1.53125 -0.359375q-0.671875 -0.234375 -1.140625 -0.46875q-0.46875 -0.25 -0.6875 -0.4375q-0.203125 -0.203125 -0.3125 -0.546875q-0.09375 -0.359375 -0.09375 -0.96875q0 -0.375 0.03125 -0.625q0.046875 -0.25 0.109375 -0.40625q0.0625 -0.15625 0.171875 -0.21875q0.109375 -0.078125 0.234375 -0.078125q0.21875 0 0.640625 0.265625q0.421875 0.265625 1.03125 0.578125q0.625 0.3125 1.453125 0.578125q0.84375 0.265625 1.9375 0.265625q0.828125 0 1.484375 -0.171875q0.671875 -0.1875 1.15625 -0.53125q0.484375 -0.34375 0.75 -0.859375q0.265625 -0.53125 0.265625 -1.25q0 -0.75 -0.390625 -1.25q-0.375 -0.515625 -1.0 -0.90625q-0.625 -0.390625 -1.40625 -0.6875q-0.78125 -0.3125 -1.609375 -0.640625q-0.828125 -0.328125 -1.625 -0.75q-0.78125 -0.421875 -1.40625 -1.015625q-0.625 -0.609375 -1.015625 -1.453125q-0.375 -0.84375 -0.375 -2.015625q0 -1.03125 0.390625 -1.96875q0.40625 -0.953125 1.203125 -1.671875q0.8125 -0.71875 2.0 -1.140625q1.203125 -0.4375 2.8125 -0.4375q0.703125 0 1.40625 0.125q0.703125 0.109375 1.265625 0.296875q0.5625 0.171875 0.96875 0.375q0.40625 0.203125 0.609375 0.359375q0.203125 0.15625 0.265625 0.28125q0.078125 0.109375 0.09375 0.265625q0.03125 0.140625 0.0625 0.359375q0.03125 0.203125 0.03125 0.515625q0 0.34375 -0.03125 0.59375q-0.03125 0.234375 -0.09375 0.390625q-0.0625 0.15625 -0.171875 0.234375q-0.09375 0.0625 -0.203125 0.0625q-0.1875 0 -0.515625 -0.21875q-0.328125 -0.21875 -0.859375 -0.453125q-0.53125 -0.25 -1.25 -0.46875q-0.703125 -0.21875 -1.625 -0.21875q-0.8125 0 -1.4375 0.1875q-0.625 0.1875 -1.03125 0.53125q-0.390625 0.34375 -0.609375 0.8125q-0.203125 0.46875 -0.203125 1.015625q0 0.765625 0.390625 1.28125q0.390625 0.515625 1.015625 0.90625q0.625 0.390625 1.421875 0.703125q0.8125 0.3125 1.640625 0.640625q0.828125 0.328125 1.640625 0.75q0.8125 0.40625 1.4375 1.0q0.625 0.578125 1.0 1.40625q0.390625 0.8125 0.390625 1.9375zm7.8320312 4.796875q0 0.15625 -0.078125 0.265625q-0.078125 0.09375 -0.265625 0.1875q-0.171875 0.078125 -0.484375 0.109375q-0.3125 0.046875 -0.796875 0.046875q-0.46875 0 -0.78125 -0.046875q-0.3125 -0.03125 -0.5 -0.109375q-0.1875 -0.09375 -0.265625 -0.1875q-0.0625 -0.109375 -0.0625 -0.265625l0 -17.578125q0 -0.140625 0.0625 -0.25q0.078125 -0.125 0.265625 -0.203125q0.1875 -0.078125 0.5 -0.109375q0.3125 -0.046875 0.78125 -0.046875q0.484375 0 0.796875 0.046875q0.3125 0.03125 0.484375 0.109375q0.1875 0.078125 0.265625 0.203125q0.078125 0.109375 0.078125 0.25l0 17.578125zm0.359375 -23.515625q0 1.125 -0.4375 1.546875q-0.421875 0.40625 -1.5625 0.40625q-1.140625 0 -1.5625 -0.40625q-0.421875 -0.40625 -0.421875 -1.515625q0 -1.125 0.421875 -1.53125q0.4375 -0.421875 1.59375 -0.421875q1.140625 0 1.546875 0.40625q0.421875 0.390625 0.421875 1.515625zm21.945312 14.53125q0 2.140625 -0.578125 3.953125q-0.5625 1.796875 -1.6875 3.109375q-1.125 1.3125 -2.8125 2.046875q-1.6875 0.734375 -3.90625 0.734375q-2.171875 0 -3.78125 -0.640625q-1.609375 -0.65625 -2.6875 -1.875q-1.078125 -1.234375 -1.609375 -2.984375q-0.515625 -1.765625 -0.515625 -4.0q0 -2.140625 0.546875 -3.953125q0.5625 -1.8125 1.6875 -3.109375q1.125 -1.3125 2.796875 -2.03125q1.6875 -0.734375 3.921875 -0.734375q2.171875 0 3.78125 0.65625q1.609375 0.640625 2.6875 1.875q1.078125 1.21875 1.609375 2.984375q0.546875 1.75 0.546875 3.96875zm-3.40625 0.203125q0 -1.421875 -0.265625 -2.6875q-0.265625 -1.265625 -0.875 -2.21875q-0.59375 -0.96875 -1.640625 -1.515625q-1.03125 -0.5625 -2.5625 -0.5625q-1.4375 0 -2.46875 0.515625q-1.015625 0.5 -1.6875 1.4375q-0.65625 0.921875 -0.984375 2.1875q-0.3125 1.265625 -0.3125 2.765625q0 1.453125 0.265625 2.71875q0.265625 1.265625 0.875 2.21875q0.609375 0.953125 1.640625 1.515625q1.046875 0.546875 2.59375 0.546875q1.40625 0 2.4375 -0.5q1.03125 -0.515625 1.6875 -1.4375q0.671875 -0.921875 0.984375 -2.1875q0.3125 -1.265625 0.3125 -2.796875zm23.28125 8.78125q0 0.15625 -0.078125 0.265625q-0.078125 0.09375 -0.25 0.1875q-0.171875 0.078125 -0.484375 0.109375q-0.3125 0.046875 -0.78125 0.046875q-0.5 0 -0.8125 -0.046875q-0.3125 -0.03125 -0.484375 -0.109375q-0.171875 -0.09375 -0.25 -0.1875q-0.078125 -0.109375 -0.078125 -0.265625l0 -10.296875q0 -1.5 -0.234375 -2.421875q-0.234375 -0.921875 -0.6875 -1.578125q-0.453125 -0.671875 -1.171875 -1.015625q-0.703125 -0.359375 -1.640625 -0.359375q-1.203125 0 -2.421875 0.859375q-1.203125 0.859375 -2.53125 2.515625l0 12.296875q0 0.15625 -0.078125 0.265625q-0.078125 0.09375 -0.265625 0.1875q-0.171875 0.078125 -0.484375 0.109375q-0.3125 0.046875 -0.796875 0.046875q-0.46875 0 -0.78125 -0.046875q-0.3125 -0.03125 -0.5 -0.109375q-0.1875 -0.09375 -0.265625 -0.1875q-0.0625 -0.109375 -0.0625 -0.265625l0 -17.578125q0 -0.15625 0.0625 -0.265625q0.0625 -0.109375 0.234375 -0.1875q0.171875 -0.09375 0.4375 -0.125q0.28125 -0.03125 0.734375 -0.03125q0.4375 0 0.71875 0.03125q0.28125 0.03125 0.4375 0.125q0.15625 0.078125 0.21875 0.1875q0.078125 0.109375 0.078125 0.265625l0 2.3125q1.484375 -1.65625 2.953125 -2.421875q1.46875 -0.78125 2.984375 -0.78125q1.75 0 2.953125 0.609375q1.203125 0.59375 1.9375 1.59375q0.75 0.984375 1.0625 2.328125q0.328125 1.328125 0.328125 3.203125l0 10.734375zm19.125 0.015625q0 0.234375 -0.15625 0.359375q-0.15625 0.109375 -0.4375 0.171875q-0.265625 0.0625 -0.796875 0.0625q-0.5 0 -0.8125 -0.0625q-0.296875 -0.0625 -0.4375 -0.171875q-0.140625 -0.125 -0.140625 -0.359375l0 -1.765625q-1.140625 1.234375 -2.5625 1.921875q-1.421875 0.6875 -3.0 0.6875q-1.390625 0 -2.515625 -0.375q-1.109375 -0.359375 -1.90625 -1.03125q-0.796875 -0.6875 -1.234375 -1.6875q-0.4375 -1.0 -0.4375 -2.265625q0 -1.484375 0.609375 -2.578125q0.609375 -1.09375 1.734375 -1.8125q1.140625 -0.71875 2.78125 -1.078125q1.640625 -0.375 3.6875 -0.375l2.421875 0l0 -1.359375q0 -1.015625 -0.21875 -1.796875q-0.21875 -0.78125 -0.703125 -1.296875q-0.46875 -0.515625 -1.234375 -0.78125q-0.75 -0.265625 -1.875 -0.265625q-1.1875 0 -2.140625 0.28125q-0.9375 0.28125 -1.65625 0.625q-0.703125 0.34375 -1.1875 0.625q-0.484375 0.28125 -0.71875 0.28125q-0.15625 0 -0.28125 -0.078125q-0.109375 -0.078125 -0.203125 -0.234375q-0.078125 -0.15625 -0.125 -0.390625q-0.03125 -0.25 -0.03125 -0.546875q0 -0.484375 0.0625 -0.765625q0.078125 -0.28125 0.34375 -0.53125q0.265625 -0.265625 0.90625 -0.609375q0.640625 -0.34375 1.484375 -0.625q0.84375 -0.28125 1.828125 -0.46875q1.0 -0.1875 2.015625 -0.1875q1.890625 0 3.21875 0.4375q1.328125 0.421875 2.140625 1.265625q0.828125 0.828125 1.203125 2.0625q0.375 1.21875 0.375 2.859375l0 11.859375zm-3.203125 -8.03125l-2.75 0q-1.328125 0 -2.3125 0.234375q-0.96875 0.21875 -1.625 0.65625q-0.640625 0.4375 -0.953125 1.0625q-0.296875 0.609375 -0.296875 1.40625q0 1.375 0.875 2.1875q0.875 0.796875 2.4375 0.796875q1.265625 0 2.34375 -0.640625q1.09375 -0.640625 2.28125 -1.96875l0 -3.734375zm12.347656 8.015625q0 0.15625 -0.078125 0.265625q-0.078125 0.09375 -0.265625 0.1875q-0.171875 0.078125 -0.484375 0.109375q-0.3125 0.046875 -0.796875 0.046875q-0.46875 0 -0.78125 -0.046875q-0.3125 -0.03125 -0.5 -0.109375q-0.1875 -0.09375 -0.265625 -0.1875q-0.0625 -0.109375 -0.0625 -0.265625l0 -26.09375q0 -0.15625 0.0625 -0.265625q0.078125 -0.125 0.265625 -0.203125q0.1875 -0.078125 0.5 -0.109375q0.3125 -0.046875 0.78125 -0.046875q0.484375 0 0.796875 0.046875q0.3125 0.03125 0.484375 0.109375q0.1875 0.078125 0.265625 0.203125q0.078125 0.109375 0.078125 0.265625l0 26.09375z" fill-rule="nonzero"/><path fill="#000000" d="m125.22333 208.69691q0 0.078125 -0.015625 0.171875q0 0.078125 -0.03125 0.1875q-0.015625 0.09375 -0.046875 0.21875q-0.03125 0.109375 -0.0625 0.25l-6.0 16.6875q-0.078125 0.21875 -0.203125 0.359375q-0.125 0.140625 -0.390625 0.21875q-0.25 0.078125 -0.640625 0.109375q-0.390625 0.03125 -0.96875 0.03125q-0.59375 0 -0.984375 -0.046875q-0.390625 -0.03125 -0.640625 -0.109375q-0.234375 -0.09375 -0.375 -0.21875q-0.125 -0.140625 -0.203125 -0.34375l-5.984375 -16.6875q-0.078125 -0.234375 -0.125 -0.40625q-0.046875 -0.1875 -0.0625 -0.265625q0 -0.09375 0 -0.15625q0 -0.15625 0.078125 -0.265625q0.078125 -0.125 0.25 -0.1875q0.1875 -0.078125 0.484375 -0.09375q0.3125 -0.015625 0.765625 -0.015625q0.5625 0 0.90625 0.03125q0.34375 0.03125 0.53125 0.109375q0.1875 0.078125 0.265625 0.203125q0.09375 0.109375 0.171875 0.28125l4.953125 14.484375l0.078125 0.234375l0.0625 -0.234375l4.90625 -14.484375q0.03125 -0.171875 0.125 -0.28125q0.109375 -0.125 0.296875 -0.203125q0.1875 -0.078125 0.5 -0.109375q0.328125 -0.03125 0.859375 -0.03125q0.4375 0 0.734375 0.015625q0.296875 0.015625 0.453125 0.09375q0.171875 0.078125 0.234375 0.1875q0.078125 0.109375 0.078125 0.265625zm18.253906 8.0625q0 0.765625 -0.375 1.09375q-0.375 0.3125 -0.875 0.3125l-11.515625 0q0 1.46875 0.28125 2.640625q0.296875 1.171875 0.984375 2.015625q0.6875 0.84375 1.78125 1.296875q1.09375 0.4375 2.671875 0.4375q1.25 0 2.21875 -0.203125q0.984375 -0.203125 1.6875 -0.453125q0.71875 -0.265625 1.171875 -0.46875q0.46875 -0.203125 0.703125 -0.203125q0.140625 0 0.25 0.078125q0.109375 0.0625 0.15625 0.203125q0.0625 0.125 0.09375 0.375q0.03125 0.25 0.03125 0.59375q0 0.25 -0.03125 0.4375q-0.015625 0.1875 -0.046875 0.34375q-0.015625 0.140625 -0.09375 0.265625q-0.0625 0.109375 -0.171875 0.21875q-0.109375 0.109375 -0.640625 0.359375q-0.515625 0.234375 -1.359375 0.46875q-0.84375 0.234375 -1.953125 0.421875q-1.09375 0.1875 -2.34375 0.1875q-2.171875 0 -3.8125 -0.609375q-1.625 -0.609375 -2.734375 -1.796875q-1.109375 -1.1875 -1.6875 -2.984375q-0.5625 -1.796875 -0.5625 -4.1875q0 -2.265625 0.578125 -4.0625q0.59375 -1.8125 1.703125 -3.0625q1.109375 -1.265625 2.671875 -1.9375q1.5625 -0.6875 3.484375 -0.6875q2.078125 0 3.53125 0.671875q1.453125 0.65625 2.390625 1.78125q0.9375 1.125 1.375 2.640625q0.4375 1.515625 0.4375 3.234375l0 0.578125zm-3.234375 -0.953125q0.0625 -2.53125 -1.125 -3.96875q-1.1875 -1.453125 -3.5 -1.453125q-1.203125 0 -2.109375 0.453125q-0.890625 0.4375 -1.5 1.1875q-0.59375 0.734375 -0.9375 1.71875q-0.328125 0.984375 -0.359375 2.0625l9.53125 0zm20.777344 7.828125q0 0.34375 -0.015625 0.59375q-0.015625 0.234375 -0.078125 0.40625q-0.046875 0.15625 -0.109375 0.28125q-0.0625 0.125 -0.3125 0.375q-0.25 0.25 -0.84375 0.609375q-0.578125 0.359375 -1.3125 0.640625q-0.71875 0.28125 -1.578125 0.453125q-0.859375 0.1875 -1.78125 0.1875q-1.890625 0 -3.359375 -0.625q-1.46875 -0.625 -2.453125 -1.828125q-0.984375 -1.203125 -1.5 -2.953125q-0.515625 -1.75 -0.515625 -4.03125q0 -2.59375 0.625 -4.453125q0.640625 -1.875 1.734375 -3.0625q1.109375 -1.203125 2.59375 -1.765625q1.5 -0.578125 3.25 -0.578125q0.828125 0 1.625 0.15625q0.796875 0.15625 1.453125 0.40625q0.671875 0.25 1.1875 0.59375q0.515625 0.328125 0.75 0.5625q0.234375 0.234375 0.3125 0.375q0.09375 0.125 0.15625 0.3125q0.0625 0.1875 0.078125 0.421875q0.015625 0.234375 0.015625 0.578125q0 0.765625 -0.171875 1.078125q-0.171875 0.296875 -0.4375 0.296875q-0.28125 0 -0.671875 -0.3125q-0.375 -0.328125 -0.96875 -0.71875q-0.578125 -0.390625 -1.40625 -0.71875q-0.828125 -0.328125 -1.96875 -0.328125q-2.328125 0 -3.5625 1.796875q-1.234375 1.78125 -1.234375 5.1875q0 1.6875 0.3125 2.96875q0.328125 1.28125 0.953125 2.140625q0.625 0.859375 1.53125 1.28125q0.90625 0.421875 2.078125 0.421875q1.109375 0 1.953125 -0.34375q0.84375 -0.359375 1.453125 -0.78125q0.625 -0.421875 1.03125 -0.765625q0.421875 -0.34375 0.65625 -0.34375q0.140625 0 0.234375 0.078125q0.109375 0.078125 0.171875 0.265625q0.0625 0.1875 0.09375 0.46875q0.03125 0.28125 0.03125 0.671875zm13.4140625 1.390625q0 0.5625 -0.078125 0.90625q-0.078125 0.328125 -0.234375 0.484375q-0.15625 0.15625 -0.46875 0.296875q-0.3125 0.140625 -0.71875 0.21875q-0.390625 0.09375 -0.84375 0.140625q-0.4375 0.0625 -0.890625 0.0625q-1.375 0 -2.359375 -0.359375q-0.96875 -0.359375 -1.59375 -1.09375q-0.625 -0.734375 -0.90625 -1.859375q-0.28125 -1.125 -0.28125 -2.640625l0 -10.28125l-2.453125 0q-0.296875 0 -0.484375 -0.3125q-0.171875 -0.3125 -0.171875 -1.015625q0 -0.359375 0.046875 -0.609375q0.0625 -0.265625 0.140625 -0.421875q0.078125 -0.171875 0.203125 -0.234375q0.125 -0.078125 0.28125 -0.078125l2.4375 0l0 -4.171875q0 -0.140625 0.0625 -0.25q0.078125 -0.125 0.265625 -0.203125q0.1875 -0.09375 0.5 -0.125q0.3125 -0.046875 0.78125 -0.046875q0.484375 0 0.796875 0.046875q0.3125 0.03125 0.484375 0.125q0.171875 0.078125 0.25 0.203125q0.078125 0.109375 0.078125 0.25l0 4.171875l4.515625 0q0.15625 0 0.265625 0.078125q0.125 0.0625 0.203125 0.234375q0.09375 0.15625 0.125 0.421875q0.046875 0.25 0.046875 0.609375q0 0.703125 -0.171875 1.015625q-0.171875 0.3125 -0.46875 0.3125l-4.515625 0l0 9.8125q0 1.8125 0.53125 2.75q0.546875 0.921875 1.9375 0.921875q0.453125 0 0.796875 -0.078125q0.359375 -0.09375 0.625 -0.1875q0.28125 -0.109375 0.46875 -0.1875q0.203125 -0.09375 0.359375 -0.09375q0.09375 0 0.171875 0.046875q0.09375 0.046875 0.140625 0.1875q0.046875 0.140625 0.078125 0.375q0.046875 0.234375 0.046875 0.578125zm20.226562 -7.6875q0 2.140625 -0.578125 3.953125q-0.5625 1.796875 -1.6875 3.109375q-1.125 1.3125 -2.8125 2.046875q-1.6875 0.734375 -3.90625 0.734375q-2.171875 0 -3.78125 -0.640625q-1.609375 -0.65625 -2.6875 -1.875q-1.078125 -1.234375 -1.609375 -2.984375q-0.515625 -1.765625 -0.515625 -4.0q0 -2.140625 0.546875 -3.953125q0.5625 -1.8125 1.6875 -3.109375q1.125 -1.3125 2.796875 -2.03125q1.6875 -0.734375 3.921875 -0.734375q2.171875 0 3.78125 0.65625q1.609375 0.640625 2.6875 1.875q1.078125 1.21875 1.609375 2.984375q0.546875 1.75 0.546875 3.96875zm-3.40625 0.203125q0 -1.421875 -0.265625 -2.6875q-0.265625 -1.265625 -0.875 -2.21875q-0.59375 -0.96875 -1.640625 -1.515625q-1.03125 -0.5625 -2.5625 -0.5625q-1.4375 0 -2.46875 0.515625q-1.015625 0.5 -1.6875 1.4375q-0.65625 0.921875 -0.984375 2.1875q-0.3125 1.265625 -0.3125 2.765625q0 1.453125 0.265625 2.71875q0.265625 1.265625 0.875 2.21875q0.609375 0.953125 1.640625 1.515625q1.046875 0.546875 2.59375 0.546875q1.40625 0 2.4375 -0.5q1.03125 -0.515625 1.6875 -1.4375q0.671875 -0.921875 0.984375 -2.1875q0.3125 -1.265625 0.3125 -2.796875zm18.421875 -7.65625q0 0.4375 -0.03125 0.734375q-0.015625 0.28125 -0.078125 0.453125q-0.046875 0.171875 -0.140625 0.265625q-0.078125 0.078125 -0.234375 0.078125q-0.15625 0 -0.390625 -0.078125q-0.21875 -0.09375 -0.5 -0.1875q-0.28125 -0.09375 -0.640625 -0.171875q-0.34375 -0.078125 -0.765625 -0.078125q-0.484375 0 -0.953125 0.203125q-0.46875 0.1875 -0.984375 0.640625q-0.515625 0.453125 -1.09375 1.203125q-0.5625 0.734375 -1.234375 1.8125l0 11.5625q0 0.15625 -0.078125 0.265625q-0.078125 0.09375 -0.265625 0.1875q-0.171875 0.078125 -0.484375 0.109375q-0.3125 0.046875 -0.796875 0.046875q-0.46875 0 -0.78125 -0.046875q-0.3125 -0.03125 -0.5 -0.109375q-0.1875 -0.09375 -0.265625 -0.1875q-0.0625 -0.109375 -0.0625 -0.265625l0 -17.578125q0 -0.15625 0.0625 -0.265625q0.0625 -0.109375 0.234375 -0.1875q0.171875 -0.09375 0.4375 -0.125q0.28125 -0.03125 0.734375 -0.03125q0.4375 0 0.71875 0.03125q0.28125 0.03125 0.4375 0.125q0.15625 0.078125 0.21875 0.1875q0.078125 0.109375 0.078125 0.265625l0 2.546875q0.71875 -1.046875 1.34375 -1.703125q0.640625 -0.671875 1.203125 -1.046875q0.578125 -0.390625 1.125 -0.53125q0.5625 -0.15625 1.125 -0.15625q0.25 0 0.578125 0.03125q0.328125 0.03125 0.671875 0.109375q0.359375 0.078125 0.640625 0.1875q0.28125 0.09375 0.390625 0.1875q0.125 0.09375 0.15625 0.1875q0.046875 0.078125 0.078125 0.21875q0.03125 0.140625 0.03125 0.40625q0.015625 0.265625 0.015625 0.703125z" fill-rule="nonzero"/><path fill="#000000" fill-opacity="0.0" d="m905.2966 143.50867l318.17328 0l0 124.0l-318.17328 0z" fill-rule="evenodd"/><path fill="#000000" d="m942.80505 189.43991q0 0.390625 -0.046875 0.65625q-0.03125 0.265625 -0.125 0.453125q-0.078125 0.1875 -0.21875 0.28125q-0.125 0.078125 -0.296875 0.078125l-11.171875 0q-0.453125 0 -0.859375 -0.296875q-0.390625 -0.3125 -0.390625 -1.078125l0 -23.390625q0 -0.15625 0.078125 -0.265625q0.078125 -0.125 0.265625 -0.1875q0.203125 -0.078125 0.53125 -0.125q0.34375 -0.046875 0.8125 -0.046875q0.484375 0 0.796875 0.046875q0.328125 0.046875 0.515625 0.125q0.203125 0.0625 0.28125 0.1875q0.078125 0.109375 0.078125 0.265625l0 21.859375l9.0625 0q0.171875 0 0.296875 0.09375q0.140625 0.078125 0.21875 0.25q0.09375 0.15625 0.125 0.4375q0.046875 0.265625 0.046875 0.65625zm19.691406 -8.0q0 2.140625 -0.578125 3.953125q-0.5625 1.796875 -1.6875 3.109375q-1.125 1.3125 -2.8125 2.046875q-1.6875 0.734375 -3.90625 0.734375q-2.171875 0 -3.78125 -0.640625q-1.609375 -0.65625 -2.6875 -1.875q-1.078125 -1.234375 -1.609375 -2.984375q-0.515625 -1.765625 -0.515625 -4.0q0 -2.140625 0.546875 -3.953125q0.5625 -1.8125 1.6875 -3.109375q1.125 -1.3125 2.796875 -2.03125q1.6875 -0.734375 3.921875 -0.734375q2.171875 0 3.78125 0.65625q1.609375 0.640625 2.6875 1.875q1.078125 1.21875 1.609375 2.984375q0.546875 1.75 0.546875 3.96875zm-3.40625 0.203125q0 -1.421875 -0.265625 -2.6875q-0.265625 -1.265625 -0.875 -2.21875q-0.59375 -0.96875 -1.640625 -1.515625q-1.03125 -0.5625 -2.5625 -0.5625q-1.4375 0 -2.46875 0.515625q-1.015625 0.5 -1.6875 1.4375q-0.65625 0.921875 -0.984375 2.1875q-0.3125 1.265625 -0.3125 2.765625q0 1.453125 0.265625 2.71875q0.265625 1.265625 0.875 2.21875q0.609375 0.953125 1.640625 1.515625q1.046875 0.546875 2.59375 0.546875q1.40625 0 2.4375 -0.5q1.03125 -0.515625 1.6875 -1.4375q0.671875 -0.921875 0.984375 -2.1875q0.3125 -1.265625 0.3125 -2.796875zm32.578125 -8.84375q0 0.140625 -0.046875 0.34375q-0.03125 0.1875 -0.125 0.484375l-5.171875 16.6875q-0.0625 0.21875 -0.1875 0.359375q-0.125 0.140625 -0.359375 0.21875q-0.21875 0.078125 -0.609375 0.109375q-0.390625 0.03125 -0.984375 0.03125q-0.59375 0 -1.015625 -0.046875q-0.40625 -0.03125 -0.65625 -0.109375q-0.234375 -0.09375 -0.359375 -0.21875q-0.109375 -0.140625 -0.171875 -0.34375l-3.6875 -12.75l-0.046875 -0.171875l-0.03125 0.171875l-3.421875 12.75q-0.0625 0.21875 -0.1875 0.359375q-0.125 0.140625 -0.375 0.21875q-0.25 0.078125 -0.65625 0.109375q-0.40625 0.03125 -0.984375 0.03125q-0.609375 0 -1.0 -0.046875q-0.375 -0.03125 -0.625 -0.109375q-0.234375 -0.09375 -0.359375 -0.21875q-0.109375 -0.140625 -0.171875 -0.34375l-5.125 -16.6875q-0.109375 -0.296875 -0.15625 -0.484375q-0.03125 -0.203125 -0.03125 -0.34375q0 -0.171875 0.078125 -0.28125q0.078125 -0.109375 0.265625 -0.171875q0.1875 -0.078125 0.5 -0.09375q0.3125 -0.015625 0.765625 -0.015625q0.546875 0 0.875 0.03125q0.328125 0.03125 0.5 0.09375q0.1875 0.0625 0.265625 0.203125q0.078125 0.125 0.140625 0.296875l4.234375 14.484375l0.03125 0.1875l0.046875 -0.1875l3.890625 -14.484375q0.03125 -0.171875 0.109375 -0.296875q0.09375 -0.140625 0.265625 -0.203125q0.1875 -0.0625 0.484375 -0.09375q0.3125 -0.03125 0.796875 -0.03125q0.46875 0 0.765625 0.03125q0.3125 0.03125 0.484375 0.09375q0.171875 0.0625 0.25 0.1875q0.078125 0.109375 0.125 0.265625l4.1875 14.53125l0.046875 0.1875l0.015625 -0.1875l4.1875 -14.484375q0.03125 -0.171875 0.109375 -0.296875q0.09375 -0.140625 0.28125 -0.203125q0.1875 -0.0625 0.5 -0.09375q0.328125 -0.03125 0.84375 -0.03125q0.46875 0 0.75 0.015625q0.28125 0.015625 0.4375 0.09375q0.171875 0.078125 0.234375 0.1875q0.078125 0.09375 0.078125 0.265625zm11.082031 8.25q0 0.75 -0.1875 1.046875q-0.171875 0.296875 -0.5 0.296875l-8.171875 0q-0.34375 0 -0.53125 -0.296875q-0.171875 -0.3125 -0.171875 -1.046875q0 -0.75 0.171875 -1.03125q0.1875 -0.296875 0.53125 -0.296875l8.171875 0q0.15625 0 0.28125 0.0625q0.125 0.046875 0.203125 0.21875q0.09375 0.15625 0.140625 0.421875q0.0625 0.25 0.0625 0.625zm19.386719 9.375q0 0.15625 -0.078125 0.28125q-0.0625 0.109375 -0.234375 0.1875q-0.15625 0.0625 -0.4375 0.09375q-0.265625 0.046875 -0.65625 0.046875q-0.40625 0 -0.6875 -0.046875q-0.265625 -0.03125 -0.453125 -0.09375q-0.171875 -0.078125 -0.25 -0.1875q-0.078125 -0.125 -0.078125 -0.28125l0 -2.328125q-1.375 1.5 -2.875 2.34375q-1.5 0.84375 -3.265625 0.84375q-1.9375 0 -3.3125 -0.75q-1.359375 -0.765625 -2.21875 -2.03125q-0.84375 -1.28125 -1.234375 -3.015625q-0.390625 -1.734375 -0.390625 -3.640625q0 -2.265625 0.484375 -4.09375q0.5 -1.828125 1.453125 -3.109375q0.953125 -1.296875 2.359375 -1.984375q1.421875 -0.703125 3.28125 -0.703125q1.546875 0 2.828125 0.6875q1.28125 0.671875 2.53125 1.96875l0 -10.203125q0 -0.140625 0.0625 -0.265625q0.0625 -0.125 0.25 -0.1875q0.203125 -0.078125 0.5 -0.125q0.3125 -0.046875 0.78125 -0.046875q0.484375 0 0.796875 0.046875q0.3125 0.046875 0.484375 0.125q0.1875 0.0625 0.265625 0.1875q0.09375 0.125 0.09375 0.265625l0 26.015625zm-3.234375 -12.375q-1.3125 -1.609375 -2.53125 -2.453125q-1.21875 -0.859375 -2.546875 -0.859375q-1.234375 0 -2.09375 0.59375q-0.859375 0.578125 -1.40625 1.53125q-0.53125 0.953125 -0.78125 2.171875q-0.234375 1.203125 -0.234375 2.453125q0 1.328125 0.203125 2.609375q0.203125 1.265625 0.703125 2.25q0.515625 0.984375 1.359375 1.578125q0.84375 0.59375 2.109375 0.59375q0.640625 0 1.234375 -0.171875q0.59375 -0.171875 1.21875 -0.578125q0.625 -0.421875 1.3125 -1.0625q0.6875 -0.65625 1.453125 -1.625l0 -7.03125zm12.421875 12.375q0 0.15625 -0.078125 0.265625q-0.078125 0.09375 -0.265625 0.1875q-0.171875 0.078125 -0.484375 0.109375q-0.3125 0.046875 -0.796875 0.046875q-0.46875 0 -0.78125 -0.046875q-0.3125 -0.03125 -0.5 -0.109375q-0.1875 -0.09375 -0.265625 -0.1875q-0.0625 -0.109375 -0.0625 -0.265625l0 -17.578125q0 -0.140625 0.0625 -0.25q0.078125 -0.125 0.265625 -0.203125q0.1875 -0.078125 0.5 -0.109375q0.3125 -0.046875 0.78125 -0.046875q0.484375 0 0.796875 0.046875q0.3125 0.03125 0.484375 0.109375q0.1875 0.078125 0.265625 0.203125q0.078125 0.109375 0.078125 0.25l0 17.578125zm0.359375 -23.515625q0 1.125 -0.4375 1.546875q-0.421875 0.40625 -1.5625 0.40625q-1.140625 0 -1.5625 -0.40625q-0.421875 -0.40625 -0.421875 -1.515625q0 -1.125 0.421875 -1.53125q0.4375 -0.421875 1.59375 -0.421875q1.140625 0 1.546875 0.40625q0.421875 0.390625 0.421875 1.515625zm31.664062 23.515625q0 0.15625 -0.078125 0.265625q-0.078125 0.09375 -0.25 0.1875q-0.171875 0.078125 -0.484375 0.109375q-0.3125 0.046875 -0.78125 0.046875q-0.5 0 -0.8125 -0.046875q-0.3125 -0.03125 -0.5 -0.109375q-0.171875 -0.09375 -0.25 -0.1875q-0.078125 -0.109375 -0.078125 -0.265625l0 -10.6875q0 -1.109375 -0.203125 -2.03125q-0.1875 -0.921875 -0.625 -1.578125q-0.421875 -0.671875 -1.09375 -1.015625q-0.65625 -0.359375 -1.5625 -0.359375q-1.109375 0 -2.234375 0.859375q-1.125 0.859375 -2.46875 2.515625l0 12.296875q0 0.15625 -0.078125 0.265625q-0.078125 0.09375 -0.265625 0.1875q-0.1875 0.078125 -0.5 0.109375q-0.3125 0.046875 -0.78125 0.046875q-0.453125 0 -0.78125 -0.046875q-0.3125 -0.03125 -0.5 -0.109375q-0.1875 -0.09375 -0.25 -0.1875q-0.0625 -0.109375 -0.0625 -0.265625l0 -10.6875q0 -1.109375 -0.21875 -2.03125q-0.21875 -0.921875 -0.65625 -1.578125q-0.421875 -0.671875 -1.078125 -1.015625q-0.65625 -0.359375 -1.546875 -0.359375q-1.109375 0 -2.25 0.859375q-1.125 0.859375 -2.453125 2.515625l0 12.296875q0 0.15625 -0.078125 0.265625q-0.078125 0.09375 -0.265625 0.1875q-0.171875 0.078125 -0.484375 0.109375q-0.3125 0.046875 -0.796875 0.046875q-0.46875 0 -0.78125 -0.046875q-0.3125 -0.03125 -0.5 -0.109375q-0.1875 -0.09375 -0.265625 -0.1875q-0.0625 -0.109375 -0.0625 -0.265625l0 -17.578125q0 -0.15625 0.0625 -0.265625q0.0625 -0.109375 0.234375 -0.1875q0.171875 -0.09375 0.4375 -0.125q0.28125 -0.03125 0.734375 -0.03125q0.4375 0 0.71875 0.03125q0.28125 0.03125 0.4375 0.125q0.15625 0.078125 0.21875 0.1875q0.078125 0.109375 0.078125 0.265625l0 2.3125q1.484375 -1.65625 2.875 -2.421875q1.390625 -0.78125 2.828125 -0.78125q1.09375 0 1.953125 0.265625q0.875 0.25 1.53125 0.71875q0.671875 0.453125 1.140625 1.09375q0.46875 0.625 0.78125 1.40625q0.875 -0.953125 1.65625 -1.609375q0.796875 -0.671875 1.53125 -1.078125q0.734375 -0.421875 1.421875 -0.609375q0.703125 -0.1875 1.40625 -0.1875q1.703125 0 2.84375 0.609375q1.15625 0.59375 1.859375 1.59375q0.71875 0.984375 1.015625 2.328125q0.3125 1.328125 0.3125 2.8125l0 11.125zm20.875 -9.5625q0 0.765625 -0.375 1.09375q-0.375 0.3125 -0.875 0.3125l-11.515625 0q0 1.46875 0.28125 2.640625q0.296875 1.171875 0.984375 2.015625q0.6875 0.84375 1.78125 1.296875q1.09375 0.4375 2.671875 0.4375q1.25 0 2.21875 -0.203125q0.984375 -0.203125 1.6875 -0.453125q0.71875 -0.265625 1.171875 -0.46875q0.46875 -0.203125 0.703125 -0.203125q0.140625 0 0.25 0.078125q0.109375 0.0625 0.15625 0.203125q0.0625 0.125 0.09375 0.375q0.03125 0.25 0.03125 0.59375q0 0.25 -0.03125 0.4375q-0.015625 0.1875 -0.046875 0.34375q-0.015625 0.140625 -0.09375 0.265625q-0.0625 0.109375 -0.171875 0.21875q-0.109375 0.109375 -0.640625 0.359375q-0.515625 0.234375 -1.359375 0.46875q-0.84375 0.234375 -1.953125 0.421875q-1.09375 0.1875 -2.34375 0.1875q-2.171875 0 -3.8125 -0.609375q-1.625 -0.609375 -2.734375 -1.796875q-1.109375 -1.1875 -1.6875 -2.984375q-0.5625 -1.796875 -0.5625 -4.1875q0 -2.265625 0.578125 -4.0625q0.59375 -1.8125 1.703125 -3.0625q1.109375 -1.265625 2.671875 -1.9375q1.5625 -0.6875 3.484375 -0.6875q2.078125 0 3.53125 0.671875q1.453125 0.65625 2.390625 1.78125q0.9375 1.125 1.375 2.640625q0.4375 1.515625 0.4375 3.234375l0 0.578125zm-3.234375 -0.953125q0.0625 -2.53125 -1.125 -3.96875q-1.1875 -1.453125 -3.5 -1.453125q-1.203125 0 -2.109375 0.453125q-0.890625 0.4375 -1.5 1.1875q-0.59375 0.734375 -0.9375 1.71875q-0.328125 0.984375 -0.359375 2.0625l9.53125 0zm23.277344 10.515625q0 0.15625 -0.078125 0.265625q-0.078125 0.09375 -0.25 0.1875q-0.171875 0.078125 -0.484375 0.109375q-0.3125 0.046875 -0.78125 0.046875q-0.5 0 -0.8125 -0.046875q-0.3125 -0.03125 -0.484375 -0.109375q-0.171875 -0.09375 -0.25 -0.1875q-0.078125 -0.109375 -0.078125 -0.265625l0 -10.296875q0 -1.5 -0.234375 -2.421875q-0.234375 -0.921875 -0.6875 -1.578125q-0.453125 -0.671875 -1.171875 -1.015625q-0.703125 -0.359375 -1.640625 -0.359375q-1.203125 0 -2.421875 0.859375q-1.203125 0.859375 -2.53125 2.515625l0 12.296875q0 0.15625 -0.078125 0.265625q-0.078125 0.09375 -0.265625 0.1875q-0.171875 0.078125 -0.484375 0.109375q-0.3125 0.046875 -0.796875 0.046875q-0.46875 0 -0.78125 -0.046875q-0.3125 -0.03125 -0.5 -0.109375q-0.1875 -0.09375 -0.265625 -0.1875q-0.0625 -0.109375 -0.0625 -0.265625l0 -17.578125q0 -0.15625 0.0625 -0.265625q0.0625 -0.109375 0.234375 -0.1875q0.171875 -0.09375 0.4375 -0.125q0.28125 -0.03125 0.734375 -0.03125q0.4375 0 0.71875 0.03125q0.28125 0.03125 0.4375 0.125q0.15625 0.078125 0.21875 0.1875q0.078125 0.109375 0.078125 0.265625l0 2.3125q1.484375 -1.65625 2.953125 -2.421875q1.46875 -0.78125 2.984375 -0.78125q1.75 0 2.953125 0.609375q1.203125 0.59375 1.9375 1.59375q0.75 0.984375 1.0625 2.328125q0.328125 1.328125 0.328125 3.203125l0 10.734375zm16.921875 -4.796875q0 1.359375 -0.5 2.421875q-0.5 1.046875 -1.421875 1.765625q-0.921875 0.71875 -2.1875 1.09375q-1.265625 0.375 -2.796875 0.375q-0.9375 0 -1.78125 -0.15625q-0.84375 -0.140625 -1.53125 -0.359375q-0.671875 -0.234375 -1.140625 -0.46875q-0.46875 -0.25 -0.6875 -0.4375q-0.203125 -0.203125 -0.3125 -0.546875q-0.09375 -0.359375 -0.09375 -0.96875q0 -0.375 0.03125 -0.625q0.046875 -0.25 0.109375 -0.40625q0.0625 -0.15625 0.171875 -0.21875q0.109375 -0.078125 0.234375 -0.078125q0.21875 0 0.640625 0.265625q0.421875 0.265625 1.03125 0.578125q0.625 0.3125 1.453125 0.578125q0.84375 0.265625 1.9375 0.265625q0.828125 0 1.484375 -0.171875q0.671875 -0.1875 1.15625 -0.53125q0.484375 -0.34375 0.75 -0.859375q0.265625 -0.53125 0.265625 -1.25q0 -0.75 -0.390625 -1.25q-0.375 -0.515625 -1.0 -0.90625q-0.625 -0.390625 -1.40625 -0.6875q-0.78125 -0.3125 -1.609375 -0.640625q-0.828125 -0.328125 -1.625 -0.75q-0.78125 -0.421875 -1.40625 -1.015625q-0.625 -0.609375 -1.015625 -1.453125q-0.375 -0.84375 -0.375 -2.015625q0 -1.03125 0.390625 -1.96875q0.40625 -0.953125 1.203125 -1.671875q0.8125 -0.71875 2.0 -1.140625q1.203125 -0.4375 2.8125 -0.4375q0.703125 0 1.40625 0.125q0.703125 0.109375 1.265625 0.296875q0.5625 0.171875 0.96875 0.375q0.40625 0.203125 0.609375 0.359375q0.203125 0.15625 0.265625 0.28125q0.078125 0.109375 0.09375 0.265625q0.03125 0.140625 0.0625 0.359375q0.03125 0.203125 0.03125 0.515625q0 0.34375 -0.03125 0.59375q-0.03125 0.234375 -0.09375 0.390625q-0.0625 0.15625 -0.171875 0.234375q-0.09375 0.0625 -0.203125 0.0625q-0.1875 0 -0.515625 -0.21875q-0.328125 -0.21875 -0.859375 -0.453125q-0.53125 -0.25 -1.25 -0.46875q-0.703125 -0.21875 -1.625 -0.21875q-0.8125 0 -1.4375 0.1875q-0.625 0.1875 -1.03125 0.53125q-0.390625 0.34375 -0.609375 0.8125q-0.203125 0.46875 -0.203125 1.015625q0 0.765625 0.390625 1.28125q0.390625 0.515625 1.015625 0.90625q0.625 0.390625 1.421875 0.703125q0.8125 0.3125 1.640625 0.640625q0.828125 0.328125 1.640625 0.75q0.8125 0.40625 1.4375 1.0q0.625 0.578125 1.0 1.40625q0.390625 0.8125 0.390625 1.9375zm7.8320312 4.796875q0 0.15625 -0.078125 0.265625q-0.078125 0.09375 -0.265625 0.1875q-0.171875 0.078125 -0.484375 0.109375q-0.3125 0.046875 -0.796875 0.046875q-0.46875 0 -0.78125 -0.046875q-0.3125 -0.03125 -0.5 -0.109375q-0.1875 -0.09375 -0.265625 -0.1875q-0.0625 -0.109375 -0.0625 -0.265625l0 -17.578125q0 -0.140625 0.0625 -0.25q0.078125 -0.125 0.265625 -0.203125q0.1875 -0.078125 0.5 -0.109375q0.3125 -0.046875 0.78125 -0.046875q0.484375 0 0.796875 0.046875q0.3125 0.03125 0.484375 0.109375q0.1875 0.078125 0.265625 0.203125q0.078125 0.109375 0.078125 0.25l0 17.578125zm0.359375 -23.515625q0 1.125 -0.4375 1.546875q-0.421875 0.40625 -1.5625 0.40625q-1.140625 0 -1.5625 -0.40625q-0.421875 -0.40625 -0.421875 -1.515625q0 -1.125 0.421875 -1.53125q0.4375 -0.421875 1.59375 -0.421875q1.140625 0 1.546875 0.40625q0.421875 0.390625 0.421875 1.515625zm21.945312 14.53125q0 2.140625 -0.578125 3.953125q-0.5625 1.796875 -1.6875 3.109375q-1.125 1.3125 -2.8125 2.046875q-1.6875 0.734375 -3.90625 0.734375q-2.171875 0 -3.78125 -0.640625q-1.609375 -0.65625 -2.6875 -1.875q-1.078125 -1.234375 -1.609375 -2.984375q-0.515625 -1.765625 -0.515625 -4.0q0 -2.140625 0.546875 -3.953125q0.5625 -1.8125 1.6875 -3.109375q1.125 -1.3125 2.796875 -2.03125q1.6875 -0.734375 3.921875 -0.734375q2.171875 0 3.78125 0.65625q1.609375 0.640625 2.6875 1.875q1.078125 1.21875 1.609375 2.984375q0.546875 1.75 0.546875 3.96875zm-3.40625 0.203125q0 -1.421875 -0.265625 -2.6875q-0.265625 -1.265625 -0.875 -2.21875q-0.59375 -0.96875 -1.640625 -1.515625q-1.03125 -0.5625 -2.5625 -0.5625q-1.4375 0 -2.46875 0.515625q-1.015625 0.5 -1.6875 1.4375q-0.65625 0.921875 -0.984375 2.1875q-0.3125 1.265625 -0.3125 2.765625q0 1.453125 0.265625 2.71875q0.265625 1.265625 0.875 2.21875q0.609375 0.953125 1.640625 1.515625q1.046875 0.546875 2.59375 0.546875q1.40625 0 2.4375 -0.5q1.03125 -0.515625 1.6875 -1.4375q0.671875 -0.921875 0.984375 -2.1875q0.3125 -1.265625 0.3125 -2.796875zm23.28125 8.78125q0 0.15625 -0.078125 0.265625q-0.078125 0.09375 -0.25 0.1875q-0.171875 0.078125 -0.484375 0.109375q-0.3125 0.046875 -0.78125 0.046875q-0.5 0 -0.8125 -0.046875q-0.3125 -0.03125 -0.484375 -0.109375q-0.171875 -0.09375 -0.25 -0.1875q-0.078125 -0.109375 -0.078125 -0.265625l0 -10.296875q0 -1.5 -0.234375 -2.421875q-0.234375 -0.921875 -0.6875 -1.578125q-0.453125 -0.671875 -1.171875 -1.015625q-0.703125 -0.359375 -1.640625 -0.359375q-1.203125 0 -2.421875 0.859375q-1.203125 0.859375 -2.53125 2.515625l0 12.296875q0 0.15625 -0.078125 0.265625q-0.078125 0.09375 -0.265625 0.1875q-0.171875 0.078125 -0.484375 0.109375q-0.3125 0.046875 -0.796875 0.046875q-0.46875 0 -0.78125 -0.046875q-0.3125 -0.03125 -0.5 -0.109375q-0.1875 -0.09375 -0.265625 -0.1875q-0.0625 -0.109375 -0.0625 -0.265625l0 -17.578125q0 -0.15625 0.0625 -0.265625q0.0625 -0.109375 0.234375 -0.1875q0.171875 -0.09375 0.4375 -0.125q0.28125 -0.03125 0.734375 -0.03125q0.4375 0 0.71875 0.03125q0.28125 0.03125 0.4375 0.125q0.15625 0.078125 0.21875 0.1875q0.078125 0.109375 0.078125 0.265625l0 2.3125q1.484375 -1.65625 2.953125 -2.421875q1.46875 -0.78125 2.984375 -0.78125q1.75 0 2.953125 0.609375q1.203125 0.59375 1.9375 1.59375q0.75 0.984375 1.0625 2.328125q0.328125 1.328125 0.328125 3.203125l0 10.734375zm19.125 0.015625q0 0.234375 -0.15625 0.359375q-0.15625 0.109375 -0.4375 0.171875q-0.265625 0.0625 -0.796875 0.0625q-0.5 0 -0.8125 -0.0625q-0.296875 -0.0625 -0.4375 -0.171875q-0.140625 -0.125 -0.140625 -0.359375l0 -1.765625q-1.140625 1.234375 -2.5625 1.921875q-1.421875 0.6875 -3.0 0.6875q-1.390625 0 -2.515625 -0.375q-1.109375 -0.359375 -1.90625 -1.03125q-0.796875 -0.6875 -1.234375 -1.6875q-0.4375 -1.0 -0.4375 -2.265625q0 -1.484375 0.609375 -2.578125q0.609375 -1.09375 1.734375 -1.8125q1.140625 -0.71875 2.78125 -1.078125q1.640625 -0.375 3.6875 -0.375l2.421875 0l0 -1.359375q0 -1.015625 -0.21875 -1.796875q-0.21875 -0.78125 -0.703125 -1.296875q-0.46875 -0.515625 -1.234375 -0.78125q-0.75 -0.265625 -1.875 -0.265625q-1.1875 0 -2.140625 0.28125q-0.9375 0.28125 -1.65625 0.625q-0.703125 0.34375 -1.1875 0.625q-0.484375 0.28125 -0.71875 0.28125q-0.15625 0 -0.28125 -0.078125q-0.109375 -0.078125 -0.203125 -0.234375q-0.078125 -0.15625 -0.125 -0.390625q-0.03125 -0.25 -0.03125 -0.546875q0 -0.484375 0.0625 -0.765625q0.078125 -0.28125 0.34375 -0.53125q0.265625 -0.265625 0.90625 -0.609375q0.640625 -0.34375 1.484375 -0.625q0.84375 -0.28125 1.828125 -0.46875q1.0 -0.1875 2.015625 -0.1875q1.890625 0 3.21875 0.4375q1.328125 0.421875 2.140625 1.265625q0.828125 0.828125 1.203125 2.0625q0.375 1.21875 0.375 2.859375l0 11.859375zm-3.203125 -8.03125l-2.75 0q-1.328125 0 -2.3125 0.234375q-0.96875 0.21875 -1.625 0.65625q-0.640625 0.4375 -0.953125 1.0625q-0.296875 0.609375 -0.296875 1.40625q0 1.375 0.875 2.1875q0.875 0.796875 2.4375 0.796875q1.265625 0 2.34375 -0.640625q1.09375 -0.640625 2.28125 -1.96875l0 -3.734375zm12.347656 8.015625q0 0.15625 -0.078125 0.265625q-0.078125 0.09375 -0.265625 0.1875q-0.171875 0.078125 -0.484375 0.109375q-0.3125 0.046875 -0.796875 0.046875q-0.46875 0 -0.78125 -0.046875q-0.3125 -0.03125 -0.5 -0.109375q-0.1875 -0.09375 -0.265625 -0.1875q-0.0625 -0.109375 -0.0625 -0.265625l0 -26.09375q0 -0.15625 0.0625 -0.265625q0.078125 -0.125 0.265625 -0.203125q0.1875 -0.078125 0.5 -0.109375q0.3125 -0.046875 0.78125 -0.046875q0.484375 0 0.796875 0.046875q0.3125 0.03125 0.484375 0.109375q0.1875 0.078125 0.265625 0.203125q0.078125 0.109375 0.078125 0.265625l0 26.09375z" fill-rule="nonzero"/><path fill="#000000" d="m1030.5199 220.79929q0 0.078125 -0.015625 0.171875q0 0.078125 -0.03125 0.1875q-0.015625 0.09375 -0.046875 0.21875q-0.03125 0.109375 -0.0625 0.25l-6.0 16.6875q-0.078125 0.21875 -0.203125 0.359375q-0.125 0.140625 -0.390625 0.21875q-0.25 0.078125 -0.640625 0.109375q-0.390625 0.03125 -0.96875 0.03125q-0.59375 0 -0.984375 -0.046875q-0.390625 -0.03125 -0.640625 -0.109375q-0.234375 -0.09375 -0.375 -0.21875q-0.125 -0.140625 -0.203125 -0.34375l-5.984375 -16.6875q-0.078125 -0.234375 -0.125 -0.40625q-0.046875 -0.1875 -0.0625 -0.265625q0 -0.09375 0 -0.15625q0 -0.15625 0.078125 -0.265625q0.078125 -0.125 0.25 -0.1875q0.1875 -0.078125 0.484375 -0.09375q0.3125 -0.015625 0.765625 -0.015625q0.5625 0 0.90625 0.03125q0.34375 0.03125 0.53125 0.109375q0.1875 0.078125 0.265625 0.203125q0.09375 0.109375 0.171875 0.28125l4.953125 14.484375l0.078125 0.234375l0.0625 -0.234375l4.90625 -14.484375q0.03125 -0.171875 0.125 -0.28125q0.109375 -0.125 0.296875 -0.203125q0.1875 -0.078125 0.5 -0.109375q0.328125 -0.03125 0.859375 -0.03125q0.4375 0 0.734375 0.015625q0.296875 0.015625 0.453125 0.09375q0.171875 0.078125 0.234375 0.1875q0.078125 0.109375 0.078125 0.265625zm18.253906 8.0625q0 0.765625 -0.375 1.09375q-0.375 0.3125 -0.875 0.3125l-11.515625 0q0 1.46875 0.28125 2.640625q0.296875 1.171875 0.984375 2.015625q0.6875 0.84375 1.78125 1.296875q1.09375 0.4375 2.671875 0.4375q1.25 0 2.21875 -0.203125q0.984375 -0.203125 1.6875 -0.453125q0.71875 -0.265625 1.171875 -0.46875q0.46875 -0.203125 0.703125 -0.203125q0.140625 0 0.25 0.078125q0.109375 0.0625 0.15625 0.203125q0.0625 0.125 0.09375 0.375q0.03125 0.25 0.03125 0.59375q0 0.25 -0.03125 0.4375q-0.015625 0.1875 -0.046875 0.34375q-0.015625 0.140625 -0.09375 0.265625q-0.0625 0.109375 -0.171875 0.21875q-0.109375 0.109375 -0.640625 0.359375q-0.515625 0.234375 -1.359375 0.46875q-0.84375 0.234375 -1.953125 0.421875q-1.09375 0.1875 -2.34375 0.1875q-2.171875 0 -3.8125 -0.609375q-1.625 -0.609375 -2.734375 -1.796875q-1.109375 -1.1875 -1.6875 -2.984375q-0.5625 -1.796875 -0.5625 -4.1875q0 -2.265625 0.578125 -4.0625q0.59375 -1.8125 1.703125 -3.0625q1.109375 -1.265625 2.671875 -1.9375q1.5625 -0.6875 3.484375 -0.6875q2.078125 0 3.53125 0.671875q1.453125 0.65625 2.390625 1.78125q0.9375 1.125 1.375 2.640625q0.4375 1.515625 0.4375 3.234375l0 0.578125zm-3.234375 -0.953125q0.0625 -2.53125 -1.125 -3.96875q-1.1875 -1.453125 -3.5 -1.453125q-1.203125 0 -2.109375 0.453125q-0.890625 0.4375 -1.5 1.1875q-0.59375 0.734375 -0.9375 1.71875q-0.328125 0.984375 -0.359375 2.0625l9.53125 0zm20.777344 7.828125q0 0.34375 -0.015625 0.59375q-0.015625 0.234375 -0.078125 0.40625q-0.046875 0.15625 -0.109375 0.28125q-0.0625 0.125 -0.3125 0.375q-0.25 0.25 -0.84375 0.609375q-0.578125 0.359375 -1.3125 0.640625q-0.71875 0.28125 -1.578125 0.453125q-0.859375 0.1875 -1.78125 0.1875q-1.890625 0 -3.359375 -0.625q-1.46875 -0.625 -2.453125 -1.828125q-0.984375 -1.203125 -1.5 -2.953125q-0.515625 -1.75 -0.515625 -4.03125q0 -2.59375 0.625 -4.453125q0.640625 -1.875 1.734375 -3.0625q1.109375 -1.203125 2.59375 -1.765625q1.5 -0.578125 3.25 -0.578125q0.828125 0 1.625 0.15625q0.796875 0.15625 1.453125 0.40625q0.671875 0.25 1.1875 0.59375q0.515625 0.328125 0.75 0.5625q0.234375 0.234375 0.3125 0.375q0.09375 0.125 0.15625 0.3125q0.0625 0.1875 0.078125 0.421875q0.015625 0.234375 0.015625 0.578125q0 0.765625 -0.171875 1.078125q-0.171875 0.296875 -0.4375 0.296875q-0.28125 0 -0.671875 -0.3125q-0.375 -0.328125 -0.96875 -0.71875q-0.578125 -0.390625 -1.40625 -0.71875q-0.828125 -0.328125 -1.96875 -0.328125q-2.328125 0 -3.5625 1.796875q-1.234375 1.78125 -1.234375 5.1875q0 1.6875 0.3125 2.96875q0.328125 1.28125 0.953125 2.140625q0.625 0.859375 1.53125 1.28125q0.90625 0.421875 2.078125 0.421875q1.109375 0 1.953125 -0.34375q0.84375 -0.359375 1.453125 -0.78125q0.625 -0.421875 1.03125 -0.765625q0.421875 -0.34375 0.65625 -0.34375q0.140625 0 0.234375 0.078125q0.109375 0.078125 0.171875 0.265625q0.0625 0.1875 0.09375 0.46875q0.03125 0.28125 0.03125 0.671875zm13.4140625 1.390625q0 0.5625 -0.078125 0.90625q-0.078125 0.328125 -0.234375 0.484375q-0.15625 0.15625 -0.46875 0.296875q-0.3125 0.140625 -0.71875 0.21875q-0.390625 0.09375 -0.84375 0.140625q-0.4375 0.0625 -0.890625 0.0625q-1.375 0 -2.359375 -0.359375q-0.96875 -0.359375 -1.59375 -1.09375q-0.625 -0.734375 -0.90625 -1.859375q-0.28125 -1.125 -0.28125 -2.640625l0 -10.28125l-2.453125 0q-0.296875 0 -0.484375 -0.3125q-0.171875 -0.3125 -0.171875 -1.015625q0 -0.359375 0.046875 -0.609375q0.0625 -0.265625 0.140625 -0.421875q0.078125 -0.171875 0.203125 -0.234375q0.125 -0.078125 0.28125 -0.078125l2.4375 0l0 -4.171875q0 -0.140625 0.0625 -0.25q0.078125 -0.125 0.265625 -0.203125q0.1875 -0.09375 0.5 -0.125q0.3125 -0.046875 0.78125 -0.046875q0.484375 0 0.796875 0.046875q0.3125 0.03125 0.484375 0.125q0.171875 0.078125 0.25 0.203125q0.078125 0.109375 0.078125 0.25l0 4.171875l4.515625 0q0.15625 0 0.265625 0.078125q0.125 0.0625 0.203125 0.234375q0.09375 0.15625 0.125 0.421875q0.046875 0.25 0.046875 0.609375q0 0.703125 -0.171875 1.015625q-0.171875 0.3125 -0.46875 0.3125l-4.515625 0l0 9.8125q0 1.8125 0.53125 2.75q0.546875 0.921875 1.9375 0.921875q0.453125 0 0.796875 -0.078125q0.359375 -0.09375 0.625 -0.1875q0.28125 -0.109375 0.46875 -0.1875q0.203125 -0.09375 0.359375 -0.09375q0.09375 0 0.171875 0.046875q0.09375 0.046875 0.140625 0.1875q0.046875 0.140625 0.078125 0.375q0.046875 0.234375 0.046875 0.578125zm20.226562 -7.6875q0 2.140625 -0.578125 3.953125q-0.5625 1.796875 -1.6875 3.109375q-1.125 1.3125 -2.8125 2.046875q-1.6875 0.734375 -3.90625 0.734375q-2.171875 0 -3.78125 -0.640625q-1.609375 -0.65625 -2.6875 -1.875q-1.078125 -1.234375 -1.609375 -2.984375q-0.515625 -1.765625 -0.515625 -4.0q0 -2.140625 0.546875 -3.953125q0.5625 -1.8125 1.6875 -3.109375q1.125 -1.3125 2.796875 -2.03125q1.6875 -0.734375 3.921875 -0.734375q2.171875 0 3.78125 0.65625q1.609375 0.640625 2.6875 1.875q1.078125 1.21875 1.609375 2.984375q0.546875 1.75 0.546875 3.96875zm-3.40625 0.203125q0 -1.421875 -0.265625 -2.6875q-0.265625 -1.265625 -0.875 -2.21875q-0.59375 -0.96875 -1.640625 -1.515625q-1.03125 -0.5625 -2.5625 -0.5625q-1.4375 0 -2.46875 0.515625q-1.015625 0.5 -1.6875 1.4375q-0.65625 0.921875 -0.984375 2.1875q-0.3125 1.265625 -0.3125 2.765625q0 1.453125 0.265625 2.71875q0.265625 1.265625 0.875 2.21875q0.609375 0.953125 1.640625 1.515625q1.046875 0.546875 2.59375 0.546875q1.40625 0 2.4375 -0.5q1.03125 -0.515625 1.6875 -1.4375q0.671875 -0.921875 0.984375 -2.1875q0.3125 -1.265625 0.3125 -2.796875zm18.421875 -7.65625q0 0.4375 -0.03125 0.734375q-0.015625 0.28125 -0.078125 0.453125q-0.046875 0.171875 -0.140625 0.265625q-0.078125 0.078125 -0.234375 0.078125q-0.15625 0 -0.390625 -0.078125q-0.21875 -0.09375 -0.5 -0.1875q-0.28125 -0.09375 -0.640625 -0.171875q-0.34375 -0.078125 -0.765625 -0.078125q-0.484375 0 -0.953125 0.203125q-0.46875 0.1875 -0.984375 0.640625q-0.515625 0.453125 -1.09375 1.203125q-0.5625 0.734375 -1.234375 1.8125l0 11.5625q0 0.15625 -0.078125 0.265625q-0.078125 0.09375 -0.265625 0.1875q-0.171875 0.078125 -0.484375 0.109375q-0.3125 0.046875 -0.796875 0.046875q-0.46875 0 -0.78125 -0.046875q-0.3125 -0.03125 -0.5 -0.109375q-0.1875 -0.09375 -0.265625 -0.1875q-0.0625 -0.109375 -0.0625 -0.265625l0 -17.578125q0 -0.15625 0.0625 -0.265625q0.0625 -0.109375 0.234375 -0.1875q0.171875 -0.09375 0.4375 -0.125q0.28125 -0.03125 0.734375 -0.03125q0.4375 0 0.71875 0.03125q0.28125 0.03125 0.4375 0.125q0.15625 0.078125 0.21875 0.1875q0.078125 0.109375 0.078125 0.265625l0 2.546875q0.71875 -1.046875 1.34375 -1.703125q0.640625 -0.671875 1.203125 -1.046875q0.578125 -0.390625 1.125 -0.53125q0.5625 -0.15625 1.125 -0.15625q0.25 0 0.578125 0.03125q0.328125 0.03125 0.671875 0.109375q0.359375 0.078125 0.640625 0.1875q0.28125 0.09375 0.390625 0.1875q0.125 0.09375 0.15625 0.1875q0.046875 0.078125 0.078125 0.21875q0.03125 0.140625 0.03125 0.40625q0.015625 0.265625 0.015625 0.703125z" fill-rule="nonzero"/></g></svg>