<svg version="1.1" viewBox="0.0 0.0 680.3569553805775 317.5564304461942" fill="none" stroke="none" stroke-linecap="square" stroke-miterlimit="10" xmlns:xlink="http://www.w3.org/1999/xlink" xmlns="http://www.w3.org/2000/svg"><clipPath id="p.0"><path d="m0 0l680.35693 0l0 317.55643l-680.35693 0l0 -317.55643z" clip-rule="nonzero"/></clipPath><g clip-path="url(#p.0)"><path fill="#000000" fill-opacity="0.0" d="m0 0l680.35693 0l0 317.55643l-680.35693 0z" fill-rule="evenodd"/><path fill="#000000" fill-opacity="0.0" d="m-249.4357 112.37795l1151.4331 0l0 90.70866l-1151.4331 0z" fill-rule="evenodd"/><path fill="#3f3f3f" d="m34.446354 163.63916q0 0.28125 -0.015625 0.5q-0.015625 0.21875 -0.0625 0.390625q-0.046875 0.15625 -0.125 0.296875q-0.0625 0.125 -0.25 0.3125q-0.171875 0.171875 -0.765625 0.546875q-0.578125 0.375 -1.453125 0.734375q-0.859375 0.34375 -1.984375 0.59375q-1.109375 0.25 -2.4375 0.25q-2.296875 0 -4.15625 -0.765625q-1.84375 -0.765625 -3.15625 -2.265625q-1.296875 -1.5 -2.0 -3.6875q-0.703125 -2.203125 -0.703125 -5.0625q0 -2.9375 0.75 -5.234375q0.765625 -2.296875 2.125 -3.890625q1.375 -1.59375 3.28125 -2.421875q1.90625 -0.84375 4.21875 -0.84375q1.015625 0 1.984375 0.1875q0.96875 0.1875 1.78125 0.484375q0.828125 0.296875 1.46875 0.6875q0.640625 0.375 0.875 0.625q0.25 0.234375 0.3125 0.375q0.078125 0.125 0.125 0.296875q0.046875 0.171875 0.078125 0.40625q0.03125 0.234375 0.03125 0.5625q0 0.359375 -0.046875 0.625q-0.03125 0.25 -0.109375 0.421875q-0.0625 0.171875 -0.171875 0.265625q-0.09375 0.078125 -0.234375 0.078125q-0.265625 0 -0.71875 -0.359375q-0.453125 -0.359375 -1.171875 -0.78125q-0.71875 -0.4375 -1.75 -0.78125q-1.03125 -0.359375 -2.46875 -0.359375q-1.578125 0 -2.859375 0.625q-1.28125 0.625 -2.203125 1.859375q-0.90625 1.21875 -1.40625 2.984375q-0.5 1.75 -0.5 4.0q0 2.25 0.484375 3.96875q0.484375 1.71875 1.375 2.890625q0.90625 1.15625 2.21875 1.75q1.3125 0.578125 2.984375 0.578125q1.390625 0 2.4375 -0.34375q1.0625 -0.34375 1.796875 -0.765625q0.734375 -0.4375 1.203125 -0.78125q0.484375 -0.34375 0.75 -0.34375q0.125 0 0.21875 0.0625q0.09375 0.046875 0.140625 0.203125q0.0625 0.15625 0.078125 0.4375q0.03125 0.265625 0.03125 0.6875zm16.169098 2.890625q0 0.21875 -0.140625 0.328125q-0.140625 0.109375 -0.40625 0.15625q-0.25 0.0625 -0.734375 0.0625q-0.484375 0 -0.765625 -0.0625q-0.28125 -0.046875 -0.40625 -0.15625q-0.125 -0.109375 -0.125 -0.328125l0 -1.640625q-1.078125 1.15625 -2.40625 1.796875q-1.3125 0.625 -2.796875 0.625q-1.296875 0 -2.34375 -0.34375q-1.046875 -0.328125 -1.78125 -0.96875q-0.734375 -0.640625 -1.15625 -1.5625q-0.40625 -0.9375 -0.40625 -2.109375q0 -1.390625 0.5625 -2.40625q0.578125 -1.03125 1.625 -1.703125q1.0625 -0.671875 2.59375 -1.0q1.53125 -0.34375 3.4375 -0.34375l2.265625 0l0 -1.28125q0 -0.953125 -0.203125 -1.671875q-0.203125 -0.734375 -0.65625 -1.21875q-0.4375 -0.484375 -1.15625 -0.71875q-0.703125 -0.25 -1.734375 -0.25q-1.109375 0 -2.0 0.265625q-0.890625 0.265625 -1.5625 0.578125q-0.65625 0.3125 -1.109375 0.578125q-0.4375 0.265625 -0.65625 0.265625q-0.140625 0 -0.25 -0.0625q-0.109375 -0.078125 -0.203125 -0.21875q-0.078125 -0.15625 -0.109375 -0.375q-0.03125 -0.234375 -0.03125 -0.5q0 -0.46875 0.0625 -0.71875q0.0625 -0.265625 0.296875 -0.5q0.25 -0.25 0.84375 -0.5625q0.609375 -0.328125 1.390625 -0.578125q0.796875 -0.265625 1.71875 -0.4375q0.9375 -0.1875 1.875 -0.1875q1.765625 0 3.0 0.40625q1.25 0.40625 2.015625 1.1875q0.765625 0.765625 1.109375 1.921875q0.34375 1.140625 0.34375 2.671875l0 11.0625zm-2.984375 -7.484375l-2.5625 0q-1.25 0 -2.15625 0.203125q-0.90625 0.203125 -1.515625 0.625q-0.59375 0.40625 -0.890625 0.984375q-0.28125 0.5625 -0.28125 1.3125q0 1.28125 0.8125 2.046875q0.8125 0.75 2.28125 0.75q1.171875 0 2.1875 -0.59375q1.015625 -0.609375 2.125 -1.859375l0 -3.46875zm16.69022 6.265625q0 0.53125 -0.078125 0.84375q-0.0625 0.296875 -0.21875 0.453125q-0.14062881 0.140625 -0.4375038 0.265625q-0.28125 0.125 -0.65625 0.203125q-0.375 0.09375 -0.796875 0.140625q-0.40625 0.0625 -0.828125 0.0625q-1.28125 0 -2.203125 -0.328125q-0.90625 -0.34375 -1.484375 -1.03125q-0.578125 -0.6875 -0.84375 -1.734375q-0.265625 -1.046875 -0.265625 -2.46875l0 -9.59375l-2.296875 0q-0.28125 0 -0.453125 -0.28125q-0.15625 -0.296875 -0.15625 -0.953125q0 -0.34375 0.046875 -0.578125q0.046875 -0.234375 0.125 -0.390625q0.078125 -0.15625 0.1875 -0.21875q0.125 -0.0625 0.265625 -0.0625l2.28125 0l0 -3.90625q0 -0.125 0.0625 -0.234375q0.0625 -0.109375 0.234375 -0.1875q0.171875 -0.09375 0.46875 -0.125q0.296875 -0.03125 0.734375 -0.03125q0.453125 0 0.734375 0.03125q0.296875 0.03125 0.453125 0.125q0.171875 0.078125 0.234375 0.1875q0.078125 0.109375 0.078125 0.234375l0 3.90625l4.21875 0q0.140625 0 0.25 0.0625q0.109378815 0.0625 0.18750381 0.21875q0.09375 0.15625 0.125 0.390625q0.03125 0.234375 0.03125 0.578125q0 0.65625 -0.171875 0.953125q-0.15625381 0.28125 -0.4218788 0.28125l-4.21875 0l0 9.15625q0 1.703125 0.5 2.5625q0.515625 0.859375 1.796875 0.859375q0.421875 0 0.75 -0.078125q0.328125 -0.078125 0.578125 -0.171875q0.265625 -0.09375 0.4375 -0.171875q0.1875 -0.078125 0.34375 -0.078125q0.078125 0 0.15625381 0.046875q0.09375 0.046875 0.140625 0.171875q0.046875 0.125 0.078125 0.34375q0.03125 0.21875 0.03125 0.546875zm71.57601 0q0 0.53125 -0.078125 0.84375q-0.0625 0.296875 -0.21875 0.453125q-0.140625 0.140625 -0.4375 0.265625q-0.28125 0.125 -0.65625 0.203125q-0.375 0.09375 -0.796875 0.140625q-0.40625 0.0625 -0.828125 0.0625q-1.28125 0 -2.203125 -0.328125q-0.90625 -0.34375 -1.484375 -1.03125q-0.578125 -0.6875 -0.84375 -1.734375q-0.265625 -1.046875 -0.265625 -2.46875l0 -9.59375l-2.2968674 0q-0.28125 0 -0.453125 -0.28125q-0.15625 -0.296875 -0.15625 -0.953125q0 -0.34375 0.046875 -0.578125q0.046875 -0.234375 0.125 -0.390625q0.078125 -0.15625 0.1875 -0.21875q0.125 -0.0625 0.265625 -0.0625l2.2812424 0l0 -3.90625q0 -0.125 0.0625 -0.234375q0.0625 -0.109375 0.234375 -0.1875q0.171875 -0.09375 0.46875 -0.125q0.296875 -0.03125 0.734375 -0.03125q0.453125 0 0.734375 0.03125q0.296875 0.03125 0.453125 0.125q0.171875 0.078125 0.234375 0.1875q0.078125 0.109375 0.078125 0.234375l0 3.90625l4.21875 0q0.140625 0 0.25 0.0625q0.109375 0.0625 0.1875 0.21875q0.09375 0.15625 0.125 0.390625q0.03125 0.234375 0.03125 0.578125q0 0.65625 -0.171875 0.953125q-0.15625 0.28125 -0.421875 0.28125l-4.21875 0l0 9.15625q0 1.703125 0.5 2.5625q0.515625 0.859375 1.796875 0.859375q0.421875 0 0.75 -0.078125q0.328125 -0.078125 0.578125 -0.171875q0.265625 -0.09375 0.4375 -0.171875q0.1875 -0.078125 0.34375 -0.078125q0.078125 0 0.15625 0.046875q0.09375 0.046875 0.140625 0.171875q0.046875 0.125 0.078125 0.34375q0.03125 0.21875 0.03125 0.546875zm18.112823 1.203125q0 0.140625 -0.078125 0.25q-0.078125 0.09375 -0.25 0.171875q-0.15625 0.0625 -0.453125 0.09375q-0.28125 0.046875 -0.71875 0.046875q-0.453125 0 -0.75 -0.046875q-0.296875 -0.03125 -0.46875 -0.09375q-0.15625 -0.078125 -0.234375 -0.171875q-0.0625 -0.109375 -0.0625 -0.25l0 -9.609375q0 -1.40625 -0.21875 -2.25q-0.21875 -0.859375 -0.640625 -1.484375q-0.421875 -0.625 -1.09375 -0.953125q-0.65625 -0.328125 -1.53125 -0.328125q-1.125 0 -2.265625 0.8125q-1.125 0.796875 -2.359375 2.34375l0 11.46875q0 0.140625 -0.078125 0.25q-0.0625 0.09375 -0.234375 0.171875q-0.15625 0.0625 -0.453125 0.09375q-0.296875 0.046875 -0.75 0.046875q-0.4375 0 -0.734375 -0.046875q-0.28125 -0.03125 -0.453125 -0.09375q-0.171875 -0.078125 -0.25 -0.171875q-0.0625 -0.109375 -0.0625 -0.25l0 -24.359375q0 -0.140625 0.0625 -0.25q0.078125 -0.109375 0.25 -0.171875q0.171875 -0.078125 0.453125 -0.109375q0.296875 -0.046875 0.734375 -0.046875q0.453125 0 0.75 0.046875q0.296875 0.03125 0.453125 0.109375q0.171875 0.0625 0.234375 0.171875q0.078125 0.109375 0.078125 0.25l0 9.828125q1.296875 -1.359375 2.609375 -2.03125q1.3125 -0.671875 2.640625 -0.671875q1.640625 0 2.75 0.5625q1.125 0.5625 1.8125 1.5q0.703125 0.921875 1.0 2.171875q0.3125 1.234375 0.3125 3.015625l0 9.984375zm19.471222 -8.921875q0 0.71875 -0.359375 1.015625q-0.34375 0.296875 -0.796875 0.296875l-10.765625 0q0 1.375 0.265625 2.46875q0.28125 1.09375 0.921875 1.875q0.640625 0.78125 1.65625 1.203125q1.03125 0.421875 2.5 0.421875q1.171875 0 2.078125 -0.1875q0.921875 -0.203125 1.578125 -0.4375q0.671875 -0.234375 1.09375 -0.421875q0.4375 -0.1875 0.65625 -0.1875q0.125 0 0.21875 0.0625q0.109375 0.0625 0.15625 0.1875q0.0625 0.125 0.078125 0.359375q0.03125 0.21875 0.03125 0.546875q0 0.234375 -0.015625 0.421875q-0.015625 0.171875 -0.046875 0.3125q-0.03125 0.125 -0.09375 0.234375q-0.0625 0.109375 -0.171875 0.21875q-0.09375 0.09375 -0.59375 0.328125q-0.484375 0.21875 -1.265625 0.4375q-0.78125 0.21875 -1.8125 0.390625q-1.03125 0.171875 -2.203125 0.171875q-2.015625 0 -3.546875 -0.5625q-1.515625 -0.5625 -2.5625 -1.671875q-1.03125 -1.109375 -1.5625 -2.78125q-0.53125 -1.6875 -0.53125 -3.90625q0 -2.125 0.546875 -3.8125q0.546875 -1.6875 1.578125 -2.859375q1.03125 -1.171875 2.484375 -1.796875q1.46875 -0.640625 3.265625 -0.640625q1.9375 0 3.296875 0.625q1.359375 0.625 2.234375 1.671875q0.875 1.046875 1.28125 2.46875q0.40625 1.40625 0.40625 3.0l0 0.546875zm-3.015625 -0.890625q0.046875 -2.359375 -1.0625 -3.703125q-1.09375 -1.359375 -3.265625 -1.359375q-1.109375 0 -1.953125 0.421875q-0.828125 0.421875 -1.40625 1.109375q-0.5625 0.6875 -0.875 1.609375q-0.296875 0.921875 -0.34375 1.921875l8.90625 0zm107.88275 9.8125q0 0.140625 -0.078125 0.25q-0.078125 0.09375 -0.25 0.171875q-0.15625 0.0625 -0.453125 0.09375q-0.28125 0.046875 -0.71875 0.046875q-0.453125 0 -0.75 -0.046875q-0.28125 -0.03125 -0.46875 -0.09375q-0.171875 -0.078125 -0.25 -0.171875q-0.0625 -0.109375 -0.0625 -0.25l0 -9.96875q0 -1.046875 -0.1875 -1.890625q-0.171875 -0.859375 -0.578125 -1.484375q-0.40625 -0.625 -1.03125 -0.953125q-0.609375 -0.328125 -1.453125 -0.328125q-1.03125 0 -2.078125 0.8125q-1.046875 0.796875 -2.3125 2.34375l0 11.46875q0 0.140625 -0.078125 0.25q-0.0625 0.09375 -0.234375 0.171875q-0.171875 0.0625 -0.46875 0.09375q-0.28125 0.046875 -0.71875 0.046875q-0.421875 0 -0.734375 -0.046875q-0.296875 -0.03125 -0.46875 -0.09375q-0.171875 -0.078125 -0.234375 -0.171875q-0.0625 -0.109375 -0.0625 -0.25l0 -9.96875q0 -1.046875 -0.203125 -1.890625q-0.203125 -0.859375 -0.609375 -1.484375q-0.390625 -0.625 -1.0 -0.953125q-0.6094055 -0.328125 -1.4531555 -0.328125q-1.03125 0 -2.09375 0.8125q-1.0625 0.796875 -2.296875 2.34375l0 11.46875q0 0.140625 -0.078125 0.25q-0.0625 0.09375 -0.234375 0.171875q-0.15625 0.0625 -0.453125 0.09375q-0.296875 0.046875 -0.75 0.046875q-0.4375 0 -0.734375 -0.046875q-0.28125 -0.03125 -0.453125 -0.09375q-0.171875 -0.078125 -0.25 -0.171875q-0.0625 -0.109375 -0.0625 -0.25l0 -16.40625q0 -0.140625 0.046875 -0.234375q0.0625 -0.109375 0.21875 -0.1875q0.171875 -0.09375 0.421875 -0.109375q0.265625 -0.03125 0.6875 -0.03125q0.40625 0 0.65625 0.03125q0.265625 0.015625 0.40625 0.109375q0.15625 0.078125 0.21875 0.1875q0.0625 0.09375 0.0625 0.234375l0 2.171875q1.390625 -1.546875 2.6875 -2.265625q1.3125 -0.734375 2.640625 -0.734375q1.0156555 0 1.8281555 0.25q0.8125 0.234375 1.421875 0.671875q0.625 0.421875 1.0625 1.015625q0.4375 0.578125 0.734375 1.3125q0.828125 -0.890625 1.5625 -1.5q0.734375 -0.625 1.40625 -1.0q0.6875 -0.390625 1.328125 -0.5625q0.65625 -0.1875 1.3125 -0.1875q1.59375 0 2.65625 0.5625q1.078125 0.5625 1.75 1.5q0.671875 0.921875 0.953125 2.171875q0.28125 1.234375 0.28125 2.625l0 10.375zm17.83435 0.015625q0 0.21875 -0.140625 0.328125q-0.140625 0.109375 -0.40625 0.15625q-0.25 0.0625 -0.734375 0.0625q-0.484375 0 -0.765625 -0.0625q-0.28125 -0.046875 -0.40625 -0.15625q-0.125 -0.109375 -0.125 -0.328125l0 -1.640625q-1.078125 1.15625 -2.40625 1.796875q-1.3125 0.625 -2.796875 0.625q-1.296875 0 -2.34375 -0.34375q-1.046875 -0.328125 -1.78125 -0.96875q-0.734375 -0.640625 -1.15625 -1.5625q-0.40625 -0.9375 -0.40625 -2.109375q0 -1.390625 0.5625 -2.40625q0.578125 -1.03125 1.625 -1.703125q1.0625 -0.671875 2.59375 -1.0q1.53125 -0.34375 3.4375 -0.34375l2.265625 0l0 -1.28125q0 -0.953125 -0.203125 -1.671875q-0.203125 -0.734375 -0.65625 -1.21875q-0.4375 -0.484375 -1.15625 -0.71875q-0.703125 -0.25 -1.734375 -0.25q-1.109375 0 -2.0 0.265625q-0.890625 0.265625 -1.5625 0.578125q-0.65625 0.3125 -1.109375 0.578125q-0.4375 0.265625 -0.65625 0.265625q-0.140625 0 -0.25 -0.0625q-0.109375 -0.078125 -0.203125 -0.21875q-0.078125 -0.15625 -0.109375 -0.375q-0.03125 -0.234375 -0.03125 -0.5q0 -0.46875 0.0625 -0.71875q0.0625 -0.265625 0.296875 -0.5q0.25 -0.25 0.84375 -0.5625q0.609375 -0.328125 1.390625 -0.578125q0.796875 -0.265625 1.71875 -0.4375q0.9375 -0.1875 1.875 -0.1875q1.765625 0 3.0 0.40625q1.25 0.40625 2.015625 1.1875q0.765625 0.765625 1.109375 1.921875q0.34375 1.140625 0.34375 2.671875l0 11.0625zm-2.984375 -7.484375l-2.5625 0q-1.25 0 -2.15625 0.203125q-0.90625 0.203125 -1.515625 0.625q-0.59375 0.40625 -0.890625 0.984375q-0.28125 0.5625 -0.28125 1.3125q0 1.28125 0.8125 2.046875q0.8125 0.75 2.28125 0.75q1.171875 0 2.1875 -0.59375q1.015625 -0.609375 2.125 -1.859375l0 -3.46875zm16.690186 6.265625q0 0.53125 -0.078125 0.84375q-0.0625 0.296875 -0.21875 0.453125q-0.140625 0.140625 -0.4375 0.265625q-0.28125 0.125 -0.65625 0.203125q-0.375 0.09375 -0.796875 0.140625q-0.40625 0.0625 -0.828125 0.0625q-1.28125 0 -2.203125 -0.328125q-0.90625 -0.34375 -1.484375 -1.03125q-0.578125 -0.6875 -0.84375 -1.734375q-0.265625 -1.046875 -0.265625 -2.46875l0 -9.59375l-2.296875 0q-0.28125 0 -0.453125 -0.28125q-0.15625 -0.296875 -0.15625 -0.953125q0 -0.34375 0.046875 -0.578125q0.046875 -0.234375 0.125 -0.390625q0.078125 -0.15625 0.1875 -0.21875q0.125 -0.0625 0.265625 -0.0625l2.28125 0l0 -3.90625q0 -0.125 0.0625 -0.234375q0.0625 -0.109375 0.234375 -0.1875q0.171875 -0.09375 0.46875 -0.125q0.296875 -0.03125 0.734375 -0.03125q0.453125 0 0.734375 0.03125q0.296875 0.03125 0.453125 0.125q0.171875 0.078125 0.234375 0.1875q0.078125 0.109375 0.078125 0.234375l0 3.90625l4.21875 0q0.140625 0 0.25 0.0625q0.109375 0.0625 0.1875 0.21875q0.09375 0.15625 0.125 0.390625q0.03125 0.234375 0.03125 0.578125q0 0.65625 -0.171875 0.953125q-0.15625 0.28125 -0.421875 0.28125l-4.21875 0l0 9.15625q0 1.703125 0.5 2.5625q0.515625 0.859375 1.796875 0.859375q0.421875 0 0.75 -0.078125q0.328125 -0.078125 0.578125 -0.171875q0.265625 -0.09375 0.4375 -0.171875q0.1875 -0.078125 0.34375 -0.078125q0.078125 0 0.15625 0.046875q0.09375 0.046875 0.140625 0.171875q0.046875 0.125 0.078125 0.34375q0.03125 0.21875 0.03125 0.546875zm78.310425 -7.1875q0 2.015625 -0.53125 3.703125q-0.53125 1.671875 -1.578125 2.90625q-1.046875 1.21875 -2.625 1.90625q-1.578125 0.671875 -3.65625 0.671875q-2.015625 0 -3.53125 -0.59375q-1.5 -0.609375 -2.5 -1.75q-1.0 -1.15625 -1.5 -2.796875q-0.484375 -1.640625 -0.484375 -3.71875q0 -2.0 0.515625 -3.6875q0.515625 -1.6875 1.5625 -2.90625q1.0625 -1.21875 2.625 -1.890625q1.5625 -0.6875 3.65625 -0.6875q2.03125 0 3.53125 0.609375q1.5 0.59375 2.5 1.75q1.015625 1.140625 1.515625 2.78125q0.5 1.640625 0.5 3.703125zm-3.171875 0.203125q0 -1.328125 -0.25 -2.515625q-0.25 -1.1875 -0.8125 -2.078125q-0.5625 -0.890625 -1.53125 -1.40625q-0.96875 -0.53125 -2.40625 -0.53125q-1.328125 0 -2.28125 0.484375q-0.953125 0.46875 -1.578125 1.34375q-0.625 0.859375 -0.921875 2.046875q-0.296875 1.1875 -0.296875 2.578125q0 1.359375 0.234375 2.546875q0.25 1.171875 0.828125 2.0625q0.578125 0.890625 1.53125 1.40625q0.96875 0.515625 2.421875 0.515625q1.3125 0 2.265625 -0.46875q0.96875 -0.484375 1.59375 -1.328125q0.625 -0.859375 0.90625 -2.046875q0.296875 -1.1875 0.296875 -2.609375zm21.731567 8.1875q0 0.140625 -0.078125 0.25q-0.078125 0.09375 -0.25 0.171875q-0.15625 0.0625 -0.453125 0.09375q-0.28125 0.046875 -0.71875 0.046875q-0.453125 0 -0.75 -0.046875q-0.296875 -0.03125 -0.46875 -0.09375q-0.15625 -0.078125 -0.234375 -0.171875q-0.0625 -0.109375 -0.0625 -0.25l0 -9.609375q0 -1.40625 -0.21875 -2.25q-0.21875 -0.859375 -0.640625 -1.484375q-0.421875 -0.625 -1.09375 -0.953125q-0.65625 -0.328125 -1.53125 -0.328125q-1.125 0 -2.265625 0.8125q-1.125 0.796875 -2.359375 2.34375l0 11.46875q0 0.140625 -0.078125 0.25q-0.0625 0.09375 -0.234375 0.171875q-0.15625 0.0625 -0.453125 0.09375q-0.296875 0.046875 -0.75 0.046875q-0.4375 0 -0.734375 -0.046875q-0.28125 -0.03125 -0.453125 -0.09375q-0.171875 -0.078125 -0.25 -0.171875q-0.0625 -0.109375 -0.0625 -0.25l0 -16.40625q0 -0.140625 0.046875 -0.234375q0.0625 -0.109375 0.21875 -0.1875q0.171875 -0.09375 0.421875 -0.109375q0.265625 -0.03125 0.6875 -0.03125q0.40625 0 0.65625 0.03125q0.265625 0.015625 0.40625 0.109375q0.15625 0.078125 0.21875 0.1875q0.0625 0.09375 0.0625 0.234375l0 2.171875q1.390625 -1.546875 2.765625 -2.265625q1.375 -0.734375 2.78125 -0.734375q1.640625 0 2.75 0.5625q1.125 0.5625 1.8125 1.5q0.703125 0.921875 1.0 2.171875q0.3125 1.234375 0.3125 2.984375l0 10.015625zm64.63611 -1.203125q0 0.53125 -0.078125 0.84375q-0.0625 0.296875 -0.21875 0.453125q-0.140625 0.140625 -0.4375 0.265625q-0.28125 0.125 -0.65625 0.203125q-0.375 0.09375 -0.796875 0.140625q-0.40625 0.0625 -0.828125 0.0625q-1.28125 0 -2.203125 -0.328125q-0.90625 -0.34375 -1.484375 -1.03125q-0.578125 -0.6875 -0.84375 -1.734375q-0.265625 -1.046875 -0.265625 -2.46875l0 -9.59375l-2.296875 0q-0.28125 0 -0.453125 -0.28125q-0.15625 -0.296875 -0.15625 -0.953125q0 -0.34375 0.046875 -0.578125q0.046875 -0.234375 0.125 -0.390625q0.078125 -0.15625 0.1875 -0.21875q0.125 -0.0625 0.265625 -0.0625l2.28125 0l0 -3.90625q0 -0.125 0.0625 -0.234375q0.0625 -0.109375 0.234375 -0.1875q0.171875 -0.09375 0.46875 -0.125q0.296875 -0.03125 0.734375 -0.03125q0.453125 0 0.734375 0.03125q0.296875 0.03125 0.453125 0.125q0.171875 0.078125 0.234375 0.1875q0.078125 0.109375 0.078125 0.234375l0 3.90625l4.21875 0q0.140625 0 0.25 0.0625q0.109375 0.0625 0.1875 0.21875q0.09375 0.15625 0.125 0.390625q0.03125 0.234375 0.03125 0.578125q0 0.65625 -0.171875 0.953125q-0.15625 0.28125 -0.421875 0.28125l-4.21875 0l0 9.15625q0 1.703125 0.5 2.5625q0.515625 0.859375 1.796875 0.859375q0.421875 0 0.75 -0.078125q0.328125 -0.078125 0.578125 -0.171875q0.265625 -0.09375 0.4375 -0.171875q0.1875 -0.078125 0.34375 -0.078125q0.078125 0 0.15625 0.046875q0.09375 0.046875 0.140625 0.171875q0.046875 0.125 0.078125 0.34375q0.03125 0.21875 0.03125 0.546875zm18.112793 1.203125q0 0.140625 -0.078125 0.25q-0.078125 0.09375 -0.25 0.171875q-0.15625 0.0625 -0.453125 0.09375q-0.28125 0.046875 -0.71875 0.046875q-0.453125 0 -0.75 -0.046875q-0.296875 -0.03125 -0.46875 -0.09375q-0.15625 -0.078125 -0.234375 -0.171875q-0.0625 -0.109375 -0.0625 -0.25l0 -9.609375q0 -1.40625 -0.21875 -2.25q-0.21875 -0.859375 -0.640625 -1.484375q-0.421875 -0.625 -1.09375 -0.953125q-0.65625 -0.328125 -1.53125 -0.328125q-1.125 0 -2.265625 0.8125q-1.125 0.796875 -2.359375 2.34375l0 11.46875q0 0.140625 -0.078125 0.25q-0.0625 0.09375 -0.234375 0.171875q-0.15625 0.0625 -0.453125 0.09375q-0.296875 0.046875 -0.75 0.046875q-0.4375 0 -0.734375 -0.046875q-0.28125 -0.03125 -0.453125 -0.09375q-0.171875 -0.078125 -0.25 -0.171875q-0.0625 -0.109375 -0.0625 -0.25l0 -24.359375q0 -0.140625 0.0625 -0.25q0.078125 -0.109375 0.25 -0.171875q0.171875 -0.078125 0.453125 -0.109375q0.296875 -0.046875 0.734375 -0.046875q0.453125 0 0.75 0.046875q0.296875 0.03125 0.453125 0.109375q0.171875 0.0625 0.234375 0.171875q0.078125 0.109375 0.078125 0.25l0 9.828125q1.296875 -1.359375 2.609375 -2.03125q1.3125 -0.671875 2.640625 -0.671875q1.640625 0 2.75 0.5625q1.125 0.5625 1.8125 1.5q0.703125 0.921875 1.0 2.171875q0.3125 1.234375 0.3125 3.015625l0 9.984375zm19.471252 -8.921875q0 0.71875 -0.359375 1.015625q-0.34375 0.296875 -0.796875 0.296875l-10.765625 0q0 1.375 0.265625 2.46875q0.28125 1.09375 0.921875 1.875q0.640625 0.78125 1.65625 1.203125q1.03125 0.421875 2.5 0.421875q1.171875 0 2.078125 -0.1875q0.921875 -0.203125 1.578125 -0.4375q0.671875 -0.234375 1.09375 -0.421875q0.4375 -0.1875 0.65625 -0.1875q0.125 0 0.21875 0.0625q0.109375 0.0625 0.15625 0.1875q0.0625 0.125 0.078125 0.359375q0.03125 0.21875 0.03125 0.546875q0 0.234375 -0.015625 0.421875q-0.015625 0.171875 -0.046875 0.3125q-0.03125 0.125 -0.09375 0.234375q-0.0625 0.109375 -0.171875 0.21875q-0.09375 0.09375 -0.59375 0.328125q-0.484375 0.21875 -1.265625 0.4375q-0.78125 0.21875 -1.8125 0.390625q-1.03125 0.171875 -2.203125 0.171875q-2.015625 0 -3.546875 -0.5625q-1.515625 -0.5625 -2.5625 -1.671875q-1.03125 -1.109375 -1.5625 -2.78125q-0.53125 -1.6875 -0.53125 -3.90625q0 -2.125 0.546875 -3.8125q0.546875 -1.6875 1.578125 -2.859375q1.03125 -1.171875 2.484375 -1.796875q1.46875 -0.640625 3.265625 -0.640625q1.9375 0 3.296875 0.625q1.359375 0.625 2.234375 1.671875q0.875 1.046875 1.28125 2.46875q0.40625 1.40625 0.40625 3.0l0 0.546875zm-3.015625 -0.890625q0.046875 -2.359375 -1.0625 -3.703125q-1.09375 -1.359375 -3.265625 -1.359375q-1.109375 0 -1.953125 0.421875q-0.828125 0.421875 -1.40625 1.109375q-0.5625 0.6875 -0.875 1.609375q-0.296875 0.921875 -0.34375 1.921875l8.90625 0zm93.851776 5.34375q0 1.265625 -0.46875 2.25q-0.46875 0.984375 -1.328125 1.65625q-0.859375 0.671875 -2.046875 1.015625q-1.171875 0.34375 -2.59375 0.34375q-0.875 0 -1.671875 -0.140625q-0.796875 -0.125 -1.421875 -0.328125q-0.625 -0.21875 -1.0625 -0.4375q-0.4375 -0.234375 -0.640625 -0.421875q-0.203125 -0.1875 -0.296875 -0.515625q-0.09375 -0.328125 -0.09375 -0.890625q0 -0.34375 0.03125 -0.578125q0.046875 -0.234375 0.09375 -0.375q0.0625 -0.15625 0.15625 -0.21875q0.109375 -0.0625 0.234375 -0.0625q0.203125 0 0.59375 0.25q0.390625 0.234375 0.96875 0.53125q0.578125 0.296875 1.359375 0.546875q0.78125 0.234375 1.796875 0.234375q0.765625 0 1.390625 -0.15625q0.625 -0.171875 1.078125 -0.484375q0.453125 -0.328125 0.6875 -0.8125q0.25 -0.5 0.25 -1.171875q0 -0.6875 -0.359375 -1.15625q-0.34375 -0.484375 -0.9375 -0.84375q-0.578125 -0.359375 -1.3125 -0.640625q-0.71875 -0.296875 -1.5 -0.59375q-0.765625 -0.3125 -1.515625 -0.703125q-0.734375 -0.390625 -1.3125 -0.953125q-0.578125 -0.578125 -0.9375 -1.359375q-0.359375 -0.78125 -0.359375 -1.875q0 -0.96875 0.375 -1.84375q0.375 -0.890625 1.125 -1.546875q0.75 -0.671875 1.859375 -1.078125q1.125 -0.40625 2.625 -0.40625q0.65625 0 1.3125 0.109375q0.65625 0.109375 1.171875 0.28125q0.53125 0.15625 0.90625 0.359375q0.375 0.1875 0.5625 0.34375q0.203125 0.140625 0.265625 0.25q0.0625 0.109375 0.078125 0.25q0.03125 0.125 0.0625 0.328125q0.03125 0.203125 0.03125 0.484375q0 0.3125 -0.03125 0.546875q-0.03125 0.21875 -0.09375 0.375q-0.0625 0.140625 -0.15625 0.203125q-0.078125 0.0625 -0.1875 0.0625q-0.171875 0 -0.484375 -0.1875q-0.3125 -0.203125 -0.8125 -0.4375q-0.484375 -0.234375 -1.15625 -0.421875q-0.65625 -0.203125 -1.515625 -0.203125q-0.765625 0 -1.34375 0.171875q-0.578125 0.171875 -0.953125 0.5q-0.375 0.3125 -0.578125 0.75q-0.1875 0.4375 -0.1875 0.9375q0 0.71875 0.359375 1.203125q0.375 0.484375 0.953125 0.84375q0.59375 0.359375 1.328125 0.65625q0.75 0.296875 1.53125 0.609375q0.78125 0.296875 1.53125 0.6875q0.75 0.375 1.328125 0.921875q0.59375 0.546875 0.953125 1.3125q0.359375 0.765625 0.359375 1.828125zm7.3026123 4.46875q0 0.140625 -0.078125 0.25q-0.0625 0.09375 -0.234375 0.171875q-0.15625 0.0625 -0.453125 0.09375q-0.296875 0.046875 -0.75 0.046875q-0.4375 0 -0.734375 -0.046875q-0.28125 -0.03125 -0.453125 -0.09375q-0.171875 -0.078125 -0.25 -0.171875q-0.0625 -0.109375 -0.0625 -0.25l0 -16.40625q0 -0.125 0.0625 -0.234375q0.078125 -0.109375 0.25 -0.1875q0.171875 -0.078125 0.453125 -0.109375q0.296875 -0.03125 0.734375 -0.03125q0.453125 0 0.75 0.03125q0.296875 0.03125 0.453125 0.109375q0.171875 0.078125 0.234375 0.1875q0.078125 0.109375 0.078125 0.234375l0 16.40625zm0.34375 -21.953125q0 1.0625 -0.40625 1.453125q-0.390625 0.375 -1.46875 0.375q-1.0625 0 -1.453125 -0.375q-0.390625 -0.375 -0.390625 -1.40625q0 -1.0625 0.390625 -1.4375q0.40625 -0.390625 1.484375 -0.390625q1.0625 0 1.453125 0.375q0.390625 0.375 0.390625 1.40625zm13.738403 20.75q0 0.53125 -0.078125 0.84375q-0.0625 0.296875 -0.21875 0.453125q-0.140625 0.140625 -0.4375 0.265625q-0.28125 0.125 -0.65625 0.203125q-0.375 0.09375 -0.796875 0.140625q-0.40625 0.0625 -0.828125 0.0625q-1.28125 0 -2.203125 -0.328125q-0.90625 -0.34375 -1.484375 -1.03125q-0.578125 -0.6875 -0.84375 -1.734375q-0.265625 -1.046875 -0.265625 -2.46875l0 -9.59375l-2.296875 0q-0.28125 0 -0.453125 -0.28125q-0.15625 -0.296875 -0.15625 -0.953125q0 -0.34375 0.046875 -0.578125q0.046875 -0.234375 0.125 -0.390625q0.078125 -0.15625 0.1875 -0.21875q0.125 -0.0625 0.265625 -0.0625l2.28125 0l0 -3.90625q0 -0.125 0.0625 -0.234375q0.0625 -0.109375 0.234375 -0.1875q0.171875 -0.09375 0.46875 -0.125q0.296875 -0.03125 0.734375 -0.03125q0.453125 0 0.734375 0.03125q0.296875 0.03125 0.453125 0.125q0.171875 0.078125 0.234375 0.1875q0.078125 0.109375 0.078125 0.234375l0 3.90625l4.21875 0q0.140625 0 0.25 0.0625q0.109375 0.0625 0.1875 0.21875q0.09375 0.15625 0.125 0.390625q0.03125 0.234375 0.03125 0.578125q0 0.65625 -0.171875 0.953125q-0.15625 0.28125 -0.421875 0.28125l-4.21875 0l0 9.15625q0 1.703125 0.5 2.5625q0.515625 0.859375 1.796875 0.859375q0.421875 0 0.75 -0.078125q0.328125 -0.078125 0.578125 -0.171875q0.265625 -0.09375 0.4375 -0.171875q0.1875 -0.078125 0.34375 -0.078125q0.078125 0 0.15625 0.046875q0.09375 0.046875 0.140625 0.171875q0.046875 0.125 0.078125 0.34375q0.03125 0.21875 0.03125 0.546875zm14.28479 -3.265625q0 1.265625 -0.46875 2.25q-0.46875 0.984375 -1.328125 1.65625q-0.859375 0.671875 -2.046875 1.015625q-1.171875 0.34375 -2.59375 0.34375q-0.875 0 -1.671875 -0.140625q-0.796875 -0.125 -1.421875 -0.328125q-0.625 -0.21875 -1.0625 -0.4375q-0.4375 -0.234375 -0.640625 -0.421875q-0.203125 -0.1875 -0.296875 -0.515625q-0.09375 -0.328125 -0.09375 -0.890625q0 -0.34375 0.03125 -0.578125q0.046875 -0.234375 0.09375 -0.375q0.0625 -0.15625 0.15625 -0.21875q0.109375 -0.0625 0.234375 -0.0625q0.203125 0 0.59375 0.25q0.390625 0.234375 0.96875 0.53125q0.578125 0.296875 1.359375 0.546875q0.78125 0.234375 1.796875 0.234375q0.765625 0 1.390625 -0.15625q0.625 -0.171875 1.078125 -0.484375q0.453125 -0.328125 0.6875 -0.8125q0.25 -0.5 0.25 -1.171875q0 -0.6875 -0.359375 -1.15625q-0.34375 -0.484375 -0.9375 -0.84375q-0.578125 -0.359375 -1.3125 -0.640625q-0.71875 -0.296875 -1.5 -0.59375q-0.765625 -0.3125 -1.515625 -0.703125q-0.734375 -0.390625 -1.3125 -0.953125q-0.578125 -0.578125 -0.9375 -1.359375q-0.359375 -0.78125 -0.359375 -1.875q0 -0.96875 0.375 -1.84375q0.375 -0.890625 1.125 -1.546875q0.75 -0.671875 1.859375 -1.078125q1.125 -0.40625 2.625 -0.40625q0.65625 0 1.3125 0.109375q0.65625 0.109375 1.171875 0.28125q0.53125 0.15625 0.90625 0.359375q0.375 0.1875 0.5625 0.34375q0.203125 0.140625 0.265625 0.25q0.0625 0.109375 0.078125 0.25q0.03125 0.125 0.0625 0.328125q0.03125 0.203125 0.03125 0.484375q0 0.3125 -0.03125 0.546875q-0.03125 0.21875 -0.09375 0.375q-0.0625 0.140625 -0.15625 0.203125q-0.078125 0.0625 -0.1875 0.0625q-0.171875 0 -0.484375 -0.1875q-0.3125 -0.203125 -0.8125 -0.4375q-0.484375 -0.234375 -1.15625 -0.421875q-0.65625 -0.203125 -1.515625 -0.203125q-0.765625 0 -1.34375 0.171875q-0.578125 0.171875 -0.953125 0.5q-0.375 0.3125 -0.578125 0.75q-0.1875 0.4375 -0.1875 0.9375q0 0.71875 0.359375 1.203125q0.375 0.484375 0.953125 0.84375q0.59375 0.359375 1.328125 0.65625q0.75 0.296875 1.53125 0.609375q0.78125 0.296875 1.53125 0.6875q0.75 0.375 1.328125 0.921875q0.59375 0.546875 0.953125 1.3125q0.359375 0.765625 0.359375 1.828125z" fill-rule="nonzero"/><path fill="#000000" fill-opacity="0.0" d="m-191.3348 -220.00073l1051.8425 0l0 494.3307l-1051.8425 0z" fill-rule="evenodd"/><path fill="#000000" d="m49.82865 25.684595q0 -2.25 -0.625 -3.75q-2.0 2.125 -3.875 3.25l-1.375 -2.25q2.625 -1.5 4.125 -3.375q-1.375 -2.75 -3.125 -4.5l1.625 -1.625q1.625 1.5 3.125 4.125q1.25 -1.5 2.25 -3.625l2.25 1.25q0.5 0.5 -0.375 0.625q-0.875 1.375 -2.875 4.125q1.5 3.25 1.5 8.875l0 7.375002q0 5.125 -3.625 5.125l-2.25 0l-0.375 -2.375l1.75 0q2.125 0 2.125 -3.0l0 -6.875002q-1.375 2.875 -4.75 5.500002l-1.25 -2.25q3.0 -2.375002 5.75 -6.625002zm18.0 -5.75l0 2.5l-2.5 0l0 -2.5l-4.625 0l0 2.5l-2.5 0l0 -2.5l-4.625 0l0 -2.375l4.625 0l0 -4.25l2.375 0q1.0 0.125 0.125 0.75l0 3.5l4.625 0l0 -4.375l2.375 0q1.0 0.125 0.125 0.75l0 3.625l4.875 0l0 2.375l-4.875 0zm1.5 19.875002l-12.0 0l0 1.625l-2.5 0l0 -17.625002l17.0 0l0 17.250002l-2.5 0l0 -1.25zm-12.0 -9.000002l4.875 0l0 -4.625l-4.875 0l0 4.625zm7.0 0l5.0 0l0 -4.625l-5.0 0l0 4.625zm5.0 6.625002l0 -4.625l-5.0 0l0 4.625l5.0 0zm-12.0 0l4.875 0l0 -4.625l-4.875 0l0 4.625z" fill-rule="nonzero"/><path fill="#000000" d="m150.79741 22.684595q0.25 4.75 0 9.500002q3.75 1.375 7.25 3.875l-1.5 2.375q-2.625 -2.0 -5.75 -3.5q0 2.25 -1.375 3.625q-1.5 1.5 -4.375 1.5q-2.875 0 -4.375 -1.5q-1.25 -1.25 -1.25 -3.25q0 -1.75 1.0 -2.75q1.5 -1.5000019 4.5 -1.5000019q1.625 0 3.25 0.375q0.25 -4.25 0 -8.625l-9.25 0.625l0 -2.625l9.0 -0.5q-0.125 -3.5 -0.5 -6.25l2.625 0q1.375 0.25 0.25 1.0q0.125 2.625 0.25 5.125l6.75 -0.375l0 2.625l-6.5 0.25zm-18.875 16.750002q-0.5 -3.5 -0.5 -8.125002q0 -10.125 1.5 -16.25l2.75 0.5q0.875 0.375 -0.125 0.875q-1.375 4.375 -1.375 14.875q0 4.750002 0.625 7.625002l-2.875 0.5zm16.25 -5.5q-2.125 -0.625 -3.25 -0.625q-1.75 0 -2.5 0.75q-0.625 0.625 -0.625 1.25q0 1.0 0.5 1.5q0.875 0.875 2.625 0.875q1.75 0 2.5 -0.875q0.875 -1.0 0.75 -2.875z" fill-rule="nonzero"/><path fill="#000000" d="m229.89116 31.934595q2.625 2.500002 4.25 4.375002l-2.5 2.25q-4.75 -5.625 -10.875 -10.125002l1.75 -2.25q2.25 1.375 5.0 3.875q3.75 -3.75 7.625 -9.25l-19.625 0.875l-0.5 -3.125l21.875 -0.5l1.25 -0.375l1.875 2.0q0.625 1.0 -0.5 0.875q-3.125 4.125 -9.625 11.375zm33.624985 -8.5q-0.875 8.125 -4.5 11.750002q-3.6249847 3.625 -9.499985 5.75l-1.625 -2.375q5.75 -1.875 8.999985 -5.125q3.5 -3.500002 4.0 -11.875002l2.625 0.875q1.125 0.375 0 1.0zm-10.624985 4.5q-1.5 -3.375 -3.0 -5.625l2.375 -1.25q1.875 2.375 3.25 5.625l-2.625 1.25zm-6.375 1.875q-1.5 -3.5 -3.125 -5.875l2.5 -1.25q1.75 2.375 3.125 5.75l-2.5 1.375zm25.874985 -6.125q6.125 1.75 12.375 4.75l-1.5 2.875q-6.625 -3.375 -10.875 -4.5l0 13.000002l-2.875 0l0 -25.000002l2.5 0q1.5 0.125 0.375 1.0l0 7.875z" fill-rule="nonzero"/><path fill="#000000" d="m347.96927 21.059595q-2.125 12.500002 -5.125 15.500002q-1.625 1.625 -3.375 1.625q-2.0 0 -3.125 -1.125q-3.0 -3.0 -3.0 -7.500002q0 -5.5 3.875 -9.375q4.25 -4.25 10.375 -4.25q5.5 0 8.625 3.125q3.5 3.5 3.5 8.25q0 5.125002 -3.25 8.375002q-2.125 2.125 -6.5 4.125l-2.625 -2.625q4.375 -1.375 6.875 -3.875q2.375 -2.375002 2.375 -5.750002q0 -4.0 -2.625 -6.625q-2.625 -2.625 -8.25 -2.375l2.25 1.125q1.5 0.625 0 1.375zm-2.875 -2.375q-3.25 0.75 -5.625 3.125q-3.25 3.25 -3.25 8.0q0 2.875002 1.875 4.750002q0.375 0.375 1.125 0.375q0.75 0 1.625 -0.875q2.875 -2.875002 4.25 -15.375002z" fill-rule="nonzero"/><path fill="#000000" d="m420.5474 36.059597l0 -22.125002l2.75 0q1.25 0.25 0.125 1.0l0 7.25l10.125 0l0 2.75l-10.125 0l0 11.125002l13.0 0l0 2.75l-27.125 0l0 -2.75l11.25 0z" fill-rule="nonzero"/><path fill="#000000" d="m505.00052 37.184597q-5.875 0 -9.75 -3.75l1.625 -2.125002q3.375 3.250002 8.125 3.125002l6.875 0l0 2.75l-6.875 0zm-17.875 2.375q-0.375 -6.5 -0.375 -11.125002q0 -5.625 1.375 -13.375l2.5 0.625q1.375 0.25 0.125 1.125q-1.25 7.25 -1.25 11.625q0 4.875002 0.5 10.875002l-2.875 0.25zm23.125 -18.500002q-5.375 -0.125 -14.0 0.75l0 -2.625q9.0 -0.875 14.0 -0.75l0 2.625z" fill-rule="nonzero"/><path fill="#000000" d="m584.9693 15.809595l11.375 0l0 2.375l-22.75 0l0 13.25q0 4.875002 -2.875 9.625002l-2.5 -1.875q2.875 -4.375 2.875 -9.625002l0 -13.75l11.0 0l0 -3.125l2.75 0q1.25 0.25 0.125 1.0l0 2.125zm1.125 12.875q3.375 -4.125 3.875 -9.25l2.5 0.5q0.75 0.25 0 0.625q-0.375 1.75 -0.75 3.0q3.125 1.5 4.875 3.25l-1.625 2.5q-2.0 -2.0 -4.0 -3.625q-1.25 2.875 -2.875 4.625l-2.0 -1.5l0 2.375l8.625 0l0 2.375002l-8.625 0l0 4.375l11.0 0l0 2.375l-23.5 0l0 -2.375l10.0 0l0 -4.375l-7.625 0l0 -2.375002l7.625 0l0 -4.125l-1.625 2.375q-1.75 -1.75 -3.25 -2.875q-1.125 2.375 -2.75 4.125l-2.0 -1.875q3.5 -3.5 3.875 -9.0l2.5 0.5q0.75 0.25 0 0.625q-0.375 2.375 -0.75 3.5q1.5 0.375 4.0 2.375l0 -7.75l2.375 0q1.0 0.125 0.125 0.75l0 8.875zm30.625 9.375002q2.0 -0.25 3.375 -1.625q1.5 -1.5 1.5 -4.0q0 -2.750002 -1.625 -4.375002q-1.625 -1.625 -5.125 -1.625q-4.125 0 -6.375 1.625q-2.125 1.5 -5.5 5.375002l-2.125 -1.8750019q9.0 -9.0 13.625 -15.0q-4.125 0.5 -8.25 0.875l-0.875 -2.875q6.125 0 10.875 -0.625l1.125 -0.5l1.375 1.375q1.375 1.25 -0.625 1.625q-3.75 4.25 -7.5 8.375q2.625 -0.625 4.375 -0.625q4.75 0 7.0 2.25q2.25 2.25 2.25 5.750002q0 3.625 -2.0 5.625q-3.0 3.0 -7.625 3.0q-4.375 0 -6.375 -2.0q-1.625 -1.625 -1.625 -3.875q0 -1.5 1.125 -2.625q1.25 -1.2500019 2.875 -1.2500019q2.25 0 3.75 1.5000019q1.75 1.75 2.375 5.5zm-2.5 0.375q-0.375 -3.25 -1.5 -4.375q-0.875 -0.875 -1.75 -0.875q-1.0 0 -1.5 0.5q-0.625 0.625 -0.625 1.375q0 1.125 1.0 2.125q1.25 1.25 3.25 1.25q0.5 0 1.125 0z" fill-rule="nonzero"/><path fill="#000000" fill-opacity="0.0" d="m152.06561 120.09974l-31.842514 -60.8189" fill-rule="evenodd"/><path stroke="#212121" stroke-width="1.0" stroke-linejoin="round" stroke-linecap="butt" d="m152.06561 120.09974l-31.842514 -60.8189" fill-rule="evenodd"/><path fill="#000000" fill-opacity="0.0" d="m49.75853 121.062996l-9.6377945 -64.66142" fill-rule="evenodd"/><path stroke="#212121" stroke-width="1.0" stroke-linejoin="round" stroke-linecap="butt" d="m49.75853 121.062996l-9.6377945 -64.66142" fill-rule="evenodd"/><path fill="#000000" fill-opacity="0.0" d="m617.2651 127.821526l-0.9763794 -65.6378" fill-rule="evenodd"/><path stroke="#212121" stroke-width="1.0" stroke-linejoin="round" stroke-linecap="butt" d="m617.2651 127.821526l-0.9763794 -65.6378" fill-rule="evenodd"/><path fill="#000000" fill-opacity="0.0" d="m275.60367 120.09974l-21.228333 -62.708664" fill-rule="evenodd"/><path stroke="#212121" stroke-width="1.0" stroke-linejoin="round" stroke-linecap="butt" d="m275.60367 120.09974l-21.228333 -62.708664" fill-rule="evenodd"/><path fill="#000000" fill-opacity="0.0" d="m399.14172 129.75066l34.740173 -72.37795" fill-rule="evenodd"/><path stroke="#212121" stroke-width="1.0" stroke-linejoin="round" stroke-linecap="butt" d="m399.14172 129.75066l34.740173 -72.37795" fill-rule="evenodd"/><path fill="#cdd0d1" d="m254.37534 207.21292l0 0c0 -9.007782 7.302246 -16.310028 16.310028 -16.310028l165.23819 0c4.3256836 0 8.474213 1.7183685 11.532928 4.7770996c3.0587463 3.0587158 4.7770996 7.207245 4.7770996 11.532928l0 65.23819c0 9.007782 -7.302246 16.310059 -16.310028 16.310059l-165.23819 0c-9.007782 0 -16.310028 -7.3022766 -16.310028 -16.310059z" fill-rule="evenodd"/><path stroke="#212121" stroke-width="1.0" stroke-linejoin="round" stroke-linecap="butt" d="m254.37534 207.21292l0 0c0 -9.007782 7.302246 -16.310028 16.310028 -16.310028l165.23819 0c4.3256836 0 8.474213 1.7183685 11.532928 4.7770996c3.0587463 3.0587158 4.7770996 7.207245 4.7770996 11.532928l0 65.23819c0 9.007782 -7.302246 16.310059 -16.310028 16.310059l-165.23819 0c-9.007782 0 -16.310028 -7.3022766 -16.310028 -16.310059z" fill-rule="evenodd"/><path fill="#000000" d="m305.21072 225.08327q0 1.84375 -0.546875 3.296875q-0.53125 1.4375 -1.53125 2.4375q-1.0 1.0 -2.4375 1.515625q-1.4375 0.515625 -3.265625 0.515625q-1.671875 0 -3.046875 -0.484375q-1.375 -0.484375 -2.359375 -1.421875q-0.984375 -0.953125 -1.515625 -2.375q-0.53125 -1.421875 -0.53125 -3.28125l0 -12.546875q0 -0.125 0.0625 -0.21875q0.0625 -0.09375 0.21875 -0.140625q0.15625 -0.0625 0.40625 -0.09375q0.25 -0.046875 0.65625 -0.046875q0.375 0 0.640625 0.046875q0.265625 0.03125 0.40625 0.09375q0.15625 0.046875 0.21875 0.140625q0.0625 0.09375 0.0625 0.21875l0 12.21875q0 1.40625 0.34375 2.453125q0.34375 1.046875 0.984375 1.75q0.65625 0.6875 1.5625 1.046875q0.921875 0.34375 2.0625 0.34375q1.171875 0 2.078125 -0.34375q0.921875 -0.34375 1.546875 -1.03125q0.640625 -0.6875 0.96875 -1.703125q0.34375 -1.015625 0.34375 -2.375l0 -12.359375q0 -0.125 0.0625 -0.21875q0.0625 -0.09375 0.21875 -0.140625q0.15625 -0.0625 0.40625 -0.09375q0.265625 -0.046875 0.65625 -0.046875q0.375 0 0.625 0.046875q0.265625 0.03125 0.40625 0.09375q0.15625 0.046875 0.21875 0.140625q0.078125 0.09375 0.078125 0.21875l0 12.34375zm17.140625 7.078125q0 0.125 -0.0625 0.21875q-0.0625 0.078125 -0.203125 0.140625q-0.140625 0.0625 -0.390625 0.09375q-0.25 0.03125 -0.625 0.03125q-0.390625 0 -0.640625 -0.03125q-0.25 -0.03125 -0.390625 -0.09375q-0.140625 -0.0625 -0.203125 -0.140625q-0.0625 -0.09375 -0.0625 -0.21875l0 -8.234375q0 -1.203125 -0.1875 -1.9375q-0.1875 -0.734375 -0.546875 -1.265625q-0.359375 -0.53125 -0.9375 -0.8125q-0.5625 -0.28125 -1.3125 -0.28125q-0.96875 0 -1.9375 0.6875q-0.96875 0.6875 -2.03125 2.015625l0 9.828125q0 0.125 -0.0625 0.21875q-0.0625 0.078125 -0.203125 0.140625q-0.140625 0.0625 -0.390625 0.09375q-0.25 0.03125 -0.640625 0.03125q-0.375 0 -0.625 -0.03125q-0.25 -0.03125 -0.40625 -0.09375q-0.140625 -0.0625 -0.203125 -0.140625q-0.046875 -0.09375 -0.046875 -0.21875l0 -14.0625q0 -0.125 0.046875 -0.203125q0.046875 -0.09375 0.1875 -0.15625q0.140625 -0.078125 0.359375 -0.09375q0.21875 -0.03125 0.578125 -0.03125q0.34375 0 0.5625 0.03125q0.234375 0.015625 0.359375 0.09375q0.125 0.0625 0.171875 0.15625q0.0625 0.078125 0.0625 0.203125l0 1.859375q1.1875 -1.328125 2.359375 -1.9375q1.1875 -0.625 2.390625 -0.625q1.40625 0 2.359375 0.484375q0.96875 0.46875 1.5625 1.265625q0.59375 0.796875 0.84375 1.875q0.265625 1.0625 0.265625 2.5625l0 8.578125zm15.296875 0.015625q0 0.1875 -0.125 0.28125q-0.125 0.09375 -0.34375 0.140625q-0.21875 0.046875 -0.640625 0.046875q-0.40625 0 -0.65625 -0.046875q-0.234375 -0.046875 -0.34375 -0.140625q-0.109375 -0.09375 -0.109375 -0.28125l0 -1.40625q-0.921875 0.984375 -2.0625 1.53125q-1.125 0.546875 -2.390625 0.546875q-1.109375 0 -2.015625 -0.296875q-0.890625 -0.28125 -1.53125 -0.828125q-0.625 -0.546875 -0.984375 -1.34375q-0.34375 -0.796875 -0.34375 -1.8125q0 -1.1875 0.484375 -2.0625q0.484375 -0.875 1.390625 -1.453125q0.90625 -0.578125 2.21875 -0.859375q1.3125 -0.296875 2.953125 -0.296875l1.9375 0l0 -1.09375q0 -0.8125 -0.171875 -1.4375q-0.171875 -0.625 -0.5625 -1.03125q-0.375 -0.421875 -0.984375 -0.625q-0.609375 -0.21875 -1.5 -0.21875q-0.953125 0 -1.71875 0.234375q-0.75 0.21875 -1.328125 0.5q-0.5625 0.265625 -0.953125 0.5q-0.375 0.21875 -0.5625 0.21875q-0.125 0 -0.21875 -0.0625q-0.09375 -0.0625 -0.171875 -0.1875q-0.0625 -0.125 -0.09375 -0.3125q-0.03125 -0.203125 -0.03125 -0.4375q0 -0.390625 0.046875 -0.609375q0.0625 -0.234375 0.265625 -0.4375q0.21875 -0.203125 0.734375 -0.46875q0.515625 -0.28125 1.1875 -0.5q0.671875 -0.234375 1.46875 -0.375q0.796875 -0.15625 1.609375 -0.15625q1.515625 0 2.578125 0.34375q1.0625 0.34375 1.71875 1.015625q0.65625 0.65625 0.953125 1.640625q0.296875 0.984375 0.296875 2.296875l0 9.484375zm-2.5625 -6.421875l-2.203125 0q-1.0625 0 -1.84375 0.1875q-0.78125 0.171875 -1.296875 0.53125q-0.515625 0.34375 -0.765625 0.84375q-0.234375 0.484375 -0.234375 1.125q0 1.09375 0.6875 1.75q0.703125 0.640625 1.953125 0.640625q1.015625 0 1.875 -0.515625q0.875 -0.515625 1.828125 -1.578125l0 -2.984375zm9.875 6.40625q0 0.125 -0.0625 0.21875q-0.0625 0.078125 -0.203125 0.140625q-0.140625 0.0625 -0.390625 0.09375q-0.25 0.03125 -0.640625 0.03125q-0.375 0 -0.625 -0.03125q-0.25 -0.03125 -0.40625 -0.09375q-0.140625 -0.0625 -0.203125 -0.140625q-0.046875 -0.09375 -0.046875 -0.21875l0 -20.875q0 -0.125 0.046875 -0.21875q0.0625 -0.09375 0.203125 -0.15625q0.15625 -0.0625 0.40625 -0.09375q0.25 -0.03125 0.625 -0.03125q0.390625 0 0.640625 0.03125q0.25 0.03125 0.390625 0.09375q0.140625 0.0625 0.203125 0.15625q0.0625 0.09375 0.0625 0.21875l0 20.875zm7.34375 0q0 0.125 -0.0625 0.21875q-0.0625 0.078125 -0.203125 0.140625q-0.140625 0.0625 -0.390625 0.09375q-0.25 0.03125 -0.640625 0.03125q-0.375 0 -0.625 -0.03125q-0.25 -0.03125 -0.40625 -0.09375q-0.140625 -0.0625 -0.203125 -0.140625q-0.046875 -0.09375 -0.046875 -0.21875l0 -14.0625q0 -0.109375 0.046875 -0.203125q0.0625 -0.09375 0.203125 -0.15625q0.15625 -0.0625 0.40625 -0.09375q0.25 -0.03125 0.625 -0.03125q0.390625 0 0.640625 0.03125q0.25 0.03125 0.390625 0.09375q0.140625 0.0625 0.203125 0.15625q0.0625 0.09375 0.0625 0.203125l0 14.0625zm0.296875 -18.8125q0 0.90625 -0.34375 1.234375q-0.34375 0.328125 -1.265625 0.328125q-0.90625 0 -1.25 -0.3125q-0.328125 -0.328125 -0.328125 -1.21875q0 -0.90625 0.34375 -1.234375q0.34375 -0.328125 1.265625 -0.328125q0.90625 0 1.234375 0.328125q0.34375 0.3125 0.34375 1.203125zm16.21875 5.390625q0 0.546875 -0.15625 0.796875q-0.140625 0.234375 -0.375 0.234375l-2.015625 0q0.546875 0.5625 0.765625 1.25q0.21875 0.671875 0.21875 1.40625q0 1.21875 -0.390625 2.15625q-0.390625 0.9375 -1.125 1.59375q-0.71875 0.640625 -1.71875 0.984375q-1.0 0.34375 -2.21875 0.34375q-0.859375 0 -1.640625 -0.21875q-0.765625 -0.234375 -1.1875 -0.578125q-0.28125 0.28125 -0.46875 0.640625q-0.171875 0.359375 -0.171875 0.828125q0 0.546875 0.5 0.90625q0.515625 0.359375 1.359375 0.390625l3.671875 0.15625q1.046875 0.03125 1.921875 0.296875q0.875 0.25 1.515625 0.734375q0.640625 0.46875 1.0 1.171875q0.359375 0.6875 0.359375 1.609375q0 0.96875 -0.40625 1.84375q-0.40625 0.875 -1.25 1.53125q-0.828125 0.671875 -2.125 1.046875q-1.296875 0.390625 -3.0625 0.390625q-1.703125 0 -2.90625 -0.296875q-1.1875 -0.28125 -1.953125 -0.78125q-0.765625 -0.5 -1.109375 -1.203125q-0.34375 -0.6875 -0.34375 -1.5q0 -0.515625 0.125 -1.0q0.125 -0.484375 0.375 -0.921875q0.265625 -0.4375 0.640625 -0.828125q0.390625 -0.40625 0.890625 -0.796875q-0.765625 -0.390625 -1.140625 -0.984375q-0.359375 -0.59375 -0.359375 -1.28125q0 -0.953125 0.390625 -1.703125q0.390625 -0.75 0.96875 -1.34375q-0.484375 -0.578125 -0.765625 -1.296875q-0.28125 -0.734375 -0.28125 -1.765625q0 -1.203125 0.40625 -2.15625q0.40625 -0.953125 1.125 -1.609375q0.71875 -0.65625 1.71875 -1.0q1.015625 -0.359375 2.203125 -0.359375q0.640625 0 1.1875 0.078125q0.5625 0.0625 1.046875 0.1875l4.25 0q0.265625 0 0.390625 0.265625q0.140625 0.25 0.140625 0.78125zm-4.03125 3.703125q0 -1.4375 -0.796875 -2.234375q-0.78125 -0.8125 -2.234375 -0.8125q-0.75 0 -1.3125 0.25q-0.546875 0.25 -0.921875 0.6875q-0.359375 0.4375 -0.546875 1.015625q-0.171875 0.5625 -0.171875 1.1875q0 1.390625 0.78125 2.1875q0.796875 0.796875 2.21875 0.796875q0.765625 0 1.328125 -0.234375q0.5625 -0.25 0.921875 -0.671875q0.375 -0.4375 0.546875 -1.0q0.1875 -0.5625 0.1875 -1.171875zm1.296875 11.140625q0 -0.90625 -0.75 -1.390625q-0.734375 -0.5 -2.0 -0.53125l-3.640625 -0.125q-0.5 0.390625 -0.828125 0.75q-0.3125 0.34375 -0.5 0.65625q-0.1875 0.328125 -0.265625 0.640625q-0.0625 0.3125 -0.0625 0.640625q0 1.015625 1.03125 1.53125q1.03125 0.53125 2.875 0.53125q1.171875 0 1.953125 -0.234375q0.796875 -0.21875 1.28125 -0.59375q0.484375 -0.375 0.6875 -0.859375q0.21875 -0.484375 0.21875 -1.015625zm18.15625 -1.421875q0 0.125 -0.0625 0.21875q-0.0625 0.078125 -0.203125 0.140625q-0.140625 0.0625 -0.390625 0.09375q-0.25 0.03125 -0.625 0.03125q-0.390625 0 -0.640625 -0.03125q-0.25 -0.03125 -0.390625 -0.09375q-0.140625 -0.0625 -0.203125 -0.140625q-0.0625 -0.09375 -0.0625 -0.21875l0 -8.234375q0 -1.203125 -0.1875 -1.9375q-0.1875 -0.734375 -0.546875 -1.265625q-0.359375 -0.53125 -0.9375 -0.8125q-0.5625 -0.28125 -1.3125 -0.28125q-0.96875 0 -1.9375 0.6875q-0.96875 0.6875 -2.03125 2.015625l0 9.828125q0 0.125 -0.0625 0.21875q-0.0625 0.078125 -0.203125 0.140625q-0.140625 0.0625 -0.390625 0.09375q-0.25 0.03125 -0.640625 0.03125q-0.375 0 -0.625 -0.03125q-0.25 -0.03125 -0.40625 -0.09375q-0.140625 -0.0625 -0.203125 -0.140625q-0.046875 -0.09375 -0.046875 -0.21875l0 -14.0625q0 -0.125 0.046875 -0.203125q0.046875 -0.09375 0.1875 -0.15625q0.140625 -0.078125 0.359375 -0.09375q0.21875 -0.03125 0.578125 -0.03125q0.34375 0 0.5625 0.03125q0.234375 0.015625 0.359375 0.09375q0.125 0.0625 0.171875 0.15625q0.0625 0.078125 0.0625 0.203125l0 1.859375q1.1875 -1.328125 2.359375 -1.9375q1.1875 -0.625 2.390625 -0.625q1.40625 0 2.359375 0.484375q0.96875 0.46875 1.5625 1.265625q0.59375 0.796875 0.84375 1.875q0.265625 1.0625 0.265625 2.5625l0 8.578125zm16.703125 -7.640625q0 0.609375 -0.3125 0.875q-0.296875 0.25 -0.6875 0.25l-9.21875 0q0 1.171875 0.234375 2.109375q0.234375 0.9375 0.78125 1.609375q0.546875 0.671875 1.421875 1.03125q0.875 0.359375 2.140625 0.359375q1.0 0 1.78125 -0.15625q0.78125 -0.171875 1.34375 -0.375q0.578125 -0.203125 0.9375 -0.359375q0.375 -0.171875 0.5625 -0.171875q0.109375 0 0.1875 0.0625q0.09375 0.046875 0.140625 0.15625q0.046875 0.109375 0.0625 0.3125q0.03125 0.1875 0.03125 0.46875q0 0.203125 -0.015625 0.359375q-0.015625 0.140625 -0.046875 0.265625q-0.015625 0.109375 -0.078125 0.203125q-0.046875 0.09375 -0.140625 0.1875q-0.078125 0.078125 -0.5 0.28125q-0.421875 0.1875 -1.09375 0.375q-0.671875 0.1875 -1.5625 0.328125q-0.875 0.15625 -1.875 0.15625q-1.734375 0 -3.046875 -0.484375q-1.296875 -0.484375 -2.1875 -1.4375q-0.890625 -0.953125 -1.34375 -2.390625q-0.453125 -1.4375 -0.453125 -3.34375q0 -1.8125 0.46875 -3.25q0.46875 -1.453125 1.34375 -2.453125q0.890625 -1.015625 2.140625 -1.546875q1.25 -0.546875 2.796875 -0.546875q1.65625 0 2.8125 0.53125q1.171875 0.53125 1.921875 1.4375q0.75 0.890625 1.09375 2.109375q0.359375 1.203125 0.359375 2.578125l0 0.46875zm-2.59375 -0.765625q0.046875 -2.03125 -0.90625 -3.1875q-0.9375 -1.15625 -2.796875 -1.15625q-0.953125 0 -1.671875 0.359375q-0.71875 0.359375 -1.203125 0.953125q-0.484375 0.59375 -0.75 1.390625q-0.265625 0.78125 -0.296875 1.640625l7.625 0zm18.5625 8.40625q0 0.125 -0.0625 0.21875q-0.046875 0.09375 -0.1875 0.15625q-0.125 0.046875 -0.34375 0.078125q-0.21875 0.03125 -0.53125 0.03125q-0.328125 0 -0.546875 -0.03125q-0.21875 -0.03125 -0.359375 -0.078125q-0.140625 -0.0625 -0.203125 -0.15625q-0.0625 -0.09375 -0.0625 -0.21875l0 -1.859375q-1.109375 1.203125 -2.3125 1.875q-1.1875 0.671875 -2.609375 0.671875q-1.546875 0 -2.640625 -0.59375q-1.09375 -0.609375 -1.78125 -1.625q-0.671875 -1.03125 -0.984375 -2.40625q-0.3125 -1.390625 -0.3125 -2.921875q0 -1.8125 0.390625 -3.265625q0.390625 -1.46875 1.15625 -2.5q0.765625 -1.03125 1.890625 -1.578125q1.140625 -0.5625 2.625 -0.5625q1.234375 0 2.25 0.546875q1.03125 0.53125 2.03125 1.578125l0 -8.171875q0 -0.109375 0.046875 -0.203125q0.0625 -0.109375 0.21875 -0.15625q0.15625 -0.0625 0.390625 -0.09375q0.25 -0.046875 0.625 -0.046875q0.390625 0 0.640625 0.046875q0.25 0.03125 0.390625 0.09375q0.140625 0.046875 0.203125 0.15625q0.078125 0.09375 0.078125 0.203125l0 20.8125zm-2.59375 -9.890625q-1.046875 -1.296875 -2.03125 -1.96875q-0.96875 -0.6875 -2.03125 -0.6875q-0.984375 0 -1.671875 0.46875q-0.6875 0.46875 -1.125 1.234375q-0.421875 0.765625 -0.625 1.734375q-0.1875 0.96875 -0.1875 1.96875q0 1.0625 0.15625 2.078125q0.171875 1.015625 0.578125 1.8125q0.40625 0.78125 1.078125 1.265625q0.671875 0.46875 1.6875 0.46875q0.515625 0 0.984375 -0.140625q0.484375 -0.140625 0.984375 -0.46875q0.5 -0.328125 1.046875 -0.84375q0.546875 -0.53125 1.15625 -1.296875l0 -5.625z" fill-rule="nonzero"/><path fill="#000000" d="m335.61697 256.06766q0 0.109375 -0.03125 0.265625q-0.03125 0.15625 -0.109375 0.390625l-4.140625 13.359375q-0.046875 0.171875 -0.15625 0.28125q-0.09375 0.109375 -0.28125 0.171875q-0.171875 0.0625 -0.484375 0.078125q-0.3125 0.03125 -0.78125 0.03125q-0.484375 0 -0.8125 -0.03125q-0.328125 -0.03125 -0.53125 -0.09375q-0.1875 -0.0625 -0.28125 -0.171875q-0.09375 -0.109375 -0.140625 -0.265625l-2.953125 -10.203125l-0.03125 -0.140625l-0.03125 0.140625l-2.734375 10.203125q-0.046875 0.171875 -0.15625 0.28125q-0.09375 0.109375 -0.296875 0.171875q-0.203125 0.0625 -0.53125 0.078125q-0.3125 0.03125 -0.78125 0.03125q-0.484375 0 -0.796875 -0.03125q-0.296875 -0.03125 -0.5 -0.09375q-0.1875 -0.0625 -0.28125 -0.171875q-0.09375 -0.109375 -0.140625 -0.265625l-4.109375 -13.359375q-0.078125 -0.234375 -0.109375 -0.390625q-0.03125 -0.15625 -0.03125 -0.265625q0 -0.14064026 0.0625 -0.21876526q0.0625 -0.09375 0.203125 -0.140625q0.15625 -0.0625 0.40625 -0.078125q0.25 -0.015625 0.609375 -0.015625q0.4375 0 0.703125 0.03125q0.265625 0.015625 0.40625 0.078125q0.140625 0.046875 0.203125 0.15625q0.0625 0.09375 0.109375 0.23439026l3.390625 11.59375l0.03125 0.140625l0.03125 -0.140625l3.109375 -11.59375q0.03125 -0.14064026 0.09375 -0.23439026q0.078125 -0.109375 0.21875 -0.15625q0.140625 -0.0625 0.375 -0.078125q0.25 -0.03125 0.640625 -0.03125q0.375 0 0.609375 0.03125q0.25 0.015625 0.390625 0.078125q0.140625 0.046875 0.203125 0.140625q0.0625 0.09375 0.09375 0.21876526l3.359375 11.625l0.03125 0.140625l0.015625 -0.140625l3.34375 -11.59375q0.03125 -0.14064026 0.09375 -0.23439026q0.078125 -0.109375 0.21875 -0.15625q0.15625 -0.0625 0.40625 -0.078125q0.265625 -0.03125 0.671875 -0.03125q0.375 0 0.59375 0.015625q0.234375 0.015625 0.359375 0.078125q0.140625 0.0625 0.1875 0.140625q0.0625 0.078125 0.0625 0.21876526zm15.984375 6.90625q0 1.71875 -0.453125 3.171875q-0.453125 1.4375 -1.359375 2.484375q-0.890625 1.046875 -2.25 1.640625q-1.34375 0.578125 -3.125 0.578125q-1.734375 0 -3.03125 -0.515625q-1.28125 -0.515625 -2.140625 -1.5q-0.859375 -0.984375 -1.28125 -2.390625q-0.421875 -1.40625 -0.421875 -3.1875q0 -1.71875 0.4375 -3.15625q0.453125 -1.453125 1.34375 -2.5q0.90625 -1.046875 2.25 -1.6250153q1.34375 -0.578125 3.140625 -0.578125q1.734375 0 3.015625 0.515625q1.296875 0.51564026 2.15625 1.5000153q0.859375 0.984375 1.28125 2.390625q0.4375 1.40625 0.4375 3.171875zm-2.71875 0.171875q0 -1.140625 -0.21875 -2.15625q-0.203125 -1.015625 -0.6875 -1.78125q-0.484375 -0.765625 -1.3125 -1.203125q-0.828125 -0.453125 -2.0625 -0.453125q-1.140625 0 -1.96875 0.40625q-0.8125 0.40625 -1.34375 1.15625q-0.53125 0.734375 -0.796875 1.75q-0.25 1.015625 -0.25 2.21875q0 1.15625 0.203125 2.171875q0.21875 1.015625 0.703125 1.78125q0.5 0.75 1.328125 1.203125q0.828125 0.4375 2.0625 0.4375q1.125 0 1.953125 -0.40625q0.828125 -0.40625 1.359375 -1.140625q0.53125 -0.734375 0.78125 -1.75q0.25 -1.015625 0.25 -2.234375zm14.734375 -6.125q0 0.34375 -0.015625 0.578125q-0.015625 0.234375 -0.0625 0.375q-0.046875 0.125 -0.125 0.203125q-0.0625 0.0625 -0.1875 0.0625q-0.125 0 -0.3125 -0.0625q-0.171875 -0.078125 -0.40625 -0.140625q-0.21875 -0.078125 -0.5 -0.140625q-0.28125 -0.0625 -0.609375 -0.0625q-0.390625 0 -0.765625 0.15625q-0.375 0.15625 -0.796875 0.515625q-0.40625 0.359375 -0.859375 0.953125q-0.453125 0.59375 -1.0 1.453125l0 9.25q0 0.125 -0.0625 0.21875q-0.0625 0.078125 -0.203125 0.140625q-0.140625 0.0625 -0.390625 0.09375q-0.25 0.03125 -0.640625 0.03125q-0.375 0 -0.625 -0.03125q-0.25 -0.03125 -0.40625 -0.09375q-0.140625 -0.0625 -0.203125 -0.140625q-0.046875 -0.09375 -0.046875 -0.21875l0 -14.0625q0 -0.12501526 0.046875 -0.20314026q0.046875 -0.09375 0.1875 -0.15625q0.140625 -0.078125 0.359375 -0.09375q0.21875 -0.03125 0.578125 -0.03125q0.34375 0 0.5625 0.03125q0.234375 0.015625 0.359375 0.09375q0.125 0.0625 0.171875 0.15625q0.0625 0.078125 0.0625 0.20314026l0 2.046875q0.578125 -0.84375 1.078125 -1.375q0.515625 -0.53125 0.96875 -0.82814026q0.453125 -0.3125 0.890625 -0.421875q0.453125 -0.125 0.90625 -0.125q0.203125 0 0.453125 0.03125q0.265625 0.015625 0.546875 0.078125q0.28125 0.0625 0.5 0.140625q0.234375 0.078125 0.328125 0.15625q0.09375 0.078125 0.125 0.15625q0.03125 0.06251526 0.046875 0.17189026q0.03125 0.109375 0.03125 0.328125q0.015625 0.203125 0.015625 0.5625zm14.546875 13.140625q0 0.125 -0.0625 0.21875q-0.046875 0.09375 -0.1875 0.15625q-0.125 0.046875 -0.34375 0.078125q-0.21875 0.03125 -0.53125 0.03125q-0.328125 0 -0.546875 -0.03125q-0.21875 -0.03125 -0.359375 -0.078125q-0.140625 -0.0625 -0.203125 -0.15625q-0.0625 -0.09375 -0.0625 -0.21875l0 -1.859375q-1.109375 1.203125 -2.3125 1.875q-1.1875 0.671875 -2.609375 0.671875q-1.546875 0 -2.640625 -0.59375q-1.09375 -0.609375 -1.78125 -1.625q-0.671875 -1.03125 -0.984375 -2.40625q-0.3125 -1.390625 -0.3125 -2.921875q0 -1.8125 0.390625 -3.265625q0.390625 -1.46875 1.15625 -2.5q0.765625 -1.03125 1.890625 -1.5781403q1.140625 -0.5625 2.625 -0.5625q1.234375 0 2.25 0.546875q1.03125 0.53126526 2.03125 1.5781403l0 -8.17189q0 -0.109375 0.046875 -0.203125q0.0625 -0.109375 0.21875 -0.15625q0.15625 -0.0625 0.390625 -0.09375q0.25 -0.046875 0.625 -0.046875q0.390625 0 0.640625 0.046875q0.25 0.03125 0.390625 0.09375q0.140625 0.046875 0.203125 0.15625q0.078125 0.09375 0.078125 0.203125l0 20.812515zm-2.59375 -9.890625q-1.046875 -1.296875 -2.03125 -1.96875q-0.96875 -0.6875 -2.03125 -0.6875q-0.984375 0 -1.671875 0.46875q-0.6875 0.46875 -1.125 1.234375q-0.421875 0.765625 -0.625 1.734375q-0.1875 0.96875 -0.1875 1.96875q0 1.0625 0.15625 2.078125q0.171875 1.015625 0.578125 1.8125q0.40625 0.78125 1.078125 1.265625q0.671875 0.46875 1.6875 0.46875q0.515625 0 0.984375 -0.140625q0.484375 -0.140625 0.984375 -0.46875q0.5 -0.328125 1.046875 -0.84375q0.546875 -0.53125 1.15625 -1.296875l0 -5.625zm16.1875 6.0625q0 1.078125 -0.40625 1.921875q-0.390625 0.84375 -1.125 1.421875q-0.734375 0.578125 -1.75 0.875q-1.015625 0.296875 -2.234375 0.296875q-0.75 0 -1.4375 -0.125q-0.671875 -0.109375 -1.21875 -0.28125q-0.53125 -0.1875 -0.90625 -0.375q-0.375 -0.203125 -0.546875 -0.359375q-0.171875 -0.15625 -0.25 -0.4375q-0.078125 -0.28125 -0.078125 -0.765625q0 -0.296875 0.03125 -0.5q0.03125 -0.203125 0.078125 -0.328125q0.046875 -0.125 0.125 -0.171875q0.09375 -0.0625 0.203125 -0.0625q0.171875 0 0.5 0.21875q0.34375 0.203125 0.828125 0.453125q0.5 0.25 1.171875 0.46875q0.671875 0.203125 1.546875 0.203125q0.65625 0 1.1875 -0.140625q0.53125 -0.140625 0.921875 -0.40625q0.390625 -0.28125 0.59375 -0.703125q0.21875 -0.421875 0.21875 -1.0q0 -0.59375 -0.3125 -1.0q-0.296875 -0.40625 -0.796875 -0.71875q-0.5 -0.3125 -1.125 -0.546875q-0.625 -0.25 -1.296875 -0.515625q-0.65625 -0.265625 -1.296875 -0.59375q-0.625 -0.34375 -1.125 -0.828125q-0.5 -0.484375 -0.8125 -1.15625q-0.296875 -0.671875 -0.296875 -1.609375q0 -0.828125 0.3125 -1.578125q0.328125 -0.765625 0.96875 -1.328125q0.640625 -0.578125 1.59375 -0.92189026q0.96875 -0.34375 2.25 -0.34375q0.5625 0 1.125 0.09375q0.5625 0.09375 1.015625 0.234375q0.453125 0.140625 0.765625 0.31251526q0.328125 0.15625 0.484375 0.28125q0.171875 0.125 0.21875 0.21875q0.0625 0.09375 0.078125 0.21875q0.03125 0.109375 0.046875 0.28125q0.03125 0.171875 0.03125 0.421875q0 0.265625 -0.03125 0.46875q-0.015625 0.1875 -0.078125 0.3125q-0.046875 0.125 -0.125 0.1875q-0.078125 0.046875 -0.171875 0.046875q-0.140625 0 -0.40625 -0.171875q-0.265625 -0.171875 -0.6875 -0.359375q-0.421875 -0.203125 -1.0 -0.375q-0.5625 -0.171875 -1.296875 -0.171875q-0.65625 0 -1.15625 0.15625q-0.5 0.140625 -0.828125 0.421875q-0.3125 0.265625 -0.484375 0.640625q-0.15625 0.375 -0.15625 0.8125q0 0.609375 0.3125 1.03125q0.3125 0.40625 0.8125 0.71875q0.5 0.3125 1.140625 0.5625q0.640625 0.25 1.296875 0.515625q0.671875 0.265625 1.3125 0.59375q0.65625 0.328125 1.15625 0.796875q0.5 0.46875 0.796875 1.125q0.3125 0.65625 0.3125 1.5625z" fill-rule="nonzero"/><path fill="#000000" fill-opacity="0.0" d="m353.30447 190.9029l149.5748 -136.8819" fill-rule="evenodd"/><path stroke="#14914e" stroke-width="2.0" stroke-linejoin="round" stroke-linecap="butt" d="m353.30447 190.9029l144.51837 -132.25456" fill-rule="evenodd"/><path fill="#14914e" stroke="#14914e" stroke-width="2.0" stroke-linecap="butt" d="m497.82285 58.648335l-0.1408081 3.1776848l3.0402832 -5.8311234l-6.077179 2.5126343z" fill-rule="evenodd"/><path fill="#000000" fill-opacity="0.0" d="m452.23358 239.83202l30.614197 -61.38582" fill-rule="evenodd"/><path stroke="#14914e" stroke-width="2.0" stroke-linejoin="round" stroke-linecap="butt" d="m452.23358 239.83202l27.555206 -55.25212" fill-rule="evenodd"/><path fill="#14914e" stroke="#14914e" stroke-width="2.0" stroke-linecap="butt" d="m479.7888 184.5799l1.0089417 3.0165405l0.7451477 -6.5337677l-4.77063 4.526184z" fill-rule="evenodd"/><path fill="#000000" fill-opacity="0.0" d="m353.30447 190.9029l9.165344 -133.38583" fill-rule="evenodd"/><path stroke="#14914e" stroke-width="2.0" stroke-linejoin="round" stroke-linecap="butt" d="m353.30447 190.9029l8.695496 -126.54778" fill-rule="evenodd"/><path fill="#14914e" stroke="#14914e" stroke-width="2.0" stroke-linecap="butt" d="m361.99994 64.35511l2.0896912 2.398056l-1.8202515 -6.3191795l-2.6674805 6.0108147z" fill-rule="evenodd"/></g></svg>