<svg version="1.1" viewBox="0.0 0.0 706.1811023622047 268.0997375328084" fill="none" stroke="none" stroke-linecap="square" stroke-miterlimit="10" xmlns:xlink="http://www.w3.org/1999/xlink" xmlns="http://www.w3.org/2000/svg"><clipPath id="p.0"><path d="m0 0l706.1811 0l0 268.09973l-706.1811 0l0 -268.09973z" clip-rule="nonzero"/></clipPath><g clip-path="url(#p.0)"><path fill="#000000" fill-opacity="0.0" d="m0 0l706.1811 0l0 268.09973l-706.1811 0z" fill-rule="evenodd"/><path fill="#000000" fill-opacity="0.0" d="m-137.57364 -166.40756l1051.8425 0l0 494.33072l-1051.8425 0z" fill-rule="evenodd"/><path fill="#000000" d="m38.832607 32.877792q0 -2.25 -0.625 -3.75q-2.0 2.125 -3.875 3.25l-1.375 -2.25q2.625 -1.5 4.125 -3.375q-1.375 -2.75 -3.125 -4.5l1.625 -1.625q1.625 1.5 3.125 4.125q1.25 -1.5 2.25 -3.625l2.25 1.25q0.5 0.5 -0.375 0.625q-0.875 1.375 -2.875 4.125q1.5 3.25 1.5 8.875l0 7.375q0 5.125 -3.625 5.125l-2.25 0l-0.375 -2.375l1.75 0q2.125 0 2.125 -3.0l0 -6.875q-1.375 2.875 -4.75 5.5l-1.25 -2.25q3.0 -2.375 5.75 -6.625zm18.0 -5.75l0 2.5l-2.5 0l0 -2.5l-4.625 0l0 2.5l-2.5 0l0 -2.5l-4.625 0l0 -2.375l4.625 0l0 -4.25l2.375 0q1.0 0.125 0.125 0.75l0 3.5l4.625 0l0 -4.375l2.375 0q1.0 0.125 0.125 0.75l0 3.625l4.875 0l0 2.375l-4.875 0zm1.5 19.875l-12.0 0l0 1.625l-2.5 0l0 -17.625l17.0 0l0 17.25l-2.5 0l0 -1.25zm-12.0 -9.0l4.875 0l0 -4.625l-4.875 0l0 4.625zm7.0 0l5.0 0l0 -4.625l-5.0 0l0 4.625zm5.0 6.625l0 -4.625l-5.0 0l0 4.625l5.0 0zm-12.0 0l4.875 0l0 -4.625l-4.875 0l0 4.625z" fill-rule="nonzero"/><path fill="#000000" d="m139.80136 29.877792q0.25 4.75 0 9.5q3.75 1.375 7.25 3.875l-1.5 2.375q-2.625 -2.0 -5.75 -3.5q0 2.25 -1.375 3.625q-1.5 1.5 -4.375 1.5q-2.875 0 -4.375 -1.5q-1.25 -1.25 -1.25 -3.25q0 -1.75 1.0 -2.75q1.5 -1.5 4.5 -1.5q1.625 0 3.25 0.375q0.25 -4.25 0 -8.625l-9.250008 0.625l0 -2.625l9.000008 -0.5q-0.125 -3.5 -0.5 -6.25l2.625 0q1.375 0.25 0.25 1.0q0.125 2.625 0.25 5.125l6.75 -0.375l0 2.625l-6.5 0.25zm-18.875008 16.75q-0.5 -3.5 -0.5 -8.125q0 -10.125 1.5 -16.25l2.75 0.5q0.875 0.375 -0.125 0.875q-1.375 4.375 -1.375 14.875q0 4.75 0.625 7.625l-2.875 0.5zm16.250008 -5.5q-2.125 -0.625 -3.25 -0.625q-1.75 0 -2.5 0.75q-0.625 0.625 -0.625 1.25q0 1.0 0.5 1.5q0.875 0.875 2.625 0.875q1.75 0 2.5 -0.875q0.875 -1.0 0.75 -2.875z" fill-rule="nonzero"/><path fill="#000000" d="m218.89511 39.127792q2.625 2.5 4.25 4.375l-2.5 2.25q-4.75 -5.625 -10.875 -10.125l1.75 -2.25q2.25 1.375 5.0 3.875q3.75 -3.75 7.625 -9.25l-19.625 0.875l-0.5 -3.125l21.875 -0.5l1.25 -0.375l1.875 2.0q0.625 1.0 -0.5 0.875q-3.125 4.125 -9.625 11.375zm33.625 -8.5q-0.875 8.125 -4.5 11.75q-3.625 3.625 -9.5 5.75l-1.625 -2.375q5.75 -1.875 9.0 -5.125q3.5 -3.5 4.0 -11.875l2.625 0.875q1.125 0.375 0 1.0zm-10.625 4.5q-1.5 -3.375 -3.0 -5.625l2.375 -1.25q1.875 2.375 3.25 5.625l-2.625 1.25zm-6.375 1.875q-1.5 -3.5 -3.125 -5.875l2.5 -1.25q1.75 2.375 3.125 5.75l-2.5 1.375zm25.875 -6.125q6.125 1.75 12.375 4.75l-1.5 2.875q-6.625 -3.375 -10.875 -4.5l0 13.0l-2.875 0l0 -25.0l2.5 0q1.5 0.125 0.375 1.0l0 7.875z" fill-rule="nonzero"/><path fill="#000000" d="m336.97324 28.252792q-2.125 12.5 -5.125 15.5q-1.625 1.625 -3.375 1.625q-2.0 0 -3.125 -1.125q-3.0 -3.0 -3.0 -7.5q0 -5.5 3.875 -9.375q4.25 -4.25 10.375 -4.25q5.5 0 8.625 3.125q3.5 3.5 3.5 8.25q0 5.125 -3.25 8.375q-2.125 2.125 -6.5 4.125l-2.625 -2.625q4.375 -1.375 6.875 -3.875q2.375 -2.375 2.375 -5.75q0 -4.0 -2.625 -6.625q-2.625 -2.625 -8.25 -2.375l2.25 1.125q1.5 0.625 0 1.375zm-2.875 -2.375q-3.25 0.75 -5.625 3.125q-3.25 3.25 -3.25 8.0q0 2.875 1.875 4.75q0.375 0.375 1.125 0.375q0.75 0 1.625 -0.875q2.875 -2.875 4.25 -15.375z" fill-rule="nonzero"/><path fill="#000000" d="m409.55136 43.252792l0 -22.125l2.75 0q1.25 0.25 0.125 1.0l0 7.25l10.125 0l0 2.75l-10.125 0l0 11.125l13.0 0l0 2.75l-27.125 0l0 -2.75l11.25 0z" fill-rule="nonzero"/><path fill="#000000" d="m494.0045 44.377792q-5.875 0 -9.75 -3.75l1.625 -2.125q3.375 3.25 8.125 3.125l6.875 0l0 2.75l-6.875 0zm-17.875 2.375q-0.375 -6.5 -0.375 -11.125q0 -5.625 1.375 -13.375l2.5 0.625q1.375 0.25 0.125 1.125q-1.25 7.25 -1.25 11.625q0 4.875 0.5 10.875l-2.875 0.25zm23.125 -18.5q-5.375 -0.125 -14.0 0.75l0 -2.625q9.0 -0.875 14.0 -0.75l0 2.625z" fill-rule="nonzero"/><path fill="#000000" d="m573.9732 23.002792l11.375 0l0 2.375l-22.75 0l0 13.25q0 4.875 -2.875 9.625l-2.5 -1.875q2.875 -4.375 2.875 -9.625l0 -13.75l11.0 0l0 -3.125l2.75 0q1.25 0.25 0.125 1.0l0 2.125zm1.125 12.875q3.375 -4.125 3.875 -9.25l2.5 0.5q0.75 0.25 0 0.625q-0.375 1.75 -0.75 3.0q3.125 1.5 4.875 3.25l-1.625 2.5q-2.0 -2.0 -4.0 -3.625q-1.25 2.875 -2.875 4.625l-2.0 -1.5l0 2.375l8.625 0l0 2.375l-8.625 0l0 4.375l11.0 0l0 2.375l-23.5 0l0 -2.375l10.0 0l0 -4.375l-7.625 0l0 -2.375l7.625 0l0 -4.125l-1.625 2.375q-1.75 -1.75 -3.25 -2.875q-1.125 2.375 -2.75 4.125l-2.0 -1.875q3.5 -3.5 3.875 -9.0l2.5 0.5q0.75 0.25 0 0.625q-0.375 2.375 -0.75 3.5q1.5 0.375 4.0 2.375l0 -7.75l2.375 0q1.0 0.125 0.125 0.75l0 8.875zm30.625 9.375q2.0 -0.25 3.375 -1.625q1.5 -1.5 1.5 -4.0q0 -2.75 -1.625 -4.375q-1.625 -1.625 -5.125 -1.625q-4.125 0 -6.375 1.625q-2.125 1.5 -5.5 5.375l-2.125 -1.875q9.0 -9.0 13.625 -15.0q-4.125 0.5 -8.25 0.875l-0.875 -2.875q6.125 0 10.875 -0.625l1.125 -0.5l1.375 1.375q1.375 1.25 -0.625 1.625q-3.75 4.25 -7.5 8.375q2.625 -0.625 4.375 -0.625q4.75 0 7.0 2.25q2.25 2.25 2.25 5.75q0 3.625 -2.0 5.625q-3.0 3.0 -7.625 3.0q-4.375 0 -6.375 -2.0q-1.625 -1.625 -1.625 -3.875q0 -1.5 1.125 -2.625q1.25 -1.25 2.875 -1.25q2.25 0 3.75 1.5q1.75 1.75 2.375 5.5zm-2.5 0.375q-0.375 -3.25 -1.5 -4.375q-0.875 -0.875 -1.75 -0.875q-1.0 0 -1.5 0.5q-0.625 0.625 -0.625 1.375q0 1.125 1.0 2.125q1.25 1.25 3.25 1.25q0.5 0 1.125 0z" fill-rule="nonzero"/><path fill="#000000" fill-opacity="0.0" d="m60.80315 171.87665l56.94488 -56.944893" fill-rule="evenodd"/><path stroke="#212121" stroke-width="1.0" stroke-linejoin="round" stroke-linecap="butt" d="m60.80315 171.87665l56.94488 -56.944893" fill-rule="evenodd"/><path fill="#000000" fill-opacity="0.0" d="m170.82939 173.80577l-118.70866 -65.637794" fill-rule="evenodd"/><path stroke="#212121" stroke-width="1.0" stroke-linejoin="round" stroke-linecap="butt" d="m170.82939 173.80577l-118.70866 -65.637794" fill-rule="evenodd"/><path fill="#000000" fill-opacity="0.0" d="m629.27295 179.59842l-379.8425 -70.83464" fill-rule="evenodd"/><path stroke="#212121" stroke-width="1.0" stroke-linejoin="round" stroke-linecap="butt" d="m629.27295 179.59842l-379.8425 -70.83464" fill-rule="evenodd"/><path fill="#000000" fill-opacity="0.0" d="m306.91602 172.83989l308.8504 -59.842514" fill-rule="evenodd"/><path stroke="#212121" stroke-width="1.0" stroke-linejoin="round" stroke-linecap="butt" d="m306.91602 172.83989l308.8504 -59.842514" fill-rule="evenodd"/><path fill="#000000" fill-opacity="0.0" d="m411.1496 173.52756l23.779541 -66.70866" fill-rule="evenodd"/><path stroke="#212121" stroke-width="1.0" stroke-linejoin="round" stroke-linecap="butt" d="m411.1496 173.52756l23.779541 -66.70866" fill-rule="evenodd"/><path fill="#000000" fill-opacity="0.0" d="m-237.42783 164.15486l1151.4331 0l0 90.70865l-1151.4331 0z" fill-rule="evenodd"/><path fill="#3f3f3f" d="m44.87235 196.50981q0 0.34375 -0.046875 0.609375q-0.03125 0.25 -0.109375 0.40625q-0.078125 0.15625 -0.203125 0.234375q-0.125 0.0625 -0.265625 0.0625l-6.640625 0l0 20.453125q0 0.140625 -0.078125 0.25q-0.0625 0.109375 -0.25 0.171875q-0.171875 0.0625 -0.484375 0.109375q-0.296875 0.046875 -0.75 0.046875q-0.4375 0 -0.75 -0.046875q-0.3125 -0.046875 -0.5 -0.109375q-0.171875 -0.0625 -0.25 -0.171875q-0.0625 -0.109375 -0.0625 -0.25l0 -20.453125l-6.640625 0q-0.140625 0 -0.265625 -0.0625q-0.109375 -0.078125 -0.1875 -0.234375q-0.078125 -0.15625 -0.125 -0.40625q-0.046875 -0.265625 -0.046875 -0.609375q0 -0.34375 0.046875 -0.609375q0.046875 -0.265625 0.125 -0.421875q0.078125 -0.171875 0.1875 -0.234375q0.125 -0.078125 0.265625 -0.078125l16.40625 0q0.140625 0 0.265625 0.078125q0.125 0.0625 0.203125 0.234375q0.078125 0.15625 0.109375 0.421875q0.046875 0.265625 0.046875 0.609375zm17.190186 21.78125q0 0.140625 -0.078125 0.25q-0.078125 0.09375 -0.25 0.171875q-0.15625 0.0625 -0.453125 0.09375q-0.28125 0.046875 -0.71875 0.046875q-0.453125 0 -0.75 -0.046875q-0.296875 -0.03125 -0.46875 -0.09375q-0.15625 -0.078125 -0.234375 -0.171875q-0.0625 -0.109375 -0.0625 -0.25l0 -9.609375q0 -1.40625 -0.21875 -2.25q-0.21875 -0.859375 -0.640625 -1.484375q-0.421875 -0.625 -1.09375 -0.953125q-0.65625 -0.328125 -1.53125 -0.328125q-1.125 0 -2.265625 0.8125q-1.125 0.796875 -2.359375 2.34375l0 11.46875q0 0.140625 -0.078125 0.25q-0.0625 0.09375 -0.234375 0.171875q-0.15625 0.0625 -0.453125 0.09375q-0.296875 0.046875 -0.75 0.046875q-0.4375 0 -0.734375 -0.046875q-0.28125 -0.03125 -0.453125 -0.09375q-0.171875 -0.078125 -0.25 -0.171875q-0.0625 -0.109375 -0.0625 -0.25l0 -24.359375q0 -0.140625 0.0625 -0.25q0.078125 -0.109375 0.25 -0.171875q0.171875 -0.078125 0.453125 -0.109375q0.296875 -0.046875 0.734375 -0.046875q0.453125 0 0.75 0.046875q0.296875 0.03125 0.453125 0.109375q0.171875 0.0625 0.234375 0.171875q0.078125 0.109375 0.078125 0.25l0 9.828125q1.296875 -1.359375 2.609375 -2.03125q1.3125 -0.671875 2.640625 -0.671875q1.640625 0 2.75 0.5625q1.125 0.5625 1.8125 1.5q0.703125 0.921875 1.0 2.171875q0.3125 1.234375 0.3125 3.015625l0 9.984375zm19.471195 -8.921875q0 0.71875 -0.359375 1.015625q-0.34375 0.296875 -0.796875 0.296875l-10.765625 0q0 1.375 0.265625 2.46875q0.28125 1.09375 0.921875 1.875q0.640625 0.78125 1.65625 1.203125q1.03125 0.421875 2.5 0.421875q1.171875 0 2.078125 -0.1875q0.921875 -0.203125 1.578125 -0.4375q0.671875 -0.234375 1.09375 -0.421875q0.4375 -0.1875 0.65625 -0.1875q0.125 0 0.21875 0.0625q0.109375 0.0625 0.15625 0.1875q0.0625 0.125 0.078125 0.359375q0.03125 0.21875 0.03125 0.546875q0 0.234375 -0.015625 0.421875q-0.015625 0.171875 -0.046875 0.3125q-0.03125 0.125 -0.09375 0.234375q-0.0625 0.109375 -0.171875 0.21875q-0.09375 0.09375 -0.59375 0.328125q-0.484375 0.21875 -1.265625 0.4375q-0.78125 0.21875 -1.8125 0.390625q-1.03125 0.171875 -2.203125 0.171875q-2.015625 0 -3.546875 -0.5625q-1.515625 -0.5625 -2.5625 -1.671875q-1.03125 -1.109375 -1.5625 -2.78125q-0.53125 -1.6875 -0.53125 -3.90625q0 -2.125 0.546875 -3.8125q0.546875 -1.6875 1.578125 -2.859375q1.03125 -1.171875 2.484375 -1.796875q1.46875 -0.640625 3.265625 -0.640625q1.9375 0 3.296875 0.625q1.359375 0.625 2.234375 1.671875q0.875 1.046875 1.28125 2.46875q0.40625 1.40625 0.40625 3.0l0 0.546875zm-3.015625 -0.890625q0.046875 -2.359375 -1.0625 -3.703125q-1.09375 -1.359375 -3.265625 -1.359375q-1.109375 0 -1.953125 0.421875q-0.828125 0.421875 -1.40625 1.109375q-0.5625 0.6875 -0.875 1.609375q-0.296875 0.921875 -0.34375 1.921875l8.90625 0zm78.458 7.3125q0 0.3125 -0.015625 0.546875q-0.015625 0.21875 -0.0625 0.375q-0.046875 0.15625 -0.109375 0.28125q-0.0625 0.109375 -0.296875 0.34375q-0.21875 0.21875 -0.765625 0.5625q-0.546875 0.328125 -1.234375 0.59375q-0.6875 0.265625 -1.484375 0.421875q-0.796875 0.171875 -1.65625 0.171875q-1.765625 0 -3.140625 -0.578125q-1.359375 -0.578125 -2.28125 -1.703125q-0.921875 -1.125 -1.40625 -2.75q-0.484375 -1.640625 -0.484375 -3.765625q0 -2.421875 0.59375 -4.15625q0.59375 -1.75 1.625 -2.859375q1.03125 -1.125 2.421875 -1.65625q1.390625 -0.53125 3.015625 -0.53125q0.78125 0 1.515625 0.140625q0.75 0.140625 1.359375 0.390625q0.625 0.234375 1.109375 0.546875q0.484375 0.296875 0.703125 0.515625q0.21875 0.21875 0.296875 0.359375q0.078125 0.125 0.125 0.296875q0.0625 0.171875 0.078125 0.390625q0.03125 0.21875 0.03125 0.546875q0 0.703125 -0.171875 0.984375q-0.15625 0.28125 -0.40625 0.28125q-0.265625 0 -0.625 -0.296875q-0.359375 -0.296875 -0.90625 -0.65625q-0.546875 -0.375 -1.328125 -0.671875q-0.765625 -0.296875 -1.8125 -0.296875q-2.171875 0 -3.328125 1.671875q-1.15625 1.65625 -1.15625 4.828125q0 1.59375 0.296875 2.796875q0.296875 1.1875 0.875 1.984375q0.59375 0.796875 1.4375 1.1875q0.84375 0.390625 1.9375 0.390625q1.046875 0 1.828125 -0.328125q0.78125 -0.328125 1.359375 -0.71875q0.578125 -0.390625 0.96875 -0.703125q0.390625 -0.328125 0.609375 -0.328125q0.125 0 0.21875 0.078125q0.09375 0.078125 0.15625 0.25q0.0625 0.171875 0.078125 0.4375q0.03125 0.265625 0.03125 0.625zm16.036835 2.515625q0 0.21875 -0.140625 0.328125q-0.140625 0.109375 -0.40625 0.15625q-0.25 0.0625 -0.734375 0.0625q-0.484375 0 -0.765625 -0.0625q-0.28125 -0.046875 -0.40625 -0.15625q-0.125 -0.109375 -0.125 -0.328125l0 -1.640625q-1.078125 1.15625 -2.40625 1.796875q-1.3125 0.625 -2.796875 0.625q-1.296875 0 -2.34375 -0.34375q-1.046875 -0.328125 -1.78125 -0.96875q-0.734375 -0.640625 -1.15625 -1.5625q-0.40625 -0.9375 -0.40625 -2.109375q0 -1.390625 0.5625 -2.40625q0.578125 -1.03125 1.625 -1.703125q1.0625 -0.671875 2.59375 -1.0q1.53125 -0.34375 3.4375 -0.34375l2.265625 0l0 -1.28125q0 -0.953125 -0.203125 -1.671875q-0.203125 -0.734375 -0.65625 -1.21875q-0.4375 -0.484375 -1.15625 -0.71875q-0.703125 -0.25 -1.734375 -0.25q-1.109375 0 -2.0 0.265625q-0.890625 0.265625 -1.5625 0.578125q-0.65625 0.3125 -1.109375 0.578125q-0.4375 0.265625 -0.65625 0.265625q-0.140625 0 -0.25 -0.0625q-0.109375 -0.078125 -0.203125 -0.21875q-0.078125 -0.15625 -0.109375 -0.375q-0.03125 -0.234375 -0.03125 -0.5q0 -0.46875 0.0625 -0.71875q0.0625 -0.265625 0.296875 -0.5q0.25 -0.25 0.84375 -0.5625q0.609375 -0.328125 1.390625 -0.578125q0.796875 -0.265625 1.71875 -0.4375q0.9375 -0.1875 1.875 -0.1875q1.765625 0 3.0 0.40625q1.25 0.40625 2.015625 1.1875q0.765625 0.765625 1.109375 1.921875q0.34375 1.140625 0.34375 2.671875l0 11.0625zm-2.984375 -7.484375l-2.5625 0q-1.25 0 -2.15625 0.203125q-0.90625 0.203125 -1.515625 0.625q-0.59375 0.40625 -0.890625 0.984375q-0.28125 0.5625 -0.28125 1.3125q0 1.28125 0.8125 2.046875q0.8125 0.75 2.28125 0.75q1.171875 0 2.1875 -0.59375q1.015625 -0.609375 2.125 -1.859375l0 -3.46875zm16.690216 6.265625q0 0.53125 -0.078125 0.84375q-0.0625 0.296875 -0.21875 0.453125q-0.140625 0.140625 -0.4375 0.265625q-0.28125 0.125 -0.65625 0.203125q-0.375 0.09375 -0.796875 0.140625q-0.40625 0.0625 -0.828125 0.0625q-1.28125 0 -2.203125 -0.328125q-0.90625 -0.34375 -1.484375 -1.03125q-0.578125 -0.6875 -0.84375 -1.734375q-0.265625 -1.046875 -0.265625 -2.46875l0 -9.59375l-2.296875 0q-0.28125 0 -0.453125 -0.28125q-0.15625 -0.296875 -0.15625 -0.953125q0 -0.34375 0.046875 -0.578125q0.046875 -0.234375 0.125 -0.390625q0.078125 -0.15625 0.1875 -0.21875q0.125 -0.0625 0.265625 -0.0625l2.28125 0l0 -3.90625q0 -0.125 0.0625 -0.234375q0.0625 -0.109375 0.234375 -0.1875q0.171875 -0.09375 0.46875 -0.125q0.296875 -0.03125 0.734375 -0.03125q0.453125 0 0.734375 0.03125q0.296875 0.03125 0.453125 0.125q0.171875 0.078125 0.234375 0.1875q0.078125 0.109375 0.078125 0.234375l0 3.90625l4.21875 0q0.140625 0 0.25 0.0625q0.109375 0.0625 0.1875 0.21875q0.09375 0.15625 0.125 0.390625q0.03125 0.234375 0.03125 0.578125q0 0.65625 -0.171875 0.953125q-0.15625 0.28125 -0.421875 0.28125l-4.21875 0l0 9.15625q0 1.703125 0.5 2.5625q0.515625 0.859375 1.796875 0.859375q0.421875 0 0.75 -0.078125q0.328125 -0.078125 0.578125 -0.171875q0.265625 -0.09375 0.4375 -0.171875q0.1875 -0.078125 0.34375 -0.078125q0.078125 0 0.15625 0.046875q0.09375 0.046875 0.140625 0.171875q0.046875 0.125 0.078125 0.34375q0.03125 0.21875 0.03125 0.546875zm90.23511 -3.265625q0 1.265625 -0.46875 2.25q-0.46875 0.984375 -1.328125 1.65625q-0.859375 0.671875 -2.046875 1.015625q-1.171875 0.34375 -2.59375 0.34375q-0.875 0 -1.671875 -0.140625q-0.796875 -0.125 -1.421875 -0.328125q-0.625 -0.21875 -1.0625 -0.4375q-0.4375 -0.234375 -0.640625 -0.421875q-0.203125 -0.1875 -0.296875 -0.515625q-0.09375 -0.328125 -0.09375 -0.890625q0 -0.34375 0.03125 -0.578125q0.046875 -0.234375 0.09375 -0.375q0.0625 -0.15625 0.15625 -0.21875q0.109375 -0.0625 0.234375 -0.0625q0.203125 0 0.59375 0.25q0.390625 0.234375 0.96875 0.53125q0.578125 0.296875 1.359375 0.546875q0.78125 0.234375 1.796875 0.234375q0.765625 0 1.390625 -0.15625q0.625 -0.171875 1.078125 -0.484375q0.453125 -0.328125 0.6875 -0.8125q0.25 -0.5 0.25 -1.171875q0 -0.6875 -0.359375 -1.15625q-0.34375 -0.484375 -0.9375 -0.84375q-0.578125 -0.359375 -1.3125 -0.640625q-0.71875 -0.296875 -1.5 -0.59375q-0.765625 -0.3125 -1.515625 -0.703125q-0.734375 -0.390625 -1.3125 -0.953125q-0.578125 -0.578125 -0.9375 -1.359375q-0.359375 -0.78125 -0.359375 -1.875q0 -0.96875 0.375 -1.84375q0.375 -0.890625 1.125 -1.546875q0.75 -0.671875 1.859375 -1.078125q1.125 -0.40625 2.625 -0.40625q0.65625 0 1.3125 0.109375q0.65625 0.109375 1.171875 0.28125q0.53125 0.15625 0.90625 0.359375q0.375 0.1875 0.5625 0.34375q0.203125 0.140625 0.265625 0.25q0.0625 0.109375 0.078125 0.25q0.03125 0.125 0.0625 0.328125q0.03125 0.203125 0.03125 0.484375q0 0.3125 -0.03125 0.546875q-0.03125 0.21875 -0.09375 0.375q-0.0625 0.140625 -0.15625 0.203125q-0.078125 0.0625 -0.1875 0.0625q-0.171875 0 -0.484375 -0.1875q-0.3125 -0.203125 -0.8125 -0.4375q-0.484375 -0.234375 -1.15625 -0.421875q-0.65625 -0.203125 -1.515625 -0.203125q-0.765625 0 -1.34375 0.171875q-0.578125 0.171875 -0.953125 0.5q-0.375 0.3125 -0.578125 0.75q-0.1875 0.4375 -0.1875 0.9375q0 0.71875 0.359375 1.203125q0.375 0.484375 0.953125 0.84375q0.59375 0.359375 1.328125 0.65625q0.75 0.296875 1.53125 0.609375q0.78125 0.296875 1.53125 0.6875q0.75 0.375 1.328125 0.921875q0.59375 0.546875 0.953125 1.3125q0.359375 0.765625 0.359375 1.828125zm7.3026733 4.46875q0 0.140625 -0.078125 0.25q-0.0625 0.09375 -0.234375 0.171875q-0.15625 0.0625 -0.453125 0.09375q-0.296875 0.046875 -0.75 0.046875q-0.4375 0 -0.734375 -0.046875q-0.28125 -0.03125 -0.453125 -0.09375q-0.171875 -0.078125 -0.25 -0.171875q-0.0625 -0.109375 -0.0625 -0.25l0 -16.40625q0 -0.125 0.0625 -0.234375q0.078125 -0.109375 0.25 -0.1875q0.171875 -0.078125 0.453125 -0.109375q0.296875 -0.03125 0.734375 -0.03125q0.453125 0 0.75 0.03125q0.296875 0.03125 0.453125 0.109375q0.171875 0.078125 0.234375 0.1875q0.078125 0.109375 0.078125 0.234375l0 16.40625zm0.34375 -21.953125q0 1.0625 -0.40625 1.453125q-0.390625 0.375 -1.46875 0.375q-1.0625 0 -1.453125 -0.375q-0.390625 -0.375 -0.390625 -1.40625q0 -1.0625 0.390625 -1.4375q0.40625 -0.390625 1.484375 -0.390625q1.0625 0 1.453125 0.375q0.390625 0.375 0.390625 1.40625zm13.738403 20.75q0 0.53125 -0.078125 0.84375q-0.0625 0.296875 -0.21875 0.453125q-0.140625 0.140625 -0.4375 0.265625q-0.28125 0.125 -0.65625 0.203125q-0.375 0.09375 -0.796875 0.140625q-0.40625 0.0625 -0.828125 0.0625q-1.28125 0 -2.203125 -0.328125q-0.90625 -0.34375 -1.484375 -1.03125q-0.578125 -0.6875 -0.84375 -1.734375q-0.265625 -1.046875 -0.265625 -2.46875l0 -9.59375l-2.296875 0q-0.28125 0 -0.453125 -0.28125q-0.15625 -0.296875 -0.15625 -0.953125q0 -0.34375 0.046875 -0.578125q0.046875 -0.234375 0.125 -0.390625q0.078125 -0.15625 0.1875 -0.21875q0.125 -0.0625 0.265625 -0.0625l2.28125 0l0 -3.90625q0 -0.125 0.0625 -0.234375q0.0625 -0.109375 0.234375 -0.1875q0.171875 -0.09375 0.46875 -0.125q0.296875 -0.03125 0.734375 -0.03125q0.453125 0 0.734375 0.03125q0.296875 0.03125 0.453125 0.125q0.171875 0.078125 0.234375 0.1875q0.078125 0.109375 0.078125 0.234375l0 3.90625l4.21875 0q0.140625 0 0.25 0.0625q0.109375 0.0625 0.1875 0.21875q0.09375 0.15625 0.125 0.390625q0.03125 0.234375 0.03125 0.578125q0 0.65625 -0.171875 0.953125q-0.15625 0.28125 -0.421875 0.28125l-4.21875 0l0 9.15625q0 1.703125 0.5 2.5625q0.515625 0.859375 1.796875 0.859375q0.421875 0 0.75 -0.078125q0.328125 -0.078125 0.578125 -0.171875q0.265625 -0.09375 0.4375 -0.171875q0.1875 -0.078125 0.34375 -0.078125q0.078125 0 0.15625 0.046875q0.09375 0.046875 0.140625 0.171875q0.046875 0.125 0.078125 0.34375q0.03125 0.21875 0.03125 0.546875zm14.284729 -3.265625q0 1.265625 -0.46875 2.25q-0.46875 0.984375 -1.328125 1.65625q-0.859375 0.671875 -2.046875 1.015625q-1.171875 0.34375 -2.59375 0.34375q-0.875 0 -1.671875 -0.140625q-0.796875 -0.125 -1.421875 -0.328125q-0.625 -0.21875 -1.0625 -0.4375q-0.4375 -0.234375 -0.640625 -0.421875q-0.203125 -0.1875 -0.296875 -0.515625q-0.09375 -0.328125 -0.09375 -0.890625q0 -0.34375 0.03125 -0.578125q0.046875 -0.234375 0.09375 -0.375q0.0625 -0.15625 0.15625 -0.21875q0.109375 -0.0625 0.234375 -0.0625q0.203125 0 0.59375 0.25q0.390625 0.234375 0.96875 0.53125q0.578125 0.296875 1.359375 0.546875q0.78125 0.234375 1.796875 0.234375q0.765625 0 1.390625 -0.15625q0.625 -0.171875 1.078125 -0.484375q0.453125 -0.328125 0.6875 -0.8125q0.25 -0.5 0.25 -1.171875q0 -0.6875 -0.359375 -1.15625q-0.34375 -0.484375 -0.9375 -0.84375q-0.578125 -0.359375 -1.3125 -0.640625q-0.71875 -0.296875 -1.5 -0.59375q-0.765625 -0.3125 -1.515625 -0.703125q-0.734375 -0.390625 -1.3125 -0.953125q-0.578125 -0.578125 -0.9375 -1.359375q-0.359375 -0.78125 -0.359375 -1.875q0 -0.96875 0.375 -1.84375q0.375 -0.890625 1.125 -1.546875q0.75 -0.671875 1.859375 -1.078125q1.125 -0.40625 2.625 -0.40625q0.65625 0 1.3125 0.109375q0.65625 0.109375 1.171875 0.28125q0.53125 0.15625 0.90625 0.359375q0.375 0.1875 0.5625 0.34375q0.203125 0.140625 0.265625 0.25q0.0625 0.109375 0.078125 0.25q0.03125 0.125 0.0625 0.328125q0.03125 0.203125 0.03125 0.484375q0 0.3125 -0.03125 0.546875q-0.03125 0.21875 -0.09375 0.375q-0.0625 0.140625 -0.15625 0.203125q-0.078125 0.0625 -0.1875 0.0625q-0.171875 0 -0.484375 -0.1875q-0.3125 -0.203125 -0.8125 -0.4375q-0.484375 -0.234375 -1.15625 -0.421875q-0.65625 -0.203125 -1.515625 -0.203125q-0.765625 0 -1.34375 0.171875q-0.578125 0.171875 -0.953125 0.5q-0.375 0.3125 -0.578125 0.75q-0.1875 0.4375 -0.1875 0.9375q0 0.71875 0.359375 1.203125q0.375 0.484375 0.953125 0.84375q0.59375 0.359375 1.328125 0.65625q0.75 0.296875 1.53125 0.609375q0.78125 0.296875 1.53125 0.6875q0.75 0.375 1.328125 0.921875q0.59375 0.546875 0.953125 1.3125q0.359375 0.765625 0.359375 1.828125zm78.625244 -3.921875q0 2.015625 -0.53125 3.703125q-0.53125 1.671875 -1.578125 2.90625q-1.046875 1.21875 -2.625 1.90625q-1.578125 0.671875 -3.65625 0.671875q-2.015625 0 -3.53125 -0.59375q-1.5 -0.609375 -2.5 -1.75q-1.0 -1.15625 -1.5 -2.796875q-0.484375 -1.640625 -0.484375 -3.71875q0 -2.0 0.515625 -3.6875q0.515625 -1.6875 1.5625 -2.90625q1.0625 -1.21875 2.625 -1.890625q1.5625 -0.6875 3.65625 -0.6875q2.03125 0 3.53125 0.609375q1.5 0.59375 2.5 1.75q1.015625 1.140625 1.515625 2.78125q0.5 1.640625 0.5 3.703125zm-3.171875 0.203125q0 -1.328125 -0.25 -2.515625q-0.25 -1.1875 -0.8125 -2.078125q-0.5625 -0.890625 -1.53125 -1.40625q-0.96875 -0.53125 -2.40625 -0.53125q-1.328125 0 -2.28125 0.484375q-0.953125 0.46875 -1.578125 1.34375q-0.625 0.859375 -0.921875 2.046875q-0.296875 1.1875 -0.296875 2.578125q0 1.359375 0.234375 2.546875q0.25 1.171875 0.828125 2.0625q0.578125 0.890625 1.53125 1.40625q0.96875 0.515625 2.421875 0.515625q1.3125 0 2.265625 -0.46875q0.96875 -0.484375 1.59375 -1.328125q0.625 -0.859375 0.90625 -2.046875q0.296875 -1.1875 0.296875 -2.609375zm21.731567 8.1875q0 0.140625 -0.078125 0.25q-0.078125 0.09375 -0.25 0.171875q-0.15625 0.0625 -0.453125 0.09375q-0.28125 0.046875 -0.71875 0.046875q-0.453125 0 -0.75 -0.046875q-0.296875 -0.03125 -0.46875 -0.09375q-0.15625 -0.078125 -0.234375 -0.171875q-0.0625 -0.109375 -0.0625 -0.25l0 -9.609375q0 -1.40625 -0.21875 -2.25q-0.21875 -0.859375 -0.640625 -1.484375q-0.421875 -0.625 -1.09375 -0.953125q-0.65625 -0.328125 -1.53125 -0.328125q-1.125 0 -2.265625 0.8125q-1.125 0.796875 -2.359375 2.34375l0 11.46875q0 0.140625 -0.078125 0.25q-0.0625 0.09375 -0.234375 0.171875q-0.15625 0.0625 -0.453125 0.09375q-0.296875 0.046875 -0.75 0.046875q-0.4375 0 -0.734375 -0.046875q-0.28125 -0.03125 -0.453125 -0.09375q-0.171875 -0.078125 -0.25 -0.171875q-0.0625 -0.109375 -0.0625 -0.25l0 -16.40625q0 -0.140625 0.046875 -0.234375q0.0625 -0.109375 0.21875 -0.1875q0.171875 -0.09375 0.421875 -0.109375q0.265625 -0.03125 0.6875 -0.03125q0.40625 0 0.65625 0.03125q0.265625 0.015625 0.40625 0.109375q0.15625 0.078125 0.21875 0.1875q0.0625 0.09375 0.0625 0.234375l0 2.171875q1.390625 -1.546875 2.765625 -2.265625q1.375 -0.734375 2.78125 -0.734375q1.640625 0 2.75 0.5625q1.125 0.5625 1.8125 1.5q0.703125 0.921875 1.0 2.171875q0.3125 1.234375 0.3125 2.984375l0 10.015625zm64.63611 -1.203125q0 0.53125 -0.078125 0.84375q-0.0625 0.296875 -0.21875 0.453125q-0.140625 0.140625 -0.4375 0.265625q-0.28125 0.125 -0.65625 0.203125q-0.375 0.09375 -0.796875 0.140625q-0.40625 0.0625 -0.828125 0.0625q-1.28125 0 -2.203125 -0.328125q-0.90625 -0.34375 -1.484375 -1.03125q-0.578125 -0.6875 -0.84375 -1.734375q-0.265625 -1.046875 -0.265625 -2.46875l0 -9.59375l-2.296875 0q-0.28125 0 -0.453125 -0.28125q-0.15625 -0.296875 -0.15625 -0.953125q0 -0.34375 0.046875 -0.578125q0.046875 -0.234375 0.125 -0.390625q0.078125 -0.15625 0.1875 -0.21875q0.125 -0.0625 0.265625 -0.0625l2.28125 0l0 -3.90625q0 -0.125 0.0625 -0.234375q0.0625 -0.109375 0.234375 -0.1875q0.171875 -0.09375 0.46875 -0.125q0.296875 -0.03125 0.734375 -0.03125q0.453125 0 0.734375 0.03125q0.296875 0.03125 0.453125 0.125q0.171875 0.078125 0.234375 0.1875q0.078125 0.109375 0.078125 0.234375l0 3.90625l4.21875 0q0.140625 0 0.25 0.0625q0.109375 0.0625 0.1875 0.21875q0.09375 0.15625 0.125 0.390625q0.03125 0.234375 0.03125 0.578125q0 0.65625 -0.171875 0.953125q-0.15625 0.28125 -0.421875 0.28125l-4.21875 0l0 9.15625q0 1.703125 0.5 2.5625q0.515625 0.859375 1.796875 0.859375q0.421875 0 0.75 -0.078125q0.328125 -0.078125 0.578125 -0.171875q0.265625 -0.09375 0.4375 -0.171875q0.1875 -0.078125 0.34375 -0.078125q0.078125 0 0.15625 0.046875q0.09375 0.046875 0.140625 0.171875q0.046875 0.125 0.078125 0.34375q0.03125 0.21875 0.03125 0.546875zm18.112854 1.203125q0 0.140625 -0.078125 0.25q-0.078125 0.09375 -0.25 0.171875q-0.15625 0.0625 -0.453125 0.09375q-0.28125 0.046875 -0.71875 0.046875q-0.453125 0 -0.75 -0.046875q-0.296875 -0.03125 -0.46875 -0.09375q-0.15625 -0.078125 -0.234375 -0.171875q-0.0625 -0.109375 -0.0625 -0.25l0 -9.609375q0 -1.40625 -0.21875 -2.25q-0.21875 -0.859375 -0.640625 -1.484375q-0.421875 -0.625 -1.09375 -0.953125q-0.65625 -0.328125 -1.53125 -0.328125q-1.125 0 -2.265625 0.8125q-1.125 0.796875 -2.359375 2.34375l0 11.46875q0 0.140625 -0.078125 0.25q-0.0625 0.09375 -0.234375 0.171875q-0.15625 0.0625 -0.453125 0.09375q-0.296875 0.046875 -0.75 0.046875q-0.4375 0 -0.734375 -0.046875q-0.28125 -0.03125 -0.453125 -0.09375q-0.171875 -0.078125 -0.25 -0.171875q-0.0625 -0.109375 -0.0625 -0.25l0 -24.359375q0 -0.140625 0.0625 -0.25q0.078125 -0.109375 0.25 -0.171875q0.171875 -0.078125 0.453125 -0.109375q0.296875 -0.046875 0.734375 -0.046875q0.453125 0 0.75 0.046875q0.296875 0.03125 0.453125 0.109375q0.171875 0.0625 0.234375 0.171875q0.078125 0.109375 0.078125 0.25l0 9.828125q1.296875 -1.359375 2.609375 -2.03125q1.3125 -0.671875 2.640625 -0.671875q1.640625 0 2.75 0.5625q1.125 0.5625 1.8125 1.5q0.703125 0.921875 1.0 2.171875q0.3125 1.234375 0.3125 3.015625l0 9.984375zm19.471283 -8.921875q0 0.71875 -0.35940552 1.015625q-0.34375 0.296875 -0.796875 0.296875l-10.765625 0q0 1.375 0.265625 2.46875q0.28125 1.09375 0.921875 1.875q0.640625 0.78125 1.65625 1.203125q1.03125 0.421875 2.5 0.421875q1.171875 0 2.078125 -0.1875q0.921875 -0.203125 1.578125 -0.4375q0.671875 -0.234375 1.09375 -0.421875q0.4375 -0.1875 0.65625 -0.1875q0.125 0 0.21875 0.0625q0.109375 0.0625 0.15625 0.1875q0.0625 0.125 0.078125 0.359375q0.03125 0.21875 0.03125 0.546875q0 0.234375 -0.015625 0.421875q-0.015625 0.171875 -0.046875 0.3125q-0.03125 0.125 -0.09375 0.234375q-0.0625 0.109375 -0.171875 0.21875q-0.09375 0.09375 -0.59375 0.328125q-0.484375 0.21875 -1.265625 0.4375q-0.78125 0.21875 -1.8125 0.390625q-1.03125 0.171875 -2.203125 0.171875q-2.015625 0 -3.546875 -0.5625q-1.515625 -0.5625 -2.5625 -1.671875q-1.03125 -1.109375 -1.5625 -2.78125q-0.53125 -1.6875 -0.53125 -3.90625q0 -2.125 0.546875 -3.8125q0.546875 -1.6875 1.578125 -2.859375q1.03125 -1.171875 2.484375 -1.796875q1.46875 -0.640625 3.265625 -0.640625q1.9375 0 3.296875 0.625q1.359375 0.625 2.234375 1.671875q0.875 1.046875 1.28125 2.46875q0.40628052 1.40625 0.40628052 3.0l0 0.546875zm-3.0156555 -0.890625q0.046875 -2.359375 -1.0625 -3.703125q-1.09375 -1.359375 -3.265625 -1.359375q-1.109375 0 -1.953125 0.421875q-0.828125 0.421875 -1.40625 1.109375q-0.5625 0.6875 -0.875 1.609375q-0.296875 0.921875 -0.34375 1.921875l8.90625 0zm107.88284 9.8125q0 0.140625 -0.078125 0.25q-0.078125 0.09375 -0.25 0.171875q-0.15625 0.0625 -0.453125 0.09375q-0.28125 0.046875 -0.71875 0.046875q-0.453125 0 -0.75 -0.046875q-0.28125 -0.03125 -0.46875 -0.09375q-0.171875 -0.078125 -0.25 -0.171875q-0.0625 -0.109375 -0.0625 -0.25l0 -9.96875q0 -1.046875 -0.1875 -1.890625q-0.171875 -0.859375 -0.578125 -1.484375q-0.40625 -0.625 -1.03125 -0.953125q-0.609375 -0.328125 -1.453125 -0.328125q-1.03125 0 -2.078125 0.8125q-1.046875 0.796875 -2.3125 2.34375l0 11.46875q0 0.140625 -0.078125 0.25q-0.0625 0.09375 -0.234375 0.171875q-0.171875 0.0625 -0.46875 0.09375q-0.28125 0.046875 -0.71875 0.046875q-0.421875 0 -0.734375 -0.046875q-0.296875 -0.03125 -0.46875 -0.09375q-0.171875 -0.078125 -0.234375 -0.171875q-0.0625 -0.109375 -0.0625 -0.25l0 -9.96875q0 -1.046875 -0.203125 -1.890625q-0.203125 -0.859375 -0.609375 -1.484375q-0.390625 -0.625 -1.0 -0.953125q-0.609375 -0.328125 -1.453125 -0.328125q-1.03125 0 -2.09375 0.8125q-1.0625 0.796875 -2.296875 2.34375l0 11.46875q0 0.140625 -0.078125 0.25q-0.0625 0.09375 -0.234375 0.171875q-0.15625 0.0625 -0.453125 0.09375q-0.296875 0.046875 -0.75 0.046875q-0.4375 0 -0.734375 -0.046875q-0.28125 -0.03125 -0.453125 -0.09375q-0.171875 -0.078125 -0.25 -0.171875q-0.0625 -0.109375 -0.0625 -0.25l0 -16.40625q0 -0.140625 0.046875 -0.234375q0.0625 -0.109375 0.21875 -0.1875q0.171875 -0.09375 0.421875 -0.109375q0.265625 -0.03125 0.6875 -0.03125q0.40625 0 0.65625 0.03125q0.265625 0.015625 0.40625 0.109375q0.15625 0.078125 0.21875 0.1875q0.0625 0.09375 0.0625 0.234375l0 2.171875q1.390625 -1.546875 2.6875 -2.265625q1.3125 -0.734375 2.640625 -0.734375q1.015625 0 1.828125 0.25q0.8125 0.234375 1.421875 0.671875q0.625 0.421875 1.0625 1.015625q0.4375 0.578125 0.734375 1.3125q0.828125 -0.890625 1.5625 -1.5q0.734375 -0.625 1.40625 -1.0q0.6875 -0.390625 1.328125 -0.5625q0.65625 -0.1875 1.3125 -0.1875q1.59375 0 2.65625 0.5625q1.078125 0.5625 1.75 1.5q0.671875 0.921875 0.953125 2.171875q0.28125 1.234375 0.28125 2.625l0 10.375zm17.83435 0.015625q0 0.21875 -0.140625 0.328125q-0.140625 0.109375 -0.40625 0.15625q-0.25 0.0625 -0.734375 0.0625q-0.484375 0 -0.765625 -0.0625q-0.28125 -0.046875 -0.40625 -0.15625q-0.125 -0.109375 -0.125 -0.328125l0 -1.640625q-1.078125 1.15625 -2.40625 1.796875q-1.3125 0.625 -2.796875 0.625q-1.296875 0 -2.34375 -0.34375q-1.046875 -0.328125 -1.78125 -0.96875q-0.734375 -0.640625 -1.15625 -1.5625q-0.40625 -0.9375 -0.40625 -2.109375q0 -1.390625 0.5625 -2.40625q0.578125 -1.03125 1.625 -1.703125q1.0625 -0.671875 2.59375 -1.0q1.53125 -0.34375 3.4375 -0.34375l2.265625 0l0 -1.28125q0 -0.953125 -0.203125 -1.671875q-0.203125 -0.734375 -0.65625 -1.21875q-0.4375 -0.484375 -1.15625 -0.71875q-0.703125 -0.25 -1.734375 -0.25q-1.109375 0 -2.0 0.265625q-0.890625 0.265625 -1.5625 0.578125q-0.65625 0.3125 -1.109375 0.578125q-0.4375 0.265625 -0.65625 0.265625q-0.140625 0 -0.25 -0.0625q-0.109375 -0.078125 -0.203125 -0.21875q-0.078125 -0.15625 -0.109375 -0.375q-0.03125 -0.234375 -0.03125 -0.5q0 -0.46875 0.0625 -0.71875q0.0625 -0.265625 0.296875 -0.5q0.25 -0.25 0.84375 -0.5625q0.609375 -0.328125 1.390625 -0.578125q0.796875 -0.265625 1.71875 -0.4375q0.9375 -0.1875 1.875 -0.1875q1.765625 0 3.0 0.40625q1.25 0.40625 2.015625 1.1875q0.765625 0.765625 1.109375 1.921875q0.34375 1.140625 0.34375 2.671875l0 11.0625zm-2.984375 -7.484375l-2.5625 0q-1.25 0 -2.15625 0.203125q-0.90625 0.203125 -1.515625 0.625q-0.59375 0.40625 -0.890625 0.984375q-0.28125 0.5625 -0.28125 1.3125q0 1.28125 0.8125 2.046875q0.8125 0.75 2.28125 0.75q1.171875 0 2.1875 -0.59375q1.015625 -0.609375 2.125 -1.859375l0 -3.46875zm16.690247 6.265625q0 0.53125 -0.078125 0.84375q-0.0625 0.296875 -0.21875 0.453125q-0.140625 0.140625 -0.4375 0.265625q-0.28125 0.125 -0.65625 0.203125q-0.375 0.09375 -0.796875 0.140625q-0.40625 0.0625 -0.828125 0.0625q-1.28125 0 -2.203125 -0.328125q-0.90625 -0.34375 -1.484375 -1.03125q-0.578125 -0.6875 -0.84375 -1.734375q-0.265625 -1.046875 -0.265625 -2.46875l0 -9.59375l-2.296875 0q-0.28125 0 -0.453125 -0.28125q-0.15625 -0.296875 -0.15625 -0.953125q0 -0.34375 0.046875 -0.578125q0.046875 -0.234375 0.125 -0.390625q0.078125 -0.15625 0.1875 -0.21875q0.125 -0.0625 0.265625 -0.0625l2.28125 0l0 -3.90625q0 -0.125 0.0625 -0.234375q0.0625 -0.109375 0.234375 -0.1875q0.171875 -0.09375 0.46875 -0.125q0.296875 -0.03125 0.734375 -0.03125q0.453125 0 0.734375 0.03125q0.296875 0.03125 0.453125 0.125q0.171875 0.078125 0.234375 0.1875q0.078125 0.109375 0.078125 0.234375l0 3.90625l4.21875 0q0.140625 0 0.25 0.0625q0.109375 0.0625 0.1875 0.21875q0.09375 0.15625 0.125 0.390625q0.03125 0.234375 0.03125 0.578125q0 0.65625 -0.171875 0.953125q-0.15625 0.28125 -0.421875 0.28125l-4.21875 0l0 9.15625q0 1.703125 0.5 2.5625q0.515625 0.859375 1.796875 0.859375q0.421875 0 0.75 -0.078125q0.328125 -0.078125 0.578125 -0.171875q0.265625 -0.09375 0.4375 -0.171875q0.1875 -0.078125 0.34375 -0.078125q0.078125 0 0.15625 0.046875q0.09375 0.046875 0.140625 0.171875q0.046875 0.125 0.078125 0.34375q0.03125 0.21875 0.03125 0.546875z" fill-rule="nonzero"/></g></svg>