<svg version="1.1" viewBox="0.0 0.0 1214.740157480315 567.9842519685039" fill="none" stroke="none" stroke-linecap="square" stroke-miterlimit="10" xmlns:xlink="http://www.w3.org/1999/xlink" xmlns="http://www.w3.org/2000/svg"><clipPath id="p.0"><path d="m0 0l1214.7401 0l0 567.98425l-1214.7401 0l0 -567.98425z" clip-rule="nonzero"/></clipPath><g clip-path="url(#p.0)"><path fill="#000000" fill-opacity="0.0" d="m0 0l1214.7401 0l0 567.98425l-1214.7401 0z" fill-rule="evenodd"/><path fill="#000000" fill-opacity="0.0" d="m1090.0336 124.50394c6.7559814 19.785217 210.40161 81.553375 40.535522 118.71129c-169.86621 37.157913 -887.7752 69.16884 -1059.7323 104.23622c-171.95712 35.067352 23.324585 88.47333 27.989502 106.16797" fill-rule="evenodd"/><path stroke="#212121" stroke-width="3.0" stroke-linejoin="round" stroke-linecap="butt" d="m1090.0336 124.50394c6.7559814 19.785217 210.40161 81.553375 40.535522 118.71129c-169.86615 37.157913 -887.7752 69.16887 -1059.7323 104.23622c-85.97857 17.533722 -80.14742 39.652008 -52.238518 59.598755c13.9544525 9.973389 33.428345 19.40384 49.705177 27.4469c8.13842 4.021515 15.47757 7.696167 20.927902 10.9184265c0.6812897 0.40274048 1.3330688 0.7984619 1.9531937 1.1869202l0.08029938 0.050720215" fill-rule="evenodd"/><path fill="#212121" stroke="#212121" stroke-width="3.0" stroke-linecap="butt" d="m91.264824 446.65317l-4.7672043 0.19528198l9.103142 3.799347l-4.5312424 -8.761841z" fill-rule="evenodd"/><path fill="#b0dd46" fill-opacity="0.8039" d="m98.75197 424.92773l0 0c0 -7.0073547 5.6805725 -12.687927 12.68792 -12.687927l87.88401 0c3.365036 0 6.5922546 1.3367615 8.97171 3.716217c2.3794403 2.3794556 3.7162018 5.606659 3.7162018 8.97171l0 50.750153c0 7.007324 -5.6805725 12.687927 -12.687912 12.687927l-87.88401 0c-7.007347 0 -12.68792 -5.680603 -12.68792 -12.687927z" fill-rule="evenodd"/><path stroke="#212121" stroke-width="1.0" stroke-linejoin="round" stroke-linecap="butt" d="m98.75197 424.92773l0 0c0 -7.0073547 5.6805725 -12.687927 12.68792 -12.687927l87.88401 0c3.365036 0 6.5922546 1.3367615 8.97171 3.716217c2.3794403 2.3794556 3.7162018 5.606659 3.7162018 8.97171l0 50.750153c0 7.007324 -5.6805725 12.687927 -12.687912 12.687927l-87.88401 0c-7.007347 0 -12.68792 -5.680603 -12.68792 -12.687927z" fill-rule="evenodd"/><path fill="#b0dd46" fill-opacity="0.8039" d="m276.92392 424.92773l0 0c0 -7.0073547 5.6805725 -12.687927 12.687927 -12.687927l87.884 0c3.3650513 0 6.5922546 1.3367615 8.97171 3.716217c2.3794556 2.3794556 3.716217 5.606659 3.716217 8.97171l0 50.750153c0 7.007324 -5.6805725 12.687927 -12.687927 12.687927l-87.884 0c-7.0073547 0 -12.687927 -5.680603 -12.687927 -12.687927z" fill-rule="evenodd"/><path stroke="#212121" stroke-width="1.0" stroke-linejoin="round" stroke-linecap="butt" d="m276.92392 424.92773l0 0c0 -7.0073547 5.6805725 -12.687927 12.687927 -12.687927l87.884 0c3.3650513 0 6.5922546 1.3367615 8.97171 3.716217c2.3794556 2.3794556 3.716217 5.606659 3.716217 8.97171l0 50.750153c0 7.007324 -5.6805725 12.687927 -12.687927 12.687927l-87.884 0c-7.0073547 0 -12.687927 -5.680603 -12.687927 -12.687927z" fill-rule="evenodd"/><path fill="#b0dd46" fill-opacity="0.8039" d="m455.0959 424.92773l0 0c0 -7.0073547 5.6805725 -12.687927 12.687927 -12.687927l87.88397 0c3.3650513 0 6.592285 1.3367615 8.971741 3.716217c2.3794556 2.3794556 3.7161865 5.606659 3.7161865 8.97171l0 50.750153c0 7.007324 -5.680542 12.687927 -12.687927 12.687927l-87.88397 0c-7.0073547 0 -12.687927 -5.680603 -12.687927 -12.687927z" fill-rule="evenodd"/><path stroke="#212121" stroke-width="1.0" stroke-linejoin="round" stroke-linecap="butt" d="m455.0959 424.92773l0 0c0 -7.0073547 5.6805725 -12.687927 12.687927 -12.687927l87.88397 0c3.3650513 0 6.592285 1.3367615 8.971741 3.716217c2.3794556 2.3794556 3.7161865 5.606659 3.7161865 8.97171l0 50.750153c0 7.007324 -5.680542 12.687927 -12.687927 12.687927l-87.88397 0c-7.0073547 0 -12.687927 -5.680603 -12.687927 -12.687927z" fill-rule="evenodd"/><path fill="#000000" fill-opacity="0.0" d="m106.7078 349.1811l97.35433 0l0 58.740173l-97.35433 0z" fill-rule="evenodd"/><path fill="#000000" d="m146.58028 369.8386q0 0.296875 -0.03125 0.515625q-0.03125 0.21875 -0.109375 0.359375q-0.0625 0.125 -0.171875 0.1875q-0.09375 0.0625 -0.21875 0.0625l-5.6875 0l0 17.53125q0 0.125 -0.0625 0.21875q-0.0625 0.09375 -0.21875 0.15625q-0.15625 0.046875 -0.421875 0.078125q-0.25 0.046875 -0.640625 0.046875q-0.375 0 -0.640625 -0.046875q-0.265625 -0.03125 -0.421875 -0.078125q-0.15625 -0.0625 -0.21875 -0.15625q-0.0625 -0.09375 -0.0625 -0.21875l0 -17.53125l-5.6875 0q-0.125 0 -0.234375 -0.0625q-0.09375 -0.0625 -0.15625 -0.1875q-0.0625 -0.140625 -0.109375 -0.359375q-0.03125 -0.21875 -0.03125 -0.515625q0 -0.296875 0.03125 -0.515625q0.046875 -0.234375 0.109375 -0.375q0.0625 -0.140625 0.15625 -0.203125q0.109375 -0.0625 0.234375 -0.0625l14.0625 0q0.125 0 0.21875 0.0625q0.109375 0.0625 0.171875 0.203125q0.078125 0.140625 0.109375 0.375q0.03125 0.21875 0.03125 0.515625zm14.734375 18.671875q0 0.125 -0.0625 0.21875q-0.0625 0.078125 -0.203125 0.140625q-0.140625 0.0625 -0.390625 0.09375q-0.25 0.03125 -0.625 0.03125q-0.390625 0 -0.640625 -0.03125q-0.25 -0.03125 -0.390625 -0.09375q-0.140625 -0.0625 -0.203125 -0.140625q-0.0625 -0.09375 -0.0625 -0.21875l0 -8.234375q0 -1.203125 -0.1875 -1.9375q-0.1875 -0.734375 -0.546875 -1.265625q-0.359375 -0.53125 -0.9375 -0.8125q-0.5625 -0.28125 -1.3125 -0.28125q-0.96875 0 -1.9375 0.6875q-0.96875 0.6875 -2.03125 2.015625l0 9.828125q0 0.125 -0.0625 0.21875q-0.0625 0.078125 -0.203125 0.140625q-0.140625 0.0625 -0.390625 0.09375q-0.25 0.03125 -0.640625 0.03125q-0.375 0 -0.625 -0.03125q-0.25 -0.03125 -0.40625 -0.09375q-0.140625 -0.0625 -0.203125 -0.140625q-0.046875 -0.09375 -0.046875 -0.21875l0 -20.875q0 -0.125 0.046875 -0.21875q0.0625 -0.09375 0.203125 -0.15625q0.15625 -0.0625 0.40625 -0.09375q0.25 -0.03125 0.625 -0.03125q0.390625 0 0.640625 0.03125q0.25 0.03125 0.390625 0.09375q0.140625 0.0625 0.203125 0.15625q0.0625 0.09375 0.0625 0.21875l0 8.421875q1.109375 -1.171875 2.234375 -1.734375q1.125 -0.578125 2.265625 -0.578125q1.40625 0 2.359375 0.484375q0.96875 0.46875 1.5625 1.265625q0.59375 0.796875 0.84375 1.875q0.265625 1.0625 0.265625 2.578125l0 8.5625zm16.703125 -7.640625q0 0.609375 -0.3125 0.875q-0.296875 0.25 -0.6875 0.25l-9.21875 0q0 1.171875 0.234375 2.109375q0.234375 0.9375 0.78125 1.609375q0.546875 0.671875 1.421875 1.03125q0.875 0.359375 2.140625 0.359375q1.0 0 1.78125 -0.15625q0.78125 -0.171875 1.34375 -0.375q0.578125 -0.203125 0.9375 -0.359375q0.375 -0.171875 0.5625 -0.171875q0.109375 0 0.1875 0.0625q0.09375 0.046875 0.140625 0.15625q0.046875 0.109375 0.0625 0.3125q0.03125 0.1875 0.03125 0.46875q0 0.203125 -0.015625 0.359375q-0.015625 0.140625 -0.046875 0.265625q-0.015625 0.109375 -0.078125 0.203125q-0.046875 0.09375 -0.140625 0.1875q-0.078125 0.078125 -0.5 0.28125q-0.421875 0.1875 -1.09375 0.375q-0.671875 0.1875 -1.5625 0.328125q-0.875 0.15625 -1.875 0.15625q-1.734375 0 -3.046875 -0.484375q-1.296875 -0.484375 -2.1875 -1.4375q-0.890625 -0.953125 -1.34375 -2.390625q-0.453125 -1.4375 -0.453125 -3.34375q0 -1.8125 0.46875 -3.25q0.46875 -1.453125 1.34375 -2.453125q0.890625 -1.015625 2.140625 -1.546875q1.25 -0.546875 2.796875 -0.546875q1.65625 0 2.8125 0.53125q1.171875 0.53125 1.921875 1.4375q0.75 0.890625 1.09375 2.109375q0.359375 1.203125 0.359375 2.578125l0 0.46875zm-2.59375 -0.765625q0.046875 -2.03125 -0.90625 -3.1875q-0.9375 -1.15625 -2.796875 -1.15625q-0.953125 0 -1.671875 0.359375q-0.71875 0.359375 -1.203125 0.953125q-0.484375 0.59375 -0.75 1.390625q-0.265625 0.78125 -0.296875 1.640625l7.625 0z" fill-rule="nonzero"/><path fill="#000000" fill-opacity="0.0" d="m284.87976 349.1811l97.35434 0l0 58.740173l-97.35434 0z" fill-rule="evenodd"/><path fill="#000000" d="m326.5491 386.36984q0 0.265625 -0.015625 0.46875q-0.015625 0.1875 -0.0625 0.328125q-0.03125 0.125 -0.09375 0.234375q-0.046875 0.09375 -0.25 0.296875q-0.1875 0.1875 -0.65625 0.484375q-0.46875 0.28125 -1.0625 0.515625q-0.578125 0.21875 -1.265625 0.359375q-0.6875 0.140625 -1.421875 0.140625q-1.515625 0 -2.6875 -0.5q-1.171875 -0.5 -1.96875 -1.453125q-0.78125 -0.96875 -1.203125 -2.359375q-0.40625 -1.40625 -0.40625 -3.234375q0 -2.078125 0.5 -3.5625q0.515625 -1.5 1.390625 -2.453125q0.890625 -0.953125 2.078125 -1.40625q1.203125 -0.46875 2.59375 -0.46875q0.671875 0 1.296875 0.125q0.640625 0.125 1.171875 0.328125q0.53125 0.203125 0.9375 0.46875q0.421875 0.265625 0.609375 0.453125q0.1875 0.1875 0.25 0.296875q0.078125 0.109375 0.125 0.265625q0.046875 0.140625 0.0625 0.328125q0.015625 0.1875 0.015625 0.46875q0 0.609375 -0.140625 0.859375q-0.140625 0.234375 -0.34375 0.234375q-0.234375 0 -0.546875 -0.25q-0.296875 -0.265625 -0.765625 -0.578125q-0.46875 -0.3125 -1.140625 -0.5625q-0.65625 -0.265625 -1.5625 -0.265625q-1.859375 0 -2.859375 1.4375q-0.984375 1.421875 -0.984375 4.140625q0 1.359375 0.25 2.390625q0.265625 1.015625 0.765625 1.703125q0.5 0.6875 1.21875 1.03125q0.734375 0.328125 1.671875 0.328125q0.890625 0 1.5625 -0.28125q0.671875 -0.28125 1.15625 -0.609375q0.5 -0.34375 0.828125 -0.609375q0.34375 -0.28125 0.53125 -0.28125q0.109375 0 0.1875 0.0625q0.078125 0.0625 0.125 0.21875q0.0625 0.140625 0.078125 0.375q0.03125 0.21875 0.03125 0.53125zm13.75 2.15625q0 0.1875 -0.125 0.28125q-0.125 0.09375 -0.34375 0.140625q-0.21875 0.046875 -0.640625 0.046875q-0.40625 0 -0.65625 -0.046875q-0.234375 -0.046875 -0.34375 -0.140625q-0.109375 -0.09375 -0.109375 -0.28125l0 -1.40625q-0.921875 0.984375 -2.0625 1.53125q-1.125 0.546875 -2.390625 0.546875q-1.109375 0 -2.015625 -0.296875q-0.890625 -0.28125 -1.53125 -0.828125q-0.625 -0.546875 -0.984375 -1.34375q-0.34375 -0.796875 -0.34375 -1.8125q0 -1.1875 0.484375 -2.0625q0.484375 -0.875 1.390625 -1.453125q0.90625 -0.578125 2.21875 -0.859375q1.3125 -0.296875 2.953125 -0.296875l1.9375 0l0 -1.09375q0 -0.8125 -0.171875 -1.4375q-0.171875 -0.625 -0.5625 -1.03125q-0.375 -0.421875 -0.984375 -0.625q-0.609375 -0.21875 -1.5 -0.21875q-0.953125 0 -1.71875 0.234375q-0.75 0.21875 -1.328125 0.5q-0.5625 0.265625 -0.953125 0.5q-0.375 0.21875 -0.5625 0.21875q-0.125 0 -0.21875 -0.0625q-0.09375 -0.0625 -0.171875 -0.1875q-0.0625 -0.125 -0.09375 -0.3125q-0.03125 -0.203125 -0.03125 -0.4375q0 -0.390625 0.046875 -0.609375q0.0625 -0.234375 0.265625 -0.4375q0.21875 -0.203125 0.734375 -0.46875q0.515625 -0.28125 1.1875 -0.5q0.671875 -0.234375 1.46875 -0.375q0.796875 -0.15625 1.609375 -0.15625q1.515625 0 2.578125 0.34375q1.0625 0.34375 1.71875 1.015625q0.65625 0.65625 0.953125 1.640625q0.296875 0.984375 0.296875 2.296875l0 9.484375zm-2.5625 -6.421875l-2.203125 0q-1.0625 0 -1.84375 0.1875q-0.78125 0.171875 -1.296875 0.53125q-0.515625 0.34375 -0.765625 0.84375q-0.234375 0.484375 -0.234375 1.125q0 1.09375 0.6875 1.75q0.703125 0.640625 1.953125 0.640625q1.015625 0 1.875 -0.515625q0.875 -0.515625 1.828125 -1.578125l0 -2.984375zm14.3125 5.375q0 0.453125 -0.0625 0.71875q-0.0625 0.265625 -0.1875 0.390625q-0.125 0.125 -0.375 0.234375q-0.25 0.109375 -0.578125 0.171875q-0.3125 0.078125 -0.671875 0.125q-0.359375 0.046875 -0.71875 0.046875q-1.09375 0 -1.875 -0.28125q-0.78125 -0.296875 -1.28125 -0.875q-0.5 -0.59375 -0.734375 -1.484375q-0.21875 -0.90625 -0.21875 -2.125l0 -8.21875l-1.96875 0q-0.234375 0 -0.375 -0.25q-0.140625 -0.25 -0.140625 -0.8125q0 -0.296875 0.03125 -0.5q0.046875 -0.203125 0.109375 -0.328125q0.0625 -0.140625 0.15625 -0.1875q0.109375 -0.0625 0.234375 -0.0625l1.953125 0l0 -3.34375q0 -0.109375 0.046875 -0.203125q0.0625 -0.09375 0.203125 -0.15625q0.15625 -0.078125 0.40625 -0.109375q0.25 -0.03125 0.625 -0.03125q0.390625 0 0.640625 0.03125q0.25 0.03125 0.390625 0.109375q0.140625 0.0625 0.203125 0.15625q0.0625 0.09375 0.0625 0.203125l0 3.34375l3.609375 0q0.125 0 0.21875 0.0625q0.09375 0.046875 0.15625 0.1875q0.078125 0.125 0.109375 0.328125q0.03125 0.203125 0.03125 0.5q0 0.5625 -0.140625 0.8125q-0.140625 0.25 -0.375 0.25l-3.609375 0l0 7.84375q0 1.453125 0.421875 2.203125q0.4375 0.734375 1.546875 0.734375q0.359375 0 0.640625 -0.0625q0.28125 -0.078125 0.5 -0.15625q0.21875 -0.078125 0.375 -0.140625q0.15625 -0.078125 0.28125 -0.078125q0.078125 0 0.140625 0.046875q0.078125 0.03125 0.109375 0.140625q0.046875 0.109375 0.078125 0.296875q0.03125 0.1875 0.03125 0.46875z" fill-rule="nonzero"/><path fill="#000000" fill-opacity="0.0" d="m463.05173 349.1811l97.35434 0l0 58.740173l-97.35434 0z" fill-rule="evenodd"/><path fill="#000000" d="m501.40076 384.68234q0 1.078125 -0.40625 1.921875q-0.390625 0.84375 -1.125 1.421875q-0.734375 0.578125 -1.75 0.875q-1.015625 0.296875 -2.234375 0.296875q-0.75 0 -1.4375 -0.125q-0.671875 -0.109375 -1.21875 -0.28125q-0.53125 -0.1875 -0.90625 -0.375q-0.375 -0.203125 -0.546875 -0.359375q-0.171875 -0.15625 -0.25 -0.4375q-0.078125 -0.28125 -0.078125 -0.765625q0 -0.296875 0.03125 -0.5q0.03125 -0.203125 0.078125 -0.328125q0.046875 -0.125 0.125 -0.171875q0.09375 -0.0625 0.203125 -0.0625q0.171875 0 0.5 0.21875q0.34375 0.203125 0.828125 0.453125q0.5 0.25 1.171875 0.46875q0.671875 0.203125 1.546875 0.203125q0.65625 0 1.1875 -0.140625q0.53125 -0.140625 0.921875 -0.40625q0.390625 -0.28125 0.59375 -0.703125q0.21875 -0.421875 0.21875 -1.0q0 -0.59375 -0.3125 -1.0q-0.296875 -0.40625 -0.796875 -0.71875q-0.5 -0.3125 -1.125 -0.546875q-0.625 -0.25 -1.296875 -0.515625q-0.65625 -0.265625 -1.296875 -0.59375q-0.625 -0.34375 -1.125 -0.828125q-0.5 -0.484375 -0.8125 -1.15625q-0.296875 -0.671875 -0.296875 -1.609375q0 -0.828125 0.3125 -1.578125q0.328125 -0.765625 0.96875 -1.328125q0.640625 -0.578125 1.59375 -0.921875q0.96875 -0.34375 2.25 -0.34375q0.5625 0 1.125 0.09375q0.5625 0.09375 1.015625 0.234375q0.453125 0.140625 0.765625 0.3125q0.328125 0.15625 0.484375 0.28125q0.171875 0.125 0.21875 0.21875q0.0625 0.09375 0.078125 0.21875q0.03125 0.109375 0.046875 0.28125q0.03125 0.171875 0.03125 0.421875q0 0.265625 -0.03125 0.46875q-0.015625 0.1875 -0.078125 0.3125q-0.046875 0.125 -0.125 0.1875q-0.078125 0.046875 -0.171875 0.046875q-0.140625 0 -0.40625 -0.171875q-0.265625 -0.171875 -0.6875 -0.359375q-0.421875 -0.203125 -1.0 -0.375q-0.5625 -0.171875 -1.296875 -0.171875q-0.65625 0 -1.15625 0.15625q-0.5 0.140625 -0.828125 0.421875q-0.3125 0.265625 -0.484375 0.640625q-0.15625 0.375 -0.15625 0.8125q0 0.609375 0.3125 1.03125q0.3125 0.40625 0.8125 0.71875q0.5 0.3125 1.140625 0.5625q0.640625 0.25 1.296875 0.515625q0.671875 0.265625 1.3125 0.59375q0.65625 0.328125 1.15625 0.796875q0.5 0.46875 0.796875 1.125q0.3125 0.65625 0.3125 1.5625zm6.265625 3.828125q0 0.125 -0.0625 0.21875q-0.0625 0.078125 -0.203125 0.140625q-0.140625 0.0625 -0.390625 0.09375q-0.25 0.03125 -0.640625 0.03125q-0.375 0 -0.625 -0.03125q-0.25 -0.03125 -0.40625 -0.09375q-0.140625 -0.0625 -0.203125 -0.140625q-0.046875 -0.09375 -0.046875 -0.21875l0 -14.0625q0 -0.109375 0.046875 -0.203125q0.0625 -0.09375 0.203125 -0.15625q0.15625 -0.0625 0.40625 -0.09375q0.25 -0.03125 0.625 -0.03125q0.390625 0 0.640625 0.03125q0.25 0.03125 0.390625 0.09375q0.140625 0.0625 0.203125 0.15625q0.0625 0.09375 0.0625 0.203125l0 14.0625zm0.296875 -18.8125q0 0.90625 -0.34375 1.234375q-0.34375 0.328125 -1.265625 0.328125q-0.90625 0 -1.25 -0.3125q-0.328125 -0.328125 -0.328125 -1.21875q0 -0.90625 0.34375 -1.234375q0.34375 -0.328125 1.265625 -0.328125q0.90625 0 1.234375 0.328125q0.34375 0.3125 0.34375 1.203125zm11.78125 17.78125q0 0.453125 -0.0625 0.71875q-0.0625 0.265625 -0.1875 0.390625q-0.125 0.125 -0.375 0.234375q-0.25 0.109375 -0.578125 0.171875q-0.3125 0.078125 -0.671875 0.125q-0.359375 0.046875 -0.71875 0.046875q-1.09375 0 -1.875 -0.28125q-0.78125 -0.296875 -1.28125 -0.875q-0.5 -0.59375 -0.734375 -1.484375q-0.21875 -0.90625 -0.21875 -2.125l0 -8.21875l-1.96875 0q-0.234375 0 -0.375 -0.25q-0.140625 -0.25 -0.140625 -0.8125q0 -0.296875 0.03125 -0.5q0.046875 -0.203125 0.109375 -0.328125q0.0625 -0.140625 0.15625 -0.1875q0.109375 -0.0625 0.234375 -0.0625l1.953125 0l0 -3.34375q0 -0.109375 0.046875 -0.203125q0.0625 -0.09375 0.203125 -0.15625q0.15625 -0.078125 0.40625 -0.109375q0.25 -0.03125 0.625 -0.03125q0.390625 0 0.640625 0.03125q0.25 0.03125 0.390625 0.109375q0.140625 0.0625 0.203125 0.15625q0.0625 0.09375 0.0625 0.203125l0 3.34375l3.609375 0q0.125 0 0.21875 0.0625q0.09375 0.046875 0.15625 0.1875q0.078125 0.125 0.109375 0.328125q0.03125 0.203125 0.03125 0.5q0 0.5625 -0.140625 0.8125q-0.140625 0.25 -0.375 0.25l-3.609375 0l0 7.84375q0 1.453125 0.421875 2.203125q0.4375 0.734375 1.546875 0.734375q0.359375 0 0.640625 -0.0625q0.28125 -0.078125 0.5 -0.15625q0.21875 -0.078125 0.375 -0.140625q0.15625 -0.078125 0.28125 -0.078125q0.078125 0 0.140625 0.046875q0.078125 0.03125 0.109375 0.140625q0.046875 0.109375 0.078125 0.296875q0.03125 0.1875 0.03125 0.46875zm12.234375 -2.796875q0 1.078125 -0.40625 1.921875q-0.390625 0.84375 -1.125 1.421875q-0.734375 0.578125 -1.75 0.875q-1.015625 0.296875 -2.234375 0.296875q-0.75 0 -1.4375 -0.125q-0.671875 -0.109375 -1.21875 -0.28125q-0.53125 -0.1875 -0.90625 -0.375q-0.375 -0.203125 -0.546875 -0.359375q-0.171875 -0.15625 -0.25 -0.4375q-0.078125 -0.28125 -0.078125 -0.765625q0 -0.296875 0.03125 -0.5q0.03125 -0.203125 0.078125 -0.328125q0.046875 -0.125 0.125 -0.171875q0.09375 -0.0625 0.203125 -0.0625q0.171875 0 0.5 0.21875q0.34375 0.203125 0.828125 0.453125q0.5 0.25 1.171875 0.46875q0.671875 0.203125 1.546875 0.203125q0.65625 0 1.1875 -0.140625q0.53125 -0.140625 0.921875 -0.40625q0.390625 -0.28125 0.59375 -0.703125q0.21875 -0.421875 0.21875 -1.0q0 -0.59375 -0.3125 -1.0q-0.296875 -0.40625 -0.796875 -0.71875q-0.5 -0.3125 -1.125 -0.546875q-0.625 -0.25 -1.296875 -0.515625q-0.65625 -0.265625 -1.296875 -0.59375q-0.625 -0.34375 -1.125 -0.828125q-0.5 -0.484375 -0.8125 -1.15625q-0.296875 -0.671875 -0.296875 -1.609375q0 -0.828125 0.3125 -1.578125q0.328125 -0.765625 0.96875 -1.328125q0.640625 -0.578125 1.59375 -0.921875q0.96875 -0.34375 2.25 -0.34375q0.5625 0 1.125 0.09375q0.5625 0.09375 1.015625 0.234375q0.453125 0.140625 0.765625 0.3125q0.328125 0.15625 0.484375 0.28125q0.171875 0.125 0.21875 0.21875q0.0625 0.09375 0.078125 0.21875q0.03125 0.109375 0.046875 0.28125q0.03125 0.171875 0.03125 0.421875q0 0.265625 -0.03125 0.46875q-0.015625 0.1875 -0.078125 0.3125q-0.046875 0.125 -0.125 0.1875q-0.078125 0.046875 -0.171875 0.046875q-0.140625 0 -0.40625 -0.171875q-0.265625 -0.171875 -0.6875 -0.359375q-0.421875 -0.203125 -1.0 -0.375q-0.5625 -0.171875 -1.296875 -0.171875q-0.65625 0 -1.15625 0.15625q-0.5 0.140625 -0.828125 0.421875q-0.3125 0.265625 -0.484375 0.640625q-0.15625 0.375 -0.15625 0.8125q0 0.609375 0.3125 1.03125q0.3125 0.40625 0.8125 0.71875q0.5 0.3125 1.140625 0.5625q0.640625 0.25 1.296875 0.515625q0.671875 0.265625 1.3125 0.59375q0.65625 0.328125 1.15625 0.796875q0.5 0.46875 0.796875 1.125q0.3125 0.65625 0.3125 1.5625z" fill-rule="nonzero"/><path fill="#000000" fill-opacity="0.0" d="m212.01181 450.3028l64.91339 0" fill-rule="evenodd"/><path stroke="#212121" stroke-width="4.0" stroke-linejoin="round" stroke-linecap="butt" d="m212.01181 450.30283l51.205048 0" fill-rule="evenodd"/><path fill="#212121" stroke="#212121" stroke-width="4.0" stroke-linecap="butt" d="m263.21686 450.30283l-4.498352 4.4983215l12.35907 -4.4983215l-12.35907 -4.498352z" fill-rule="evenodd"/><path fill="#000000" fill-opacity="0.0" d="m390.18378 450.3028l64.91339 0" fill-rule="evenodd"/><path stroke="#212121" stroke-width="4.0" stroke-linejoin="round" stroke-linecap="butt" d="m390.18378 450.30283l51.205048 0" fill-rule="evenodd"/><path fill="#212121" stroke="#212121" stroke-width="4.0" stroke-linecap="butt" d="m441.3888 450.30283l-4.4983215 4.4983215l12.35907 -4.4983215l-12.35907 -4.498352z" fill-rule="evenodd"/><path fill="#b0dd46" fill-opacity="0.8039" d="m633.2664 424.92773l0 0c0 -7.0073547 5.680542 -12.687927 12.687927 -12.687927l87.88397 0c3.3650513 0 6.592285 1.3367615 8.971741 3.716217c2.3794556 2.3794556 3.7161865 5.606659 3.7161865 8.97171l0 50.750153c0 7.007324 -5.680603 12.687927 -12.687927 12.687927l-87.88397 0c-7.0073853 0 -12.687927 -5.680603 -12.687927 -12.687927z" fill-rule="evenodd"/><path stroke="#212121" stroke-width="1.0" stroke-linejoin="round" stroke-linecap="butt" d="m633.2664 424.92773l0 0c0 -7.0073547 5.680542 -12.687927 12.687927 -12.687927l87.88397 0c3.3650513 0 6.592285 1.3367615 8.971741 3.716217c2.3794556 2.3794556 3.7161865 5.606659 3.7161865 8.97171l0 50.750153c0 7.007324 -5.680603 12.687927 -12.687927 12.687927l-87.88397 0c-7.0073853 0 -12.687927 -5.680603 -12.687927 -12.687927z" fill-rule="evenodd"/><path fill="#b0dd46" fill-opacity="0.8039" d="m811.43835 424.92773l0 0c0 -7.0073547 5.680603 -12.687927 12.687927 -12.687927l87.88403 0c3.3649902 0 6.592224 1.3367615 8.97168 3.716217c2.3794556 2.3794556 3.7161865 5.606659 3.7161865 8.97171l0 50.750153c0 7.007324 -5.680542 12.687927 -12.687866 12.687927l-87.88403 0c-7.007324 0 -12.687927 -5.680603 -12.687927 -12.687927z" fill-rule="evenodd"/><path stroke="#212121" stroke-width="1.0" stroke-linejoin="round" stroke-linecap="butt" d="m811.43835 424.92773l0 0c0 -7.0073547 5.680603 -12.687927 12.687927 -12.687927l87.88403 0c3.3649902 0 6.592224 1.3367615 8.97168 3.716217c2.3794556 2.3794556 3.7161865 5.606659 3.7161865 8.97171l0 50.750153c0 7.007324 -5.680542 12.687927 -12.687866 12.687927l-87.88403 0c-7.007324 0 -12.687927 -5.680603 -12.687927 -12.687927z" fill-rule="evenodd"/><path fill="#b0dd46" fill-opacity="0.8039" d="m989.6103 424.92773l0 0c0 -7.0073547 5.680603 -12.687927 12.687927 -12.687927l87.88403 0c3.3649902 0 6.592285 1.3367615 8.97168 3.716217c2.3795166 2.3794556 3.7161865 5.606659 3.7161865 8.97171l0 50.750153c0 7.007324 -5.680542 12.687927 -12.687866 12.687927l-87.88403 0c-7.007324 0 -12.687927 -5.680603 -12.687927 -12.687927z" fill-rule="evenodd"/><path stroke="#212121" stroke-width="1.0" stroke-linejoin="round" stroke-linecap="butt" d="m989.6103 424.92773l0 0c0 -7.0073547 5.680603 -12.687927 12.687927 -12.687927l87.88403 0c3.3649902 0 6.592285 1.3367615 8.97168 3.716217c2.3795166 2.3794556 3.7161865 5.606659 3.7161865 8.97171l0 50.750153c0 7.007324 -5.680542 12.687927 -12.687866 12.687927l-87.88403 0c-7.007324 0 -12.687927 -5.680603 -12.687927 -12.687927z" fill-rule="evenodd"/><path fill="#000000" fill-opacity="0.0" d="m641.2222 349.1811l97.35431 0l0 58.740173l-97.35431 0z" fill-rule="evenodd"/><path fill="#000000" d="m688.5244 381.32297q0 1.71875 -0.453125 3.171875q-0.453125 1.4375 -1.359375 2.484375q-0.890625 1.046875 -2.25 1.640625q-1.34375 0.578125 -3.125 0.578125q-1.734375 0 -3.03125 -0.515625q-1.28125 -0.515625 -2.140625 -1.5q-0.859375 -0.984375 -1.28125 -2.390625q-0.421875 -1.40625 -0.421875 -3.1875q0 -1.71875 0.4375 -3.15625q0.453125 -1.453125 1.34375 -2.5q0.90625 -1.046875 2.25 -1.625q1.34375 -0.578125 3.140625 -0.578125q1.734375 0 3.015625 0.515625q1.296875 0.515625 2.15625 1.5q0.859375 0.984375 1.28125 2.390625q0.4375 1.40625 0.4375 3.171875zm-2.71875 0.171875q0 -1.140625 -0.21875 -2.15625q-0.203125 -1.015625 -0.6875 -1.78125q-0.484375 -0.765625 -1.3125 -1.203125q-0.828125 -0.453125 -2.0625 -0.453125q-1.140625 0 -1.96875 0.40625q-0.8125 0.40625 -1.34375 1.15625q-0.53125 0.734375 -0.796875 1.75q-0.25 1.015625 -0.25 2.21875q0 1.15625 0.203125 2.171875q0.21875 1.015625 0.703125 1.78125q0.5 0.75 1.328125 1.203125q0.828125 0.4375 2.0625 0.4375q1.125 0 1.953125 -0.40625q0.828125 -0.40625 1.359375 -1.140625q0.53125 -0.734375 0.78125 -1.75q0.25 -1.015625 0.25 -2.234375zm18.625 7.015625q0 0.125 -0.0625 0.21875q-0.0625 0.078125 -0.203125 0.140625q-0.140625 0.0625 -0.390625 0.09375q-0.25 0.03125 -0.625 0.03125q-0.390625 0 -0.640625 -0.03125q-0.25 -0.03125 -0.390625 -0.09375q-0.140625 -0.0625 -0.203125 -0.140625q-0.0625 -0.09375 -0.0625 -0.21875l0 -8.234375q0 -1.203125 -0.1875 -1.9375q-0.1875 -0.734375 -0.546875 -1.265625q-0.359375 -0.53125 -0.9375 -0.8125q-0.5625 -0.28125 -1.3125 -0.28125q-0.96875 0 -1.9375 0.6875q-0.96875 0.6875 -2.03125 2.015625l0 9.828125q0 0.125 -0.0625 0.21875q-0.0625 0.078125 -0.203125 0.140625q-0.140625 0.0625 -0.390625 0.09375q-0.25 0.03125 -0.640625 0.03125q-0.375 0 -0.625 -0.03125q-0.25 -0.03125 -0.40625 -0.09375q-0.140625 -0.0625 -0.203125 -0.140625q-0.046875 -0.09375 -0.046875 -0.21875l0 -14.0625q0 -0.125 0.046875 -0.203125q0.046875 -0.09375 0.1875 -0.15625q0.140625 -0.078125 0.359375 -0.09375q0.21875 -0.03125 0.578125 -0.03125q0.34375 0 0.5625 0.03125q0.234375 0.015625 0.359375 0.09375q0.125 0.0625 0.171875 0.15625q0.0625 0.078125 0.0625 0.203125l0 1.859375q1.1875 -1.328125 2.359375 -1.9375q1.1875 -0.625 2.390625 -0.625q1.40625 0 2.359375 0.484375q0.96875 0.46875 1.5625 1.265625q0.59375 0.796875 0.84375 1.875q0.265625 1.0625 0.265625 2.5625l0 8.578125z" fill-rule="nonzero"/><path fill="#000000" fill-opacity="0.0" d="m819.39417 349.1811l97.35437 0l0 58.740173l-97.35437 0z" fill-rule="evenodd"/><path fill="#000000" d="m856.0479 387.47922q0 0.453125 -0.0625 0.71875q-0.0625 0.265625 -0.1875 0.390625q-0.125 0.125 -0.375 0.234375q-0.25 0.109375 -0.578125 0.171875q-0.3125 0.078125 -0.671875 0.125q-0.359375 0.046875 -0.71875 0.046875q-1.09375 0 -1.875 -0.28125q-0.78125 -0.296875 -1.28125 -0.875q-0.5 -0.59375 -0.734375 -1.484375q-0.21875 -0.90625 -0.21875 -2.125l0 -8.21875l-1.96875 0q-0.234375 0 -0.375 -0.25q-0.140625 -0.25 -0.140625 -0.8125q0 -0.296875 0.03125 -0.5q0.046875 -0.203125 0.109375 -0.328125q0.0625 -0.140625 0.15625 -0.1875q0.109375 -0.0625 0.234375 -0.0625l1.953125 0l0 -3.34375q0 -0.109375 0.046875 -0.203125q0.0625 -0.09375 0.203125 -0.15625q0.15625 -0.078125 0.40625 -0.109375q0.25 -0.03125 0.625 -0.03125q0.390625 0 0.640625 0.03125q0.25 0.03125 0.390625 0.109375q0.140625 0.0625 0.203125 0.15625q0.0625 0.09375 0.0625 0.203125l0 3.34375l3.609375 0q0.125 0 0.21875 0.0625q0.09375 0.046875 0.15625 0.1875q0.078125 0.125 0.109375 0.328125q0.03125 0.203125 0.03125 0.5q0 0.5625 -0.140625 0.8125q-0.140625 0.25 -0.375 0.25l-3.609375 0l0 7.84375q0 1.453125 0.421875 2.203125q0.4375 0.734375 1.546875 0.734375q0.359375 0 0.640625 -0.0625q0.28125 -0.078125 0.5 -0.15625q0.21875 -0.078125 0.375 -0.140625q0.15625 -0.078125 0.28125 -0.078125q0.078125 0 0.140625 0.046875q0.078125 0.03125 0.109375 0.140625q0.046875 0.109375 0.078125 0.296875q0.03125 0.1875 0.03125 0.46875zm15.515625 1.03125q0 0.125 -0.0625 0.21875q-0.0625 0.078125 -0.203125 0.140625q-0.140625 0.0625 -0.390625 0.09375q-0.25 0.03125 -0.625 0.03125q-0.390625 0 -0.640625 -0.03125q-0.25 -0.03125 -0.390625 -0.09375q-0.140625 -0.0625 -0.203125 -0.140625q-0.0625 -0.09375 -0.0625 -0.21875l0 -8.234375q0 -1.203125 -0.1875 -1.9375q-0.1875 -0.734375 -0.546875 -1.265625q-0.359375 -0.53125 -0.9375 -0.8125q-0.5625 -0.28125 -1.3125 -0.28125q-0.96875 0 -1.9375 0.6875q-0.96875 0.6875 -2.03125 2.015625l0 9.828125q0 0.125 -0.0625 0.21875q-0.0625 0.078125 -0.203125 0.140625q-0.140625 0.0625 -0.390625 0.09375q-0.25 0.03125 -0.640625 0.03125q-0.375 0 -0.625 -0.03125q-0.25 -0.03125 -0.40625 -0.09375q-0.140625 -0.0625 -0.203125 -0.140625q-0.046875 -0.09375 -0.046875 -0.21875l0 -20.875q0 -0.125 0.046875 -0.21875q0.0625 -0.09375 0.203125 -0.15625q0.15625 -0.0625 0.40625 -0.09375q0.25 -0.03125 0.625 -0.03125q0.390625 0 0.640625 0.03125q0.25 0.03125 0.390625 0.09375q0.140625 0.0625 0.203125 0.15625q0.0625 0.09375 0.0625 0.21875l0 8.421875q1.109375 -1.171875 2.234375 -1.734375q1.125 -0.578125 2.265625 -0.578125q1.40625 0 2.359375 0.484375q0.96875 0.46875 1.5625 1.265625q0.59375 0.796875 0.84375 1.875q0.265625 1.0625 0.265625 2.578125l0 8.5625zm16.703125 -7.640625q0 0.609375 -0.3125 0.875q-0.296875 0.25 -0.6875 0.25l-9.21875 0q0 1.171875 0.234375 2.109375q0.234375 0.9375 0.78125 1.609375q0.546875 0.671875 1.421875 1.03125q0.875 0.359375 2.140625 0.359375q1.0 0 1.78125 -0.15625q0.78125 -0.171875 1.34375 -0.375q0.578125 -0.203125 0.9375 -0.359375q0.375 -0.171875 0.5625 -0.171875q0.109375 0 0.1875 0.0625q0.09375 0.046875 0.140625 0.15625q0.046875 0.109375 0.0625 0.3125q0.03125 0.1875 0.03125 0.46875q0 0.203125 -0.015625 0.359375q-0.015625 0.140625 -0.046875 0.265625q-0.015625 0.109375 -0.078125 0.203125q-0.046875 0.09375 -0.140625 0.1875q-0.078125 0.078125 -0.5 0.28125q-0.421875 0.1875 -1.09375 0.375q-0.671875 0.1875 -1.5625 0.328125q-0.875 0.15625 -1.875 0.15625q-1.734375 0 -3.046875 -0.484375q-1.296875 -0.484375 -2.1875 -1.4375q-0.890625 -0.953125 -1.34375 -2.390625q-0.453125 -1.4375 -0.453125 -3.34375q0 -1.8125 0.46875 -3.25q0.46875 -1.453125 1.34375 -2.453125q0.890625 -1.015625 2.140625 -1.546875q1.25 -0.546875 2.796875 -0.546875q1.65625 0 2.8125 0.53125q1.171875 0.53125 1.921875 1.4375q0.75 0.890625 1.09375 2.109375q0.359375 1.203125 0.359375 2.578125l0 0.46875zm-2.59375 -0.765625q0.046875 -2.03125 -0.90625 -3.1875q-0.9375 -1.15625 -2.796875 -1.15625q-0.953125 0 -1.671875 0.359375q-0.71875 0.359375 -1.203125 0.953125q-0.484375 0.59375 -0.75 1.390625q-0.265625 0.78125 -0.296875 1.640625l7.625 0z" fill-rule="nonzero"/><path fill="#000000" fill-opacity="0.0" d="m997.56616 349.1811l97.35437 0l0 58.740173l-97.35437 0z" fill-rule="evenodd"/><path fill="#000000" d="m1043.837 388.51047q0 0.125 -0.0625 0.21875q-0.0625 0.078125 -0.203125 0.140625q-0.140625 0.0625 -0.390625 0.09375q-0.25 0.03125 -0.625 0.03125q-0.390625 0 -0.640625 -0.03125q-0.25 -0.03125 -0.40625 -0.09375q-0.140625 -0.0625 -0.203125 -0.140625q-0.0625 -0.09375 -0.0625 -0.21875l0 -8.546875q0 -0.890625 -0.15625 -1.625q-0.15625 -0.734375 -0.5 -1.265625q-0.34375 -0.53125 -0.875 -0.8125q-0.53125 -0.28125 -1.25 -0.28125q-0.890625 0 -1.796875 0.6875q-0.890625 0.6875 -1.96875 2.015625l0 9.828125q0 0.125 -0.0625 0.21875q-0.0625 0.078125 -0.21875 0.140625q-0.140625 0.0625 -0.390625 0.09375q-0.25 0.03125 -0.625 0.03125q-0.359375 0 -0.625 -0.03125q-0.25 -0.03125 -0.40625 -0.09375q-0.140625 -0.0625 -0.203125 -0.140625q-0.046875 -0.09375 -0.046875 -0.21875l0 -8.546875q0 -0.890625 -0.171875 -1.625q-0.171875 -0.734375 -0.515625 -1.265625q-0.34375 -0.53125 -0.875 -0.8125q-0.515625 -0.28125 -1.234375 -0.28125q-0.890625 0 -1.796875 0.6875q-0.90625 0.6875 -1.96875 2.015625l0 9.828125q0 0.125 -0.0625 0.21875q-0.0625 0.078125 -0.203125 0.140625q-0.140625 0.0625 -0.390625 0.09375q-0.25 0.03125 -0.640625 0.03125q-0.375 0 -0.625 -0.03125q-0.25 -0.03125 -0.40625 -0.09375q-0.140625 -0.0625 -0.203125 -0.140625q-0.046875 -0.09375 -0.046875 -0.21875l0 -14.0625q0 -0.125 0.046875 -0.203125q0.046875 -0.09375 0.1875 -0.15625q0.140625 -0.078125 0.359375 -0.09375q0.21875 -0.03125 0.578125 -0.03125q0.34375 0 0.5625 0.03125q0.234375 0.015625 0.359375 0.09375q0.125 0.0625 0.171875 0.15625q0.0625 0.078125 0.0625 0.203125l0 1.859375q1.1875 -1.328125 2.296875 -1.9375q1.125 -0.625 2.265625 -0.625q0.875 0 1.5625 0.203125q0.703125 0.203125 1.234375 0.578125q0.53125 0.359375 0.90625 0.875q0.375 0.5 0.625 1.125q0.703125 -0.765625 1.328125 -1.296875q0.640625 -0.53125 1.21875 -0.859375q0.59375 -0.328125 1.140625 -0.46875q0.5625 -0.15625 1.125 -0.15625q1.359375 0 2.28125 0.484375q0.921875 0.46875 1.484375 1.265625q0.578125 0.796875 0.8125 1.875q0.25 1.0625 0.25 2.25l0 8.890625zm15.296875 0.015625q0 0.1875 -0.125 0.28125q-0.125 0.09375 -0.34375 0.140625q-0.21875 0.046875 -0.640625 0.046875q-0.40625 0 -0.65625 -0.046875q-0.234375 -0.046875 -0.34375 -0.140625q-0.109375 -0.09375 -0.109375 -0.28125l0 -1.40625q-0.921875 0.984375 -2.0625 1.53125q-1.125 0.546875 -2.390625 0.546875q-1.109375 0 -2.015625 -0.296875q-0.890625 -0.28125 -1.53125 -0.828125q-0.625 -0.546875 -0.984375 -1.34375q-0.34375 -0.796875 -0.34375 -1.8125q0 -1.1875 0.484375 -2.0625q0.484375 -0.875 1.390625 -1.453125q0.90625 -0.578125 2.21875 -0.859375q1.3125 -0.296875 2.953125 -0.296875l1.9375 0l0 -1.09375q0 -0.8125 -0.171875 -1.4375q-0.171875 -0.625 -0.5625 -1.03125q-0.375 -0.421875 -0.984375 -0.625q-0.609375 -0.21875 -1.5 -0.21875q-0.953125 0 -1.71875 0.234375q-0.75 0.21875 -1.328125 0.5q-0.5625 0.265625 -0.953125 0.5q-0.375 0.21875 -0.5625 0.21875q-0.125 0 -0.21875 -0.0625q-0.09375 -0.0625 -0.171875 -0.1875q-0.0625 -0.125 -0.09375 -0.3125q-0.03125 -0.203125 -0.03125 -0.4375q0 -0.390625 0.046875 -0.609375q0.0625 -0.234375 0.265625 -0.4375q0.21875 -0.203125 0.734375 -0.46875q0.515625 -0.28125 1.1875 -0.5q0.671875 -0.234375 1.46875 -0.375q0.796875 -0.15625 1.609375 -0.15625q1.515625 0 2.578125 0.34375q1.0625 0.34375 1.71875 1.015625q0.65625 0.65625 0.953125 1.640625q0.296875 0.984375 0.296875 2.296875l0 9.484375zm-2.5625 -6.421875l-2.203125 0q-1.0625 0 -1.84375 0.1875q-0.78125 0.171875 -1.296875 0.53125q-0.515625 0.34375 -0.765625 0.84375q-0.234375 0.484375 -0.234375 1.125q0 1.09375 0.6875 1.75q0.703125 0.640625 1.953125 0.640625q1.015625 0 1.875 -0.515625q0.875 -0.515625 1.828125 -1.578125l0 -2.984375zm14.3125 5.375q0 0.453125 -0.0625 0.71875q-0.0625 0.265625 -0.1875 0.390625q-0.125 0.125 -0.375 0.234375q-0.25 0.109375 -0.578125 0.171875q-0.3125 0.078125 -0.671875 0.125q-0.359375 0.046875 -0.71875 0.046875q-1.09375 0 -1.875 -0.28125q-0.78125 -0.296875 -1.28125 -0.875q-0.5 -0.59375 -0.734375 -1.484375q-0.21875 -0.90625 -0.21875 -2.125l0 -8.21875l-1.96875 0q-0.234375 0 -0.375 -0.25q-0.140625 -0.25 -0.140625 -0.8125q0 -0.296875 0.03125 -0.5q0.046875 -0.203125 0.109375 -0.328125q0.0625 -0.140625 0.15625 -0.1875q0.109375 -0.0625 0.234375 -0.0625l1.953125 0l0 -3.34375q0 -0.109375 0.046875 -0.203125q0.0625 -0.09375 0.203125 -0.15625q0.15625 -0.078125 0.40625 -0.109375q0.25 -0.03125 0.625 -0.03125q0.390625 0 0.640625 0.03125q0.25 0.03125 0.390625 0.109375q0.140625 0.0625 0.203125 0.15625q0.0625 0.09375 0.0625 0.203125l0 3.34375l3.609375 0q0.125 0 0.21875 0.0625q0.09375 0.046875 0.15625 0.1875q0.078125 0.125 0.109375 0.328125q0.03125 0.203125 0.03125 0.5q0 0.5625 -0.140625 0.8125q-0.140625 0.25 -0.375 0.25l-3.609375 0l0 7.84375q0 1.453125 0.421875 2.203125q0.4375 0.734375 1.546875 0.734375q0.359375 0 0.640625 -0.0625q0.28125 -0.078125 0.5 -0.15625q0.21875 -0.078125 0.375 -0.140625q0.15625 -0.078125 0.28125 -0.078125q0.078125 0 0.140625 0.046875q0.078125 0.03125 0.109375 0.140625q0.046875 0.109375 0.078125 0.296875q0.03125 0.1875 0.03125 0.46875z" fill-rule="nonzero"/><path fill="#000000" fill-opacity="0.0" d="m746.52625 450.3028l64.91339 0" fill-rule="evenodd"/><path stroke="#212121" stroke-width="4.0" stroke-linejoin="round" stroke-linecap="butt" d="m746.52625 450.30283l51.20508 0" fill-rule="evenodd"/><path fill="#212121" stroke="#212121" stroke-width="4.0" stroke-linecap="butt" d="m797.73126 450.30283l-4.498291 4.4983215l12.35907 -4.4983215l-12.35907 -4.498352z" fill-rule="evenodd"/><path fill="#000000" fill-opacity="0.0" d="m924.6982 450.3028l64.91339 0" fill-rule="evenodd"/><path stroke="#212121" stroke-width="4.0" stroke-linejoin="round" stroke-linecap="butt" d="m924.69824 450.30283l51.20508 0" fill-rule="evenodd"/><path fill="#212121" stroke="#212121" stroke-width="4.0" stroke-linecap="butt" d="m975.90326 450.30283l-4.498291 4.4983215l12.35907 -4.4983215l-12.35907 -4.498352z" fill-rule="evenodd"/><path fill="#000000" fill-opacity="0.0" d="m568.3557 450.3028l64.91339 0" fill-rule="evenodd"/><path stroke="#212121" stroke-width="4.0" stroke-linejoin="round" stroke-linecap="butt" d="m568.3557 450.30283l51.20508 0" fill-rule="evenodd"/><path fill="#212121" stroke="#212121" stroke-width="4.0" stroke-linecap="butt" d="m619.5608 450.30283l-4.498352 4.4983215l12.35907 -4.4983215l-12.35907 -4.498352z" fill-rule="evenodd"/><path fill="#ff8b3d" d="m85.11155 98.00123l0 0c0 -7.007347 5.6805725 -12.68792 12.68792 -12.68792l87.884 0c3.3650513 0 6.59227 1.3367538 8.97171 3.7162018c2.3794556 2.379448 3.7162018 5.6066666 3.7162018 8.971718l0 50.750145c0 7.0073395 -5.6805725 12.687912 -12.687912 12.687912l-87.884 0c-7.007347 0 -12.68792 -5.6805725 -12.68792 -12.687912z" fill-rule="evenodd"/><path stroke="#212121" stroke-width="1.0" stroke-linejoin="round" stroke-linecap="butt" d="m85.11155 98.00123l0 0c0 -7.007347 5.6805725 -12.68792 12.68792 -12.68792l87.884 0c3.3650513 0 6.59227 1.3367538 8.97171 3.7162018c2.3794556 2.379448 3.7162018 5.6066666 3.7162018 8.971718l0 50.750145c0 7.0073395 -5.6805725 12.687912 -12.687912 12.687912l-87.884 0c-7.007347 0 -12.68792 -5.6805725 -12.68792 -12.687912z" fill-rule="evenodd"/><path fill="#ff8b3d" d="m263.2835 98.00123l0 0c0 -7.007347 5.6805725 -12.68792 12.687927 -12.68792l87.884 0c3.3650513 0 6.5922546 1.3367538 8.97171 3.7162018c2.3794556 2.379448 3.7161865 5.6066666 3.7161865 8.971718l0 50.750145c0 7.0073395 -5.6805725 12.687912 -12.687897 12.687912l-87.884 0c-7.0073547 0 -12.687927 -5.6805725 -12.687927 -12.687912z" fill-rule="evenodd"/><path stroke="#212121" stroke-width="1.0" stroke-linejoin="round" stroke-linecap="butt" d="m263.2835 98.00123l0 0c0 -7.007347 5.6805725 -12.68792 12.687927 -12.68792l87.884 0c3.3650513 0 6.5922546 1.3367538 8.97171 3.7162018c2.3794556 2.379448 3.7161865 5.6066666 3.7161865 8.971718l0 50.750145c0 7.0073395 -5.6805725 12.687912 -12.687897 12.687912l-87.884 0c-7.0073547 0 -12.687927 -5.6805725 -12.687927 -12.687912z" fill-rule="evenodd"/><path fill="#ff8b3d" d="m441.45547 98.00123l0 0c0 -7.007347 5.6805725 -12.68792 12.687897 -12.68792l87.88403 0c3.3650513 0 6.592224 1.3367538 8.97168 3.7162018c2.3794556 2.379448 3.7162476 5.6066666 3.7162476 8.971718l0 50.750145c0 7.0073395 -5.680603 12.687912 -12.687927 12.687912l-87.88403 0c-7.007324 0 -12.687897 -5.6805725 -12.687897 -12.687912z" fill-rule="evenodd"/><path stroke="#212121" stroke-width="1.0" stroke-linejoin="round" stroke-linecap="butt" d="m441.45547 98.00123l0 0c0 -7.007347 5.6805725 -12.68792 12.687897 -12.68792l87.88403 0c3.3650513 0 6.592224 1.3367538 8.97168 3.7162018c2.3794556 2.379448 3.7162476 5.6066666 3.7162476 8.971718l0 50.750145c0 7.0073395 -5.680603 12.687912 -12.687927 12.687912l-87.88403 0c-7.007324 0 -12.687897 -5.6805725 -12.687897 -12.687912z" fill-rule="evenodd"/><path fill="#000000" fill-opacity="0.0" d="m198.37138 123.3763l64.91341 0" fill-rule="evenodd"/><path stroke="#212121" stroke-width="4.0" stroke-linejoin="round" stroke-linecap="butt" d="m198.37138 123.376305l51.205032 0" fill-rule="evenodd"/><path fill="#212121" stroke="#212121" stroke-width="4.0" stroke-linecap="butt" d="m249.57643 123.376305l-4.498337 4.498329l12.35907 -4.498329l-12.35907 -4.498337z" fill-rule="evenodd"/><path fill="#000000" fill-opacity="0.0" d="m376.54333 123.3763l64.91339 0" fill-rule="evenodd"/><path stroke="#212121" stroke-width="4.0" stroke-linejoin="round" stroke-linecap="butt" d="m376.54333 123.376305l51.20508 0" fill-rule="evenodd"/><path fill="#212121" stroke="#212121" stroke-width="4.0" stroke-linecap="butt" d="m427.74838 123.376305l-4.4983215 4.498329l12.35907 -4.498329l-12.35907 -4.498337z" fill-rule="evenodd"/><path fill="#ff8b3d" d="m619.626 98.00123l0 0c0 -7.007347 5.680603 -12.68792 12.687927 -12.68792l87.88403 0c3.3649902 0 6.592224 1.3367538 8.97168 3.7162018c2.3794556 2.379448 3.7161865 5.6066666 3.7161865 8.971718l0 50.750145c0 7.0073395 -5.680542 12.687912 -12.687866 12.687912l-87.88403 0c-7.007324 0 -12.687927 -5.6805725 -12.687927 -12.687912z" fill-rule="evenodd"/><path stroke="#212121" stroke-width="1.0" stroke-linejoin="round" stroke-linecap="butt" d="m619.626 98.00123l0 0c0 -7.007347 5.680603 -12.68792 12.687927 -12.68792l87.88403 0c3.3649902 0 6.592224 1.3367538 8.97168 3.7162018c2.3794556 2.379448 3.7161865 5.6066666 3.7161865 8.971718l0 50.750145c0 7.0073395 -5.680542 12.687912 -12.687866 12.687912l-87.88403 0c-7.007324 0 -12.687927 -5.6805725 -12.687927 -12.687912z" fill-rule="evenodd"/><path fill="#ff8b3d" d="m797.7979 98.00123l0 0c0 -7.007347 5.680603 -12.68792 12.687927 -12.68792l87.88403 0c3.3650513 0 6.592285 1.3367538 8.97168 3.7162018c2.3794556 2.379448 3.7162476 5.6066666 3.7162476 8.971718l0 50.750145c0 7.0073395 -5.680603 12.687912 -12.687927 12.687912l-87.88403 0c-7.007324 0 -12.687927 -5.6805725 -12.687927 -12.687912z" fill-rule="evenodd"/><path stroke="#212121" stroke-width="1.0" stroke-linejoin="round" stroke-linecap="butt" d="m797.7979 98.00123l0 0c0 -7.007347 5.680603 -12.68792 12.687927 -12.68792l87.88403 0c3.3650513 0 6.592285 1.3367538 8.97168 3.7162018c2.3794556 2.379448 3.7162476 5.6066666 3.7162476 8.971718l0 50.750145c0 7.0073395 -5.680603 12.687912 -12.687927 12.687912l-87.88403 0c-7.007324 0 -12.687927 -5.6805725 -12.687927 -12.687912z" fill-rule="evenodd"/><path fill="#ff8b3d" d="m975.9699 98.00123l0 0c0 -7.007347 5.680542 -12.68792 12.687927 -12.68792l87.88403 0c3.3649902 0 6.592163 1.3367538 8.97168 3.7162018c2.3793945 2.379448 3.7161865 5.6066666 3.7161865 8.971718l0 50.750145c0 7.0073395 -5.680542 12.687912 -12.687866 12.687912l-87.88403 0c-7.0073853 0 -12.687927 -5.6805725 -12.687927 -12.687912z" fill-rule="evenodd"/><path stroke="#212121" stroke-width="1.0" stroke-linejoin="round" stroke-linecap="butt" d="m975.9699 98.00123l0 0c0 -7.007347 5.680542 -12.68792 12.687927 -12.68792l87.88403 0c3.3649902 0 6.592163 1.3367538 8.97168 3.7162018c2.3793945 2.379448 3.7161865 5.6066666 3.7161865 8.971718l0 50.750145c0 7.0073395 -5.680542 12.687912 -12.687866 12.687912l-87.88403 0c-7.0073853 0 -12.687927 -5.6805725 -12.687927 -12.687912z" fill-rule="evenodd"/><path fill="#000000" fill-opacity="0.0" d="m732.8858 123.3763l64.91339 0" fill-rule="evenodd"/><path stroke="#212121" stroke-width="4.0" stroke-linejoin="round" stroke-linecap="butt" d="m732.8858 123.376305l51.20508 0" fill-rule="evenodd"/><path fill="#212121" stroke="#212121" stroke-width="4.0" stroke-linecap="butt" d="m784.0909 123.376305l-4.498352 4.498329l12.35907 -4.498329l-12.35907 -4.498337z" fill-rule="evenodd"/><path fill="#000000" fill-opacity="0.0" d="m911.0578 123.3763l64.91339 0" fill-rule="evenodd"/><path stroke="#212121" stroke-width="4.0" stroke-linejoin="round" stroke-linecap="butt" d="m911.0578 123.376305l51.20508 0" fill-rule="evenodd"/><path fill="#212121" stroke="#212121" stroke-width="4.0" stroke-linecap="butt" d="m962.2629 123.376305l-4.498352 4.498329l12.35907 -4.498329l-12.35907 -4.498337z" fill-rule="evenodd"/><path fill="#000000" fill-opacity="0.0" d="m554.71533 123.3763l64.91333 0" fill-rule="evenodd"/><path stroke="#212121" stroke-width="4.0" stroke-linejoin="round" stroke-linecap="butt" d="m554.71533 123.376305l51.205017 0" fill-rule="evenodd"/><path fill="#212121" stroke="#212121" stroke-width="4.0" stroke-linecap="butt" d="m605.92035 123.376305l-4.498352 4.498329l12.35907 -4.498329l-12.35907 -4.498337z" fill-rule="evenodd"/><path fill="#000000" fill-opacity="0.0" d="m93.06562 154.57742l97.35433 0l0 84.220474l-97.35433 0z" fill-rule="evenodd"/><path fill="#3f3f3f" d="m131.6881 193.99489q0 -2.625 -0.734375 -4.359375q-2.328125 2.46875 -4.515625 3.78125l-1.609375 -2.625q3.0625 -1.75 4.8125 -3.9375q-1.609375 -3.203125 -3.640625 -5.25l1.890625 -1.890625q1.890625 1.75 3.640625 4.8125q1.46875 -1.75 2.625 -4.234375l2.625 1.46875q0.59375 0.578125 -0.4375 0.71875q-1.015625 1.609375 -3.34375 4.8125q1.75 3.796875 1.75 10.359375l0 8.59375q0 5.984375 -4.234375 5.984375l-2.625 0l-0.4375 -2.765625l2.046875 0q2.46875 0 2.46875 -3.5l0 -8.03125q-1.59375 3.359375 -5.53125 6.421875l-1.46875 -2.625q3.5 -2.765625 6.71875 -7.734375zm20.984375 -6.703125l0 2.921875l-2.90625 0l0 -2.921875l-5.40625 0l0 2.921875l-2.90625 0l0 -2.921875l-5.390625 0l0 -2.765625l5.390625 0l0 -4.953125l2.765625 0q1.171875 0.140625 0.140625 0.875l0 4.078125l5.40625 0l0 -5.109375l2.765625 0q1.171875 0.15625 0.140625 0.875l0 4.234375l5.6875 0l0 2.765625l-5.6875 0zm1.75 23.1875l-13.984375 0l0 1.890625l-2.921875 0l0 -20.5625l19.828125 0l0 20.125l-2.921875 0l0 -1.453125zm-13.984375 -10.5l5.671875 0l0 -5.390625l-5.671875 0l0 5.390625zm8.15625 0l5.828125 0l0 -5.390625l-5.828125 0l0 5.390625zm5.828125 7.734375l0 -5.40625l-5.828125 0l0 5.40625l5.828125 0zm-13.984375 0l5.671875 0l0 -5.40625l-5.671875 0l0 5.40625z" fill-rule="nonzero"/><path fill="#000000" fill-opacity="0.0" d="m271.2362 158.43832l97.35434 0l0 84.220474l-97.35434 0z" fill-rule="evenodd"/><path fill="#3f3f3f" d="m328.07745 194.35577q0.296875 5.546875 0 11.09375q4.375 1.59375 8.453125 4.515625l-1.75 2.765625q-3.0625 -2.328125 -6.703125 -4.078125q0 2.625 -1.609375 4.234375q-1.75 1.75 -5.09375 1.75q-3.359375 0 -5.109375 -1.75q-1.453125 -1.46875 -1.453125 -3.796875q0 -2.046875 1.171875 -3.203125q1.75 -1.75 5.234375 -1.75q1.90625 0 3.796875 0.4375q0.296875 -4.96875 0 -10.0625l-10.78125 0.71875l0 -3.046875l10.484375 -0.59375q-0.140625 -4.078125 -0.578125 -7.28125l3.0625 0q1.609375 0.28125 0.296875 1.15625q0.140625 3.0625 0.28125 5.984375l7.875 -0.4375l0 3.0625l-7.578125 0.28125zm-22.015625 19.546875q-0.578125 -4.078125 -0.578125 -9.484375q0 -11.796875 1.75 -18.953125l3.203125 0.59375q1.015625 0.4375 -0.140625 1.015625q-1.609375 5.109375 -1.609375 17.34375q0 5.546875 0.734375 8.90625l-3.359375 0.578125zm18.953125 -6.421875q-2.484375 -0.71875 -3.796875 -0.71875q-2.03125 0 -2.90625 0.875q-0.734375 0.71875 -0.734375 1.453125q0 1.171875 0.59375 1.75q1.015625 1.015625 3.046875 1.015625q2.046875 0 2.921875 -1.015625q1.015625 -1.171875 0.875 -3.359375z" fill-rule="nonzero"/><path fill="#000000" fill-opacity="0.0" d="m430.77298 158.43832l137.5748 0l0 84.220474l-137.5748 0z" fill-rule="evenodd"/><path fill="#3f3f3f" d="m476.4413 205.15265q3.0625 2.921875 4.96875 5.109375l-2.921875 2.625q-5.53125 -6.5625 -12.6875 -11.8125l2.046875 -2.625q2.625 1.59375 5.828125 4.515625q4.375 -4.375 8.890625 -10.78125l-22.890625 1.015625l-0.578125 -3.640625l25.515625 -0.59375l1.453125 -0.4375l2.1875 2.34375q0.734375 1.15625 -0.578125 1.015625q-3.640625 4.8125 -11.234375 13.265625zm39.229706 -9.921875q-1.015625 9.484375 -5.2500305 13.71875q-4.21875 4.21875 -11.078125 6.703125l-1.890625 -2.765625q6.703125 -2.1875 10.5 -5.984375q4.0781555 -4.078125 4.6562805 -13.84375l3.0625 1.015625q1.3125 0.4375 0 1.15625zm-12.3906555 5.25q-1.75 -3.9375 -3.5 -6.546875l2.765625 -1.46875q2.1875 2.765625 3.796875 6.5625l-3.0625 1.453125zm-7.4375 2.1875q-1.75 -4.078125 -3.640625 -6.84375l2.90625 -1.46875q2.046875 2.78125 3.65625 6.71875l-2.921875 1.59375zm30.178497 -7.140625q7.15625 2.046875 14.4375 5.546875l-1.75 3.34375q-7.71875 -3.9375 -12.6875 -5.25l0 15.171875l-3.34375 0l0 -29.15625l2.90625 0q1.75 0.140625 0.4375 1.15625l0 9.1875z" fill-rule="nonzero"/><path fill="#000000" fill-opacity="0.0" d="m627.57745 158.43832l97.35431 0l0 84.220474l-97.35431 0z" fill-rule="evenodd"/><path fill="#3f3f3f" d="m677.7155 192.46515q-2.484375 14.578125 -5.984375 18.078125q-1.890625 1.90625 -3.9375 1.90625q-2.328125 0 -3.640625 -1.3125q-3.5 -3.5 -3.5 -8.75q0 -6.421875 4.515625 -10.9375q4.96875 -4.953125 12.109375 -4.953125q6.40625 0 10.0625 3.640625q4.078125 4.078125 4.078125 9.625q0 5.96875 -3.796875 9.765625q-2.46875 2.484375 -7.578125 4.8125l-3.0625 -3.0625q5.109375 -1.609375 8.015625 -4.515625q2.78125 -2.78125 2.78125 -6.71875q0 -4.65625 -3.0625 -7.71875q-3.0625 -3.0625 -9.625 -2.765625l2.625 1.3125q1.75 0.71875 0 1.59375zm-3.359375 -2.765625q-3.78125 0.875 -6.5625 3.640625q-3.78125 3.796875 -3.78125 9.328125q0 3.359375 2.1875 5.546875q0.4375 0.4375 1.3125 0.4375q0.875 0 1.890625 -1.015625q3.359375 -3.359375 4.953125 -17.9375z" fill-rule="nonzero"/><path fill="#000000" fill-opacity="0.0" d="m805.74805 158.43832l97.35431 0l0 84.220474l-97.35431 0z" fill-rule="evenodd"/><path fill="#3f3f3f" d="m833.80005 209.96515l0 -25.8125l3.203125 0q1.453125 0.296875 0.140625 1.171875l0 8.453125l11.8125 0l0 3.203125l-11.8125 0l0 12.984375l15.171875 0l0 3.203125l-31.640625 0l0 -3.203125l13.125 0zm46.65625 1.3125q-6.859375 0 -11.375 -4.375l1.890625 -2.484375q3.9375 3.796875 9.484375 3.65625l8.015625 0l0 3.203125l-8.015625 0zm-20.859375 2.765625q-0.4375 -7.578125 -0.4375 -12.96875q0 -6.5625 1.609375 -15.609375l2.921875 0.734375q1.59375 0.296875 0.140625 1.3125q-1.453125 8.453125 -1.453125 13.5625q0 5.6875 0.578125 12.6875l-3.359375 0.28125zm26.984375 -21.578125q-6.28125 -0.140625 -16.328125 0.875l0 -3.0625q10.484375 -1.015625 16.328125 -0.875l0 3.0625z" fill-rule="nonzero"/><path fill="#000000" fill-opacity="0.0" d="m983.91864 158.43832l97.35431 0l0 84.220474l-97.35431 0z" fill-rule="evenodd"/><path fill="#3f3f3f" d="m1018.66315 186.34015l13.281311 0l0 2.78125l-26.546936 0l0 15.453125q0 5.6875 -3.34375 11.21875l-2.921875 -2.1875q3.359375 -5.09375 3.359375 -11.21875l0 -16.046875l12.828125 0l0 -3.640625l3.203125 0q1.453125 0.296875 0.140625 1.171875l0 2.46875zm1.3125 15.015625q3.9375 -4.8125 4.531311 -10.78125l2.90625 0.578125q0.875 0.296875 0 0.734375q-0.4375 2.046875 -0.875 3.5q3.65625 1.75 5.6875 3.78125l-1.890625 2.921875q-2.328125 -2.328125 -4.671875 -4.234375q-1.453125 3.359375 -3.343811 5.40625l-2.34375 -1.75l0 2.765625l10.062561 0l0 2.765625l-10.062561 0l0 5.109375l12.843811 0l0 2.765625l-27.421936 0l0 -2.765625l11.671875 0l0 -5.109375l-8.890625 0l0 -2.765625l8.890625 0l0 -4.8125l-1.890625 2.765625q-2.046875 -2.03125 -3.796875 -3.34375q-1.3125 2.765625 -3.203125 4.8125l-2.34375 -2.1875q4.09375 -4.09375 4.53125 -10.5l2.90625 0.578125q0.875 0.296875 0 0.734375q-0.4375 2.765625 -0.875 4.078125q1.75 0.4375 4.671875 2.765625l0 -9.03125l2.765625 0q1.171875 0.140625 0.140625 0.875l0 10.34375zm35.734436 10.9375q2.328125 -0.28125 3.9375 -1.890625q1.75 -1.75 1.75 -4.671875q0 -3.203125 -1.90625 -5.09375q-1.890625 -1.90625 -5.96875 -1.90625q-4.8125 0 -7.4375 1.90625q-2.484375 1.75 -6.421875 6.265625l-2.46875 -2.1875q10.5 -10.5 15.890625 -17.5q-4.8125 0.59375 -9.625 1.03125l-1.015625 -3.359375q7.140625 0 12.671875 -0.734375l1.3125 -0.578125l1.609375 1.609375q1.609375 1.453125 -0.734375 1.890625q-4.359375 4.953125 -8.734375 9.765625q3.0625 -0.734375 5.09375 -0.734375q5.546875 0 8.171875 2.625q2.625 2.625 2.625 6.71875q0 4.21875 -2.34375 6.5625q-3.5 3.5 -8.890625 3.5q-5.09375 0 -7.4375 -2.34375q-1.890625 -1.890625 -1.890625 -4.515625q0 -1.75 1.3125 -3.0625q1.453125 -1.453125 3.359375 -1.453125q2.625 0 4.375 1.75q2.03125 2.03125 2.765625 6.40625zm-2.921875 0.4375q-0.4375 -3.78125 -1.75 -5.09375q-1.015625 -1.03125 -2.03125 -1.03125q-1.171875 0 -1.75 0.59375q-0.734375 0.71875 -0.734375 1.59375q0 1.3125 1.171875 2.484375q1.453125 1.453125 3.78125 1.453125q0.59375 0 1.3125 0z" fill-rule="nonzero"/><path fill="#000000" fill-opacity="0.0" d="m818.8268 0l347.4646 0l0 68.53543l-347.4646 0z" fill-rule="evenodd"/><path fill="#000000" d="m845.24866 46.009373q0 0.359375 -0.046875 0.625q-0.03125 0.25 -0.125 0.4375q-0.09375 0.171875 -0.234375 0.25q-0.125 0.078125 -0.28125 0.078125l-12.125 0q-0.453125 0 -0.859375 -0.296875q-0.390625 -0.3125 -0.390625 -1.078125l0 -22.53125q0 -0.765625 0.390625 -1.0625q0.40625 -0.3125 0.859375 -0.3125l12.0 0q0.15625 0 0.28125 0.078125q0.125 0.078125 0.203125 0.265625q0.078125 0.171875 0.125 0.4375q0.046875 0.265625 0.046875 0.65625q0 0.34375 -0.046875 0.609375q-0.046875 0.265625 -0.125 0.4375q-0.078125 0.15625 -0.203125 0.234375q-0.125 0.078125 -0.28125 0.078125l-9.890625 0l0 7.9375l8.484375 0q0.15625 0 0.28125 0.09375q0.125 0.078125 0.203125 0.234375q0.09375 0.15625 0.125 0.4375q0.046875 0.265625 0.046875 0.640625q0 0.34375 -0.046875 0.609375q-0.03125 0.25 -0.125 0.40625q-0.078125 0.15625 -0.203125 0.21875q-0.125 0.0625 -0.28125 0.0625l-8.484375 0l0 9.046875l10.015625 0q0.15625 0 0.28125 0.078125q0.140625 0.078125 0.234375 0.25q0.09375 0.15625 0.125 0.421875q0.046875 0.265625 0.046875 0.65625zm20.234375 0.90625q0 0.15625 -0.078125 0.265625q-0.078125 0.09375 -0.25 0.1875q-0.171875 0.078125 -0.484375 0.109375q-0.3125 0.046875 -0.78125 0.046875q-0.5 0 -0.8125 -0.046875q-0.3125 -0.03125 -0.484375 -0.109375q-0.171875 -0.09375 -0.25 -0.1875q-0.078125 -0.109375 -0.078125 -0.265625l0 -10.296875q0 -1.5 -0.234375 -2.421875q-0.234375 -0.921875 -0.6875 -1.578125q-0.453125 -0.671875 -1.171875 -1.015625q-0.703125 -0.359375 -1.640625 -0.359375q-1.203125 0 -2.421875 0.859375q-1.203125 0.859375 -2.53125 2.515625l0 12.296875q0 0.15625 -0.078125 0.265625q-0.078125 0.09375 -0.265625 0.1875q-0.171875 0.078125 -0.484375 0.109375q-0.3125 0.046875 -0.796875 0.046875q-0.46875 0 -0.78125 -0.046875q-0.3125 -0.03125 -0.5 -0.109375q-0.1875 -0.09375 -0.265625 -0.1875q-0.0625 -0.109375 -0.0625 -0.265625l0 -17.578125q0 -0.15625 0.0625 -0.265625q0.0625 -0.109375 0.234375 -0.1875q0.171875 -0.09375 0.4375 -0.125q0.28125 -0.03125 0.734375 -0.03125q0.4375 0 0.71875 0.03125q0.28125 0.03125 0.4375 0.125q0.15625 0.078125 0.21875 0.1875q0.078125 0.109375 0.078125 0.265625l0 2.3125q1.484375 -1.65625 2.953125 -2.421875q1.46875 -0.78125 2.984375 -0.78125q1.75 0 2.953125 0.609375q1.203125 0.59375 1.9375 1.59375q0.75 0.984375 1.0625 2.328125q0.328125 1.328125 0.328125 3.203125l0 10.734375zm18.515625 -2.6875q0 0.34375 -0.015625 0.59375q-0.015625 0.234375 -0.078125 0.40625q-0.046875 0.15625 -0.109375 0.28125q-0.0625 0.125 -0.3125 0.375q-0.25 0.25 -0.84375 0.609375q-0.578125 0.359375 -1.3125 0.640625q-0.71875 0.28125 -1.578125 0.453125q-0.859375 0.1875 -1.78125 0.1875q-1.890625 0 -3.359375 -0.625q-1.46875 -0.625 -2.453125 -1.828125q-0.984375 -1.203125 -1.5 -2.953125q-0.515625 -1.75 -0.515625 -4.03125q0 -2.59375 0.625 -4.453125q0.640625 -1.875 1.734375 -3.0625q1.109375 -1.203125 2.59375 -1.765625q1.5 -0.578125 3.25 -0.578125q0.828125 0 1.625 0.15625q0.796875 0.15625 1.453125 0.40625q0.671875 0.25 1.1875 0.59375q0.515625 0.328125 0.75 0.5625q0.234375 0.234375 0.3125 0.375q0.09375 0.125 0.15625 0.3125q0.0625 0.1875 0.078125 0.421875q0.015625 0.234375 0.015625 0.578125q0 0.765625 -0.171875 1.078125q-0.171875 0.296875 -0.4375 0.296875q-0.28125 0 -0.671875 -0.3125q-0.375 -0.328125 -0.96875 -0.71875q-0.578125 -0.390625 -1.40625 -0.71875q-0.828125 -0.328125 -1.96875 -0.328125q-2.328125 0 -3.5625 1.796875q-1.234375 1.78125 -1.234375 5.1875q0 1.6875 0.3125 2.96875q0.328125 1.28125 0.953125 2.140625q0.625 0.859375 1.53125 1.28125q0.90625 0.421875 2.078125 0.421875q1.109375 0 1.953125 -0.34375q0.84375 -0.359375 1.453125 -0.78125q0.625 -0.421875 1.03125 -0.765625q0.421875 -0.34375 0.65625 -0.34375q0.140625 0 0.234375 0.078125q0.109375 0.078125 0.171875 0.265625q0.0625 0.1875 0.09375 0.46875q0.03125 0.28125 0.03125 0.671875zm20.300781 -6.296875q0 2.140625 -0.578125 3.953125q-0.5625 1.796875 -1.6875 3.109375q-1.125 1.3125 -2.8125 2.046875q-1.6875 0.734375 -3.90625 0.734375q-2.171875 0 -3.78125 -0.640625q-1.609375 -0.65625 -2.6875 -1.875q-1.078125 -1.234375 -1.609375 -2.984375q-0.515625 -1.765625 -0.515625 -4.0q0 -2.140625 0.546875 -3.953125q0.5625 -1.8125 1.6875 -3.109375q1.125 -1.3125 2.796875 -2.03125q1.6875 -0.734375 3.921875 -0.734375q2.171875 0 3.78125 0.65625q1.609375 0.640625 2.6875 1.875q1.078125 1.21875 1.609375 2.984375q0.546875 1.75 0.546875 3.96875zm-3.40625 0.203125q0 -1.421875 -0.265625 -2.6875q-0.265625 -1.265625 -0.875 -2.21875q-0.59375 -0.96875 -1.640625 -1.515625q-1.03125 -0.5625 -2.5625 -0.5625q-1.4375 0 -2.46875 0.515625q-1.015625 0.5 -1.6875 1.4375q-0.65625 0.921875 -0.984375 2.1875q-0.3125 1.265625 -0.3125 2.765625q0 1.453125 0.265625 2.71875q0.265625 1.265625 0.875 2.21875q0.609375 0.953125 1.640625 1.515625q1.046875 0.546875 2.59375 0.546875q1.40625 0 2.4375 -0.5q1.03125 -0.515625 1.6875 -1.4375q0.671875 -0.921875 0.984375 -2.1875q0.3125 -1.265625 0.3125 -2.796875zm23.203125 8.78125q0 0.15625 -0.078125 0.28125q-0.0625 0.109375 -0.234375 0.1875q-0.15625 0.0625 -0.4375 0.09375q-0.265625 0.046875 -0.65625 0.046875q-0.40625 0 -0.6875 -0.046875q-0.265625 -0.03125 -0.453125 -0.09375q-0.171875 -0.078125 -0.25 -0.1875q-0.078125 -0.125 -0.078125 -0.28125l0 -2.328125q-1.375 1.5 -2.875 2.34375q-1.5 0.84375 -3.265625 0.84375q-1.9375 0 -3.3125 -0.75q-1.359375 -0.765625 -2.21875 -2.03125q-0.84375 -1.28125 -1.234375 -3.015625q-0.390625 -1.734375 -0.390625 -3.640625q0 -2.265625 0.484375 -4.09375q0.5 -1.828125 1.453125 -3.109375q0.953125 -1.296875 2.359375 -1.984375q1.421875 -0.703125 3.28125 -0.703125q1.546875 0 2.828125 0.6875q1.28125 0.671875 2.53125 1.96875l0 -10.203125q0 -0.140625 0.0625 -0.265625q0.0625 -0.125 0.25 -0.1875q0.203125 -0.078125 0.5 -0.125q0.3125 -0.046875 0.78125 -0.046875q0.484375 0 0.796875 0.046875q0.3125 0.046875 0.484375 0.125q0.1875 0.0625 0.265625 0.1875q0.09375 0.125 0.09375 0.265625l0 26.015625zm-3.234375 -12.375q-1.3125 -1.609375 -2.53125 -2.453125q-1.21875 -0.859375 -2.546875 -0.859375q-1.234375 0 -2.09375 0.59375q-0.859375 0.578125 -1.40625 1.53125q-0.53125 0.953125 -0.78125 2.171875q-0.234375 1.203125 -0.234375 2.453125q0 1.328125 0.203125 2.609375q0.203125 1.265625 0.703125 2.25q0.515625 0.984375 1.359375 1.578125q0.84375 0.59375 2.109375 0.59375q0.640625 0 1.234375 -0.171875q0.59375 -0.171875 1.21875 -0.578125q0.625 -0.421875 1.3125 -1.0625q0.6875 -0.65625 1.453125 -1.625l0 -7.03125zm24.1875 2.8125q0 0.765625 -0.375 1.09375q-0.375 0.3125 -0.875 0.3125l-11.515625 0q0 1.46875 0.28125 2.640625q0.296875 1.171875 0.984375 2.015625q0.6875 0.84375 1.78125 1.296875q1.09375 0.4375 2.671875 0.4375q1.25 0 2.21875 -0.203125q0.984375 -0.203125 1.6875 -0.453125q0.71875 -0.265625 1.171875 -0.46875q0.46875 -0.203125 0.703125 -0.203125q0.140625 0 0.25 0.078125q0.109375 0.0625 0.15625 0.203125q0.0625 0.125 0.09375 0.375q0.03125 0.25 0.03125 0.59375q0 0.25 -0.03125 0.4375q-0.015625 0.1875 -0.046875 0.34375q-0.015625 0.140625 -0.09375 0.265625q-0.0625 0.109375 -0.171875 0.21875q-0.109375 0.109375 -0.640625 0.359375q-0.515625 0.234375 -1.359375 0.46875q-0.84375 0.234375 -1.953125 0.421875q-1.09375 0.1875 -2.34375 0.1875q-2.171875 0 -3.8125 -0.609375q-1.625 -0.609375 -2.734375 -1.796875q-1.109375 -1.1875 -1.6875 -2.984375q-0.5625 -1.796875 -0.5625 -4.1875q0 -2.265625 0.578125 -4.0625q0.59375 -1.8125 1.703125 -3.0625q1.109375 -1.265625 2.671875 -1.9375q1.5625 -0.6875 3.484375 -0.6875q2.078125 0 3.53125 0.671875q1.453125 0.65625 2.390625 1.78125q0.9375 1.125 1.375 2.640625q0.4375 1.515625 0.4375 3.234375l0 0.578125zm-3.234375 -0.953125q0.0625 -2.53125 -1.125 -3.96875q-1.1875 -1.453125 -3.5 -1.453125q-1.203125 0 -2.109375 0.453125q-0.890625 0.4375 -1.5 1.1875q-0.59375 0.734375 -0.9375 1.71875q-0.328125 0.984375 -0.359375 2.0625l9.53125 0zm18.417969 -5.921875q0 0.4375 -0.03125 0.734375q-0.015625 0.28125 -0.078125 0.453125q-0.046875 0.171875 -0.140625 0.265625q-0.078125 0.078125 -0.234375 0.078125q-0.15625 0 -0.390625 -0.078125q-0.21875 -0.09375 -0.5 -0.1875q-0.28125 -0.09375 -0.640625 -0.171875q-0.34375 -0.078125 -0.765625 -0.078125q-0.484375 0 -0.953125 0.203125q-0.46875 0.1875 -0.984375 0.640625q-0.515625 0.453125 -1.09375 1.203125q-0.5625 0.734375 -1.234375 1.8125l0 11.5625q0 0.15625 -0.078125 0.265625q-0.078125 0.09375 -0.265625 0.1875q-0.171875 0.078125 -0.484375 0.109375q-0.3125 0.046875 -0.796875 0.046875q-0.46875 0 -0.78125 -0.046875q-0.3125 -0.03125 -0.5 -0.109375q-0.1875 -0.09375 -0.265625 -0.1875q-0.0625 -0.109375 -0.0625 -0.265625l0 -17.578125q0 -0.15625 0.0625 -0.265625q0.0625 -0.109375 0.234375 -0.1875q0.171875 -0.09375 0.4375 -0.125q0.28125 -0.03125 0.734375 -0.03125q0.4375 0 0.71875 0.03125q0.28125 0.03125 0.4375 0.125q0.15625 0.078125 0.21875 0.1875q0.078125 0.109375 0.078125 0.265625l0 2.546875q0.71875 -1.046875 1.34375 -1.703125q0.640625 -0.671875 1.203125 -1.046875q0.578125 -0.390625 1.125 -0.53125q0.5625 -0.15625 1.125 -0.15625q0.25 0 0.578125 0.03125q0.328125 0.03125 0.671875 0.109375q0.359375 0.078125 0.640625 0.1875q0.28125 0.09375 0.390625 0.1875q0.125 0.09375 0.15625 0.1875q0.046875 0.078125 0.078125 0.21875q0.03125 0.140625 0.03125 0.40625q0.015625 0.265625 0.015625 0.703125z" fill-rule="nonzero"/><path fill="#000000" fill-opacity="0.0" d="m983.91864 485.58792l184.18903 0l0 68.53543l-184.18903 0z" fill-rule="evenodd"/><path fill="#000000" d="m1015.7155 519.9723q0 3.28125 -0.84375 5.734375q-0.84375 2.453125 -2.453125 4.0625q-1.609375 1.609375 -3.953125 2.421875q-2.34375 0.796875 -5.578125 0.796875l-5.359375 0q-0.453125 0 -0.859375 -0.296875q-0.390625 -0.3125 -0.390625 -1.078125l0 -22.53125q0 -0.765625 0.390625 -1.0625q0.40625 -0.3125 0.859375 -0.3125l5.71875 0q3.28125 0 5.546875 0.859375q2.265625 0.84375 3.796875 2.4375q1.546875 1.59375 2.328125 3.859375q0.796875 2.265625 0.796875 5.109375zm-3.53125 0.140625q0 -2.046875 -0.515625 -3.8125q-0.5 -1.765625 -1.59375 -3.046875q-1.078125 -1.296875 -2.75 -2.015625q-1.65625 -0.734375 -4.265625 -0.734375l-3.421875 0l0 19.671875l3.453125 0q2.421875 0 4.078125 -0.609375q1.671875 -0.609375 2.78125 -1.859375q1.109375 -1.25 1.671875 -3.125q0.5625 -1.890625 0.5625 -4.46875zm23.328064 2.828125q0 0.765625 -0.375 1.09375q-0.375 0.3125 -0.875 0.3125l-11.515564 0q0 1.46875 0.28125 2.640625q0.296875 1.171875 0.98431396 2.015625q0.6875 0.84375 1.78125 1.296875q1.09375 0.4375 2.671875 0.4375q1.25 0 2.21875 -0.203125q0.984375 -0.203125 1.6875 -0.453125q0.71875 -0.265625 1.171875 -0.46875q0.46875 -0.203125 0.703125 -0.203125q0.140625 0 0.25 0.078125q0.109375 0.0625 0.15625 0.203125q0.0625 0.125 0.09375 0.375q0.03125 0.25 0.03125 0.59375q0 0.25 -0.03125 0.4375q-0.015625 0.1875 -0.046875 0.34375q-0.015625 0.140625 -0.09375 0.265625q-0.0625 0.109375 -0.171875 0.21875q-0.109375 0.109375 -0.640625 0.359375q-0.515625 0.234375 -1.359375 0.46875q-0.84375 0.234375 -1.953125 0.421875q-1.09375 0.1875 -2.34375 0.1875q-2.171875 0 -3.8125 -0.609375q-1.624939 -0.609375 -2.734314 -1.796875q-1.109375 -1.1875 -1.6875 -2.984375q-0.5625 -1.796875 -0.5625 -4.1875q0 -2.265625 0.578125 -4.0625q0.59375 -1.8125 1.703125 -3.0625q1.109375 -1.265625 2.671814 -1.9375q1.5625 -0.6875 3.484375 -0.6875q2.078125 0 3.53125 0.671875q1.453125 0.65625 2.390625 1.78125q0.9375 1.125 1.375 2.640625q0.4375 1.515625 0.4375 3.234375l0 0.578125zm-3.234375 -0.953125q0.0625 -2.53125 -1.125 -3.96875q-1.1875 -1.453125 -3.5 -1.453125q-1.203125 0 -2.109375 0.453125q-0.890625 0.4375 -1.5 1.1875q-0.59368896 0.734375 -0.93743896 1.71875q-0.328125 0.984375 -0.359375 2.0625l9.531189 0zm20.777344 7.828125q0 0.34375 -0.015625 0.59375q-0.015625 0.234375 -0.078125 0.40625q-0.046875 0.15625 -0.109375 0.28125q-0.0625 0.125 -0.3125 0.375q-0.25 0.25 -0.84375 0.609375q-0.578125 0.359375 -1.3125 0.640625q-0.71875 0.28125 -1.578125 0.453125q-0.859375 0.1875 -1.78125 0.1875q-1.890625 0 -3.359375 -0.625q-1.46875 -0.625 -2.453125 -1.828125q-0.984375 -1.203125 -1.5 -2.953125q-0.515625 -1.75 -0.515625 -4.03125q0 -2.59375 0.625 -4.453125q0.640625 -1.875 1.734375 -3.0625q1.109375 -1.203125 2.59375 -1.765625q1.5 -0.578125 3.25 -0.578125q0.828125 0 1.625 0.15625q0.796875 0.15625 1.453125 0.40625q0.671875 0.25 1.1875 0.59375q0.515625 0.328125 0.75 0.5625q0.234375 0.234375 0.3125 0.375q0.09375 0.125 0.15625 0.3125q0.0625 0.1875 0.078125 0.421875q0.015625 0.234375 0.015625 0.578125q0 0.765625 -0.171875 1.078125q-0.171875 0.296875 -0.4375 0.296875q-0.28125 0 -0.671875 -0.3125q-0.375 -0.328125 -0.96875 -0.71875q-0.578125 -0.390625 -1.40625 -0.71875q-0.828125 -0.328125 -1.96875 -0.328125q-2.328125 0 -3.5625 1.796875q-1.234375 1.78125 -1.234375 5.1875q0 1.6875 0.3125 2.96875q0.328125 1.28125 0.953125 2.140625q0.625 0.859375 1.53125 1.28125q0.90625 0.421875 2.078125 0.421875q1.109375 0 1.953125 -0.34375q0.84375 -0.359375 1.453125 -0.78125q0.625 -0.421875 1.03125 -0.765625q0.421875 -0.34375 0.65625 -0.34375q0.140625 0 0.234375 0.078125q0.109375 0.078125 0.171875 0.265625q0.0625 0.1875 0.09375 0.46875q0.03125 0.28125 0.03125 0.671875zm20.300781 -6.296875q0 2.140625 -0.578125 3.953125q-0.5625 1.796875 -1.6875 3.109375q-1.125 1.3125 -2.8125 2.046875q-1.6875 0.734375 -3.90625 0.734375q-2.171875 0 -3.78125 -0.640625q-1.609375 -0.65625 -2.6875 -1.875q-1.078125 -1.234375 -1.609375 -2.984375q-0.515625 -1.765625 -0.515625 -4.0q0 -2.140625 0.546875 -3.953125q0.5625 -1.8125 1.6875 -3.109375q1.125 -1.3125 2.796875 -2.03125q1.6875 -0.734375 3.921875 -0.734375q2.171875 0 3.78125 0.65625q1.609375 0.640625 2.6875 1.875q1.078125 1.21875 1.609375 2.984375q0.546875 1.75 0.546875 3.96875zm-3.40625 0.203125q0 -1.421875 -0.265625 -2.6875q-0.265625 -1.265625 -0.875 -2.21875q-0.59375 -0.96875 -1.640625 -1.515625q-1.03125 -0.5625 -2.5625 -0.5625q-1.4375 0 -2.46875 0.515625q-1.015625 0.5 -1.6875 1.4375q-0.65625 0.921875 -0.984375 2.1875q-0.3125 1.265625 -0.3125 2.765625q0 1.453125 0.265625 2.71875q0.265625 1.265625 0.875 2.21875q0.609375 0.953125 1.640625 1.515625q1.046875 0.546875 2.59375 0.546875q1.40625 0 2.4375 -0.5q1.03125 -0.515625 1.6875 -1.4375q0.671875 -0.921875 0.984375 -2.1875q0.3125 -1.265625 0.3125 -2.796875zm23.203125 8.78125q0 0.15625 -0.078125 0.28125q-0.0625 0.109375 -0.234375 0.1875q-0.15625 0.0625 -0.4375 0.09375q-0.265625 0.046875 -0.65625 0.046875q-0.40625 0 -0.6875 -0.046875q-0.265625 -0.03125 -0.453125 -0.09375q-0.171875 -0.078125 -0.25 -0.1875q-0.078125 -0.125 -0.078125 -0.28125l0 -2.328125q-1.375 1.5 -2.875 2.34375q-1.5 0.84375 -3.265625 0.84375q-1.9375 0 -3.3125 -0.75q-1.359375 -0.765625 -2.21875 -2.03125q-0.84375 -1.28125 -1.234375 -3.015625q-0.390625 -1.734375 -0.390625 -3.640625q0 -2.265625 0.484375 -4.09375q0.5 -1.828125 1.453125 -3.109375q0.953125 -1.296875 2.359375 -1.984375q1.421875 -0.703125 3.28125 -0.703125q1.546875 0 2.828125 0.6875q1.28125 0.671875 2.53125 1.96875l0 -10.203125q0 -0.140625 0.0625 -0.265625q0.0625 -0.125 0.25 -0.1875q0.203125 -0.078125 0.5 -0.125q0.3125 -0.046875 0.78125 -0.046875q0.484375 0 0.796875 0.046875q0.3125 0.046875 0.484375 0.125q0.1875 0.0625 0.265625 0.1875q0.09375 0.125 0.09375 0.265625l0 26.015625zm-3.234375 -12.375q-1.3125 -1.609375 -2.53125 -2.453125q-1.21875 -0.859375 -2.546875 -0.859375q-1.234375 0 -2.09375 0.59375q-0.859375 0.578125 -1.40625 1.53125q-0.53125 0.953125 -0.78125 2.171875q-0.234375 1.203125 -0.234375 2.453125q0 1.328125 0.203125 2.609375q0.203125 1.265625 0.703125 2.25q0.515625 0.984375 1.359375 1.578125q0.84375 0.59375 2.109375 0.59375q0.640625 0 1.234375 -0.171875q0.59375 -0.171875 1.21875 -0.578125q0.625 -0.421875 1.3125 -1.0625q0.6875 -0.65625 1.453125 -1.625l0 -7.03125zm24.1875 2.8125q0 0.765625 -0.375 1.09375q-0.375 0.3125 -0.875 0.3125l-11.515625 0q0 1.46875 0.28125 2.640625q0.296875 1.171875 0.984375 2.015625q0.6875 0.84375 1.78125 1.296875q1.09375 0.4375 2.671875 0.4375q1.25 0 2.21875 -0.203125q0.984375 -0.203125 1.6875 -0.453125q0.71875 -0.265625 1.171875 -0.46875q0.46875 -0.203125 0.703125 -0.203125q0.140625 0 0.25 0.078125q0.109375 0.0625 0.15625 0.203125q0.0625 0.125 0.09375 0.375q0.03125 0.25 0.03125 0.59375q0 0.25 -0.03125 0.4375q-0.015625 0.1875 -0.046875 0.34375q-0.015625 0.140625 -0.09375 0.265625q-0.0625 0.109375 -0.171875 0.21875q-0.109375 0.109375 -0.640625 0.359375q-0.515625 0.234375 -1.359375 0.46875q-0.84375 0.234375 -1.953125 0.421875q-1.09375 0.1875 -2.34375 0.1875q-2.171875 0 -3.8125 -0.609375q-1.625 -0.609375 -2.734375 -1.796875q-1.109375 -1.1875 -1.6875 -2.984375q-0.5625 -1.796875 -0.5625 -4.1875q0 -2.265625 0.578125 -4.0625q0.59375 -1.8125 1.703125 -3.0625q1.109375 -1.265625 2.671875 -1.9375q1.5625 -0.6875 3.484375 -0.6875q2.078125 0 3.53125 0.671875q1.453125 0.65625 2.390625 1.78125q0.9375 1.125 1.375 2.640625q0.4375 1.515625 0.4375 3.234375l0 0.578125zm-3.234375 -0.953125q0.0625 -2.53125 -1.125 -3.96875q-1.1875 -1.453125 -3.5 -1.453125q-1.203125 0 -2.109375 0.453125q-0.890625 0.4375 -1.5 1.1875q-0.59375 0.734375 -0.9375 1.71875q-0.328125 0.984375 -0.359375 2.0625l9.53125 0zm18.417969 -5.921875q0 0.4375 -0.03125 0.734375q-0.015625 0.28125 -0.078125 0.453125q-0.046875 0.171875 -0.140625 0.265625q-0.078125 0.078125 -0.234375 0.078125q-0.15625 0 -0.390625 -0.078125q-0.21875 -0.09375 -0.5 -0.1875q-0.28125 -0.09375 -0.640625 -0.171875q-0.34375 -0.078125 -0.765625 -0.078125q-0.484375 0 -0.953125 0.203125q-0.46875 0.1875 -0.984375 0.640625q-0.515625 0.453125 -1.09375 1.203125q-0.5625 0.734375 -1.234375 1.8125l0 11.5625q0 0.15625 -0.078125 0.265625q-0.078125 0.09375 -0.265625 0.1875q-0.171875 0.078125 -0.484375 0.109375q-0.3125 0.046875 -0.796875 0.046875q-0.46875 0 -0.78125 -0.046875q-0.3125 -0.03125 -0.5 -0.109375q-0.1875 -0.09375 -0.265625 -0.1875q-0.0625 -0.109375 -0.0625 -0.265625l0 -17.578125q0 -0.15625 0.0625 -0.265625q0.0625 -0.109375 0.234375 -0.1875q0.171875 -0.09375 0.4375 -0.125q0.28125 -0.03125 0.734375 -0.03125q0.4375 0 0.71875 0.03125q0.28125 0.03125 0.4375 0.125q0.15625 0.078125 0.21875 0.1875q0.078125 0.109375 0.078125 0.265625l0 2.546875q0.71875 -1.046875 1.34375 -1.703125q0.640625 -0.671875 1.203125 -1.046875q0.578125 -0.390625 1.125 -0.53125q0.5625 -0.15625 1.125 -0.15625q0.25 0 0.578125 0.03125q0.328125 0.03125 0.671875 0.109375q0.359375 0.078125 0.640625 0.1875q0.28125 0.09375 0.390625 0.1875q0.125 0.09375 0.15625 0.1875q0.046875 0.078125 0.078125 0.21875q0.03125 0.140625 0.03125 0.40625q0.015625 0.265625 0.015625 0.703125z" fill-rule="nonzero"/></g></svg>