<svg version="1.1" viewBox="0.0 0.0 960.0 540.0" fill="none" stroke="none" stroke-linecap="square" stroke-miterlimit="10" xmlns:xlink="http://www.w3.org/1999/xlink" xmlns="http://www.w3.org/2000/svg"><clipPath id="g1e4950d2a1c_0_30.0"><path d="m0 0l960.0 0l0 540.0l-960.0 0l0 -540.0z" clip-rule="nonzero"/></clipPath><g clip-path="url(#g1e4950d2a1c_0_30.0)"><path fill="#000000" fill-opacity="0.0" d="m0 0l960.0 0l0 540.0l-960.0 0z" fill-rule="evenodd"/><path fill="#3f3f3f" d="m383.27954 225.49213l148.93701 0l0 133.53543l-148.93701 0z" fill-rule="evenodd"/><path fill="#323232" d="m532.21655 225.49213l44.51178 -44.51181l0 133.53543l-44.51178 44.51181z" fill-rule="evenodd"/><path fill="#656565" d="m383.27954 225.49213l44.51181 -44.51181l148.93698 0l-44.51178 44.51181z" fill-rule="evenodd"/><path fill="#000000" fill-opacity="0.0" d="m383.27954 225.49213l44.51181 -44.51181l148.93698 0l0 133.53543l-44.51178 44.51181l-148.93701 0zm0 0l148.93701 0l44.51178 -44.51181m-44.51178 44.51181l0 133.53543" fill-rule="evenodd"/><path stroke="#595959" stroke-width="1.0" stroke-linejoin="round" stroke-linecap="butt" d="m383.27954 225.49213l44.51181 -44.51181l148.93698 0l0 133.53543l-44.51178 44.51181l-148.93701 0zm0 0l148.93701 0l44.51178 -44.51181m-44.51178 44.51181l0 133.53543" fill-rule="evenodd"/><path fill="#ffffff" d="m449.0664 304.86295q0 0.453125 -0.15625 0.8125q-0.15625 0.34375 -0.421875 0.578125q-0.265625 0.234375 -0.625 0.34375q-0.359375 0.109375 -0.734375 0.109375l-2.1875 0q-0.671875 0 -1.171875 -0.140625q-0.5 -0.140625 -0.921875 -0.5q-0.421875 -0.359375 -0.8125 -0.96875q-0.390625 -0.625 -0.875 -1.609375l-6.296875 -11.8125q-0.546875 -1.046875 -1.109375 -2.265625q-0.5625 -1.234375 -1.015625 -2.375l-0.03125 0q0.078125 1.40625 0.109375 2.796875q0.046875 1.390625 0.046875 2.875l0 13.234375q0 0.1875 -0.109375 0.34375q-0.109375 0.15625 -0.375 0.265625q-0.265625 0.109375 -0.71875 0.171875q-0.4375 0.0625 -1.140625 0.0625q-0.6875 0 -1.140625 -0.0625q-0.453125 -0.0625 -0.703125 -0.171875q-0.25 -0.109375 -0.359375 -0.265625q-0.09375 -0.15625 -0.09375 -0.34375l0 -22.71875q0 -0.921875 0.53125 -1.375q0.546875 -0.46875 1.328125 -0.46875l2.75 0q0.75 0 1.25 0.140625q0.515625 0.125 0.90625 0.421875q0.40625 0.28125 0.75 0.796875q0.359375 0.515625 0.734375 1.28125l4.921875 9.234375q0.421875 0.84375 0.84375 1.65625q0.421875 0.8125 0.8125 1.625q0.390625 0.8125 0.765625 1.59375q0.375 0.78125 0.71875 1.5625l0.015625 0q-0.046875 -1.375 -0.078125 -2.859375q-0.03125 -1.484375 -0.03125 -2.828125l0 -11.859375q0 -0.1875 0.109375 -0.34375q0.125 -0.15625 0.390625 -0.265625q0.28125 -0.125 0.71875 -0.171875q0.453125 -0.0625 1.15625 -0.0625q0.671875 0 1.109375 0.0625q0.453125 0.046875 0.703125 0.171875q0.25 0.109375 0.34375 0.265625q0.09375 0.15625 0.09375 0.34375l0 22.71875zm19.394531 -0.359375q0 0.59375 -0.046875 1.0q-0.046875 0.390625 -0.15625 0.65625q-0.09375 0.265625 -0.234375 0.390625q-0.140625 0.109375 -0.34375 0.109375l-11.578125 0q-0.640625 0 -1.09375 -0.375q-0.4375 -0.390625 -0.4375 -1.25l0 -22.953125q0 -0.1875 0.125 -0.34375q0.140625 -0.15625 0.421875 -0.25q0.296875 -0.109375 0.796875 -0.15625q0.5 -0.0625 1.234375 -0.0625q0.765625 0 1.25 0.0625q0.5 0.046875 0.78125 0.15625q0.296875 0.09375 0.421875 0.25q0.125 0.15625 0.125 0.34375l0 20.34375l7.953125 0q0.203125 0 0.34375 0.109375q0.140625 0.09375 0.234375 0.34375q0.109375 0.25 0.15625 0.65625q0.046875 0.390625 0.046875 0.96875zm20.335938 -15.4375q0 2.125 -0.671875 3.765625q-0.65625 1.640625 -1.9375 2.765625q-1.265625 1.125 -3.109375 1.71875q-1.84375 0.578125 -4.34375 0.578125l-2.109375 0l0 8.0625q0 0.1875 -0.125 0.34375q-0.125 0.15625 -0.421875 0.265625q-0.296875 0.09375 -0.78125 0.15625q-0.484375 0.0625 -1.25 0.0625q-0.734375 0 -1.234375 -0.0625q-0.5 -0.0625 -0.796875 -0.15625q-0.296875 -0.109375 -0.421875 -0.265625q-0.109375 -0.15625 -0.109375 -0.34375l0 -22.734375q0 -0.921875 0.484375 -1.375q0.484375 -0.46875 1.265625 -0.46875l5.953125 0q0.890625 0 1.703125 0.078125q0.8125 0.0625 1.9375 0.296875q1.140625 0.21875 2.296875 0.828125q1.171875 0.59375 1.984375 1.53125q0.828125 0.921875 1.25 2.171875q0.4375 1.234375 0.4375 2.78125zm-5.375 0.359375q0 -1.328125 -0.46875 -2.1875q-0.46875 -0.859375 -1.15625 -1.265625q-0.671875 -0.40625 -1.4375 -0.515625q-0.75 -0.109375 -1.546875 -0.109375l-2.1875 0l0 8.578125l2.3125 0q1.21875 0 2.046875 -0.328125q0.84375 -0.34375 1.359375 -0.9375q0.53125 -0.59375 0.796875 -1.421875q0.28125 -0.828125 0.28125 -1.8125z" fill-rule="nonzero"/><path fill="#14914e" d="m294.67462 256.41635l31.873993 0l0 -23.070862l31.874023 46.141724l-31.874023 46.141754l0 -23.070892l-31.873993 0z" fill-rule="evenodd"/><path stroke="#595959" stroke-width="1.0" stroke-linejoin="round" stroke-linecap="butt" d="m294.67462 256.41635l31.873993 0l0 -23.070862l31.874023 46.141724l-31.874023 46.141754l0 -23.070892l-31.873993 0z" fill-rule="evenodd"/><path fill="#990000" d="m596.9239 256.4171l31.874023 0l0 -23.070877l31.873962 46.14174l-31.873962 46.141724l0 -23.070862l-31.874023 0z" fill-rule="evenodd"/><path stroke="#595959" stroke-width="1.0" stroke-linejoin="round" stroke-linecap="butt" d="m596.9239 256.4171l31.874023 0l0 -23.070877l31.873962 46.14174l-31.873962 46.141724l0 -23.070862l-31.874023 0z" fill-rule="evenodd"/><path fill="#000000" fill-opacity="0.0" d="m78.0 239.09055l218.33072 0l0 61.417328l-218.33072 0z" fill-rule="evenodd"/><path fill="#000000" d="m99.5 263.33554l-0.125 0.78125l-12.015625 0l0.1875 -0.78125l11.953125 0zm-9.828125 16.59375q-0.34375 1.265625 0.171875 1.828125q0.53125 0.5625 1.375 0.5625q0.859375 0 1.71875 -0.734375q0.875 -0.734375 1.71875 -3.125l0.546875 -1.515625l0.734375 0l-0.8125 2.4375q-0.84375 2.515625 -2.1875 3.453125q-1.328125 0.921875 -3.109375 0.921875q-1.578125 0 -2.421875 -0.671875q-0.828125 -0.6875 -0.984375 -1.921875q-0.140625 -1.234375 0.3125 -2.828125l6.0 -20.875q0.921875 -0.03125 1.828125 -0.140625q0.90625 -0.125 1.640625 -0.390625l-6.53125 23.0zm11.332245 3.28125l-3.359375 0l7.65625 -25.78125q0.375 -1.3125 -0.109375 -1.9218597q-0.484375 -0.625 -2.375 -0.625l0.234375 -0.8125q2.125 -0.046875 3.828125 -0.453125q1.703125 -0.40625 3.125 -1.140625l-9.0 30.73436zm1.078125 -5.71875q1.46875 -4.0625 2.796875 -6.875q1.34375 -2.828125 2.65625 -4.546875q1.3125 -1.71875 2.703125 -2.484375q1.390625 -0.78125 2.90625 -0.78125q1.8125 0 2.484375 0.875q0.6875 0.859375 0.609375 2.21875q-0.078125 1.34375 -0.546875 2.734375l-3.75 11.296875q-0.3125 1.0 -0.28125 1.703125q0.046875 0.6875 0.90625 0.6875q0.734375 0 1.4375 -0.8125q0.71875 -0.8125 1.53125 -3.125l0.5 -1.4375l0.734375 0l-0.953125 2.828125q-0.546875 1.625 -1.34375 2.484375q-0.796875 0.84375 -1.671875 1.171875q-0.859375 0.328125 -1.671875 0.328125q-1.546875 0 -2.171875 -0.6875q-0.609375 -0.703125 -0.515625 -1.9375q0.09375 -1.25 0.609375 -2.796875l3.671875 -11.046875q0.1875 -0.578125 0.34375 -1.34375q0.15625 -0.78125 -0.0625 -1.34375q-0.203125 -0.5625 -1.140625 -0.5625q-0.96875 0 -2.078125 0.875q-1.09375 0.859375 -2.25 2.484375q-1.15625 1.625 -2.28125 3.90625q-1.125 2.28125 -2.15625 5.09375q-1.015625 2.796875 -1.90625 6.046875l0.890625 -4.953125zm23.938492 -21.1875q0.1875 -0.99998474 1.015625 -1.7343597q0.828125 -0.734375 1.796875 -0.734375q1.015625 0 1.5625 0.734375q0.5625 0.734375 0.375 1.7343597q-0.1875 1.0 -1.03125 1.734375q-0.828125 0.734375 -1.828125 0.734375q-0.96875 0 -1.53125 -0.734375q-0.5625 -0.734375 -0.359375 -1.734375zm-1.203125 10.328125q0.8125 -2.40625 -0.546875 -2.40625q-0.890625 0 -1.59375 0.96875q-0.6875 0.96875 -1.453125 2.984375l-0.546875 1.421875l-0.734375 0l1.0 -2.8125q0.59375 -1.625 1.40625 -2.46875q0.8125 -0.859375 1.71875 -1.1875q0.90625 -0.328125 1.671875 -0.328125q1.234375 0 1.8125 0.5q0.59375 0.5 0.703125 1.3125q0.109375 0.8125 -0.078125 1.765625q-0.1875 0.9375 -0.5 1.828125l-4.140625 11.71875q-0.375 1.109375 -0.25 1.75q0.140625 0.640625 0.875 0.640625q0.765625 0 1.453125 -0.84375q0.703125 -0.859375 1.5625 -3.09375l0.53125 -1.4375l0.734375 0l-1.0 2.828125q-0.546875 1.5 -1.3125 2.375q-0.765625 0.875 -1.65625 1.234375q-0.890625 0.375 -1.78125 0.375q-1.671875 0 -2.25 -0.765625q-0.578125 -0.78125 -0.421875 -2.015625q0.15625 -1.25 0.65625 -2.640625l4.140625 -11.703125zm7.846054 16.0q0.3125 0.15625 0.671875 0.25q0.375 0.09375 1.109375 0.09375q1.703125 0 2.796875 -1.015625q1.109375 -1.03125 1.109375 -2.96875q0 -1.1875 -0.453125 -2.359375q-0.4375 -1.1875 -1.5625 -2.734375q-0.890625 -1.234375 -1.703125 -2.53125q-0.8125 -1.296875 -0.8125 -3.078125q0 -1.65625 0.8125 -2.875q0.8125 -1.21875 2.1875 -1.90625q1.375 -0.703125 3.0 -0.703125q1.109375 0 2.1875 0.265625q1.09375 0.265625 1.796875 0.984375q0.71875 0.71875 0.71875 2.109375q0 0.34375 -0.171875 0.828125q-0.171875 0.484375 -0.5625 0.84375q-0.375 0.34375 -1.03125 0.34375q-0.625 0 -1.09375 -0.4375q-0.453125 -0.453125 -0.453125 -1.1875q0 -0.703125 0.28125 -1.328125q0.296875 -0.640625 0.796875 -1.265625q-0.734375 -0.46875 -1.9375 -0.46875q-1.421875 0 -2.390625 0.96875q-0.96875 0.96875 -0.96875 2.703125q0 0.890625 0.265625 1.578125q0.28125 0.671875 0.796875 1.40625q0.515625 0.734375 1.25 1.859375q0.96875 1.46875 1.625 2.828125q0.65625 1.34375 0.65625 2.84375q0 1.78125 -0.90625 3.15625q-0.90625 1.375 -2.421875 2.15625q-1.5 0.765625 -3.3125 0.765625q-1.3125 0 -2.515625 -0.390625q-1.203125 -0.390625 -1.953125 -1.21875q-0.75 -0.828125 -0.75 -2.21875q0 -0.546875 0.328125 -1.140625q0.328125 -0.609375 1.171875 -0.609375q0.9375 0 1.3125 0.765625q0.390625 0.75 0.390625 1.671875q0 0.625 -0.09375 1.109375q-0.09375 0.484375 -0.171875 0.90625zm36.726807 -19.296875l-0.125 0.78125l-12.015625 0l0.1875 -0.78125l11.953125 0zm-9.828125 16.59375q-0.34375 1.265625 0.171875 1.828125q0.53125 0.5625 1.375 0.5625q0.859375 0 1.71875 -0.734375q0.875 -0.734375 1.71875 -3.125l0.546875 -1.515625l0.734375 0l-0.8125 2.4375q-0.84375 2.515625 -2.1875 3.453125q-1.328125 0.921875 -3.109375 0.921875q-1.578125 0 -2.421875 -0.671875q-0.828125 -0.6875 -0.984375 -1.921875q-0.140625 -1.234375 0.3125 -2.828125l6.0 -20.875q0.921875 -0.03125 1.828125 -0.140625q0.90625 -0.125 1.640625 -0.390625l-6.53125 23.0zm11.56662 -5.5q2.15625 -0.734375 3.90625 -1.4375q1.765625 -0.71875 2.8125 -1.53125q1.390625 -1.125 2.203125 -2.703125q0.8125 -1.59375 0.8125 -3.484375q0 -1.125 -0.15625 -1.421875q-0.15625 -0.3125 -0.453125 -0.3125q-0.96875 0 -2.09375 0.859375q-1.125 0.84375 -2.203125 2.328125q-1.078125 1.484375 -1.984375 3.390625q-0.90625 1.890625 -1.453125 4.03125q-0.546875 2.140625 -0.546875 4.265625q0 1.96875 0.734375 2.84375q0.734375 0.875 1.9375 0.875q1.390625 0 2.9375 -0.84375q1.546875 -0.859375 3.015625 -3.03125l0.625 0.3125q-0.734375 1.28125 -1.9375 2.484375q-1.203125 1.1875 -2.6875 1.953125q-1.484375 0.75 -3.15625 0.75q-1.546875 0 -2.703125 -0.625q-1.15625 -0.625 -1.78125 -1.828125q-0.609375 -1.21875 -0.609375 -3.0q0 -1.671875 0.609375 -3.734375q0.625 -2.0625 1.765625 -4.125q1.140625 -2.078125 2.71875 -3.8125q1.59375 -1.75 3.515625 -2.78125q1.9375 -1.046875 4.140625 -1.046875q1.203125 0 2.03125 0.640625q0.828125 0.625 0.828125 1.90625q0 1.546875 -0.90625 2.890625q-0.90625 1.328125 -2.40625 2.4375q-1.484375 1.09375 -3.21875 1.953125q-1.734375 0.84375 -3.40625 1.46875q-1.65625 0.609375 -2.9375 0.984375l0.046875 -0.65625zm25.786652 5.765625q0.15625 1.0 0.484375 1.390625q0.328125 0.390625 0.828125 0.390625q0.578125 0 1.1875 -0.671875q0.625 -0.6875 1.40625 -2.890625l0.5 -1.421875l0.734375 0l-0.96875 2.8125q-0.546875 1.546875 -1.265625 2.40625q-0.703125 0.84375 -1.5 1.1875q-0.796875 0.359375 -1.640625 0.359375q-1.203125 0 -2.09375 -0.765625q-0.890625 -0.78125 -1.125 -2.796875l-1.546875 -13.84375q-0.140625 -1.0 -0.46875 -1.375q-0.328125 -0.390625 -0.84375 -0.390625q-0.375 0 -0.78125 0.265625q-0.40625 0.265625 -0.84375 1.046875q-0.421875 0.765625 -0.953125 2.234375l-0.515625 1.4375l-0.734375 0l0.96875 -2.828125q0.578125 -1.546875 1.265625 -2.390625q0.703125 -0.859375 1.515625 -1.203125q0.8125 -0.34375 1.625 -0.34375q1.359375 0 2.171875 0.75q0.8125 0.75 1.046875 2.796875l1.546875 13.84375zm3.234375 -15.03125q-1.1875 1.078125 -2.078125 2.515625q-0.890625 1.421875 -1.515625 2.875q-0.609375 1.453125 -1.03125 2.640625q0 0 -0.390625 -0.015625q-0.390625 -0.015625 -0.390625 -0.015625q0.265625 -0.78125 0.609375 -1.71875q0.359375 -0.953125 0.859375 -2.0q0.5 -1.046875 1.21875 -2.140625q0.71875 -1.109375 1.640625 -2.140625q1.125 -1.28125 2.015625 -1.8125q0.890625 -0.546875 1.859375 -0.546875q0.734375 0 1.203125 0.390625q0.484375 0.375 0.484375 1.03125q0 0.734375 -0.5625 1.296875q-0.546875 0.5625 -1.484375 0.5625q-0.84375 0 -1.46875 -0.328125q-0.609375 -0.328125 -0.96875 -0.59375zm-12.5625 16.234375q1.828125 -1.671875 3.21875 -3.90625q1.390625 -2.25 2.125 -4.140625q0 0 0.328125 0.078125q0.328125 0.078125 0.328125 0.078125q-0.390625 1.046875 -1.0 2.328125q-0.59375 1.265625 -1.515625 2.65625q-0.921875 1.390625 -2.28125 2.859375q-1.15625 1.203125 -2.09375 1.8125q-0.921875 0.59375 -1.8125 0.59375q-0.84375 0 -1.28125 -0.390625q-0.453125 -0.390625 -0.453125 -1.046875q0 -0.734375 0.578125 -1.296875q0.578125 -0.5625 1.4375 -0.5625q0.875 0 1.453125 0.3125q0.59375 0.3125 0.96875 0.625zm31.708176 -18.0625l-0.125 0.78125l-12.015625 0l0.1875 -0.78125l11.953125 0zm-9.828125 16.59375q-0.34375 1.265625 0.171875 1.828125q0.53125 0.5625 1.375 0.5625q0.859375 0 1.71875 -0.734375q0.875 -0.734375 1.71875 -3.125l0.546875 -1.515625l0.734375 0l-0.8125 2.4375q-0.84375 2.515625 -2.1875 3.453125q-1.328125 0.921875 -3.109375 0.921875q-1.578125 0 -2.421875 -0.671875q-0.828125 -0.6875 -0.984375 -1.921875q-0.140625 -1.234375 0.3125 -2.828125l6.0 -20.875q0.921875 -0.03125 1.828125 -0.140625q0.90625 -0.125 1.640625 -0.390625l-6.53125 23.0zm18.0654 1.84375q0 -1.15625 0.875 -2.0625q0.890625 -0.90625 1.984375 -0.90625q0.890625 0 1.421875 0.578125q0.546875 0.578125 0.546875 1.4375q0 0.765625 -0.40625 1.453125q-0.40625 0.671875 -1.0625 1.078125q-0.65625 0.40625 -1.4375 0.40625q-0.84375 0 -1.390625 -0.5625q-0.53125 -0.5625 -0.53125 -1.421875zm10.859375 0q0 -1.15625 0.875 -2.0625q0.890625 -0.90625 1.984375 -0.90625q0.890625 0 1.421875 0.578125q0.546875 0.578125 0.546875 1.4375q0 0.765625 -0.40625 1.453125q-0.40625 0.671875 -1.0625 1.078125q-0.65625 0.40625 -1.4375 0.40625q-0.84375 0 -1.390625 -0.5625q-0.53125 -0.5625 -0.53125 -1.421875zm10.828125 0q0 -1.15625 0.875 -2.0625q0.890625 -0.90625 1.984375 -0.90625q0.890625 0 1.421875 0.578125q0.546875 0.578125 0.546875 1.4375q0 0.765625 -0.40625 1.453125q-0.40625 0.671875 -1.0625 1.078125q-0.65625 0.40625 -1.4375 0.40625q-0.84375 0 -1.390625 -0.5625q-0.53125 -0.5625 -0.53125 -1.421875zm9.430771 0q0 -1.15625 0.875 -2.0625q0.890625 -0.90625 1.984375 -0.90625q0.890625 0 1.421875 0.578125q0.546875 0.578125 0.546875 1.4375q0 0.765625 -0.40625 1.453125q-0.40625 0.671875 -1.0625 1.078125q-0.65625 0.40625 -1.4375 0.40625q-0.84375 0 -1.390625 -0.5625q-0.53125 -0.5625 -0.53125 -1.421875z" fill-rule="nonzero"/><path fill="#000000" fill-opacity="0.0" d="m685.3622 228.58661l218.33075 0l0 101.79529l-218.33075 0z" fill-rule="evenodd"/><path fill="#000000" d="m703.1278 246.5216l-3.28125 0l0 4.609375l-4.984375 0l0 2.515625l4.984375 0l0 10.328125q0 1.765625 0.46875 3.0q0.46875 1.234375 1.28125 2.015625q0.796875 0.78125 1.890625 1.15625q1.109375 0.359375 2.375 0.359375q0.75 0 1.515625 -0.078125q0.765625 -0.0625 1.453125 -0.203125q0.6875 -0.125 1.265625 -0.3125q0.578125 -0.1875 0.984375 -0.4375l-0.453125 -2.296875q-0.296875 0.0625 -0.765625 0.171875q-0.46875 0.09375 -1.0 0.171875q-0.53125 0.09375 -1.09375 0.15625q-0.5625 0.0625 -1.09375 0.0625q-0.71875 0 -1.359375 -0.171875q-0.640625 -0.1875 -1.140625 -0.625q-0.484375 -0.421875 -0.765625 -1.140625q-0.28125 -0.71875 -0.28125 -1.828125l0 -10.328125l7.234375 0l0 -2.515625l-7.234375 0l0 -4.609375zm17.15039 7.4375l0 -10.8125l-3.25 0l0 27.0l3.25 0l0 -13.8125q0.34375 -0.5625 0.796875 -1.03125q0.453125 -0.46875 0.984375 -0.8125q0.65625 -0.46875 1.453125 -0.703125q0.796875 -0.25 1.671875 -0.25q1.0625 -0.015625 1.890625 0.296875q0.828125 0.296875 1.375 0.90625q0.515625 0.5625 0.765625 1.421875q0.265625 0.859375 0.265625 1.984375l0 12.0l3.265625 0l0 -11.96875q0 -1.921875 -0.46875 -3.3125q-0.46875 -1.40625 -1.328125 -2.3125q-0.859375 -0.921875 -2.09375 -1.34375q-1.21875 -0.4375 -2.703125 -0.4375q-1.140625 0.015625 -2.15625 0.34375q-1.015625 0.3125 -1.859375 0.921875q-0.53125 0.375 -1.0 0.859375q-0.46875 0.484375 -0.859375 1.0625zm18.853516 -2.828125l0 2.828125l6.46875 0l0 13.375l-6.46875 0l0 2.8125l15.9375 0l0 -2.8125l-6.203125 0l0 -16.203125l-9.734375 0zm6.046875 -5.0q0 0.796875 0.484375 1.328125q0.484375 0.515625 1.46875 0.515625q0.96875 0 1.453125 -0.515625q0.5 -0.53125 0.5 -1.328125q0 -0.4375 -0.140625 -0.796875q-0.140625 -0.375 -0.421875 -0.625q-0.21875 -0.234375 -0.578125 -0.359375q-0.34375 -0.125 -0.8125 -0.125q-0.453125 0 -0.8125 0.125q-0.359375 0.125 -0.59375 0.359375q-0.28125 0.265625 -0.421875 0.640625q-0.125 0.359375 -0.125 0.78125zm27.697266 18.96875q0 0.453125 -0.1875 0.859375q-0.171875 0.40625 -0.5 0.734375q-0.546875 0.546875 -1.515625 0.859375q-0.96875 0.3125 -2.265625 0.3125q-0.828125 0 -1.671875 -0.171875q-0.84375 -0.1875 -1.53125 -0.609375q-0.703125 -0.421875 -1.171875 -1.109375q-0.453125 -0.6875 -0.53125 -1.6875l-3.25 0q0 1.21875 0.546875 2.34375q0.5625 1.125 1.609375 1.96875q1.046875 0.859375 2.546875 1.390625q1.515625 0.515625 3.453125 0.515625q1.6875 0 3.109375 -0.40625q1.421875 -0.40625 2.4375 -1.15625q1.03125 -0.734375 1.59375 -1.765625q0.578125 -1.046875 0.578125 -2.3125q0 -1.171875 -0.5 -2.0625q-0.5 -0.90625 -1.453125 -1.59375q-0.953125 -0.65625 -2.34375 -1.140625q-1.390625 -0.484375 -3.140625 -0.859375q-1.34375 -0.265625 -2.21875 -0.546875q-0.859375 -0.28125 -1.375 -0.625q-0.515625 -0.359375 -0.734375 -0.796875q-0.203125 -0.4375 -0.203125 -1.0q0 -0.546875 0.25 -1.046875q0.265625 -0.515625 0.796875 -0.90625q0.515625 -0.390625 1.296875 -0.609375q0.78125 -0.234375 1.8125 -0.234375q1.0 0 1.796875 0.28125q0.8125 0.28125 1.375 0.734375q0.5625 0.46875 0.875 1.0625q0.3125 0.578125 0.3125 1.1875l3.25 0q0 -1.234375 -0.53125 -2.3125q-0.53125 -1.09375 -1.515625 -1.90625q-0.984375 -0.796875 -2.390625 -1.25q-1.40625 -0.46875 -3.171875 -0.46875q-1.625 0 -3.0 0.4375q-1.359375 0.4375 -2.34375 1.203125q-0.984375 0.75 -1.53125 1.765625q-0.53125 1.015625 -0.53125 2.171875q0 1.171875 0.515625 2.0625q0.53125 0.890625 1.5 1.53125q0.953125 0.671875 2.296875 1.15625q1.34375 0.46875 2.96875 0.796875q1.34375 0.265625 2.234375 0.59375q0.90625 0.328125 1.453125 0.71875q0.53125 0.375 0.765625 0.84375q0.234375 0.46875 0.234375 1.046875zm13.244141 7.25l10.671875 -27.796875l-2.890625 0l-10.6875 27.796875l2.90625 0zm16.978516 -2.203125l5.9375 0q1.84375 -0.015625 3.421875 -0.4375q1.59375 -0.421875 2.859375 -1.21875q1.203125 -0.75 2.171875 -1.8125q0.96875 -1.078125 1.59375 -2.40625q0.609375 -1.265625 0.9375 -2.765625q0.328125 -1.515625 0.328125 -3.203125l0 -1.890625q-0.015625 -1.75 -0.359375 -3.296875q-0.34375 -1.546875 -1.0 -2.84375q-0.71875 -1.53125 -1.921875 -2.703125q-1.203125 -1.171875 -2.765625 -1.890625q-1.125 -0.53125 -2.453125 -0.8125q-1.328125 -0.296875 -2.8125 -0.3125l-5.9375 0l0 25.59375zm3.3125 -22.921875l2.625 0q1.203125 0.015625 2.21875 0.28125q1.03125 0.25 1.859375 0.703125q1.15625 0.609375 1.953125 1.609375q0.796875 0.984375 1.28125 2.21875q0.359375 0.953125 0.546875 2.0625q0.1875 1.09375 0.203125 2.28125l0 1.921875q-0.015625 1.171875 -0.203125 2.25q-0.171875 1.078125 -0.515625 2.015625q-0.40625 1.140625 -1.109375 2.0625q-0.6875 0.921875 -1.640625 1.5625q-0.890625 0.609375 -2.046875 0.953125q-1.140625 0.328125 -2.546875 0.34375l-2.625 0l0 -20.265625zm32.71289 11.09375l0 -2.765625l-10.6875 0l0 -8.21875l12.296875 0l0 -2.78125l-15.546875 0l0 25.59375l15.71875 0l0 -2.765625l-12.46875 0l0 -9.0625l10.6875 0zm24.791016 -10.984375l0 -2.78125l-18.984375 0l0 2.78125l7.90625 0l0 22.8125l3.15625 0l0 -22.8125l7.921875 0z" fill-rule="nonzero"/><path fill="#000000" d="m703.1278 289.72162l-3.28125 0l0 4.609375l-4.984375 0l0 2.515625l4.984375 0l0 10.328125q0 1.765625 0.46875 3.0q0.46875 1.234375 1.28125 2.015625q0.796875 0.78125 1.890625 1.15625q1.109375 0.359375 2.375 0.359375q0.75 0 1.515625 -0.078125q0.765625 -0.0625 1.453125 -0.203125q0.6875 -0.125 1.265625 -0.3125q0.578125 -0.1875 0.984375 -0.4375l-0.453125 -2.296875q-0.296875 0.0625 -0.765625 0.171875q-0.46875 0.09375 -1.0 0.171875q-0.53125 0.09375 -1.09375 0.15625q-0.5625 0.0625 -1.09375 0.0625q-0.71875 0 -1.359375 -0.171875q-0.640625 -0.1875 -1.140625 -0.625q-0.484375 -0.421875 -0.765625 -1.140625q-0.28125 -0.71875 -0.28125 -1.828125l0 -10.328125l7.234375 0l0 -2.515625l-7.234375 0l0 -4.609375zm22.30664 23.984375q2.765625 0 4.65625 -1.109375q1.890625 -1.125 2.84375 -2.578125l-1.984375 -1.546875q-0.90625 1.171875 -2.265625 1.875q-1.34375 0.703125 -3.078125 0.703125q-1.328125 0 -2.421875 -0.484375q-1.078125 -0.5 -1.859375 -1.375q-0.75 -0.796875 -1.1875 -1.84375q-0.421875 -1.0625 -0.546875 -2.453125l0 -0.125l13.59375 0l0 -1.453125q0 -2.0 -0.5 -3.703125q-0.5 -1.703125 -1.53125 -2.96875q-1.015625 -1.25 -2.5625 -1.953125q-1.53125 -0.71875 -3.578125 -0.71875q-1.640625 0 -3.203125 0.671875q-1.546875 0.671875 -2.765625 1.921875q-1.234375 1.265625 -1.96875 3.078125q-0.734375 1.8125 -0.734375 4.125l0 0.734375q0 1.984375 0.65625 3.671875q0.671875 1.6875 1.875 2.921875q1.1875 1.234375 2.859375 1.921875q1.6875 0.6875 3.703125 0.6875zm-0.421875 -17.0625q1.234375 0 2.140625 0.46875q0.90625 0.453125 1.515625 1.1875q0.59375 0.734375 0.921875 1.75q0.34375 1.015625 0.34375 1.890625l0 0.15625l-10.234375 0q0.1875 -1.3125 0.671875 -2.328125q0.484375 -1.015625 1.1875 -1.71875q0.703125 -0.6875 1.578125 -1.046875q0.890625 -0.359375 1.875 -0.359375zm21.478516 4.734375l-5.03125 -7.046875l-3.765625 0l7.09375 9.40625l-7.28125 9.609375l3.796875 0l5.25 -7.25l5.265625 7.25l3.75 0l-7.265625 -9.609375l7.078125 -9.40625l-3.8125 0l-5.078125 7.046875zm21.447266 -11.65625l-3.28125 0l0 4.609375l-4.984375 0l0 2.515625l4.984375 0l0 10.328125q0 1.765625 0.46875 3.0q0.46875 1.234375 1.28125 2.015625q0.796875 0.78125 1.890625 1.15625q1.109375 0.359375 2.375 0.359375q0.75 0 1.515625 -0.078125q0.765625 -0.0625 1.453125 -0.203125q0.6875 -0.125 1.265625 -0.3125q0.578125 -0.1875 0.984375 -0.4375l-0.453125 -2.296875q-0.296875 0.0625 -0.765625 0.171875q-0.46875 0.09375 -1.0 0.171875q-0.53125 0.09375 -1.09375 0.15625q-0.5625 0.0625 -1.09375 0.0625q-0.71875 0 -1.359375 -0.171875q-0.640625 -0.1875 -1.140625 -0.625q-0.484375 -0.421875 -0.765625 -1.140625q-0.28125 -0.71875 -0.28125 -1.828125l0 -10.328125l7.234375 0l0 -2.515625l-7.234375 0l0 -4.609375zm18.18164 25.828125l10.671875 -27.796875l-2.890625 0l-10.6875 27.796875l2.90625 0zm33.353516 -2.203125l0 -25.59375l-3.296875 0l-0.046875 19.09375l-9.9375 -19.09375l-3.296875 0l0 25.59375l3.28125 0l0.0625 -19.125l9.921875 19.125l3.3125 0zm22.21289 -11.328125l0 -2.90625q-0.015625 -1.375 -0.234375 -2.78125q-0.21875 -1.40625 -0.671875 -2.703125q-0.484375 -1.3125 -1.203125 -2.4375q-0.703125 -1.140625 -1.6875 -1.984375q-0.984375 -0.84375 -2.265625 -1.328125q-1.28125 -0.484375 -2.859375 -0.484375q-1.59375 0 -2.875 0.484375q-1.265625 0.484375 -2.25 1.328125q-0.984375 0.859375 -1.703125 2.0q-0.703125 1.140625 -1.15625 2.4375q-0.46875 1.296875 -0.703125 2.703125q-0.21875 1.390625 -0.234375 2.765625l0 2.90625q0.015625 1.375 0.25 2.765625q0.234375 1.390625 0.703125 2.6875q0.453125 1.296875 1.171875 2.4375q0.734375 1.140625 1.71875 1.984375q0.984375 0.84375 2.25 1.328125q1.28125 0.484375 2.859375 0.484375q1.578125 0 2.84375 -0.484375q1.28125 -0.484375 2.265625 -1.328125q0.984375 -0.84375 1.6875 -1.96875q0.71875 -1.125 1.1875 -2.4375q0.453125 -1.296875 0.671875 -2.6875q0.21875 -1.40625 0.234375 -2.78125zm-3.21875 -2.953125l0 2.953125q-0.015625 0.921875 -0.109375 1.921875q-0.09375 1.0 -0.34375 1.96875q-0.265625 0.984375 -0.6875 1.875q-0.40625 0.890625 -1.015625 1.546875q-0.640625 0.6875 -1.515625 1.09375q-0.859375 0.40625 -2.0 0.40625q-1.140625 0 -2.0 -0.40625q-0.859375 -0.40625 -1.5 -1.09375q-0.625 -0.65625 -1.046875 -1.546875q-0.421875 -0.90625 -0.6875 -1.890625q-0.265625 -0.96875 -0.390625 -1.96875q-0.109375 -1.0 -0.125 -1.90625l0 -2.953125q0.015625 -0.890625 0.125 -1.875q0.125 -1.0 0.390625 -1.984375q0.234375 -0.96875 0.65625 -1.859375q0.421875 -0.890625 1.0625 -1.5625q0.625 -0.671875 1.484375 -1.078125q0.875 -0.40625 2.0 -0.40625q1.140625 0 2.0 0.40625q0.859375 0.390625 1.5 1.046875q0.625 0.6875 1.046875 1.578125q0.421875 0.890625 0.6875 1.859375q0.25 0.984375 0.34375 1.984375q0.109375 0.984375 0.125 1.890625zm24.24414 -11.3125l-3.140625 0l-0.0625 17.328125q-0.03125 1.140625 -0.375 2.203125q-0.328125 1.046875 -0.953125 1.859375q-0.65625 0.828125 -1.609375 1.3125q-0.9375 0.484375 -2.1875 0.484375q-1.25 0 -2.21875 -0.484375q-0.953125 -0.5 -1.578125 -1.3125q-0.65625 -0.8125 -1.0 -1.859375q-0.34375 -1.0625 -0.359375 -2.203125l-0.0625 -17.328125l-3.09375 0l-0.046875 17.328125q0.03125 1.796875 0.640625 3.375q0.609375 1.5625 1.703125 2.734375q1.09375 1.171875 2.625 1.84375q1.53125 0.671875 3.390625 0.671875q1.828125 0 3.359375 -0.671875q1.53125 -0.6875 2.625 -1.875q1.109375 -1.15625 1.734375 -2.71875q0.640625 -1.5625 0.640625 -3.359375l-0.03125 -17.328125zm21.572266 25.59375l0 -25.59375l-3.296875 0l-0.046875 19.09375l-9.9375 -19.09375l-3.296875 0l0 25.59375l3.28125 0l0.0625 -19.125l9.921875 19.125l3.3125 0z" fill-rule="nonzero"/><path fill="#eeeeee" d="m540.36615 368.46457l0 0c0 -15.2465515 46.315613 -27.606293 103.44879 -27.606293l0 0c57.13324 0 103.44885 12.359741 103.44885 27.606293l0 0c0 15.246521 -46.315613 27.606293 -103.44885 27.606293l0 0c-57.13318 0 -103.44879 -12.359772 -103.44879 -27.606293z" fill-rule="evenodd"/><path stroke="#595959" stroke-width="1.0" stroke-linejoin="round" stroke-linecap="butt" d="m540.36615 368.46457l0 0c0 -15.2465515 46.315613 -27.606293 103.44879 -27.606293l0 0c57.13324 0 103.44885 12.359741 103.44885 27.606293l0 0c0 15.246521 -46.315613 27.606293 -103.44885 27.606293l0 0c-57.13318 0 -103.44879 -12.359772 -103.44879 -27.606293z" fill-rule="evenodd"/><path fill="#000000" d="m588.7896 366.59958q0 1.078125 -0.359375 1.9375q-0.359375 0.859375 -1.015625 1.46875q-0.65625 0.609375 -1.609375 0.953125q-0.953125 0.328125 -2.28125 0.328125l-1.625 0l0 5.15625q0 0.078125 -0.0625 0.15625q-0.046875 0.0625 -0.15625 0.109375q-0.09375 0.03125 -0.28125 0.046875q-0.1875 0.03125 -0.453125 0.03125q-0.28125 0 -0.46875 -0.03125q-0.171875 -0.015625 -0.296875 -0.046875q-0.109375 -0.046875 -0.15625 -0.109375q-0.03125 -0.078125 -0.03125 -0.15625l0 -13.21875q0 -0.4375 0.234375 -0.625q0.234375 -0.1875 0.515625 -0.1875l3.0625 0q0.46875 0 0.890625 0.046875q0.421875 0.03125 1.0 0.15625q0.59375 0.125 1.1875 0.484375q0.609375 0.34375 1.03125 0.859375q0.421875 0.5 0.640625 1.171875q0.234375 0.65625 0.234375 1.46875zm-2.015625 0.15625q0 -0.875 -0.328125 -1.453125q-0.3125 -0.59375 -0.796875 -0.875q-0.484375 -0.296875 -1.0 -0.375q-0.515625 -0.078125 -1.0 -0.078125l-1.75 0l0 5.75l1.703125 0q0.875 0 1.4375 -0.21875q0.5625 -0.21875 0.953125 -0.609375q0.390625 -0.40625 0.578125 -0.953125q0.203125 -0.546875 0.203125 -1.1875zm11.717285 9.703125q0 0.140625 -0.09375 0.203125q-0.078125 0.0625 -0.234375 0.09375q-0.15625 0.03125 -0.453125 0.03125q-0.28125 0 -0.453125 -0.03125q-0.171875 -0.03125 -0.25 -0.09375q-0.078125 -0.0625 -0.078125 -0.203125l0 -1.0q-0.65625 0.703125 -1.46875 1.09375q-0.796875 0.375 -1.6875 0.375q-0.78125 0 -1.421875 -0.203125q-0.640625 -0.203125 -1.09375 -0.578125q-0.4375 -0.390625 -0.6875 -0.953125q-0.25 -0.578125 -0.25 -1.296875q0 -0.828125 0.34375 -1.453125q0.34375 -0.625 0.984375 -1.03125q0.640625 -0.40625 1.5625 -0.609375q0.9375 -0.203125 2.09375 -0.203125l1.375 0l0 -0.78125q0 -0.578125 -0.125 -1.015625q-0.109375 -0.4375 -0.390625 -0.734375q-0.265625 -0.296875 -0.703125 -0.4375q-0.421875 -0.15625 -1.0625 -0.15625q-0.671875 0 -1.203125 0.171875q-0.53125 0.15625 -0.9375 0.34375q-0.40625 0.1875 -0.6875 0.359375q-0.265625 0.15625 -0.390625 0.15625q-0.09375 0 -0.171875 -0.046875q-0.0625 -0.046875 -0.109375 -0.125q-0.046875 -0.09375 -0.078125 -0.234375q-0.015625 -0.140625 -0.015625 -0.296875q0 -0.28125 0.03125 -0.4375q0.046875 -0.171875 0.1875 -0.3125q0.15625 -0.140625 0.515625 -0.328125q0.375 -0.203125 0.84375 -0.359375q0.484375 -0.15625 1.046875 -0.265625q0.5625 -0.109375 1.140625 -0.109375q1.078125 0 1.828125 0.25q0.75 0.234375 1.203125 0.71875q0.46875 0.46875 0.671875 1.171875q0.21875 0.6875 0.21875 1.609375l0 6.71875zm-1.8125 -4.546875l-1.5625 0q-0.75 0 -1.3125 0.125q-0.546875 0.125 -0.90625 0.375q-0.359375 0.25 -0.53125 0.609375q-0.171875 0.34375 -0.171875 0.796875q0 0.765625 0.484375 1.234375q0.5 0.453125 1.375 0.453125q0.71875 0 1.328125 -0.359375q0.625 -0.375 1.296875 -1.125l0 -2.109375zm10.993042 -4.765625q0 0.234375 -0.015625 0.40625q-0.015625 0.171875 -0.046875 0.265625q-0.03125 0.09375 -0.078125 0.140625q-0.046875 0.046875 -0.140625 0.046875q-0.09375 0 -0.21875 -0.046875q-0.125 -0.046875 -0.28125 -0.09375q-0.15625 -0.0625 -0.359375 -0.09375q-0.203125 -0.046875 -0.4375 -0.046875q-0.265625 0 -0.53125 0.109375q-0.265625 0.109375 -0.5625 0.359375q-0.296875 0.25 -0.625 0.671875q-0.3125 0.421875 -0.703125 1.03125l0 6.546875q0 0.09375 -0.046875 0.15625q-0.046875 0.0625 -0.140625 0.109375q-0.09375 0.03125 -0.28125 0.046875q-0.171875 0.03125 -0.453125 0.03125q-0.265625 0 -0.4375 -0.03125q-0.171875 -0.015625 -0.28125 -0.046875q-0.109375 -0.046875 -0.15625 -0.109375q-0.03125 -0.0625 -0.03125 -0.15625l0 -9.953125q0 -0.09375 0.03125 -0.140625q0.046875 -0.0625 0.140625 -0.109375q0.09375 -0.0625 0.25 -0.078125q0.15625 -0.015625 0.40625 -0.015625q0.25 0 0.40625 0.015625q0.171875 0.015625 0.25 0.078125q0.09375 0.046875 0.125 0.109375q0.046875 0.046875 0.046875 0.140625l0 1.453125q0.40625 -0.59375 0.765625 -0.96875q0.359375 -0.390625 0.671875 -0.59375q0.328125 -0.21875 0.640625 -0.296875q0.3125 -0.09375 0.640625 -0.09375q0.140625 0 0.328125 0.015625q0.1875 0.015625 0.375 0.0625q0.203125 0.046875 0.359375 0.109375q0.171875 0.046875 0.234375 0.109375q0.0625 0.046875 0.078125 0.109375q0.03125 0.046875 0.046875 0.125q0.015625 0.0625 0.015625 0.21875q0.015625 0.15625 0.015625 0.40625zm7.2581177 8.578125q0 0.3125 -0.046875 0.5q-0.046875 0.1875 -0.140625 0.28125q-0.078125 0.09375 -0.265625 0.171875q-0.171875 0.0625 -0.40625 0.109375q-0.21875 0.0625 -0.484375 0.09375q-0.25 0.03125 -0.5 0.03125q-0.765625 0 -1.328125 -0.203125q-0.546875 -0.203125 -0.90625 -0.609375q-0.359375 -0.421875 -0.515625 -1.0625q-0.15625 -0.640625 -0.15625 -1.5l0 -5.8125l-1.390625 0q-0.171875 0 -0.28125 -0.171875q-0.09375 -0.1875 -0.09375 -0.578125q0 -0.21875 0.03125 -0.359375q0.03125 -0.140625 0.078125 -0.234375q0.046875 -0.09375 0.109375 -0.125q0.078125 -0.046875 0.15625 -0.046875l1.390625 0l0 -2.375q0 -0.078125 0.03125 -0.140625q0.046875 -0.0625 0.140625 -0.109375q0.109375 -0.0625 0.28125 -0.078125q0.1875 -0.015625 0.453125 -0.015625q0.28125 0 0.453125 0.015625q0.171875 0.015625 0.265625 0.078125q0.109375 0.046875 0.15625 0.109375q0.046875 0.0625 0.046875 0.140625l0 2.375l2.546875 0q0.09375 0 0.15625 0.046875q0.0625 0.03125 0.109375 0.125q0.0625 0.09375 0.078125 0.234375q0.03125 0.140625 0.03125 0.359375q0 0.390625 -0.109375 0.578125q-0.09375 0.171875 -0.265625 0.171875l-2.546875 0l0 5.546875q0 1.03125 0.296875 1.5625q0.3125 0.515625 1.09375 0.515625q0.25 0 0.453125 -0.046875q0.203125 -0.046875 0.359375 -0.09375q0.15625 -0.0625 0.265625 -0.109375q0.109375 -0.0625 0.1875 -0.0625q0.0625 0 0.109375 0.03125q0.046875 0.03125 0.078125 0.109375q0.03125 0.078125 0.046875 0.21875q0.03125 0.125 0.03125 0.328125zm16.789062 -4.359375q0 1.203125 -0.328125 2.234375q-0.3125 1.015625 -0.953125 1.765625q-0.640625 0.734375 -1.59375 1.15625q-0.953125 0.40625 -2.21875 0.40625q-1.21875 0 -2.140625 -0.359375q-0.90625 -0.359375 -1.515625 -1.046875q-0.609375 -0.703125 -0.90625 -1.703125q-0.296875 -1.0 -0.296875 -2.265625q0 -1.21875 0.3125 -2.234375q0.3125 -1.03125 0.9375 -1.765625q0.640625 -0.734375 1.59375 -1.140625q0.953125 -0.421875 2.234375 -0.421875q1.21875 0 2.125 0.375q0.921875 0.359375 1.53125 1.0625q0.609375 0.6875 0.90625 1.6875q0.3125 1.0 0.3125 2.25zm-1.921875 0.109375q0 -0.796875 -0.15625 -1.515625q-0.140625 -0.71875 -0.484375 -1.265625q-0.34375 -0.546875 -0.9375 -0.859375q-0.578125 -0.3125 -1.453125 -0.3125q-0.8125 0 -1.390625 0.296875q-0.578125 0.28125 -0.953125 0.8125q-0.375 0.515625 -0.5625 1.234375q-0.1875 0.71875 -0.1875 1.578125q0 0.8125 0.140625 1.53125q0.15625 0.71875 0.5 1.265625q0.359375 0.53125 0.9375 0.84375q0.59375 0.3125 1.46875 0.3125q0.796875 0 1.375 -0.28125q0.59375 -0.296875 0.96875 -0.8125q0.375 -0.515625 0.546875 -1.234375q0.1875 -0.71875 0.1875 -1.59375zm10.057007 -9.078125q0 0.21875 -0.015625 0.34375q-0.015625 0.125 -0.046875 0.203125q-0.03125 0.078125 -0.078125 0.109375q-0.046875 0.015625 -0.109375 0.015625q-0.078125 0 -0.203125 -0.046875q-0.109375 -0.046875 -0.28125 -0.109375q-0.15625 -0.0625 -0.390625 -0.109375q-0.21875 -0.046875 -0.515625 -0.046875q-0.40625 0 -0.703125 0.140625q-0.28125 0.125 -0.46875 0.40625q-0.171875 0.28125 -0.25 0.734375q-0.078125 0.4375 -0.078125 1.078125l0 1.09375l2.234375 0q0.078125 0 0.140625 0.046875q0.0625 0.03125 0.109375 0.125q0.046875 0.09375 0.078125 0.234375q0.03125 0.140625 0.03125 0.359375q0 0.390625 -0.109375 0.578125q-0.09375 0.171875 -0.25 0.171875l-2.234375 0l0 8.71875q0 0.09375 -0.046875 0.15625q-0.03125 0.0625 -0.140625 0.109375q-0.109375 0.03125 -0.28125 0.046875q-0.171875 0.03125 -0.4375 0.03125q-0.265625 0 -0.453125 -0.03125q-0.171875 -0.015625 -0.28125 -0.046875q-0.109375 -0.046875 -0.15625 -0.109375q-0.03125 -0.0625 -0.03125 -0.15625l0 -8.71875l-1.40625 0q-0.171875 0 -0.265625 -0.171875q-0.09375 -0.1875 -0.09375 -0.578125q0 -0.21875 0.015625 -0.359375q0.03125 -0.140625 0.078125 -0.234375q0.046875 -0.09375 0.109375 -0.125q0.0625 -0.046875 0.15625 -0.046875l1.40625 0l0 -1.03125q0 -1.046875 0.1875 -1.78125q0.203125 -0.75 0.59375 -1.21875q0.40625 -0.484375 1.0 -0.703125q0.609375 -0.234375 1.421875 -0.234375q0.390625 0 0.75 0.078125q0.375 0.0625 0.5625 0.15625q0.203125 0.078125 0.265625 0.140625q0.078125 0.0625 0.109375 0.171875q0.046875 0.109375 0.0625 0.265625q0.015625 0.140625 0.015625 0.34375zm12.833008 11.34375q0 0.765625 -0.28125 1.359375q-0.28125 0.59375 -0.796875 1.015625q-0.515625 0.40625 -1.234375 0.609375q-0.71875 0.203125 -1.59375 0.203125q-0.53125 0 -1.015625 -0.078125q-0.46875 -0.078125 -0.859375 -0.203125q-0.375 -0.125 -0.640625 -0.265625q-0.265625 -0.140625 -0.390625 -0.25q-0.125 -0.109375 -0.1875 -0.3125q-0.046875 -0.203125 -0.046875 -0.546875q0 -0.203125 0.015625 -0.34375q0.03125 -0.15625 0.0625 -0.234375q0.03125 -0.09375 0.09375 -0.125q0.0625 -0.046875 0.140625 -0.046875q0.125 0 0.359375 0.15625q0.234375 0.140625 0.578125 0.328125q0.359375 0.171875 0.828125 0.328125q0.484375 0.140625 1.109375 0.140625q0.453125 0 0.828125 -0.09375q0.375 -0.109375 0.65625 -0.296875q0.28125 -0.203125 0.421875 -0.5q0.15625 -0.296875 0.15625 -0.703125q0 -0.421875 -0.21875 -0.703125q-0.21875 -0.296875 -0.578125 -0.515625q-0.34375 -0.21875 -0.796875 -0.390625q-0.4375 -0.171875 -0.90625 -0.359375q-0.46875 -0.1875 -0.921875 -0.421875q-0.4375 -0.234375 -0.796875 -0.578125q-0.34375 -0.34375 -0.5625 -0.8125q-0.21875 -0.484375 -0.21875 -1.15625q0 -0.578125 0.21875 -1.109375q0.234375 -0.546875 0.6875 -0.953125q0.453125 -0.40625 1.125 -0.640625q0.6875 -0.25 1.59375 -0.25q0.40625 0 0.796875 0.078125q0.40625 0.0625 0.71875 0.15625q0.328125 0.09375 0.546875 0.21875q0.234375 0.109375 0.34375 0.203125q0.125 0.09375 0.15625 0.15625q0.046875 0.0625 0.0625 0.15625q0.015625 0.078125 0.03125 0.203125q0.015625 0.109375 0.015625 0.296875q0 0.1875 -0.015625 0.328125q-0.015625 0.125 -0.0625 0.21875q-0.03125 0.09375 -0.09375 0.140625q-0.046875 0.03125 -0.125 0.03125q-0.09375 0 -0.28125 -0.125q-0.1875 -0.125 -0.484375 -0.265625q-0.296875 -0.140625 -0.703125 -0.25q-0.40625 -0.125 -0.921875 -0.125q-0.46875 0 -0.828125 0.109375q-0.34375 0.09375 -0.578125 0.296875q-0.21875 0.1875 -0.34375 0.453125q-0.109375 0.265625 -0.109375 0.578125q0 0.4375 0.21875 0.734375q0.21875 0.28125 0.5625 0.5q0.359375 0.21875 0.8125 0.40625q0.453125 0.171875 0.921875 0.359375q0.484375 0.1875 0.9375 0.421875q0.453125 0.234375 0.8125 0.5625q0.359375 0.328125 0.5625 0.796875q0.21875 0.46875 0.21875 1.109375zm11.78302 -2.421875q0 1.296875 -0.296875 2.34375q-0.28125 1.03125 -0.828125 1.765625q-0.546875 0.71875 -1.359375 1.109375q-0.796875 0.390625 -1.84375 0.390625q-0.4375 0 -0.8125 -0.09375q-0.375 -0.078125 -0.734375 -0.265625q-0.359375 -0.1875 -0.71875 -0.46875q-0.34375 -0.296875 -0.75 -0.6875l0 4.984375q0 0.09375 -0.046875 0.15625q-0.046875 0.0625 -0.140625 0.109375q-0.09375 0.046875 -0.28125 0.0625q-0.171875 0.03125 -0.453125 0.03125q-0.265625 0 -0.4375 -0.03125q-0.171875 -0.015625 -0.28125 -0.0625q-0.109375 -0.046875 -0.15625 -0.109375q-0.03125 -0.0625 -0.03125 -0.15625l0 -13.90625q0 -0.09375 0.03125 -0.15625q0.046875 -0.0625 0.140625 -0.109375q0.09375 -0.046875 0.25 -0.0625q0.15625 -0.015625 0.375 -0.015625q0.234375 0 0.375 0.015625q0.15625 0.015625 0.25 0.0625q0.109375 0.046875 0.140625 0.109375q0.046875 0.0625 0.046875 0.15625l0 1.34375q0.453125 -0.46875 0.875 -0.8125q0.421875 -0.34375 0.84375 -0.5625q0.421875 -0.234375 0.875 -0.34375q0.453125 -0.125 0.953125 -0.125q1.078125 0 1.84375 0.421875q0.765625 0.421875 1.234375 1.15625q0.484375 0.71875 0.703125 1.6875q0.234375 0.96875 0.234375 2.0625zm-1.9375 0.203125q0 -0.765625 -0.125 -1.46875q-0.109375 -0.71875 -0.390625 -1.265625q-0.28125 -0.5625 -0.765625 -0.890625q-0.46875 -0.328125 -1.171875 -0.328125q-0.34375 0 -0.6875 0.109375q-0.34375 0.09375 -0.703125 0.328125q-0.359375 0.21875 -0.75 0.59375q-0.375 0.375 -0.8125 0.90625l0 3.96875q0.75 0.921875 1.421875 1.40625q0.6875 0.484375 1.421875 0.484375q0.6875 0 1.171875 -0.328125q0.5 -0.34375 0.796875 -0.890625q0.3125 -0.546875 0.453125 -1.234375q0.140625 -0.6875 0.140625 -1.390625zm13.169006 -0.484375q0 0.4375 -0.21875 0.625q-0.21875 0.171875 -0.484375 0.171875l-6.53125 0q0 0.828125 0.15625 1.5q0.171875 0.65625 0.5625 1.140625q0.390625 0.46875 1.0 0.734375q0.625 0.25 1.515625 0.25q0.71875 0 1.265625 -0.109375q0.5625 -0.125 0.953125 -0.265625q0.40625 -0.15625 0.671875 -0.265625q0.265625 -0.125 0.390625 -0.125q0.078125 0 0.140625 0.046875q0.0625 0.03125 0.09375 0.109375q0.03125 0.078125 0.046875 0.21875q0.015625 0.140625 0.015625 0.34375q0 0.140625 -0.015625 0.25q0 0.09375 -0.015625 0.1875q-0.015625 0.078125 -0.0625 0.15625q-0.03125 0.0625 -0.09375 0.125q-0.0625 0.046875 -0.359375 0.1875q-0.296875 0.140625 -0.78125 0.28125q-0.46875 0.125 -1.09375 0.21875q-0.625 0.109375 -1.34375 0.109375q-1.21875 0 -2.140625 -0.328125q-0.921875 -0.34375 -1.5625 -1.015625q-0.625 -0.6875 -0.953125 -1.703125q-0.3125 -1.015625 -0.3125 -2.359375q0 -1.296875 0.328125 -2.3125q0.328125 -1.03125 0.953125 -1.734375q0.625 -0.71875 1.515625 -1.09375q0.890625 -0.390625 1.984375 -0.390625q1.171875 0 1.984375 0.375q0.828125 0.375 1.359375 1.015625q0.53125 0.640625 0.78125 1.5q0.25 0.859375 0.25 1.828125l0 0.328125zm-1.828125 -0.546875q0.03125 -1.4375 -0.640625 -2.25q-0.671875 -0.8125 -1.984375 -0.8125q-0.671875 0 -1.1875 0.25q-0.515625 0.25 -0.859375 0.671875q-0.328125 0.421875 -0.53125 0.984375q-0.1875 0.546875 -0.203125 1.15625l5.40625 0zm13.100952 0.546875q0 0.4375 -0.21875 0.625q-0.21875 0.171875 -0.484375 0.171875l-6.53125 0q0 0.828125 0.15625 1.5q0.171875 0.65625 0.5625 1.140625q0.390625 0.46875 1.0 0.734375q0.625 0.25 1.515625 0.25q0.71875 0 1.265625 -0.109375q0.5625 -0.125 0.953125 -0.265625q0.40625 -0.15625 0.671875 -0.265625q0.265625 -0.125 0.390625 -0.125q0.078125 0 0.140625 0.046875q0.0625 0.03125 0.09375 0.109375q0.03125 0.078125 0.046875 0.21875q0.015625 0.140625 0.015625 0.34375q0 0.140625 -0.015625 0.25q0 0.09375 -0.015625 0.1875q-0.015625 0.078125 -0.0625 0.15625q-0.03125 0.0625 -0.09375 0.125q-0.0625 0.046875 -0.359375 0.1875q-0.296875 0.140625 -0.78125 0.28125q-0.46875 0.125 -1.09375 0.21875q-0.625 0.109375 -1.34375 0.109375q-1.21875 0 -2.140625 -0.328125q-0.921875 -0.34375 -1.5625 -1.015625q-0.625 -0.6875 -0.953125 -1.703125q-0.3125 -1.015625 -0.3125 -2.359375q0 -1.296875 0.328125 -2.3125q0.328125 -1.03125 0.953125 -1.734375q0.625 -0.71875 1.515625 -1.09375q0.890625 -0.390625 1.984375 -0.390625q1.171875 0 1.984375 0.375q0.828125 0.375 1.359375 1.015625q0.53125 0.640625 0.78125 1.5q0.25 0.859375 0.25 1.828125l0 0.328125zm-1.828125 -0.546875q0.03125 -1.4375 -0.640625 -2.25q-0.671875 -0.8125 -1.984375 -0.8125q-0.671875 0 -1.1875 0.25q-0.515625 0.25 -0.859375 0.671875q-0.328125 0.421875 -0.53125 0.984375q-0.1875 0.546875 -0.203125 1.15625l5.40625 0zm11.757202 4.4375q0 0.1875 -0.015625 0.328125q0 0.140625 -0.03125 0.234375q-0.03125 0.09375 -0.078125 0.171875q-0.03125 0.0625 -0.171875 0.203125q-0.125 0.140625 -0.46875 0.34375q-0.328125 0.203125 -0.75 0.375q-0.40625 0.15625 -0.890625 0.25q-0.484375 0.09375 -1.0 0.09375q-1.078125 0 -1.90625 -0.34375q-0.828125 -0.359375 -1.390625 -1.03125q-0.5625 -0.6875 -0.859375 -1.671875q-0.28125 -1.0 -0.28125 -2.296875q0 -1.46875 0.359375 -2.515625q0.359375 -1.0625 0.984375 -1.734375q0.625 -0.671875 1.46875 -1.0q0.84375 -0.328125 1.828125 -0.328125q0.484375 0 0.921875 0.09375q0.453125 0.078125 0.828125 0.234375q0.375 0.140625 0.671875 0.328125q0.296875 0.1875 0.421875 0.328125q0.140625 0.125 0.1875 0.203125q0.046875 0.078125 0.078125 0.1875q0.03125 0.09375 0.046875 0.234375q0.015625 0.125 0.015625 0.328125q0 0.421875 -0.109375 0.59375q-0.09375 0.171875 -0.234375 0.171875q-0.171875 0 -0.390625 -0.171875q-0.21875 -0.1875 -0.546875 -0.40625q-0.328125 -0.21875 -0.796875 -0.40625q-0.46875 -0.1875 -1.109375 -0.1875q-1.328125 0 -2.03125 1.015625q-0.703125 1.015625 -0.703125 2.9375q0 0.96875 0.1875 1.6875q0.1875 0.71875 0.53125 1.21875q0.359375 0.484375 0.875 0.71875q0.515625 0.234375 1.1875 0.234375q0.625 0 1.09375 -0.1875q0.484375 -0.203125 0.828125 -0.4375q0.34375 -0.25 0.578125 -0.4375q0.25 -0.203125 0.375 -0.203125q0.078125 0 0.125 0.046875q0.0625 0.046875 0.09375 0.15625q0.046875 0.109375 0.0625 0.265625q0.015625 0.15625 0.015625 0.375zm11.002075 1.515625q0 0.09375 -0.046875 0.15625q-0.046875 0.0625 -0.140625 0.109375q-0.09375 0.03125 -0.28125 0.046875q-0.171875 0.03125 -0.4375 0.03125q-0.28125 0 -0.453125 -0.03125q-0.171875 -0.015625 -0.28125 -0.046875q-0.09375 -0.046875 -0.140625 -0.109375q-0.046875 -0.0625 -0.046875 -0.15625l0 -5.828125q0 -0.84375 -0.140625 -1.359375q-0.125 -0.53125 -0.375 -0.90625q-0.25 -0.375 -0.65625 -0.578125q-0.40625 -0.203125 -0.9375 -0.203125q-0.6875 0 -1.375 0.5q-0.6875 0.484375 -1.4375 1.421875l0 6.953125q0 0.09375 -0.046875 0.15625q-0.046875 0.0625 -0.140625 0.109375q-0.09375 0.03125 -0.28125 0.046875q-0.171875 0.03125 -0.453125 0.03125q-0.265625 0 -0.4375 -0.03125q-0.171875 -0.015625 -0.28125 -0.046875q-0.109375 -0.046875 -0.15625 -0.109375q-0.03125 -0.0625 -0.03125 -0.15625l0 -14.78125q0 -0.078125 0.03125 -0.140625q0.046875 -0.078125 0.15625 -0.109375q0.109375 -0.046875 0.28125 -0.0625q0.171875 -0.03125 0.4375 -0.03125q0.28125 0 0.453125 0.03125q0.1875 0.015625 0.28125 0.0625q0.09375 0.03125 0.140625 0.109375q0.046875 0.0625 0.046875 0.140625l0 5.96875q0.78125 -0.828125 1.578125 -1.234375q0.796875 -0.40625 1.609375 -0.40625q1.0 0 1.671875 0.34375q0.6875 0.328125 1.109375 0.90625q0.421875 0.5625 0.59375 1.328125q0.1875 0.75 0.1875 1.8125l0 6.0625z" fill-rule="nonzero"/><path fill="#eeeeee" d="m722.4272 423.66928l0 0c0 -15.246521 46.315613 -27.606293 103.44879 -27.606293l0 0c57.13324 0 103.44885 12.359772 103.44885 27.606293l0 0c0 15.2465515 -46.315613 27.606323 -103.44885 27.606323l0 0c-57.13318 0 -103.44879 -12.359772 -103.44879 -27.606323z" fill-rule="evenodd"/><path stroke="#595959" stroke-width="1.0" stroke-linejoin="round" stroke-linecap="butt" d="m722.4272 423.66928l0 0c0 -15.246521 46.315613 -27.606293 103.44879 -27.606293l0 0c57.13324 0 103.44885 12.359772 103.44885 27.606293l0 0c0 15.2465515 -46.315613 27.606323 -103.44885 27.606323l0 0c-57.13318 0 -103.44879 -12.359772 -103.44879 -27.606323z" fill-rule="evenodd"/><path fill="#000000" d="m792.55035 431.6168q0 0.09375 -0.046875 0.171875q-0.03125 0.0625 -0.140625 0.109375q-0.109375 0.046875 -0.296875 0.0625q-0.1875 0.03125 -0.484375 0.03125q-0.390625 0 -0.640625 -0.03125q-0.234375 -0.03125 -0.359375 -0.109375q-0.109375 -0.09375 -0.1875 -0.203125l-5.265625 -7.15625l0 7.15625q0 0.078125 -0.046875 0.15625q-0.046875 0.0625 -0.15625 0.109375q-0.109375 0.03125 -0.296875 0.046875q-0.1875 0.03125 -0.453125 0.03125q-0.265625 0 -0.453125 -0.03125q-0.1875 -0.015625 -0.3125 -0.046875q-0.109375 -0.046875 -0.15625 -0.109375q-0.03125 -0.078125 -0.03125 -0.15625l0 -13.75q0 -0.078125 0.03125 -0.140625q0.046875 -0.078125 0.15625 -0.109375q0.125 -0.046875 0.3125 -0.0625q0.1875 -0.03125 0.453125 -0.03125q0.265625 0 0.453125 0.03125q0.1875 0.015625 0.296875 0.0625q0.109375 0.03125 0.15625 0.109375q0.046875 0.0625 0.046875 0.140625l0 6.359375l5.0625 -6.359375q0.0625 -0.09375 0.140625 -0.15625q0.09375 -0.078125 0.21875 -0.109375q0.140625 -0.046875 0.3125 -0.0625q0.1875 -0.015625 0.46875 -0.015625q0.296875 0 0.46875 0.03125q0.1875 0.015625 0.28125 0.0625q0.109375 0.046875 0.140625 0.109375q0.046875 0.0625 0.046875 0.140625q0 0.140625 -0.078125 0.296875q-0.0625 0.140625 -0.265625 0.390625l-4.75 5.671875l5.109375 6.796875q0.1875 0.28125 0.21875 0.390625q0.046875 0.109375 0.046875 0.171875zm10.31427 -5.375q0 0.4375 -0.21875 0.625q-0.21875 0.171875 -0.484375 0.171875l-6.53125 0q0 0.828125 0.15625 1.5q0.171875 0.65625 0.5625 1.140625q0.390625 0.46875 1.0 0.734375q0.625 0.25 1.515625 0.25q0.71875 0 1.265625 -0.109375q0.5625 -0.125 0.953125 -0.265625q0.40625 -0.15625 0.671875 -0.265625q0.265625 -0.125 0.390625 -0.125q0.078125 0 0.140625 0.046875q0.0625 0.03125 0.09375 0.109375q0.03125 0.078125 0.046875 0.21875q0.015625 0.140625 0.015625 0.34375q0 0.140625 -0.015625 0.25q0 0.09375 -0.015625 0.1875q-0.015625 0.078125 -0.0625 0.15625q-0.03125 0.0625 -0.09375 0.125q-0.0625 0.046875 -0.359375 0.1875q-0.296875 0.140625 -0.78125 0.28125q-0.46875 0.125 -1.09375 0.21875q-0.625 0.109375 -1.34375 0.109375q-1.21875 0 -2.140625 -0.328125q-0.921875 -0.34375 -1.5625 -1.015625q-0.625 -0.6875 -0.953125 -1.703125q-0.3125 -1.015625 -0.3125 -2.359375q0 -1.296875 0.328125 -2.3125q0.328125 -1.03125 0.953125 -1.734375q0.625 -0.71875 1.515625 -1.09375q0.890625 -0.390625 1.984375 -0.390625q1.171875 0 1.984375 0.375q0.828125 0.375 1.359375 1.015625q0.53125 0.640625 0.78125 1.5q0.25 0.859375 0.25 1.828125l0 0.328125zm-1.828125 -0.546875q0.03125 -1.4375 -0.640625 -2.25q-0.671875 -0.8125 -1.984375 -0.8125q-0.671875 0 -1.1875 0.25q-0.515625 0.25 -0.859375 0.671875q-0.328125 0.421875 -0.53125 0.984375q-0.1875 0.546875 -0.203125 1.15625l5.40625 0zm9.003906 6.234375l-1.328125 3.65625q-0.078125 0.1875 -0.34375 0.28125q-0.265625 0.09375 -0.828125 0.09375q-0.28125 0 -0.46875 -0.03125q-0.171875 -0.03125 -0.265625 -0.09375q-0.09375 -0.0625 -0.109375 -0.171875q0 -0.109375 0.0625 -0.265625l1.375 -3.46875q-0.109375 -0.046875 -0.203125 -0.140625q-0.078125 -0.109375 -0.109375 -0.21875l-3.546875 -9.515625q-0.09375 -0.21875 -0.09375 -0.34375q0 -0.140625 0.078125 -0.21875q0.09375 -0.078125 0.296875 -0.109375q0.203125 -0.03125 0.53125 -0.03125q0.328125 0 0.515625 0.015625q0.1875 0.015625 0.296875 0.0625q0.125 0.046875 0.171875 0.140625q0.046875 0.078125 0.109375 0.21875l2.828125 7.984375l0.046875 0l2.734375 -8.03125q0.0625 -0.21875 0.15625 -0.265625q0.09375 -0.0625 0.28125 -0.09375q0.203125 -0.03125 0.546875 -0.03125q0.3125 0 0.515625 0.03125q0.203125 0.03125 0.296875 0.109375q0.09375 0.078125 0.09375 0.21875q0 0.125 -0.078125 0.3125l-3.5625 9.90625zm19.734192 -10.25q0 0.078125 -0.03125 0.1875q-0.015625 0.109375 -0.078125 0.265625l-2.921875 9.46875q-0.03125 0.125 -0.109375 0.203125q-0.078125 0.0625 -0.203125 0.109375q-0.125 0.046875 -0.34375 0.0625q-0.21875 0.015625 -0.546875 0.015625q-0.34375 0 -0.578125 -0.03125q-0.234375 -0.015625 -0.375 -0.046875q-0.140625 -0.046875 -0.203125 -0.125q-0.0625 -0.078125 -0.09375 -0.1875l-2.09375 -7.234375l-0.03125 -0.09375l-0.015625 0.09375l-1.9375 7.234375q-0.03125 0.125 -0.109375 0.203125q-0.0625 0.0625 -0.21875 0.109375q-0.140625 0.046875 -0.375 0.0625q-0.21875 0.015625 -0.546875 0.015625q-0.34375 0 -0.5625 -0.03125q-0.21875 -0.015625 -0.359375 -0.046875q-0.125 -0.046875 -0.203125 -0.125q-0.0625 -0.078125 -0.09375 -0.1875l-2.90625 -9.46875q-0.0625 -0.15625 -0.078125 -0.265625q-0.015625 -0.109375 -0.015625 -0.1875q0 -0.109375 0.03125 -0.15625q0.046875 -0.0625 0.15625 -0.09375q0.109375 -0.046875 0.28125 -0.0625q0.171875 -0.015625 0.4375 -0.015625q0.296875 0 0.484375 0.015625q0.1875 0.015625 0.28125 0.0625q0.109375 0.03125 0.15625 0.109375q0.046875 0.0625 0.078125 0.171875l2.40625 8.203125l0.015625 0.109375l0.015625 -0.109375l2.203125 -8.203125q0.03125 -0.109375 0.078125 -0.171875q0.046875 -0.078125 0.140625 -0.109375q0.109375 -0.046875 0.28125 -0.0625q0.171875 -0.015625 0.453125 -0.015625q0.265625 0 0.421875 0.015625q0.171875 0.015625 0.265625 0.0625q0.109375 0.03125 0.15625 0.109375q0.046875 0.0625 0.0625 0.140625l2.390625 8.234375l0.015625 0.109375l0.015625 -0.109375l2.359375 -8.203125q0.03125 -0.109375 0.078125 -0.171875q0.046875 -0.078125 0.140625 -0.109375q0.109375 -0.046875 0.296875 -0.0625q0.1875 -0.015625 0.46875 -0.015625q0.265625 0 0.421875 0.015625q0.171875 0.015625 0.265625 0.0625q0.09375 0.03125 0.125 0.09375q0.046875 0.046875 0.046875 0.15625zm11.313538 4.890625q0 1.203125 -0.328125 2.234375q-0.3125 1.015625 -0.953125 1.765625q-0.640625 0.734375 -1.59375 1.15625q-0.953125 0.40625 -2.21875 0.40625q-1.21875 0 -2.140625 -0.359375q-0.90625 -0.359375 -1.515625 -1.046875q-0.609375 -0.703125 -0.90625 -1.703125q-0.296875 -1.0 -0.296875 -2.265625q0 -1.21875 0.3125 -2.234375q0.3125 -1.03125 0.9375 -1.765625q0.640625 -0.734375 1.59375 -1.140625q0.953125 -0.421875 2.234375 -0.421875q1.21875 0 2.125 0.375q0.921875 0.359375 1.53125 1.0625q0.609375 0.6875 0.90625 1.6875q0.3125 1.0 0.3125 2.25zm-1.921875 0.109375q0 -0.796875 -0.15625 -1.515625q-0.140625 -0.71875 -0.484375 -1.265625q-0.34375 -0.546875 -0.9375 -0.859375q-0.578125 -0.3125 -1.453125 -0.3125q-0.8125 0 -1.390625 0.296875q-0.578125 0.28125 -0.953125 0.8125q-0.375 0.515625 -0.5625 1.234375q-0.1875 0.71875 -0.1875 1.578125q0 0.8125 0.140625 1.53125q0.15625 0.71875 0.5 1.265625q0.359375 0.53125 0.9375 0.84375q0.59375 0.3125 1.46875 0.3125q0.796875 0 1.375 -0.28125q0.59375 -0.296875 0.96875 -0.8125q0.375 -0.515625 0.546875 -1.234375q0.1875 -0.71875 0.1875 -1.59375zm10.432007 -4.328125q0 0.234375 -0.015625 0.40625q-0.015625 0.171875 -0.046875 0.265625q-0.03125 0.09375 -0.078125 0.140625q-0.046875 0.046875 -0.140625 0.046875q-0.09375 0 -0.21875 -0.046875q-0.125 -0.046875 -0.28125 -0.09375q-0.15625 -0.0625 -0.359375 -0.09375q-0.203125 -0.046875 -0.4375 -0.046875q-0.265625 0 -0.53125 0.109375q-0.265625 0.109375 -0.5625 0.359375q-0.296875 0.25 -0.625 0.671875q-0.3125 0.421875 -0.703125 1.03125l0 6.546875q0 0.09375 -0.046875 0.15625q-0.046875 0.0625 -0.140625 0.109375q-0.09375 0.03125 -0.28125 0.046875q-0.171875 0.03125 -0.453125 0.03125q-0.265625 0 -0.4375 -0.03125q-0.171875 -0.015625 -0.28125 -0.046875q-0.109375 -0.046875 -0.15625 -0.109375q-0.03125 -0.0625 -0.03125 -0.15625l0 -9.953125q0 -0.09375 0.03125 -0.140625q0.046875 -0.0625 0.140625 -0.109375q0.09375 -0.0625 0.25 -0.078125q0.15625 -0.015625 0.40625 -0.015625q0.25 0 0.40625 0.015625q0.171875 0.015625 0.25 0.078125q0.09375 0.046875 0.125 0.109375q0.046875 0.046875 0.046875 0.140625l0 1.453125q0.40625 -0.59375 0.765625 -0.96875q0.359375 -0.390625 0.671875 -0.59375q0.328125 -0.21875 0.640625 -0.296875q0.3125 -0.09375 0.640625 -0.09375q0.140625 0 0.328125 0.015625q0.1875 0.015625 0.375 0.0625q0.203125 0.046875 0.359375 0.109375q0.171875 0.046875 0.234375 0.109375q0.0625 0.046875 0.078125 0.109375q0.03125 0.046875 0.046875 0.125q0.015625 0.0625 0.015625 0.21875q0.015625 0.15625 0.015625 0.40625zm10.291931 9.296875q0 0.09375 -0.046875 0.15625q-0.03125 0.0625 -0.125 0.109375q-0.09375 0.03125 -0.25 0.046875q-0.15625 0.03125 -0.375 0.03125q-0.234375 0 -0.390625 -0.03125q-0.140625 -0.015625 -0.25 -0.046875q-0.09375 -0.046875 -0.140625 -0.109375q-0.046875 -0.0625 -0.046875 -0.15625l0 -1.3125q-0.78125 0.859375 -1.625 1.328125q-0.84375 0.46875 -1.859375 0.46875q-1.09375 0 -1.875 -0.421875q-0.765625 -0.421875 -1.25 -1.140625q-0.484375 -0.734375 -0.703125 -1.703125q-0.21875 -0.984375 -0.21875 -2.078125q0 -1.28125 0.265625 -2.3125q0.28125 -1.03125 0.828125 -1.75q0.546875 -0.734375 1.34375 -1.125q0.796875 -0.40625 1.859375 -0.40625q0.875 0 1.59375 0.390625q0.71875 0.375 1.4375 1.125l0 -5.796875q0 -0.078125 0.03125 -0.140625q0.046875 -0.078125 0.15625 -0.109375q0.109375 -0.046875 0.28125 -0.0625q0.171875 -0.03125 0.4375 -0.03125q0.265625 0 0.4375 0.03125q0.1875 0.015625 0.28125 0.0625q0.109375 0.03125 0.15625 0.109375q0.046875 0.0625 0.046875 0.140625l0 14.734375zm-1.828125 -7.0q-0.75 -0.921875 -1.4375 -1.390625q-0.6875 -0.484375 -1.4375 -0.484375q-0.703125 0 -1.1875 0.328125q-0.484375 0.328125 -0.796875 0.875q-0.296875 0.546875 -0.4375 1.234375q-0.140625 0.671875 -0.140625 1.390625q0 0.75 0.109375 1.46875q0.125 0.71875 0.40625 1.28125q0.296875 0.546875 0.765625 0.890625q0.484375 0.34375 1.203125 0.34375q0.359375 0 0.6875 -0.09375q0.34375 -0.109375 0.6875 -0.34375q0.359375 -0.234375 0.75 -0.59375q0.390625 -0.375 0.828125 -0.921875l0 -3.984375zm11.450256 4.296875q0 0.765625 -0.28125 1.359375q-0.28125 0.59375 -0.796875 1.015625q-0.515625 0.40625 -1.234375 0.609375q-0.71875 0.203125 -1.59375 0.203125q-0.53125 0 -1.015625 -0.078125q-0.46875 -0.078125 -0.859375 -0.203125q-0.375 -0.125 -0.640625 -0.265625q-0.265625 -0.140625 -0.390625 -0.25q-0.125 -0.109375 -0.1875 -0.3125q-0.046875 -0.203125 -0.046875 -0.546875q0 -0.203125 0.015625 -0.34375q0.03125 -0.15625 0.0625 -0.234375q0.03125 -0.09375 0.09375 -0.125q0.0625 -0.046875 0.140625 -0.046875q0.125 0 0.359375 0.15625q0.234375 0.140625 0.578125 0.328125q0.359375 0.171875 0.828125 0.328125q0.484375 0.140625 1.109375 0.140625q0.453125 0 0.828125 -0.09375q0.375 -0.109375 0.65625 -0.296875q0.28125 -0.203125 0.421875 -0.5q0.15625 -0.296875 0.15625 -0.703125q0 -0.421875 -0.21875 -0.703125q-0.21875 -0.296875 -0.578125 -0.515625q-0.34375 -0.21875 -0.796875 -0.390625q-0.4375 -0.171875 -0.90625 -0.359375q-0.46875 -0.1875 -0.921875 -0.421875q-0.4375 -0.234375 -0.796875 -0.578125q-0.34375 -0.34375 -0.5625 -0.8125q-0.21875 -0.484375 -0.21875 -1.15625q0 -0.578125 0.21875 -1.109375q0.234375 -0.546875 0.6875 -0.953125q0.453125 -0.40625 1.125 -0.640625q0.6875 -0.25 1.59375 -0.25q0.40625 0 0.796875 0.078125q0.40625 0.0625 0.71875 0.15625q0.328125 0.09375 0.546875 0.21875q0.234375 0.109375 0.34375 0.203125q0.125 0.09375 0.15625 0.15625q0.046875 0.0625 0.0625 0.15625q0.015625 0.078125 0.03125 0.203125q0.015625 0.109375 0.015625 0.296875q0 0.1875 -0.015625 0.328125q-0.015625 0.125 -0.0625 0.21875q-0.03125 0.09375 -0.09375 0.140625q-0.046875 0.03125 -0.125 0.03125q-0.09375 0 -0.28125 -0.125q-0.1875 -0.125 -0.484375 -0.265625q-0.296875 -0.140625 -0.703125 -0.25q-0.40625 -0.125 -0.921875 -0.125q-0.46875 0 -0.828125 0.109375q-0.34375 0.09375 -0.578125 0.296875q-0.21875 0.1875 -0.34375 0.453125q-0.109375 0.265625 -0.109375 0.578125q0 0.4375 0.21875 0.734375q0.21875 0.28125 0.5625 0.5q0.359375 0.21875 0.8125 0.40625q0.453125 0.171875 0.921875 0.359375q0.484375 0.1875 0.9375 0.421875q0.453125 0.234375 0.8125 0.5625q0.359375 0.328125 0.5625 0.796875q0.21875 0.46875 0.21875 1.109375z" fill-rule="nonzero"/><path fill="#eeeeee" d="m493.69095 465.3937l0 0c0 -15.2465515 46.315582 -27.606293 103.44882 -27.606293l0 0c57.13318 0 103.44879 12.359741 103.44879 27.606293l0 0c0 15.246521 -46.315613 27.606293 -103.44879 27.606293l0 0c-57.13324 0 -103.44882 -12.359772 -103.44882 -27.606293z" fill-rule="evenodd"/><path stroke="#595959" stroke-width="1.0" stroke-linejoin="round" stroke-linecap="butt" d="m493.69095 465.3937l0 0c0 -15.2465515 46.315582 -27.606293 103.44882 -27.606293l0 0c57.13318 0 103.44879 12.359741 103.44879 27.606293l0 0c0 15.246521 -46.315613 27.606293 -103.44879 27.606293l0 0c-57.13324 0 -103.44882 -12.359772 -103.44882 -27.606293z" fill-rule="evenodd"/><path fill="#000000" d="m550.9707 447.7787q0 0.21875 -0.03125 0.375q-0.015625 0.15625 -0.0625 0.265625q-0.046875 0.109375 -0.109375 0.15625q-0.0625 0.046875 -0.140625 0.046875q-0.125 0 -0.4375 -0.203125q-0.3125 -0.21875 -0.84375 -0.46875q-0.515625 -0.265625 -1.234375 -0.46875q-0.71875 -0.21875 -1.71875 -0.21875q-1.1875 0 -2.125 0.4375q-0.9375 0.421875 -1.59375 1.1875q-0.65625 0.765625 -1.0 1.828125q-0.34375 1.046875 -0.34375 2.265625q0 1.375 0.375 2.4375q0.375 1.0625 1.046875 1.796875q0.6875 0.71875 1.609375 1.109375q0.9375 0.375 2.0625 0.375q0.65625 0 1.34375 -0.15625q0.6875 -0.171875 1.265625 -0.5l0 -4.15625l-3.3125 0q-0.1875 0 -0.28125 -0.1875q-0.09375 -0.203125 -0.09375 -0.59375q0 -0.203125 0.015625 -0.359375q0.015625 -0.15625 0.0625 -0.25q0.0625 -0.09375 0.125 -0.125q0.0625 -0.046875 0.171875 -0.046875l4.546875 0q0.109375 0 0.234375 0.046875q0.125 0.03125 0.21875 0.125q0.109375 0.09375 0.15625 0.25q0.0625 0.15625 0.0625 0.34375l0 5.453125q0 0.296875 -0.109375 0.515625q-0.09375 0.203125 -0.421875 0.359375q-0.3125 0.15625 -0.828125 0.34375q-0.5 0.1875 -1.046875 0.328125q-0.53125 0.125 -1.09375 0.1875q-0.546875 0.078125 -1.09375 0.078125q-1.65625 0 -2.96875 -0.515625q-1.296875 -0.515625 -2.203125 -1.46875q-0.90625 -0.953125 -1.390625 -2.28125q-0.46875 -1.328125 -0.46875 -2.96875q0 -1.703125 0.515625 -3.078125q0.515625 -1.390625 1.453125 -2.359375q0.9375 -0.96875 2.25 -1.5q1.3125 -0.546875 2.90625 -0.546875q0.8125 0 1.53125 0.15625q0.71875 0.140625 1.28125 0.328125q0.5625 0.1875 0.9375 0.421875q0.375 0.21875 0.515625 0.375q0.15625 0.140625 0.203125 0.328125q0.0625 0.1875 0.0625 0.53125zm9.152283 2.796875q0 0.234375 -0.015625 0.40625q-0.015625 0.171875 -0.046875 0.265625q-0.03125 0.09375 -0.078125 0.140625q-0.046875 0.046875 -0.140625 0.046875q-0.09375 0 -0.21875 -0.046875q-0.125 -0.046875 -0.28125 -0.09375q-0.15625 -0.0625 -0.359375 -0.09375q-0.203125 -0.046875 -0.4375 -0.046875q-0.265625 0 -0.53125 0.109375q-0.265625 0.109375 -0.5625 0.359375q-0.296875 0.25 -0.625 0.671875q-0.3125 0.421875 -0.703125 1.03125l0 6.546875q0 0.09375 -0.046875 0.15625q-0.046875 0.0625 -0.140625 0.109375q-0.09375 0.03125 -0.28125 0.046875q-0.171875 0.03125 -0.453125 0.03125q-0.265625 0 -0.4375 -0.03125q-0.171875 -0.015625 -0.28125 -0.046875q-0.109375 -0.046875 -0.15625 -0.109375q-0.03125 -0.0625 -0.03125 -0.15625l0 -9.953125q0 -0.09375 0.03125 -0.140625q0.046875 -0.0625 0.140625 -0.109375q0.09375 -0.0625 0.25 -0.078125q0.15625 -0.015625 0.40625 -0.015625q0.25 0 0.40625 0.015625q0.171875 0.015625 0.25 0.078125q0.09375 0.046875 0.125 0.109375q0.046875 0.046875 0.046875 0.140625l0 1.453125q0.40625 -0.59375 0.765625 -0.96875q0.359375 -0.390625 0.671875 -0.59375q0.328125 -0.21875 0.640625 -0.296875q0.3125 -0.09375 0.640625 -0.09375q0.140625 0 0.328125 0.015625q0.1875 0.015625 0.375 0.0625q0.203125 0.046875 0.359375 0.109375q0.171875 0.046875 0.234375 0.109375q0.0625 0.046875 0.078125 0.109375q0.03125 0.046875 0.046875 0.125q0.015625 0.0625 0.015625 0.21875q0.015625 0.15625 0.015625 0.40625zm9.105774 9.3125q0 0.140625 -0.09375 0.203125q-0.078125 0.0625 -0.234375 0.09375q-0.15625 0.03125 -0.453125 0.03125q-0.28125 0 -0.453125 -0.03125q-0.171875 -0.03125 -0.25 -0.09375q-0.078125 -0.0625 -0.078125 -0.203125l0 -1.0q-0.65625 0.703125 -1.46875 1.09375q-0.796875 0.375 -1.6875 0.375q-0.78125 0 -1.421875 -0.203125q-0.640625 -0.203125 -1.09375 -0.578125q-0.4375 -0.390625 -0.6875 -0.953125q-0.25 -0.578125 -0.25 -1.296875q0 -0.828125 0.34375 -1.453125q0.34375 -0.625 0.984375 -1.03125q0.640625 -0.40625 1.5625 -0.609375q0.9375 -0.203125 2.09375 -0.203125l1.375 0l0 -0.78125q0 -0.578125 -0.125 -1.015625q-0.109375 -0.4375 -0.390625 -0.734375q-0.265625 -0.296875 -0.703125 -0.4375q-0.421875 -0.15625 -1.0625 -0.15625q-0.671875 0 -1.203125 0.171875q-0.53125 0.15625 -0.9375 0.34375q-0.40625 0.1875 -0.6875 0.359375q-0.265625 0.15625 -0.390625 0.15625q-0.09375 0 -0.171875 -0.046875q-0.0625 -0.046875 -0.109375 -0.125q-0.046875 -0.09375 -0.078125 -0.234375q-0.015625 -0.140625 -0.015625 -0.296875q0 -0.28125 0.03125 -0.4375q0.046875 -0.171875 0.1875 -0.3125q0.15625 -0.140625 0.515625 -0.328125q0.375 -0.203125 0.84375 -0.359375q0.484375 -0.15625 1.046875 -0.265625q0.5625 -0.109375 1.140625 -0.109375q1.078125 0 1.828125 0.25q0.75 0.234375 1.203125 0.71875q0.46875 0.46875 0.671875 1.171875q0.21875 0.6875 0.21875 1.609375l0 6.71875zm-1.8125 -4.546875l-1.5625 0q-0.75 0 -1.3125 0.125q-0.546875 0.125 -0.90625 0.375q-0.359375 0.25 -0.53125 0.609375q-0.171875 0.34375 -0.171875 0.796875q0 0.765625 0.484375 1.234375q0.5 0.453125 1.375 0.453125q0.71875 0 1.328125 -0.359375q0.625 -0.375 1.296875 -1.125l0 -2.109375zm19.946167 4.53125q0 0.09375 -0.046875 0.15625q-0.046875 0.0625 -0.15625 0.109375q-0.09375 0.03125 -0.28125 0.046875q-0.171875 0.03125 -0.4375 0.03125q-0.265625 0 -0.453125 -0.03125q-0.171875 -0.015625 -0.28125 -0.046875q-0.09375 -0.046875 -0.140625 -0.109375q-0.046875 -0.0625 -0.046875 -0.15625l0 -6.046875q0 -0.625 -0.109375 -1.140625q-0.109375 -0.53125 -0.359375 -0.90625q-0.234375 -0.375 -0.609375 -0.578125q-0.375 -0.203125 -0.890625 -0.203125q-0.625 0 -1.265625 0.5q-0.640625 0.484375 -1.40625 1.421875l0 6.953125q0 0.09375 -0.046875 0.15625q-0.03125 0.0625 -0.140625 0.109375q-0.109375 0.03125 -0.28125 0.046875q-0.171875 0.03125 -0.4375 0.03125q-0.265625 0 -0.453125 -0.03125q-0.171875 -0.015625 -0.28125 -0.046875q-0.109375 -0.046875 -0.140625 -0.109375q-0.03125 -0.0625 -0.03125 -0.15625l0 -6.046875q0 -0.625 -0.125 -1.140625q-0.125 -0.53125 -0.375 -0.90625q-0.234375 -0.375 -0.609375 -0.578125q-0.375 -0.203125 -0.875 -0.203125q-0.640625 0 -1.28125 0.5q-0.640625 0.484375 -1.390625 1.421875l0 6.953125q0 0.09375 -0.046875 0.15625q-0.046875 0.0625 -0.140625 0.109375q-0.09375 0.03125 -0.28125 0.046875q-0.171875 0.03125 -0.453125 0.03125q-0.265625 0 -0.4375 -0.03125q-0.171875 -0.015625 -0.28125 -0.046875q-0.109375 -0.046875 -0.15625 -0.109375q-0.03125 -0.0625 -0.03125 -0.15625l0 -9.953125q0 -0.09375 0.03125 -0.140625q0.046875 -0.0625 0.140625 -0.109375q0.09375 -0.0625 0.25 -0.078125q0.15625 -0.015625 0.40625 -0.015625q0.25 0 0.40625 0.015625q0.171875 0.015625 0.25 0.078125q0.09375 0.046875 0.125 0.109375q0.046875 0.046875 0.046875 0.140625l0 1.3125q0.84375 -0.9375 1.625 -1.375q0.796875 -0.4375 1.609375 -0.4375q0.609375 0 1.09375 0.15625q0.5 0.140625 0.875 0.40625q0.375 0.25 0.640625 0.609375q0.265625 0.359375 0.453125 0.796875q0.5 -0.53125 0.9375 -0.90625q0.453125 -0.390625 0.859375 -0.609375q0.421875 -0.234375 0.8125 -0.34375q0.390625 -0.109375 0.796875 -0.109375q0.953125 0 1.609375 0.34375q0.65625 0.328125 1.0625 0.90625q0.40625 0.5625 0.578125 1.328125q0.171875 0.75 0.171875 1.578125l0 6.296875zm18.09845 0q0 0.09375 -0.046875 0.15625q-0.046875 0.0625 -0.15625 0.109375q-0.09375 0.03125 -0.28125 0.046875q-0.171875 0.03125 -0.4375 0.03125q-0.265625 0 -0.453125 -0.03125q-0.171875 -0.015625 -0.28125 -0.046875q-0.09375 -0.046875 -0.140625 -0.109375q-0.046875 -0.0625 -0.046875 -0.15625l0 -6.046875q0 -0.625 -0.109375 -1.140625q-0.109375 -0.53125 -0.359375 -0.90625q-0.234375 -0.375 -0.609375 -0.578125q-0.375 -0.203125 -0.890625 -0.203125q-0.625 0 -1.265625 0.5q-0.640625 0.484375 -1.40625 1.421875l0 6.953125q0 0.09375 -0.046875 0.15625q-0.03125 0.0625 -0.140625 0.109375q-0.109375 0.03125 -0.28125 0.046875q-0.171875 0.03125 -0.4375 0.03125q-0.265625 0 -0.453125 -0.03125q-0.171875 -0.015625 -0.28125 -0.046875q-0.109375 -0.046875 -0.140625 -0.109375q-0.03125 -0.0625 -0.03125 -0.15625l0 -6.046875q0 -0.625 -0.125 -1.140625q-0.125 -0.53125 -0.375 -0.90625q-0.234375 -0.375 -0.609375 -0.578125q-0.375 -0.203125 -0.875 -0.203125q-0.640625 0 -1.28125 0.5q-0.640625 0.484375 -1.390625 1.421875l0 6.953125q0 0.09375 -0.046875 0.15625q-0.046875 0.0625 -0.140625 0.109375q-0.09375 0.03125 -0.28125 0.046875q-0.171875 0.03125 -0.453125 0.03125q-0.265625 0 -0.4375 -0.03125q-0.171875 -0.015625 -0.28125 -0.046875q-0.109375 -0.046875 -0.15625 -0.109375q-0.03125 -0.0625 -0.03125 -0.15625l0 -9.953125q0 -0.09375 0.03125 -0.140625q0.046875 -0.0625 0.140625 -0.109375q0.09375 -0.0625 0.25 -0.078125q0.15625 -0.015625 0.40625 -0.015625q0.25 0 0.40625 0.015625q0.171875 0.015625 0.25 0.078125q0.09375 0.046875 0.125 0.109375q0.046875 0.046875 0.046875 0.140625l0 1.3125q0.84375 -0.9375 1.625 -1.375q0.796875 -0.4375 1.609375 -0.4375q0.609375 0 1.09375 0.15625q0.5 0.140625 0.875 0.40625q0.375 0.25 0.640625 0.609375q0.265625 0.359375 0.453125 0.796875q0.5 -0.53125 0.9375 -0.90625q0.453125 -0.390625 0.859375 -0.609375q0.421875 -0.234375 0.8125 -0.34375q0.390625 -0.109375 0.796875 -0.109375q0.953125 0 1.609375 0.34375q0.65625 0.328125 1.0625 0.90625q0.40625 0.5625 0.578125 1.328125q0.171875 0.75 0.171875 1.578125l0 6.296875zm10.8172 0.015625q0 0.140625 -0.09375 0.203125q-0.078125 0.0625 -0.234375 0.09375q-0.15625 0.03125 -0.453125 0.03125q-0.28125 0 -0.453125 -0.03125q-0.171875 -0.03125 -0.25 -0.09375q-0.078125 -0.0625 -0.078125 -0.203125l0 -1.0q-0.65625 0.703125 -1.46875 1.09375q-0.796875 0.375 -1.6875 0.375q-0.78125 0 -1.421875 -0.203125q-0.640625 -0.203125 -1.09375 -0.578125q-0.4375 -0.390625 -0.6875 -0.953125q-0.25 -0.578125 -0.25 -1.296875q0 -0.828125 0.34375 -1.453125q0.34375 -0.625 0.984375 -1.03125q0.640625 -0.40625 1.5625 -0.609375q0.9375 -0.203125 2.09375 -0.203125l1.375 0l0 -0.78125q0 -0.578125 -0.125 -1.015625q-0.109375 -0.4375 -0.390625 -0.734375q-0.265625 -0.296875 -0.703125 -0.4375q-0.421875 -0.15625 -1.0625 -0.15625q-0.671875 0 -1.203125 0.171875q-0.53125 0.15625 -0.9375 0.34375q-0.40625 0.1875 -0.6875 0.359375q-0.265625 0.15625 -0.390625 0.15625q-0.09375 0 -0.171875 -0.046875q-0.0625 -0.046875 -0.109375 -0.125q-0.046875 -0.09375 -0.078125 -0.234375q-0.015625 -0.140625 -0.015625 -0.296875q0 -0.28125 0.03125 -0.4375q0.046875 -0.171875 0.1875 -0.3125q0.15625 -0.140625 0.515625 -0.328125q0.375 -0.203125 0.84375 -0.359375q0.484375 -0.15625 1.046875 -0.265625q0.5625 -0.109375 1.140625 -0.109375q1.078125 0 1.828125 0.25q0.75 0.234375 1.203125 0.71875q0.46875 0.46875 0.671875 1.171875q0.21875 0.6875 0.21875 1.609375l0 6.71875zm-1.8125 -4.546875l-1.5625 0q-0.75 0 -1.3125 0.125q-0.546875 0.125 -0.90625 0.375q-0.359375 0.25 -0.53125 0.609375q-0.171875 0.34375 -0.171875 0.796875q0 0.765625 0.484375 1.234375q0.5 0.453125 1.375 0.453125q0.71875 0 1.328125 -0.359375q0.625 -0.375 1.296875 -1.125l0 -2.109375zm10.142151 3.8125q0 0.3125 -0.046875 0.5q-0.046875 0.1875 -0.140625 0.28125q-0.078125 0.09375 -0.265625 0.171875q-0.171875 0.0625 -0.40625 0.109375q-0.21875 0.0625 -0.484375 0.09375q-0.25 0.03125 -0.5 0.03125q-0.765625 0 -1.328125 -0.203125q-0.546875 -0.203125 -0.90625 -0.609375q-0.359375 -0.421875 -0.515625 -1.0625q-0.15625 -0.640625 -0.15625 -1.5l0 -5.8125l-1.390625 0q-0.171875 0 -0.28125 -0.171875q-0.09375 -0.1875 -0.09375 -0.578125q0 -0.21875 0.03125 -0.359375q0.03125 -0.140625 0.078125 -0.234375q0.046875 -0.09375 0.109375 -0.125q0.078125 -0.046875 0.15625 -0.046875l1.390625 0l0 -2.375q0 -0.078125 0.03125 -0.140625q0.046875 -0.0625 0.140625 -0.109375q0.109375 -0.0625 0.28125 -0.078125q0.1875 -0.015625 0.453125 -0.015625q0.28125 0 0.453125 0.015625q0.171875 0.015625 0.265625 0.078125q0.109375 0.046875 0.15625 0.109375q0.046875 0.0625 0.046875 0.140625l0 2.375l2.546875 0q0.09375 0 0.15625 0.046875q0.0625 0.03125 0.109375 0.125q0.0625 0.09375 0.078125 0.234375q0.03125 0.140625 0.03125 0.359375q0 0.390625 -0.109375 0.578125q-0.09375 0.171875 -0.265625 0.171875l-2.546875 0l0 5.546875q0 1.03125 0.296875 1.5625q0.3125 0.515625 1.09375 0.515625q0.25 0 0.453125 -0.046875q0.203125 -0.046875 0.359375 -0.09375q0.15625 -0.0625 0.265625 -0.109375q0.109375 -0.0625 0.1875 -0.0625q0.0625 0 0.109375 0.03125q0.046875 0.03125 0.078125 0.109375q0.03125 0.078125 0.046875 0.21875q0.03125 0.125 0.03125 0.328125zm4.229553 0.71875q0 0.09375 -0.046875 0.15625q-0.046875 0.0625 -0.140625 0.109375q-0.09375 0.03125 -0.28125 0.046875q-0.171875 0.03125 -0.453125 0.03125q-0.265625 0 -0.4375 -0.03125q-0.171875 -0.015625 -0.28125 -0.046875q-0.109375 -0.046875 -0.15625 -0.109375q-0.03125 -0.0625 -0.03125 -0.15625l0 -9.953125q0 -0.078125 0.03125 -0.140625q0.046875 -0.0625 0.15625 -0.109375q0.109375 -0.046875 0.28125 -0.0625q0.171875 -0.03125 0.4375 -0.03125q0.28125 0 0.453125 0.03125q0.1875 0.015625 0.28125 0.0625q0.09375 0.046875 0.140625 0.109375q0.046875 0.0625 0.046875 0.140625l0 9.953125zm0.21875 -13.3125q0 0.640625 -0.25 0.875q-0.25 0.234375 -0.890625 0.234375q-0.640625 0 -0.890625 -0.21875q-0.234375 -0.234375 -0.234375 -0.875q0 -0.640625 0.234375 -0.875q0.25 -0.234375 0.90625 -0.234375q0.640625 0 0.875 0.234375q0.25 0.234375 0.25 0.859375zm10.308838 11.796875q0 0.1875 -0.015625 0.328125q0 0.140625 -0.03125 0.234375q-0.03125 0.09375 -0.078125 0.171875q-0.03125 0.0625 -0.171875 0.203125q-0.125 0.140625 -0.46875 0.34375q-0.328125 0.203125 -0.75 0.375q-0.40625 0.15625 -0.890625 0.25q-0.484375 0.09375 -1.0 0.09375q-1.078125 0 -1.90625 -0.34375q-0.828125 -0.359375 -1.390625 -1.03125q-0.5625 -0.6875 -0.859375 -1.671875q-0.28125 -1.0 -0.28125 -2.296875q0 -1.46875 0.359375 -2.515625q0.359375 -1.0625 0.984375 -1.734375q0.625 -0.671875 1.46875 -1.0q0.84375 -0.328125 1.828125 -0.328125q0.484375 0 0.921875 0.09375q0.453125 0.078125 0.828125 0.234375q0.375 0.140625 0.671875 0.328125q0.296875 0.1875 0.421875 0.328125q0.140625 0.125 0.1875 0.203125q0.046875 0.078125 0.078125 0.1875q0.03125 0.09375 0.046875 0.234375q0.015625 0.125 0.015625 0.328125q0 0.421875 -0.109375 0.59375q-0.09375 0.171875 -0.234375 0.171875q-0.171875 0 -0.390625 -0.171875q-0.21875 -0.1875 -0.546875 -0.40625q-0.328125 -0.21875 -0.796875 -0.40625q-0.46875 -0.1875 -1.109375 -0.1875q-1.328125 0 -2.03125 1.015625q-0.703125 1.015625 -0.703125 2.9375q0 0.96875 0.1875 1.6875q0.1875 0.71875 0.53125 1.21875q0.359375 0.484375 0.875 0.71875q0.515625 0.234375 1.1875 0.234375q0.625 0 1.09375 -0.1875q0.484375 -0.203125 0.828125 -0.4375q0.34375 -0.25 0.578125 -0.4375q0.25 -0.203125 0.375 -0.203125q0.078125 0 0.125 0.046875q0.0625 0.046875 0.09375 0.15625q0.046875 0.109375 0.0625 0.265625q0.015625 0.15625 0.015625 0.375zm9.73584 1.53125q0 0.140625 -0.09375 0.203125q-0.078125 0.0625 -0.234375 0.09375q-0.15625 0.03125 -0.453125 0.03125q-0.28125 0 -0.453125 -0.03125q-0.171875 -0.03125 -0.25 -0.09375q-0.078125 -0.0625 -0.078125 -0.203125l0 -1.0q-0.65625 0.703125 -1.46875 1.09375q-0.796875 0.375 -1.6875 0.375q-0.78125 0 -1.421875 -0.203125q-0.640625 -0.203125 -1.09375 -0.578125q-0.4375 -0.390625 -0.6875 -0.953125q-0.25 -0.578125 -0.25 -1.296875q0 -0.828125 0.34375 -1.453125q0.34375 -0.625 0.984375 -1.03125q0.640625 -0.40625 1.5625 -0.609375q0.9375 -0.203125 2.09375 -0.203125l1.375 0l0 -0.78125q0 -0.578125 -0.125 -1.015625q-0.109375 -0.4375 -0.390625 -0.734375q-0.265625 -0.296875 -0.703125 -0.4375q-0.421875 -0.15625 -1.0625 -0.15625q-0.671875 0 -1.203125 0.171875q-0.53125 0.15625 -0.9375 0.34375q-0.40625 0.1875 -0.6875 0.359375q-0.265625 0.15625 -0.390625 0.15625q-0.09375 0 -0.171875 -0.046875q-0.0625 -0.046875 -0.109375 -0.125q-0.046875 -0.09375 -0.078125 -0.234375q-0.015625 -0.140625 -0.015625 -0.296875q0 -0.28125 0.03125 -0.4375q0.046875 -0.171875 0.1875 -0.3125q0.15625 -0.140625 0.515625 -0.328125q0.375 -0.203125 0.84375 -0.359375q0.484375 -0.15625 1.046875 -0.265625q0.5625 -0.109375 1.140625 -0.109375q1.078125 0 1.828125 0.25q0.75 0.234375 1.203125 0.71875q0.46875 0.46875 0.671875 1.171875q0.21875 0.6875 0.21875 1.609375l0 6.71875zm-1.8125 -4.546875l-1.5625 0q-0.75 0 -1.3125 0.125q-0.546875 0.125 -0.90625 0.375q-0.359375 0.25 -0.53125 0.609375q-0.171875 0.34375 -0.171875 0.796875q0 0.765625 0.484375 1.234375q0.5 0.453125 1.375 0.453125q0.71875 0 1.328125 -0.359375q0.625 -0.375 1.296875 -1.125l0 -2.109375zm6.993042 4.53125q0 0.09375 -0.046875 0.15625q-0.046875 0.0625 -0.140625 0.109375q-0.09375 0.03125 -0.28125 0.046875q-0.171875 0.03125 -0.453125 0.03125q-0.265625 0 -0.4375 -0.03125q-0.171875 -0.015625 -0.28125 -0.046875q-0.109375 -0.046875 -0.15625 -0.109375q-0.03125 -0.0625 -0.03125 -0.15625l0 -14.78125q0 -0.078125 0.03125 -0.140625q0.046875 -0.078125 0.15625 -0.109375q0.109375 -0.046875 0.28125 -0.0625q0.171875 -0.03125 0.4375 -0.03125q0.28125 0 0.453125 0.03125q0.1875 0.015625 0.28125 0.0625q0.09375 0.03125 0.140625 0.109375q0.046875 0.0625 0.046875 0.140625l0 14.78125z" fill-rule="nonzero"/><path fill="#000000" d="m579.6073 486.37244q0 0.1875 -0.03125 0.34375q-0.015625 0.15625 -0.078125 0.25q-0.046875 0.09375 -0.125 0.140625q-0.078125 0.046875 -0.15625 0.046875l-6.875 0q-0.25 0 -0.484375 -0.171875q-0.21875 -0.171875 -0.21875 -0.609375l0 -12.765625q0 -0.421875 0.21875 -0.59375q0.234375 -0.171875 0.484375 -0.171875l6.796875 0q0.078125 0 0.15625 0.046875q0.078125 0.046875 0.109375 0.140625q0.046875 0.09375 0.078125 0.25q0.03125 0.140625 0.03125 0.375q0 0.1875 -0.03125 0.34375q-0.03125 0.140625 -0.078125 0.234375q-0.03125 0.09375 -0.109375 0.140625q-0.078125 0.046875 -0.15625 0.046875l-5.59375 0l0 4.5l4.796875 0q0.078125 0 0.15625 0.046875q0.078125 0.046875 0.125 0.140625q0.046875 0.078125 0.0625 0.234375q0.03125 0.15625 0.03125 0.375q0 0.1875 -0.03125 0.34375q-0.015625 0.140625 -0.0625 0.234375q-0.046875 0.078125 -0.125 0.125q-0.078125 0.03125 -0.15625 0.03125l-4.796875 0l0 5.125l5.671875 0q0.078125 0 0.15625 0.046875q0.078125 0.03125 0.125 0.125q0.0625 0.09375 0.078125 0.25q0.03125 0.15625 0.03125 0.375zm8.703247 -8.796875q0 0.234375 -0.015625 0.40625q-0.015625 0.171875 -0.046875 0.265625q-0.03125 0.09375 -0.078125 0.140625q-0.046875 0.046875 -0.140625 0.046875q-0.09375 0 -0.21875 -0.046875q-0.125 -0.046875 -0.28125 -0.09375q-0.15625 -0.0625 -0.359375 -0.09375q-0.203125 -0.046875 -0.4375 -0.046875q-0.265625 0 -0.53125 0.109375q-0.265625 0.109375 -0.5625 0.359375q-0.296875 0.25 -0.625 0.671875q-0.3125 0.421875 -0.703125 1.03125l0 6.546875q0 0.09375 -0.046875 0.15625q-0.046875 0.0625 -0.140625 0.109375q-0.09375 0.03125 -0.28125 0.046875q-0.171875 0.03125 -0.453125 0.03125q-0.265625 0 -0.4375 -0.03125q-0.171875 -0.015625 -0.28125 -0.046875q-0.109375 -0.046875 -0.15625 -0.109375q-0.03125 -0.0625 -0.03125 -0.15625l0 -9.953125q0 -0.09375 0.03125 -0.140625q0.046875 -0.0625 0.140625 -0.109375q0.09375 -0.0625 0.25 -0.078125q0.15625 -0.015625 0.40625 -0.015625q0.25 0 0.40625 0.015625q0.171875 0.015625 0.25 0.078125q0.09375 0.046875 0.125 0.109375q0.046875 0.046875 0.046875 0.140625l0 1.453125q0.40625 -0.59375 0.765625 -0.96875q0.359375 -0.390625 0.671875 -0.59375q0.328125 -0.21875 0.640625 -0.296875q0.3125 -0.09375 0.640625 -0.09375q0.140625 0 0.328125 0.015625q0.1875 0.015625 0.375 0.0625q0.203125 0.046875 0.359375 0.109375q0.171875 0.046875 0.234375 0.109375q0.0625 0.046875 0.078125 0.109375q0.03125 0.046875 0.046875 0.125q0.015625 0.0625 0.015625 0.21875q0.015625 0.15625 0.015625 0.40625zm7.8986816 0q0 0.234375 -0.015625 0.40625q-0.015625 0.171875 -0.046875 0.265625q-0.03125 0.09375 -0.078125 0.140625q-0.046875 0.046875 -0.140625 0.046875q-0.09375 0 -0.21875 -0.046875q-0.125 -0.046875 -0.28125 -0.09375q-0.15625 -0.0625 -0.359375 -0.09375q-0.203125 -0.046875 -0.4375 -0.046875q-0.265625 0 -0.53125 0.109375q-0.265625 0.109375 -0.5625 0.359375q-0.296875 0.25 -0.625 0.671875q-0.3125 0.421875 -0.703125 1.03125l0 6.546875q0 0.09375 -0.046875 0.15625q-0.046875 0.0625 -0.140625 0.109375q-0.09375 0.03125 -0.28125 0.046875q-0.171875 0.03125 -0.453125 0.03125q-0.265625 0 -0.4375 -0.03125q-0.171875 -0.015625 -0.28125 -0.046875q-0.109375 -0.046875 -0.15625 -0.109375q-0.03125 -0.0625 -0.03125 -0.15625l0 -9.953125q0 -0.09375 0.03125 -0.140625q0.046875 -0.0625 0.140625 -0.109375q0.09375 -0.0625 0.25 -0.078125q0.15625 -0.015625 0.40625 -0.015625q0.25 0 0.40625 0.015625q0.171875 0.015625 0.25 0.078125q0.09375 0.046875 0.125 0.109375q0.046875 0.046875 0.046875 0.140625l0 1.453125q0.40625 -0.59375 0.765625 -0.96875q0.359375 -0.390625 0.671875 -0.59375q0.328125 -0.21875 0.640625 -0.296875q0.3125 -0.09375 0.640625 -0.09375q0.140625 0 0.328125 0.015625q0.1875 0.015625 0.375 0.0625q0.203125 0.046875 0.359375 0.109375q0.171875 0.046875 0.234375 0.109375q0.0625 0.046875 0.078125 0.109375q0.03125 0.046875 0.046875 0.125q0.015625 0.0625 0.015625 0.21875q0.015625 0.15625 0.015625 0.40625zm10.971008 4.21875q0 1.203125 -0.328125 2.234375q-0.3125 1.015625 -0.953125 1.765625q-0.640625 0.734375 -1.59375 1.15625q-0.953125 0.40625 -2.21875 0.40625q-1.21875 0 -2.140625 -0.359375q-0.90625 -0.359375 -1.515625 -1.046875q-0.609375 -0.703125 -0.90625 -1.703125q-0.296875 -1.0 -0.296875 -2.265625q0 -1.21875 0.3125 -2.234375q0.3125 -1.03125 0.9375 -1.765625q0.640625 -0.734375 1.59375 -1.140625q0.953125 -0.421875 2.234375 -0.421875q1.21875 0 2.125 0.375q0.921875 0.359375 1.53125 1.0625q0.609375 0.6875 0.90625 1.6875q0.3125 1.0 0.3125 2.25zm-1.921875 0.109375q0 -0.796875 -0.15625 -1.515625q-0.140625 -0.71875 -0.484375 -1.265625q-0.34375 -0.546875 -0.9375 -0.859375q-0.578125 -0.3125 -1.453125 -0.3125q-0.8125 0 -1.390625 0.296875q-0.578125 0.28125 -0.953125 0.8125q-0.375 0.515625 -0.5625 1.234375q-0.1875 0.71875 -0.1875 1.578125q0 0.8125 0.140625 1.53125q0.15625 0.71875 0.5 1.265625q0.359375 0.53125 0.9375 0.84375q0.59375 0.3125 1.46875 0.3125q0.796875 0 1.375 -0.28125q0.59375 -0.296875 0.96875 -0.8125q0.375 -0.515625 0.546875 -1.234375q0.1875 -0.71875 0.1875 -1.59375zm10.432007 -4.328125q0 0.234375 -0.015625 0.40625q-0.015625 0.171875 -0.046875 0.265625q-0.03125 0.09375 -0.078125 0.140625q-0.046875 0.046875 -0.140625 0.046875q-0.09375 0 -0.21875 -0.046875q-0.125 -0.046875 -0.28125 -0.09375q-0.15625 -0.0625 -0.359375 -0.09375q-0.203125 -0.046875 -0.4375 -0.046875q-0.265625 0 -0.53125 0.109375q-0.265625 0.109375 -0.5625 0.359375q-0.296875 0.25 -0.625 0.671875q-0.3125 0.421875 -0.703125 1.03125l0 6.546875q0 0.09375 -0.046875 0.15625q-0.046875 0.0625 -0.140625 0.109375q-0.09375 0.03125 -0.28125 0.046875q-0.171875 0.03125 -0.453125 0.03125q-0.265625 0 -0.4375 -0.03125q-0.171875 -0.015625 -0.28125 -0.046875q-0.109375 -0.046875 -0.15625 -0.109375q-0.03125 -0.0625 -0.03125 -0.15625l0 -9.953125q0 -0.09375 0.03125 -0.140625q0.046875 -0.0625 0.140625 -0.109375q0.09375 -0.0625 0.25 -0.078125q0.15625 -0.015625 0.40625 -0.015625q0.25 0 0.40625 0.015625q0.171875 0.015625 0.25 0.078125q0.09375 0.046875 0.125 0.109375q0.046875 0.046875 0.046875 0.140625l0 1.453125q0.40625 -0.59375 0.765625 -0.96875q0.359375 -0.390625 0.671875 -0.59375q0.328125 -0.21875 0.640625 -0.296875q0.3125 -0.09375 0.640625 -0.09375q0.140625 0 0.328125 0.015625q0.1875 0.015625 0.375 0.0625q0.203125 0.046875 0.359375 0.109375q0.171875 0.046875 0.234375 0.109375q0.0625 0.046875 0.078125 0.109375q0.03125 0.046875 0.046875 0.125q0.015625 0.0625 0.015625 0.21875q0.015625 0.15625 0.015625 0.40625zm7.9332275 6.59375q0 0.765625 -0.28125 1.359375q-0.28125 0.59375 -0.796875 1.015625q-0.515625 0.40625 -1.234375 0.609375q-0.71875 0.203125 -1.59375 0.203125q-0.53125 0 -1.015625 -0.078125q-0.46875 -0.078125 -0.859375 -0.203125q-0.375 -0.125 -0.640625 -0.265625q-0.265625 -0.140625 -0.390625 -0.25q-0.125 -0.109375 -0.1875 -0.3125q-0.046875 -0.203125 -0.046875 -0.546875q0 -0.203125 0.015625 -0.34375q0.03125 -0.15625 0.0625 -0.234375q0.03125 -0.09375 0.09375 -0.125q0.0625 -0.046875 0.140625 -0.046875q0.125 0 0.359375 0.15625q0.234375 0.140625 0.578125 0.328125q0.359375 0.171875 0.828125 0.328125q0.484375 0.140625 1.109375 0.140625q0.453125 0 0.828125 -0.09375q0.375 -0.109375 0.65625 -0.296875q0.28125 -0.203125 0.421875 -0.5q0.15625 -0.296875 0.15625 -0.703125q0 -0.421875 -0.21875 -0.703125q-0.21875 -0.296875 -0.578125 -0.515625q-0.34375 -0.21875 -0.796875 -0.390625q-0.4375 -0.171875 -0.90625 -0.359375q-0.46875 -0.1875 -0.921875 -0.421875q-0.4375 -0.234375 -0.796875 -0.578125q-0.34375 -0.34375 -0.5625 -0.8125q-0.21875 -0.484375 -0.21875 -1.15625q0 -0.578125 0.21875 -1.109375q0.234375 -0.546875 0.6875 -0.953125q0.453125 -0.40625 1.125 -0.640625q0.6875 -0.25 1.59375 -0.25q0.40625 0 0.796875 0.078125q0.40625 0.0625 0.71875 0.15625q0.328125 0.09375 0.546875 0.21875q0.234375 0.109375 0.34375 0.203125q0.125 0.09375 0.15625 0.15625q0.046875 0.0625 0.0625 0.15625q0.015625 0.078125 0.03125 0.203125q0.015625 0.109375 0.015625 0.296875q0 0.1875 -0.015625 0.328125q-0.015625 0.125 -0.0625 0.21875q-0.03125 0.09375 -0.09375 0.140625q-0.046875 0.03125 -0.125 0.03125q-0.09375 0 -0.28125 -0.125q-0.1875 -0.125 -0.484375 -0.265625q-0.296875 -0.140625 -0.703125 -0.25q-0.40625 -0.125 -0.921875 -0.125q-0.46875 0 -0.828125 0.109375q-0.34375 0.09375 -0.578125 0.296875q-0.21875 0.1875 -0.34375 0.453125q-0.109375 0.265625 -0.109375 0.578125q0 0.4375 0.21875 0.734375q0.21875 0.28125 0.5625 0.5q0.359375 0.21875 0.8125 0.40625q0.453125 0.171875 0.921875 0.359375q0.484375 0.1875 0.9375 0.421875q0.453125 0.234375 0.8125 0.5625q0.359375 0.328125 0.5625 0.796875q0.21875 0.46875 0.21875 1.109375z" fill-rule="nonzero"/></g></svg>