<svg version="1.1" viewBox="0.0 0.0 960.0 540.0" fill="none" stroke="none" stroke-linecap="square" stroke-miterlimit="10" xmlns:xlink="http://www.w3.org/1999/xlink" xmlns="http://www.w3.org/2000/svg"><clipPath id="g1e4950d2a1c_0_43.0"><path d="m0 0l960.0 0l0 540.0l-960.0 0l0 -540.0z" clip-rule="nonzero"/></clipPath><g clip-path="url(#g1e4950d2a1c_0_43.0)"><path fill="#000000" fill-opacity="0.0" d="m0 0l960.0 0l0 540.0l-960.0 0z" fill-rule="evenodd"/><path fill="#3f3f3f" d="m383.27954 225.49213l148.93701 0l0 133.53543l-148.93701 0z" fill-rule="evenodd"/><path fill="#323232" d="m532.21655 225.49213l44.51178 -44.51181l0 133.53543l-44.51178 44.51181z" fill-rule="evenodd"/><path fill="#656565" d="m383.27954 225.49213l44.51181 -44.51181l148.93698 0l-44.51178 44.51181z" fill-rule="evenodd"/><path fill="#000000" fill-opacity="0.0" d="m383.27954 225.49213l44.51181 -44.51181l148.93698 0l0 133.53543l-44.51178 44.51181l-148.93701 0zm0 0l148.93701 0l44.51178 -44.51181m-44.51178 44.51181l0 133.53543" fill-rule="evenodd"/><path stroke="#595959" stroke-width="1.0" stroke-linejoin="round" stroke-linecap="butt" d="m383.27954 225.49213l44.51181 -44.51181l148.93698 0l0 133.53543l-44.51178 44.51181l-148.93701 0zm0 0l148.93701 0l44.51178 -44.51181m-44.51178 44.51181l0 133.53543" fill-rule="evenodd"/><path fill="#ffffff" d="m449.0664 304.86295q0 0.453125 -0.15625 0.8125q-0.15625 0.34375 -0.421875 0.578125q-0.265625 0.234375 -0.625 0.34375q-0.359375 0.109375 -0.734375 0.109375l-2.1875 0q-0.671875 0 -1.171875 -0.140625q-0.5 -0.140625 -0.921875 -0.5q-0.421875 -0.359375 -0.8125 -0.96875q-0.390625 -0.625 -0.875 -1.609375l-6.296875 -11.8125q-0.546875 -1.046875 -1.109375 -2.265625q-0.5625 -1.234375 -1.015625 -2.375l-0.03125 0q0.078125 1.40625 0.109375 2.796875q0.046875 1.390625 0.046875 2.875l0 13.234375q0 0.1875 -0.109375 0.34375q-0.109375 0.15625 -0.375 0.265625q-0.265625 0.109375 -0.71875 0.171875q-0.4375 0.0625 -1.140625 0.0625q-0.6875 0 -1.140625 -0.0625q-0.453125 -0.0625 -0.703125 -0.171875q-0.25 -0.109375 -0.359375 -0.265625q-0.09375 -0.15625 -0.09375 -0.34375l0 -22.71875q0 -0.921875 0.53125 -1.375q0.546875 -0.46875 1.328125 -0.46875l2.75 0q0.75 0 1.25 0.140625q0.515625 0.125 0.90625 0.421875q0.40625 0.28125 0.75 0.796875q0.359375 0.515625 0.734375 1.28125l4.921875 9.234375q0.421875 0.84375 0.84375 1.65625q0.421875 0.8125 0.8125 1.625q0.390625 0.8125 0.765625 1.59375q0.375 0.78125 0.71875 1.5625l0.015625 0q-0.046875 -1.375 -0.078125 -2.859375q-0.03125 -1.484375 -0.03125 -2.828125l0 -11.859375q0 -0.1875 0.109375 -0.34375q0.125 -0.15625 0.390625 -0.265625q0.28125 -0.125 0.71875 -0.171875q0.453125 -0.0625 1.15625 -0.0625q0.671875 0 1.109375 0.0625q0.453125 0.046875 0.703125 0.171875q0.25 0.109375 0.34375 0.265625q0.09375 0.15625 0.09375 0.34375l0 22.71875zm19.394531 -0.359375q0 0.59375 -0.046875 1.0q-0.046875 0.390625 -0.15625 0.65625q-0.09375 0.265625 -0.234375 0.390625q-0.140625 0.109375 -0.34375 0.109375l-11.578125 0q-0.640625 0 -1.09375 -0.375q-0.4375 -0.390625 -0.4375 -1.25l0 -22.953125q0 -0.1875 0.125 -0.34375q0.140625 -0.15625 0.421875 -0.25q0.296875 -0.109375 0.796875 -0.15625q0.5 -0.0625 1.234375 -0.0625q0.765625 0 1.25 0.0625q0.5 0.046875 0.78125 0.15625q0.296875 0.09375 0.421875 0.25q0.125 0.15625 0.125 0.34375l0 20.34375l7.953125 0q0.203125 0 0.34375 0.109375q0.140625 0.09375 0.234375 0.34375q0.109375 0.25 0.15625 0.65625q0.046875 0.390625 0.046875 0.96875zm20.335938 -15.4375q0 2.125 -0.671875 3.765625q-0.65625 1.640625 -1.9375 2.765625q-1.265625 1.125 -3.109375 1.71875q-1.84375 0.578125 -4.34375 0.578125l-2.109375 0l0 8.0625q0 0.1875 -0.125 0.34375q-0.125 0.15625 -0.421875 0.265625q-0.296875 0.09375 -0.78125 0.15625q-0.484375 0.0625 -1.25 0.0625q-0.734375 0 -1.234375 -0.0625q-0.5 -0.0625 -0.796875 -0.15625q-0.296875 -0.109375 -0.421875 -0.265625q-0.109375 -0.15625 -0.109375 -0.34375l0 -22.734375q0 -0.921875 0.484375 -1.375q0.484375 -0.46875 1.265625 -0.46875l5.953125 0q0.890625 0 1.703125 0.078125q0.8125 0.0625 1.9375 0.296875q1.140625 0.21875 2.296875 0.828125q1.171875 0.59375 1.984375 1.53125q0.828125 0.921875 1.25 2.171875q0.4375 1.234375 0.4375 2.78125zm-5.375 0.359375q0 -1.328125 -0.46875 -2.1875q-0.46875 -0.859375 -1.15625 -1.265625q-0.671875 -0.40625 -1.4375 -0.515625q-0.75 -0.109375 -1.546875 -0.109375l-2.1875 0l0 8.578125l2.3125 0q1.21875 0 2.046875 -0.328125q0.84375 -0.34375 1.359375 -0.9375q0.53125 -0.59375 0.796875 -1.421875q0.28125 -0.828125 0.28125 -1.8125z" fill-rule="nonzero"/><path fill="#14914e" d="m294.67462 256.41635l31.873993 0l0 -23.070862l31.874023 46.141724l-31.874023 46.141754l0 -23.070892l-31.873993 0z" fill-rule="evenodd"/><path stroke="#595959" stroke-width="1.0" stroke-linejoin="round" stroke-linecap="butt" d="m294.67462 256.41635l31.873993 0l0 -23.070862l31.874023 46.141724l-31.874023 46.141754l0 -23.070892l-31.873993 0z" fill-rule="evenodd"/><path fill="#990000" d="m596.9239 256.4171l31.874023 0l0 -23.070877l31.873962 46.14174l-31.873962 46.141724l0 -23.070862l-31.874023 0z" fill-rule="evenodd"/><path stroke="#595959" stroke-width="1.0" stroke-linejoin="round" stroke-linecap="butt" d="m596.9239 256.4171l31.874023 0l0 -23.070877l31.873962 46.14174l-31.873962 46.141724l0 -23.070862l-31.874023 0z" fill-rule="evenodd"/><path fill="#000000" fill-opacity="0.0" d="m78.0 239.09055l218.33072 0l0 108.28348l-218.33072 0z" fill-rule="evenodd"/><path fill="#000000" d="m99.5 263.33554l-0.125 0.78125l-12.015625 0l0.1875 -0.78125l11.953125 0zm-9.828125 16.59375q-0.34375 1.265625 0.171875 1.828125q0.53125 0.5625 1.375 0.5625q0.859375 0 1.71875 -0.734375q0.875 -0.734375 1.71875 -3.125l0.546875 -1.515625l0.734375 0l-0.8125 2.4375q-0.84375 2.515625 -2.1875 3.453125q-1.328125 0.921875 -3.109375 0.921875q-1.578125 0 -2.421875 -0.671875q-0.828125 -0.6875 -0.984375 -1.921875q-0.140625 -1.234375 0.3125 -2.828125l6.0 -20.875q0.921875 -0.03125 1.828125 -0.140625q0.90625 -0.125 1.640625 -0.390625l-6.53125 23.0zm11.332245 3.28125l-3.359375 0l7.65625 -25.78125q0.375 -1.3125 -0.109375 -1.9218597q-0.484375 -0.625 -2.375 -0.625l0.234375 -0.8125q2.125 -0.046875 3.828125 -0.453125q1.703125 -0.40625 3.125 -1.140625l-9.0 30.73436zm1.078125 -5.71875q1.46875 -4.0625 2.796875 -6.875q1.34375 -2.828125 2.65625 -4.546875q1.3125 -1.71875 2.703125 -2.484375q1.390625 -0.78125 2.90625 -0.78125q1.8125 0 2.484375 0.875q0.6875 0.859375 0.609375 2.21875q-0.078125 1.34375 -0.546875 2.734375l-3.75 11.296875q-0.3125 1.0 -0.28125 1.703125q0.046875 0.6875 0.90625 0.6875q0.734375 0 1.4375 -0.8125q0.71875 -0.8125 1.53125 -3.125l0.5 -1.4375l0.734375 0l-0.953125 2.828125q-0.546875 1.625 -1.34375 2.484375q-0.796875 0.84375 -1.671875 1.171875q-0.859375 0.328125 -1.671875 0.328125q-1.546875 0 -2.171875 -0.6875q-0.609375 -0.703125 -0.515625 -1.9375q0.09375 -1.25 0.609375 -2.796875l3.671875 -11.046875q0.1875 -0.578125 0.34375 -1.34375q0.15625 -0.78125 -0.0625 -1.34375q-0.203125 -0.5625 -1.140625 -0.5625q-0.96875 0 -2.078125 0.875q-1.09375 0.859375 -2.25 2.484375q-1.15625 1.625 -2.28125 3.90625q-1.125 2.28125 -2.15625 5.09375q-1.015625 2.796875 -1.90625 6.046875l0.890625 -4.953125zm23.938492 -21.1875q0.1875 -0.99998474 1.015625 -1.7343597q0.828125 -0.734375 1.796875 -0.734375q1.015625 0 1.5625 0.734375q0.5625 0.734375 0.375 1.7343597q-0.1875 1.0 -1.03125 1.734375q-0.828125 0.734375 -1.828125 0.734375q-0.96875 0 -1.53125 -0.734375q-0.5625 -0.734375 -0.359375 -1.734375zm-1.203125 10.328125q0.8125 -2.40625 -0.546875 -2.40625q-0.890625 0 -1.59375 0.96875q-0.6875 0.96875 -1.453125 2.984375l-0.546875 1.421875l-0.734375 0l1.0 -2.8125q0.59375 -1.625 1.40625 -2.46875q0.8125 -0.859375 1.71875 -1.1875q0.90625 -0.328125 1.671875 -0.328125q1.234375 0 1.8125 0.5q0.59375 0.5 0.703125 1.3125q0.109375 0.8125 -0.078125 1.765625q-0.1875 0.9375 -0.5 1.828125l-4.140625 11.71875q-0.375 1.109375 -0.25 1.75q0.140625 0.640625 0.875 0.640625q0.765625 0 1.453125 -0.84375q0.703125 -0.859375 1.5625 -3.09375l0.53125 -1.4375l0.734375 0l-1.0 2.828125q-0.546875 1.5 -1.3125 2.375q-0.765625 0.875 -1.65625 1.234375q-0.890625 0.375 -1.78125 0.375q-1.671875 0 -2.25 -0.765625q-0.578125 -0.78125 -0.421875 -2.015625q0.15625 -1.25 0.65625 -2.640625l4.140625 -11.703125zm7.846054 16.0q0.3125 0.15625 0.671875 0.25q0.375 0.09375 1.109375 0.09375q1.703125 0 2.796875 -1.015625q1.109375 -1.03125 1.109375 -2.96875q0 -1.1875 -0.453125 -2.359375q-0.4375 -1.1875 -1.5625 -2.734375q-0.890625 -1.234375 -1.703125 -2.53125q-0.8125 -1.296875 -0.8125 -3.078125q0 -1.65625 0.8125 -2.875q0.8125 -1.21875 2.1875 -1.90625q1.375 -0.703125 3.0 -0.703125q1.109375 0 2.1875 0.265625q1.09375 0.265625 1.796875 0.984375q0.71875 0.71875 0.71875 2.109375q0 0.34375 -0.171875 0.828125q-0.171875 0.484375 -0.5625 0.84375q-0.375 0.34375 -1.03125 0.34375q-0.625 0 -1.09375 -0.4375q-0.453125 -0.453125 -0.453125 -1.1875q0 -0.703125 0.28125 -1.328125q0.296875 -0.640625 0.796875 -1.265625q-0.734375 -0.46875 -1.9375 -0.46875q-1.421875 0 -2.390625 0.96875q-0.96875 0.96875 -0.96875 2.703125q0 0.890625 0.265625 1.578125q0.28125 0.671875 0.796875 1.40625q0.515625 0.734375 1.25 1.859375q0.96875 1.46875 1.625 2.828125q0.65625 1.34375 0.65625 2.84375q0 1.78125 -0.90625 3.15625q-0.90625 1.375 -2.421875 2.15625q-1.5 0.765625 -3.3125 0.765625q-1.3125 0 -2.515625 -0.390625q-1.203125 -0.390625 -1.953125 -1.21875q-0.75 -0.828125 -0.75 -2.21875q0 -0.546875 0.328125 -1.140625q0.328125 -0.609375 1.171875 -0.609375q0.9375 0 1.3125 0.765625q0.390625 0.75 0.390625 1.671875q0 0.625 -0.09375 1.109375q-0.09375 0.484375 -0.171875 0.90625zm36.726807 -19.296875l-0.125 0.78125l-12.015625 0l0.1875 -0.78125l11.953125 0zm-9.828125 16.59375q-0.34375 1.265625 0.171875 1.828125q0.53125 0.5625 1.375 0.5625q0.859375 0 1.71875 -0.734375q0.875 -0.734375 1.71875 -3.125l0.546875 -1.515625l0.734375 0l-0.8125 2.4375q-0.84375 2.515625 -2.1875 3.453125q-1.328125 0.921875 -3.109375 0.921875q-1.578125 0 -2.421875 -0.671875q-0.828125 -0.6875 -0.984375 -1.921875q-0.140625 -1.234375 0.3125 -2.828125l6.0 -20.875q0.921875 -0.03125 1.828125 -0.140625q0.90625 -0.125 1.640625 -0.390625l-6.53125 23.0zm11.56662 -5.5q2.15625 -0.734375 3.90625 -1.4375q1.765625 -0.71875 2.8125 -1.53125q1.390625 -1.125 2.203125 -2.703125q0.8125 -1.59375 0.8125 -3.484375q0 -1.125 -0.15625 -1.421875q-0.15625 -0.3125 -0.453125 -0.3125q-0.96875 0 -2.09375 0.859375q-1.125 0.84375 -2.203125 2.328125q-1.078125 1.484375 -1.984375 3.390625q-0.90625 1.890625 -1.453125 4.03125q-0.546875 2.140625 -0.546875 4.265625q0 1.96875 0.734375 2.84375q0.734375 0.875 1.9375 0.875q1.390625 0 2.9375 -0.84375q1.546875 -0.859375 3.015625 -3.03125l0.625 0.3125q-0.734375 1.28125 -1.9375 2.484375q-1.203125 1.1875 -2.6875 1.953125q-1.484375 0.75 -3.15625 0.75q-1.546875 0 -2.703125 -0.625q-1.15625 -0.625 -1.78125 -1.828125q-0.609375 -1.21875 -0.609375 -3.0q0 -1.671875 0.609375 -3.734375q0.625 -2.0625 1.765625 -4.125q1.140625 -2.078125 2.71875 -3.8125q1.59375 -1.75 3.515625 -2.78125q1.9375 -1.046875 4.140625 -1.046875q1.203125 0 2.03125 0.640625q0.828125 0.625 0.828125 1.90625q0 1.546875 -0.90625 2.890625q-0.90625 1.328125 -2.40625 2.4375q-1.484375 1.09375 -3.21875 1.953125q-1.734375 0.84375 -3.40625 1.46875q-1.65625 0.609375 -2.9375 0.984375l0.046875 -0.65625zm25.786652 5.765625q0.15625 1.0 0.484375 1.390625q0.328125 0.390625 0.828125 0.390625q0.578125 0 1.1875 -0.671875q0.625 -0.6875 1.40625 -2.890625l0.5 -1.421875l0.734375 0l-0.96875 2.8125q-0.546875 1.546875 -1.265625 2.40625q-0.703125 0.84375 -1.5 1.1875q-0.796875 0.359375 -1.640625 0.359375q-1.203125 0 -2.09375 -0.765625q-0.890625 -0.78125 -1.125 -2.796875l-1.546875 -13.84375q-0.140625 -1.0 -0.46875 -1.375q-0.328125 -0.390625 -0.84375 -0.390625q-0.375 0 -0.78125 0.265625q-0.40625 0.265625 -0.84375 1.046875q-0.421875 0.765625 -0.953125 2.234375l-0.515625 1.4375l-0.734375 0l0.96875 -2.828125q0.578125 -1.546875 1.265625 -2.390625q0.703125 -0.859375 1.515625 -1.203125q0.8125 -0.34375 1.625 -0.34375q1.359375 0 2.171875 0.75q0.8125 0.75 1.046875 2.796875l1.546875 13.84375zm3.234375 -15.03125q-1.1875 1.078125 -2.078125 2.515625q-0.890625 1.421875 -1.515625 2.875q-0.609375 1.453125 -1.03125 2.640625q0 0 -0.390625 -0.015625q-0.390625 -0.015625 -0.390625 -0.015625q0.265625 -0.78125 0.609375 -1.71875q0.359375 -0.953125 0.859375 -2.0q0.5 -1.046875 1.21875 -2.140625q0.71875 -1.109375 1.640625 -2.140625q1.125 -1.28125 2.015625 -1.8125q0.890625 -0.546875 1.859375 -0.546875q0.734375 0 1.203125 0.390625q0.484375 0.375 0.484375 1.03125q0 0.734375 -0.5625 1.296875q-0.546875 0.5625 -1.484375 0.5625q-0.84375 0 -1.46875 -0.328125q-0.609375 -0.328125 -0.96875 -0.59375zm-12.5625 16.234375q1.828125 -1.671875 3.21875 -3.90625q1.390625 -2.25 2.125 -4.140625q0 0 0.328125 0.078125q0.328125 0.078125 0.328125 0.078125q-0.390625 1.046875 -1.0 2.328125q-0.59375 1.265625 -1.515625 2.65625q-0.921875 1.390625 -2.28125 2.859375q-1.15625 1.203125 -2.09375 1.8125q-0.921875 0.59375 -1.8125 0.59375q-0.84375 0 -1.28125 -0.390625q-0.453125 -0.390625 -0.453125 -1.046875q0 -0.734375 0.578125 -1.296875q0.578125 -0.5625 1.4375 -0.5625q0.875 0 1.453125 0.3125q0.59375 0.3125 0.96875 0.625zm31.708176 -18.0625l-0.125 0.78125l-12.015625 0l0.1875 -0.78125l11.953125 0zm-9.828125 16.59375q-0.34375 1.265625 0.171875 1.828125q0.53125 0.5625 1.375 0.5625q0.859375 0 1.71875 -0.734375q0.875 -0.734375 1.71875 -3.125l0.546875 -1.515625l0.734375 0l-0.8125 2.4375q-0.84375 2.515625 -2.1875 3.453125q-1.328125 0.921875 -3.109375 0.921875q-1.578125 0 -2.421875 -0.671875q-0.828125 -0.6875 -0.984375 -1.921875q-0.140625 -1.234375 0.3125 -2.828125l6.0 -20.875q0.921875 -0.03125 1.828125 -0.140625q0.90625 -0.125 1.640625 -0.390625l-6.53125 23.0zm25.40915 -23.625q0.1875 -0.99998474 1.015625 -1.7343597q0.828125 -0.734375 1.796875 -0.734375q1.015625 0 1.5625 0.734375q0.5625 0.734375 0.375 1.7343597q-0.1875 1.0 -1.03125 1.734375q-0.828125 0.734375 -1.828125 0.734375q-0.96875 0 -1.53125 -0.734375q-0.5625 -0.734375 -0.359375 -1.734375zm-1.203125 10.328125q0.8125 -2.40625 -0.546875 -2.40625q-0.890625 0 -1.59375 0.96875q-0.6875 0.96875 -1.453125 2.984375l-0.546875 1.421875l-0.734375 0l1.0 -2.8125q0.59375 -1.625 1.40625 -2.46875q0.8125 -0.859375 1.71875 -1.1875q0.90625 -0.328125 1.671875 -0.328125q1.234375 0 1.8125 0.5q0.59375 0.5 0.703125 1.3125q0.109375 0.8125 -0.078125 1.765625q-0.1875 0.9375 -0.5 1.828125l-4.140625 11.71875q-0.375 1.109375 -0.25 1.75q0.140625 0.640625 0.875 0.640625q0.765625 0 1.453125 -0.84375q0.703125 -0.859375 1.5625 -3.09375l0.53125 -1.4375l0.734375 0l-1.0 2.828125q-0.546875 1.5 -1.3125 2.375q-0.765625 0.875 -1.65625 1.234375q-0.890625 0.375 -1.78125 0.375q-1.671875 0 -2.25 -0.765625q-0.578125 -0.78125 -0.421875 -2.015625q0.15625 -1.25 0.65625 -2.640625l4.140625 -11.703125zm7.846054 16.0q0.3125 0.15625 0.671875 0.25q0.375 0.09375 1.109375 0.09375q1.703125 0 2.796875 -1.015625q1.109375 -1.03125 1.109375 -2.96875q0 -1.1875 -0.453125 -2.359375q-0.4375 -1.1875 -1.5625 -2.734375q-0.890625 -1.234375 -1.703125 -2.53125q-0.8125 -1.296875 -0.8125 -3.078125q0 -1.65625 0.8125 -2.875q0.8125 -1.21875 2.1875 -1.90625q1.375 -0.703125 3.0 -0.703125q1.109375 0 2.1875 0.265625q1.09375 0.265625 1.796875 0.984375q0.71875 0.71875 0.71875 2.109375q0 0.34375 -0.171875 0.828125q-0.171875 0.484375 -0.5625 0.84375q-0.375 0.34375 -1.03125 0.34375q-0.625 0 -1.09375 -0.4375q-0.453125 -0.453125 -0.453125 -1.1875q0 -0.703125 0.28125 -1.328125q0.296875 -0.640625 0.796875 -1.265625q-0.734375 -0.46875 -1.9375 -0.46875q-1.421875 0 -2.390625 0.96875q-0.96875 0.96875 -0.96875 2.703125q0 0.890625 0.265625 1.578125q0.28125 0.671875 0.796875 1.40625q0.515625 0.734375 1.25 1.859375q0.96875 1.46875 1.625 2.828125q0.65625 1.34375 0.65625 2.84375q0 1.78125 -0.90625 3.15625q-0.90625 1.375 -2.421875 2.15625q-1.5 0.765625 -3.3125 0.765625q-1.3125 0 -2.515625 -0.390625q-1.203125 -0.390625 -1.953125 -1.21875q-0.75 -0.828125 -0.75 -2.21875q0 -0.546875 0.328125 -1.140625q0.328125 -0.609375 1.171875 -0.609375q0.9375 0 1.3125 0.765625q0.390625 0.75 0.390625 1.671875q0 0.625 -0.09375 1.109375q-0.09375 0.484375 -0.171875 0.90625z" fill-rule="nonzero"/><path fill="#000000" d="m99.5 309.73553l-0.125 0.78125l-12.015625 0l0.1875 -0.78125l11.953125 0zm-9.828125 16.59375q-0.34375 1.265625 0.171875 1.828125q0.53125 0.5625 1.375 0.5625q0.859375 0 1.71875 -0.734375q0.875 -0.734375 1.71875 -3.125l0.546875 -1.515625l0.734375 0l-0.8125 2.4375q-0.84375 2.515625 -2.1875 3.453125q-1.328125 0.921875 -3.109375 0.921875q-1.578125 0 -2.421875 -0.671875q-0.828125 -0.6875 -0.984375 -1.921875q-0.140625 -1.234375 0.3125 -2.828125l6.0 -20.875q0.921875 -0.03125 1.828125 -0.140625q0.90625 -0.125 1.640625 -0.390625l-6.53125 23.0zm11.332245 3.28125l-3.359375 0l7.65625 -25.78125q0.375 -1.3125 -0.109375 -1.921875q-0.484375 -0.625 -2.375 -0.625l0.234375 -0.8125q2.125 -0.046875 3.828125 -0.453125q1.703125 -0.40625 3.125 -1.140625l-9.0 30.734375zm1.078125 -5.71875q1.46875 -4.0625 2.796875 -6.875q1.34375 -2.828125 2.65625 -4.546875q1.3125 -1.71875 2.703125 -2.484375q1.390625 -0.78125 2.90625 -0.78125q1.8125 0 2.484375 0.875q0.6875 0.859375 0.609375 2.21875q-0.078125 1.34375 -0.546875 2.734375l-3.75 11.296875q-0.3125 1.0 -0.28125 1.703125q0.046875 0.6875 0.90625 0.6875q0.734375 0 1.4375 -0.8125q0.71875 -0.8125 1.53125 -3.125l0.5 -1.4375l0.734375 0l-0.953125 2.828125q-0.546875 1.625 -1.34375 2.484375q-0.796875 0.84375 -1.671875 1.171875q-0.859375 0.328125 -1.671875 0.328125q-1.546875 0 -2.171875 -0.6875q-0.609375 -0.703125 -0.515625 -1.9375q0.09375 -1.25 0.609375 -2.796875l3.671875 -11.046875q0.1875 -0.578125 0.34375 -1.34375q0.15625 -0.78125 -0.0625 -1.34375q-0.203125 -0.5625 -1.140625 -0.5625q-0.96875 0 -2.078125 0.875q-1.09375 0.859375 -2.25 2.484375q-1.15625 1.625 -2.28125 3.90625q-1.125 2.28125 -2.15625 5.09375q-1.015625 2.796875 -1.90625 6.046875l0.890625 -4.953125zm19.875992 -3.0625q2.15625 -0.734375 3.90625 -1.4375q1.765625 -0.71875 2.8125 -1.53125q1.390625 -1.125 2.203125 -2.703125q0.8125 -1.59375 0.8125 -3.484375q0 -1.125 -0.15625 -1.421875q-0.15625 -0.3125 -0.453125 -0.3125q-0.96875 0 -2.09375 0.859375q-1.125 0.84375 -2.203125 2.328125q-1.078125 1.484375 -1.984375 3.390625q-0.90625 1.890625 -1.453125 4.03125q-0.546875 2.140625 -0.546875 4.265625q0 1.96875 0.734375 2.84375q0.734375 0.875 1.9375 0.875q1.390625 0 2.9375 -0.84375q1.546875 -0.859375 3.015625 -3.03125l0.625 0.3125q-0.734375 1.28125 -1.9375 2.484375q-1.203125 1.1875 -2.6875 1.953125q-1.484375 0.75 -3.15625 0.75q-1.546875 0 -2.703125 -0.625q-1.15625 -0.625 -1.78125 -1.828125q-0.609375 -1.21875 -0.609375 -3.0q0 -1.671875 0.609375 -3.734375q0.625 -2.0625 1.765625 -4.125q1.140625 -2.078125 2.71875 -3.8125q1.59375 -1.75 3.515625 -2.78125q1.9375 -1.046875 4.140625 -1.046875q1.203125 0 2.03125 0.640625q0.828125 0.625 0.828125 1.90625q0 1.546875 -0.90625 2.890625q-0.90625 1.328125 -2.40625 2.4375q-1.484375 1.09375 -3.21875 1.953125q-1.734375 0.84375 -3.40625 1.46875q-1.65625 0.609375 -2.9375 0.984375l0.046875 -0.65625zm30.426056 -18.125q0.1875 -1.0 1.015625 -1.734375q0.828125 -0.734375 1.796875 -0.734375q1.015625 0 1.5625 0.734375q0.5625 0.734375 0.375 1.734375q-0.1875 1.0 -1.03125 1.734375q-0.828125 0.734375 -1.828125 0.734375q-0.96875 0 -1.53125 -0.734375q-0.5625 -0.734375 -0.359375 -1.734375zm-1.203125 10.328125q0.8125 -2.40625 -0.546875 -2.40625q-0.890625 0 -1.59375 0.96875q-0.6875 0.96875 -1.453125 2.984375l-0.546875 1.421875l-0.734375 0l1.0 -2.8125q0.59375 -1.625 1.40625 -2.46875q0.8125 -0.859375 1.71875 -1.1875q0.90625 -0.328125 1.671875 -0.328125q1.234375 0 1.8125 0.5q0.59375 0.5 0.703125 1.3125q0.109375 0.8125 -0.078125 1.765625q-0.1875 0.9375 -0.5 1.828125l-4.140625 11.71875q-0.375 1.109375 -0.25 1.75q0.140625 0.640625 0.875 0.640625q0.765625 0 1.453125 -0.84375q0.703125 -0.859375 1.5625 -3.09375l0.53125 -1.4375l0.734375 0l-1.0 2.828125q-0.546875 1.5 -1.3125 2.375q-0.765625 0.875 -1.65625 1.234375q-0.890625 0.375 -1.78125 0.375q-1.671875 0 -2.25 -0.765625q-0.578125 -0.78125 -0.421875 -2.015625q0.15625 -1.25 0.65625 -2.640625l4.140625 -11.703125zm10.283554 16.578125l-3.359375 0l4.625 -16.578125q0.15625 -0.46875 0.25 -1.03125q0.109375 -0.5625 -0.046875 -0.96875q-0.15625 -0.40625 -0.78125 -0.40625q-0.84375 0 -1.5 0.84375q-0.65625 0.828125 -1.46875 3.109375l-0.5 1.421875l-0.734375 0l0.96875 -2.8125q0.84375 -2.4375 2.09375 -3.203125q1.265625 -0.78125 2.5 -0.78125q1.15625 0 1.671875 0.5q0.53125 0.5 0.578125 1.296875q0.0625 0.78125 -0.109375 1.734375q-0.171875 0.953125 -0.40625 1.875l-3.78125 15.0zm1.78125 -8.046875q1.34375 -3.46875 2.625 -5.828125q1.28125 -2.359375 2.515625 -3.8125q1.234375 -1.453125 2.53125 -2.078125q1.296875 -0.640625 2.6875 -0.640625q1.8125 0 2.484375 0.875q0.6875 0.859375 0.609375 2.203125q-0.078125 1.328125 -0.546875 2.75l-3.75 11.296875q-0.34375 1.046875 -0.296875 1.71875q0.0625 0.671875 0.921875 0.671875q0.734375 0 1.4375 -0.8125q0.71875 -0.8125 1.53125 -3.125l0.5 -1.4375l0.734375 0l-0.96875 2.828125q-0.53125 1.625 -1.328125 2.484375q-0.796875 0.84375 -1.671875 1.171875q-0.859375 0.328125 -1.671875 0.328125q-0.921875 0 -1.53125 -0.3125q-0.59375 -0.3125 -0.90625 -0.8125q-0.421875 -0.703125 -0.265625 -1.8125q0.15625 -1.125 0.609375 -2.484375l3.671875 -11.046875q0.203125 -0.546875 0.328125 -1.296875q0.140625 -0.75 -0.0625 -1.34375q-0.1875 -0.609375 -1.109375 -0.609375q-0.921875 0 -1.96875 0.8125q-1.046875 0.8125 -2.171875 2.296875q-1.109375 1.484375 -2.203125 3.5625q-1.078125 2.0625 -2.0625 4.5625q-0.984375 2.484375 -1.796875 5.3125l1.125 -5.421875zm30.608124 -11.125q-1.0 0 -2.265625 1.40625q-1.25 1.40625 -2.546875 3.828125q-1.296875 2.421875 -2.4375 5.4375q-1.140625 3.015625 -1.90625 6.265625l0.6875 -4.1875q1.671875 -5.0625 3.21875 -8.125q1.546875 -3.078125 3.109375 -4.46875q1.5625 -1.390625 3.265625 -1.390625q1.8125 0 2.90625 1.359375q1.109375 1.34375 1.109375 4.09375q0 1.734375 -0.484375 3.828125q-0.484375 2.078125 -1.4375 4.125q-0.9375 2.046875 -2.3125 3.78125q-1.375 1.71875 -3.15625 2.75q-1.765625 1.015625 -3.9375 1.015625q-1.15625 0 -2.0625 -0.6875q-0.90625 -0.703125 -1.21875 -2.03125l0.3125 -0.765625q0.53125 1.4375 1.25 2.015625q0.71875 0.578125 1.6875 0.578125q1.3125 0 2.5 -1.015625q1.203125 -1.03125 2.203125 -2.734375q1.015625 -1.703125 1.765625 -3.765625q0.75 -2.078125 1.15625 -4.140625q0.40625 -2.078125 0.40625 -3.8125q0 -1.703125 -0.484375 -2.53125q-0.46875 -0.828125 -1.328125 -0.828125zm-5.796875 -6.609375q0.921875 -0.046875 1.828125 -0.15625q0.921875 -0.109375 1.6875 -0.390625l-8.5 29.734375q-0.46875 1.625 0.453125 2.203125q0.9375 0.578125 2.671875 0.578125l-0.234375 0.8125q-0.765625 -0.046875 -2.1875 -0.109375q-1.40625 -0.046875 -2.984375 -0.046875q-1.203125 0 -2.4375 0.046875q-1.234375 0.0625 -1.859375 0.109375l0.234375 -0.8125q1.390625 0 2.015625 -0.53125q0.609375 -0.515625 1.0 -1.875l8.3125 -29.5625zm-8.046875 11.984375q1.515625 -1.46875 2.828125 -2.921875q1.3125 -1.453125 2.546875 -3.453125q1.234375 -2.015625 2.515625 -5.078125l0.125 0.625q-0.859375 2.625 -2.046875 4.625q-1.171875 1.984375 -2.5625 3.59375q-1.390625 1.59375 -2.96875 3.109375l-0.4375 -0.5zm35.79959 0.421875q-1.390625 3.859375 -2.671875 6.53125q-1.265625 2.671875 -2.53125 4.296875q-1.25 1.625 -2.546875 2.359375q-1.296875 0.734375 -2.6875 0.734375q-1.703125 0 -2.484375 -0.765625q-0.765625 -0.78125 -0.765625 -2.09375q0 -1.328125 0.546875 -2.984375l3.75 -11.28125q0.390625 -1.171875 0.265625 -1.78125q-0.109375 -0.625 -0.890625 -0.625q-0.734375 0 -1.453125 0.8125q-0.703125 0.8125 -1.515625 3.140625l-0.5 1.421875l-0.734375 0l0.96875 -2.8125q0.578125 -1.625 1.359375 -2.46875q0.796875 -0.859375 1.65625 -1.1875q0.875 -0.328125 1.65625 -0.328125q1.703125 0 2.265625 0.796875q0.5625 0.78125 0.421875 2.015625q-0.140625 1.234375 -0.59375 2.59375l-3.671875 11.0625q-1.09375 3.234375 0.84375 3.234375q0.921875 0 1.96875 -0.828125q1.046875 -0.828125 2.125 -2.390625q1.078125 -1.5625 2.140625 -3.75q1.078125 -2.1875 2.0625 -4.875q0.984375 -2.6875 1.796875 -5.78125l-0.78125 4.953125zm-0.109375 10.09375q-0.28125 1.046875 -0.265625 1.71875q0.03125 0.671875 0.796875 0.671875q0.859375 0 1.5625 -0.90625q0.71875 -0.90625 1.453125 -3.03125l0.515625 -1.4375l0.734375 0l-0.96875 2.828125q-0.546875 1.625 -1.34375 2.484375q-0.78125 0.84375 -1.65625 1.171875q-0.875 0.328125 -1.6875 0.328125q-0.609375 0 -1.15625 -0.28125q-0.546875 -0.265625 -0.8125 -0.765625q-0.3125 -0.65625 -0.21875 -1.65625q0.109375 -1.015625 0.53125 -2.71875l3.78125 -15.0q0.96875 -0.03125 1.875 -0.140625q0.921875 -0.125 1.65625 -0.390625l-4.796875 17.125zm21.183716 -16.59375l-0.125 0.78125l-12.015625 0l0.1875 -0.78125l11.953125 0zm-9.828125 16.59375q-0.34375 1.265625 0.171875 1.828125q0.53125 0.5625 1.375 0.5625q0.859375 0 1.71875 -0.734375q0.875 -0.734375 1.71875 -3.125l0.546875 -1.515625l0.734375 0l-0.8125 2.4375q-0.84375 2.515625 -2.1875 3.453125q-1.328125 0.921875 -3.109375 0.921875q-1.578125 0 -2.421875 -0.671875q-0.828125 -0.6875 -0.984375 -1.921875q-0.140625 -1.234375 0.3125 -2.828125l6.0 -20.875q0.921875 -0.03125 1.828125 -0.140625q0.90625 -0.125 1.640625 -0.390625l-6.53125 23.0z" fill-rule="nonzero"/><path fill="#000000" fill-opacity="0.0" d="m636.77167 325.6378l308.5039 0l0 46.86615l-308.5039 0z" fill-rule="evenodd"/><path fill="#000000" d="m687.5484 344.53467l-0.078125 0.53125l-8.296875 0l0.140625 -0.53125l8.234375 0zm-6.78125 11.4375q-0.234375 0.875 0.125 1.265625q0.359375 0.390625 0.953125 0.390625q0.578125 0 1.171875 -0.5q0.609375 -0.515625 1.1875 -2.171875l0.375 -1.03125l0.515625 0l-0.5625 1.671875q-0.59375 1.734375 -1.515625 2.375q-0.90625 0.640625 -2.140625 0.640625q-1.09375 0 -1.671875 -0.46875q-0.5625 -0.46875 -0.671875 -1.3125q-0.109375 -0.859375 0.21875 -1.953125l4.125 -14.390625q0.640625 -0.03125 1.265625 -0.109375q0.625 -0.078125 1.140625 -0.265625l-4.515625 15.859375zm7.815857 2.265625l-2.3125 0l5.265625 -17.78125q0.265625 -0.90625 -0.0625 -1.328125q-0.328125 -0.421875 -1.640625 -0.421875l0.15625 -0.5625q1.46875 -0.03125 2.640625 -0.3125q1.171875 -0.28125 2.171875 -0.78125l-6.21875 21.1875zm0.75 -3.9375q1.015625 -2.8125 1.921875 -4.75q0.921875 -1.953125 1.828125 -3.140625q0.90625 -1.1875 1.859375 -1.71875q0.96875 -0.53125 2.015625 -0.53125q1.25 0 1.71875 0.609375q0.46875 0.59375 0.40625 1.53125q-0.046875 0.921875 -0.375 1.890625l-2.578125 7.78125q-0.21875 0.6875 -0.1875 1.171875q0.03125 0.484375 0.609375 0.484375q0.515625 0 1.0 -0.5625q0.5 -0.5625 1.0625 -2.15625l0.34375 -0.984375l0.5 0l-0.671875 1.9375q-0.359375 1.125 -0.90625 1.71875q-0.546875 0.578125 -1.15625 0.796875q-0.59375 0.234375 -1.15625 0.234375q-1.0625 0 -1.5 -0.484375q-0.421875 -0.484375 -0.359375 -1.328125q0.078125 -0.859375 0.421875 -1.921875l2.53125 -7.625q0.140625 -0.390625 0.234375 -0.921875q0.109375 -0.546875 -0.046875 -0.921875q-0.140625 -0.390625 -0.78125 -0.390625q-0.65625 0 -1.421875 0.609375q-0.75 0.59375 -1.5625 1.71875q-0.796875 1.109375 -1.578125 2.6875q-0.765625 1.5625 -1.46875 3.5q-0.703125 1.9375 -1.3125 4.171875l0.609375 -3.40625zm16.490784 -14.609375q0.140625 -0.703125 0.703125 -1.203125q0.578125 -0.515625 1.25 -0.515625q0.6875 0 1.078125 0.515625q0.390625 0.5 0.25 1.203125q-0.125 0.6875 -0.703125 1.203125q-0.578125 0.5 -1.265625 0.5q-0.671875 0 -1.0625 -0.5q-0.375 -0.515625 -0.25 -1.203125zm-0.8125 7.109375q0.546875 -1.65625 -0.375 -1.65625q-0.625 0 -1.109375 0.671875q-0.46875 0.671875 -1.0 2.046875l-0.375 0.984375l-0.5 0l0.6875 -1.9375q0.40625 -1.125 0.953125 -1.703125q0.5625 -0.59375 1.1875 -0.8125q0.625 -0.234375 1.15625 -0.234375q0.859375 0 1.25 0.359375q0.40625 0.34375 0.484375 0.90625q0.078125 0.546875 -0.0625 1.203125q-0.125 0.65625 -0.328125 1.265625l-2.859375 8.078125q-0.265625 0.765625 -0.171875 1.21875q0.09375 0.4375 0.609375 0.4375q0.53125 0 1.0 -0.578125q0.484375 -0.59375 1.078125 -2.140625l0.359375 -0.984375l0.515625 0l-0.6875 1.9375q-0.375 1.046875 -0.921875 1.640625q-0.53125 0.59375 -1.140625 0.84375q-0.609375 0.265625 -1.21875 0.265625q-1.15625 0 -1.5625 -0.53125q-0.390625 -0.53125 -0.28125 -1.390625q0.109375 -0.859375 0.453125 -1.8125l2.859375 -8.078125zm5.409546 11.03125q0.203125 0.109375 0.453125 0.1875q0.265625 0.0625 0.765625 0.0625q1.171875 0 1.921875 -0.703125q0.765625 -0.71875 0.765625 -2.046875q0 -0.828125 -0.3125 -1.640625q-0.296875 -0.8125 -1.0625 -1.875q-0.625 -0.859375 -1.1875 -1.75q-0.546875 -0.890625 -0.546875 -2.125q0 -1.140625 0.546875 -1.96875q0.5625 -0.84375 1.515625 -1.328125q0.953125 -0.484375 2.0625 -0.484375q0.78125 0 1.515625 0.1875q0.75 0.1875 1.234375 0.6875q0.5 0.484375 0.5 1.453125q0 0.234375 -0.125 0.578125q-0.109375 0.328125 -0.375 0.5625q-0.265625 0.234375 -0.71875 0.234375q-0.421875 0 -0.75 -0.296875q-0.3125 -0.3125 -0.3125 -0.8125q0 -0.484375 0.1875 -0.921875q0.203125 -0.4375 0.546875 -0.875q-0.5 -0.3125 -1.328125 -0.3125q-0.984375 0 -1.65625 0.671875q-0.65625 0.65625 -0.65625 1.859375q0 0.609375 0.1875 1.078125q0.1875 0.46875 0.546875 0.984375q0.359375 0.5 0.859375 1.265625q0.671875 1.015625 1.125 1.953125q0.453125 0.9375 0.453125 1.96875q0 1.234375 -0.625 2.1875q-0.625 0.9375 -1.671875 1.46875q-1.046875 0.53125 -2.296875 0.53125q-0.90625 0 -1.734375 -0.265625q-0.8125 -0.265625 -1.34375 -0.84375q-0.515625 -0.578125 -0.515625 -1.53125q0 -0.375 0.234375 -0.78125q0.21875 -0.421875 0.8125 -0.421875q0.625 0 0.890625 0.53125q0.28125 0.515625 0.28125 1.15625q0 0.421875 -0.078125 0.765625q-0.0625 0.328125 -0.109375 0.609375zm25.3219 -13.296875l-0.078125 0.53125l-8.296875 0l0.140625 -0.53125l8.234375 0zm-6.78125 11.4375q-0.234375 0.875 0.125 1.265625q0.359375 0.390625 0.953125 0.390625q0.578125 0 1.171875 -0.5q0.609375 -0.515625 1.1875 -2.171875l0.375 -1.03125l0.515625 0l-0.5625 1.671875q-0.59375 1.734375 -1.515625 2.375q-0.90625 0.640625 -2.140625 0.640625q-1.09375 0 -1.671875 -0.46875q-0.5625 -0.46875 -0.671875 -1.3125q-0.109375 -0.859375 0.21875 -1.953125l4.125 -14.390625q0.640625 -0.03125 1.265625 -0.109375q0.625 -0.078125 1.140625 -0.265625l-4.515625 15.859375zm7.972046 -3.78125q1.5 -0.515625 2.703125 -1.0q1.21875 -0.5 1.9375 -1.0625q0.96875 -0.765625 1.515625 -1.859375q0.5625 -1.09375 0.5625 -2.40625q0 -0.765625 -0.109375 -0.96875q-0.09375 -0.21875 -0.3125 -0.21875q-0.671875 0 -1.453125 0.59375q-0.765625 0.578125 -1.515625 1.609375q-0.734375 1.015625 -1.359375 2.328125q-0.625 1.296875 -1.0 2.78125q-0.375 1.484375 -0.375 2.9375q0 1.359375 0.5 1.96875q0.515625 0.59375 1.34375 0.59375q0.953125 0 2.015625 -0.578125q1.0625 -0.59375 2.078125 -2.078125l0.4375 0.203125q-0.515625 0.890625 -1.34375 1.71875q-0.828125 0.8125 -1.859375 1.34375q-1.015625 0.515625 -2.15625 0.515625q-1.078125 0 -1.875 -0.421875q-0.796875 -0.4375 -1.234375 -1.265625q-0.421875 -0.84375 -0.421875 -2.078125q0 -1.140625 0.421875 -2.5625q0.4375 -1.4375 1.21875 -2.859375q0.796875 -1.421875 1.890625 -2.625q1.09375 -1.203125 2.421875 -1.921875q1.328125 -0.71875 2.84375 -0.71875q0.828125 0 1.40625 0.453125q0.578125 0.4375 0.578125 1.3125q0 1.0625 -0.625 1.984375q-0.625 0.921875 -1.65625 1.6875q-1.03125 0.75 -2.234375 1.34375q-1.1875 0.578125 -2.34375 1.015625q-1.140625 0.421875 -2.015625 0.6875l0.015625 -0.453125zm17.779236 3.96875q0.109375 0.6875 0.328125 0.953125q0.234375 0.265625 0.578125 0.265625q0.40625 0 0.828125 -0.453125q0.4375 -0.46875 0.96875 -2.0l0.34375 -0.984375l0.5 0l-0.65625 1.953125q-0.375 1.0625 -0.875 1.65625q-0.484375 0.578125 -1.03125 0.8125q-0.546875 0.25 -1.140625 0.25q-0.828125 0 -1.4375 -0.53125q-0.609375 -0.53125 -0.78125 -1.921875l-1.0625 -9.546875q-0.109375 -0.6875 -0.34375 -0.953125q-0.21875 -0.265625 -0.5625 -0.265625q-0.265625 0 -0.546875 0.1875q-0.28125 0.1875 -0.578125 0.71875q-0.28125 0.53125 -0.65625 1.546875l-0.34375 0.984375l-0.515625 0l0.671875 -1.953125q0.40625 -1.0625 0.875 -1.640625q0.484375 -0.59375 1.046875 -0.828125q0.5625 -0.25 1.109375 -0.25q0.9375 0 1.5 0.53125q0.5625 0.515625 0.71875 1.921875l1.0625 9.546875zm2.25 -10.375q-0.828125 0.75 -1.453125 1.734375q-0.609375 0.984375 -1.03125 1.984375q-0.421875 1.0 -0.71875 1.828125q0 0 -0.265625 -0.015625q-0.265625 -0.015625 -0.265625 -0.015625q0.1875 -0.53125 0.421875 -1.171875q0.234375 -0.65625 0.578125 -1.375q0.359375 -0.71875 0.84375 -1.484375q0.5 -0.765625 1.140625 -1.484375q0.765625 -0.875 1.375 -1.25q0.625 -0.375 1.28125 -0.375q0.515625 0 0.84375 0.265625q0.34375 0.265625 0.34375 0.71875q0 0.515625 -0.390625 0.90625q-0.390625 0.375 -1.03125 0.375q-0.578125 0 -1.015625 -0.21875q-0.421875 -0.234375 -0.65625 -0.421875zm-8.671875 11.203125q1.25 -1.15625 2.203125 -2.6875q0.96875 -1.546875 1.484375 -2.859375q0 0 0.21875 0.0625q0.234375 0.046875 0.234375 0.046875q-0.265625 0.71875 -0.6875 1.59375q-0.40625 0.875 -1.046875 1.84375q-0.640625 0.953125 -1.578125 1.96875q-0.796875 0.828125 -1.4375 1.25q-0.640625 0.40625 -1.25 0.40625q-0.59375 0 -0.890625 -0.265625q-0.3125 -0.265625 -0.3125 -0.71875q0 -0.515625 0.40625 -0.890625q0.390625 -0.390625 0.984375 -0.390625q0.609375 0 1.0 0.21875q0.40625 0.203125 0.671875 0.421875zm21.86493 -12.453125l-0.078125 0.53125l-8.296875 0l0.140625 -0.53125l8.234375 0zm-6.78125 11.4375q-0.234375 0.875 0.125 1.265625q0.359375 0.390625 0.953125 0.390625q0.578125 0 1.171875 -0.5q0.609375 -0.515625 1.1875 -2.171875l0.375 -1.03125l0.515625 0l-0.5625 1.671875q-0.59375 1.734375 -1.515625 2.375q-0.90625 0.640625 -2.140625 0.640625q-1.09375 0 -1.671875 -0.46875q-0.5625 -0.46875 -0.671875 -1.3125q-0.109375 -0.859375 0.21875 -1.953125l4.125 -14.390625q0.640625 -0.03125 1.265625 -0.109375q0.625 -0.078125 1.140625 -0.265625l-4.515625 15.859375zm17.51294 -16.28125q0.140625 -0.703125 0.703125 -1.203125q0.578125 -0.515625 1.25 -0.515625q0.6875 0 1.078125 0.515625q0.390625 0.5 0.25 1.203125q-0.125 0.6875 -0.703125 1.203125q-0.578125 0.5 -1.265625 0.5q-0.671875 0 -1.0625 -0.5q-0.375 -0.515625 -0.25 -1.203125zm-0.8125 7.109375q0.546875 -1.65625 -0.375 -1.65625q-0.625 0 -1.109375 0.671875q-0.46875 0.671875 -1.0 2.046875l-0.375 0.984375l-0.5 0l0.6875 -1.9375q0.40625 -1.125 0.953125 -1.703125q0.5625 -0.59375 1.1875 -0.8125q0.625 -0.234375 1.15625 -0.234375q0.859375 0 1.25 0.359375q0.40625 0.34375 0.484375 0.90625q0.078125 0.546875 -0.0625 1.203125q-0.125 0.65625 -0.328125 1.265625l-2.859375 8.078125q-0.265625 0.765625 -0.171875 1.21875q0.09375 0.4375 0.609375 0.4375q0.53125 0 1.0 -0.578125q0.484375 -0.59375 1.078125 -2.140625l0.359375 -0.984375l0.515625 0l-0.6875 1.9375q-0.375 1.046875 -0.921875 1.640625q-0.53125 0.59375 -1.140625 0.84375q-0.609375 0.265625 -1.21875 0.265625q-1.15625 0 -1.5625 -0.53125q-0.390625 -0.53125 -0.28125 -1.390625q0.109375 -0.859375 0.453125 -1.8125l2.859375 -8.078125zm5.409546 11.03125q0.203125 0.109375 0.453125 0.1875q0.265625 0.0625 0.765625 0.0625q1.171875 0 1.921875 -0.703125q0.765625 -0.71875 0.765625 -2.046875q0 -0.828125 -0.3125 -1.640625q-0.296875 -0.8125 -1.0625 -1.875q-0.625 -0.859375 -1.1875 -1.75q-0.546875 -0.890625 -0.546875 -2.125q0 -1.140625 0.546875 -1.96875q0.5625 -0.84375 1.515625 -1.328125q0.953125 -0.484375 2.0625 -0.484375q0.78125 0 1.515625 0.1875q0.75 0.1875 1.234375 0.6875q0.5 0.484375 0.5 1.453125q0 0.234375 -0.125 0.578125q-0.109375 0.328125 -0.375 0.5625q-0.265625 0.234375 -0.71875 0.234375q-0.421875 0 -0.75 -0.296875q-0.3125 -0.3125 -0.3125 -0.8125q0 -0.484375 0.1875 -0.921875q0.203125 -0.4375 0.546875 -0.875q-0.5 -0.3125 -1.328125 -0.3125q-0.984375 0 -1.65625 0.671875q-0.65625 0.65625 -0.65625 1.859375q0 0.609375 0.1875 1.078125q0.1875 0.46875 0.546875 0.984375q0.359375 0.5 0.859375 1.265625q0.671875 1.015625 1.125 1.953125q0.453125 0.9375 0.453125 1.96875q0 1.234375 -0.625 2.1875q-0.625 0.9375 -1.671875 1.46875q-1.046875 0.53125 -2.296875 0.53125q-0.90625 0 -1.734375 -0.265625q-0.8125 -0.265625 -1.34375 -0.84375q-0.515625 -0.578125 -0.515625 -1.53125q0 -0.375 0.234375 -0.78125q0.21875 -0.421875 0.8125 -0.421875q0.625 0 0.890625 0.53125q0.28125 0.515625 0.28125 1.15625q0 0.421875 -0.078125 0.765625q-0.0625 0.328125 -0.109375 0.609375zm25.321838 -13.296875l-0.078125 0.53125l-8.296875 0l0.140625 -0.53125l8.234375 0zm-6.78125 11.4375q-0.234375 0.875 0.125 1.265625q0.359375 0.390625 0.953125 0.390625q0.578125 0 1.171875 -0.5q0.609375 -0.515625 1.1875 -2.171875l0.375 -1.03125l0.515625 0l-0.5625 1.671875q-0.59375 1.734375 -1.515625 2.375q-0.90625 0.640625 -2.140625 0.640625q-1.09375 0 -1.671875 -0.46875q-0.5625 -0.46875 -0.671875 -1.3125q-0.109375 -0.859375 0.21875 -1.953125l4.125 -14.390625q0.640625 -0.03125 1.265625 -0.109375q0.625 -0.078125 1.140625 -0.265625l-4.515625 15.859375zm7.815857 2.265625l-2.3125 0l5.265625 -17.78125q0.265625 -0.90625 -0.0625 -1.328125q-0.328125 -0.421875 -1.640625 -0.421875l0.15625 -0.5625q1.46875 -0.03125 2.640625 -0.3125q1.171875 -0.28125 2.171875 -0.78125l-6.21875 21.1875zm0.75 -3.9375q1.015625 -2.8125 1.921875 -4.75q0.921875 -1.953125 1.828125 -3.140625q0.90625 -1.1875 1.859375 -1.71875q0.96875 -0.53125 2.015625 -0.53125q1.25 0 1.71875 0.609375q0.46875 0.59375 0.40625 1.53125q-0.046875 0.921875 -0.375 1.890625l-2.578125 7.78125q-0.21875 0.6875 -0.1875 1.171875q0.03125 0.484375 0.609375 0.484375q0.515625 0 1.0 -0.5625q0.5 -0.5625 1.0625 -2.15625l0.34375 -0.984375l0.5 0l-0.671875 1.9375q-0.359375 1.125 -0.90625 1.71875q-0.546875 0.578125 -1.15625 0.796875q-0.59375 0.234375 -1.15625 0.234375q-1.0625 0 -1.5 -0.484375q-0.421875 -0.484375 -0.359375 -1.328125q0.078125 -0.859375 0.421875 -1.921875l2.53125 -7.625q0.140625 -0.390625 0.234375 -0.921875q0.109375 -0.546875 -0.046875 -0.921875q-0.140625 -0.390625 -0.78125 -0.390625q-0.65625 0 -1.421875 0.609375q-0.75 0.59375 -1.5625 1.71875q-0.796875 1.109375 -1.578125 2.6875q-0.765625 1.5625 -1.46875 3.5q-0.703125 1.9375 -1.3125 4.171875l0.609375 -3.40625zm13.69397 -2.109375q1.5 -0.515625 2.703125 -1.0q1.21875 -0.5 1.9375 -1.0625q0.96875 -0.765625 1.515625 -1.859375q0.5625 -1.09375 0.5625 -2.40625q0 -0.765625 -0.109375 -0.96875q-0.09375 -0.21875 -0.3125 -0.21875q-0.671875 0 -1.453125 0.59375q-0.765625 0.578125 -1.515625 1.609375q-0.734375 1.015625 -1.359375 2.328125q-0.625 1.296875 -1.0 2.78125q-0.375 1.484375 -0.375 2.9375q0 1.359375 0.5 1.96875q0.515625 0.59375 1.34375 0.59375q0.953125 0 2.015625 -0.578125q1.0625 -0.59375 2.078125 -2.078125l0.4375 0.203125q-0.515625 0.890625 -1.34375 1.71875q-0.828125 0.8125 -1.859375 1.34375q-1.015625 0.515625 -2.15625 0.515625q-1.078125 0 -1.875 -0.421875q-0.796875 -0.4375 -1.234375 -1.265625q-0.421875 -0.84375 -0.421875 -2.078125q0 -1.140625 0.421875 -2.5625q0.4375 -1.4375 1.21875 -2.859375q0.796875 -1.421875 1.890625 -2.625q1.09375 -1.203125 2.421875 -1.921875q1.328125 -0.71875 2.84375 -0.71875q0.828125 0 1.40625 0.453125q0.578125 0.4375 0.578125 1.3125q0 1.0625 -0.625 1.984375q-0.625 0.921875 -1.65625 1.6875q-1.03125 0.75 -2.234375 1.34375q-1.1875 0.578125 -2.34375 1.015625q-1.140625 0.421875 -2.015625 0.6875l0.015625 -0.453125zm20.97638 -12.5q0.140625 -0.703125 0.703125 -1.203125q0.578125 -0.515625 1.25 -0.515625q0.6875 0 1.078125 0.515625q0.390625 0.5 0.25 1.203125q-0.125 0.6875 -0.703125 1.203125q-0.578125 0.5 -1.265625 0.5q-0.671875 0 -1.0625 -0.5q-0.375 -0.515625 -0.25 -1.203125zm-0.8125 7.109375q0.546875 -1.65625 -0.375 -1.65625q-0.625 0 -1.109375 0.671875q-0.46875 0.671875 -1.0 2.046875l-0.375 0.984375l-0.5 0l0.6875 -1.9375q0.40625 -1.125 0.953125 -1.703125q0.5625 -0.59375 1.1875 -0.8125q0.625 -0.234375 1.15625 -0.234375q0.859375 0 1.25 0.359375q0.40625 0.34375 0.484375 0.90625q0.078125 0.546875 -0.0625 1.203125q-0.125 0.65625 -0.328125 1.265625l-2.859375 8.078125q-0.265625 0.765625 -0.171875 1.21875q0.09375 0.4375 0.609375 0.4375q0.53125 0 1.0 -0.578125q0.484375 -0.59375 1.078125 -2.140625l0.359375 -0.984375l0.515625 0l-0.6875 1.9375q-0.375 1.046875 -0.921875 1.640625q-0.53125 0.59375 -1.140625 0.84375q-0.609375 0.265625 -1.21875 0.265625q-1.15625 0 -1.5625 -0.53125q-0.390625 -0.53125 -0.28125 -1.390625q0.109375 -0.859375 0.453125 -1.8125l2.859375 -8.078125zm7.08136 11.4375l-2.3125 0l3.1875 -11.4375q0.109375 -0.3125 0.171875 -0.703125q0.078125 -0.390625 -0.03125 -0.671875q-0.109375 -0.28125 -0.53125 -0.28125q-0.59375 0 -1.046875 0.578125q-0.453125 0.578125 -1.015625 2.140625l-0.34375 0.984375l-0.5 0l0.671875 -1.9375q0.578125 -1.6875 1.4375 -2.21875q0.875 -0.53125 1.734375 -0.53125q0.796875 0 1.15625 0.359375q0.359375 0.34375 0.390625 0.890625q0.046875 0.546875 -0.078125 1.203125q-0.109375 0.640625 -0.28125 1.28125l-2.609375 10.34375zm1.234375 -5.546875q0.921875 -2.390625 1.796875 -4.015625q0.890625 -1.640625 1.734375 -2.625q0.859375 -1.0 1.75 -1.4375q0.890625 -0.453125 1.859375 -0.453125q1.25 0 1.71875 0.609375q0.46875 0.59375 0.40625 1.515625q-0.046875 0.921875 -0.375 1.90625l-2.578125 7.78125q-0.234375 0.71875 -0.203125 1.1875q0.046875 0.46875 0.625 0.46875q0.515625 0 1.0 -0.5625q0.5 -0.5625 1.0625 -2.15625l0.34375 -0.984375l0.5 0l-0.65625 1.9375q-0.375 1.125 -0.921875 1.71875q-0.546875 0.578125 -1.15625 0.796875q-0.59375 0.234375 -1.15625 0.234375q-0.640625 0 -1.0625 -0.21875q-0.40625 -0.203125 -0.609375 -0.5625q-0.296875 -0.46875 -0.1875 -1.234375q0.109375 -0.78125 0.421875 -1.71875l2.53125 -7.625q0.140625 -0.375 0.234375 -0.890625q0.09375 -0.515625 -0.046875 -0.921875q-0.140625 -0.421875 -0.765625 -0.421875q-0.640625 0 -1.375 0.5625q-0.71875 0.546875 -1.484375 1.578125q-0.765625 1.03125 -1.515625 2.453125q-0.75 1.421875 -1.4375 3.140625q-0.671875 1.71875 -1.234375 3.671875l0.78125 -3.734375zm21.101196 -7.671875q-0.6875 0 -1.5625 0.96875q-0.859375 0.96875 -1.75 2.640625q-0.890625 1.671875 -1.6875 3.75q-0.78125 2.078125 -1.3125 4.3125l0.484375 -2.875q1.140625 -3.5 2.203125 -5.609375q1.078125 -2.125 2.15625 -3.078125q1.078125 -0.96875 2.25 -0.96875q1.25 0 2.0 0.9375q0.765625 0.9375 0.765625 2.828125q0 1.203125 -0.328125 2.640625q-0.328125 1.4375 -0.984375 2.859375q-0.65625 1.40625 -1.609375 2.59375q-0.9375 1.171875 -2.171875 1.890625q-1.21875 0.703125 -2.71875 0.703125q-0.796875 0 -1.421875 -0.484375q-0.625 -0.484375 -0.84375 -1.390625l0.21875 -0.53125q0.375 0.984375 0.859375 1.390625q0.5 0.40625 1.171875 0.40625q0.90625 0 1.71875 -0.703125q0.828125 -0.71875 1.515625 -1.890625q0.703125 -1.171875 1.21875 -2.59375q0.53125 -1.421875 0.796875 -2.84375q0.28125 -1.4375 0.28125 -2.640625q0 -1.171875 -0.328125 -1.734375q-0.328125 -0.578125 -0.921875 -0.578125zm-4.0 -4.5625q0.640625 -0.03125 1.265625 -0.109375q0.640625 -0.078125 1.171875 -0.265625l-5.875 20.5q-0.3125 1.125 0.328125 1.515625q0.640625 0.40625 1.828125 0.40625l-0.15625 0.5625q-0.53125 -0.03125 -1.5 -0.078125q-0.96875 -0.03125 -2.0625 -0.03125q-0.828125 0 -1.671875 0.03125q-0.859375 0.046875 -1.296875 0.078125l0.171875 -0.5625q0.953125 0 1.390625 -0.359375q0.421875 -0.359375 0.6875 -1.296875l5.71875 -20.390625zm-5.53125 8.265625q1.03125 -1.015625 1.9375 -2.015625q0.90625 -1.0 1.75 -2.375q0.859375 -1.390625 1.75 -3.5l0.078125 0.421875q-0.59375 1.8125 -1.40625 3.1875q-0.8125 1.375 -1.78125 2.484375q-0.953125 1.109375 -2.046875 2.140625l-0.28125 -0.34375zm24.671936 0.296875q-0.953125 2.65625 -1.84375 4.5q-0.875 1.84375 -1.75 2.96875q-0.859375 1.109375 -1.75 1.625q-0.890625 0.5 -1.84375 0.5q-1.171875 0 -1.71875 -0.53125q-0.53125 -0.53125 -0.53125 -1.4375q0 -0.90625 0.375 -2.0625l2.59375 -7.78125q0.265625 -0.796875 0.1875 -1.21875q-0.078125 -0.4375 -0.625 -0.4375q-0.5 0 -1.0 0.5625q-0.484375 0.5625 -1.046875 2.15625l-0.34375 0.984375l-0.515625 0l0.671875 -1.9375q0.40625 -1.125 0.953125 -1.703125q0.546875 -0.59375 1.140625 -0.8125q0.59375 -0.234375 1.140625 -0.234375q1.171875 0 1.546875 0.546875q0.390625 0.546875 0.296875 1.40625q-0.09375 0.84375 -0.40625 1.78125l-2.53125 7.625q-0.75 2.234375 0.578125 2.234375q0.640625 0 1.359375 -0.5625q0.71875 -0.578125 1.46875 -1.65625q0.75 -1.078125 1.484375 -2.578125q0.734375 -1.515625 1.40625 -3.359375q0.6875 -1.859375 1.234375 -4.0l-0.53125 3.421875zm-0.078125 6.953125q-0.1875 0.71875 -0.171875 1.1875q0.015625 0.46875 0.546875 0.46875q0.59375 0 1.078125 -0.625q0.5 -0.625 1.0 -2.09375l0.34375 -0.984375l0.515625 0l-0.671875 1.9375q-0.375 1.125 -0.921875 1.71875q-0.546875 0.578125 -1.15625 0.796875q-0.59375 0.234375 -1.140625 0.234375q-0.4375 0 -0.8125 -0.1875q-0.359375 -0.1875 -0.546875 -0.53125q-0.21875 -0.453125 -0.15625 -1.140625q0.078125 -0.703125 0.359375 -1.875l2.609375 -10.34375q0.671875 -0.03125 1.296875 -0.109375q0.625 -0.078125 1.140625 -0.265625l-3.3125 11.8125zm14.614075 -11.4375l-0.078125 0.53125l-8.296875 0l0.140625 -0.53125l8.234375 0zm-6.78125 11.4375q-0.234375 0.875 0.125 1.265625q0.359375 0.390625 0.953125 0.390625q0.578125 0 1.171875 -0.5q0.609375 -0.515625 1.1875 -2.171875l0.375 -1.03125l0.515625 0l-0.5625 1.671875q-0.59375 1.734375 -1.515625 2.375q-0.90625 0.640625 -2.140625 0.640625q-1.09375 0 -1.671875 -0.46875q-0.5625 -0.46875 -0.671875 -1.3125q-0.109375 -0.859375 0.21875 -1.953125l4.125 -14.390625q0.640625 -0.03125 1.265625 -0.109375q0.625 -0.078125 1.140625 -0.265625l-4.515625 15.859375z" fill-rule="nonzero"/><path fill="#000000" fill-opacity="0.0" d="m708.22046 272.42126l47.874023 0l0 42.015747l-47.874023 0z" fill-rule="evenodd"/><path fill="#000000" d="m732.026 300.16562q0 0.25 -0.09375 0.453125q-0.078125 0.203125 -0.234375 0.34375q-0.140625 0.125 -0.34375 0.1875q-0.203125 0.046875 -0.421875 0.046875l-1.234375 0q-0.390625 0 -0.671875 -0.0625q-0.28125 -0.078125 -0.515625 -0.28125q-0.234375 -0.21875 -0.46875 -0.5625q-0.21875 -0.34375 -0.484375 -0.90625l-3.5625 -6.6875q-0.3125 -0.59375 -0.640625 -1.28125q-0.3125 -0.703125 -0.578125 -1.359375l-0.015625 0q0.046875 0.796875 0.0625 1.59375q0.03125 0.796875 0.03125 1.625l0 7.5q0 0.109375 -0.0625 0.203125q-0.0625 0.078125 -0.21875 0.140625q-0.140625 0.0625 -0.40625 0.09375q-0.25 0.03125 -0.640625 0.03125q-0.390625 0 -0.65625 -0.03125q-0.25 -0.03125 -0.390625 -0.09375q-0.140625 -0.0625 -0.203125 -0.140625q-0.046875 -0.09375 -0.046875 -0.203125l0 -12.875q0 -0.515625 0.296875 -0.765625q0.3125 -0.265625 0.75 -0.265625l1.5625 0q0.421875 0 0.703125 0.078125q0.296875 0.0625 0.515625 0.234375q0.234375 0.15625 0.421875 0.453125q0.203125 0.296875 0.421875 0.71875l2.78125 5.234375q0.25 0.484375 0.484375 0.953125q0.234375 0.453125 0.453125 0.90625q0.21875 0.453125 0.421875 0.90625q0.21875 0.4375 0.421875 0.875l0.015625 0q-0.03125 -0.765625 -0.0625 -1.609375q-0.015625 -0.84375 -0.015625 -1.609375l0 -6.71875q0 -0.109375 0.0625 -0.1875q0.078125 -0.09375 0.234375 -0.15625q0.15625 -0.0625 0.40625 -0.09375q0.25 -0.03125 0.65625 -0.03125q0.375 0 0.625 0.03125q0.25 0.03125 0.390625 0.09375q0.140625 0.0625 0.1875 0.15625q0.0625 0.078125 0.0625 0.1875l0 12.875zm12.923462 -8.953125q0 1.203125 -0.375 2.140625q-0.375 0.921875 -1.09375 1.5625q-0.71875 0.640625 -1.765625 0.96875q-1.046875 0.328125 -2.453125 0.328125l-1.203125 0l0 4.578125q0 0.109375 -0.078125 0.203125q-0.0625 0.078125 -0.234375 0.140625q-0.15625 0.046875 -0.4375 0.078125q-0.28125 0.03125 -0.703125 0.03125q-0.421875 0 -0.703125 -0.03125q-0.28125 -0.03125 -0.453125 -0.078125q-0.171875 -0.0625 -0.234375 -0.140625q-0.0625 -0.09375 -0.0625 -0.203125l0 -12.890625q0 -0.515625 0.265625 -0.765625q0.28125 -0.265625 0.71875 -0.265625l3.375 0q0.5 0 0.953125 0.046875q0.46875 0.03125 1.109375 0.15625q0.640625 0.125 1.296875 0.46875q0.65625 0.34375 1.125 0.875q0.46875 0.515625 0.703125 1.21875q0.25 0.703125 0.25 1.578125zm-3.046875 0.21875q0 -0.765625 -0.265625 -1.25q-0.265625 -0.484375 -0.65625 -0.71875q-0.375 -0.234375 -0.8125 -0.28125q-0.421875 -0.0625 -0.875 -0.0625l-1.234375 0l0 4.84375l1.3125 0q0.6875 0 1.15625 -0.1875q0.46875 -0.1875 0.765625 -0.515625q0.3125 -0.34375 0.453125 -0.8125q0.15625 -0.46875 0.15625 -1.015625z" fill-rule="nonzero"/><path fill="#000000" fill-opacity="0.0" d="m819.6083 272.42126l47.874023 0l0 42.015747l-47.874023 0z" fill-rule="evenodd"/><path fill="#000000" d="m843.41376 300.16562q0 0.25 -0.09375 0.453125q-0.078125 0.203125 -0.234375 0.34375q-0.140625 0.125 -0.34375 0.1875q-0.203125 0.046875 -0.421875 0.046875l-1.234375 0q-0.390625 0 -0.671875 -0.0625q-0.28125 -0.078125 -0.515625 -0.28125q-0.234375 -0.21875 -0.46875 -0.5625q-0.21875 -0.34375 -0.484375 -0.90625l-3.5625 -6.6875q-0.3125 -0.59375 -0.640625 -1.28125q-0.3125 -0.703125 -0.578125 -1.359375l-0.015625 0q0.046875 0.796875 0.0625 1.59375q0.03125 0.796875 0.03125 1.625l0 7.5q0 0.109375 -0.0625 0.203125q-0.0625 0.078125 -0.21875 0.140625q-0.140625 0.0625 -0.40625 0.09375q-0.25 0.03125 -0.640625 0.03125q-0.390625 0 -0.65625 -0.03125q-0.25 -0.03125 -0.390625 -0.09375q-0.140625 -0.0625 -0.203125 -0.140625q-0.046875 -0.09375 -0.046875 -0.203125l0 -12.875q0 -0.515625 0.296875 -0.765625q0.3125 -0.265625 0.75 -0.265625l1.5625 0q0.421875 0 0.703125 0.078125q0.296875 0.0625 0.515625 0.234375q0.234375 0.15625 0.421875 0.453125q0.203125 0.296875 0.421875 0.71875l2.78125 5.234375q0.25 0.484375 0.484375 0.953125q0.234375 0.453125 0.453125 0.90625q0.21875 0.453125 0.421875 0.90625q0.21875 0.4375 0.421875 0.875l0.015625 0q-0.03125 -0.765625 -0.0625 -1.609375q-0.015625 -0.84375 -0.015625 -1.609375l0 -6.71875q0 -0.109375 0.0625 -0.1875q0.078125 -0.09375 0.234375 -0.15625q0.15625 -0.0625 0.40625 -0.09375q0.25 -0.03125 0.65625 -0.03125q0.375 0 0.625 0.03125q0.25 0.03125 0.390625 0.09375q0.140625 0.0625 0.1875 0.15625q0.0625 0.078125 0.0625 0.1875l0 12.875zm12.923523 -8.953125q0 1.203125 -0.375 2.140625q-0.375 0.921875 -1.09375 1.5625q-0.71875 0.640625 -1.765625 0.96875q-1.046875 0.328125 -2.453125 0.328125l-1.203125 0l0 4.578125q0 0.109375 -0.078125 0.203125q-0.0625 0.078125 -0.234375 0.140625q-0.15625 0.046875 -0.4375 0.078125q-0.28125 0.03125 -0.703125 0.03125q-0.421875 0 -0.703125 -0.03125q-0.28125 -0.03125 -0.453125 -0.078125q-0.171875 -0.0625 -0.234375 -0.140625q-0.0625 -0.09375 -0.0625 -0.203125l0 -12.890625q0 -0.515625 0.265625 -0.765625q0.28125 -0.265625 0.71875 -0.265625l3.375 0q0.5 0 0.953125 0.046875q0.46875 0.03125 1.109375 0.15625q0.640625 0.125 1.296875 0.46875q0.65625 0.34375 1.125 0.875q0.46875 0.515625 0.703125 1.21875q0.25 0.703125 0.25 1.578125zm-3.046875 0.21875q0 -0.765625 -0.265625 -1.25q-0.265625 -0.484375 -0.65625 -0.71875q-0.375 -0.234375 -0.8125 -0.28125q-0.421875 -0.0625 -0.875 -0.0625l-1.234375 0l0 4.84375l1.3125 0q0.6875 0 1.15625 -0.1875q0.46875 -0.1875 0.765625 -0.515625q0.3125 -0.34375 0.453125 -0.8125q0.15625 -0.46875 0.15625 -1.015625z" fill-rule="nonzero"/><path fill="#000000" fill-opacity="0.0" d="m763.91437 272.42126l47.874023 0l0 42.015747l-47.874023 0z" fill-rule="evenodd"/><path fill="#000000" d="m789.84045 300.66562q-0.0625 0.1875 -0.15625 0.3125q-0.078125 0.109375 -0.28125 0.171875q-0.203125 0.0625 -0.546875 0.078125q-0.328125 0.015625 -0.890625 0.015625q-0.4375 0 -0.765625 0q-0.3125 0 -0.53125 -0.03125q-0.21875 -0.015625 -0.359375 -0.0625q-0.140625 -0.046875 -0.234375 -0.109375q-0.09375 -0.0625 -0.140625 -0.15625q-0.046875 -0.09375 -0.09375 -0.25l-4.25 -12.6875q-0.140625 -0.390625 -0.171875 -0.625q-0.015625 -0.234375 0.109375 -0.34375q0.140625 -0.125 0.46875 -0.140625q0.34375 -0.03125 0.9375 -0.03125q0.515625 0 0.796875 0.015625q0.28125 0.015625 0.4375 0.078125q0.15625 0.0625 0.21875 0.171875q0.0625 0.109375 0.125 0.265625l3.484375 11.046875l0 0l3.421875 -10.984375q0.046875 -0.1875 0.109375 -0.296875q0.0625 -0.125 0.21875 -0.1875q0.171875 -0.078125 0.46875 -0.09375q0.296875 -0.015625 0.8125 -0.015625q0.515625 0 0.796875 0.03125q0.28125 0.03125 0.390625 0.15625q0.109375 0.125 0.0625 0.359375q-0.03125 0.234375 -0.171875 0.625l-4.265625 12.6875z" fill-rule="nonzero"/><path fill="#000000" fill-opacity="0.0" d="m787.6939 219.20473l47.874023 0l0 42.01573l-47.874023 0z" fill-rule="evenodd"/><path fill="#000000" d="m807.5909 247.4491q-0.0625 0.1875 -0.15625 0.3125q-0.078125 0.109375 -0.28125 0.171875q-0.203125 0.0625 -0.546875 0.078125q-0.328125 0.015625 -0.890625 0.015625q-0.4375 0 -0.765625 0q-0.3125 0 -0.53125 -0.03125q-0.21875 -0.015625 -0.359375 -0.0625q-0.140625 -0.046875 -0.234375 -0.109375q-0.09375 -0.0625 -0.140625 -0.15625q-0.046875 -0.09375 -0.09375 -0.25l-4.25 -12.6875q-0.140625 -0.390625 -0.171875 -0.625q-0.015625 -0.234375 0.109375 -0.34375q0.140625 -0.125 0.46875 -0.140625q0.34375 -0.03125 0.9375 -0.03125q0.515625 0 0.796875 0.015625q0.28125 0.015625 0.4375 0.078125q0.15625 0.0625 0.21875 0.171875q0.0625 0.109375 0.125 0.265625l3.484375 11.046875l0 0l3.421875 -10.984375q0.046875 -0.1875 0.109375 -0.296875q0.0625 -0.125 0.21875 -0.1875q0.171875 -0.078125 0.46875 -0.09375q0.296875 -0.015625 0.8125 -0.015625q0.515625 0 0.796875 0.03125q0.28125 0.03125 0.390625 0.15625q0.109375 0.125 0.0625 0.359375q-0.03125 0.234375 -0.171875 0.625l-4.265625 12.6875zm16.068665 -9.453125q0 1.203125 -0.375 2.140625q-0.375 0.921875 -1.09375 1.5625q-0.71875 0.640625 -1.765625 0.96875q-1.046875 0.328125 -2.453125 0.328125l-1.203125 0l0 4.578125q0 0.109375 -0.078125 0.203125q-0.0625 0.078125 -0.234375 0.140625q-0.15625 0.046875 -0.4375 0.078125q-0.28125 0.03125 -0.703125 0.03125q-0.421875 0 -0.703125 -0.03125q-0.28125 -0.03125 -0.453125 -0.078125q-0.171875 -0.0625 -0.234375 -0.140625q-0.0625 -0.09375 -0.0625 -0.203125l0 -12.890625q0 -0.515625 0.265625 -0.765625q0.28125 -0.265625 0.71875 -0.265625l3.375 0q0.5 0 0.953125 0.046875q0.46875 0.03125 1.109375 0.15625q0.640625 0.125 1.296875 0.46875q0.65625 0.34375 1.125 0.875q0.46875 0.515625 0.703125 1.21875q0.25 0.703125 0.25 1.578125zm-3.046875 0.21875q0 -0.765625 -0.265625 -1.25q-0.265625 -0.484375 -0.65625 -0.71875q-0.375 -0.234375 -0.8125 -0.28125q-0.421875 -0.0625 -0.875 -0.0625l-1.234375 0l0 4.84375l1.3125 0q0.6875 0 1.15625 -0.1875q0.46875 -0.1875 0.765625 -0.515625q0.3125 -0.34375 0.453125 -0.8125q0.15625 -0.46875 0.15625 -1.015625z" fill-rule="nonzero"/><path fill="#000000" fill-opacity="0.0" d="m756.07776 144.33464l47.874023 0l0 42.015747l-47.874023 0z" fill-rule="evenodd"/><path fill="#000000" d="m784.70734 168.79778q0 1.140625 -0.421875 2.0q-0.421875 0.84375 -1.140625 1.40625q-0.71875 0.5625 -1.6875 0.859375q-0.953125 0.28125 -2.046875 0.28125q-0.75 0 -1.390625 -0.125q-0.625 -0.109375 -1.109375 -0.28125q-0.484375 -0.171875 -0.8125 -0.359375q-0.328125 -0.1875 -0.484375 -0.328125q-0.140625 -0.15625 -0.203125 -0.421875q-0.046875 -0.265625 -0.046875 -0.78125q0 -0.34375 0.015625 -0.578125q0.015625 -0.234375 0.0625 -0.375q0.0625 -0.140625 0.140625 -0.203125q0.078125 -0.0625 0.203125 -0.0625q0.140625 0 0.421875 0.1875q0.296875 0.1875 0.734375 0.40625q0.4375 0.21875 1.046875 0.40625q0.625 0.171875 1.421875 0.171875q0.53125 0 0.953125 -0.125q0.421875 -0.125 0.71875 -0.359375q0.296875 -0.234375 0.453125 -0.578125q0.15625 -0.34375 0.15625 -0.765625q0 -0.484375 -0.265625 -0.828125q-0.265625 -0.34375 -0.703125 -0.609375q-0.421875 -0.28125 -0.96875 -0.515625q-0.53125 -0.25 -1.109375 -0.515625q-0.578125 -0.265625 -1.125 -0.59375q-0.53125 -0.34375 -0.96875 -0.8125q-0.421875 -0.46875 -0.6875 -1.109375q-0.265625 -0.640625 -0.265625 -1.53125q0 -1.03125 0.375 -1.8125q0.390625 -0.78125 1.03125 -1.296875q0.65625 -0.515625 1.53125 -0.765625q0.875 -0.25 1.859375 -0.25q0.515625 0 1.015625 0.078125q0.515625 0.0625 0.953125 0.203125q0.453125 0.125 0.796875 0.296875q0.34375 0.171875 0.453125 0.28125q0.109375 0.109375 0.140625 0.1875q0.046875 0.078125 0.0625 0.203125q0.03125 0.125 0.046875 0.328125q0.015625 0.1875 0.015625 0.46875q0 0.328125 -0.015625 0.546875q-0.015625 0.21875 -0.0625 0.375q-0.03125 0.140625 -0.109375 0.203125q-0.078125 0.0625 -0.1875 0.0625q-0.125 0 -0.390625 -0.15625q-0.265625 -0.15625 -0.65625 -0.328125q-0.390625 -0.1875 -0.90625 -0.328125q-0.5 -0.15625 -1.109375 -0.15625q-0.46875 0 -0.828125 0.125q-0.34375 0.109375 -0.59375 0.3125q-0.234375 0.203125 -0.359375 0.5q-0.109375 0.28125 -0.109375 0.59375q0 0.484375 0.25 0.828125q0.265625 0.34375 0.703125 0.625q0.4375 0.265625 0.984375 0.5q0.5625 0.234375 1.140625 0.5q0.578125 0.265625 1.125 0.609375q0.5625 0.328125 0.984375 0.8125q0.4375 0.46875 0.703125 1.109375q0.265625 0.625 0.265625 1.484375z" fill-rule="nonzero"/><path fill="#000000" fill-opacity="0.0" d="m780.0148 186.35039l-47.84253 86.07875" fill-rule="evenodd"/><path stroke="#595959" stroke-width="1.0" stroke-linejoin="round" stroke-linecap="butt" d="m780.0148 186.35039l-47.84253 86.07875" fill-rule="evenodd"/><path fill="#000000" fill-opacity="0.0" d="m780.0148 186.35039l31.62207 32.850403" fill-rule="evenodd"/><path stroke="#595959" stroke-width="1.0" stroke-linejoin="round" stroke-linecap="butt" d="m780.0148 186.35039l31.62207 32.850403" fill-rule="evenodd"/><path fill="#000000" fill-opacity="0.0" d="m811.6309 261.22046l-23.779541 11.212616" fill-rule="evenodd"/><path stroke="#595959" stroke-width="1.0" stroke-linejoin="round" stroke-linecap="butt" d="m811.6309 261.22046l-23.779541 11.212616" fill-rule="evenodd"/><path fill="#000000" fill-opacity="0.0" d="m811.6309 261.22046l31.905518 11.212616" fill-rule="evenodd"/><path stroke="#595959" stroke-width="1.0" stroke-linejoin="round" stroke-linecap="butt" d="m811.6309 261.22046l31.905518 11.212616" fill-rule="evenodd"/><path fill="#000000" fill-opacity="0.0" d="m732.1575 314.437l-32.75592 18.677155" fill-rule="evenodd"/><path stroke="#595959" stroke-width="1.0" stroke-linejoin="round" stroke-linecap="butt" d="m732.1575 314.437l-32.75592 18.677155" fill-rule="evenodd"/><path fill="#000000" fill-opacity="0.0" d="m732.1575 314.437l20.97638 17.921265" fill-rule="evenodd"/><path stroke="#595959" stroke-width="1.0" stroke-linejoin="round" stroke-linecap="butt" d="m732.1575 314.437l20.97638 17.921265" fill-rule="evenodd"/><path fill="#000000" fill-opacity="0.0" d="m787.8514 314.437l3.1810913 11.212585" fill-rule="evenodd"/><path stroke="#595959" stroke-width="1.0" stroke-linejoin="round" stroke-linecap="butt" d="m787.8514 314.437l3.1810913 11.212585" fill-rule="evenodd"/><path fill="#000000" fill-opacity="0.0" d="m843.5453 314.437l-18.992126 16.440948" fill-rule="evenodd"/><path stroke="#595959" stroke-width="1.0" stroke-linejoin="round" stroke-linecap="butt" d="m843.5453 314.437l-18.992126 16.440948" fill-rule="evenodd"/><path fill="#000000" fill-opacity="0.0" d="m843.5453 314.437l26.64563 15.716522" fill-rule="evenodd"/><path stroke="#595959" stroke-width="1.0" stroke-linejoin="round" stroke-linecap="butt" d="m843.5453 314.437l26.64563 15.716522" fill-rule="evenodd"/></g></svg>