<svg version="1.1" viewBox="0.0 0.0 960.0 540.0" fill="none" stroke="none" stroke-linecap="square" stroke-miterlimit="10" xmlns:xlink="http://www.w3.org/1999/xlink" xmlns="http://www.w3.org/2000/svg"><clipPath id="g1e4950d2a1c_0_0.0"><path d="m0 0l960.0 0l0 540.0l-960.0 0l0 -540.0z" clip-rule="nonzero"/></clipPath><g clip-path="url(#g1e4950d2a1c_0_0.0)"><path fill="#000000" fill-opacity="0.0" d="m0 0l960.0 0l0 540.0l-960.0 0z" fill-rule="evenodd"/><path fill="#000000" fill-opacity="0.0" d="m62.55921 13.203072l788.8819 0l0 44.283463l-788.8819 0z" fill-rule="evenodd"/><path fill="#3f3f3f" d="m383.27954 225.49213l148.93701 0l0 133.53543l-148.93701 0z" fill-rule="evenodd"/><path fill="#323232" d="m532.21655 225.49213l44.51178 -44.51181l0 133.53543l-44.51178 44.51181z" fill-rule="evenodd"/><path fill="#656565" d="m383.27954 225.49213l44.51181 -44.51181l148.93698 0l-44.51178 44.51181z" fill-rule="evenodd"/><path fill="#000000" fill-opacity="0.0" d="m383.27954 225.49213l44.51181 -44.51181l148.93698 0l0 133.53543l-44.51178 44.51181l-148.93701 0zm0 0l148.93701 0l44.51178 -44.51181m-44.51178 44.51181l0 133.53543" fill-rule="evenodd"/><path stroke="#595959" stroke-width="1.0" stroke-linejoin="round" stroke-linecap="butt" d="m383.27954 225.49213l44.51181 -44.51181l148.93698 0l0 133.53543l-44.51178 44.51181l-148.93701 0zm0 0l148.93701 0l44.51178 -44.51181m-44.51178 44.51181l0 133.53543" fill-rule="evenodd"/><path fill="#ffffff" d="m449.0664 304.86295q0 0.453125 -0.15625 0.8125q-0.15625 0.34375 -0.421875 0.578125q-0.265625 0.234375 -0.625 0.34375q-0.359375 0.109375 -0.734375 0.109375l-2.1875 0q-0.671875 0 -1.171875 -0.140625q-0.5 -0.140625 -0.921875 -0.5q-0.421875 -0.359375 -0.8125 -0.96875q-0.390625 -0.625 -0.875 -1.609375l-6.296875 -11.8125q-0.546875 -1.046875 -1.109375 -2.265625q-0.5625 -1.234375 -1.015625 -2.375l-0.03125 0q0.078125 1.40625 0.109375 2.796875q0.046875 1.390625 0.046875 2.875l0 13.234375q0 0.1875 -0.109375 0.34375q-0.109375 0.15625 -0.375 0.265625q-0.265625 0.109375 -0.71875 0.171875q-0.4375 0.0625 -1.140625 0.0625q-0.6875 0 -1.140625 -0.0625q-0.453125 -0.0625 -0.703125 -0.171875q-0.25 -0.109375 -0.359375 -0.265625q-0.09375 -0.15625 -0.09375 -0.34375l0 -22.71875q0 -0.921875 0.53125 -1.375q0.546875 -0.46875 1.328125 -0.46875l2.75 0q0.75 0 1.25 0.140625q0.515625 0.125 0.90625 0.421875q0.40625 0.28125 0.75 0.796875q0.359375 0.515625 0.734375 1.28125l4.921875 9.234375q0.421875 0.84375 0.84375 1.65625q0.421875 0.8125 0.8125 1.625q0.390625 0.8125 0.765625 1.59375q0.375 0.78125 0.71875 1.5625l0.015625 0q-0.046875 -1.375 -0.078125 -2.859375q-0.03125 -1.484375 -0.03125 -2.828125l0 -11.859375q0 -0.1875 0.109375 -0.34375q0.125 -0.15625 0.390625 -0.265625q0.28125 -0.125 0.71875 -0.171875q0.453125 -0.0625 1.15625 -0.0625q0.671875 0 1.109375 0.0625q0.453125 0.046875 0.703125 0.171875q0.25 0.109375 0.34375 0.265625q0.09375 0.15625 0.09375 0.34375l0 22.71875zm19.394531 -0.359375q0 0.59375 -0.046875 1.0q-0.046875 0.390625 -0.15625 0.65625q-0.09375 0.265625 -0.234375 0.390625q-0.140625 0.109375 -0.34375 0.109375l-11.578125 0q-0.640625 0 -1.09375 -0.375q-0.4375 -0.390625 -0.4375 -1.25l0 -22.953125q0 -0.1875 0.125 -0.34375q0.140625 -0.15625 0.421875 -0.25q0.296875 -0.109375 0.796875 -0.15625q0.5 -0.0625 1.234375 -0.0625q0.765625 0 1.25 0.0625q0.5 0.046875 0.78125 0.15625q0.296875 0.09375 0.421875 0.25q0.125 0.15625 0.125 0.34375l0 20.34375l7.953125 0q0.203125 0 0.34375 0.109375q0.140625 0.09375 0.234375 0.34375q0.109375 0.25 0.15625 0.65625q0.046875 0.390625 0.046875 0.96875zm20.335938 -15.4375q0 2.125 -0.671875 3.765625q-0.65625 1.640625 -1.9375 2.765625q-1.265625 1.125 -3.109375 1.71875q-1.84375 0.578125 -4.34375 0.578125l-2.109375 0l0 8.0625q0 0.1875 -0.125 0.34375q-0.125 0.15625 -0.421875 0.265625q-0.296875 0.09375 -0.78125 0.15625q-0.484375 0.0625 -1.25 0.0625q-0.734375 0 -1.234375 -0.0625q-0.5 -0.0625 -0.796875 -0.15625q-0.296875 -0.109375 -0.421875 -0.265625q-0.109375 -0.15625 -0.109375 -0.34375l0 -22.734375q0 -0.921875 0.484375 -1.375q0.484375 -0.46875 1.265625 -0.46875l5.953125 0q0.890625 0 1.703125 0.078125q0.8125 0.0625 1.9375 0.296875q1.140625 0.21875 2.296875 0.828125q1.171875 0.59375 1.984375 1.53125q0.828125 0.921875 1.25 2.171875q0.4375 1.234375 0.4375 2.78125zm-5.375 0.359375q0 -1.328125 -0.46875 -2.1875q-0.46875 -0.859375 -1.15625 -1.265625q-0.671875 -0.40625 -1.4375 -0.515625q-0.75 -0.109375 -1.546875 -0.109375l-2.1875 0l0 8.578125l2.3125 0q1.21875 0 2.046875 -0.328125q0.84375 -0.34375 1.359375 -0.9375q0.53125 -0.59375 0.796875 -1.421875q0.28125 -0.828125 0.28125 -1.8125z" fill-rule="nonzero"/><path fill="#000000" fill-opacity="0.0" d="m715.2323 256.8179l218.33069 0l0 61.417328l-218.33069 0z" fill-rule="evenodd"/><path fill="#000000" d="m726.9042 300.93793l-3.359375 0l4.640625 -16.578125q0.109375 -0.359375 0.203125 -0.90625q0.109375 -0.5625 -0.015625 -1.03125q-0.109375 -0.46875 -0.734375 -0.46875q-0.84375 0 -1.546875 0.890625q-0.6875 0.890625 -1.46875 3.0625l-0.5 1.421875l-0.734375 0l0.96875 -2.8125q0.578125 -1.625 1.375 -2.46875q0.796875 -0.859375 1.65625 -1.1875q0.875 -0.328125 1.640625 -0.328125q1.171875 0 1.671875 0.53125q0.5 0.515625 0.546875 1.34375q0.0625 0.828125 -0.125 1.765625q-0.1875 0.921875 -0.421875 1.765625l-3.796875 15.0zm10.9375 -15.921875q0.28125 -0.8125 0.375 -1.546875q0.09375 -0.734375 -0.125 -1.21875q-0.203125 -0.484375 -0.9375 -0.484375q-1.078125 0 -2.375 1.34375q-1.296875 1.328125 -2.640625 3.703125q-1.328125 2.375 -2.5625 5.53125q-1.234375 3.140625 -2.203125 6.734375l1.28125 -6.1875q1.765625 -4.625 3.3125 -7.328125q1.546875 -2.71875 3.109375 -3.875q1.578125 -1.15625 3.359375 -1.15625q1.234375 0 1.796875 0.5625q0.5625 0.546875 0.671875 1.4375q0.109375 0.890625 -0.0625 1.90625q-0.171875 1.0 -0.40625 1.921875l-3.9375 14.578125l-3.484375 0l4.828125 -15.921875zm9.671875 0q0.390625 -1.203125 0.390625 -2.21875q0 -1.03125 -0.859375 -1.03125q-1.15625 0 -2.4375 1.359375q-1.265625 1.34375 -2.625 3.84375q-1.34375 2.484375 -2.6875 5.828125q-1.328125 3.34375 -2.5625 7.375l0.890625 -4.953125q1.5 -4.015625 2.765625 -6.8125q1.28125 -2.8125 2.515625 -4.546875q1.25 -1.75 2.5625 -2.53125q1.3125 -0.796875 2.859375 -0.796875q1.625 0 2.203125 0.921875q0.578125 0.921875 0.484375 2.265625q-0.09375 1.328125 -0.53125 2.640625l-3.734375 11.296875q-0.390625 1.1875 -0.28125 1.796875q0.125 0.59375 0.890625 0.59375q0.734375 0 1.453125 -0.8125q0.71875 -0.8125 1.53125 -3.125l0.5 -1.4375l0.734375 0l-0.96875 2.828125q-0.546875 1.625 -1.34375 2.484375q-0.78125 0.84375 -1.65625 1.171875q-0.859375 0.328125 -1.671875 0.328125q-0.96875 0 -1.53125 -0.296875q-0.5625 -0.28125 -0.875 -0.75q-0.46875 -0.734375 -0.3125 -1.828125q0.15625 -1.109375 0.625 -2.546875l3.671875 -11.046875zm17.741638 -3.71875q-1.234375 0 -2.375 0.984375q-1.140625 0.984375 -2.09375 2.671875q-0.9375 1.6875 -1.65625 3.78125q-0.71875 2.078125 -1.109375 4.328125q-0.375 2.234375 -0.375 4.28125q0 1.734375 0.546875 2.546875q0.5625 0.8125 1.65625 0.8125q1.234375 0 2.375 -0.984375q1.140625 -0.984375 2.109375 -2.65625q0.96875 -1.6875 1.65625 -3.765625q0.703125 -2.09375 1.078125 -4.3125q0.390625 -2.234375 0.390625 -4.328125q0 -1.765625 -0.546875 -2.5625q-0.53125 -0.796875 -1.65625 -0.796875zm-10.9375 14.109375q0 -1.703125 0.453125 -3.703125q0.46875 -2.015625 1.390625 -3.984375q0.9375 -1.96875 2.265625 -3.59375q1.34375 -1.625 3.109375 -2.609375q1.78125 -0.984375 3.953125 -0.984375q2.390625 0 3.84375 1.484375q1.453125 1.484375 1.453125 4.578125q0 1.703125 -0.46875 3.71875q-0.453125 2.0 -1.390625 3.984375q-0.921875 1.96875 -2.265625 3.59375q-1.328125 1.609375 -3.109375 2.609375q-1.78125 0.984375 -3.9375 0.984375q-2.390625 0 -3.84375 -1.5q-1.453125 -1.515625 -1.453125 -4.578125zm22.723572 5.53125l-3.359375 0l4.640625 -16.578125q0.390625 -1.3125 0.25 -1.859375q-0.140625 -0.546875 -0.796875 -0.546875q-0.84375 0 -1.546875 0.890625q-0.6875 0.890625 -1.46875 3.0625l-0.5 1.421875l-0.734375 0l0.96875 -2.8125q0.578125 -1.625 1.375 -2.46875q0.796875 -0.859375 1.65625 -1.1875q0.875 -0.328125 1.640625 -0.328125q1.171875 0 1.640625 0.5q0.484375 0.5 0.546875 1.3125q0.0625 0.8125 -0.109375 1.765625q-0.171875 0.9375 -0.40625 1.828125l-3.796875 15.0zm9.9375 -19.4375q-0.890625 0 -1.84375 0.828125q-0.9375 0.828125 -1.921875 2.390625q-0.984375 1.5625 -1.96875 3.75q-0.984375 2.1875 -1.9375 4.859375q-0.953125 2.65625 -1.828125 5.75l0.953125 -4.9375q1.28125 -3.796875 2.375 -6.375q1.109375 -2.59375 2.1875 -4.203125q1.09375 -1.609375 2.234375 -2.3125q1.140625 -0.71875 2.40625 -0.71875q1.09375 0 1.6875 0.625q0.59375 0.609375 0.59375 1.578125q0 0.765625 -0.390625 1.40625q-0.375 0.640625 -0.984375 1.015625q-0.59375 0.359375 -1.328125 0.359375q-0.65625 0 -1.109375 -0.359375q-0.4375 -0.375 -0.4375 -1.03125q0 -0.625 0.234375 -1.109375q0.234375 -0.484375 0.609375 -0.828125q0.390625 -0.34375 0.890625 -0.546875q-0.078125 -0.0625 -0.171875 -0.09375q-0.09375 -0.046875 -0.25 -0.046875zm4.334839 10.65625q2.15625 -0.734375 3.90625 -1.4375q1.765625 -0.71875 2.8125 -1.53125q1.390625 -1.125 2.203125 -2.703125q0.8125 -1.59375 0.8125 -3.484375q0 -1.125 -0.15625 -1.421875q-0.15625 -0.3125 -0.453125 -0.3125q-0.96875 0 -2.09375 0.859375q-1.125 0.84375 -2.203125 2.328125q-1.078125 1.484375 -1.984375 3.390625q-0.90625 1.890625 -1.453125 4.03125q-0.546875 2.140625 -0.546875 4.265625q0 1.96875 0.734375 2.84375q0.734375 0.875 1.9375 0.875q1.390625 0 2.9375 -0.84375q1.546875 -0.859375 3.015625 -3.03125l0.625 0.3125q-0.734375 1.28125 -1.9375 2.484375q-1.203125 1.1875 -2.6875 1.953125q-1.484375 0.75 -3.15625 0.75q-1.546875 0 -2.703125 -0.625q-1.15625 -0.625 -1.78125 -1.828125q-0.609375 -1.21875 -0.609375 -3.0q0 -1.671875 0.609375 -3.734375q0.625 -2.0625 1.765625 -4.125q1.140625 -2.078125 2.71875 -3.8125q1.59375 -1.75 3.515625 -2.78125q1.9375 -1.046875 4.140625 -1.046875q1.203125 0 2.03125 0.640625q0.828125 0.625 0.828125 1.90625q0 1.546875 -0.90625 2.890625q-0.90625 1.328125 -2.40625 2.4375q-1.484375 1.09375 -3.21875 1.953125q-1.734375 0.84375 -3.40625 1.46875q-1.65625 0.609375 -2.9375 0.984375l0.046875 -0.65625zm37.613586 -11.09375l-0.125 0.78125l-12.015625 0l0.1875 -0.78125l11.953125 0zm-9.828125 16.59375q-0.34375 1.265625 0.171875 1.828125q0.53125 0.5625 1.375 0.5625q0.859375 0 1.71875 -0.734375q0.875 -0.734375 1.71875 -3.125l0.546875 -1.515625l0.734375 0l-0.8125 2.4375q-0.84375 2.515625 -2.1875 3.453125q-1.328125 0.921875 -3.109375 0.921875q-1.578125 0 -2.421875 -0.671875q-0.828125 -0.6875 -0.984375 -1.921875q-0.140625 -1.234375 0.3125 -2.828125l6.0 -20.875q0.921875 -0.03125 1.828125 -0.140625q0.90625 -0.125 1.640625 -0.390625l-6.53125 23.0zm11.566589 -5.5q2.15625 -0.734375 3.90625 -1.4375q1.765625 -0.71875 2.8125 -1.53125q1.390625 -1.125 2.203125 -2.703125q0.8125 -1.59375 0.8125 -3.484375q0 -1.125 -0.15625 -1.421875q-0.15625 -0.3125 -0.453125 -0.3125q-0.96875 0 -2.09375 0.859375q-1.125 0.84375 -2.203125 2.328125q-1.078125 1.484375 -1.984375 3.390625q-0.90625 1.890625 -1.453125 4.03125q-0.546875 2.140625 -0.546875 4.265625q0 1.96875 0.734375 2.84375q0.734375 0.875 1.9375 0.875q1.390625 0 2.9375 -0.84375q1.546875 -0.859375 3.015625 -3.03125l0.625 0.3125q-0.734375 1.28125 -1.9375 2.484375q-1.203125 1.1875 -2.6875 1.953125q-1.484375 0.75 -3.15625 0.75q-1.546875 0 -2.703125 -0.625q-1.15625 -0.625 -1.78125 -1.828125q-0.609375 -1.21875 -0.609375 -3.0q0 -1.671875 0.609375 -3.734375q0.625 -2.0625 1.765625 -4.125q1.140625 -2.078125 2.71875 -3.8125q1.59375 -1.75 3.515625 -2.78125q1.9375 -1.046875 4.140625 -1.046875q1.203125 0 2.03125 0.640625q0.828125 0.625 0.828125 1.90625q0 1.546875 -0.90625 2.890625q-0.90625 1.328125 -2.40625 2.4375q-1.484375 1.09375 -3.21875 1.953125q-1.734375 0.84375 -3.40625 1.46875q-1.65625 0.609375 -2.9375 0.984375l0.046875 -0.65625zm25.786682 5.765625q0.15625 1.0 0.484375 1.390625q0.328125 0.390625 0.828125 0.390625q0.578125 0 1.1875 -0.671875q0.625 -0.6875 1.40625 -2.890625l0.5 -1.421875l0.734375 0l-0.96875 2.8125q-0.546875 1.546875 -1.265625 2.40625q-0.703125 0.84375 -1.5 1.1875q-0.796875 0.359375 -1.640625 0.359375q-1.203125 0 -2.09375 -0.765625q-0.890625 -0.78125 -1.125 -2.796875l-1.546875 -13.84375q-0.140625 -1.0 -0.46875 -1.375q-0.328125 -0.390625 -0.84375 -0.390625q-0.375 0 -0.78125 0.265625q-0.40625 0.265625 -0.84375 1.046875q-0.421875 0.765625 -0.953125 2.234375l-0.515625 1.4375l-0.734375 0l0.96875 -2.828125q0.578125 -1.546875 1.265625 -2.390625q0.703125 -0.859375 1.515625 -1.203125q0.8125 -0.34375 1.625 -0.34375q1.359375 0 2.171875 0.75q0.8125 0.75 1.046875 2.796875l1.546875 13.84375zm3.234375 -15.03125q-1.1875 1.078125 -2.078125 2.515625q-0.890625 1.421875 -1.515625 2.875q-0.609375 1.453125 -1.03125 2.640625q0 0 -0.390625 -0.015625q-0.390625 -0.015625 -0.390625 -0.015625q0.265625 -0.78125 0.609375 -1.71875q0.359375 -0.953125 0.859375 -2.0q0.5 -1.046875 1.21875 -2.140625q0.71875 -1.109375 1.640625 -2.140625q1.125 -1.28125 2.015625 -1.8125q0.890625 -0.546875 1.859375 -0.546875q0.734375 0 1.203125 0.390625q0.484375 0.375 0.484375 1.03125q0 0.734375 -0.5625 1.296875q-0.546875 0.5625 -1.484375 0.5625q-0.84375 0 -1.46875 -0.328125q-0.609375 -0.328125 -0.96875 -0.59375zm-12.5625 16.234375q1.828125 -1.671875 3.21875 -3.90625q1.390625 -2.25 2.125 -4.140625q0 0 0.328125 0.078125q0.328125 0.078125 0.328125 0.078125q-0.390625 1.046875 -1.0 2.328125q-0.59375 1.265625 -1.515625 2.65625q-0.921875 1.390625 -2.28125 2.859375q-1.15625 1.203125 -2.09375 1.8125q-0.921875 0.59375 -1.8125 0.59375q-0.84375 0 -1.28125 -0.390625q-0.453125 -0.390625 -0.453125 -1.046875q0 -0.734375 0.578125 -1.296875q0.578125 -0.5625 1.4375 -0.5625q0.875 0 1.453125 0.3125q0.59375 0.3125 0.96875 0.625zm31.70819 -18.0625l-0.125 0.78125l-12.015625 0l0.1875 -0.78125l11.953125 0zm-9.828125 16.59375q-0.34375 1.265625 0.171875 1.828125q0.53125 0.5625 1.375 0.5625q0.859375 0 1.71875 -0.734375q0.875 -0.734375 1.71875 -3.125l0.546875 -1.515625l0.734375 0l-0.8125 2.4375q-0.84375 2.515625 -2.1875 3.453125q-1.328125 0.921875 -3.109375 0.921875q-1.578125 0 -2.421875 -0.671875q-0.828125 -0.6875 -0.984375 -1.921875q-0.140625 -1.234375 0.3125 -2.828125l6.0 -20.875q0.921875 -0.03125 1.828125 -0.140625q0.90625 -0.125 1.640625 -0.390625l-6.53125 23.0z" fill-rule="nonzero"/><path fill="#eeeeee" d="m73.269684 333.86514l0 0c0 -6.7442627 44.121544 -12.211609 98.54823 -12.211609c54.42668 0 98.54823 5.467346 98.54823 12.211609l0 48.846466c0 6.744293 -44.12155 12.211609 -98.54823 12.211609c-54.42669 0 -98.54823 -5.4673157 -98.54823 -12.211609z" fill-rule="evenodd"/><path fill="#000000" fill-opacity="0.0" d="m270.36615 333.86514l0 0c0 6.744293 -44.12155 12.211639 -98.54823 12.211639c-54.42669 0 -98.54823 -5.467346 -98.54823 -12.211639" fill-rule="evenodd"/><path fill="#000000" fill-opacity="0.0" d="m73.269684 333.86514l0 0c0 -6.7442627 44.121544 -12.211609 98.54823 -12.211609c54.42668 0 98.54823 5.467346 98.54823 12.211609l0 48.846466c0 6.744293 -44.12155 12.211609 -98.54823 12.211609c-54.42669 0 -98.54823 -5.4673157 -98.54823 -12.211609z" fill-rule="evenodd"/><path stroke="#595959" stroke-width="1.0" stroke-linejoin="round" stroke-linecap="butt" d="m270.36615 333.86514l0 0c0 6.744293 -44.12155 12.211639 -98.54823 12.211639c-54.42669 0 -98.54823 -5.467346 -98.54823 -12.211639" fill-rule="evenodd"/><path stroke="#595959" stroke-width="1.0" stroke-linejoin="round" stroke-linecap="butt" d="m73.269684 333.86514l0 0c0 -6.7442627 44.121544 -12.211609 98.54823 -12.211609c54.42668 0 98.54823 5.467346 98.54823 12.211609l0 48.846466c0 6.744293 -44.12155 12.211609 -98.54823 12.211609c-54.42669 0 -98.54823 -5.4673157 -98.54823 -12.211609z" fill-rule="evenodd"/><path fill="#000000" d="m141.84084 373.9942l4.390625 0q1.359375 -0.015625 2.53125 -0.328125q1.1875 -0.3125 2.125 -0.890625q0.890625 -0.5625 1.59375 -1.359375q0.71875 -0.796875 1.1875 -1.765625q0.453125 -0.9375 0.6875 -2.046875q0.25 -1.125 0.25 -2.375l0 -1.40625q-0.015625 -1.296875 -0.265625 -2.4375q-0.25 -1.140625 -0.734375 -2.109375q-0.53125 -1.140625 -1.421875 -2.0q-0.890625 -0.859375 -2.046875 -1.40625q-0.84375 -0.390625 -1.828125 -0.59375q-0.96875 -0.21875 -2.078125 -0.234375l-4.390625 0l0 18.953125zm2.453125 -16.96875l1.9375 0q0.890625 0.015625 1.640625 0.203125q0.765625 0.1875 1.375 0.515625q0.859375 0.46875 1.453125 1.203125q0.59375 0.734375 0.9375 1.640625q0.28125 0.703125 0.40625 1.515625q0.140625 0.8125 0.15625 1.703125l0 1.421875q-0.015625 0.859375 -0.140625 1.671875q-0.125 0.796875 -0.390625 1.484375q-0.296875 0.84375 -0.8125 1.53125q-0.515625 0.6875 -1.21875 1.15625q-0.65625 0.453125 -1.515625 0.703125q-0.859375 0.234375 -1.890625 0.25l-1.9375 0l0 -15.0zm22.840103 12.0625l1.5 4.90625l2.390625 0l-6.015625 -18.953125l-2.015625 0l-6.125 18.953125l2.421875 0l1.515625 -4.90625l6.328125 0zm-5.671875 -2.09375l2.53125 -8.234375l2.5 8.234375l-5.03125 0zm25.402603 -9.890625l0 -2.0625l-14.0625 0l0 2.0625l5.859375 0l0 16.890625l2.34375 0l0 -16.890625l5.859375 0zm12.261978 11.984375l1.5 4.90625l2.390625 0l-6.015625 -18.953125l-2.015625 0l-6.125 18.953125l2.421875 0l1.515625 -4.90625l6.328125 0zm-5.671875 -2.09375l2.53125 -8.234375l2.5 8.234375l-5.03125 0z" fill-rule="nonzero"/><path fill="#14914e" d="m308.65225 200.28745l31.212585 6.4409485l4.6614075 -22.59842l21.88977 51.637787l-40.53543 38.75592l4.6614075 -22.598434l-31.212585 -6.4409485z" fill-rule="evenodd"/><path stroke="#595959" stroke-width="1.0" stroke-linejoin="round" stroke-linecap="butt" d="m308.65225 200.28745l31.212585 6.4409485l4.6614075 -22.59842l21.88977 51.637787l-40.53543 38.75592l4.6614075 -22.598434l-31.212585 -6.4409485z" fill-rule="evenodd"/><path fill="#14914e" d="m298.08374 321.25662l30.551208 -9.086639l-6.574829 -22.125977l43.700806 35.165344l-17.40158 53.338593l-6.5747986 -22.125977l-30.551178 9.086609z" fill-rule="evenodd"/><path stroke="#595959" stroke-width="1.0" stroke-linejoin="round" stroke-linecap="butt" d="m298.08374 321.25662l30.551208 -9.086639l-6.574829 -22.125977l43.700806 35.165344l-17.40158 53.338593l-6.5747986 -22.125977l-30.551178 9.086609z" fill-rule="evenodd"/><path fill="#990000" d="m600.04913 197.71864l29.385803 -12.346466l-8.944885 -21.275589l47.275574 30.204727l-11.496033 54.897644l-8.944885 -21.275604l-29.385864 12.346466z" fill-rule="evenodd"/><path stroke="#595959" stroke-width="1.0" stroke-linejoin="round" stroke-linecap="butt" d="m600.04913 197.71864l29.385803 -12.346466l-8.944885 -21.275589l47.275574 30.204727l-11.496033 54.897644l-8.944885 -21.275604l-29.385864 12.346466z" fill-rule="evenodd"/><path fill="#990000" d="m614.09906 265.16513l31.874023 0l0 -23.070862l31.874023 46.141724l-31.874023 46.141754l0 -23.070862l-31.874023 0z" fill-rule="evenodd"/><path stroke="#595959" stroke-width="1.0" stroke-linejoin="round" stroke-linecap="butt" d="m614.09906 265.16513l31.874023 0l0 -23.070862l31.874023 46.141724l-31.874023 46.141754l0 -23.070862l-31.874023 0z" fill-rule="evenodd"/><path fill="#990000" d="m615.1162 343.61447l30.346436 9.795288l7.086609 -21.960632l16.173218 53.716522l-44.519653 34.126007l7.086609 -21.960632l-30.346436 -9.795288z" fill-rule="evenodd"/><path stroke="#595959" stroke-width="1.0" stroke-linejoin="round" stroke-linecap="butt" d="m615.1162 343.61447l30.346436 9.795288l7.086609 -21.960632l16.173218 53.716522l-44.519653 34.126007l7.086609 -21.960632l-30.346436 -9.795288z" fill-rule="evenodd"/><path fill="#eeeeee" d="m707.7874 171.2115l0 0c0 -5.937546 4.8132935 -10.75087 10.7508545 -10.75087l142.62427 0c2.8512573 0 5.5858154 1.1326752 7.6019897 3.1488495c2.0161743 2.0161896 3.1488647 4.750717 3.1488647 7.6020203l0 43.002197c0 5.937546 -4.8133545 10.75087 -10.7508545 10.75087l-142.62427 0l0 0c-5.937561 0 -10.7508545 -4.813324 -10.7508545 -10.75087z" fill-rule="evenodd"/><path stroke="#595959" stroke-width="1.0" stroke-linejoin="round" stroke-linecap="butt" d="m707.7874 171.2115l0 0c0 -5.937546 4.8132935 -10.75087 10.7508545 -10.75087l142.62427 0c2.8512573 0 5.5858154 1.1326752 7.6019897 3.1488495c2.0161743 2.0161896 3.1488647 4.750717 3.1488647 7.6020203l0 43.002197c0 5.937546 -4.8133545 10.75087 -10.7508545 10.75087l-142.62427 0l0 0c-5.937561 0 -10.7508545 -4.813324 -10.7508545 -10.75087z" fill-rule="evenodd"/><path fill="#000000" d="m753.99664 193.64072q0 2.1875 -0.5625 3.828125q-0.5625 1.625 -1.640625 2.703125q-1.0625 1.078125 -2.625 1.609375q-1.5625 0.53125 -3.71875 0.53125l-3.5625 0q-0.3125 0 -0.578125 -0.203125q-0.265625 -0.203125 -0.265625 -0.703125l0 -15.03125q0 -0.5 0.265625 -0.703125q0.265625 -0.203125 0.578125 -0.203125l3.8125 0q2.1875 0 3.6875 0.578125q1.515625 0.5625 2.53125 1.625q1.03125 1.046875 1.546875 2.5625q0.53125 1.515625 0.53125 3.40625zm-2.359375 0.09375q0 -1.359375 -0.34375 -2.53125q-0.328125 -1.1875 -1.046875 -2.046875q-0.71875 -0.859375 -1.828125 -1.34375q-1.109375 -0.484375 -2.859375 -0.484375l-2.265625 0l0 13.109375l2.296875 0q1.609375 0 2.71875 -0.40625q1.109375 -0.40625 1.84375 -1.234375q0.75 -0.828125 1.109375 -2.078125q0.375 -1.265625 0.375 -2.984375zm15.556091 1.890625q0 0.5 -0.25 0.71875q-0.25 0.21875 -0.578125 0.21875l-7.6875 0q0 0.96875 0.1875 1.75q0.203125 0.78125 0.65625 1.34375q0.46875 0.5625 1.1875 0.859375q0.734375 0.296875 1.78125 0.296875q0.84375 0 1.484375 -0.125q0.65625 -0.140625 1.125 -0.3125q0.484375 -0.171875 0.78125 -0.296875q0.3125 -0.140625 0.46875 -0.140625q0.09375 0 0.15625 0.046875q0.078125 0.03125 0.109375 0.125q0.046875 0.09375 0.0625 0.265625q0.03125 0.15625 0.03125 0.390625q0 0.171875 -0.015625 0.296875q-0.015625 0.125 -0.046875 0.21875q-0.015625 0.09375 -0.0625 0.171875q-0.03125 0.078125 -0.109375 0.15625q-0.078125 0.0625 -0.4375 0.234375q-0.34375 0.15625 -0.90625 0.3125q-0.546875 0.15625 -1.28125 0.28125q-0.734375 0.125 -1.578125 0.125q-1.4375 0 -2.53125 -0.40625q-1.078125 -0.40625 -1.828125 -1.1875q-0.734375 -0.796875 -1.125 -2.0q-0.375 -1.203125 -0.375 -2.78125q0 -1.515625 0.390625 -2.71875q0.390625 -1.203125 1.125 -2.046875q0.75 -0.84375 1.78125 -1.28125q1.046875 -0.453125 2.328125 -0.453125q1.390625 0 2.359375 0.453125q0.96875 0.4375 1.59375 1.1875q0.625 0.734375 0.90625 1.75q0.296875 1.015625 0.296875 2.15625l0 0.390625zm-2.15625 -0.640625q0.03125 -1.6875 -0.75 -2.65625q-0.78125 -0.96875 -2.34375 -0.96875q-0.78125 0 -1.390625 0.3125q-0.59375 0.296875 -1.0 0.796875q-0.40625 0.484375 -0.625 1.140625q-0.21875 0.65625 -0.25 1.375l6.359375 0zm13.841187 5.21875q0 0.21875 -0.015625 0.390625q0 0.15625 -0.03125 0.265625q-0.03125 0.109375 -0.078125 0.203125q-0.046875 0.078125 -0.21875 0.25q-0.15625 0.15625 -0.546875 0.40625q-0.390625 0.234375 -0.890625 0.421875q-0.484375 0.1875 -1.0625 0.296875q-0.5625 0.125 -1.171875 0.125q-1.265625 0 -2.25 -0.40625q-0.96875 -0.421875 -1.625 -1.21875q-0.65625 -0.8125 -1.0 -1.96875q-0.34375 -1.171875 -0.34375 -2.703125q0 -1.71875 0.421875 -2.953125q0.421875 -1.25 1.15625 -2.046875q0.734375 -0.796875 1.734375 -1.171875q1.0 -0.390625 2.15625 -0.390625q0.5625 0 1.078125 0.109375q0.53125 0.09375 0.96875 0.265625q0.453125 0.171875 0.796875 0.390625q0.34375 0.21875 0.5 0.375q0.15625 0.15625 0.203125 0.25q0.0625 0.09375 0.09375 0.21875q0.046875 0.125 0.0625 0.28125q0.015625 0.15625 0.015625 0.390625q0 0.5 -0.125 0.703125q-0.109375 0.203125 -0.28125 0.203125q-0.1875 0 -0.453125 -0.21875q-0.25 -0.21875 -0.640625 -0.46875q-0.390625 -0.265625 -0.953125 -0.46875q-0.546875 -0.21875 -1.296875 -0.21875q-1.546875 0 -2.375 1.1875q-0.828125 1.1875 -0.828125 3.453125q0 1.125 0.21875 1.984375q0.21875 0.859375 0.625 1.4375q0.421875 0.5625 1.03125 0.84375q0.609375 0.28125 1.390625 0.28125q0.734375 0 1.296875 -0.234375q0.5625 -0.234375 0.96875 -0.515625q0.40625 -0.28125 0.6875 -0.5q0.28125 -0.234375 0.4375 -0.234375q0.09375 0 0.15625 0.046875q0.0625 0.046875 0.109375 0.171875q0.046875 0.125 0.0625 0.3125q0.015625 0.1875 0.015625 0.453125zm5.0059814 1.78125q0 0.109375 -0.0625 0.1875q-0.046875 0.0625 -0.171875 0.125q-0.109375 0.046875 -0.3125 0.0625q-0.203125 0.03125 -0.53125 0.03125q-0.3125 0 -0.53125 -0.03125q-0.203125 -0.015625 -0.328125 -0.0625q-0.125 -0.0625 -0.171875 -0.125q-0.046875 -0.078125 -0.046875 -0.1875l0 -11.71875q0 -0.078125 0.046875 -0.15625q0.046875 -0.078125 0.171875 -0.125q0.125 -0.0625 0.328125 -0.078125q0.21875 -0.03125 0.53125 -0.03125q0.328125 0 0.53125 0.03125q0.203125 0.015625 0.3125 0.078125q0.125 0.046875 0.171875 0.125q0.0625 0.078125 0.0625 0.15625l0 11.71875zm0.25 -15.671875q0 0.765625 -0.296875 1.046875q-0.28125 0.265625 -1.046875 0.265625q-0.75 0 -1.03125 -0.265625q-0.28125 -0.28125 -0.28125 -1.015625q0 -0.75 0.28125 -1.015625q0.28125 -0.28125 1.0625 -0.28125q0.75 0 1.03125 0.265625q0.28125 0.265625 0.28125 1.0zm11.070557 12.484375q0 0.90625 -0.328125 1.609375q-0.328125 0.703125 -0.953125 1.1875q-0.609375 0.46875 -1.453125 0.71875q-0.84375 0.25 -1.859375 0.25q-0.625 0 -1.1875 -0.109375q-0.5625 -0.09375 -1.015625 -0.234375q-0.453125 -0.15625 -0.765625 -0.3125q-0.3125 -0.171875 -0.453125 -0.296875q-0.140625 -0.125 -0.21875 -0.359375q-0.0625 -0.234375 -0.0625 -0.640625q0 -0.25 0.03125 -0.421875q0.03125 -0.171875 0.0625 -0.265625q0.046875 -0.109375 0.109375 -0.15625q0.078125 -0.046875 0.171875 -0.046875q0.140625 0 0.421875 0.1875q0.28125 0.171875 0.6875 0.375q0.40625 0.203125 0.96875 0.390625q0.5625 0.171875 1.296875 0.171875q0.546875 0 0.984375 -0.109375q0.4375 -0.125 0.765625 -0.34375q0.328125 -0.234375 0.5 -0.578125q0.171875 -0.359375 0.171875 -0.84375q0 -0.5 -0.25 -0.828125q-0.25 -0.34375 -0.671875 -0.59375q-0.40625 -0.265625 -0.9375 -0.46875q-0.515625 -0.203125 -1.078125 -0.421875q-0.546875 -0.234375 -1.078125 -0.5q-0.515625 -0.28125 -0.9375 -0.6875q-0.421875 -0.40625 -0.671875 -0.96875q-0.25 -0.5625 -0.25 -1.34375q0 -0.6875 0.265625 -1.3125q0.265625 -0.640625 0.796875 -1.109375q0.53125 -0.46875 1.328125 -0.75q0.8125 -0.296875 1.875 -0.296875q0.46875 0 0.9375 0.078125q0.46875 0.078125 0.84375 0.203125q0.375 0.109375 0.640625 0.25q0.265625 0.125 0.40625 0.234375q0.140625 0.109375 0.1875 0.1875q0.046875 0.078125 0.0625 0.171875q0.015625 0.09375 0.03125 0.25q0.03125 0.140625 0.03125 0.34375q0 0.21875 -0.03125 0.390625q-0.015625 0.15625 -0.0625 0.265625q-0.046875 0.09375 -0.109375 0.140625q-0.0625 0.046875 -0.140625 0.046875q-0.109375 0 -0.34375 -0.140625q-0.21875 -0.140625 -0.578125 -0.296875q-0.34375 -0.171875 -0.8125 -0.3125q-0.46875 -0.140625 -1.09375 -0.140625q-0.546875 0 -0.96875 0.125q-0.40625 0.109375 -0.671875 0.34375q-0.265625 0.234375 -0.40625 0.546875q-0.140625 0.3125 -0.140625 0.671875q0 0.5 0.265625 0.859375q0.265625 0.34375 0.671875 0.609375q0.421875 0.25 0.953125 0.46875q0.53125 0.203125 1.078125 0.421875q0.5625 0.21875 1.09375 0.5q0.546875 0.265625 0.96875 0.65625q0.421875 0.390625 0.671875 0.9375q0.25 0.546875 0.25 1.296875zm5.222473 3.1875q0 0.109375 -0.0625 0.1875q-0.046875 0.0625 -0.171875 0.125q-0.109375 0.046875 -0.3125 0.0625q-0.203125 0.03125 -0.53125 0.03125q-0.3125 0 -0.53125 -0.03125q-0.203125 -0.015625 -0.328125 -0.0625q-0.125 -0.0625 -0.171875 -0.125q-0.046875 -0.078125 -0.046875 -0.1875l0 -11.71875q0 -0.078125 0.046875 -0.15625q0.046875 -0.078125 0.171875 -0.125q0.125 -0.0625 0.328125 -0.078125q0.21875 -0.03125 0.53125 -0.03125q0.328125 0 0.53125 0.03125q0.203125 0.015625 0.3125 0.078125q0.125 0.046875 0.171875 0.125q0.0625 0.078125 0.0625 0.15625l0 11.71875zm0.25 -15.671875q0 0.765625 -0.296875 1.046875q-0.28125 0.265625 -1.046875 0.265625q-0.75 0 -1.03125 -0.265625q-0.28125 -0.28125 -0.28125 -1.015625q0 -0.75 0.28125 -1.015625q0.28125 -0.28125 1.0625 -0.28125q0.75 0 1.03125 0.265625q0.28125 0.265625 0.28125 1.0zm14.617371 9.6875q0 1.4375 -0.390625 2.640625q-0.375 1.203125 -1.125 2.078125q-0.734375 0.859375 -1.875 1.359375q-1.125 0.484375 -2.609375 0.484375q-1.4375 0 -2.515625 -0.421875q-1.0625 -0.4375 -1.78125 -1.25q-0.71875 -0.828125 -1.078125 -2.0q-0.34375 -1.171875 -0.34375 -2.65625q0 -1.4375 0.359375 -2.640625q0.375 -1.203125 1.125 -2.0625q0.75 -0.875 1.875 -1.359375q1.125 -0.484375 2.609375 -0.484375q1.453125 0 2.515625 0.4375q1.078125 0.421875 1.796875 1.25q0.71875 0.8125 1.078125 1.984375q0.359375 1.171875 0.359375 2.640625zm-2.265625 0.140625q0 -0.953125 -0.1875 -1.796875q-0.171875 -0.84375 -0.578125 -1.484375q-0.390625 -0.640625 -1.09375 -1.0q-0.6875 -0.375 -1.71875 -0.375q-0.9375 0 -1.625 0.34375q-0.6875 0.328125 -1.125 0.953125q-0.4375 0.609375 -0.65625 1.46875q-0.21875 0.84375 -0.21875 1.84375q0 0.953125 0.171875 1.8125q0.1875 0.84375 0.59375 1.484375q0.40625 0.625 1.09375 1.0q0.6875 0.359375 1.71875 0.359375q0.9375 0 1.625 -0.328125q0.6875 -0.34375 1.125 -0.953125q0.453125 -0.625 0.65625 -1.46875q0.21875 -0.84375 0.21875 -1.859375zm15.510132 5.84375q0 0.109375 -0.0625 0.1875q-0.046875 0.0625 -0.171875 0.125q-0.109375 0.046875 -0.3125 0.0625q-0.203125 0.03125 -0.515625 0.03125q-0.328125 0 -0.546875 -0.03125q-0.203125 -0.015625 -0.328125 -0.0625q-0.109375 -0.0625 -0.15625 -0.125q-0.046875 -0.078125 -0.046875 -0.1875l0 -6.859375q0 -1.0 -0.15625 -1.609375q-0.15625 -0.609375 -0.46875 -1.046875q-0.296875 -0.453125 -0.78125 -0.6875q-0.46875 -0.234375 -1.09375 -0.234375q-0.796875 0 -1.609375 0.578125q-0.796875 0.5625 -1.6875 1.671875l0 8.1875q0 0.109375 -0.0625 0.1875q-0.046875 0.0625 -0.171875 0.125q-0.109375 0.046875 -0.3125 0.0625q-0.203125 0.03125 -0.53125 0.03125q-0.3125 0 -0.53125 -0.03125q-0.203125 -0.015625 -0.328125 -0.0625q-0.125 -0.0625 -0.171875 -0.125q-0.046875 -0.078125 -0.046875 -0.1875l0 -11.71875q0 -0.09375 0.03125 -0.15625q0.046875 -0.078125 0.15625 -0.140625q0.125 -0.0625 0.3125 -0.078125q0.1875 -0.015625 0.484375 -0.015625q0.28125 0 0.46875 0.015625q0.1875 0.015625 0.296875 0.078125q0.109375 0.0625 0.15625 0.140625q0.046875 0.0625 0.046875 0.15625l0 1.5625q0.984375 -1.109375 1.96875 -1.625q0.984375 -0.515625 1.984375 -0.515625q1.171875 0 1.96875 0.40625q0.796875 0.390625 1.296875 1.0625q0.5 0.65625 0.703125 1.546875q0.21875 0.890625 0.21875 2.140625l0 7.140625zm11.27063 -3.1875q0 0.90625 -0.328125 1.609375q-0.328125 0.703125 -0.95318604 1.1875q-0.609375 0.46875 -1.453125 0.71875q-0.84375 0.25 -1.859375 0.25q-0.625 0 -1.1875 -0.109375q-0.5625 -0.09375 -1.015625 -0.234375q-0.453125 -0.15625 -0.765625 -0.3125q-0.3125 -0.171875 -0.453125 -0.296875q-0.140625 -0.125 -0.21875 -0.359375q-0.0625 -0.234375 -0.0625 -0.640625q0 -0.25 0.03125 -0.421875q0.03125 -0.171875 0.0625 -0.265625q0.046875 -0.109375 0.109375 -0.15625q0.078125 -0.046875 0.171875 -0.046875q0.140625 0 0.421875 0.1875q0.28125 0.171875 0.6875 0.375q0.40625 0.203125 0.96875 0.390625q0.5625 0.171875 1.296875 0.171875q0.546875 0 0.984375 -0.109375q0.4375 -0.125 0.765625 -0.34375q0.328125 -0.234375 0.5 -0.578125q0.171875 -0.359375 0.171875 -0.84375q0 -0.5 -0.25 -0.828125q-0.25 -0.34375 -0.671875 -0.59375q-0.40625 -0.265625 -0.9375 -0.46875q-0.515625 -0.203125 -1.078125 -0.421875q-0.546875 -0.234375 -1.078125 -0.5q-0.515625 -0.28125 -0.9375 -0.6875q-0.421875 -0.40625 -0.671875 -0.96875q-0.25 -0.5625 -0.25 -1.34375q0 -0.6875 0.265625 -1.3125q0.265625 -0.640625 0.796875 -1.109375q0.53125 -0.46875 1.328125 -0.75q0.8125 -0.296875 1.875 -0.296875q0.46875 0 0.9375 0.078125q0.46875 0.078125 0.84375 0.203125q0.375 0.109375 0.640625 0.25q0.265625 0.125 0.40625 0.234375q0.14068604 0.109375 0.18756104 0.1875q0.046875 0.078125 0.0625 0.171875q0.015625 0.09375 0.03125 0.25q0.03125 0.140625 0.03125 0.34375q0 0.21875 -0.03125 0.390625q-0.015625 0.15625 -0.0625 0.265625q-0.046875 0.09375 -0.109375 0.140625q-0.0625 0.046875 -0.14068604 0.046875q-0.109375 0 -0.34375 -0.140625q-0.21875 -0.140625 -0.578125 -0.296875q-0.34375 -0.171875 -0.8125 -0.3125q-0.46875 -0.140625 -1.09375 -0.140625q-0.546875 0 -0.96875 0.125q-0.40625 0.109375 -0.671875 0.34375q-0.265625 0.234375 -0.40625 0.546875q-0.140625 0.3125 -0.140625 0.671875q0 0.5 0.265625 0.859375q0.265625 0.34375 0.671875 0.609375q0.421875 0.25 0.953125 0.46875q0.53125 0.203125 1.078125 0.421875q0.5625 0.21875 1.09375 0.5q0.546875 0.265625 0.96875 0.65625q0.42193604 0.390625 0.67193604 0.9375q0.25 0.546875 0.25 1.296875z" fill-rule="nonzero"/><path fill="#eeeeee" d="m723.4508 361.25677l0 0c0 -5.9375305 4.8132935 -10.7508545 10.7508545 -10.7508545l142.62427 0c2.8512573 0 5.5858154 1.1326599 7.6019897 3.1488342c2.0161743 2.0161743 3.1488647 4.750702 3.1488647 7.6020203l0 43.002197c0 5.9375305 -4.8133545 10.750885 -10.7508545 10.750885l-142.62427 0l0 0c-5.937561 0 -10.7508545 -4.8133545 -10.7508545 -10.750885z" fill-rule="evenodd"/><path stroke="#595959" stroke-width="1.0" stroke-linejoin="round" stroke-linecap="butt" d="m723.4508 361.25677l0 0c0 -5.9375305 4.8132935 -10.7508545 10.7508545 -10.7508545l142.62427 0c2.8512573 0 5.5858154 1.1326599 7.6019897 3.1488342c2.0161743 2.0161743 3.1488647 4.750702 3.1488647 7.6020203l0 43.002197c0 5.9375305 -4.8133545 10.750885 -10.7508545 10.750885l-142.62427 0l0 0c-5.937561 0 -10.7508545 -4.8133545 -10.7508545 -10.750885z" fill-rule="evenodd"/><path fill="#000000" d="m759.02295 391.9985q0 0.09375 -0.046875 0.1875q-0.03125 0.078125 -0.171875 0.140625q-0.125 0.046875 -0.34375 0.078125q-0.21875 0.03125 -0.578125 0.03125q-0.453125 0 -0.75 -0.046875q-0.28125 -0.03125 -0.421875 -0.125q-0.140625 -0.109375 -0.234375 -0.25l-6.1875 -8.421875l0 8.421875q0 0.09375 -0.0625 0.1875q-0.046875 0.078125 -0.1875 0.125q-0.125 0.046875 -0.34375 0.078125q-0.203125 0.03125 -0.53125 0.03125q-0.3125 0 -0.53125 -0.03125q-0.21875 -0.03125 -0.359375 -0.078125q-0.125 -0.046875 -0.1875 -0.125q-0.046875 -0.09375 -0.046875 -0.1875l0 -16.15625q0 -0.109375 0.046875 -0.1875q0.0625 -0.078125 0.1875 -0.125q0.140625 -0.046875 0.359375 -0.078125q0.21875 -0.03125 0.53125 -0.03125q0.328125 0 0.53125 0.03125q0.21875 0.03125 0.34375 0.078125q0.140625 0.046875 0.1875 0.125q0.0625 0.078125 0.0625 0.1875l0 7.484375l5.953125 -7.484375q0.078125 -0.125 0.171875 -0.203125q0.109375 -0.078125 0.265625 -0.125q0.15625 -0.046875 0.359375 -0.0625q0.21875 -0.03125 0.5625 -0.03125q0.328125 0 0.53125 0.03125q0.21875 0.03125 0.34375 0.09375q0.125 0.046875 0.171875 0.125q0.046875 0.078125 0.046875 0.171875q0 0.171875 -0.09375 0.34375q-0.078125 0.15625 -0.3125 0.453125l-5.59375 6.6875l6.015625 7.984375q0.234375 0.34375 0.265625 0.46875q0.046875 0.125 0.046875 0.203125zm12.291443 0.03125q0 0.109375 -0.0625 0.1875q-0.046875 0.0625 -0.171875 0.125q-0.109375 0.046875 -0.3125 0.0625q-0.203125 0.03125 -0.515625 0.03125q-0.328125 0 -0.546875 -0.03125q-0.203125 -0.015625 -0.328125 -0.0625q-0.109375 -0.0625 -0.15625 -0.125q-0.046875 -0.078125 -0.046875 -0.1875l0 -6.859375q0 -1.0 -0.15625 -1.609375q-0.15625 -0.609375 -0.46875 -1.046875q-0.296875 -0.453125 -0.78125 -0.6875q-0.46875 -0.234375 -1.09375 -0.234375q-0.796875 0 -1.609375 0.578125q-0.796875 0.5625 -1.6875 1.671875l0 8.1875q0 0.109375 -0.0625 0.1875q-0.046875 0.0625 -0.171875 0.125q-0.109375 0.046875 -0.3125 0.0625q-0.203125 0.03125 -0.53125 0.03125q-0.3125 0 -0.53125 -0.03125q-0.203125 -0.015625 -0.328125 -0.0625q-0.125 -0.0625 -0.171875 -0.125q-0.046875 -0.078125 -0.046875 -0.1875l0 -11.71875q0 -0.09375 0.03125 -0.15625q0.046875 -0.078125 0.15625 -0.140625q0.125 -0.0625 0.3125 -0.078125q0.1875 -0.015625 0.484375 -0.015625q0.28125 0 0.46875 0.015625q0.1875 0.015625 0.296875 0.078125q0.109375 0.0625 0.15625 0.140625q0.046875 0.0625 0.046875 0.15625l0 1.5625q0.984375 -1.109375 1.96875 -1.625q0.984375 -0.515625 1.984375 -0.515625q1.171875 0 1.96875 0.40625q0.796875 0.390625 1.296875 1.0625q0.5 0.65625 0.703125 1.546875q0.21875 0.890625 0.21875 2.140625l0 7.140625zm14.817444 -5.984375q0 1.4375 -0.390625 2.640625q-0.375 1.203125 -1.125 2.078125q-0.734375 0.859375 -1.875 1.359375q-1.125 0.484375 -2.609375 0.484375q-1.4375 0 -2.515625 -0.421875q-1.0625 -0.4375 -1.78125 -1.25q-0.71875 -0.828125 -1.078125 -2.0q-0.34375 -1.171875 -0.34375 -2.65625q0 -1.4375 0.359375 -2.640625q0.375 -1.203125 1.125 -2.0625q0.75 -0.875 1.875 -1.359375q1.125 -0.484375 2.609375 -0.484375q1.453125 0 2.515625 0.4375q1.078125 0.421875 1.796875 1.25q0.71875 0.8125 1.078125 1.984375q0.359375 1.171875 0.359375 2.640625zm-2.265625 0.140625q0 -0.953125 -0.1875 -1.796875q-0.171875 -0.84375 -0.578125 -1.484375q-0.390625 -0.640625 -1.09375 -1.0q-0.6875 -0.375 -1.71875 -0.375q-0.9375 0 -1.625 0.34375q-0.6875 0.328125 -1.125 0.953125q-0.4375 0.609375 -0.65625 1.46875q-0.21875 0.84375 -0.21875 1.84375q0 0.953125 0.171875 1.8125q0.1875 0.84375 0.59375 1.484375q0.40625 0.625 1.09375 1.0q0.6875 0.359375 1.71875 0.359375q0.9375 0 1.625 -0.328125q0.6875 -0.34375 1.125 -0.953125q0.453125 -0.625 0.65625 -1.46875q0.21875 -0.84375 0.21875 -1.859375zm21.70282 -5.890625q0 0.09375 -0.03125 0.21875q-0.015625 0.125 -0.078125 0.328125l-3.453125 11.125q-0.046875 0.140625 -0.125 0.234375q-0.078125 0.09375 -0.234375 0.140625q-0.15625 0.046875 -0.421875 0.0625q-0.25 0.03125 -0.640625 0.03125q-0.40625 0 -0.6875 -0.03125q-0.265625 -0.015625 -0.421875 -0.0625q-0.15625 -0.0625 -0.234375 -0.15625q-0.078125 -0.09375 -0.125 -0.21875l-2.453125 -8.5l-0.03125 -0.109375l-0.03125 0.109375l-2.28125 8.5q-0.03125 0.140625 -0.125 0.234375q-0.078125 0.09375 -0.25 0.140625q-0.15625 0.046875 -0.4375 0.0625q-0.265625 0.03125 -0.65625 0.03125q-0.390625 0 -0.65625 -0.03125q-0.25 -0.015625 -0.421875 -0.0625q-0.15625 -0.0625 -0.234375 -0.15625q-0.078125 -0.09375 -0.109375 -0.21875l-3.421875 -11.125q-0.078125 -0.203125 -0.109375 -0.328125q-0.015625 -0.125 -0.015625 -0.21875q0 -0.125 0.046875 -0.1875q0.0625 -0.078125 0.1875 -0.125q0.125 -0.046875 0.328125 -0.046875q0.203125 -0.015625 0.5 -0.015625q0.375 0 0.59375 0.015625q0.21875 0.015625 0.328125 0.0625q0.125 0.046875 0.171875 0.140625q0.0625 0.078125 0.09375 0.1875l2.828125 9.65625l0.03125 0.125l0.015625 -0.125l2.59375 -9.65625q0.03125 -0.109375 0.078125 -0.1875q0.0625 -0.09375 0.171875 -0.140625q0.125 -0.046875 0.328125 -0.0625q0.203125 -0.015625 0.53125 -0.015625q0.3125 0 0.515625 0.015625q0.203125 0.015625 0.3125 0.0625q0.125 0.046875 0.171875 0.125q0.046875 0.078125 0.078125 0.1875l2.796875 9.671875l0.03125 0.125l0.015625 -0.125l2.78125 -9.65625q0.03125 -0.109375 0.078125 -0.1875q0.0625 -0.09375 0.1875 -0.140625q0.125 -0.046875 0.328125 -0.0625q0.21875 -0.015625 0.5625 -0.015625q0.3125 0 0.5 0.015625q0.1875 0 0.296875 0.0625q0.109375 0.046875 0.15625 0.109375q0.046875 0.0625 0.046875 0.1875zm4.8206787 11.734375q0 0.109375 -0.0625 0.1875q-0.046875 0.0625 -0.171875 0.125q-0.109375 0.046875 -0.3125 0.0625q-0.203125 0.03125 -0.53125 0.03125q-0.3125 0 -0.53125 -0.03125q-0.203125 -0.015625 -0.328125 -0.0625q-0.125 -0.0625 -0.171875 -0.125q-0.046875 -0.078125 -0.046875 -0.1875l0 -17.390625q0 -0.09375 0.046875 -0.171875q0.046875 -0.078125 0.171875 -0.125q0.125 -0.0625 0.328125 -0.078125q0.21875 -0.03125 0.53125 -0.03125q0.328125 0 0.53125 0.03125q0.203125 0.015625 0.3125 0.078125q0.125 0.046875 0.171875 0.125q0.0625 0.078125 0.0625 0.171875l0 17.390625zm13.961182 -6.359375q0 0.5 -0.25 0.71875q-0.25 0.21875 -0.578125 0.21875l-7.6875 0q0 0.96875 0.1875 1.75q0.203125 0.78125 0.65625 1.34375q0.46875 0.5625 1.1875 0.859375q0.734375 0.296875 1.78125 0.296875q0.84375 0 1.484375 -0.125q0.65625 -0.140625 1.125 -0.3125q0.484375 -0.171875 0.78125 -0.296875q0.3125 -0.140625 0.46875 -0.140625q0.09375 0 0.15625 0.046875q0.078125 0.03125 0.109375 0.125q0.046875 0.09375 0.0625 0.265625q0.03125 0.15625 0.03125 0.390625q0 0.171875 -0.015625 0.296875q-0.015625 0.125 -0.046875 0.21875q-0.015625 0.09375 -0.0625 0.171875q-0.03125 0.078125 -0.109375 0.15625q-0.078125 0.0625 -0.4375 0.234375q-0.34375 0.15625 -0.90625 0.3125q-0.546875 0.15625 -1.28125 0.28125q-0.734375 0.125 -1.578125 0.125q-1.4375 0 -2.53125 -0.40625q-1.078125 -0.40625 -1.828125 -1.1875q-0.734375 -0.796875 -1.125 -2.0q-0.375 -1.203125 -0.375 -2.78125q0 -1.515625 0.390625 -2.71875q0.390625 -1.203125 1.125 -2.046875q0.75 -0.84375 1.78125 -1.28125q1.046875 -0.453125 2.328125 -0.453125q1.390625 0 2.359375 0.453125q0.96875 0.4375 1.59375 1.1875q0.625 0.734375 0.90625 1.75q0.296875 1.015625 0.296875 2.15625l0 0.390625zm-2.15625 -0.640625q0.03125 -1.6875 -0.75 -2.65625q-0.78125 -0.96875 -2.34375 -0.96875q-0.78125 0 -1.390625 0.3125q-0.59375 0.296875 -1.0 0.796875q-0.40625 0.484375 -0.625 1.140625q-0.21875 0.65625 -0.25 1.375l6.359375 0zm15.466187 7.0q0 0.109375 -0.046875 0.1875q-0.046875 0.078125 -0.15625 0.125q-0.109375 0.046875 -0.296875 0.0625q-0.1875 0.03125 -0.4375 0.03125q-0.28125 0 -0.46875 -0.03125q-0.171875 -0.015625 -0.296875 -0.0625q-0.109375 -0.046875 -0.171875 -0.125q-0.046875 -0.078125 -0.046875 -0.1875l0 -1.546875q-0.921875 1.0 -1.921875 1.5625q-0.984375 0.5625 -2.171875 0.5625q-1.296875 0 -2.203125 -0.5q-0.90625 -0.5 -1.484375 -1.34375q-0.5625 -0.859375 -0.828125 -2.015625q-0.25 -1.15625 -0.25 -2.4375q0 -1.5 0.328125 -2.71875q0.328125 -1.21875 0.953125 -2.078125q0.640625 -0.859375 1.578125 -1.3125q0.953125 -0.46875 2.1875 -0.46875q1.03125 0 1.875 0.453125q0.859375 0.4375 1.6875 1.3125l0 -6.796875q0 -0.09375 0.046875 -0.171875q0.046875 -0.09375 0.171875 -0.140625q0.140625 -0.046875 0.34375 -0.078125q0.203125 -0.03125 0.515625 -0.03125q0.328125 0 0.53125 0.03125q0.203125 0.03125 0.3125 0.078125q0.125 0.046875 0.1875 0.140625q0.0625 0.078125 0.0625 0.171875l0 17.328125zm-2.171875 -8.234375q-0.859375 -1.078125 -1.6875 -1.640625q-0.8125 -0.578125 -1.6875 -0.578125q-0.828125 0 -1.40625 0.390625q-0.5625 0.390625 -0.921875 1.03125q-0.359375 0.640625 -0.53125 1.453125q-0.15625 0.796875 -0.15625 1.625q0 0.890625 0.140625 1.734375q0.140625 0.84375 0.46875 1.515625q0.34375 0.65625 0.90625 1.046875q0.5625 0.390625 1.40625 0.390625q0.421875 0 0.8125 -0.109375q0.40625 -0.125 0.828125 -0.390625q0.421875 -0.28125 0.875 -0.703125q0.453125 -0.4375 0.953125 -1.078125l0 -4.6875zm15.926819 -2.9375q0 0.453125 -0.125 0.65625q-0.125 0.203125 -0.3125 0.203125l-1.6875 0q0.453125 0.46875 0.640625 1.03125q0.1875 0.5625 0.1875 1.171875q0 1.015625 -0.328125 1.796875q-0.328125 0.78125 -0.9375 1.328125q-0.609375 0.53125 -1.4375 0.828125q-0.828125 0.28125 -1.84375 0.28125q-0.71875 0 -1.359375 -0.1875q-0.640625 -0.1875 -1.0 -0.484375q-0.234375 0.234375 -0.390625 0.546875q-0.140625 0.296875 -0.140625 0.6875q0 0.453125 0.421875 0.75q0.421875 0.296875 1.125 0.328125l3.0625 0.125q0.875 0.03125 1.59375 0.25q0.734375 0.203125 1.265625 0.609375q0.53125 0.390625 0.828125 0.96875q0.3125 0.578125 0.3125 1.34375q0 0.8125 -0.34375 1.53125q-0.34375 0.734375 -1.046875 1.28125q-0.6875 0.5625 -1.765625 0.875q-1.078125 0.328125 -2.546875 0.328125q-1.421875 0 -2.421875 -0.25q-1.0 -0.234375 -1.640625 -0.65625q-0.625 -0.40625 -0.921875 -0.984375q-0.28125 -0.578125 -0.28125 -1.265625q0 -0.421875 0.09375 -0.828125q0.109375 -0.40625 0.328125 -0.765625q0.21875 -0.359375 0.53125 -0.6875q0.328125 -0.34375 0.734375 -0.671875q-0.625 -0.3125 -0.9375 -0.8125q-0.3125 -0.5 -0.3125 -1.0625q0 -0.796875 0.328125 -1.421875q0.328125 -0.625 0.8125 -1.125q-0.40625 -0.484375 -0.640625 -1.078125q-0.234375 -0.609375 -0.234375 -1.46875q0 -1.0 0.328125 -1.796875q0.34375 -0.796875 0.9375 -1.34375q0.609375 -0.546875 1.453125 -0.828125q0.84375 -0.296875 1.828125 -0.296875q0.53125 0 0.984375 0.0625q0.46875 0.046875 0.875 0.15625l3.546875 0q0.21875 0 0.328125 0.21875q0.109375 0.203125 0.109375 0.65625zm-3.359375 3.078125q0 -1.203125 -0.65625 -1.859375q-0.65625 -0.671875 -1.875 -0.671875q-0.625 0 -1.09375 0.203125q-0.453125 0.203125 -0.765625 0.578125q-0.296875 0.359375 -0.453125 0.84375q-0.140625 0.46875 -0.140625 0.984375q0 1.15625 0.65625 1.828125q0.65625 0.65625 1.84375 0.65625q0.640625 0 1.109375 -0.203125q0.46875 -0.203125 0.765625 -0.546875q0.3125 -0.359375 0.453125 -0.828125q0.15625 -0.46875 0.15625 -0.984375zm1.078125 9.28125q0 -0.75 -0.625 -1.15625q-0.609375 -0.421875 -1.671875 -0.4375l-3.03125 -0.109375q-0.40625 0.328125 -0.671875 0.625q-0.265625 0.28125 -0.421875 0.546875q-0.15625 0.265625 -0.21875 0.53125q-0.0625 0.265625 -0.0625 0.53125q0 0.84375 0.859375 1.28125q0.859375 0.4375 2.390625 0.4375q0.984375 0 1.640625 -0.1875q0.65625 -0.1875 1.0625 -0.5q0.40625 -0.3125 0.578125 -0.71875q0.171875 -0.40625 0.171875 -0.84375zm14.810181 -7.546875q0 0.5 -0.25 0.71875q-0.25 0.21875 -0.578125 0.21875l-7.6875 0q0 0.96875 0.1875 1.75q0.203125 0.78125 0.65625 1.34375q0.46875 0.5625 1.1875 0.859375q0.734375 0.296875 1.78125 0.296875q0.84375 0 1.484375 -0.125q0.65625 -0.140625 1.125 -0.3125q0.484375 -0.171875 0.78125 -0.296875q0.3125 -0.140625 0.46875 -0.140625q0.09375 0 0.15625 0.046875q0.078125 0.03125 0.109375 0.125q0.046875 0.09375 0.0625 0.265625q0.03125 0.15625 0.03125 0.390625q0 0.171875 -0.015625 0.296875q-0.015625 0.125 -0.046875 0.21875q-0.015625 0.09375 -0.0625 0.171875q-0.03125 0.078125 -0.109375 0.15625q-0.078125 0.0625 -0.4375 0.234375q-0.34375 0.15625 -0.90625 0.3125q-0.546875 0.15625 -1.28125 0.28125q-0.734375 0.125 -1.578125 0.125q-1.4375 0 -2.53125 -0.40625q-1.078125 -0.40625 -1.828125 -1.1875q-0.734375 -0.796875 -1.125 -2.0q-0.375 -1.203125 -0.375 -2.78125q0 -1.515625 0.390625 -2.71875q0.390625 -1.203125 1.125 -2.046875q0.75 -0.84375 1.78125 -1.28125q1.046875 -0.453125 2.328125 -0.453125q1.390625 0 2.359375 0.453125q0.96875 0.4375 1.59375 1.1875q0.625 0.734375 0.90625 1.75q0.296875 1.015625 0.296875 2.15625l0 0.390625zm-2.15625 -0.640625q0.03125 -1.6875 -0.75 -2.65625q-0.78125 -0.96875 -2.34375 -0.96875q-0.78125 0 -1.390625 0.3125q-0.59375 0.296875 -1.0 0.796875q-0.40625 0.484375 -0.625 1.140625q-0.21875 0.65625 -0.25 1.375l6.359375 0z" fill-rule="nonzero"/><path fill="#000000" fill-opacity="0.0" d="m105.78543 169.25l218.33072 0l0 108.28348l-218.33072 0z" fill-rule="evenodd"/><path fill="#000000" d="m127.28543 193.495l-0.125 0.78125l-12.015625 0l0.1875 -0.78125l11.953125 0zm-9.828125 16.59375q-0.34375 1.265625 0.171875 1.828125q0.53125 0.5625 1.375 0.5625q0.859375 0 1.71875 -0.734375q0.875 -0.734375 1.71875 -3.125l0.546875 -1.515625l0.734375 0l-0.8125 2.4375q-0.84375 2.515625 -2.1875 3.453125q-1.328125 0.921875 -3.109375 0.921875q-1.578125 0 -2.421875 -0.671875q-0.828125 -0.6875 -0.984375 -1.921875q-0.140625 -1.234375 0.3125 -2.828125l6.0 -20.875q0.921875 -0.03125 1.828125 -0.140625q0.90625 -0.125 1.640625 -0.390625l-6.53125 23.0zm11.56662 -5.5q2.15625 -0.734375 3.90625 -1.4375q1.765625 -0.71875 2.8125 -1.53125q1.390625 -1.125 2.203125 -2.703125q0.8125 -1.59375 0.8125 -3.484375q0 -1.125 -0.15625 -1.421875q-0.15625 -0.3125 -0.453125 -0.3125q-0.96875 0 -2.09375 0.859375q-1.125 0.84375 -2.203125 2.328125q-1.078125 1.484375 -1.984375 3.390625q-0.90625 1.890625 -1.453125 4.03125q-0.546875 2.140625 -0.546875 4.265625q0 1.96875 0.734375 2.84375q0.734375 0.875 1.9375 0.875q1.390625 0 2.9375 -0.84375q1.546875 -0.859375 3.015625 -3.03125l0.625 0.3125q-0.734375 1.28125 -1.9375 2.484375q-1.203125 1.1875 -2.6875 1.953125q-1.484375 0.75 -3.15625 0.75q-1.546875 0 -2.703125 -0.625q-1.15625 -0.625 -1.78125 -1.828125q-0.609375 -1.21875 -0.609375 -3.0q0 -1.671875 0.609375 -3.734375q0.625 -2.0625 1.765625 -4.125q1.140625 -2.078125 2.71875 -3.8125q1.59375 -1.75 3.515625 -2.78125q1.9375 -1.046875 4.140625 -1.046875q1.203125 0 2.03125 0.640625q0.828125 0.625 0.828125 1.90625q0 1.546875 -0.90625 2.890625q-0.90625 1.328125 -2.40625 2.4375q-1.484375 1.09375 -3.21875 1.953125q-1.734375 0.84375 -3.40625 1.46875q-1.65625 0.609375 -2.9375 0.984375l0.046875 -0.65625zm25.786652 5.765625q0.15625 1.0 0.484375 1.390625q0.328125 0.390625 0.828125 0.390625q0.578125 0 1.1875 -0.671875q0.625 -0.6875 1.40625 -2.890625l0.5 -1.421875l0.734375 0l-0.96875 2.8125q-0.546875 1.546875 -1.265625 2.40625q-0.703125 0.84375 -1.5 1.1875q-0.796875 0.359375 -1.640625 0.359375q-1.203125 0 -2.09375 -0.765625q-0.890625 -0.78125 -1.125 -2.796875l-1.546875 -13.84375q-0.140625 -1.0 -0.46875 -1.375q-0.328125 -0.390625 -0.84375 -0.390625q-0.375 0 -0.78125 0.265625q-0.40625 0.265625 -0.84375 1.046875q-0.421875 0.765625 -0.953125 2.234375l-0.515625 1.4375l-0.734375 0l0.96875 -2.828125q0.578125 -1.546875 1.265625 -2.390625q0.703125 -0.859375 1.515625 -1.203125q0.8125 -0.34375 1.625 -0.34375q1.359375 0 2.171875 0.75q0.8125 0.75 1.046875 2.796875l1.546875 13.84375zm3.234375 -15.03125q-1.1875 1.078125 -2.078125 2.515625q-0.890625 1.421875 -1.515625 2.875q-0.609375 1.453125 -1.03125 2.640625q0 0 -0.390625 -0.015625q-0.390625 -0.015625 -0.390625 -0.015625q0.265625 -0.78125 0.609375 -1.71875q0.359375 -0.953125 0.859375 -2.0q0.5 -1.046875 1.21875 -2.140625q0.71875 -1.109375 1.640625 -2.140625q1.125 -1.28125 2.015625 -1.8125q0.890625 -0.546875 1.859375 -0.546875q0.734375 0 1.203125 0.390625q0.484375 0.375 0.484375 1.03125q0 0.734375 -0.5625 1.296875q-0.546875 0.5625 -1.484375 0.5625q-0.84375 0 -1.46875 -0.328125q-0.609375 -0.328125 -0.96875 -0.59375zm-12.5625 16.234375q1.828125 -1.671875 3.21875 -3.90625q1.390625 -2.25 2.125 -4.140625q0 0 0.328125 0.078125q0.328125 0.078125 0.328125 0.078125q-0.390625 1.046875 -1.0 2.328125q-0.59375 1.265625 -1.515625 2.65625q-0.921875 1.390625 -2.28125 2.859375q-1.15625 1.203125 -2.09375 1.8125q-0.921875 0.59375 -1.8125 0.59375q-0.84375 0 -1.28125 -0.390625q-0.453125 -0.390625 -0.453125 -1.046875q0 -0.734375 0.578125 -1.296875q0.578125 -0.5625 1.4375 -0.5625q0.875 0 1.453125 0.3125q0.59375 0.3125 0.96875 0.625zm31.708176 -18.0625l-0.125 0.78125l-12.015625 0l0.1875 -0.78125l11.953125 0zm-9.828125 16.59375q-0.34375 1.265625 0.171875 1.828125q0.53125 0.5625 1.375 0.5625q0.859375 0 1.71875 -0.734375q0.875 -0.734375 1.71875 -3.125l0.546875 -1.515625l0.734375 0l-0.8125 2.4375q-0.84375 2.515625 -2.1875 3.453125q-1.328125 0.921875 -3.109375 0.921875q-1.578125 0 -2.421875 -0.671875q-0.828125 -0.6875 -0.984375 -1.921875q-0.140625 -1.234375 0.3125 -2.828125l6.0 -20.875q0.921875 -0.03125 1.828125 -0.140625q0.90625 -0.125 1.640625 -0.390625l-6.53125 23.0zm32.59665 -16.59375l-0.125 0.78125l-12.015625 0l0.1875 -0.78125l11.953125 0zm-9.828125 16.59375q-0.34375 1.265625 0.171875 1.828125q0.53125 0.5625 1.375 0.5625q0.859375 0 1.71875 -0.734375q0.875 -0.734375 1.71875 -3.125l0.546875 -1.515625l0.734375 0l-0.8125 2.4375q-0.84375 2.515625 -2.1875 3.453125q-1.328125 0.921875 -3.109375 0.921875q-1.578125 0 -2.421875 -0.671875q-0.828125 -0.6875 -0.984375 -1.921875q-0.140625 -1.234375 0.3125 -2.828125l6.0 -20.875q0.921875 -0.03125 1.828125 -0.140625q0.90625 -0.125 1.640625 -0.390625l-6.53125 23.0zm11.56662 -5.5q2.15625 -0.734375 3.90625 -1.4375q1.765625 -0.71875 2.8125 -1.53125q1.390625 -1.125 2.203125 -2.703125q0.8125 -1.59375 0.8125 -3.484375q0 -1.125 -0.15625 -1.421875q-0.15625 -0.3125 -0.453125 -0.3125q-0.96875 0 -2.09375 0.859375q-1.125 0.84375 -2.203125 2.328125q-1.078125 1.484375 -1.984375 3.390625q-0.90625 1.890625 -1.453125 4.03125q-0.546875 2.140625 -0.546875 4.265625q0 1.96875 0.734375 2.84375q0.734375 0.875 1.9375 0.875q1.390625 0 2.9375 -0.84375q1.546875 -0.859375 3.015625 -3.03125l0.625 0.3125q-0.734375 1.28125 -1.9375 2.484375q-1.203125 1.1875 -2.6875 1.953125q-1.484375 0.75 -3.15625 0.75q-1.546875 0 -2.703125 -0.625q-1.15625 -0.625 -1.78125 -1.828125q-0.609375 -1.21875 -0.609375 -3.0q0 -1.671875 0.609375 -3.734375q0.625 -2.0625 1.765625 -4.125q1.140625 -2.078125 2.71875 -3.8125q1.59375 -1.75 3.515625 -2.78125q1.9375 -1.046875 4.140625 -1.046875q1.203125 0 2.03125 0.640625q0.828125 0.625 0.828125 1.90625q0 1.546875 -0.90625 2.890625q-0.90625 1.328125 -2.40625 2.4375q-1.484375 1.09375 -3.21875 1.953125q-1.734375 0.84375 -3.40625 1.46875q-1.65625 0.609375 -2.9375 0.984375l0.046875 -0.65625zm25.786652 5.765625q0.15625 1.0 0.484375 1.390625q0.328125 0.390625 0.828125 0.390625q0.578125 0 1.1875 -0.671875q0.625 -0.6875 1.40625 -2.890625l0.5 -1.421875l0.734375 0l-0.96875 2.8125q-0.546875 1.546875 -1.265625 2.40625q-0.703125 0.84375 -1.5 1.1875q-0.796875 0.359375 -1.640625 0.359375q-1.203125 0 -2.09375 -0.765625q-0.890625 -0.78125 -1.125 -2.796875l-1.546875 -13.84375q-0.140625 -1.0 -0.46875 -1.375q-0.328125 -0.390625 -0.84375 -0.390625q-0.375 0 -0.78125 0.265625q-0.40625 0.265625 -0.84375 1.046875q-0.421875 0.765625 -0.953125 2.234375l-0.515625 1.4375l-0.734375 0l0.96875 -2.828125q0.578125 -1.546875 1.265625 -2.390625q0.703125 -0.859375 1.515625 -1.203125q0.8125 -0.34375 1.625 -0.34375q1.359375 0 2.171875 0.75q0.8125 0.75 1.046875 2.796875l1.546875 13.84375zm3.234375 -15.03125q-1.1875 1.078125 -2.078125 2.515625q-0.890625 1.421875 -1.515625 2.875q-0.609375 1.453125 -1.03125 2.640625q0 0 -0.390625 -0.015625q-0.390625 -0.015625 -0.390625 -0.015625q0.265625 -0.78125 0.609375 -1.71875q0.359375 -0.953125 0.859375 -2.0q0.5 -1.046875 1.21875 -2.140625q0.71875 -1.109375 1.640625 -2.140625q1.125 -1.28125 2.015625 -1.8125q0.890625 -0.546875 1.859375 -0.546875q0.734375 0 1.203125 0.390625q0.484375 0.375 0.484375 1.03125q0 0.734375 -0.5625 1.296875q-0.546875 0.5625 -1.484375 0.5625q-0.84375 0 -1.46875 -0.328125q-0.609375 -0.328125 -0.96875 -0.59375zm-12.5625 16.234375q1.828125 -1.671875 3.21875 -3.90625q1.390625 -2.25 2.125 -4.140625q0 0 0.328125 0.078125q0.328125 0.078125 0.328125 0.078125q-0.390625 1.046875 -1.0 2.328125q-0.59375 1.265625 -1.515625 2.65625q-0.921875 1.390625 -2.28125 2.859375q-1.15625 1.203125 -2.09375 1.8125q-0.921875 0.59375 -1.8125 0.59375q-0.84375 0 -1.28125 -0.390625q-0.453125 -0.390625 -0.453125 -1.046875q0 -0.734375 0.578125 -1.296875q0.578125 -0.5625 1.4375 -0.5625q0.875 0 1.453125 0.3125q0.59375 0.3125 0.96875 0.625zm31.708176 -18.0625l-0.125 0.78125l-12.015625 0l0.1875 -0.78125l11.953125 0zm-9.828125 16.59375q-0.34375 1.265625 0.171875 1.828125q0.53125 0.5625 1.375 0.5625q0.859375 0 1.71875 -0.734375q0.875 -0.734375 1.71875 -3.125l0.546875 -1.515625l0.734375 0l-0.8125 2.4375q-0.84375 2.515625 -2.1875 3.453125q-1.328125 0.921875 -3.109375 0.921875q-1.578125 0 -2.421875 -0.671875q-0.828125 -0.6875 -0.984375 -1.921875q-0.140625 -1.234375 0.3125 -2.828125l6.0 -20.875q0.921875 -0.03125 1.828125 -0.140625q0.90625 -0.125 1.640625 -0.390625l-6.53125 23.0z" fill-rule="nonzero"/><path fill="#000000" d="m127.28543 239.89499l-0.125 0.78125l-12.015625 0l0.1875 -0.78125l11.953125 0zm-9.828125 16.59375q-0.34375 1.265625 0.171875 1.828125q0.53125 0.5625 1.375 0.5625q0.859375 0 1.71875 -0.734375q0.875 -0.734375 1.71875 -3.125l0.546875 -1.515625l0.734375 0l-0.8125 2.4375q-0.84375 2.515625 -2.1875 3.453125q-1.328125 0.921875 -3.109375 0.921875q-1.578125 0 -2.421875 -0.671875q-0.828125 -0.6875 -0.984375 -1.921875q-0.140625 -1.234375 0.3125 -2.828125l6.0 -20.875q0.921875 -0.03125 1.828125 -0.140625q0.90625 -0.125 1.640625 -0.390625l-6.53125 23.0zm11.56662 -5.5q2.15625 -0.734375 3.90625 -1.4375q1.765625 -0.71875 2.8125 -1.53125q1.390625 -1.125 2.203125 -2.703125q0.8125 -1.59375 0.8125 -3.484375q0 -1.125 -0.15625 -1.421875q-0.15625 -0.3125 -0.453125 -0.3125q-0.96875 0 -2.09375 0.859375q-1.125 0.84375 -2.203125 2.328125q-1.078125 1.484375 -1.984375 3.390625q-0.90625 1.890625 -1.453125 4.03125q-0.546875 2.140625 -0.546875 4.265625q0 1.96875 0.734375 2.84375q0.734375 0.875 1.9375 0.875q1.390625 0 2.9375 -0.84375q1.546875 -0.859375 3.015625 -3.03125l0.625 0.3125q-0.734375 1.28125 -1.9375 2.484375q-1.203125 1.1875 -2.6875 1.953125q-1.484375 0.75 -3.15625 0.75q-1.546875 0 -2.703125 -0.625q-1.15625 -0.625 -1.78125 -1.828125q-0.609375 -1.21875 -0.609375 -3.0q0 -1.671875 0.609375 -3.734375q0.625 -2.0625 1.765625 -4.125q1.140625 -2.078125 2.71875 -3.8125q1.59375 -1.75 3.515625 -2.78125q1.9375 -1.046875 4.140625 -1.046875q1.203125 0 2.03125 0.640625q0.828125 0.625 0.828125 1.90625q0 1.546875 -0.90625 2.890625q-0.90625 1.328125 -2.40625 2.4375q-1.484375 1.09375 -3.21875 1.953125q-1.734375 0.84375 -3.40625 1.46875q-1.65625 0.609375 -2.9375 0.984375l0.046875 -0.65625zm25.786652 5.765625q0.15625 1.0 0.484375 1.390625q0.328125 0.390625 0.828125 0.390625q0.578125 0 1.1875 -0.671875q0.625 -0.6875 1.40625 -2.890625l0.5 -1.421875l0.734375 0l-0.96875 2.8125q-0.546875 1.546875 -1.265625 2.40625q-0.703125 0.84375 -1.5 1.1875q-0.796875 0.359375 -1.640625 0.359375q-1.203125 0 -2.09375 -0.765625q-0.890625 -0.78125 -1.125 -2.796875l-1.546875 -13.84375q-0.140625 -1.0 -0.46875 -1.375q-0.328125 -0.390625 -0.84375 -0.390625q-0.375 0 -0.78125 0.265625q-0.40625 0.265625 -0.84375 1.046875q-0.421875 0.765625 -0.953125 2.234375l-0.515625 1.4375l-0.734375 0l0.96875 -2.828125q0.578125 -1.546875 1.265625 -2.390625q0.703125 -0.859375 1.515625 -1.203125q0.8125 -0.34375 1.625 -0.34375q1.359375 0 2.171875 0.75q0.8125 0.75 1.046875 2.796875l1.546875 13.84375zm3.234375 -15.03125q-1.1875 1.078125 -2.078125 2.515625q-0.890625 1.421875 -1.515625 2.875q-0.609375 1.453125 -1.03125 2.640625q0 0 -0.390625 -0.015625q-0.390625 -0.015625 -0.390625 -0.015625q0.265625 -0.78125 0.609375 -1.71875q0.359375 -0.953125 0.859375 -2.0q0.5 -1.046875 1.21875 -2.140625q0.71875 -1.109375 1.640625 -2.140625q1.125 -1.28125 2.015625 -1.8125q0.890625 -0.546875 1.859375 -0.546875q0.734375 0 1.203125 0.390625q0.484375 0.375 0.484375 1.03125q0 0.734375 -0.5625 1.296875q-0.546875 0.5625 -1.484375 0.5625q-0.84375 0 -1.46875 -0.328125q-0.609375 -0.328125 -0.96875 -0.59375zm-12.5625 16.234375q1.828125 -1.671875 3.21875 -3.90625q1.390625 -2.25 2.125 -4.140625q0 0 0.328125 0.078125q0.328125 0.078125 0.328125 0.078125q-0.390625 1.046875 -1.0 2.328125q-0.59375 1.265625 -1.515625 2.65625q-0.921875 1.390625 -2.28125 2.859375q-1.15625 1.203125 -2.09375 1.8125q-0.921875 0.59375 -1.8125 0.59375q-0.84375 0 -1.28125 -0.390625q-0.453125 -0.390625 -0.453125 -1.046875q0 -0.734375 0.578125 -1.296875q0.578125 -0.5625 1.4375 -0.5625q0.875 0 1.453125 0.3125q0.59375 0.3125 0.96875 0.625zm31.708176 -18.0625l-0.125 0.78125l-12.015625 0l0.1875 -0.78125l11.953125 0zm-9.828125 16.59375q-0.34375 1.265625 0.171875 1.828125q0.53125 0.5625 1.375 0.5625q0.859375 0 1.71875 -0.734375q0.875 -0.734375 1.71875 -3.125l0.546875 -1.515625l0.734375 0l-0.8125 2.4375q-0.84375 2.515625 -2.1875 3.453125q-1.328125 0.921875 -3.109375 0.921875q-1.578125 0 -2.421875 -0.671875q-0.828125 -0.6875 -0.984375 -1.921875q-0.140625 -1.234375 0.3125 -2.828125l6.0 -20.875q0.921875 -0.03125 1.828125 -0.140625q0.90625 -0.125 1.640625 -0.390625l-6.53125 23.0zm18.0654 1.84375q0 -1.15625 0.875 -2.0625q0.890625 -0.90625 1.984375 -0.90625q0.890625 0 1.421875 0.578125q0.546875 0.578125 0.546875 1.4375q0 0.765625 -0.40625 1.453125q-0.40625 0.671875 -1.0625 1.078125q-0.65625 0.40625 -1.4375 0.40625q-0.84375 0 -1.390625 -0.5625q-0.53125 -0.5625 -0.53125 -1.421875zm10.859375 0q0 -1.15625 0.875 -2.0625q0.890625 -0.90625 1.984375 -0.90625q0.890625 0 1.421875 0.578125q0.546875 0.578125 0.546875 1.4375q0 0.765625 -0.40625 1.453125q-0.40625 0.671875 -1.0625 1.078125q-0.65625 0.40625 -1.4375 0.40625q-0.84375 0 -1.390625 -0.5625q-0.53125 -0.5625 -0.53125 -1.421875zm10.828125 0q0 -1.15625 0.875 -2.0625q0.890625 -0.90625 1.984375 -0.90625q0.890625 0 1.421875 0.578125q0.546875 0.578125 0.546875 1.4375q0 0.765625 -0.40625 1.453125q-0.40625 0.671875 -1.0625 1.078125q-0.65625 0.40625 -1.4375 0.40625q-0.84375 0 -1.390625 -0.5625q-0.53125 -0.5625 -0.53125 -1.421875zm9.430771 0q0 -1.15625 0.875 -2.0625q0.890625 -0.90625 1.984375 -0.90625q0.890625 0 1.421875 0.578125q0.546875 0.578125 0.546875 1.4375q0 0.765625 -0.40625 1.453125q-0.40625 0.671875 -1.0625 1.078125q-0.65625 0.40625 -1.4375 0.40625q-0.84375 0 -1.390625 -0.5625q-0.53125 -0.5625 -0.53125 -1.421875z" fill-rule="nonzero"/></g></svg>