<svg version="1.1" viewBox="0.0 0.0 960.0 540.0" fill="none" stroke="none" stroke-linecap="square" stroke-miterlimit="10" xmlns:xlink="http://www.w3.org/1999/xlink" xmlns="http://www.w3.org/2000/svg"><clipPath id="g1e4950d2a1c_0_78.0"><path d="m0 0l960.0 0l0 540.0l-960.0 0l0 -540.0z" clip-rule="nonzero"/></clipPath><g clip-path="url(#g1e4950d2a1c_0_78.0)"><path fill="#000000" fill-opacity="0.0" d="m0 0l960.0 0l0 540.0l-960.0 0z" fill-rule="evenodd"/><path fill="#3f3f3f" d="m383.27954 225.49213l148.93701 0l0 133.53543l-148.93701 0z" fill-rule="evenodd"/><path fill="#323232" d="m532.21655 225.49213l44.51178 -44.51181l0 133.53543l-44.51178 44.51181z" fill-rule="evenodd"/><path fill="#656565" d="m383.27954 225.49213l44.51181 -44.51181l148.93698 0l-44.51178 44.51181z" fill-rule="evenodd"/><path fill="#000000" fill-opacity="0.0" d="m383.27954 225.49213l44.51181 -44.51181l148.93698 0l0 133.53543l-44.51178 44.51181l-148.93701 0zm0 0l148.93701 0l44.51178 -44.51181m-44.51178 44.51181l0 133.53543" fill-rule="evenodd"/><path stroke="#595959" stroke-width="1.0" stroke-linejoin="round" stroke-linecap="butt" d="m383.27954 225.49213l44.51181 -44.51181l148.93698 0l0 133.53543l-44.51178 44.51181l-148.93701 0zm0 0l148.93701 0l44.51178 -44.51181m-44.51178 44.51181l0 133.53543" fill-rule="evenodd"/><path fill="#ffffff" d="m449.0664 304.86295q0 0.453125 -0.15625 0.8125q-0.15625 0.34375 -0.421875 0.578125q-0.265625 0.234375 -0.625 0.34375q-0.359375 0.109375 -0.734375 0.109375l-2.1875 0q-0.671875 0 -1.171875 -0.140625q-0.5 -0.140625 -0.921875 -0.5q-0.421875 -0.359375 -0.8125 -0.96875q-0.390625 -0.625 -0.875 -1.609375l-6.296875 -11.8125q-0.546875 -1.046875 -1.109375 -2.265625q-0.5625 -1.234375 -1.015625 -2.375l-0.03125 0q0.078125 1.40625 0.109375 2.796875q0.046875 1.390625 0.046875 2.875l0 13.234375q0 0.1875 -0.109375 0.34375q-0.109375 0.15625 -0.375 0.265625q-0.265625 0.109375 -0.71875 0.171875q-0.4375 0.0625 -1.140625 0.0625q-0.6875 0 -1.140625 -0.0625q-0.453125 -0.0625 -0.703125 -0.171875q-0.25 -0.109375 -0.359375 -0.265625q-0.09375 -0.15625 -0.09375 -0.34375l0 -22.71875q0 -0.921875 0.53125 -1.375q0.546875 -0.46875 1.328125 -0.46875l2.75 0q0.75 0 1.25 0.140625q0.515625 0.125 0.90625 0.421875q0.40625 0.28125 0.75 0.796875q0.359375 0.515625 0.734375 1.28125l4.921875 9.234375q0.421875 0.84375 0.84375 1.65625q0.421875 0.8125 0.8125 1.625q0.390625 0.8125 0.765625 1.59375q0.375 0.78125 0.71875 1.5625l0.015625 0q-0.046875 -1.375 -0.078125 -2.859375q-0.03125 -1.484375 -0.03125 -2.828125l0 -11.859375q0 -0.1875 0.109375 -0.34375q0.125 -0.15625 0.390625 -0.265625q0.28125 -0.125 0.71875 -0.171875q0.453125 -0.0625 1.15625 -0.0625q0.671875 0 1.109375 0.0625q0.453125 0.046875 0.703125 0.171875q0.25 0.109375 0.34375 0.265625q0.09375 0.15625 0.09375 0.34375l0 22.71875zm19.394531 -0.359375q0 0.59375 -0.046875 1.0q-0.046875 0.390625 -0.15625 0.65625q-0.09375 0.265625 -0.234375 0.390625q-0.140625 0.109375 -0.34375 0.109375l-11.578125 0q-0.640625 0 -1.09375 -0.375q-0.4375 -0.390625 -0.4375 -1.25l0 -22.953125q0 -0.1875 0.125 -0.34375q0.140625 -0.15625 0.421875 -0.25q0.296875 -0.109375 0.796875 -0.15625q0.5 -0.0625 1.234375 -0.0625q0.765625 0 1.25 0.0625q0.5 0.046875 0.78125 0.15625q0.296875 0.09375 0.421875 0.25q0.125 0.15625 0.125 0.34375l0 20.34375l7.953125 0q0.203125 0 0.34375 0.109375q0.140625 0.09375 0.234375 0.34375q0.109375 0.25 0.15625 0.65625q0.046875 0.390625 0.046875 0.96875zm20.335938 -15.4375q0 2.125 -0.671875 3.765625q-0.65625 1.640625 -1.9375 2.765625q-1.265625 1.125 -3.109375 1.71875q-1.84375 0.578125 -4.34375 0.578125l-2.109375 0l0 8.0625q0 0.1875 -0.125 0.34375q-0.125 0.15625 -0.421875 0.265625q-0.296875 0.09375 -0.78125 0.15625q-0.484375 0.0625 -1.25 0.0625q-0.734375 0 -1.234375 -0.0625q-0.5 -0.0625 -0.796875 -0.15625q-0.296875 -0.109375 -0.421875 -0.265625q-0.109375 -0.15625 -0.109375 -0.34375l0 -22.734375q0 -0.921875 0.484375 -1.375q0.484375 -0.46875 1.265625 -0.46875l5.953125 0q0.890625 0 1.703125 0.078125q0.8125 0.0625 1.9375 0.296875q1.140625 0.21875 2.296875 0.828125q1.171875 0.59375 1.984375 1.53125q0.828125 0.921875 1.25 2.171875q0.4375 1.234375 0.4375 2.78125zm-5.375 0.359375q0 -1.328125 -0.46875 -2.1875q-0.46875 -0.859375 -1.15625 -1.265625q-0.671875 -0.40625 -1.4375 -0.515625q-0.75 -0.109375 -1.546875 -0.109375l-2.1875 0l0 8.578125l2.3125 0q1.21875 0 2.046875 -0.328125q0.84375 -0.34375 1.359375 -0.9375q0.53125 -0.59375 0.796875 -1.421875q0.28125 -0.828125 0.28125 -1.8125z" fill-rule="nonzero"/><path fill="#14914e" d="m294.67462 256.41635l31.873993 0l0 -23.070862l31.874023 46.141724l-31.874023 46.141754l0 -23.070892l-31.873993 0z" fill-rule="evenodd"/><path stroke="#595959" stroke-width="1.0" stroke-linejoin="round" stroke-linecap="butt" d="m294.67462 256.41635l31.873993 0l0 -23.070862l31.874023 46.141724l-31.874023 46.141754l0 -23.070892l-31.873993 0z" fill-rule="evenodd"/><path fill="#990000" d="m596.9239 256.4171l31.874023 0l0 -23.070877l31.873962 46.14174l-31.873962 46.141724l0 -23.070862l-31.874023 0z" fill-rule="evenodd"/><path stroke="#595959" stroke-width="1.0" stroke-linejoin="round" stroke-linecap="butt" d="m596.9239 256.4171l31.874023 0l0 -23.070877l31.873962 46.14174l-31.873962 46.141724l0 -23.070862l-31.874023 0z" fill-rule="evenodd"/><path fill="#000000" fill-opacity="0.0" d="m685.876 224.9498l218.33069 0l0 108.28348l-218.33069 0z" fill-rule="evenodd"/><path fill="#000000" d="m707.376 249.19481l-0.125 0.78125l-12.015625 0l0.1875 -0.78125l11.953125 0zm-9.828125 16.593735q-0.34375 1.265625 0.171875 1.828125q0.53125 0.5625 1.375 0.5625q0.859375 0 1.71875 -0.734375q0.875 -0.734375 1.71875 -3.125l0.546875 -1.515625l0.734375 0l-0.8125 2.4375q-0.84375 2.515625 -2.1875 3.453125q-1.328125 0.921875 -3.109375 0.921875q-1.578125 0 -2.421875 -0.671875q-0.828125 -0.6875 -0.984375 -1.921875q-0.140625 -1.234375 0.3125 -2.828125l6.0 -20.874985q0.921875 -0.03125 1.828125 -0.140625q0.90625 -0.125 1.640625 -0.390625l-6.53125 22.999985zm11.56665 -5.5q2.15625 -0.734375 3.90625 -1.4375q1.765625 -0.71875 2.8125 -1.53125q1.390625 -1.125 2.203125 -2.7031097q0.8125 -1.59375 0.8125 -3.484375q0 -1.125 -0.15625 -1.421875q-0.15625 -0.3125 -0.453125 -0.3125q-0.96875 0 -2.09375 0.859375q-1.125 0.84375 -2.203125 2.328125q-1.078125 1.484375 -1.984375 3.390625q-0.90625 1.8906097 -1.453125 4.0312347q-0.546875 2.140625 -0.546875 4.265625q0 1.96875 0.734375 2.84375q0.734375 0.875 1.9375 0.875q1.390625 0 2.9375 -0.84375q1.546875 -0.859375 3.015625 -3.03125l0.625 0.3125q-0.734375 1.28125 -1.9375 2.484375q-1.203125 1.1875 -2.6875 1.953125q-1.484375 0.75 -3.15625 0.75q-1.546875 0 -2.703125 -0.625q-1.15625 -0.625 -1.78125 -1.828125q-0.609375 -1.21875 -0.609375 -3.0q0 -1.671875 0.609375 -3.734375q0.625 -2.0625 1.765625 -4.125q1.140625 -2.0781097 2.71875 -3.8124847q1.59375 -1.75 3.515625 -2.78125q1.9375 -1.046875 4.140625 -1.046875q1.203125 0 2.03125 0.640625q0.828125 0.625 0.828125 1.90625q0 1.546875 -0.90625 2.890625q-0.90625 1.328125 -2.40625 2.4374847q-1.484375 1.09375 -3.21875 1.953125q-1.734375 0.84375 -3.40625 1.46875q-1.65625 0.609375 -2.9375 0.984375l0.046875 -0.65625zm25.786621 5.765625q0.15625 1.0 0.484375 1.390625q0.328125 0.390625 0.828125 0.390625q0.578125 0 1.1875 -0.671875q0.625 -0.6875 1.40625 -2.890625l0.5 -1.421875l0.734375 0l-0.96875 2.8125q-0.546875 1.546875 -1.265625 2.40625q-0.703125 0.84375 -1.5 1.1875q-0.796875 0.359375 -1.640625 0.359375q-1.203125 0 -2.09375 -0.765625q-0.890625 -0.78125 -1.125 -2.796875l-1.546875 -13.843735q-0.140625 -1.0 -0.46875 -1.375q-0.328125 -0.390625 -0.84375 -0.390625q-0.375 0 -0.78125 0.265625q-0.40625 0.265625 -0.84375 1.046875q-0.421875 0.765625 -0.953125 2.234375l-0.515625 1.4375l-0.734375 0l0.96875 -2.828125q0.578125 -1.546875 1.265625 -2.390625q0.703125 -0.859375 1.515625 -1.203125q0.8125 -0.34375 1.625 -0.34375q1.359375 0 2.171875 0.75q0.8125 0.75 1.046875 2.796875l1.546875 13.843735zm3.234375 -15.031235q-1.1875 1.078125 -2.078125 2.515625q-0.890625 1.421875 -1.515625 2.8749847q-0.609375 1.453125 -1.03125 2.640625q0 0 -0.390625 -0.015625q-0.390625 -0.015625 -0.390625 -0.015625q0.265625 -0.78125 0.609375 -1.71875q0.359375 -0.953125 0.859375 -1.9999847q0.5 -1.046875 1.21875 -2.140625q0.71875 -1.109375 1.640625 -2.140625q1.125 -1.28125 2.015625 -1.8125q0.890625 -0.546875 1.859375 -0.546875q0.734375 0 1.203125 0.390625q0.484375 0.375 0.484375 1.03125q0 0.734375 -0.5625 1.296875q-0.546875 0.5625 -1.484375 0.5625q-0.84375 0 -1.46875 -0.328125q-0.609375 -0.328125 -0.96875 -0.59375zm-12.5625 16.23436q1.828125 -1.671875 3.21875 -3.90625q1.390625 -2.25 2.125 -4.140625q0 0 0.328125 0.078125q0.328125 0.078125 0.328125 0.078125q-0.390625 1.046875 -1.0 2.328125q-0.59375 1.265625 -1.515625 2.65625q-0.921875 1.390625 -2.28125 2.859375q-1.15625 1.203125 -2.09375 1.8125q-0.921875 0.59375 -1.8125 0.59375q-0.84375 0 -1.28125 -0.390625q-0.453125 -0.390625 -0.453125 -1.046875q0 -0.734375 0.578125 -1.296875q0.578125 -0.5625 1.4375 -0.5625q0.875 0 1.453125 0.3125q0.59375 0.3125 0.96875 0.625zm31.70819 -18.062485l-0.125 0.78125l-12.015625 0l0.1875 -0.78125l11.953125 0zm-9.828125 16.593735q-0.34375 1.265625 0.171875 1.828125q0.53125 0.5625 1.375 0.5625q0.859375 0 1.71875 -0.734375q0.875 -0.734375 1.71875 -3.125l0.546875 -1.515625l0.734375 0l-0.8125 2.4375q-0.84375 2.515625 -2.1875 3.453125q-1.328125 0.921875 -3.109375 0.921875q-1.578125 0 -2.421875 -0.671875q-0.828125 -0.6875 -0.984375 -1.921875q-0.140625 -1.234375 0.3125 -2.828125l6.0 -20.874985q0.921875 -0.03125 1.828125 -0.140625q0.90625 -0.125 1.640625 -0.390625l-6.53125 22.999985zm32.59662 -16.593735l-0.125 0.78125l-12.015625 0l0.1875 -0.78125l11.953125 0zm-9.828125 16.593735q-0.34375 1.265625 0.171875 1.828125q0.53125 0.5625 1.375 0.5625q0.859375 0 1.71875 -0.734375q0.875 -0.734375 1.71875 -3.125l0.546875 -1.515625l0.734375 0l-0.8125 2.4375q-0.84375 2.515625 -2.1875 3.453125q-1.328125 0.921875 -3.109375 0.921875q-1.578125 0 -2.421875 -0.671875q-0.828125 -0.6875 -0.984375 -1.921875q-0.140625 -1.234375 0.3125 -2.828125l6.0 -20.874985q0.921875 -0.03125 1.828125 -0.140625q0.90625 -0.125 1.640625 -0.390625l-6.53125 22.999985zm11.56665 -5.5q2.15625 -0.734375 3.90625 -1.4375q1.765625 -0.71875 2.8125 -1.53125q1.390625 -1.125 2.203125 -2.7031097q0.8125 -1.59375 0.8125 -3.484375q0 -1.125 -0.15625 -1.421875q-0.15625 -0.3125 -0.453125 -0.3125q-0.96875 0 -2.09375 0.859375q-1.125 0.84375 -2.203125 2.328125q-1.078125 1.484375 -1.984375 3.390625q-0.90625 1.8906097 -1.453125 4.0312347q-0.546875 2.140625 -0.546875 4.265625q0 1.96875 0.734375 2.84375q0.734375 0.875 1.9375 0.875q1.390625 0 2.9375 -0.84375q1.546875 -0.859375 3.015625 -3.03125l0.625 0.3125q-0.734375 1.28125 -1.9375 2.484375q-1.203125 1.1875 -2.6875 1.953125q-1.484375 0.75 -3.15625 0.75q-1.546875 0 -2.703125 -0.625q-1.15625 -0.625 -1.78125 -1.828125q-0.609375 -1.21875 -0.609375 -3.0q0 -1.671875 0.609375 -3.734375q0.625 -2.0625 1.765625 -4.125q1.140625 -2.0781097 2.71875 -3.8124847q1.59375 -1.75 3.515625 -2.78125q1.9375 -1.046875 4.140625 -1.046875q1.203125 0 2.03125 0.640625q0.828125 0.625 0.828125 1.90625q0 1.546875 -0.90625 2.890625q-0.90625 1.328125 -2.40625 2.4374847q-1.484375 1.09375 -3.21875 1.953125q-1.734375 0.84375 -3.40625 1.46875q-1.65625 0.609375 -2.9375 0.984375l0.046875 -0.65625zm25.786621 5.765625q0.15625 1.0 0.484375 1.390625q0.328125 0.390625 0.828125 0.390625q0.578125 0 1.1875 -0.671875q0.625 -0.6875 1.40625 -2.890625l0.5 -1.421875l0.734375 0l-0.96875 2.8125q-0.546875 1.546875 -1.265625 2.40625q-0.703125 0.84375 -1.5 1.1875q-0.796875 0.359375 -1.640625 0.359375q-1.203125 0 -2.09375 -0.765625q-0.890625 -0.78125 -1.125 -2.796875l-1.546875 -13.843735q-0.140625 -1.0 -0.46875 -1.375q-0.328125 -0.390625 -0.84375 -0.390625q-0.375 0 -0.78125 0.265625q-0.40625 0.265625 -0.84375 1.046875q-0.421875 0.765625 -0.953125 2.234375l-0.515625 1.4375l-0.734375 0l0.96875 -2.828125q0.578125 -1.546875 1.265625 -2.390625q0.703125 -0.859375 1.515625 -1.203125q0.8125 -0.34375 1.625 -0.34375q1.359375 0 2.171875 0.75q0.8125 0.75 1.046875 2.796875l1.546875 13.843735zm3.234375 -15.031235q-1.1875 1.078125 -2.078125 2.515625q-0.890625 1.421875 -1.515625 2.8749847q-0.609375 1.453125 -1.03125 2.640625q0 0 -0.390625 -0.015625q-0.390625 -0.015625 -0.390625 -0.015625q0.265625 -0.78125 0.609375 -1.71875q0.359375 -0.953125 0.859375 -1.9999847q0.5 -1.046875 1.21875 -2.140625q0.71875 -1.109375 1.640625 -2.140625q1.125 -1.28125 2.015625 -1.8125q0.890625 -0.546875 1.859375 -0.546875q0.734375 0 1.203125 0.390625q0.484375 0.375 0.484375 1.03125q0 0.734375 -0.5625 1.296875q-0.546875 0.5625 -1.484375 0.5625q-0.84375 0 -1.46875 -0.328125q-0.609375 -0.328125 -0.96875 -0.59375zm-12.5625 16.23436q1.828125 -1.671875 3.21875 -3.90625q1.390625 -2.25 2.125 -4.140625q0 0 0.328125 0.078125q0.328125 0.078125 0.328125 0.078125q-0.390625 1.046875 -1.0 2.328125q-0.59375 1.265625 -1.515625 2.65625q-0.921875 1.390625 -2.28125 2.859375q-1.15625 1.203125 -2.09375 1.8125q-0.921875 0.59375 -1.8125 0.59375q-0.84375 0 -1.28125 -0.390625q-0.453125 -0.390625 -0.453125 -1.046875q0 -0.734375 0.578125 -1.296875q0.578125 -0.5625 1.4375 -0.5625q0.875 0 1.453125 0.3125q0.59375 0.3125 0.96875 0.625zm31.70819 -18.062485l-0.125 0.78125l-12.015625 0l0.1875 -0.78125l11.953125 0zm-9.828125 16.593735q-0.34375 1.265625 0.171875 1.828125q0.53125 0.5625 1.375 0.5625q0.859375 0 1.71875 -0.734375q0.875 -0.734375 1.71875 -3.125l0.546875 -1.515625l0.734375 0l-0.8125 2.4375q-0.84375 2.515625 -2.1875 3.453125q-1.328125 0.921875 -3.109375 0.921875q-1.578125 0 -2.421875 -0.671875q-0.828125 -0.6875 -0.984375 -1.921875q-0.140625 -1.234375 0.3125 -2.828125l6.0 -20.874985q0.921875 -0.03125 1.828125 -0.140625q0.90625 -0.125 1.640625 -0.390625l-6.53125 22.999985z" fill-rule="nonzero"/><path fill="#000000" d="m707.376 295.5948l-0.125 0.78125l-12.015625 0l0.1875 -0.78125l11.953125 0zm-9.828125 16.59375q-0.34375 1.265625 0.171875 1.828125q0.53125 0.5625 1.375 0.5625q0.859375 0 1.71875 -0.734375q0.875 -0.734375 1.71875 -3.125l0.546875 -1.515625l0.734375 0l-0.8125 2.4375q-0.84375 2.515625 -2.1875 3.453125q-1.328125 0.921875 -3.109375 0.921875q-1.578125 0 -2.421875 -0.671875q-0.828125 -0.6875 -0.984375 -1.921875q-0.140625 -1.234375 0.3125 -2.828125l6.0 -20.875q0.921875 -0.03125 1.828125 -0.140625q0.90625 -0.125 1.640625 -0.390625l-6.53125 23.0zm11.56665 -5.5q2.15625 -0.734375 3.90625 -1.4375q1.765625 -0.71875 2.8125 -1.53125q1.390625 -1.125 2.203125 -2.703125q0.8125 -1.59375 0.8125 -3.484375q0 -1.125 -0.15625 -1.421875q-0.15625 -0.3125 -0.453125 -0.3125q-0.96875 0 -2.09375 0.859375q-1.125 0.84375 -2.203125 2.328125q-1.078125 1.484375 -1.984375 3.390625q-0.90625 1.890625 -1.453125 4.03125q-0.546875 2.140625 -0.546875 4.265625q0 1.96875 0.734375 2.84375q0.734375 0.875 1.9375 0.875q1.390625 0 2.9375 -0.84375q1.546875 -0.859375 3.015625 -3.03125l0.625 0.3125q-0.734375 1.28125 -1.9375 2.484375q-1.203125 1.1875 -2.6875 1.953125q-1.484375 0.75 -3.15625 0.75q-1.546875 0 -2.703125 -0.625q-1.15625 -0.625 -1.78125 -1.828125q-0.609375 -1.21875 -0.609375 -3.0q0 -1.671875 0.609375 -3.734375q0.625 -2.0625 1.765625 -4.125q1.140625 -2.078125 2.71875 -3.8125q1.59375 -1.75 3.515625 -2.78125q1.9375 -1.046875 4.140625 -1.046875q1.203125 0 2.03125 0.640625q0.828125 0.625 0.828125 1.90625q0 1.546875 -0.90625 2.890625q-0.90625 1.328125 -2.40625 2.4375q-1.484375 1.09375 -3.21875 1.953125q-1.734375 0.84375 -3.40625 1.46875q-1.65625 0.609375 -2.9375 0.984375l0.046875 -0.65625zm25.786621 5.765625q0.15625 1.0 0.484375 1.390625q0.328125 0.390625 0.828125 0.390625q0.578125 0 1.1875 -0.671875q0.625 -0.6875 1.40625 -2.890625l0.5 -1.421875l0.734375 0l-0.96875 2.8125q-0.546875 1.546875 -1.265625 2.40625q-0.703125 0.84375 -1.5 1.1875q-0.796875 0.359375 -1.640625 0.359375q-1.203125 0 -2.09375 -0.765625q-0.890625 -0.78125 -1.125 -2.796875l-1.546875 -13.84375q-0.140625 -1.0 -0.46875 -1.375q-0.328125 -0.390625 -0.84375 -0.390625q-0.375 0 -0.78125 0.265625q-0.40625 0.265625 -0.84375 1.046875q-0.421875 0.765625 -0.953125 2.234375l-0.515625 1.4375l-0.734375 0l0.96875 -2.828125q0.578125 -1.546875 1.265625 -2.390625q0.703125 -0.859375 1.515625 -1.203125q0.8125 -0.34375 1.625 -0.34375q1.359375 0 2.171875 0.75q0.8125 0.75 1.046875 2.796875l1.546875 13.84375zm3.234375 -15.03125q-1.1875 1.078125 -2.078125 2.515625q-0.890625 1.421875 -1.515625 2.875q-0.609375 1.453125 -1.03125 2.640625q0 0 -0.390625 -0.015625q-0.390625 -0.015625 -0.390625 -0.015625q0.265625 -0.78125 0.609375 -1.71875q0.359375 -0.953125 0.859375 -2.0q0.5 -1.046875 1.21875 -2.140625q0.71875 -1.109375 1.640625 -2.140625q1.125 -1.28125 2.015625 -1.8125q0.890625 -0.546875 1.859375 -0.546875q0.734375 0 1.203125 0.390625q0.484375 0.375 0.484375 1.03125q0 0.734375 -0.5625 1.296875q-0.546875 0.5625 -1.484375 0.5625q-0.84375 0 -1.46875 -0.328125q-0.609375 -0.328125 -0.96875 -0.59375zm-12.5625 16.234375q1.828125 -1.671875 3.21875 -3.90625q1.390625 -2.25 2.125 -4.140625q0 0 0.328125 0.078125q0.328125 0.078125 0.328125 0.078125q-0.390625 1.046875 -1.0 2.328125q-0.59375 1.265625 -1.515625 2.65625q-0.921875 1.390625 -2.28125 2.859375q-1.15625 1.203125 -2.09375 1.8125q-0.921875 0.59375 -1.8125 0.59375q-0.84375 0 -1.28125 -0.390625q-0.453125 -0.390625 -0.453125 -1.046875q0 -0.734375 0.578125 -1.296875q0.578125 -0.5625 1.4375 -0.5625q0.875 0 1.453125 0.3125q0.59375 0.3125 0.96875 0.625zm31.70819 -18.0625l-0.125 0.78125l-12.015625 0l0.1875 -0.78125l11.953125 0zm-9.828125 16.59375q-0.34375 1.265625 0.171875 1.828125q0.53125 0.5625 1.375 0.5625q0.859375 0 1.71875 -0.734375q0.875 -0.734375 1.71875 -3.125l0.546875 -1.515625l0.734375 0l-0.8125 2.4375q-0.84375 2.515625 -2.1875 3.453125q-1.328125 0.921875 -3.109375 0.921875q-1.578125 0 -2.421875 -0.671875q-0.828125 -0.6875 -0.984375 -1.921875q-0.140625 -1.234375 0.3125 -2.828125l6.0 -20.875q0.921875 -0.03125 1.828125 -0.140625q0.90625 -0.125 1.640625 -0.390625l-6.53125 23.0zm18.065369 1.84375q0 -1.15625 0.875 -2.0625q0.890625 -0.90625 1.984375 -0.90625q0.890625 0 1.421875 0.578125q0.546875 0.578125 0.546875 1.4375q0 0.765625 -0.40625 1.453125q-0.40625 0.671875 -1.0625 1.078125q-0.65625 0.40625 -1.4375 0.40625q-0.84375 0 -1.390625 -0.5625q-0.53125 -0.5625 -0.53125 -1.421875zm10.859375 0q0 -1.15625 0.875 -2.0625q0.890625 -0.90625 1.984375 -0.90625q0.890625 0 1.421875 0.578125q0.546875 0.578125 0.546875 1.4375q0 0.765625 -0.40625 1.453125q-0.40625 0.671875 -1.0625 1.078125q-0.65625 0.40625 -1.4375 0.40625q-0.84375 0 -1.390625 -0.5625q-0.53125 -0.5625 -0.53125 -1.421875zm10.828125 0q0 -1.15625 0.875 -2.0625q0.890625 -0.90625 1.984375 -0.90625q0.890625 0 1.421875 0.578125q0.546875 0.578125 0.546875 1.4375q0 0.765625 -0.40625 1.453125q-0.40625 0.671875 -1.0625 1.078125q-0.65625 0.40625 -1.4375 0.40625q-0.84375 0 -1.390625 -0.5625q-0.53125 -0.5625 -0.53125 -1.421875z" fill-rule="nonzero"/><path fill="#eeeeee" d="m66.0 255.0689l0 0c0 -6.744278 44.121544 -12.211609 98.54823 -12.211609c54.42668 0 98.54823 5.467331 98.54823 12.211609l0 48.84645c0 6.744293 -44.12155 12.211639 -98.54823 12.211639c-54.42669 0 -98.54823 -5.467346 -98.54823 -12.211639z" fill-rule="evenodd"/><path fill="#000000" fill-opacity="0.0" d="m263.09647 255.0689l0 0c0 6.744278 -44.12155 12.211624 -98.54823 12.211624c-54.42669 0 -98.54823 -5.467346 -98.54823 -12.211624" fill-rule="evenodd"/><path fill="#000000" fill-opacity="0.0" d="m66.0 255.0689l0 0c0 -6.744278 44.121544 -12.211609 98.54823 -12.211609c54.42668 0 98.54823 5.467331 98.54823 12.211609l0 48.84645c0 6.744293 -44.12155 12.211639 -98.54823 12.211639c-54.42669 0 -98.54823 -5.467346 -98.54823 -12.211639z" fill-rule="evenodd"/><path stroke="#595959" stroke-width="1.0" stroke-linejoin="round" stroke-linecap="butt" d="m263.09647 255.0689l0 0c0 6.744278 -44.12155 12.211624 -98.54823 12.211624c-54.42669 0 -98.54823 -5.467346 -98.54823 -12.211624" fill-rule="evenodd"/><path stroke="#595959" stroke-width="1.0" stroke-linejoin="round" stroke-linecap="butt" d="m66.0 255.0689l0 0c0 -6.744278 44.121544 -12.211609 98.54823 -12.211609c54.42668 0 98.54823 5.467331 98.54823 12.211609l0 48.84645c0 6.744293 -44.12155 12.211639 -98.54823 12.211639c-54.42669 0 -98.54823 -5.467346 -98.54823 -12.211639z" fill-rule="evenodd"/><path fill="#000000" d="m134.57114 295.19794l4.390625 0q1.359375 -0.015625 2.53125 -0.328125q1.1875 -0.3125 2.125 -0.890625q0.890625 -0.5625 1.59375 -1.359375q0.71875 -0.796875 1.1875 -1.765625q0.453125 -0.9375 0.6875 -2.046875q0.25 -1.125 0.25 -2.375l0 -1.40625q-0.015625 -1.296875 -0.265625 -2.4375q-0.25 -1.140625 -0.734375 -2.109375q-0.53125 -1.140625 -1.421875 -2.0q-0.890625 -0.859375 -2.046875 -1.40625q-0.84375 -0.390625 -1.828125 -0.59375q-0.96875 -0.21875 -2.078125 -0.234375l-4.390625 0l0 18.953125zm2.453125 -16.96875l1.9375 0q0.890625 0.015625 1.640625 0.203125q0.765625 0.1875 1.375 0.515625q0.859375 0.46875 1.453125 1.203125q0.59375 0.734375 0.9375 1.640625q0.28125 0.703125 0.40625 1.515625q0.140625 0.8125 0.15625 1.703125l0 1.421875q-0.015625 0.859375 -0.140625 1.671875q-0.125 0.796875 -0.390625 1.484375q-0.296875 0.84375 -0.8125 1.53125q-0.515625 0.6875 -1.21875 1.15625q-0.65625 0.453125 -1.515625 0.703125q-0.859375 0.234375 -1.890625 0.25l-1.9375 0l0 -15.0zm22.840118 12.0625l1.5 4.90625l2.390625 0l-6.015625 -18.953125l-2.015625 0l-6.125 18.953125l2.421875 0l1.515625 -4.90625l6.328125 0zm-5.671875 -2.09375l2.53125 -8.234375l2.5 8.234375l-5.03125 0zm25.402588 -9.890625l0 -2.0625l-14.0625 0l0 2.0625l5.859375 0l0 16.890625l2.34375 0l0 -16.890625l5.859375 0zm12.261993 11.984375l1.5 4.90625l2.390625 0l-6.015625 -18.953125l-2.015625 0l-6.125 18.953125l2.421875 0l1.515625 -4.90625l6.328125 0zm-5.671875 -2.09375l2.53125 -8.234375l2.5 8.234375l-5.03125 0z" fill-rule="nonzero"/></g></svg>