<svg version="1.1" viewBox="0.0 0.0 600.0 371.0" fill="none" stroke="none" stroke-linecap="square" stroke-miterlimit="10" width="600" height="371" xmlns:xlink="http://www.w3.org/1999/xlink" xmlns="http://www.w3.org/2000/svg"><path fill="#ffffff" d="M0 0L600.0 0L600.0 371.0L0 371.0L0 0Z" fill-rule="nonzero"/><path stroke="#cccccc" stroke-width="1.0" stroke-linecap="butt" d="M69.5 18.5L69.5 332.5" fill-rule="nonzero"/><path stroke="#cccccc" stroke-width="1.0" stroke-linecap="butt" d="M157.5 18.5L157.5 332.5" fill-rule="nonzero"/><path stroke="#cccccc" stroke-width="1.0" stroke-linecap="butt" d="M245.5 18.5L245.5 332.5" fill-rule="nonzero"/><path stroke="#cccccc" stroke-width="1.0" stroke-linecap="butt" d="M332.5 18.5L332.5 332.5" fill-rule="nonzero"/><path stroke="#cccccc" stroke-width="1.0" stroke-linecap="butt" d="M420.5 18.5L420.5 332.5" fill-rule="nonzero"/><path stroke="#cccccc" stroke-width="1.0" stroke-linecap="butt" d="M508.5 18.5L508.5 332.5" fill-rule="nonzero"/><clipPath id="id_0"><path d="M69.55 18.55L581.45 18.55L581.45 332.45L69.55 332.45L69.55 18.55Z" clip-rule="nonzero"/></clipPath><path stroke="#000000" stroke-width="2.0" stroke-linecap="butt" stroke-opacity="0.0" clip-path="url(#id_0)" d="M70.0 61.0L70.0 33.0L579.0 33.0C580.10455 33.0 581.0 33.89543 581.0 35.0L581.0 59.0C581.0 60.10457 580.10455 61.0 579.0 61.0Z" fill-rule="nonzero"/><path fill="#5891ad" clip-path="url(#id_0)" d="M70.0 61.0L70.0 33.0L579.0 33.0C580.10455 33.0 581.0 33.89543 581.0 35.0L581.0 59.0C581.0 60.10457 580.10455 61.0 579.0 61.0Z" fill-rule="nonzero"/><path stroke="#000000" stroke-width="2.0" stroke-linecap="butt" stroke-opacity="0.0" clip-path="url(#id_0)" d="M70.0 104.0L70.0 76.0L564.0 76.0C565.10455 76.0 566.0 76.89543 566.0 78.0L566.0 102.0C566.0 103.10457 565.10455 104.0 564.0 104.0Z" fill-rule="nonzero"/><path fill="#5891ad" clip-path="url(#id_0)" d="M70.0 104.0L70.0 76.0L564.0 76.0C565.10455 76.0 566.0 76.89543 566.0 78.0L566.0 102.0C566.0 103.10457 565.10455 104.0 564.0 104.0Z" fill-rule="nonzero"/><path stroke="#000000" stroke-width="2.0" stroke-linecap="butt" stroke-opacity="0.0" clip-path="url(#id_0)" d="M70.0 147.0L70.0 119.0L460.0 119.0C461.10458 119.0 462.0 119.89543 462.0 121.0L462.0 145.0C462.0 146.10457 461.10458 147.0 460.0 147.0Z" fill-rule="nonzero"/><path fill="#5891ad" clip-path="url(#id_0)" d="M70.0 147.0L70.0 119.0L460.0 119.0C461.10458 119.0 462.0 119.89543 462.0 121.0L462.0 145.0C462.0 146.10457 461.10458 147.0 460.0 147.0Z" fill-rule="nonzero"/><path stroke="#000000" stroke-width="2.0" stroke-linecap="butt" stroke-opacity="0.0" clip-path="url(#id_0)" d="M70.0 189.0L70.0 161.0L411.0 161.0C412.10458 161.0 413.0 161.89543 413.0 163.0L413.0 187.0C413.0 188.10457 412.10458 189.0 411.0 189.0Z" fill-rule="nonzero"/><path fill="#5891ad" clip-path="url(#id_0)" d="M70.0 189.0L70.0 161.0L411.0 161.0C412.10458 161.0 413.0 161.89543 413.0 163.0L413.0 187.0C413.0 188.10457 412.10458 189.0 411.0 189.0Z" fill-rule="nonzero"/><path stroke="#000000" stroke-width="2.0" stroke-linecap="butt" stroke-opacity="0.0" clip-path="url(#id_0)" d="M70.0 232.0L70.0 204.0L399.0 204.0C400.10458 204.0 401.0 204.89543 401.0 206.0L401.0 230.0C401.0 231.10457 400.10458 232.0 399.0 232.0Z" fill-rule="nonzero"/><path fill="#5891ad" clip-path="url(#id_0)" d="M70.0 232.0L70.0 204.0L399.0 204.0C400.10458 204.0 401.0 204.89543 401.0 206.0L401.0 230.0C401.0 231.10457 400.10458 232.0 399.0 232.0Z" fill-rule="nonzero"/><path stroke="#000000" stroke-width="2.0" stroke-linecap="butt" stroke-opacity="0.0" clip-path="url(#id_0)" d="M70.0 275.0L70.0 247.0L393.0 247.0C394.10458 247.0 395.0 247.89543 395.0 249.0L395.0 273.0C395.0 274.10458 394.10458 275.0 393.0 275.0Z" fill-rule="nonzero"/><path fill="#5891ad" clip-path="url(#id_0)" d="M70.0 275.0L70.0 247.0L393.0 247.0C394.10458 247.0 395.0 247.89543 395.0 249.0L395.0 273.0C395.0 274.10458 394.10458 275.0 393.0 275.0Z" fill-rule="nonzero"/><path stroke="#000000" stroke-width="2.0" stroke-linecap="butt" stroke-opacity="0.0" clip-path="url(#id_0)" d="M70.0 318.0L70.0 290.0L224.0 290.0C225.10457 290.0 226.0 290.89542 226.0 292.0L226.0 316.0C226.0 317.10458 225.10457 318.0 224.0 318.0Z" fill-rule="nonzero"/><path fill="#5891ad" clip-path="url(#id_0)" d="M70.0 318.0L70.0 290.0L224.0 290.0C225.10457 290.0 226.0 290.89542 226.0 292.0L226.0 316.0C226.0 317.10458 225.10457 318.0 224.0 318.0Z" fill-rule="nonzero"/><path stroke="#5891ad" stroke-width="3.0" stroke-linejoin="round" stroke-linecap="round" d="M541.6188 42.96875L541.6188 43.875L541.41565 43.875Q540.15 43.90625 539.4 44.640625Q538.65 45.359375 538.525 46.671875Q539.2125 45.90625 540.3688 45.90625Q541.47815 45.90625 542.15 46.6875Q542.8219 47.46875 542.8219 48.71875Q542.8219 50.03125 542.10315 50.828125Q541.3844 51.625 540.16565 51.625Q538.9469 51.625 538.1813 50.6875Q537.4313 49.734375 537.4313 48.25L537.4313 47.84375Q537.4313 45.484375 538.4313 44.234375Q539.4313 42.984375 541.41565 42.96875L541.6188 42.96875ZM540.1969 46.8125Q539.6344 46.8125 539.16565 47.140625Q538.6969 47.46875 538.5094 47.984375L538.5094 48.375Q538.5094 49.4375 538.97815 50.078125Q539.4625 50.71875 540.16565 50.71875Q540.9 50.71875 541.3219 50.1875Q541.7438 49.640625 541.7438 48.765625Q541.7438 47.890625 541.3219 47.359375Q540.9 46.8125 540.1969 46.8125ZM544.4313 53.203125L543.8219 52.78125Q544.3688 52.015625 544.4 51.1875L544.4 50.21875L545.4625 50.21875L545.4625 51.0625Q545.4625 51.65625 545.16565 52.25Q544.8688 52.84375 544.4313 53.203125ZM551.54065 45.1875Q551.54065 45.828125 551.1969 46.328125Q550.85315 46.828125 550.29065 47.109375Q550.9469 47.390625 551.3375 47.953125Q551.72815 48.5 551.72815 49.203125Q551.72815 50.296875 550.97815 50.96875Q550.2438 51.625 549.025 51.625Q547.79065 51.625 547.04065 50.96875Q546.3063 50.296875 546.3063 49.203125Q546.3063 48.5 546.6813 47.953125Q547.0563 47.390625 547.72815 47.109375Q547.16565 46.828125 546.8375 46.328125Q546.5094 45.828125 546.5094 45.1875Q546.5094 44.109375 547.1969 43.484375Q547.8844 42.84375 549.025 42.84375Q550.15 42.84375 550.8375 43.484375Q551.54065 44.109375 551.54065 45.1875ZM550.65 49.171875Q550.65 48.453125 550.1969 48.015625Q549.7438 47.5625 549.0094 47.5625Q548.275 47.5625 547.8219 48.015625Q547.3844 48.453125 547.3844 49.1875Q547.3844 49.90625 547.8219 50.328125Q548.2594 50.734375 549.025 50.734375Q549.775 50.734375 550.2125 50.3125Q550.65 49.890625 550.65 49.171875ZM549.025 43.734375Q548.3844 43.734375 547.97815 44.140625Q547.5875 44.53125 547.5875 45.21875Q547.5875 45.859375 547.97815 46.265625Q548.3688 46.671875 549.0094 46.671875Q549.66565 46.671875 550.0563 46.265625Q550.4469 45.859375 550.4469 45.21875Q550.4469 44.5625 550.04065 44.15625Q549.6344 43.734375 549.025 43.734375ZM558.7125 47.859375Q558.7125 49.765625 558.0563 50.703125Q557.41565 51.625 556.025 51.625Q554.66565 51.625 554.0094 50.71875Q553.35315 49.8125 553.3219 48.0L553.3219 46.5625Q553.3219 44.671875 553.9625 43.765625Q554.6188 42.84375 556.0094 42.84375Q557.3844 42.84375 558.04065 43.734375Q558.6969 44.609375 558.7125 46.453125L558.7125 47.859375ZM557.6188 46.375Q557.6188 45.0 557.22815 44.375Q556.85315 43.734375 556.0094 43.734375Q555.1813 43.734375 554.79065 44.375Q554.41565 45.0 554.41565 46.296875L554.41565 48.03125Q554.41565 49.40625 554.8063 50.078125Q555.2125 50.734375 556.025 50.734375Q556.8219 50.734375 557.2125 50.109375Q557.60315 49.484375 557.6188 48.15625L557.6188 46.375ZM565.7125 47.859375Q565.7125 49.765625 565.0563 50.703125Q564.41565 51.625 563.025 51.625Q561.66565 51.625 561.0094 50.71875Q560.35315 49.8125 560.3219 48.0L560.3219 46.5625Q560.3219 44.671875 560.9625 43.765625Q561.6188 42.84375 563.0094 42.84375Q564.3844 42.84375 565.04065 43.734375Q565.6969 44.609375 565.7125 46.453125L565.7125 47.859375ZM564.6188 46.375Q564.6188 45.0 564.22815 44.375Q563.85315 43.734375 563.0094 43.734375Q562.1813 43.734375 561.79065 44.375Q561.41565 45.0 561.41565 46.296875L561.41565 48.03125Q561.41565 49.40625 561.8063 50.078125Q562.2125 50.734375 563.025 50.734375Q563.8219 50.734375 564.2125 50.109375Q564.60315 49.484375 564.6188 48.15625L564.6188 46.375ZM569.0875 42.96875L571.8844 49.921875L574.66565 42.96875L576.1344 42.96875L576.1344 51.5L575.0094 51.5L575.0094 48.171875L575.1188 44.59375L572.3063 51.5L571.4469 51.5L568.65 44.609375L568.7594 48.171875L568.7594 51.5L567.6344 51.5L567.6344 42.96875L569.0875 42.96875Z" fill-rule="nonzero"/><path fill="#000000" d="M541.6188 42.96875L541.6188 43.875L541.41565 43.875Q540.15 43.90625 539.4 44.640625Q538.65 45.359375 538.525 46.671875Q539.2125 45.90625 540.3688 45.90625Q541.47815 45.90625 542.15 46.6875Q542.8219 47.46875 542.8219 48.71875Q542.8219 50.03125 542.10315 50.828125Q541.3844 51.625 540.16565 51.625Q538.9469 51.625 538.1813 50.6875Q537.4313 49.734375 537.4313 48.25L537.4313 47.84375Q537.4313 45.484375 538.4313 44.234375Q539.4313 42.984375 541.41565 42.96875L541.6188 42.96875ZM540.1969 46.8125Q539.6344 46.8125 539.16565 47.140625Q538.6969 47.46875 538.5094 47.984375L538.5094 48.375Q538.5094 49.4375 538.97815 50.078125Q539.4625 50.71875 540.16565 50.71875Q540.9 50.71875 541.3219 50.1875Q541.7438 49.640625 541.7438 48.765625Q541.7438 47.890625 541.3219 47.359375Q540.9 46.8125 540.1969 46.8125ZM544.4313 53.203125L543.8219 52.78125Q544.3688 52.015625 544.4 51.1875L544.4 50.21875L545.4625 50.21875L545.4625 51.0625Q545.4625 51.65625 545.16565 52.25Q544.8688 52.84375 544.4313 53.203125ZM551.54065 45.1875Q551.54065 45.828125 551.1969 46.328125Q550.85315 46.828125 550.29065 47.109375Q550.9469 47.390625 551.3375 47.953125Q551.72815 48.5 551.72815 49.203125Q551.72815 50.296875 550.97815 50.96875Q550.2438 51.625 549.025 51.625Q547.79065 51.625 547.04065 50.96875Q546.3063 50.296875 546.3063 49.203125Q546.3063 48.5 546.6813 47.953125Q547.0563 47.390625 547.72815 47.109375Q547.16565 46.828125 546.8375 46.328125Q546.5094 45.828125 546.5094 45.1875Q546.5094 44.109375 547.1969 43.484375Q547.8844 42.84375 549.025 42.84375Q550.15 42.84375 550.8375 43.484375Q551.54065 44.109375 551.54065 45.1875ZM550.65 49.171875Q550.65 48.453125 550.1969 48.015625Q549.7438 47.5625 549.0094 47.5625Q548.275 47.5625 547.8219 48.015625Q547.3844 48.453125 547.3844 49.1875Q547.3844 49.90625 547.8219 50.328125Q548.2594 50.734375 549.025 50.734375Q549.775 50.734375 550.2125 50.3125Q550.65 49.890625 550.65 49.171875ZM549.025 43.734375Q548.3844 43.734375 547.97815 44.140625Q547.5875 44.53125 547.5875 45.21875Q547.5875 45.859375 547.97815 46.265625Q548.3688 46.671875 549.0094 46.671875Q549.66565 46.671875 550.0563 46.265625Q550.4469 45.859375 550.4469 45.21875Q550.4469 44.5625 550.04065 44.15625Q549.6344 43.734375 549.025 43.734375ZM558.7125 47.859375Q558.7125 49.765625 558.0563 50.703125Q557.41565 51.625 556.025 51.625Q554.66565 51.625 554.0094 50.71875Q553.35315 49.8125 553.3219 48.0L553.3219 46.5625Q553.3219 44.671875 553.9625 43.765625Q554.6188 42.84375 556.0094 42.84375Q557.3844 42.84375 558.04065 43.734375Q558.6969 44.609375 558.7125 46.453125L558.7125 47.859375ZM557.6188 46.375Q557.6188 45.0 557.22815 44.375Q556.85315 43.734375 556.0094 43.734375Q555.1813 43.734375 554.79065 44.375Q554.41565 45.0 554.41565 46.296875L554.41565 48.03125Q554.41565 49.40625 554.8063 50.078125Q555.2125 50.734375 556.025 50.734375Q556.8219 50.734375 557.2125 50.109375Q557.60315 49.484375 557.6188 48.15625L557.6188 46.375ZM565.7125 47.859375Q565.7125 49.765625 565.0563 50.703125Q564.41565 51.625 563.025 51.625Q561.66565 51.625 561.0094 50.71875Q560.35315 49.8125 560.3219 48.0L560.3219 46.5625Q560.3219 44.671875 560.9625 43.765625Q561.6188 42.84375 563.0094 42.84375Q564.3844 42.84375 565.04065 43.734375Q565.6969 44.609375 565.7125 46.453125L565.7125 47.859375ZM564.6188 46.375Q564.6188 45.0 564.22815 44.375Q563.85315 43.734375 563.0094 43.734375Q562.1813 43.734375 561.79065 44.375Q561.41565 45.0 561.41565 46.296875L561.41565 48.03125Q561.41565 49.40625 561.8063 50.078125Q562.2125 50.734375 563.025 50.734375Q563.8219 50.734375 564.2125 50.109375Q564.60315 49.484375 564.6188 48.15625L564.6188 46.375ZM569.0875 42.96875L571.8844 49.921875L574.66565 42.96875L576.1344 42.96875L576.1344 51.5L575.0094 51.5L575.0094 48.171875L575.1188 44.59375L572.3063 51.5L571.4469 51.5L568.65 44.609375L568.7594 48.171875L568.7594 51.5L567.6344 51.5L567.6344 42.96875L569.0875 42.96875Z" fill-rule="nonzero"/><path stroke="#5891ad" stroke-width="3.0" stroke-linejoin="round" stroke-linecap="round" d="M526.195 91.640625L527.3825 91.640625L527.3825 92.515625L526.195 92.515625L526.195 94.5L525.1169 94.5L525.1169 92.515625L521.22626 92.515625L521.22626 91.875L525.03876 85.96875L526.195 85.96875L526.195 91.640625ZM522.46063 91.640625L525.1169 91.640625L525.1169 87.453125L524.97626 87.6875L522.46063 91.640625ZM528.695 96.203125L528.08563 95.78125Q528.6325 95.015625 528.66376 94.1875L528.66376 93.21875L529.72626 93.21875L529.72626 94.0625Q529.72626 94.65625 529.4294 95.25Q529.1325 95.84375 528.695 96.203125ZM531.1169 90.21875L531.5544 85.96875L535.9294 85.96875L535.9294 86.96875L532.47626 86.96875L532.21063 89.296875Q532.85126 88.921875 533.64813 88.921875Q534.8044 88.921875 535.4919 89.703125Q536.1794 90.46875 536.1794 91.78125Q536.1794 93.09375 535.46063 93.859375Q534.7575 94.625 533.47626 94.625Q532.35126 94.625 531.6325 94.0Q530.91376 93.359375 530.82 92.25L531.83563 92.25Q531.945 92.984375 532.3669 93.359375Q532.78876 93.734375 533.47626 93.734375Q534.22626 93.734375 534.66376 93.21875Q535.10126 92.703125 535.10126 91.796875Q535.10126 90.9375 534.6325 90.421875Q534.16376 89.90625 533.3825 89.90625Q532.6794 89.90625 532.27313 90.203125L531.9919 90.4375L531.1169 90.21875ZM542.97626 90.859375Q542.97626 92.765625 542.32 93.703125Q541.6794 94.625 540.28876 94.625Q538.9294 94.625 538.27313 93.71875Q537.6169 92.8125 537.58563 91.0L537.58563 89.5625Q537.58563 87.671875 538.22626 86.765625Q538.8825 85.84375 540.27313 85.84375Q541.64813 85.84375 542.3044 86.734375Q542.96063 87.609375 542.97626 89.453125L542.97626 90.859375ZM541.8825 89.375Q541.8825 88.0 541.4919 87.375Q541.1169 86.734375 540.27313 86.734375Q539.445 86.734375 539.0544 87.375Q538.6794 88.0 538.6794 89.296875L538.6794 91.03125Q538.6794 92.40625 539.07 93.078125Q539.47626 93.734375 540.28876 93.734375Q541.08563 93.734375 541.47626 93.109375Q541.8669 92.484375 541.8825 91.15625L541.8825 89.375ZM549.97626 90.859375Q549.97626 92.765625 549.32 93.703125Q548.6794 94.625 547.28876 94.625Q545.9294 94.625 545.27313 93.71875Q544.6169 92.8125 544.58563 91.0L544.58563 89.5625Q544.58563 87.671875 545.22626 86.765625Q545.8825 85.84375 547.27313 85.84375Q548.64813 85.84375 549.3044 86.734375Q549.96063 87.609375 549.97626 89.453125L549.97626 90.859375ZM548.8825 89.375Q548.8825 88.0 548.4919 87.375Q548.1169 86.734375 547.27313 86.734375Q546.445 86.734375 546.0544 87.375Q545.6794 88.0 545.6794 89.296875L545.6794 91.03125Q545.6794 92.40625 546.07 93.078125Q546.47626 93.734375 547.28876 93.734375Q548.08563 93.734375 548.47626 93.109375Q548.8669 92.484375 548.8825 91.15625L548.8825 89.375ZM553.35126 85.96875L556.14813 92.921875L558.9294 85.96875L560.39813 85.96875L560.39813 94.5L559.27313 94.5L559.27313 91.171875L559.3825 87.59375L556.57 94.5L555.71063 94.5L552.91376 87.609375L553.02313 91.171875L553.02313 94.5L551.89813 94.5L551.89813 85.96875L553.35126 85.96875Z" fill-rule="nonzero"/><path fill="#000000" d="M526.195 91.640625L527.3825 91.640625L527.3825 92.515625L526.195 92.515625L526.195 94.5L525.1169 94.5L525.1169 92.515625L521.22626 92.515625L521.22626 91.875L525.03876 85.96875L526.195 85.96875L526.195 91.640625ZM522.46063 91.640625L525.1169 91.640625L525.1169 87.453125L524.97626 87.6875L522.46063 91.640625ZM528.695 96.203125L528.08563 95.78125Q528.6325 95.015625 528.66376 94.1875L528.66376 93.21875L529.72626 93.21875L529.72626 94.0625Q529.72626 94.65625 529.4294 95.25Q529.1325 95.84375 528.695 96.203125ZM531.1169 90.21875L531.5544 85.96875L535.9294 85.96875L535.9294 86.96875L532.47626 86.96875L532.21063 89.296875Q532.85126 88.921875 533.64813 88.921875Q534.8044 88.921875 535.4919 89.703125Q536.1794 90.46875 536.1794 91.78125Q536.1794 93.09375 535.46063 93.859375Q534.7575 94.625 533.47626 94.625Q532.35126 94.625 531.6325 94.0Q530.91376 93.359375 530.82 92.25L531.83563 92.25Q531.945 92.984375 532.3669 93.359375Q532.78876 93.734375 533.47626 93.734375Q534.22626 93.734375 534.66376 93.21875Q535.10126 92.703125 535.10126 91.796875Q535.10126 90.9375 534.6325 90.421875Q534.16376 89.90625 533.3825 89.90625Q532.6794 89.90625 532.27313 90.203125L531.9919 90.4375L531.1169 90.21875ZM542.97626 90.859375Q542.97626 92.765625 542.32 93.703125Q541.6794 94.625 540.28876 94.625Q538.9294 94.625 538.27313 93.71875Q537.6169 92.8125 537.58563 91.0L537.58563 89.5625Q537.58563 87.671875 538.22626 86.765625Q538.8825 85.84375 540.27313 85.84375Q541.64813 85.84375 542.3044 86.734375Q542.96063 87.609375 542.97626 89.453125L542.97626 90.859375ZM541.8825 89.375Q541.8825 88.0 541.4919 87.375Q541.1169 86.734375 540.27313 86.734375Q539.445 86.734375 539.0544 87.375Q538.6794 88.0 538.6794 89.296875L538.6794 91.03125Q538.6794 92.40625 539.07 93.078125Q539.47626 93.734375 540.28876 93.734375Q541.08563 93.734375 541.47626 93.109375Q541.8669 92.484375 541.8825 91.15625L541.8825 89.375ZM549.97626 90.859375Q549.97626 92.765625 549.32 93.703125Q548.6794 94.625 547.28876 94.625Q545.9294 94.625 545.27313 93.71875Q544.6169 92.8125 544.58563 91.0L544.58563 89.5625Q544.58563 87.671875 545.22626 86.765625Q545.8825 85.84375 547.27313 85.84375Q548.64813 85.84375 549.3044 86.734375Q549.96063 87.609375 549.97626 89.453125L549.97626 90.859375ZM548.8825 89.375Q548.8825 88.0 548.4919 87.375Q548.1169 86.734375 547.27313 86.734375Q546.445 86.734375 546.0544 87.375Q545.6794 88.0 545.6794 89.296875L545.6794 91.03125Q545.6794 92.40625 546.07 93.078125Q546.47626 93.734375 547.28876 93.734375Q548.08563 93.734375 548.47626 93.109375Q548.8669 92.484375 548.8825 91.15625L548.8825 89.375ZM553.35126 85.96875L556.14813 92.921875L558.9294 85.96875L560.39813 85.96875L560.39813 94.5L559.27313 94.5L559.27313 91.171875L559.3825 87.59375L556.57 94.5L555.71063 94.5L552.91376 87.609375L553.02313 91.171875L553.02313 94.5L551.89813 94.5L551.89813 85.96875L553.35126 85.96875Z" fill-rule="nonzero"/><path stroke="#5891ad" stroke-width="3.0" stroke-linejoin="round" stroke-linecap="round" d="M432.37418 137.5L426.78043 137.5L426.78043 136.71875L429.73355 133.4375Q430.3898 132.6875 430.6398 132.23438Q430.8898 131.76562 430.8898 131.26562Q430.8898 130.59375 430.48355 130.17188Q430.09293 129.73438 429.40543 129.73438Q428.60855 129.73438 428.15543 130.20312Q427.7023 130.65625 427.7023 131.48438L426.62418 131.48438Q426.62418 130.29688 427.37418 129.57812Q428.1398 128.84375 429.40543 128.84375Q430.60855 128.84375 431.29605 129.46875Q431.98355 130.09375 431.98355 131.14062Q431.98355 132.39062 430.37418 134.14062L428.09293 136.60938L432.37418 136.60938L432.37418 137.5ZM437.93668 133.75Q437.60855 134.15625 437.12418 134.40625Q436.65543 134.64062 436.09293 134.64062Q435.35855 134.64062 434.81168 134.28125Q434.2648 133.92188 433.96793 133.26562Q433.67105 132.59375 433.67105 131.79688Q433.67105 130.95312 433.98355 130.26562Q434.31168 129.57812 434.90543 129.21875Q435.5148 128.84375 436.31168 128.84375Q437.5773 128.84375 438.29605 129.79688Q439.03043 130.75 439.03043 132.375L439.03043 132.6875Q439.03043 135.1875 438.04605 136.32812Q437.06168 137.46875 435.0773 137.5L434.85855 137.5L434.85855 136.59375L435.09293 136.59375Q436.43668 136.5625 437.15543 135.89062Q437.87418 135.21875 437.93668 133.75ZM436.2648 133.75Q436.81168 133.75 437.2648 133.42188Q437.73355 133.07812 437.9523 132.59375L437.9523 132.15625Q437.9523 131.09375 437.48355 130.42188Q437.0148 129.75 436.31168 129.75Q435.59293 129.75 435.15543 130.29688Q434.73355 130.84375 434.73355 131.75Q434.73355 132.625 435.1398 133.1875Q435.56168 133.75 436.2648 133.75ZM441.28043 133.21875L441.71793 128.96875L446.09293 128.96875L446.09293 129.96875L442.6398 129.96875L442.37418 132.29688Q443.0148 131.92188 443.81168 131.92188Q444.96793 131.92188 445.65543 132.70312Q446.34293 133.46875 446.34293 134.78125Q446.34293 136.09375 445.62418 136.85938Q444.92105 137.625 443.6398 137.625Q442.5148 137.625 441.79605 137.0Q441.0773 136.35938 440.98355 135.25L441.99918 135.25Q442.10855 135.98438 442.53043 136.35938Q442.9523 136.73438 443.6398 136.73438Q444.3898 136.73438 444.8273 136.21875Q445.2648 135.70312 445.2648 134.79688Q445.2648 133.9375 444.79605 133.42188Q444.3273 132.90625 443.54605 132.90625Q442.84293 132.90625 442.43668 133.20312L442.15543 133.4375L441.28043 133.21875ZM449.5148 128.96875L452.31168 135.92188L455.09293 128.96875L456.56168 128.96875L456.56168 137.5L455.43668 137.5L455.43668 134.17188L455.54605 130.59375L452.73355 137.5L451.87418 137.5L449.0773 130.60938L449.18668 134.17188L449.18668 137.5L448.06168 137.5L448.06168 128.96875L449.5148 128.96875Z" fill-rule="nonzero"/><path fill="#000000" d="M432.37418 137.5L426.78043 137.5L426.78043 136.71875L429.73355 133.4375Q430.3898 132.6875 430.6398 132.23438Q430.8898 131.76562 430.8898 131.26562Q430.8898 130.59375 430.48355 130.17188Q430.09293 129.73438 429.40543 129.73438Q428.60855 129.73438 428.15543 130.20312Q427.7023 130.65625 427.7023 131.48438L426.62418 131.48438Q426.62418 130.29688 427.37418 129.57812Q428.1398 128.84375 429.40543 128.84375Q430.60855 128.84375 431.29605 129.46875Q431.98355 130.09375 431.98355 131.14062Q431.98355 132.39062 430.37418 134.14062L428.09293 136.60938L432.37418 136.60938L432.37418 137.5ZM437.93668 133.75Q437.60855 134.15625 437.12418 134.40625Q436.65543 134.64062 436.09293 134.64062Q435.35855 134.64062 434.81168 134.28125Q434.2648 133.92188 433.96793 133.26562Q433.67105 132.59375 433.67105 131.79688Q433.67105 130.95312 433.98355 130.26562Q434.31168 129.57812 434.90543 129.21875Q435.5148 128.84375 436.31168 128.84375Q437.5773 128.84375 438.29605 129.79688Q439.03043 130.75 439.03043 132.375L439.03043 132.6875Q439.03043 135.1875 438.04605 136.32812Q437.06168 137.46875 435.0773 137.5L434.85855 137.5L434.85855 136.59375L435.09293 136.59375Q436.43668 136.5625 437.15543 135.89062Q437.87418 135.21875 437.93668 133.75ZM436.2648 133.75Q436.81168 133.75 437.2648 133.42188Q437.73355 133.07812 437.9523 132.59375L437.9523 132.15625Q437.9523 131.09375 437.48355 130.42188Q437.0148 129.75 436.31168 129.75Q435.59293 129.75 435.15543 130.29688Q434.73355 130.84375 434.73355 131.75Q434.73355 132.625 435.1398 133.1875Q435.56168 133.75 436.2648 133.75ZM441.28043 133.21875L441.71793 128.96875L446.09293 128.96875L446.09293 129.96875L442.6398 129.96875L442.37418 132.29688Q443.0148 131.92188 443.81168 131.92188Q444.96793 131.92188 445.65543 132.70312Q446.34293 133.46875 446.34293 134.78125Q446.34293 136.09375 445.62418 136.85938Q444.92105 137.625 443.6398 137.625Q442.5148 137.625 441.79605 137.0Q441.0773 136.35938 440.98355 135.25L441.99918 135.25Q442.10855 135.98438 442.53043 136.35938Q442.9523 136.73438 443.6398 136.73438Q444.3898 136.73438 444.8273 136.21875Q445.2648 135.70312 445.2648 134.79688Q445.2648 133.9375 444.79605 133.42188Q444.3273 132.90625 443.54605 132.90625Q442.84293 132.90625 442.43668 133.20312L442.15543 133.4375L441.28043 133.21875ZM449.5148 128.96875L452.31168 135.92188L455.09293 128.96875L456.56168 128.96875L456.56168 137.5L455.43668 137.5L455.43668 134.17188L455.54605 130.59375L452.73355 137.5L451.87418 137.5L449.0773 130.60938L449.18668 134.17188L449.18668 137.5L448.06168 137.5L448.06168 128.96875L449.5148 128.96875Z" fill-rule="nonzero"/><path stroke="#5891ad" stroke-width="3.0" stroke-linejoin="round" stroke-linecap="round" d="M390.23596 173.1875Q390.23596 173.82812 389.8922 174.32812Q389.54846 174.82812 388.98596 175.10938Q389.6422 175.39062 390.03284 175.95312Q390.42346 176.5 390.42346 177.20312Q390.42346 178.29688 389.67346 178.96875Q388.9391 179.625 387.72034 179.625Q386.48596 179.625 385.73596 178.96875Q385.0016 178.29688 385.0016 177.20312Q385.0016 176.5 385.3766 175.95312Q385.7516 175.39062 386.42346 175.10938Q385.86096 174.82812 385.53284 174.32812Q385.2047 173.82812 385.2047 173.1875Q385.2047 172.10938 385.8922 171.48438Q386.5797 170.84375 387.72034 170.84375Q388.84534 170.84375 389.53284 171.48438Q390.23596 172.10938 390.23596 173.1875ZM389.34534 177.17188Q389.34534 176.45312 388.8922 176.01562Q388.4391 175.5625 387.7047 175.5625Q386.97034 175.5625 386.5172 176.01562Q386.0797 176.45312 386.0797 177.1875Q386.0797 177.90625 386.5172 178.32812Q386.9547 178.73438 387.72034 178.73438Q388.47034 178.73438 388.90784 178.3125Q389.34534 177.89062 389.34534 177.17188ZM387.72034 171.73438Q387.0797 171.73438 386.67346 172.14062Q386.28284 172.53125 386.28284 173.21875Q386.28284 173.85938 386.67346 174.26562Q387.0641 174.67188 387.7047 174.67188Q388.36096 174.67188 388.7516 174.26562Q389.1422 173.85938 389.1422 173.21875Q389.1422 172.5625 388.73596 172.15625Q388.3297 171.73438 387.72034 171.73438ZM397.6422 179.5L392.04846 179.5L392.04846 178.71875L395.0016 175.4375Q395.65784 174.6875 395.90784 174.23438Q396.15784 173.76562 396.15784 173.26562Q396.15784 172.59375 395.7516 172.17188Q395.36096 171.73438 394.67346 171.73438Q393.8766 171.73438 393.42346 172.20312Q392.97034 172.65625 392.97034 173.48438L391.8922 173.48438Q391.8922 172.29688 392.6422 171.57812Q393.40784 170.84375 394.67346 170.84375Q395.8766 170.84375 396.5641 171.46875Q397.2516 172.09375 397.2516 173.14062Q397.2516 174.39062 395.6422 176.14062L393.36096 178.60938L397.6422 178.60938L397.6422 179.5ZM400.78284 170.96875L403.5797 177.92188L406.36096 170.96875L407.8297 170.96875L407.8297 179.5L406.7047 179.5L406.7047 176.17188L406.8141 172.59375L404.0016 179.5L403.1422 179.5L400.34534 172.60938L400.4547 176.17188L400.4547 179.5L399.3297 179.5L399.3297 170.96875L400.78284 170.96875Z" fill-rule="nonzero"/><path fill="#000000" d="M390.23596 173.1875Q390.23596 173.82812 389.8922 174.32812Q389.54846 174.82812 388.98596 175.10938Q389.6422 175.39062 390.03284 175.95312Q390.42346 176.5 390.42346 177.20312Q390.42346 178.29688 389.67346 178.96875Q388.9391 179.625 387.72034 179.625Q386.48596 179.625 385.73596 178.96875Q385.0016 178.29688 385.0016 177.20312Q385.0016 176.5 385.3766 175.95312Q385.7516 175.39062 386.42346 175.10938Q385.86096 174.82812 385.53284 174.32812Q385.2047 173.82812 385.2047 173.1875Q385.2047 172.10938 385.8922 171.48438Q386.5797 170.84375 387.72034 170.84375Q388.84534 170.84375 389.53284 171.48438Q390.23596 172.10938 390.23596 173.1875ZM389.34534 177.17188Q389.34534 176.45312 388.8922 176.01562Q388.4391 175.5625 387.7047 175.5625Q386.97034 175.5625 386.5172 176.01562Q386.0797 176.45312 386.0797 177.1875Q386.0797 177.90625 386.5172 178.32812Q386.9547 178.73438 387.72034 178.73438Q388.47034 178.73438 388.90784 178.3125Q389.34534 177.89062 389.34534 177.17188ZM387.72034 171.73438Q387.0797 171.73438 386.67346 172.14062Q386.28284 172.53125 386.28284 173.21875Q386.28284 173.85938 386.67346 174.26562Q387.0641 174.67188 387.7047 174.67188Q388.36096 174.67188 388.7516 174.26562Q389.1422 173.85938 389.1422 173.21875Q389.1422 172.5625 388.73596 172.15625Q388.3297 171.73438 387.72034 171.73438ZM397.6422 179.5L392.04846 179.5L392.04846 178.71875L395.0016 175.4375Q395.65784 174.6875 395.90784 174.23438Q396.15784 173.76562 396.15784 173.26562Q396.15784 172.59375 395.7516 172.17188Q395.36096 171.73438 394.67346 171.73438Q393.8766 171.73438 393.42346 172.20312Q392.97034 172.65625 392.97034 173.48438L391.8922 173.48438Q391.8922 172.29688 392.6422 171.57812Q393.40784 170.84375 394.67346 170.84375Q395.8766 170.84375 396.5641 171.46875Q397.2516 172.09375 397.2516 173.14062Q397.2516 174.39062 395.6422 176.14062L393.36096 178.60938L397.6422 178.60938L397.6422 179.5ZM400.78284 170.96875L403.5797 177.92188L406.36096 170.96875L407.8297 170.96875L407.8297 179.5L406.7047 179.5L406.7047 176.17188L406.8141 172.59375L404.0016 179.5L403.1422 179.5L400.34534 172.60938L400.4547 176.17188L400.4547 179.5L399.3297 179.5L399.3297 170.96875L400.78284 170.96875Z" fill-rule="nonzero"/><path stroke="#5891ad" stroke-width="3.0" stroke-linejoin="round" stroke-linecap="round" d="M377.6309 213.96875L377.6309 214.875L377.42776 214.875Q376.16214 214.90625 375.41214 215.64062Q374.66214 216.35938 374.53714 217.67188Q375.22464 216.90625 376.3809 216.90625Q377.49026 216.90625 378.16214 217.6875Q378.834 218.46875 378.834 219.71875Q378.834 221.03125 378.11526 221.82812Q377.3965 222.625 376.17776 222.625Q374.959 222.625 374.1934 221.6875Q373.4434 220.73438 373.4434 219.25L373.4434 218.84375Q373.4434 216.48438 374.4434 215.23438Q375.4434 213.98438 377.42776 213.96875L377.6309 213.96875ZM376.209 217.8125Q375.6465 217.8125 375.17776 218.14062Q374.709 218.46875 374.5215 218.98438L374.5215 219.375Q374.5215 220.4375 374.99026 221.07812Q375.47464 221.71875 376.17776 221.71875Q376.91214 221.71875 377.334 221.1875Q377.7559 220.64062 377.7559 219.76562Q377.7559 218.89062 377.334 218.35938Q376.91214 217.8125 376.209 217.8125ZM383.92776 222.5L382.84964 222.5L382.84964 215.28125L380.66214 216.07812L380.66214 215.09375L383.7715 213.92188L383.92776 213.92188L383.92776 222.5ZM389.09964 213.96875L391.8965 220.92188L394.67776 213.96875L396.1465 213.96875L396.1465 222.5L395.0215 222.5L395.0215 219.17188L395.1309 215.59375L392.3184 222.5L391.459 222.5L388.66214 215.60938L388.7715 219.17188L388.7715 222.5L387.6465 222.5L387.6465 213.96875L389.09964 213.96875Z" fill-rule="nonzero"/><path fill="#000000" d="M377.6309 213.96875L377.6309 214.875L377.42776 214.875Q376.16214 214.90625 375.41214 215.64062Q374.66214 216.35938 374.53714 217.67188Q375.22464 216.90625 376.3809 216.90625Q377.49026 216.90625 378.16214 217.6875Q378.834 218.46875 378.834 219.71875Q378.834 221.03125 378.11526 221.82812Q377.3965 222.625 376.17776 222.625Q374.959 222.625 374.1934 221.6875Q373.4434 220.73438 373.4434 219.25L373.4434 218.84375Q373.4434 216.48438 374.4434 215.23438Q375.4434 213.98438 377.42776 213.96875L377.6309 213.96875ZM376.209 217.8125Q375.6465 217.8125 375.17776 218.14062Q374.709 218.46875 374.5215 218.98438L374.5215 219.375Q374.5215 220.4375 374.99026 221.07812Q375.47464 221.71875 376.17776 221.71875Q376.91214 221.71875 377.334 221.1875Q377.7559 220.64062 377.7559 219.76562Q377.7559 218.89062 377.334 218.35938Q376.91214 217.8125 376.209 217.8125ZM383.92776 222.5L382.84964 222.5L382.84964 215.28125L380.66214 216.07812L380.66214 215.09375L383.7715 213.92188L383.92776 213.92188L383.92776 222.5ZM389.09964 213.96875L391.8965 220.92188L394.67776 213.96875L396.1465 213.96875L396.1465 222.5L395.0215 222.5L395.0215 219.17188L395.1309 215.59375L392.3184 222.5L391.459 222.5L388.66214 215.60938L388.7715 219.17188L388.7715 222.5L387.6465 222.5L387.6465 213.96875L389.09964 213.96875Z" fill-rule="nonzero"/><path stroke="#5891ad" stroke-width="3.0" stroke-linejoin="round" stroke-linecap="round" d="M367.05417 261.21875L367.49167 256.96875L371.86667 256.96875L371.86667 257.96875L368.41354 257.96875L368.14792 260.29688Q368.78854 259.92188 369.58542 259.92188Q370.74167 259.92188 371.42917 260.70312Q372.11667 261.46875 372.11667 262.78125Q372.11667 264.09375 371.39792 264.85938Q370.6948 265.625 369.41354 265.625Q368.28854 265.625 367.5698 265.0Q366.85104 264.35938 366.7573 263.25L367.77292 263.25Q367.8823 263.98438 368.30417 264.35938Q368.72604 264.73438 369.41354 264.73438Q370.16354 264.73438 370.60104 264.21875Q371.03854 263.70312 371.03854 262.79688Q371.03854 261.9375 370.5698 261.42188Q370.10104 260.90625 369.3198 260.90625Q368.61667 260.90625 368.21042 261.20312L367.92917 261.4375L367.05417 261.21875ZM377.11667 265.5L376.03854 265.5L376.03854 258.28125L373.85104 259.07812L373.85104 258.09375L376.96042 256.92188L377.11667 256.92188L377.11667 265.5ZM382.28854 256.96875L385.08542 263.92188L387.86667 256.96875L389.33542 256.96875L389.33542 265.5L388.21042 265.5L388.21042 262.17188L388.3198 258.59375L385.5073 265.5L384.64792 265.5L381.85104 258.60938L381.96042 262.17188L381.96042 265.5L380.83542 265.5L380.83542 256.96875L382.28854 256.96875Z" fill-rule="nonzero"/><path fill="#000000" d="M367.05417 261.21875L367.49167 256.96875L371.86667 256.96875L371.86667 257.96875L368.41354 257.96875L368.14792 260.29688Q368.78854 259.92188 369.58542 259.92188Q370.74167 259.92188 371.42917 260.70312Q372.11667 261.46875 372.11667 262.78125Q372.11667 264.09375 371.39792 264.85938Q370.6948 265.625 369.41354 265.625Q368.28854 265.625 367.5698 265.0Q366.85104 264.35938 366.7573 263.25L367.77292 263.25Q367.8823 263.98438 368.30417 264.35938Q368.72604 264.73438 369.41354 264.73438Q370.16354 264.73438 370.60104 264.21875Q371.03854 263.70312 371.03854 262.79688Q371.03854 261.9375 370.5698 261.42188Q370.10104 260.90625 369.3198 260.90625Q368.61667 260.90625 368.21042 261.20312L367.92917 261.4375L367.05417 261.21875ZM377.11667 265.5L376.03854 265.5L376.03854 258.28125L373.85104 259.07812L373.85104 258.09375L376.96042 256.92188L377.11667 256.92188L377.11667 265.5ZM382.28854 256.96875L385.08542 263.92188L387.86667 256.96875L389.33542 256.96875L389.33542 265.5L388.21042 265.5L388.21042 262.17188L388.3198 258.59375L385.5073 265.5L384.64792 265.5L381.85104 258.60938L381.96042 262.17188L381.96042 265.5L380.83542 265.5L380.83542 256.96875L382.28854 256.96875Z" fill-rule="nonzero"/><path stroke="#5891ad" stroke-width="3.0" stroke-linejoin="round" stroke-linecap="round" d="M208.07808 308.5L206.99995 308.5L206.99995 301.28125L204.81245 302.07812L204.81245 301.09375L207.92183 299.92188L208.07808 299.92188L208.07808 308.5ZM213.24995 299.96875L216.04683 306.92188L218.82808 299.96875L220.29683 299.96875L220.29683 308.5L219.17183 308.5L219.17183 305.17188L219.2812 301.59375L216.4687 308.5L215.60933 308.5L212.81245 301.60938L212.92183 305.17188L212.92183 308.5L211.79683 308.5L211.79683 299.96875L213.24995 299.96875Z" fill-rule="nonzero"/><path fill="#000000" d="M208.07808 308.5L206.99995 308.5L206.99995 301.28125L204.81245 302.07812L204.81245 301.09375L207.92183 299.92188L208.07808 299.92188L208.07808 308.5ZM213.24995 299.96875L216.04683 306.92188L218.82808 299.96875L220.29683 299.96875L220.29683 308.5L219.17183 308.5L219.17183 305.17188L219.2812 301.59375L216.4687 308.5L215.60933 308.5L212.81245 301.60938L212.92183 305.17188L212.92183 308.5L211.79683 308.5L211.79683 299.96875L213.24995 299.96875Z" fill-rule="nonzero"/><path fill="#000000" d="M26.534374 51.377552L26.534374 42.783802L32.33125 42.783802L32.33125 43.799427L27.675 43.799427L27.675 46.455677L31.70625 46.455677L31.70625 47.471302L27.675 47.471302L27.675 51.377552L26.534374 51.377552ZM33.33125 51.377552L33.33125 45.158802L34.284374 45.158802L34.284374 46.096302Q34.64375 45.440052 34.940624 45.236927Q35.253124 45.018177 35.628124 45.018177Q36.159374 45.018177 36.70625 45.346302L36.346874 46.330677Q35.95625 46.096302 35.58125 46.096302Q35.221874 46.096302 34.940624 46.315052Q34.675 46.518177 34.565624 46.893177Q34.378124 47.455677 34.378124 48.111927L34.378124 51.377552L33.33125 51.377552ZM41.596874 49.377552L42.690624 49.502552Q42.440624 50.455677 41.7375 50.986927Q41.034374 51.518177 39.95625 51.518177Q38.596874 51.518177 37.784374 50.674427Q36.9875 49.830677 36.9875 48.315052Q36.9875 46.752552 37.8 45.893177Q38.6125 45.018177 39.89375 45.018177Q41.14375 45.018177 41.925 45.861927Q42.721874 46.705677 42.721874 48.252552Q42.721874 48.346302 42.721874 48.533802L38.08125 48.533802Q38.14375 49.565052 38.659374 50.111927Q39.175 50.643177 39.95625 50.643177Q40.534374 50.643177 40.940624 50.346302Q41.3625 50.033802 41.596874 49.377552ZM38.14375 47.674427L41.6125 47.674427Q41.55 46.877552 41.221874 46.486927Q40.70625 45.877552 39.909374 45.877552Q39.175 45.877552 38.675 46.361927Q38.190624 46.846302 38.14375 47.674427ZM44.346874 51.377552L44.346874 45.158802L45.284374 45.158802L45.284374 46.033802Q45.971874 45.018177 47.26875 45.018177Q47.83125 45.018177 48.3 45.221302Q48.784374 45.424427 49.01875 45.752552Q49.253124 46.080677 49.346874 46.518177Q49.39375 46.815052 49.39375 47.549427L49.39375 51.377552L48.346874 51.377552L48.346874 47.596302Q48.346874 46.940052 48.221874 46.627552Q48.096874 46.315052 47.784374 46.127552Q47.471874 45.924427 47.05 45.924427Q46.378124 45.924427 45.878124 46.361927Q45.39375 46.783802 45.39375 47.971302L45.39375 51.377552L44.346874 51.377552ZM55.409374 49.096302L56.440624 49.236927Q56.26875 50.299427 55.565624 50.908802Q54.8625 51.518177 53.846874 51.518177Q52.565624 51.518177 51.784374 50.690052Q51.01875 49.846302 51.01875 48.283802Q51.01875 47.283802 51.346874 46.533802Q51.690624 45.768177 52.3625 45.393177Q53.05 45.018177 53.8625 45.018177Q54.8625 45.018177 55.503124 45.533802Q56.159374 46.033802 56.346874 46.986927L55.315624 47.143177Q55.175 46.518177 54.8 46.205677Q54.425 45.877552 53.89375 45.877552Q53.096874 45.877552 52.596874 46.455677Q52.096874 47.018177 52.096874 48.252552Q52.096874 49.518177 52.58125 50.080677Q53.065624 50.643177 53.83125 50.643177Q54.45625 50.643177 54.8625 50.268177Q55.284374 49.893177 55.409374 49.096302ZM57.346874 51.377552L57.346874 42.783802L58.39375 42.783802L58.39375 45.861927Q59.128124 45.018177 60.253124 45.018177Q60.95625 45.018177 61.45625 45.299427Q61.971874 45.565052 62.190624 46.049427Q62.409374 46.518177 62.409374 47.440052L62.409374 51.377552L61.3625 51.377552L61.3625 47.440052Q61.3625 46.643177 61.01875 46.283802Q60.675 45.924427 60.05 45.924427Q59.58125 45.924427 59.159374 46.174427Q58.753124 46.408802 58.565624 46.830677Q58.39375 47.236927 58.39375 47.971302L58.39375 51.377552L57.346874 51.377552Z" fill-rule="nonzero"/><path fill="#000000" d="M23.503124 90.71004L23.503124 89.71004L27.128124 89.69441L27.128124 92.88191Q26.3 93.55379 25.409374 93.89754Q24.51875 94.22566 23.58125 94.22566Q22.315624 94.22566 21.26875 93.69441Q20.2375 93.14754 19.70625 92.13191Q19.190624 91.10066 19.190624 89.83504Q19.190624 88.56941 19.70625 87.49129Q20.2375 86.39754 21.221874 85.88191Q22.20625 85.35066 23.4875 85.35066Q24.425 85.35066 25.175 85.64754Q25.925 85.94441 26.346874 86.49129Q26.784374 87.02254 27.003124 87.89754L25.9875 88.17879Q25.784374 87.52254 25.4875 87.14754Q25.20625 86.77254 24.675 86.55379Q24.14375 86.31941 23.503124 86.31941Q22.721874 86.31941 22.14375 86.55379Q21.58125 86.78816 21.221874 87.17879Q20.878124 87.56941 20.690624 88.03816Q20.3625 88.83504 20.3625 89.75691Q20.3625 90.91316 20.753124 91.69441Q21.159374 92.46004 21.909374 92.83504Q22.659374 93.21004 23.51875 93.21004Q24.253124 93.21004 24.95625 92.92879Q25.659374 92.63191 26.01875 92.31941L26.01875 90.71004L23.503124 90.71004ZM32.596874 92.08504L33.690624 92.21004Q33.440624 93.16316 32.7375 93.69441Q32.034374 94.22566 30.95625 94.22566Q29.596874 94.22566 28.784374 93.38191Q27.9875 92.53816 27.9875 91.02254Q27.9875 89.46004 28.8 88.60066Q29.6125 87.72566 30.89375 87.72566Q32.14375 87.72566 32.925 88.56941Q33.721874 89.41316 33.721874 90.96004Q33.721874 91.05379 33.721874 91.24129L29.08125 91.24129Q29.14375 92.27254 29.659374 92.81941Q30.175 93.35066 30.95625 93.35066Q31.534374 93.35066 31.940624 93.05379Q32.3625 92.74129 32.596874 92.08504ZM29.14375 90.38191L32.6125 90.38191Q32.55 89.58504 32.221874 89.19441Q31.70625 88.58504 30.909374 88.58504Q30.175 88.58504 29.675 89.06941Q29.190624 89.55379 29.14375 90.38191ZM35.33125 94.08504L35.33125 87.86629L36.284374 87.86629L36.284374 88.80379Q36.64375 88.14754 36.940624 87.94441Q37.253124 87.72566 37.628124 87.72566Q38.159374 87.72566 38.70625 88.05379L38.346874 89.03816Q37.95625 88.80379 37.58125 88.80379Q37.221874 88.80379 36.940624 89.02254Q36.675 89.22566 36.565624 89.60066Q36.378124 90.16316 36.378124 90.81941L36.378124 94.08504L35.33125 94.08504ZM39.346874 94.08504L39.346874 87.86629L40.284374 87.86629L40.284374 88.74129Q40.58125 88.27254 41.065624 88.00691Q41.55 87.72566 42.175 87.72566Q42.8625 87.72566 43.3 88.00691Q43.753124 88.28816 43.925 88.80379Q44.675 87.72566 45.846874 87.72566Q46.784374 87.72566 47.26875 88.24129Q47.76875 88.74129 47.76875 89.81941L47.76875 94.08504L46.721874 94.08504L46.721874 90.16316Q46.721874 89.53816 46.6125 89.25691Q46.51875 88.97566 46.253124 88.80379Q45.9875 88.63191 45.6125 88.63191Q44.95625 88.63191 44.51875 89.06941Q44.096874 89.50691 44.096874 90.47566L44.096874 94.08504L43.034374 94.08504L43.034374 90.03816Q43.034374 89.33504 42.76875 88.99129Q42.51875 88.63191 41.940624 88.63191Q41.4875 88.63191 41.1125 88.86629Q40.7375 89.10066 40.565624 89.55379Q40.39375 90.00691 40.39375 90.85066L40.39375 94.08504L39.346874 94.08504ZM54.409374 93.31941Q53.815624 93.81941 53.26875 94.02254Q52.7375 94.22566 52.1125 94.22566Q51.08125 94.22566 50.534374 93.72566Q49.9875 93.22566 49.9875 92.44441Q49.9875 91.99129 50.190624 91.61629Q50.39375 91.22566 50.7375 91.00691Q51.08125 90.77254 51.503124 90.66316Q51.8 90.56941 52.440624 90.49129Q53.70625 90.35066 54.315624 90.13191Q54.315624 89.91316 54.315624 89.86629Q54.315624 89.21004 54.01875 88.94441Q53.6125 88.60066 52.815624 88.60066Q52.08125 88.60066 51.721874 88.86629Q51.3625 89.11629 51.190624 89.77254L50.159374 89.63191Q50.3 88.97566 50.628124 88.56941Q50.95625 88.16316 51.565624 87.94441Q52.175 87.72566 52.971874 87.72566Q53.76875 87.72566 54.26875 87.91316Q54.76875 88.10066 55.003124 88.38191Q55.2375 88.66316 55.33125 89.10066Q55.378124 89.36629 55.378124 90.06941L55.378124 91.47566Q55.378124 92.94441 55.440624 93.33504Q55.51875 93.72566 55.721874 94.08504L54.6125 94.08504Q54.45625 93.75691 54.409374 93.31941ZM54.315624 90.96004Q53.7375 91.19441 52.596874 91.36629Q51.940624 91.46004 51.675 91.58504Q51.409374 91.69441 51.253124 91.91316Q51.1125 92.13191 51.1125 92.41316Q51.1125 92.83504 51.425 93.11629Q51.753124 93.39754 52.3625 93.39754Q52.971874 93.39754 53.440624 93.13191Q53.925 92.86629 54.14375 92.39754Q54.315624 92.03816 54.315624 91.35066L54.315624 90.96004ZM57.346874 94.08504L57.346874 87.86629L58.284374 87.86629L58.284374 88.74129Q58.971874 87.72566 60.26875 87.72566Q60.83125 87.72566 61.3 87.92879Q61.784374 88.13191 62.01875 88.46004Q62.253124 88.78816 62.346874 89.22566Q62.39375 89.52254 62.39375 90.25691L62.39375 94.08504L61.346874 94.08504L61.346874 90.30379Q61.346874 89.64754 61.221874 89.33504Q61.096874 89.02254 60.784374 88.83504Q60.471874 88.63191 60.05 88.63191Q59.378124 88.63191 58.878124 89.06941Q58.39375 89.49129 58.39375 90.67879L58.39375 94.08504L57.346874 94.08504Z" fill-rule="nonzero"/><path fill="#000000" d="M25.425 136.79251L25.425 128.19876L26.565624 128.19876L26.565624 135.77689L30.8 135.77689L30.8 136.79251L25.425 136.79251ZM36.409374 136.02689Q35.815624 136.52689 35.26875 136.73001Q34.7375 136.93314 34.1125 136.93314Q33.08125 136.93314 32.534374 136.43314Q31.9875 135.93314 31.9875 135.15189Q31.9875 134.69876 32.190624 134.32376Q32.39375 133.93314 32.7375 133.71439Q33.08125 133.48001 33.503124 133.37064Q33.8 133.27689 34.440624 133.19876Q35.70625 133.05814 36.315624 132.83939Q36.315624 132.62064 36.315624 132.57376Q36.315624 131.91751 36.01875 131.65189Q35.6125 131.30814 34.815624 131.30814Q34.08125 131.30814 33.721874 131.57376Q33.3625 131.82376 33.190624 132.48001L32.159374 132.33939Q32.3 131.68314 32.628124 131.27689Q32.95625 130.87064 33.565624 130.65189Q34.175 130.43314 34.971874 130.43314Q35.76875 130.43314 36.26875 130.62064Q36.76875 130.80814 37.003124 131.08939Q37.2375 131.37064 37.33125 131.80814Q37.378124 132.07376 37.378124 132.77689L37.378124 134.18314Q37.378124 135.65189 37.440624 136.04251Q37.51875 136.43314 37.721874 136.79251L36.6125 136.79251Q36.45625 136.46439 36.409374 136.02689ZM36.315624 133.66751Q35.7375 133.90189 34.596874 134.07376Q33.940624 134.16751 33.675 134.29251Q33.409374 134.40189 33.253124 134.62064Q33.1125 134.83939 33.1125 135.12064Q33.1125 135.54251 33.425 135.82376Q33.753124 136.10501 34.3625 136.10501Q34.971874 136.10501 35.440624 135.83939Q35.925 135.57376 36.14375 135.10501Q36.315624 134.74564 36.315624 134.05814L36.315624 133.66751ZM41.64375 135.85501L41.8 136.77689Q41.346874 136.87064 41.003124 136.87064Q40.425 136.87064 40.1125 136.69876Q39.8 136.51126 39.659374 136.21439Q39.534374 135.91751 39.534374 134.96439L39.534374 131.38626L38.76875 131.38626L38.76875 130.57376L39.534374 130.57376L39.534374 129.02689L40.58125 128.40189L40.58125 130.57376L41.64375 130.57376L41.64375 131.38626L40.58125 131.38626L40.58125 135.02689Q40.58125 135.48001 40.628124 135.60501Q40.690624 135.73001 40.815624 135.80814Q40.940624 135.88626 41.175 135.88626Q41.3625 135.88626 41.64375 135.85501ZM44.065624 136.79251L41.70625 130.57376L42.815624 130.57376L44.159374 134.29251Q44.3625 134.90189 44.55 135.54251Q44.690624 135.05814 44.940624 134.37064L46.33125 130.57376L47.409374 130.57376L45.05 136.79251L44.065624 136.79251ZM47.346874 129.41751L47.346874 128.19876L48.409374 128.19876L48.409374 129.41751L47.346874 129.41751ZM47.346874 136.79251L47.346874 130.57376L48.409374 130.57376L48.409374 136.79251L47.346874 136.79251ZM54.409374 136.02689Q53.815624 136.52689 53.26875 136.73001Q52.7375 136.93314 52.1125 136.93314Q51.08125 136.93314 50.534374 136.43314Q49.9875 135.93314 49.9875 135.15189Q49.9875 134.69876 50.190624 134.32376Q50.39375 133.93314 50.7375 133.71439Q51.08125 133.48001 51.503124 133.37064Q51.8 133.27689 52.440624 133.19876Q53.70625 133.05814 54.315624 132.83939Q54.315624 132.62064 54.315624 132.57376Q54.315624 131.91751 54.01875 131.65189Q53.6125 131.30814 52.815624 131.30814Q52.08125 131.30814 51.721874 131.57376Q51.3625 131.82376 51.190624 132.48001L50.159374 132.33939Q50.3 131.68314 50.628124 131.27689Q50.95625 130.87064 51.565624 130.65189Q52.175 130.43314 52.971874 130.43314Q53.76875 130.43314 54.26875 130.62064Q54.76875 130.80814 55.003124 131.08939Q55.2375 131.37064 55.33125 131.80814Q55.378124 132.07376 55.378124 132.77689L55.378124 134.18314Q55.378124 135.65189 55.440624 136.04251Q55.51875 136.43314 55.721874 136.79251L54.6125 136.79251Q54.45625 136.46439 54.409374 136.02689ZM54.315624 133.66751Q53.7375 133.90189 52.596874 134.07376Q51.940624 134.16751 51.675 134.29251Q51.409374 134.40189 51.253124 134.62064Q51.1125 134.83939 51.1125 135.12064Q51.1125 135.54251 51.425 135.82376Q51.753124 136.10501 52.3625 136.10501Q52.971874 136.10501 53.440624 135.83939Q53.925 135.57376 54.14375 135.10501Q54.315624 134.74564 54.315624 134.05814L54.315624 133.66751ZM57.346874 136.79251L57.346874 130.57376L58.284374 130.57376L58.284374 131.44876Q58.971874 130.43314 60.26875 130.43314Q60.83125 130.43314 61.3 130.63626Q61.784374 130.83939 62.01875 131.16751Q62.253124 131.49564 62.346874 131.93314Q62.39375 132.23001 62.39375 132.96439L62.39375 136.79251L61.346874 136.79251L61.346874 133.01126Q61.346874 132.35501 61.221874 132.04251Q61.096874 131.73001 60.784374 131.54251Q60.471874 131.33939 60.05 131.33939Q59.378124 131.33939 58.878124 131.77689Q58.39375 132.19876 58.39375 133.38626L58.39375 136.79251L57.346874 136.79251Z" fill-rule="nonzero"/><path fill="#000000" d="M40.675 179.5L40.675 170.90625L41.8 170.90625L41.8 179.5L40.675 179.5ZM43.33125 179.5L43.33125 173.28125L44.284374 173.28125L44.284374 174.21875Q44.64375 173.5625 44.940624 173.35938Q45.253124 173.14062 45.628124 173.14062Q46.159374 173.14062 46.70625 173.46875L46.346874 174.45312Q45.95625 174.21875 45.58125 174.21875Q45.221874 174.21875 44.940624 174.4375Q44.675 174.64062 44.565624 175.01562Q44.378124 175.57812 44.378124 176.23438L44.378124 179.5L43.33125 179.5ZM47.346874 172.125L47.346874 170.90625L48.409374 170.90625L48.409374 172.125L47.346874 172.125ZM47.346874 179.5L47.346874 173.28125L48.409374 173.28125L48.409374 179.5L47.346874 179.5ZM49.925 177.64062L50.95625 177.48438Q51.05 178.10938 51.440624 178.4375Q51.846874 178.76562 52.58125 178.76562Q53.3 178.76562 53.64375 178.48438Q54.003124 178.1875 54.003124 177.78125Q54.003124 177.42188 53.690624 177.21875Q53.471874 177.07812 52.6125 176.85938Q51.45625 176.5625 51.003124 176.35938Q50.565624 176.14062 50.33125 175.76562Q50.096874 175.39062 50.096874 174.92188Q50.096874 174.51562 50.284374 174.15625Q50.471874 173.79688 50.8 173.5625Q51.05 173.39062 51.471874 173.26562Q51.89375 173.14062 52.39375 173.14062Q53.1125 173.14062 53.659374 173.35938Q54.221874 173.5625 54.4875 173.92188Q54.753124 174.28125 54.846874 174.875L53.815624 175.01562Q53.753124 174.54688 53.409374 174.28125Q53.08125 174.0 52.45625 174.0Q51.7375 174.0 51.425 174.25Q51.1125 174.48438 51.1125 174.8125Q51.1125 175.01562 51.2375 175.17188Q51.378124 175.34375 51.64375 175.45312Q51.8 175.51562 52.58125 175.71875Q53.70625 176.03125 54.14375 176.21875Q54.58125 176.40625 54.83125 176.76562Q55.08125 177.125 55.08125 177.67188Q55.08125 178.20312 54.76875 178.67188Q54.471874 179.125 53.89375 179.39062Q53.315624 179.64062 52.58125 179.64062Q51.3625 179.64062 50.721874 179.14062Q50.096874 178.625 49.925 177.64062ZM57.346874 179.5L57.346874 170.90625L58.39375 170.90625L58.39375 173.98438Q59.128124 173.14062 60.253124 173.14062Q60.95625 173.14062 61.45625 173.42188Q61.971874 173.6875 62.190624 174.17188Q62.409374 174.64062 62.409374 175.5625L62.409374 179.5L61.3625 179.5L61.3625 175.5625Q61.3625 174.76562 61.01875 174.40625Q60.675 174.04688 60.05 174.04688Q59.58125 174.04688 59.159374 174.29688Q58.753124 174.53125 58.565624 174.95312Q58.39375 175.35938 58.39375 176.09375L58.39375 179.5L57.346874 179.5Z" fill-rule="nonzero"/><path fill="#000000" d="M22.425 222.20749L22.425 213.61374L25.659374 213.61374Q26.64375 213.61374 27.2375 213.87936Q27.83125 214.14499 28.159374 214.69186Q28.503124 215.22311 28.503124 215.81686Q28.503124 216.36374 28.20625 216.84811Q27.909374 217.33249 27.3 217.62936Q28.08125 217.86374 28.4875 218.42624Q28.909374 218.97311 28.909374 219.72311Q28.909374 220.31686 28.659374 220.84811Q28.409374 221.36374 28.034374 221.64499Q27.659374 221.92624 27.08125 222.06686Q26.51875 222.20749 25.70625 222.20749L22.425 222.20749ZM23.565624 217.22311L25.425 217.22311Q26.175 217.22311 26.503124 217.12936Q26.940624 217.00436 27.159374 216.70749Q27.378124 216.39499 27.378124 215.94186Q27.378124 215.51999 27.175 215.19186Q26.971874 214.86374 26.58125 214.75436Q26.20625 214.62936 25.284374 214.62936L23.565624 214.62936L23.565624 217.22311ZM23.565624 221.19186L25.70625 221.19186Q26.253124 221.19186 26.471874 221.14499Q26.878124 221.08249 27.128124 220.92624Q27.39375 220.75436 27.565624 220.44186Q27.7375 220.12936 27.7375 219.72311Q27.7375 219.23874 27.4875 218.87936Q27.253124 218.51999 26.815624 218.37936Q26.378124 218.23874 25.55 218.23874L23.565624 218.23874L23.565624 221.19186ZM34.596874 220.20749L35.690624 220.33249Q35.440624 221.28561 34.7375 221.81686Q34.034374 222.34811 32.95625 222.34811Q31.596874 222.34811 30.784374 221.50436Q29.9875 220.66061 29.9875 219.14499Q29.9875 217.58249 30.8 216.72311Q31.6125 215.84811 32.89375 215.84811Q34.14375 215.84811 34.925 216.69186Q35.721874 217.53561 35.721874 219.08249Q35.721874 219.17624 35.721874 219.36374L31.08125 219.36374Q31.14375 220.39499 31.659374 220.94186Q32.175 221.47311 32.95625 221.47311Q33.534374 221.47311 33.940624 221.17624Q34.3625 220.86374 34.596874 220.20749ZM31.14375 218.50436L34.6125 218.50436Q34.55 217.70749 34.221874 217.31686Q33.70625 216.70749 32.909374 216.70749Q32.175 216.70749 31.675 217.19186Q31.190624 217.67624 31.14375 218.50436ZM37.346874 222.20749L37.346874 215.98874L38.284374 215.98874L38.284374 216.86374Q38.971874 215.84811 40.26875 215.84811Q40.83125 215.84811 41.3 216.05124Q41.784374 216.25436 42.01875 216.58249Q42.253124 216.91061 42.346874 217.34811Q42.39375 217.64499 42.39375 218.37936L42.39375 222.20749L41.346874 222.20749L41.346874 218.42624Q41.346874 217.76999 41.221874 217.45749Q41.096874 217.14499 40.784374 216.95749Q40.471874 216.75436 40.05 216.75436Q39.378124 216.75436 38.878124 217.19186Q38.39375 217.61374 38.39375 218.80124L38.39375 222.20749L37.346874 222.20749ZM44.14375 222.72311L45.175 222.87936Q45.2375 223.34811 45.534374 223.56686Q45.925 223.86374 46.596874 223.86374Q47.33125 223.86374 47.721874 223.56686Q48.128124 223.26999 48.26875 222.75436Q48.3625 222.42624 48.346874 221.39499Q47.659374 222.20749 46.628124 222.20749Q45.346874 222.20749 44.64375 221.28561Q43.940624 220.34811 43.940624 219.06686Q43.940624 218.17624 44.253124 217.42624Q44.58125 216.66061 45.190624 216.25436Q45.8 215.84811 46.628124 215.84811Q47.7375 215.84811 48.45625 216.73874L48.45625 215.98874L49.425 215.98874L49.425 221.36374Q49.425 222.81686 49.128124 223.42624Q48.83125 224.03561 48.190624 224.37936Q47.55 224.73874 46.6125 224.73874Q45.503124 224.73874 44.815624 224.23874Q44.128124 223.73874 44.14375 222.72311ZM45.01875 218.98874Q45.01875 220.20749 45.503124 220.76999Q45.9875 221.33249 46.721874 221.33249Q47.45625 221.33249 47.940624 220.76999Q48.440624 220.20749 48.440624 219.01999Q48.440624 217.87936 47.925 217.30124Q47.425 216.72311 46.70625 216.72311Q46.003124 216.72311 45.503124 217.30124Q45.01875 217.86374 45.01875 218.98874ZM55.409374 221.44186Q54.815624 221.94186 54.26875 222.14499Q53.7375 222.34811 53.1125 222.34811Q52.08125 222.34811 51.534374 221.84811Q50.9875 221.34811 50.9875 220.56686Q50.9875 220.11374 51.190624 219.73874Q51.39375 219.34811 51.7375 219.12936Q52.08125 218.89499 52.503124 218.78561Q52.8 218.69186 53.440624 218.61374Q54.70625 218.47311 55.315624 218.25436Q55.315624 218.03561 55.315624 217.98874Q55.315624 217.33249 55.01875 217.06686Q54.6125 216.72311 53.815624 216.72311Q53.08125 216.72311 52.721874 216.98874Q52.3625 217.23874 52.190624 217.89499L51.159374 217.75436Q51.3 217.09811 51.628124 216.69186Q51.95625 216.28561 52.565624 216.06686Q53.175 215.84811 53.971874 215.84811Q54.76875 215.84811 55.26875 216.03561Q55.76875 216.22311 56.003124 216.50436Q56.2375 216.78561 56.33125 217.22311Q56.378124 217.48874 56.378124 218.19186L56.378124 219.59811Q56.378124 221.06686 56.440624 221.45749Q56.51875 221.84811 56.721874 222.20749L55.6125 222.20749Q55.45625 221.87936 55.409374 221.44186ZM55.315624 219.08249Q54.7375 219.31686 53.596874 219.48874Q52.940624 219.58249 52.675 219.70749Q52.409374 219.81686 52.253124 220.03561Q52.1125 220.25436 52.1125 220.53561Q52.1125 220.95749 52.425 221.23874Q52.753124 221.51999 53.3625 221.51999Q53.971874 221.51999 54.440624 221.25436Q54.925 220.98874 55.14375 220.51999Q55.315624 220.16061 55.315624 219.47311L55.315624 219.08249ZM58.315624 222.20749L58.315624 213.61374L59.378124 213.61374L59.378124 222.20749L58.315624 222.20749ZM61.346874 214.83249L61.346874 213.61374L62.409374 213.61374L62.409374 214.83249L61.346874 214.83249ZM61.346874 222.20749L61.346874 215.98874L62.409374 215.98874L62.409374 222.20749L61.346874 222.20749Z" fill-rule="nonzero"/><path fill="#000000" d="M35.659374 264.91498L35.659374 257.33685L32.83125 257.33685L32.83125 256.32123L39.64375 256.32123L39.64375 257.33685L36.8 257.33685L36.8 264.91498L35.659374 264.91498ZM44.409374 264.14935Q43.815624 264.64935 43.26875 264.85248Q42.7375 265.0556 42.1125 265.0556Q41.08125 265.0556 40.534374 264.5556Q39.9875 264.0556 39.9875 263.27435Q39.9875 262.82123 40.190624 262.44623Q40.39375 262.0556 40.7375 261.83685Q41.08125 261.60248 41.503124 261.4931Q41.8 261.39935 42.440624 261.32123Q43.70625 261.1806 44.315624 260.96185Q44.315624 260.7431 44.315624 260.69623Q44.315624 260.03998 44.01875 259.77435Q43.6125 259.4306 42.815624 259.4306Q42.08125 259.4306 41.721874 259.69623Q41.3625 259.94623 41.190624 260.60248L40.159374 260.46185Q40.3 259.8056 40.628124 259.39935Q40.95625 258.9931 41.565624 258.77435Q42.175 258.5556 42.971874 258.5556Q43.76875 258.5556 44.26875 258.7431Q44.76875 258.9306 45.003124 259.21185Q45.2375 259.4931 45.33125 259.9306Q45.378124 260.19623 45.378124 260.89935L45.378124 262.3056Q45.378124 263.77435 45.440624 264.16498Q45.51875 264.5556 45.721874 264.91498L44.6125 264.91498Q44.45625 264.58685 44.409374 264.14935ZM44.315624 261.78998Q43.7375 262.02435 42.596874 262.19623Q41.940624 262.28998 41.675 262.41498Q41.409374 262.52435 41.253124 262.7431Q41.1125 262.96185 41.1125 263.2431Q41.1125 263.66498 41.425 263.94623Q41.753124 264.22748 42.3625 264.22748Q42.971874 264.22748 43.440624 263.96185Q43.925 263.69623 44.14375 263.22748Q44.315624 262.8681 44.315624 262.1806L44.315624 261.78998ZM47.346874 264.91498L47.346874 258.69623L48.284374 258.69623L48.284374 259.57123Q48.58125 259.10248 49.065624 258.83685Q49.55 258.5556 50.175 258.5556Q50.8625 258.5556 51.3 258.83685Q51.753124 259.1181 51.925 259.63373Q52.675 258.5556 53.846874 258.5556Q54.784374 258.5556 55.26875 259.07123Q55.76875 259.57123 55.76875 260.64935L55.76875 264.91498L54.721874 264.91498L54.721874 260.9931Q54.721874 260.3681 54.6125 260.08685Q54.51875 259.8056 54.253124 259.63373Q53.9875 259.46185 53.6125 259.46185Q52.95625 259.46185 52.51875 259.89935Q52.096874 260.33685 52.096874 261.3056L52.096874 264.91498L51.034374 264.91498L51.034374 260.8681Q51.034374 260.16498 50.76875 259.82123Q50.51875 259.46185 49.940624 259.46185Q49.4875 259.46185 49.1125 259.69623Q48.7375 259.9306 48.565624 260.38373Q48.39375 260.83685 48.39375 261.6806L48.39375 264.91498L47.346874 264.91498ZM58.346874 257.53998L58.346874 256.32123L59.409374 256.32123L59.409374 257.53998L58.346874 257.53998ZM58.346874 264.91498L58.346874 258.69623L59.409374 258.69623L59.409374 264.91498L58.346874 264.91498ZM61.315624 264.91498L61.315624 256.32123L62.378124 256.32123L62.378124 264.91498L61.315624 264.91498Z" fill-rule="nonzero"/><path fill="#000000" d="M33.503124 304.24744L33.503124 303.24744L37.128124 303.2318L37.128124 306.4193Q36.3 307.0912 35.409374 307.43494Q34.51875 307.76306 33.58125 307.76306Q32.315624 307.76306 31.26875 307.2318Q30.2375 306.68494 29.70625 305.6693Q29.190624 304.63806 29.190624 303.37244Q29.190624 302.1068 29.70625 301.0287Q30.2375 299.93494 31.221874 299.4193Q32.20625 298.88806 33.4875 298.88806Q34.425 298.88806 35.175 299.18494Q35.925 299.4818 36.346874 300.0287Q36.784374 300.55994 37.003124 301.43494L35.9875 301.7162Q35.784374 301.05994 35.4875 300.68494Q35.20625 300.30994 34.675 300.0912Q34.14375 299.8568 33.503124 299.8568Q32.721874 299.8568 32.14375 300.0912Q31.58125 300.32556 31.221874 300.7162Q30.878124 301.1068 30.690624 301.57556Q30.3625 302.37244 30.3625 303.2943Q30.3625 304.45056 30.753124 305.2318Q31.159374 305.99744 31.909374 306.37244Q32.659374 306.74744 33.51875 306.74744Q34.253124 306.74744 34.95625 306.4662Q35.659374 306.1693 36.01875 305.8568L36.01875 304.24744L33.503124 304.24744ZM42.409374 306.8568Q41.815624 307.3568 41.26875 307.55994Q40.7375 307.76306 40.1125 307.76306Q39.08125 307.76306 38.534374 307.26306Q37.9875 306.76306 37.9875 305.9818Q37.9875 305.5287 38.190624 305.1537Q38.39375 304.76306 38.7375 304.5443Q39.08125 304.30994 39.503124 304.20056Q39.8 304.1068 40.440624 304.0287Q41.70625 303.88806 42.315624 303.6693Q42.315624 303.45056 42.315624 303.4037Q42.315624 302.74744 42.01875 302.4818Q41.6125 302.13806 40.815624 302.13806Q40.08125 302.13806 39.721874 302.4037Q39.3625 302.6537 39.190624 303.30994L38.159374 303.1693Q38.3 302.51306 38.628124 302.1068Q38.95625 301.70056 39.565624 301.4818Q40.175 301.26306 40.971874 301.26306Q41.76875 301.26306 42.26875 301.45056Q42.76875 301.63806 43.003124 301.9193Q43.2375 302.20056 43.33125 302.63806Q43.378124 302.9037 43.378124 303.6068L43.378124 305.01306Q43.378124 306.4818 43.440624 306.87244Q43.51875 307.26306 43.721874 307.62244L42.6125 307.62244Q42.45625 307.2943 42.409374 306.8568ZM42.315624 304.49744Q41.7375 304.7318 40.596874 304.9037Q39.940624 304.99744 39.675 305.12244Q39.409374 305.2318 39.253124 305.45056Q39.1125 305.6693 39.1125 305.95056Q39.1125 306.37244 39.425 306.6537Q39.753124 306.93494 40.3625 306.93494Q40.971874 306.93494 41.440624 306.6693Q41.925 306.4037 42.14375 305.93494Q42.315624 305.57556 42.315624 304.88806L42.315624 304.49744ZM49.596874 305.62244L50.690624 305.74744Q50.440624 306.70056 49.7375 307.2318Q49.034374 307.76306 47.95625 307.76306Q46.596874 307.76306 45.784374 306.9193Q44.9875 306.07556 44.9875 304.55994Q44.9875 302.99744 45.8 302.13806Q46.6125 301.26306 47.89375 301.26306Q49.14375 301.26306 49.925 302.1068Q50.721874 302.95056 50.721874 304.49744Q50.721874 304.5912 50.721874 304.7787L46.08125 304.7787Q46.14375 305.80994 46.659374 306.3568Q47.175 306.88806 47.95625 306.88806Q48.534374 306.88806 48.940624 306.5912Q49.3625 306.2787 49.596874 305.62244ZM46.14375 303.9193L49.6125 303.9193Q49.55 303.12244 49.221874 302.7318Q48.70625 302.12244 47.909374 302.12244Q47.175 302.12244 46.675 302.6068Q46.190624 303.0912 46.14375 303.9193ZM52.315624 307.62244L52.315624 299.0287L53.378124 299.0287L53.378124 307.62244L52.315624 307.62244ZM55.346874 300.24744L55.346874 299.0287L56.409374 299.0287L56.409374 300.24744L55.346874 300.24744ZM55.346874 307.62244L55.346874 301.4037L56.409374 301.4037L56.409374 307.62244L55.346874 307.62244ZM62.409374 305.3412L63.440624 305.4818Q63.26875 306.5443 62.565624 307.1537Q61.8625 307.76306 60.846874 307.76306Q59.565624 307.76306 58.784374 306.93494Q58.01875 306.0912 58.01875 304.5287Q58.01875 303.5287 58.346874 302.7787Q58.690624 302.01306 59.3625 301.63806Q60.05 301.26306 60.8625 301.26306Q61.8625 301.26306 62.503124 301.7787Q63.159374 302.2787 63.346874 303.2318L62.315624 303.38806Q62.175 302.76306 61.8 302.45056Q61.425 302.12244 60.89375 302.12244Q60.096874 302.12244 59.596874 302.70056Q59.096874 303.26306 59.096874 304.49744Q59.096874 305.76306 59.58125 306.32556Q60.065624 306.88806 60.83125 306.88806Q61.45625 306.88806 61.8625 306.51306Q62.284374 306.13806 62.409374 305.3412Z" fill-rule="nonzero"/><path fill="#000000" d="M56.51875 349.45L55.471874 349.45L55.471874 342.73126Q55.08125 343.09064 54.45625 343.46564Q53.846874 343.825 53.3625 343.9969L53.3625 342.98126Q54.2375 342.5594 54.89375 341.98126Q55.565624 341.3875 55.846874 340.825L56.51875 340.825L56.51875 349.45ZM59.55 345.21564Q59.55 343.6844 59.8625 342.7625Q60.175 341.825 60.784374 341.325Q61.409374 340.825 62.346874 340.825Q63.034374 340.825 63.55 341.10626Q64.08125 341.3875 64.425 341.91876Q64.76875 342.4344 64.95625 343.1844Q65.14375 343.9344 65.14375 345.21564Q65.14375 346.73126 64.83125 347.65314Q64.53438 348.575 63.909374 349.09064Q63.3 349.59064 62.346874 349.59064Q61.1125 349.59064 60.39375 348.7Q59.55 347.6375 59.55 345.21564ZM60.628124 345.21564Q60.628124 347.325 61.128124 348.02814Q61.628124 348.73126 62.346874 348.73126Q63.08125 348.73126 63.565624 348.02814Q64.06563 347.325 64.06563 345.21564Q64.06563 343.09064 63.565624 342.40314Q63.08125 341.7 62.33125 341.7Q61.6125 341.7 61.175 342.3094Q60.628124 343.09064 60.628124 345.21564ZM66.55 345.21564Q66.55 343.6844 66.8625 342.7625Q67.175 341.825 67.78438 341.325Q68.40938 340.825 69.34688 340.825Q70.03438 340.825 70.55 341.10626Q71.08125 341.3875 71.425 341.91876Q71.76875 342.4344 71.95625 343.1844Q72.14375 343.9344 72.14375 345.21564Q72.14375 346.73126 71.83125 347.65314Q71.53438 348.575 70.90938 349.09064Q70.3 349.59064 69.34688 349.59064Q68.1125 349.59064 67.39375 348.7Q66.55 347.6375 66.55 345.21564ZM67.62813 345.21564Q67.62813 347.325 68.12813 348.02814Q68.62813 348.73126 69.34688 348.73126Q70.08125 348.73126 70.56563 348.02814Q71.06563 347.325 71.06563 345.21564Q71.06563 343.09064 70.56563 342.40314Q70.08125 341.7 69.33125 341.7Q68.6125 341.7 68.175 342.3094Q67.62813 343.09064 67.62813 345.21564ZM73.55 345.21564Q73.55 343.6844 73.8625 342.7625Q74.175 341.825 74.78438 341.325Q75.40938 340.825 76.34688 340.825Q77.03438 340.825 77.55 341.10626Q78.08125 341.3875 78.425 341.91876Q78.76875 342.4344 78.95625 343.1844Q79.14375 343.9344 79.14375 345.21564Q79.14375 346.73126 78.83125 347.65314Q78.53438 348.575 77.90938 349.09064Q77.3 349.59064 76.34688 349.59064Q75.1125 349.59064 74.39375 348.7Q73.55 347.6375 73.55 345.21564ZM74.62813 345.21564Q74.62813 347.325 75.12813 348.02814Q75.62813 348.73126 76.34688 348.73126Q77.08125 348.73126 77.56563 348.02814Q78.06563 347.325 78.06563 345.21564Q78.06563 343.09064 77.56563 342.40314Q77.08125 341.7 76.33125 341.7Q75.6125 341.7 75.175 342.3094Q74.62813 343.09064 74.62813 345.21564ZM80.55 345.21564Q80.55 343.6844 80.8625 342.7625Q81.175 341.825 81.78438 341.325Q82.40938 340.825 83.34688 340.825Q84.03438 340.825 84.55 341.10626Q85.08125 341.3875 85.425 341.91876Q85.76875 342.4344 85.95625 343.1844Q86.14375 343.9344 86.14375 345.21564Q86.14375 346.73126 85.83125 347.65314Q85.53438 348.575 84.90938 349.09064Q84.3 349.59064 83.34688 349.59064Q82.1125 349.59064 81.39375 348.7Q80.55 347.6375 80.55 345.21564ZM81.62813 345.21564Q81.62813 347.325 82.12813 348.02814Q82.62813 348.73126 83.34688 348.73126Q84.08125 348.73126 84.56563 348.02814Q85.06563 347.325 85.06563 345.21564Q85.06563 343.09064 84.56563 342.40314Q84.08125 341.7 83.33125 341.7Q82.6125 341.7 82.175 342.3094Q81.62813 343.09064 81.62813 345.21564Z" fill-rule="nonzero"/><path fill="#000000" d="M140.78545 349.45L139.73857 349.45L139.73857 342.73126Q139.34795 343.09064 138.72295 343.46564Q138.11357 343.825 137.6292 343.9969L137.6292 342.98126Q138.5042 342.5594 139.16045 341.98126Q139.83232 341.3875 140.11357 340.825L140.78545 340.825L140.78545 349.45ZM143.8167 345.21564Q143.8167 343.6844 144.1292 342.7625Q144.4417 341.825 145.05107 341.325Q145.67607 340.825 146.61357 340.825Q147.30107 340.825 147.8167 341.10626Q148.34795 341.3875 148.6917 341.91876Q149.03545 342.4344 149.22295 343.1844Q149.41045 343.9344 149.41045 345.21564Q149.41045 346.73126 149.09795 347.65314Q148.80107 348.575 148.17607 349.09064Q147.5667 349.59064 146.61357 349.59064Q145.3792 349.59064 144.66045 348.7Q143.8167 347.6375 143.8167 345.21564ZM144.89482 345.21564Q144.89482 347.325 145.39482 348.02814Q145.89482 348.73126 146.61357 348.73126Q147.34795 348.73126 147.83232 348.02814Q148.33232 347.325 148.33232 345.21564Q148.33232 343.09064 147.83232 342.40314Q147.34795 341.7 146.59795 341.7Q145.8792 341.7 145.4417 342.3094Q144.89482 343.09064 144.89482 345.21564ZM150.8167 345.21564Q150.8167 343.6844 151.1292 342.7625Q151.4417 341.825 152.05107 341.325Q152.67607 340.825 153.61357 340.825Q154.30107 340.825 154.8167 341.10626Q155.34795 341.3875 155.6917 341.91876Q156.03545 342.4344 156.22295 343.1844Q156.41045 343.9344 156.41045 345.21564Q156.41045 346.73126 156.09795 347.65314Q155.80107 348.575 155.17607 349.09064Q154.5667 349.59064 153.61357 349.59064Q152.3792 349.59064 151.66045 348.7Q150.8167 347.6375 150.8167 345.21564ZM151.89482 345.21564Q151.89482 347.325 152.39482 348.02814Q152.89482 348.73126 153.61357 348.73126Q154.34795 348.73126 154.83232 348.02814Q155.33232 347.325 155.33232 345.21564Q155.33232 343.09064 154.83232 342.40314Q154.34795 341.7 153.59795 341.7Q152.8792 341.7 152.4417 342.3094Q151.89482 343.09064 151.89482 345.21564ZM157.8167 345.21564Q157.8167 343.6844 158.1292 342.7625Q158.4417 341.825 159.05107 341.325Q159.67607 340.825 160.61357 340.825Q161.30107 340.825 161.8167 341.10626Q162.34795 341.3875 162.6917 341.91876Q163.03545 342.4344 163.22295 343.1844Q163.41045 343.9344 163.41045 345.21564Q163.41045 346.73126 163.09795 347.65314Q162.80107 348.575 162.17607 349.09064Q161.5667 349.59064 160.61357 349.59064Q159.3792 349.59064 158.66045 348.7Q157.8167 347.6375 157.8167 345.21564ZM158.89482 345.21564Q158.89482 347.325 159.39482 348.02814Q159.89482 348.73126 160.61357 348.73126Q161.34795 348.73126 161.83232 348.02814Q162.33232 347.325 162.33232 345.21564Q162.33232 343.09064 161.83232 342.40314Q161.34795 341.7 160.59795 341.7Q159.8792 341.7 159.4417 342.3094Q158.89482 343.09064 158.89482 345.21564ZM164.8167 345.21564Q164.8167 343.6844 165.1292 342.7625Q165.4417 341.825 166.05107 341.325Q166.67607 340.825 167.61357 340.825Q168.30107 340.825 168.8167 341.10626Q169.34795 341.3875 169.6917 341.91876Q170.03545 342.4344 170.22295 343.1844Q170.41045 343.9344 170.41045 345.21564Q170.41045 346.73126 170.09795 347.65314Q169.80107 348.575 169.17607 349.09064Q168.5667 349.59064 167.61357 349.59064Q166.3792 349.59064 165.66045 348.7Q164.8167 347.6375 164.8167 345.21564ZM165.89482 345.21564Q165.89482 347.325 166.39482 348.02814Q166.89482 348.73126 167.61357 348.73126Q168.34795 348.73126 168.83232 348.02814Q169.33232 347.325 169.33232 345.21564Q169.33232 343.09064 168.83232 342.40314Q168.34795 341.7 167.59795 341.7Q166.8792 341.7 166.4417 342.3094Q165.89482 343.09064 165.89482 345.21564ZM171.8167 345.21564Q171.8167 343.6844 172.1292 342.7625Q172.4417 341.825 173.05107 341.325Q173.67607 340.825 174.61357 340.825Q175.30107 340.825 175.8167 341.10626Q176.34795 341.3875 176.6917 341.91876Q177.03545 342.4344 177.22295 343.1844Q177.41045 343.9344 177.41045 345.21564Q177.41045 346.73126 177.09795 347.65314Q176.80107 348.575 176.17607 349.09064Q175.5667 349.59064 174.61357 349.59064Q173.3792 349.59064 172.66045 348.7Q171.8167 347.6375 171.8167 345.21564ZM172.89482 345.21564Q172.89482 347.325 173.39482 348.02814Q173.89482 348.73126 174.61357 348.73126Q175.34795 348.73126 175.83232 348.02814Q176.33232 347.325 176.33232 345.21564Q176.33232 343.09064 175.83232 342.40314Q175.34795 341.7 174.59795 341.7Q173.8792 341.7 173.4417 342.3094Q172.89482 343.09064 172.89482 345.21564Z" fill-rule="nonzero"/><path fill="#000000" d="M225.05212 349.45L224.00525 349.45L224.00525 342.73126Q223.61462 343.09064 222.98962 343.46564Q222.38025 343.825 221.89587 343.9969L221.89587 342.98126Q222.77087 342.5594 223.42712 341.98126Q224.099 341.3875 224.38025 340.825L225.05212 340.825L225.05212 349.45ZM228.08337 345.21564Q228.08337 343.6844 228.39587 342.7625Q228.70837 341.825 229.31775 341.325Q229.94275 340.825 230.88025 340.825Q231.56775 340.825 232.08337 341.10626Q232.61462 341.3875 232.95837 341.91876Q233.30212 342.4344 233.48962 343.1844Q233.67712 343.9344 233.67712 345.21564Q233.67712 346.73126 233.36462 347.65314Q233.06775 348.575 232.44275 349.09064Q231.83337 349.59064 230.88025 349.59064Q229.64587 349.59064 228.92712 348.7Q228.08337 347.6375 228.08337 345.21564ZM229.1615 345.21564Q229.1615 347.325 229.6615 348.02814Q230.1615 348.73126 230.88025 348.73126Q231.61462 348.73126 232.099 348.02814Q232.599 347.325 232.599 345.21564Q232.599 343.09064 232.099 342.40314Q231.61462 341.7 230.86462 341.7Q230.14587 341.7 229.70837 342.3094Q229.1615 343.09064 229.1615 345.21564ZM235.08337 345.21564Q235.08337 343.6844 235.39587 342.7625Q235.70837 341.825 236.31775 341.325Q236.94275 340.825 237.88025 340.825Q238.56775 340.825 239.08337 341.10626Q239.61462 341.3875 239.95837 341.91876Q240.30212 342.4344 240.48962 343.1844Q240.67712 343.9344 240.67712 345.21564Q240.67712 346.73126 240.36462 347.65314Q240.06775 348.575 239.44275 349.09064Q238.83337 349.59064 237.88025 349.59064Q236.64587 349.59064 235.92712 348.7Q235.08337 347.6375 235.08337 345.21564ZM236.1615 345.21564Q236.1615 347.325 236.6615 348.02814Q237.1615 348.73126 237.88025 348.73126Q238.61462 348.73126 239.099 348.02814Q239.599 347.325 239.599 345.21564Q239.599 343.09064 239.099 342.40314Q238.61462 341.7 237.86462 341.7Q237.14587 341.7 236.70837 342.3094Q236.1615 343.09064 236.1615 345.21564ZM242.08337 345.21564Q242.08337 343.6844 242.39587 342.7625Q242.70837 341.825 243.31775 341.325Q243.94275 340.825 244.88025 340.825Q245.56775 340.825 246.08337 341.10626Q246.61462 341.3875 246.95837 341.91876Q247.30212 342.4344 247.48962 343.1844Q247.67712 343.9344 247.67712 345.21564Q247.67712 346.73126 247.36462 347.65314Q247.06775 348.575 246.44275 349.09064Q245.83337 349.59064 244.88025 349.59064Q243.64587 349.59064 242.92712 348.7Q242.08337 347.6375 242.08337 345.21564ZM243.1615 345.21564Q243.1615 347.325 243.6615 348.02814Q244.1615 348.73126 244.88025 348.73126Q245.61462 348.73126 246.099 348.02814Q246.599 347.325 246.599 345.21564Q246.599 343.09064 246.099 342.40314Q245.61462 341.7 244.86462 341.7Q244.14587 341.7 243.70837 342.3094Q243.1615 343.09064 243.1615 345.21564ZM249.08337 345.21564Q249.08337 343.6844 249.39587 342.7625Q249.70837 341.825 250.31775 341.325Q250.94275 340.825 251.88025 340.825Q252.56775 340.825 253.08337 341.10626Q253.61462 341.3875 253.95837 341.91876Q254.30212 342.4344 254.48962 343.1844Q254.67712 343.9344 254.67712 345.21564Q254.67712 346.73126 254.36462 347.65314Q254.06775 348.575 253.44275 349.09064Q252.83337 349.59064 251.88025 349.59064Q250.64587 349.59064 249.92712 348.7Q249.08337 347.6375 249.08337 345.21564ZM250.1615 345.21564Q250.1615 347.325 250.6615 348.02814Q251.1615 348.73126 251.88025 348.73126Q252.61462 348.73126 253.099 348.02814Q253.599 347.325 253.599 345.21564Q253.599 343.09064 253.099 342.40314Q252.61462 341.7 251.86462 341.7Q251.14587 341.7 250.70837 342.3094Q250.1615 343.09064 250.1615 345.21564ZM256.08337 345.21564Q256.08337 343.6844 256.39587 342.7625Q256.70837 341.825 257.31775 341.325Q257.94275 340.825 258.88025 340.825Q259.56775 340.825 260.08337 341.10626Q260.61462 341.3875 260.95837 341.91876Q261.30212 342.4344 261.48962 343.1844Q261.67712 343.9344 261.67712 345.21564Q261.67712 346.73126 261.36462 347.65314Q261.06775 348.575 260.44275 349.09064Q259.83337 349.59064 258.88025 349.59064Q257.64587 349.59064 256.92712 348.7Q256.08337 347.6375 256.08337 345.21564ZM257.1615 345.21564Q257.1615 347.325 257.6615 348.02814Q258.1615 348.73126 258.88025 348.73126Q259.61462 348.73126 260.099 348.02814Q260.599 347.325 260.599 345.21564Q260.599 343.09064 260.099 342.40314Q259.61462 341.7 258.86462 341.7Q258.14587 341.7 257.70837 342.3094Q257.1615 343.09064 257.1615 345.21564ZM263.08337 345.21564Q263.08337 343.6844 263.39587 342.7625Q263.70837 341.825 264.31775 341.325Q264.94275 340.825 265.88025 340.825Q266.56775 340.825 267.08337 341.10626Q267.61462 341.3875 267.95837 341.91876Q268.30212 342.4344 268.48962 343.1844Q268.67712 343.9344 268.67712 345.21564Q268.67712 346.73126 268.36462 347.65314Q268.06775 348.575 267.44275 349.09064Q266.83337 349.59064 265.88025 349.59064Q264.64587 349.59064 263.92712 348.7Q263.08337 347.6375 263.08337 345.21564ZM264.1615 345.21564Q264.1615 347.325 264.6615 348.02814Q265.1615 348.73126 265.88025 348.73126Q266.61462 348.73126 267.099 348.02814Q267.599 347.325 267.599 345.21564Q267.599 343.09064 267.099 342.40314Q266.61462 341.7 265.86462 341.7Q265.14587 341.7 264.70837 342.3094Q264.1615 343.09064 264.1615 345.21564Z" fill-rule="nonzero"/><path fill="#000000" d="M309.31882 349.45L308.27194 349.45L308.27194 342.73126Q307.88132 343.09064 307.25632 343.46564Q306.64694 343.825 306.16257 343.9969L306.16257 342.98126Q307.03757 342.5594 307.69382 341.98126Q308.3657 341.3875 308.64694 340.825L309.31882 340.825L309.31882 349.45ZM312.35007 345.21564Q312.35007 343.6844 312.66257 342.7625Q312.97507 341.825 313.58444 341.325Q314.20944 340.825 315.14694 340.825Q315.83444 340.825 316.35007 341.10626Q316.88132 341.3875 317.22507 341.91876Q317.56882 342.4344 317.75632 343.1844Q317.94382 343.9344 317.94382 345.21564Q317.94382 346.73126 317.63132 347.65314Q317.33444 348.575 316.70944 349.09064Q316.10007 349.59064 315.14694 349.59064Q313.91257 349.59064 313.19382 348.7Q312.35007 347.6375 312.35007 345.21564ZM313.4282 345.21564Q313.4282 347.325 313.9282 348.02814Q314.4282 348.73126 315.14694 348.73126Q315.88132 348.73126 316.3657 348.02814Q316.8657 347.325 316.8657 345.21564Q316.8657 343.09064 316.3657 342.40314Q315.88132 341.7 315.13132 341.7Q314.41257 341.7 313.97507 342.3094Q313.4282 343.09064 313.4282 345.21564ZM319.35007 345.21564Q319.35007 343.6844 319.66257 342.7625Q319.97507 341.825 320.58444 341.325Q321.20944 340.825 322.14694 340.825Q322.83444 340.825 323.35007 341.10626Q323.88132 341.3875 324.22507 341.91876Q324.56882 342.4344 324.75632 343.1844Q324.94382 343.9344 324.94382 345.21564Q324.94382 346.73126 324.63132 347.65314Q324.33444 348.575 323.70944 349.09064Q323.10007 349.59064 322.14694 349.59064Q320.91257 349.59064 320.19382 348.7Q319.35007 347.6375 319.35007 345.21564ZM320.4282 345.21564Q320.4282 347.325 320.9282 348.02814Q321.4282 348.73126 322.14694 348.73126Q322.88132 348.73126 323.3657 348.02814Q323.8657 347.325 323.8657 345.21564Q323.8657 343.09064 323.3657 342.40314Q322.88132 341.7 322.13132 341.7Q321.41257 341.7 320.97507 342.3094Q320.4282 343.09064 320.4282 345.21564ZM326.35007 345.21564Q326.35007 343.6844 326.66257 342.7625Q326.97507 341.825 327.58444 341.325Q328.20944 340.825 329.14694 340.825Q329.83444 340.825 330.35007 341.10626Q330.88132 341.3875 331.22507 341.91876Q331.56882 342.4344 331.75632 343.1844Q331.94382 343.9344 331.94382 345.21564Q331.94382 346.73126 331.63132 347.65314Q331.33444 348.575 330.70944 349.09064Q330.10007 349.59064 329.14694 349.59064Q327.91257 349.59064 327.19382 348.7Q326.35007 347.6375 326.35007 345.21564ZM327.4282 345.21564Q327.4282 347.325 327.9282 348.02814Q328.4282 348.73126 329.14694 348.73126Q329.88132 348.73126 330.3657 348.02814Q330.8657 347.325 330.8657 345.21564Q330.8657 343.09064 330.3657 342.40314Q329.88132 341.7 329.13132 341.7Q328.41257 341.7 327.97507 342.3094Q327.4282 343.09064 327.4282 345.21564ZM333.35007 345.21564Q333.35007 343.6844 333.66257 342.7625Q333.97507 341.825 334.58444 341.325Q335.20944 340.825 336.14694 340.825Q336.83444 340.825 337.35007 341.10626Q337.88132 341.3875 338.22507 341.91876Q338.56882 342.4344 338.75632 343.1844Q338.94382 343.9344 338.94382 345.21564Q338.94382 346.73126 338.63132 347.65314Q338.33444 348.575 337.70944 349.09064Q337.10007 349.59064 336.14694 349.59064Q334.91257 349.59064 334.19382 348.7Q333.35007 347.6375 333.35007 345.21564ZM334.4282 345.21564Q334.4282 347.325 334.9282 348.02814Q335.4282 348.73126 336.14694 348.73126Q336.88132 348.73126 337.3657 348.02814Q337.8657 347.325 337.8657 345.21564Q337.8657 343.09064 337.3657 342.40314Q336.88132 341.7 336.13132 341.7Q335.41257 341.7 334.97507 342.3094Q334.4282 343.09064 334.4282 345.21564ZM340.35007 345.21564Q340.35007 343.6844 340.66257 342.7625Q340.97507 341.825 341.58444 341.325Q342.20944 340.825 343.14694 340.825Q343.83444 340.825 344.35007 341.10626Q344.88132 341.3875 345.22507 341.91876Q345.56882 342.4344 345.75632 343.1844Q345.94382 343.9344 345.94382 345.21564Q345.94382 346.73126 345.63132 347.65314Q345.33444 348.575 344.70944 349.09064Q344.10007 349.59064 343.14694 349.59064Q341.91257 349.59064 341.19382 348.7Q340.35007 347.6375 340.35007 345.21564ZM341.4282 345.21564Q341.4282 347.325 341.9282 348.02814Q342.4282 348.73126 343.14694 348.73126Q343.88132 348.73126 344.3657 348.02814Q344.8657 347.325 344.8657 345.21564Q344.8657 343.09064 344.3657 342.40314Q343.88132 341.7 343.13132 341.7Q342.41257 341.7 341.97507 342.3094Q341.4282 343.09064 341.4282 345.21564ZM347.35007 345.21564Q347.35007 343.6844 347.66257 342.7625Q347.97507 341.825 348.58444 341.325Q349.20944 340.825 350.14694 340.825Q350.83444 340.825 351.35007 341.10626Q351.88132 341.3875 352.22507 341.91876Q352.56882 342.4344 352.75632 343.1844Q352.94382 343.9344 352.94382 345.21564Q352.94382 346.73126 352.63132 347.65314Q352.33444 348.575 351.70944 349.09064Q351.10007 349.59064 350.14694 349.59064Q348.91257 349.59064 348.19382 348.7Q347.35007 347.6375 347.35007 345.21564ZM348.4282 345.21564Q348.4282 347.325 348.9282 348.02814Q349.4282 348.73126 350.14694 348.73126Q350.88132 348.73126 351.3657 348.02814Q351.8657 347.325 351.8657 345.21564Q351.8657 343.09064 351.3657 342.40314Q350.88132 341.7 350.13132 341.7Q349.41257 341.7 348.97507 342.3094Q348.4282 343.09064 348.4282 345.21564ZM354.35007 345.21564Q354.35007 343.6844 354.66257 342.7625Q354.97507 341.825 355.58444 341.325Q356.20944 340.825 357.14694 340.825Q357.83444 340.825 358.35007 341.10626Q358.88132 341.3875 359.22507 341.91876Q359.56882 342.4344 359.75632 343.1844Q359.94382 343.9344 359.94382 345.21564Q359.94382 346.73126 359.63132 347.65314Q359.33444 348.575 358.70944 349.09064Q358.10007 349.59064 357.14694 349.59064Q355.91257 349.59064 355.19382 348.7Q354.35007 347.6375 354.35007 345.21564ZM355.4282 345.21564Q355.4282 347.325 355.9282 348.02814Q356.4282 348.73126 357.14694 348.73126Q357.88132 348.73126 358.3657 348.02814Q358.8657 347.325 358.8657 345.21564Q358.8657 343.09064 358.3657 342.40314Q357.88132 341.7 357.13132 341.7Q356.41257 341.7 355.97507 342.3094Q355.4282 343.09064 355.4282 345.21564Z" fill-rule="nonzero"/><path fill="#000000" d="M393.5855 349.45L392.53864 349.45L392.53864 342.73126Q392.148 343.09064 391.523 343.46564Q390.91364 343.825 390.42926 343.9969L390.42926 342.98126Q391.30426 342.5594 391.9605 341.98126Q392.6324 341.3875 392.91364 340.825L393.5855 340.825L393.5855 349.45ZM396.61676 345.21564Q396.61676 343.6844 396.92926 342.7625Q397.24176 341.825 397.85114 341.325Q398.47614 340.825 399.41364 340.825Q400.10114 340.825 400.61676 341.10626Q401.148 341.3875 401.49176 341.91876Q401.8355 342.4344 402.023 343.1844Q402.2105 343.9344 402.2105 345.21564Q402.2105 346.73126 401.898 347.65314Q401.60114 348.575 400.97614 349.09064Q400.36676 349.59064 399.41364 349.59064Q398.17926 349.59064 397.4605 348.7Q396.61676 347.6375 396.61676 345.21564ZM397.6949 345.21564Q397.6949 347.325 398.1949 348.02814Q398.6949 348.73126 399.41364 348.73126Q400.148 348.73126 400.6324 348.02814Q401.1324 347.325 401.1324 345.21564Q401.1324 343.09064 400.6324 342.40314Q400.148 341.7 399.398 341.7Q398.67926 341.7 398.24176 342.3094Q397.6949 343.09064 397.6949 345.21564ZM403.61676 345.21564Q403.61676 343.6844 403.92926 342.7625Q404.24176 341.825 404.85114 341.325Q405.47614 340.825 406.41364 340.825Q407.10114 340.825 407.61676 341.10626Q408.148 341.3875 408.49176 341.91876Q408.8355 342.4344 409.023 343.1844Q409.2105 343.9344 409.2105 345.21564Q409.2105 346.73126 408.898 347.65314Q408.60114 348.575 407.97614 349.09064Q407.36676 349.59064 406.41364 349.59064Q405.17926 349.59064 404.4605 348.7Q403.61676 347.6375 403.61676 345.21564ZM404.6949 345.21564Q404.6949 347.325 405.1949 348.02814Q405.6949 348.73126 406.41364 348.73126Q407.148 348.73126 407.6324 348.02814Q408.1324 347.325 408.1324 345.21564Q408.1324 343.09064 407.6324 342.40314Q407.148 341.7 406.398 341.7Q405.67926 341.7 405.24176 342.3094Q404.6949 343.09064 404.6949 345.21564ZM410.61676 345.21564Q410.61676 343.6844 410.92926 342.7625Q411.24176 341.825 411.85114 341.325Q412.47614 340.825 413.41364 340.825Q414.10114 340.825 414.61676 341.10626Q415.148 341.3875 415.49176 341.91876Q415.8355 342.4344 416.023 343.1844Q416.2105 343.9344 416.2105 345.21564Q416.2105 346.73126 415.898 347.65314Q415.60114 348.575 414.97614 349.09064Q414.36676 349.59064 413.41364 349.59064Q412.17926 349.59064 411.4605 348.7Q410.61676 347.6375 410.61676 345.21564ZM411.6949 345.21564Q411.6949 347.325 412.1949 348.02814Q412.6949 348.73126 413.41364 348.73126Q414.148 348.73126 414.6324 348.02814Q415.1324 347.325 415.1324 345.21564Q415.1324 343.09064 414.6324 342.40314Q414.148 341.7 413.398 341.7Q412.67926 341.7 412.24176 342.3094Q411.6949 343.09064 411.6949 345.21564ZM417.61676 345.21564Q417.61676 343.6844 417.92926 342.7625Q418.24176 341.825 418.85114 341.325Q419.47614 340.825 420.41364 340.825Q421.10114 340.825 421.61676 341.10626Q422.148 341.3875 422.49176 341.91876Q422.8355 342.4344 423.023 343.1844Q423.2105 343.9344 423.2105 345.21564Q423.2105 346.73126 422.898 347.65314Q422.60114 348.575 421.97614 349.09064Q421.36676 349.59064 420.41364 349.59064Q419.17926 349.59064 418.4605 348.7Q417.61676 347.6375 417.61676 345.21564ZM418.6949 345.21564Q418.6949 347.325 419.1949 348.02814Q419.6949 348.73126 420.41364 348.73126Q421.148 348.73126 421.6324 348.02814Q422.1324 347.325 422.1324 345.21564Q422.1324 343.09064 421.6324 342.40314Q421.148 341.7 420.398 341.7Q419.67926 341.7 419.24176 342.3094Q418.6949 343.09064 418.6949 345.21564ZM424.61676 345.21564Q424.61676 343.6844 424.92926 342.7625Q425.24176 341.825 425.85114 341.325Q426.47614 340.825 427.41364 340.825Q428.10114 340.825 428.61676 341.10626Q429.148 341.3875 429.49176 341.91876Q429.8355 342.4344 430.023 343.1844Q430.2105 343.9344 430.2105 345.21564Q430.2105 346.73126 429.898 347.65314Q429.60114 348.575 428.97614 349.09064Q428.36676 349.59064 427.41364 349.59064Q426.17926 349.59064 425.4605 348.7Q424.61676 347.6375 424.61676 345.21564ZM425.6949 345.21564Q425.6949 347.325 426.1949 348.02814Q426.6949 348.73126 427.41364 348.73126Q428.148 348.73126 428.6324 348.02814Q429.1324 347.325 429.1324 345.21564Q429.1324 343.09064 428.6324 342.40314Q428.148 341.7 427.398 341.7Q426.67926 341.7 426.24176 342.3094Q425.6949 343.09064 425.6949 345.21564ZM431.61676 345.21564Q431.61676 343.6844 431.92926 342.7625Q432.24176 341.825 432.85114 341.325Q433.47614 340.825 434.41364 340.825Q435.10114 340.825 435.61676 341.10626Q436.148 341.3875 436.49176 341.91876Q436.8355 342.4344 437.023 343.1844Q437.2105 343.9344 437.2105 345.21564Q437.2105 346.73126 436.898 347.65314Q436.60114 348.575 435.97614 349.09064Q435.36676 349.59064 434.41364 349.59064Q433.17926 349.59064 432.4605 348.7Q431.61676 347.6375 431.61676 345.21564ZM432.6949 345.21564Q432.6949 347.325 433.1949 348.02814Q433.6949 348.73126 434.41364 348.73126Q435.148 348.73126 435.6324 348.02814Q436.1324 347.325 436.1324 345.21564Q436.1324 343.09064 435.6324 342.40314Q435.148 341.7 434.398 341.7Q433.67926 341.7 433.24176 342.3094Q432.6949 343.09064 432.6949 345.21564ZM438.61676 345.21564Q438.61676 343.6844 438.92926 342.7625Q439.24176 341.825 439.85114 341.325Q440.47614 340.825 441.41364 340.825Q442.10114 340.825 442.61676 341.10626Q443.148 341.3875 443.49176 341.91876Q443.8355 342.4344 444.023 343.1844Q444.2105 343.9344 444.2105 345.21564Q444.2105 346.73126 443.898 347.65314Q443.60114 348.575 442.97614 349.09064Q442.36676 349.59064 441.41364 349.59064Q440.17926 349.59064 439.4605 348.7Q438.61676 347.6375 438.61676 345.21564ZM439.6949 345.21564Q439.6949 347.325 440.1949 348.02814Q440.6949 348.73126 441.41364 348.73126Q442.148 348.73126 442.6324 348.02814Q443.1324 347.325 443.1324 345.21564Q443.1324 343.09064 442.6324 342.40314Q442.148 341.7 441.398 341.7Q440.67926 341.7 440.24176 342.3094Q439.6949 343.09064 439.6949 345.21564ZM445.61676 345.21564Q445.61676 343.6844 445.92926 342.7625Q446.24176 341.825 446.85114 341.325Q447.47614 340.825 448.41364 340.825Q449.10114 340.825 449.61676 341.10626Q450.148 341.3875 450.49176 341.91876Q450.8355 342.4344 451.023 343.1844Q451.2105 343.9344 451.2105 345.21564Q451.2105 346.73126 450.898 347.65314Q450.60114 348.575 449.97614 349.09064Q449.36676 349.59064 448.41364 349.59064Q447.17926 349.59064 446.4605 348.7Q445.61676 347.6375 445.61676 345.21564ZM446.6949 345.21564Q446.6949 347.325 447.1949 348.02814Q447.6949 348.73126 448.41364 348.73126Q449.148 348.73126 449.6324 348.02814Q450.1324 347.325 450.1324 345.21564Q450.1324 343.09064 449.6324 342.40314Q449.148 341.7 448.398 341.7Q447.67926 341.7 447.24176 342.3094Q446.6949 343.09064 446.6949 345.21564Z" fill-rule="nonzero"/><path fill="#000000" d="M477.8522 349.45L476.80533 349.45L476.80533 342.73126Q476.4147 343.09064 475.7897 343.46564Q475.18033 343.825 474.69595 343.9969L474.69595 342.98126Q475.57095 342.5594 476.2272 341.98126Q476.89908 341.3875 477.18033 340.825L477.8522 340.825L477.8522 349.45ZM480.88345 345.21564Q480.88345 343.6844 481.19595 342.7625Q481.50845 341.825 482.11783 341.325Q482.74283 340.825 483.68033 340.825Q484.36783 340.825 484.88345 341.10626Q485.4147 341.3875 485.75845 341.91876Q486.1022 342.4344 486.2897 343.1844Q486.4772 343.9344 486.4772 345.21564Q486.4772 346.73126 486.1647 347.65314Q485.86783 348.575 485.24283 349.09064Q484.63345 349.59064 483.68033 349.59064Q482.44595 349.59064 481.7272 348.7Q480.88345 347.6375 480.88345 345.21564ZM481.96158 345.21564Q481.96158 347.325 482.46158 348.02814Q482.96158 348.73126 483.68033 348.73126Q484.4147 348.73126 484.89908 348.02814Q485.39908 347.325 485.39908 345.21564Q485.39908 343.09064 484.89908 342.40314Q484.4147 341.7 483.6647 341.7Q482.94595 341.7 482.50845 342.3094Q481.96158 343.09064 481.96158 345.21564ZM487.88345 345.21564Q487.88345 343.6844 488.19595 342.7625Q488.50845 341.825 489.11783 341.325Q489.74283 340.825 490.68033 340.825Q491.36783 340.825 491.88345 341.10626Q492.4147 341.3875 492.75845 341.91876Q493.1022 342.4344 493.2897 343.1844Q493.4772 343.9344 493.4772 345.21564Q493.4772 346.73126 493.1647 347.65314Q492.86783 348.575 492.24283 349.09064Q491.63345 349.59064 490.68033 349.59064Q489.44595 349.59064 488.7272 348.7Q487.88345 347.6375 487.88345 345.21564ZM488.96158 345.21564Q488.96158 347.325 489.46158 348.02814Q489.96158 348.73126 490.68033 348.73126Q491.4147 348.73126 491.89908 348.02814Q492.39908 347.325 492.39908 345.21564Q492.39908 343.09064 491.89908 342.40314Q491.4147 341.7 490.6647 341.7Q489.94595 341.7 489.50845 342.3094Q488.96158 343.09064 488.96158 345.21564ZM494.88345 345.21564Q494.88345 343.6844 495.19595 342.7625Q495.50845 341.825 496.11783 341.325Q496.74283 340.825 497.68033 340.825Q498.36783 340.825 498.88345 341.10626Q499.4147 341.3875 499.75845 341.91876Q500.1022 342.4344 500.2897 343.1844Q500.4772 343.9344 500.4772 345.21564Q500.4772 346.73126 500.1647 347.65314Q499.86783 348.575 499.24283 349.09064Q498.63345 349.59064 497.68033 349.59064Q496.44595 349.59064 495.7272 348.7Q494.88345 347.6375 494.88345 345.21564ZM495.96158 345.21564Q495.96158 347.325 496.46158 348.02814Q496.96158 348.73126 497.68033 348.73126Q498.4147 348.73126 498.89908 348.02814Q499.39908 347.325 499.39908 345.21564Q499.39908 343.09064 498.89908 342.40314Q498.4147 341.7 497.6647 341.7Q496.94595 341.7 496.50845 342.3094Q495.96158 343.09064 495.96158 345.21564ZM501.88345 345.21564Q501.88345 343.6844 502.19595 342.7625Q502.50845 341.825 503.11783 341.325Q503.74283 340.825 504.68033 340.825Q505.36783 340.825 505.88345 341.10626Q506.4147 341.3875 506.75845 341.91876Q507.1022 342.4344 507.2897 343.1844Q507.4772 343.9344 507.4772 345.21564Q507.4772 346.73126 507.1647 347.65314Q506.86783 348.575 506.24283 349.09064Q505.63345 349.59064 504.68033 349.59064Q503.44595 349.59064 502.7272 348.7Q501.88345 347.6375 501.88345 345.21564ZM502.96158 345.21564Q502.96158 347.325 503.46158 348.02814Q503.96158 348.73126 504.68033 348.73126Q505.4147 348.73126 505.89908 348.02814Q506.39908 347.325 506.39908 345.21564Q506.39908 343.09064 505.89908 342.40314Q505.4147 341.7 504.6647 341.7Q503.94595 341.7 503.50845 342.3094Q502.96158 343.09064 502.96158 345.21564ZM508.88345 345.21564Q508.88345 343.6844 509.19595 342.7625Q509.50845 341.825 510.11783 341.325Q510.74283 340.825 511.68033 340.825Q512.3678 340.825 512.8834 341.10626Q513.4147 341.3875 513.7584 341.91876Q514.1022 342.4344 514.2897 343.1844Q514.4772 343.9344 514.4772 345.21564Q514.4772 346.73126 514.1647 347.65314Q513.8678 348.575 513.2428 349.09064Q512.6334 349.59064 511.68033 349.59064Q510.44595 349.59064 509.7272 348.7Q508.88345 347.6375 508.88345 345.21564ZM509.96158 345.21564Q509.96158 347.325 510.46158 348.02814Q510.96158 348.73126 511.68033 348.73126Q512.4147 348.73126 512.89905 348.02814Q513.39905 347.325 513.39905 345.21564Q513.39905 343.09064 512.89905 342.40314Q512.4147 341.7 511.6647 341.7Q510.94595 341.7 510.50845 342.3094Q509.96158 343.09064 509.96158 345.21564ZM515.8834 345.21564Q515.8834 343.6844 516.1959 342.7625Q516.5084 341.825 517.1178 341.325Q517.7428 340.825 518.6803 340.825Q519.3678 340.825 519.8834 341.10626Q520.4147 341.3875 520.7584 341.91876Q521.1022 342.4344 521.2897 343.1844Q521.4772 343.9344 521.4772 345.21564Q521.4772 346.73126 521.1647 347.65314Q520.8678 348.575 520.2428 349.09064Q519.6334 349.59064 518.6803 349.59064Q517.4459 349.59064 516.7272 348.7Q515.8834 347.6375 515.8834 345.21564ZM516.96155 345.21564Q516.96155 347.325 517.46155 348.02814Q517.96155 348.73126 518.6803 348.73126Q519.4147 348.73126 519.89905 348.02814Q520.39905 347.325 520.39905 345.21564Q520.39905 343.09064 519.89905 342.40314Q519.4147 341.7 518.6647 341.7Q517.9459 341.7 517.5084 342.3094Q516.96155 343.09064 516.96155 345.21564ZM522.8834 345.21564Q522.8834 343.6844 523.1959 342.7625Q523.5084 341.825 524.1178 341.325Q524.7428 340.825 525.6803 340.825Q526.3678 340.825 526.8834 341.10626Q527.4147 341.3875 527.7584 341.91876Q528.1022 342.4344 528.2897 343.1844Q528.4772 343.9344 528.4772 345.21564Q528.4772 346.73126 528.1647 347.65314Q527.8678 348.575 527.2428 349.09064Q526.6334 349.59064 525.6803 349.59064Q524.4459 349.59064 523.7272 348.7Q522.8834 347.6375 522.8834 345.21564ZM523.96155 345.21564Q523.96155 347.325 524.46155 348.02814Q524.96155 348.73126 525.6803 348.73126Q526.4147 348.73126 526.89905 348.02814Q527.39905 347.325 527.39905 345.21564Q527.39905 343.09064 526.89905 342.40314Q526.4147 341.7 525.6647 341.7Q524.9459 341.7 524.5084 342.3094Q523.96155 343.09064 523.96155 345.21564ZM529.8834 345.21564Q529.8834 343.6844 530.1959 342.7625Q530.5084 341.825 531.1178 341.325Q531.7428 340.825 532.6803 340.825Q533.3678 340.825 533.8834 341.10626Q534.4147 341.3875 534.7584 341.91876Q535.1022 342.4344 535.2897 343.1844Q535.4772 343.9344 535.4772 345.21564Q535.4772 346.73126 535.1647 347.65314Q534.8678 348.575 534.2428 349.09064Q533.6334 349.59064 532.6803 349.59064Q531.4459 349.59064 530.7272 348.7Q529.8834 347.6375 529.8834 345.21564ZM530.96155 345.21564Q530.96155 347.325 531.46155 348.02814Q531.96155 348.73126 532.6803 348.73126Q533.4147 348.73126 533.89905 348.02814Q534.39905 347.325 534.39905 345.21564Q534.39905 343.09064 533.89905 342.40314Q533.4147 341.7 532.6647 341.7Q531.9459 341.7 531.5084 342.3094Q530.96155 343.09064 530.96155 345.21564ZM536.8834 345.21564Q536.8834 343.6844 537.1959 342.7625Q537.5084 341.825 538.1178 341.325Q538.7428 340.825 539.6803 340.825Q540.3678 340.825 540.8834 341.10626Q541.4147 341.3875 541.7584 341.91876Q542.1022 342.4344 542.2897 343.1844Q542.4772 343.9344 542.4772 345.21564Q542.4772 346.73126 542.1647 347.65314Q541.8678 348.575 541.2428 349.09064Q540.6334 349.59064 539.6803 349.59064Q538.4459 349.59064 537.7272 348.7Q536.8834 347.6375 536.8834 345.21564ZM537.96155 345.21564Q537.96155 347.325 538.46155 348.02814Q538.96155 348.73126 539.6803 348.73126Q540.4147 348.73126 540.89905 348.02814Q541.39905 347.325 541.39905 345.21564Q541.39905 343.09064 540.89905 342.40314Q540.4147 341.7 539.6647 341.7Q538.9459 341.7 538.5084 342.3094Q537.96155 343.09064 537.96155 345.21564Z" fill-rule="nonzero"/></svg>