<svg version="1.1" viewBox="0.0 0.0 661.9580052493438 444.98950131233596" fill="none" stroke="none" stroke-linecap="square" stroke-miterlimit="10" xmlns:xlink="http://www.w3.org/1999/xlink" xmlns="http://www.w3.org/2000/svg"><clipPath id="p.0"><path d="m0 0l661.958 0l0 444.9895l-661.958 0l0 -444.9895z" clip-rule="nonzero"/></clipPath><g clip-path="url(#p.0)"><path fill="#000000" fill-opacity="0.0" d="m0 0l661.958 0l0 444.9895l-661.958 0z" fill-rule="evenodd"/><path fill="#88d19d" d="m0 0l138.01575 0l0 94.01575l-138.01575 0z" fill-rule="evenodd"/><path stroke="#212121" stroke-width="1.0" stroke-linejoin="round" stroke-linecap="butt" d="m0 0l138.01575 0l0 94.01575l-138.01575 0z" fill-rule="evenodd"/><path fill="#3f3f3f" d="m40.289124 50.425323q0 -2.625 -0.734375 -4.359375q-2.328125 2.46875 -4.515625 3.78125l-1.609375 -2.625q3.0625 -1.75 4.8125 -3.9375q-1.609375 -3.203125 -3.640625 -5.25l1.890625 -1.890625q1.890625 1.75 3.640625 4.8125q1.46875 -1.75 2.625 -4.234375l2.625 1.46875q0.59375 0.578125 -0.4375 0.71875q-1.015625 1.609375 -3.34375 4.8125q1.75 3.796875 1.75 10.359375l0 8.59375q0 5.984375 -4.234375 5.984375l-2.625 0l-0.4375 -2.765625l2.046875 0q2.46875 0 2.46875 -3.5l0 -8.03125q-1.59375 3.359375 -5.53125 6.421875l-1.46875 -2.625q3.5 -2.765625 6.71875 -7.734375zm20.984375 -6.703125l0 2.921875l-2.90625 0l0 -2.921875l-5.40625 0l0 2.921875l-2.90625 0l0 -2.921875l-5.390625 0l0 -2.765625l5.390625 0l0 -4.953125l2.765625 0q1.171875 0.140625 0.140625 0.875l0 4.078125l5.40625 0l0 -5.109375l2.765625 0q1.171875 0.15625 0.140625 0.875l0 4.234375l5.6875 0l0 2.765625l-5.6875 0zm1.75 23.1875l-13.984375 0l0 1.890625l-2.921875 0l0 -20.5625l19.828125 0l0 20.125l-2.921875 0l0 -1.453125zm-13.984375 -10.5l5.671875 0l0 -5.390625l-5.671875 0l0 5.390625zm8.15625 0l5.828125 0l0 -5.390625l-5.828125 0l0 5.390625zm5.828125 7.734375l0 -5.40625l-5.828125 0l0 5.40625l5.828125 0zm-13.984375 0l5.671875 0l0 -5.40625l-5.671875 0l0 5.40625zm46.796875 -17.21875q0.296875 5.546875 0 11.09375q4.375 1.59375 8.453125 4.515625l-1.75 2.765625q-3.0625 -2.328125 -6.703125 -4.078125q0 2.625 -1.609375 4.234375q-1.75 1.75 -5.09375 1.75q-3.359375 0 -5.109375 -1.75q-1.453125 -1.46875 -1.453125 -3.796875q0 -2.046875 1.171875 -3.203125q1.75 -1.75 5.234375 -1.75q1.90625 0 3.796875 0.4375q0.296875 -4.96875 0 -10.0625l-10.78125 0.71875l0 -3.046875l10.484375 -0.59375q-0.140625 -4.078125 -0.578125 -7.28125l3.0625 0q1.609375 0.28125 0.296875 1.15625q0.140625 3.0625 0.28125 5.984375l7.875 -0.4375l0 3.0625l-7.578125 0.28125zm-22.015625 19.546875q-0.578125 -4.078125 -0.578125 -9.484375q0 -11.796875 1.75 -18.953125l3.203125 0.59375q1.015625 0.4375 -0.140625 1.015625q-1.609375 5.109375 -1.609375 17.34375q0 5.546875 0.734375 8.90625l-3.359375 0.578125zm18.953125 -6.421875q-2.484375 -0.71875 -3.796875 -0.71875q-2.03125 0 -2.90625 0.875q-0.734375 0.71875 -0.734375 1.453125q0 1.171875 0.59375 1.75q1.015625 1.015625 3.046875 1.015625q2.046875 0 2.921875 -1.015625q1.015625 -1.171875 0.875 -3.359375z" fill-rule="nonzero"/><path fill="#88d19d" d="m155.94489 0l199.81104 0l0 94.01575l-199.81104 0z" fill-rule="evenodd"/><path stroke="#212121" stroke-width="1.0" stroke-linejoin="round" stroke-linecap="butt" d="m155.94489 0l199.81104 0l0 94.01575l-199.81104 0z" fill-rule="evenodd"/><path fill="#3f3f3f" d="m214.06728 57.7222q3.0625 2.921875 4.96875 5.109375l-2.921875 2.625q-5.53125 -6.5625 -12.6875 -11.8125l2.046875 -2.625q2.625 1.59375 5.828125 4.515625q4.375 -4.375 8.890625 -10.78125l-22.890625 1.015625l-0.578125 -3.640625l25.515625 -0.59375l1.453125 -0.4375l2.1875 2.34375q0.734375 1.15625 -0.578125 1.015625q-3.640625 4.8125 -11.234375 13.265625zm39.229675 -9.921875q-1.015625 9.484375 -5.25 13.71875q-4.21875 4.21875 -11.078125 6.703125l-1.890625 -2.765625q6.703125 -2.1875 10.5 -5.984375q4.078125 -4.078125 4.65625 -13.84375l3.0625 1.015625q1.3125 0.4375 0 1.15625zm-12.390625 5.25q-1.75 -3.9375 -3.5 -6.546875l2.765625 -1.46875q2.1875 2.765625 3.796875 6.5625l-3.0625 1.453125zm-7.4375 2.1875q-1.75 -4.078125 -3.640625 -6.84375l2.90625 -1.46875q2.046875 2.78125 3.65625 6.71875l-2.921875 1.59375zm30.178482 -7.140625q7.15625 2.046875 14.4375 5.546875l-1.75 3.34375q-7.71875 -3.9375 -12.6875 -5.25l0 15.171875l-3.34375 0l0 -29.15625l2.90625 0q1.75 0.140625 0.4375 1.15625l0 9.1875zm36.31433 -3.0625q-2.484375 14.578125 -5.984375 18.078125q-1.890625 1.90625 -3.9375 1.90625q-2.328125 0 -3.640625 -1.3125q-3.5 -3.5 -3.5 -8.75q0 -6.421875 4.515625 -10.9375q4.96875 -4.953125 12.109375 -4.953125q6.40625 0 10.0625 3.640625q4.078125 4.078125 4.078125 9.625q0 5.96875 -3.796875 9.765625q-2.46875 2.484375 -7.578125 4.8125l-3.0625 -3.0625q5.109375 -1.609375 8.015625 -4.515625q2.78125 -2.78125 2.78125 -6.71875q0 -4.65625 -3.0625 -7.71875q-3.0625 -3.0625 -9.625 -2.765625l2.625 1.3125q1.75 0.71875 0 1.59375zm-3.359375 -2.765625q-3.78125 0.875 -6.5625 3.640625q-3.78125 3.796875 -3.78125 9.328125q0 3.359375 2.1875 5.546875q0.4375 0.4375 1.3125 0.4375q0.875 0 1.890625 -1.015625q3.359375 -3.359375 4.953125 -17.9375z" fill-rule="nonzero"/><path fill="#88d19d" d="m372.97375 0l125.322845 0l0 94.01575l-125.322845 0z" fill-rule="evenodd"/><path stroke="#212121" stroke-width="1.0" stroke-linejoin="round" stroke-linecap="butt" d="m372.97375 0l125.322845 0l0 94.01575l-125.322845 0z" fill-rule="evenodd"/><path fill="#3f3f3f" d="m415.01 62.5347l0 -25.8125l3.203125 0q1.453125 0.296875 0.140625 1.171875l0 8.453125l11.8125 0l0 3.203125l-11.8125 0l0 12.984375l15.171875 0l0 3.203125l-31.640625 0l0 -3.203125l13.125 0zm46.65625 1.3125q-6.859375 0 -11.375 -4.375l1.890625 -2.484375q3.9375 3.796875 9.484375 3.65625l8.015625 0l0 3.203125l-8.015625 0zm-20.859375 2.765625q-0.4375 -7.578125 -0.4375 -12.96875q0 -6.5625 1.609375 -15.609375l2.921875 0.734375q1.59375 0.296875 0.140625 1.3125q-1.453125 8.453125 -1.453125 13.5625q0 5.6875 0.578125 12.6875l-3.359375 0.28125zm26.984375 -21.578125q-6.28125 -0.140625 -16.328125 0.875l0 -3.0625q10.484375 -1.015625 16.328125 -0.875l0 3.0625z" fill-rule="nonzero"/><path fill="#88d19d" d="m515.51447 0l138.01575 0l0 94.01575l-138.01575 0z" fill-rule="evenodd"/><path stroke="#212121" stroke-width="1.0" stroke-linejoin="round" stroke-linecap="butt" d="m515.51447 0l138.01575 0l0 94.01575l-138.01575 0z" fill-rule="evenodd"/><path fill="#3f3f3f" d="m570.58966 38.9097l13.28125 0l0 2.78125l-26.546875 0l0 15.453125q0 5.6875 -3.34375 11.21875l-2.921875 -2.1875q3.359375 -5.09375 3.359375 -11.21875l0 -16.046875l12.828125 0l0 -3.640625l3.203125 0q1.453125 0.296875 0.140625 1.171875l0 2.46875zm1.3125 15.015625q3.9375 -4.8125 4.53125 -10.78125l2.90625 0.578125q0.875 0.296875 0 0.734375q-0.4375 2.046875 -0.875 3.5q3.65625 1.75 5.6875 3.78125l-1.890625 2.921875q-2.328125 -2.328125 -4.671875 -4.234375q-1.453125 3.359375 -3.34375 5.40625l-2.34375 -1.75l0 2.765625l10.0625 0l0 2.765625l-10.0625 0l0 5.109375l12.84375 0l0 2.765625l-27.421875 0l0 -2.765625l11.671875 0l0 -5.109375l-8.890625 0l0 -2.765625l8.890625 0l0 -4.8125l-1.890625 2.765625q-2.046875 -2.03125 -3.796875 -3.34375q-1.3125 2.765625 -3.203125 4.8125l-2.34375 -2.1875q4.09375 -4.09375 4.53125 -10.5l2.90625 0.578125q0.875 0.296875 0 0.734375q-0.4375 2.765625 -0.875 4.078125q1.75 0.4375 4.671875 2.765625l0 -9.03125l2.765625 0q1.171875 0.140625 0.140625 0.875l0 10.34375zm35.734375 10.9375q2.328125 -0.28125 3.9375 -1.890625q1.75 -1.75 1.75 -4.671875q0 -3.203125 -1.90625 -5.09375q-1.890625 -1.90625 -5.96875 -1.90625q-4.8125 0 -7.4375 1.90625q-2.484375 1.75 -6.421875 6.265625l-2.46875 -2.1875q10.5 -10.5 15.890625 -17.5q-4.8125 0.59375 -9.625 1.03125l-1.015625 -3.359375q7.140625 0 12.671875 -0.734375l1.3125 -0.578125l1.609375 1.609375q1.609375 1.453125 -0.734375 1.890625q-4.359375 4.953125 -8.734375 9.765625q3.0625 -0.734375 5.09375 -0.734375q5.546875 0 8.171875 2.625q2.625 2.625 2.625 6.71875q0 4.21875 -2.34375 6.5625q-3.5 3.5 -8.890625 3.5q-5.09375 0 -7.4375 -2.34375q-1.890625 -1.890625 -1.890625 -4.515625q0 -1.75 1.3125 -3.0625q1.453125 -1.453125 3.359375 -1.453125q2.625 0 4.375 1.75q2.03125 2.03125 2.765625 6.40625zm-2.921875 0.4375q-0.4375 -3.78125 -1.75 -5.09375q-1.015625 -1.03125 -2.03125 -1.03125q-1.171875 0 -1.75 0.59375q-0.734375 0.71875 -0.734375 1.59375q0 1.3125 1.171875 2.484375q1.453125 1.453125 3.78125 1.453125q0.59375 0 1.3125 0z" fill-rule="nonzero"/><path fill="#72e0e2" d="m0 174.08398l138.01575 0l0 94.01575l-138.01575 0z" fill-rule="evenodd"/><path stroke="#212121" stroke-width="1.0" stroke-linejoin="round" stroke-linecap="butt" d="m0 174.08398l138.01575 0l0 94.01575l-138.01575 0z" fill-rule="evenodd"/><path fill="#3f3f3f" d="m40.289124 224.50931q0 -2.625 -0.734375 -4.359375q-2.328125 2.46875 -4.515625 3.78125l-1.609375 -2.625q3.0625 -1.75 4.8125 -3.9375q-1.609375 -3.203125 -3.640625 -5.25l1.890625 -1.890625q1.890625 1.75 3.640625 4.8125q1.46875 -1.75 2.625 -4.234375l2.625 1.46875q0.59375 0.578125 -0.4375 0.71875q-1.015625 1.609375 -3.34375 4.8125q1.75 3.796875 1.75 10.359375l0 8.59375q0 5.984375 -4.234375 5.984375l-2.625 0l-0.4375 -2.765625l2.046875 0q2.46875 0 2.46875 -3.5l0 -8.03125q-1.59375 3.359375 -5.53125 6.421875l-1.46875 -2.625q3.5 -2.765625 6.71875 -7.734375zm20.984375 -6.703125l0 2.921875l-2.90625 0l0 -2.921875l-5.40625 0l0 2.921875l-2.90625 0l0 -2.921875l-5.390625 0l0 -2.765625l5.390625 0l0 -4.953125l2.765625 0q1.171875 0.140625 0.140625 0.875l0 4.078125l5.40625 0l0 -5.109375l2.765625 0q1.171875 0.15625 0.140625 0.875l0 4.234375l5.6875 0l0 2.765625l-5.6875 0zm1.75 23.1875l-13.984375 0l0 1.890625l-2.921875 0l0 -20.5625l19.828125 0l0 20.125l-2.921875 0l0 -1.453125zm-13.984375 -10.5l5.671875 0l0 -5.390625l-5.671875 0l0 5.390625zm8.15625 0l5.828125 0l0 -5.390625l-5.828125 0l0 5.390625zm5.828125 7.734375l0 -5.40625l-5.828125 0l0 5.40625l5.828125 0zm-13.984375 0l5.671875 0l0 -5.40625l-5.671875 0l0 5.40625zm46.796875 -17.21875q0.296875 5.546875 0 11.09375q4.375 1.59375 8.453125 4.515625l-1.75 2.765625q-3.0625 -2.328125 -6.703125 -4.078125q0 2.625 -1.609375 4.234375q-1.75 1.75 -5.09375 1.75q-3.359375 0 -5.109375 -1.75q-1.453125 -1.46875 -1.453125 -3.796875q0 -2.046875 1.171875 -3.203125q1.75 -1.75 5.234375 -1.75q1.90625 0 3.796875 0.4375q0.296875 -4.96875 0 -10.0625l-10.78125 0.71875l0 -3.046875l10.484375 -0.59375q-0.140625 -4.078125 -0.578125 -7.28125l3.0625 0q1.609375 0.28125 0.296875 1.15625q0.140625 3.0625 0.28125 5.984375l7.875 -0.4375l0 3.0625l-7.578125 0.28125zm-22.015625 19.546875q-0.578125 -4.078125 -0.578125 -9.484375q0 -11.796875 1.75 -18.953125l3.203125 0.59375q1.015625 0.4375 -0.140625 1.015625q-1.609375 5.109375 -1.609375 17.34375q0 5.546875 0.734375 8.90625l-3.359375 0.578125zm18.953125 -6.421875q-2.484375 -0.71875 -3.796875 -0.71875q-2.03125 0 -2.90625 0.875q-0.734375 0.71875 -0.734375 1.453125q0 1.171875 0.59375 1.75q1.015625 1.015625 3.046875 1.015625q2.046875 0 2.921875 -1.015625q1.015625 -1.171875 0.875 -3.359375z" fill-rule="nonzero"/><path fill="#72e0e2" d="m455.14172 174.08398l199.81104 0l0 94.01575l-199.81104 0z" fill-rule="evenodd"/><path stroke="#212121" stroke-width="1.0" stroke-linejoin="round" stroke-linecap="butt" d="m455.14172 174.08398l199.81104 0l0 94.01575l-199.81104 0z" fill-rule="evenodd"/><path fill="#3f3f3f" d="m513.26416 231.80618q3.0625 2.921875 4.96875 5.109375l-2.921875 2.625q-5.5312805 -6.5625 -12.6875305 -11.8125l2.046875 -2.625q2.625 1.59375 5.828125 4.515625q4.3750305 -4.375 8.8906555 -10.78125l-22.890656 1.015625l-0.578125 -3.640625l25.515656 -0.59375l1.453125 -0.4375l2.1875 2.34375q0.734375 1.15625 -0.578125 1.015625q-3.640625 4.8125 -11.234375 13.265625zm39.229675 -9.921875q-1.015625 9.484375 -5.25 13.71875q-4.21875 4.21875 -11.078125 6.703125l-1.890625 -2.765625q6.703125 -2.1875 10.5 -5.984375q4.078125 -4.078125 4.65625 -13.84375l3.0625 1.015625q1.3125 0.4375 0 1.15625zm-12.390625 5.25q-1.75 -3.9375 -3.5 -6.546875l2.765625 -1.46875q2.1875 2.765625 3.796875 6.5625l-3.0625 1.453125zm-7.4375 2.1875q-1.75 -4.078125 -3.640625 -6.84375l2.90625 -1.46875q2.046875 2.78125 3.65625 6.71875l-2.921875 1.59375zm30.178467 -7.140625q7.15625 2.046875 14.4375 5.546875l-1.75 3.34375q-7.71875 -3.9375 -12.6875 -5.25l0 15.171875l-3.34375 0l0 -29.15625l2.90625 0q1.75 0.140625 0.4375 1.15625l0 9.1875zm36.31433 -3.0625q-2.484375 14.578125 -5.984375 18.078125q-1.890625 1.90625 -3.9375 1.90625q-2.328125 0 -3.640625 -1.3125q-3.5 -3.5 -3.5 -8.75q0 -6.421875 4.515625 -10.9375q4.96875 -4.953125 12.109375 -4.953125q6.40625 0 10.0625 3.640625q4.078125 4.078125 4.078125 9.625q0 5.96875 -3.796875 9.765625q-2.46875 2.484375 -7.578125 4.8125l-3.0625 -3.0625q5.109375 -1.609375 8.015625 -4.515625q2.78125 -2.78125 2.78125 -6.71875q0 -4.65625 -3.0625 -7.71875q-3.0625 -3.0625 -9.625 -2.765625l2.625 1.3125q1.75 0.71875 0 1.59375zm-3.359375 -2.765625q-3.78125 0.875 -6.5625 3.640625q-3.78125 3.796875 -3.78125 9.328125q0 3.359375 2.1875 5.546875q0.4375 0.4375 1.3125 0.4375q0.875 0 1.890625 -1.015625q3.359375 -3.359375 4.953125 -17.9375z" fill-rule="nonzero"/><path fill="#72e0e2" d="m311.88977 174.08398l125.322815 0l0 94.01575l-125.322815 0z" fill-rule="evenodd"/><path stroke="#212121" stroke-width="1.0" stroke-linejoin="round" stroke-linecap="butt" d="m311.88977 174.08398l125.322815 0l0 94.01575l-125.322815 0z" fill-rule="evenodd"/><path fill="#3f3f3f" d="m353.92603 236.61868l0 -25.8125l3.203125 0q1.453125 0.296875 0.140625 1.171875l0 8.453125l11.8125 0l0 3.203125l-11.8125 0l0 12.984375l15.171875 0l0 3.203125l-31.640625 0l0 -3.203125l13.125 0zm46.65625 1.3125q-6.859375 0 -11.375 -4.375l1.890625 -2.484375q3.9375 3.796875 9.484375 3.65625l8.015625 0l0 3.203125l-8.015625 0zm-20.859375 2.765625q-0.4375 -7.578125 -0.4375 -12.96875q0 -6.5625 1.609375 -15.609375l2.921875 0.734375q1.59375 0.296875 0.140625 1.3125q-1.453125 8.453125 -1.453125 13.5625q0 5.6875 0.578125 12.6875l-3.359375 0.28125zm26.984375 -21.578125q-6.28125 -0.140625 -16.328125 0.875l0 -3.0625q10.484375 -1.015625 16.328125 -0.875l0 3.0625z" fill-rule="nonzero"/><path fill="#72e0e2" d="m155.94489 174.08398l138.01575 0l0 94.01575l-138.01575 0z" fill-rule="evenodd"/><path stroke="#212121" stroke-width="1.0" stroke-linejoin="round" stroke-linecap="butt" d="m155.94489 174.08398l138.01575 0l0 94.01575l-138.01575 0z" fill-rule="evenodd"/><path fill="#3f3f3f" d="m211.02011 212.99368l13.28125 0l0 2.78125l-26.546875 0l0 15.453125q0 5.6875 -3.34375 11.21875l-2.921875 -2.1875q3.359375 -5.09375 3.359375 -11.21875l0 -16.046875l12.828125 0l0 -3.640625l3.203125 0q1.453125 0.296875 0.140625 1.171875l0 2.46875zm1.3125 15.015625q3.9375 -4.8125 4.53125 -10.78125l2.90625 0.578125q0.875 0.296875 0 0.734375q-0.4375 2.046875 -0.875 3.5q3.65625 1.75 5.6875 3.78125l-1.890625 2.921875q-2.328125 -2.328125 -4.671875 -4.234375q-1.453125 3.359375 -3.34375 5.40625l-2.34375 -1.75l0 2.765625l10.0625 0l0 2.765625l-10.0625 0l0 5.109375l12.84375 0l0 2.765625l-27.421875 0l0 -2.765625l11.671875 0l0 -5.109375l-8.890625 0l0 -2.765625l8.890625 0l0 -4.8125l-1.890625 2.765625q-2.046875 -2.03125 -3.796875 -3.34375q-1.3125 2.765625 -3.203125 4.8125l-2.34375 -2.1875q4.09375 -4.09375 4.53125 -10.5l2.90625 0.578125q0.875 0.296875 0 0.734375q-0.4375 2.765625 -0.875 4.078125q1.75 0.4375 4.671875 2.765625l0 -9.03125l2.765625 0q1.171875 0.140625 0.140625 0.875l0 10.34375zm35.734375 10.9375q2.328125 -0.28125 3.9375 -1.890625q1.75 -1.75 1.75 -4.671875q0 -3.203125 -1.90625 -5.09375q-1.890625 -1.90625 -5.96875 -1.90625q-4.8125 0 -7.4375 1.90625q-2.484375 1.75 -6.421875 6.265625l-2.46875 -2.1875q10.5 -10.5 15.890625 -17.5q-4.8125 0.59375 -9.625 1.03125l-1.015625 -3.359375q7.140625 0 12.671875 -0.734375l1.3125 -0.578125l1.609375 1.609375q1.609375 1.453125 -0.734375 1.890625q-4.359375 4.953125 -8.734375 9.765625q3.0625 -0.734375 5.09375 -0.734375q5.546875 0 8.171875 2.625q2.625 2.625 2.625 6.71875q0 4.21875 -2.34375 6.5625q-3.5 3.5 -8.890625 3.5q-5.09375 0 -7.4375 -2.34375q-1.890625 -1.890625 -1.890625 -4.515625q0 -1.75 1.3125 -3.0625q1.453125 -1.453125 3.359375 -1.453125q2.625 0 4.375 1.75q2.03125 2.03125 2.765625 6.40625zm-2.921875 0.4375q-0.4375 -3.78125 -1.75 -5.09375q-1.015625 -1.03125 -2.03125 -1.03125q-1.171875 0 -1.75 0.59375q-0.734375 0.71875 -0.734375 1.59375q0 1.3125 1.171875 2.484375q1.453125 1.453125 3.78125 1.453125q0.59375 0 1.3125 0z" fill-rule="nonzero"/><path fill="#d5a6bd" d="m0 335.82153l138.01575 0l0 94.01575l-138.01575 0z" fill-rule="evenodd"/><path stroke="#212121" stroke-width="1.0" stroke-linejoin="round" stroke-linecap="butt" d="m0 335.82153l138.01575 0l0 94.01575l-138.01575 0z" fill-rule="evenodd"/><path fill="#3f3f3f" d="m28.000893 399.76248q0 0.53125 -0.078125 0.84375q-0.0625 0.296875 -0.21875 0.453125q-0.140625 0.140625 -0.4375 0.265625q-0.28125 0.125 -0.65625 0.203125q-0.375 0.09375 -0.796875 0.140625q-0.40625 0.0625 -0.828125 0.0625q-1.28125 0 -2.203125 -0.328125q-0.90625 -0.34375 -1.484375 -1.03125q-0.578125 -0.6875 -0.84375 -1.734375q-0.265625 -1.046875 -0.265625 -2.46875l0 -9.59375l-2.296875 0q-0.28125 0 -0.453125 -0.28125q-0.15625 -0.296875 -0.15625 -0.953125q0 -0.34375 0.046875 -0.578125q0.046875 -0.234375 0.125 -0.390625q0.078125 -0.15625 0.1875 -0.21875q0.125 -0.0625 0.265625 -0.0625l2.28125 0l0 -3.90625q0 -0.125 0.0625 -0.234375q0.0625 -0.109375 0.234375 -0.1875q0.171875 -0.09375 0.46875 -0.125q0.296875 -0.03125 0.734375 -0.03125q0.453125 0 0.734375 0.03125q0.296875 0.03125 0.453125 0.125q0.171875 0.078125 0.234375 0.1875q0.078125 0.109375 0.078125 0.234375l0 3.90625l4.21875 0q0.140625 0 0.25 0.0625q0.109375 0.0625 0.1875 0.21875q0.09375 0.15625 0.125 0.390625q0.03125 0.234375 0.03125 0.578125q0 0.65625 -0.171875 0.953125q-0.15625 0.28125 -0.421875 0.28125l-4.21875 0l0 9.15625q0 1.703125 0.5 2.5625q0.515625 0.859375 1.796875 0.859375q0.421875 0 0.75 -0.078125q0.328125 -0.078125 0.578125 -0.171875q0.265625 -0.09375 0.4375 -0.171875q0.1875 -0.078125 0.34375 -0.078125q0.078125 0 0.15625 0.046875q0.09375 0.046875 0.140625 0.171875q0.046875 0.125 0.078125 0.34375q0.03125 0.21875 0.03125 0.546875zm18.112839 1.203125q0 0.140625 -0.078125 0.25q-0.078125 0.09375 -0.25 0.171875q-0.15625 0.0625 -0.453125 0.09375q-0.28125 0.046875 -0.71875 0.046875q-0.453125 0 -0.75 -0.046875q-0.296875 -0.03125 -0.46875 -0.09375q-0.15625 -0.078125 -0.234375 -0.171875q-0.0625 -0.109375 -0.0625 -0.25l0 -9.609375q0 -1.40625 -0.21875 -2.25q-0.21875 -0.859375 -0.640625 -1.484375q-0.421875 -0.625 -1.09375 -0.953125q-0.65625 -0.328125 -1.53125 -0.328125q-1.125 0 -2.265625 0.8125q-1.125 0.796875 -2.359375 2.34375l0 11.46875q0 0.140625 -0.078125 0.25q-0.0625 0.09375 -0.234375 0.171875q-0.15625 0.0625 -0.453125 0.09375q-0.296875 0.046875 -0.75 0.046875q-0.4375 0 -0.734375 -0.046875q-0.28125 -0.03125 -0.453125 -0.09375q-0.171875 -0.078125 -0.25 -0.171875q-0.0625 -0.109375 -0.0625 -0.25l0 -24.359375q0 -0.140625 0.0625 -0.25q0.078125 -0.109375 0.25 -0.171875q0.171875 -0.078125 0.453125 -0.109375q0.296875 -0.046875 0.734375 -0.046875q0.453125 0 0.75 0.046875q0.296875 0.03125 0.453125 0.109375q0.171875 0.0625 0.234375 0.171875q0.078125 0.109375 0.078125 0.25l0 9.828125q1.296875 -1.359375 2.609375 -2.03125q1.3125 -0.671875 2.640625 -0.671875q1.640625 0 2.75 0.5625q1.125 0.5625 1.8125 1.5q0.703125 0.921875 1.0 2.171875q0.3125 1.234375 0.3125 3.015625l0 9.984375zm19.471222 -8.921875q0 0.71875 -0.359375 1.015625q-0.34375 0.296875 -0.796875 0.296875l-10.765625 0q0 1.375 0.265625 2.46875q0.28125 1.09375 0.921875 1.875q0.640625 0.78125 1.65625 1.203125q1.03125 0.421875 2.5 0.421875q1.171875 0 2.078125 -0.1875q0.921875 -0.203125 1.578125 -0.4375q0.671875 -0.234375 1.09375 -0.421875q0.4375 -0.1875 0.65625 -0.1875q0.125 0 0.21875 0.0625q0.109375 0.0625 0.15625 0.1875q0.0625 0.125 0.078125 0.359375q0.03125 0.21875 0.03125 0.546875q0 0.234375 -0.015625 0.421875q-0.015625 0.171875 -0.046875 0.3125q-0.03125 0.125 -0.09375 0.234375q-0.0625 0.109375 -0.171875 0.21875q-0.09375 0.09375 -0.59375 0.328125q-0.484375 0.21875 -1.265625 0.4375q-0.78125 0.21875 -1.8125 0.390625q-1.03125 0.171875 -2.203125 0.171875q-2.015625 0 -3.546875 -0.5625q-1.515625 -0.5625 -2.5625 -1.671875q-1.03125 -1.109375 -1.5625 -2.78125q-0.53125 -1.6875 -0.53125 -3.90625q0 -2.125 0.546875 -3.8125q0.546875 -1.6875 1.578125 -2.859375q1.03125 -1.171875 2.484375 -1.796875q1.46875 -0.640625 3.265625 -0.640625q1.9375 0 3.296875 0.625q1.359375 0.625 2.234375 1.671875q0.875 1.046875 1.28125 2.46875q0.40625 1.40625 0.40625 3.0l0 0.546875zm-3.015625 -0.890625q0.046875 -2.359375 -1.0625 -3.703125q-1.09375 -1.359375 -3.265625 -1.359375q-1.109375 0 -1.953125 0.421875q-0.828125 0.421875 -1.40625 1.109375q-0.5625 0.6875 -0.875 1.609375q-0.296875 0.921875 -0.34375 1.921875l8.90625 0zm27.824371 7.3125q0 0.3125 -0.015625 0.546875q-0.015625 0.21875 -0.0625 0.375q-0.046875 0.15625 -0.109375 0.28125q-0.0625 0.109375 -0.296875 0.34375q-0.21875 0.21875 -0.765625 0.5625q-0.546875 0.328125 -1.234375 0.59375q-0.6875 0.265625 -1.484375 0.421875q-0.796875 0.171875 -1.65625 0.171875q-1.765625 0 -3.140625 -0.578125q-1.359375 -0.578125 -2.28125 -1.703125q-0.921875 -1.125 -1.40625 -2.75q-0.484375 -1.640625 -0.484375 -3.765625q0 -2.421875 0.59375 -4.15625q0.59375 -1.75 1.625 -2.859375q1.03125 -1.125 2.421875 -1.65625q1.390625 -0.53125 3.015625 -0.53125q0.78125 0 1.515625 0.140625q0.75 0.140625 1.359375 0.390625q0.625 0.234375 1.109375 0.546875q0.484375 0.296875 0.703125 0.515625q0.21875 0.21875 0.296875 0.359375q0.078125 0.125 0.125 0.296875q0.0625 0.171875 0.078125 0.390625q0.03125 0.21875 0.03125 0.546875q0 0.703125 -0.171875 0.984375q-0.15625 0.28125 -0.40625 0.28125q-0.265625 0 -0.625 -0.296875q-0.359375 -0.296875 -0.90625 -0.65625q-0.546875 -0.375 -1.328125 -0.671875q-0.765625 -0.296875 -1.8125 -0.296875q-2.171875 0 -3.328125 1.671875q-1.15625 1.65625 -1.15625 4.828125q0 1.59375 0.296875 2.796875q0.296875 1.1875 0.875 1.984375q0.59375 0.796875 1.4375 1.1875q0.84375 0.390625 1.9375 0.390625q1.046875 0 1.828125 -0.328125q0.78125 -0.328125 1.359375 -0.71875q0.578125 -0.390625 0.96875 -0.703125q0.390625 -0.328125 0.609375 -0.328125q0.125 0 0.21875 0.078125q0.09375 0.078125 0.15625 0.25q0.0625 0.171875 0.078125 0.4375q0.03125 0.265625 0.03125 0.625zm16.03685 2.515625q0 0.21875 -0.140625 0.328125q-0.140625 0.109375 -0.40625 0.15625q-0.25 0.0625 -0.734375 0.0625q-0.484375 0 -0.765625 -0.0625q-0.28125 -0.046875 -0.40625 -0.15625q-0.125 -0.109375 -0.125 -0.328125l0 -1.640625q-1.078125 1.15625 -2.40625 1.796875q-1.3125 0.625 -2.796875 0.625q-1.296875 0 -2.34375 -0.34375q-1.046875 -0.328125 -1.78125 -0.96875q-0.734375 -0.640625 -1.15625 -1.5625q-0.40625 -0.9375 -0.40625 -2.109375q0 -1.390625 0.5625 -2.40625q0.578125 -1.03125 1.625 -1.703125q1.0625 -0.671875 2.59375 -1.0q1.53125 -0.34375 3.4375 -0.34375l2.265625 0l0 -1.28125q0 -0.953125 -0.203125 -1.671875q-0.203125 -0.734375 -0.65625 -1.21875q-0.4375 -0.484375 -1.15625 -0.71875q-0.703125 -0.25 -1.734375 -0.25q-1.109375 0 -2.0 0.265625q-0.890625 0.265625 -1.5625 0.578125q-0.65625 0.3125 -1.109375 0.578125q-0.4375 0.265625 -0.65625 0.265625q-0.140625 0 -0.25 -0.0625q-0.109375 -0.078125 -0.203125 -0.21875q-0.078125 -0.15625 -0.109375 -0.375q-0.03125 -0.234375 -0.03125 -0.5q0 -0.46875 0.0625 -0.71875q0.0625 -0.265625 0.296875 -0.5q0.25 -0.25 0.84375 -0.5625q0.609375 -0.328125 1.390625 -0.578125q0.796875 -0.265625 1.71875 -0.4375q0.9375 -0.1875 1.875 -0.1875q1.765625 0 3.0 0.40625q1.25 0.40625 2.015625 1.1875q0.765625 0.765625 1.109375 1.921875q0.34375 1.140625 0.34375 2.671875l0 11.0625zm-2.984375 -7.484375l-2.5625 0q-1.25 0 -2.15625 0.203125q-0.90625 0.203125 -1.515625 0.625q-0.59375 0.40625 -0.890625 0.984375q-0.28125 0.5625 -0.28125 1.3125q0 1.28125 0.8125 2.046875q0.8125 0.75 2.28125 0.75q1.171875 0 2.1875 -0.59375q1.015625 -0.609375 2.125 -1.859375l0 -3.46875zm16.690216 6.265625q0 0.53125 -0.078125 0.84375q-0.0625 0.296875 -0.21875 0.453125q-0.140625 0.140625 -0.4375 0.265625q-0.28125 0.125 -0.65625 0.203125q-0.375 0.09375 -0.796875 0.140625q-0.40625 0.0625 -0.828125 0.0625q-1.28125 0 -2.203125 -0.328125q-0.90625 -0.34375 -1.484375 -1.03125q-0.578125 -0.6875 -0.84375 -1.734375q-0.265625 -1.046875 -0.265625 -2.46875l0 -9.59375l-2.296875 0q-0.28125 0 -0.453125 -0.28125q-0.15625 -0.296875 -0.15625 -0.953125q0 -0.34375 0.046875 -0.578125q0.046875 -0.234375 0.125 -0.390625q0.078125 -0.15625 0.1875 -0.21875q0.125 -0.0625 0.265625 -0.0625l2.28125 0l0 -3.90625q0 -0.125 0.0625 -0.234375q0.0625 -0.109375 0.234375 -0.1875q0.171875 -0.09375 0.46875 -0.125q0.296875 -0.03125 0.734375 -0.03125q0.453125 0 0.734375 0.03125q0.296875 0.03125 0.453125 0.125q0.171875 0.078125 0.234375 0.1875q0.078125 0.109375 0.078125 0.234375l0 3.90625l4.21875 0q0.140625 0 0.25 0.0625q0.109375 0.0625 0.1875 0.21875q0.09375 0.15625 0.125 0.390625q0.03125 0.234375 0.03125 0.578125q0 0.65625 -0.171875 0.953125q-0.15625 0.28125 -0.421875 0.28125l-4.21875 0l0 9.15625q0 1.703125 0.5 2.5625q0.515625 0.859375 1.796875 0.859375q0.421875 0 0.75 -0.078125q0.328125 -0.078125 0.578125 -0.171875q0.265625 -0.09375 0.4375 -0.171875q0.1875 -0.078125 0.34375 -0.078125q0.078125 0 0.15625 0.046875q0.09375 0.046875 0.140625 0.171875q0.046875 0.125 0.078125 0.34375q0.03125 0.21875 0.03125 0.546875z" fill-rule="nonzero"/><path fill="#d5a6bd" d="m455.14172 335.82153l199.81104 0l0 94.01575l-199.81104 0z" fill-rule="evenodd"/><path stroke="#212121" stroke-width="1.0" stroke-linejoin="round" stroke-linecap="butt" d="m455.14172 335.82153l199.81104 0l0 94.01575l-199.81104 0z" fill-rule="evenodd"/><path fill="#3f3f3f" d="m552.24414 400.9656q0 0.140625 -0.078125 0.25q-0.078125 0.09375 -0.25 0.171875q-0.15625 0.0625 -0.453125 0.09375q-0.28125 0.046875 -0.71875 0.046875q-0.453125 0 -0.75 -0.046875q-0.28125 -0.03125 -0.46875 -0.09375q-0.171875 -0.078125 -0.25 -0.171875q-0.0625 -0.109375 -0.0625 -0.25l0 -9.96875q0 -1.046875 -0.1875 -1.890625q-0.171875 -0.859375 -0.578125 -1.484375q-0.40625 -0.625 -1.03125 -0.953125q-0.609375 -0.328125 -1.453125 -0.328125q-1.03125 0 -2.078125 0.8125q-1.046875 0.796875 -2.3125 2.34375l0 11.46875q0 0.140625 -0.078125 0.25q-0.0625 0.09375 -0.234375 0.171875q-0.171875 0.0625 -0.46875 0.09375q-0.28125 0.046875 -0.71875 0.046875q-0.421875 0 -0.734375 -0.046875q-0.296875 -0.03125 -0.46875 -0.09375q-0.171875 -0.078125 -0.234375 -0.171875q-0.0625 -0.109375 -0.0625 -0.25l0 -9.96875q0 -1.046875 -0.203125 -1.890625q-0.203125 -0.859375 -0.609375 -1.484375q-0.390625 -0.625 -1.0 -0.953125q-0.609375 -0.328125 -1.453125 -0.328125q-1.03125 0 -2.09375 0.8125q-1.0625 0.796875 -2.296875 2.34375l0 11.46875q0 0.140625 -0.078125 0.25q-0.0625 0.09375 -0.234375 0.171875q-0.15625 0.0625 -0.453125 0.09375q-0.296875 0.046875 -0.75 0.046875q-0.4375 0 -0.734375 -0.046875q-0.28125 -0.03125 -0.453125 -0.09375q-0.171875 -0.078125 -0.25 -0.171875q-0.0625 -0.109375 -0.0625 -0.25l0 -16.40625q0 -0.140625 0.046875 -0.234375q0.0625 -0.109375 0.21875 -0.1875q0.171875 -0.09375 0.421875 -0.109375q0.265625 -0.03125 0.6875 -0.03125q0.40625 0 0.65625 0.03125q0.265625 0.015625 0.40625 0.109375q0.15625 0.078125 0.21875 0.1875q0.0625 0.09375 0.0625 0.234375l0 2.171875q1.390625 -1.546875 2.6875 -2.265625q1.3125 -0.734375 2.640625 -0.734375q1.015625 0 1.828125 0.25q0.8125 0.234375 1.421875 0.671875q0.625 0.421875 1.0625 1.015625q0.4375 0.578125 0.734375 1.3125q0.828125 -0.890625 1.5625 -1.5q0.734375 -0.625 1.40625 -1.0q0.6875 -0.390625 1.328125 -0.5625q0.65625 -0.1875 1.3125 -0.1875q1.59375 0 2.65625 0.5625q1.078125 0.5625 1.75 1.5q0.671875 0.921875 0.953125 2.171875q0.28125 1.234375 0.28125 2.625l0 10.375zm17.834412 0.015625q0 0.21875 -0.140625 0.328125q-0.140625 0.109375 -0.40625 0.15625q-0.25 0.0625 -0.734375 0.0625q-0.484375 0 -0.765625 -0.0625q-0.28125 -0.046875 -0.40625 -0.15625q-0.125 -0.109375 -0.125 -0.328125l0 -1.640625q-1.078125 1.15625 -2.40625 1.796875q-1.3125 0.625 -2.796875 0.625q-1.296875 0 -2.34375 -0.34375q-1.046875 -0.328125 -1.78125 -0.96875q-0.734375 -0.640625 -1.15625 -1.5625q-0.40625 -0.9375 -0.40625 -2.109375q0 -1.390625 0.5625 -2.40625q0.578125 -1.03125 1.625 -1.703125q1.0625 -0.671875 2.59375 -1.0q1.53125 -0.34375 3.4375 -0.34375l2.265625 0l0 -1.28125q0 -0.953125 -0.203125 -1.671875q-0.203125 -0.734375 -0.65625 -1.21875q-0.4375 -0.484375 -1.15625 -0.71875q-0.703125 -0.25 -1.734375 -0.25q-1.109375 0 -2.0 0.265625q-0.890625 0.265625 -1.5625 0.578125q-0.65625 0.3125 -1.109375 0.578125q-0.4375 0.265625 -0.65625 0.265625q-0.140625 0 -0.25 -0.0625q-0.109375 -0.078125 -0.203125 -0.21875q-0.078125 -0.15625 -0.109375 -0.375q-0.03125 -0.234375 -0.03125 -0.5q0 -0.46875 0.0625 -0.71875q0.0625 -0.265625 0.296875 -0.5q0.25 -0.25 0.84375 -0.5625q0.609375 -0.328125 1.390625 -0.578125q0.796875 -0.265625 1.71875 -0.4375q0.9375 -0.1875 1.875 -0.1875q1.765625 0 3.0 0.40625q1.25 0.40625 2.015625 1.1875q0.765625 0.765625 1.109375 1.921875q0.34375 1.140625 0.34375 2.671875l0 11.0625zm-2.984375 -7.484375l-2.5625 0q-1.25 0 -2.15625 0.203125q-0.90625 0.203125 -1.515625 0.625q-0.59375 0.40625 -0.890625 0.984375q-0.28125 0.5625 -0.28125 1.3125q0 1.28125 0.8125 2.046875q0.8125 0.75 2.28125 0.75q1.171875 0 2.1875 -0.59375q1.015625 -0.609375 2.125 -1.859375l0 -3.46875zm16.690186 6.265625q0 0.53125 -0.078125 0.84375q-0.0625 0.296875 -0.21875 0.453125q-0.140625 0.140625 -0.4375 0.265625q-0.28125 0.125 -0.65625 0.203125q-0.375 0.09375 -0.796875 0.140625q-0.40625 0.0625 -0.828125 0.0625q-1.28125 0 -2.203125 -0.328125q-0.90625 -0.34375 -1.484375 -1.03125q-0.578125 -0.6875 -0.84375 -1.734375q-0.265625 -1.046875 -0.265625 -2.46875l0 -9.59375l-2.296875 0q-0.28125 0 -0.453125 -0.28125q-0.15625 -0.296875 -0.15625 -0.953125q0 -0.34375 0.046875 -0.578125q0.046875 -0.234375 0.125 -0.390625q0.078125 -0.15625 0.1875 -0.21875q0.125 -0.0625 0.265625 -0.0625l2.28125 0l0 -3.90625q0 -0.125 0.0625 -0.234375q0.0625 -0.109375 0.234375 -0.1875q0.171875 -0.09375 0.46875 -0.125q0.296875 -0.03125 0.734375 -0.03125q0.453125 0 0.734375 0.03125q0.296875 0.03125 0.453125 0.125q0.171875 0.078125 0.234375 0.1875q0.078125 0.109375 0.078125 0.234375l0 3.90625l4.21875 0q0.140625 0 0.25 0.0625q0.109375 0.0625 0.1875 0.21875q0.09375 0.15625 0.125 0.390625q0.03125 0.234375 0.03125 0.578125q0 0.65625 -0.171875 0.953125q-0.15625 0.28125 -0.421875 0.28125l-4.21875 0l0 9.15625q0 1.703125 0.5 2.5625q0.515625 0.859375 1.796875 0.859375q0.421875 0 0.75 -0.078125q0.328125 -0.078125 0.578125 -0.171875q0.265625 -0.09375 0.4375 -0.171875q0.1875 -0.078125 0.34375 -0.078125q0.078125 0 0.15625 0.046875q0.09375 0.046875 0.140625 0.171875q0.046875 0.125 0.078125 0.34375q0.03125 0.21875 0.03125 0.546875z" fill-rule="nonzero"/><path fill="#d5a6bd" d="m311.88977 335.82153l125.322815 0l0 94.01575l-125.322815 0z" fill-rule="evenodd"/><path stroke="#212121" stroke-width="1.0" stroke-linejoin="round" stroke-linecap="butt" d="m311.88977 335.82153l125.322815 0l0 94.01575l-125.322815 0z" fill-rule="evenodd"/><path fill="#3f3f3f" d="m343.38617 392.57498q0 2.015625 -0.53125 3.703125q-0.53125 1.671875 -1.578125 2.90625q-1.046875 1.21875 -2.625 1.90625q-1.578125 0.671875 -3.65625 0.671875q-2.015625 0 -3.53125 -0.59375q-1.5 -0.609375 -2.5 -1.75q-1.0 -1.15625 -1.5 -2.796875q-0.484375 -1.640625 -0.484375 -3.71875q0 -2.0 0.515625 -3.6875q0.515625 -1.6875 1.5625 -2.90625q1.0625 -1.21875 2.625 -1.890625q1.5625 -0.6875 3.65625 -0.6875q2.03125 0 3.53125 0.609375q1.5 0.59375 2.5 1.75q1.015625 1.140625 1.515625 2.78125q0.5 1.640625 0.5 3.703125zm-3.171875 0.203125q0 -1.328125 -0.25 -2.515625q-0.25 -1.1875 -0.8125 -2.078125q-0.5625 -0.890625 -1.53125 -1.40625q-0.96875 -0.53125 -2.40625 -0.53125q-1.328125 0 -2.28125 0.484375q-0.953125 0.46875 -1.578125 1.34375q-0.625 0.859375 -0.921875 2.046875q-0.296875 1.1875 -0.296875 2.578125q0 1.359375 0.234375 2.546875q0.25 1.171875 0.828125 2.0625q0.578125 0.890625 1.53125 1.40625q0.96875 0.515625 2.421875 0.515625q1.3125 0 2.265625 -0.46875q0.96875 -0.484375 1.59375 -1.328125q0.625 -0.859375 0.90625 -2.046875q0.296875 -1.1875 0.296875 -2.609375zm21.731628 8.1875q0 0.140625 -0.078125 0.25q-0.078125 0.09375 -0.25 0.171875q-0.15625 0.0625 -0.453125 0.09375q-0.28125 0.046875 -0.71875 0.046875q-0.453125 0 -0.75 -0.046875q-0.296875 -0.03125 -0.46875 -0.09375q-0.15625 -0.078125 -0.234375 -0.171875q-0.0625 -0.109375 -0.0625 -0.25l0 -9.609375q0 -1.40625 -0.21875 -2.25q-0.21875 -0.859375 -0.640625 -1.484375q-0.421875 -0.625 -1.09375 -0.953125q-0.65625 -0.328125 -1.53125 -0.328125q-1.125 0 -2.265625 0.8125q-1.125 0.796875 -2.359375 2.34375l0 11.46875q0 0.140625 -0.078125 0.25q-0.0625 0.09375 -0.234375 0.171875q-0.15625 0.0625 -0.453125 0.09375q-0.296875 0.046875 -0.75 0.046875q-0.4375 0 -0.734375 -0.046875q-0.28125 -0.03125 -0.453125 -0.09375q-0.171875 -0.078125 -0.25 -0.171875q-0.0625 -0.109375 -0.0625 -0.25l0 -16.40625q0 -0.140625 0.046875 -0.234375q0.0625 -0.109375 0.21875 -0.1875q0.171875 -0.09375 0.421875 -0.109375q0.265625 -0.03125 0.6875 -0.03125q0.40625 0 0.65625 0.03125q0.265625 0.015625 0.40625 0.109375q0.15625 0.078125 0.21875 0.1875q0.0625 0.09375 0.0625 0.234375l0 2.171875q1.390625 -1.546875 2.765625 -2.265625q1.375 -0.734375 2.78125 -0.734375q1.640625 0 2.75 0.5625q1.125 0.5625 1.8125 1.5q0.703125 0.921875 1.0 2.171875q0.3125 1.234375 0.3125 2.984375l0 10.015625zm22.441406 -1.203125q0 0.53125 -0.078125 0.84375q-0.0625 0.296875 -0.21875 0.453125q-0.140625 0.140625 -0.4375 0.265625q-0.28125 0.125 -0.65625 0.203125q-0.375 0.09375 -0.796875 0.140625q-0.40625 0.0625 -0.828125 0.0625q-1.28125 0 -2.203125 -0.328125q-0.90625 -0.34375 -1.484375 -1.03125q-0.578125 -0.6875 -0.84375 -1.734375q-0.265625 -1.046875 -0.265625 -2.46875l0 -9.59375l-2.296875 0q-0.28125 0 -0.453125 -0.28125q-0.15625 -0.296875 -0.15625 -0.953125q0 -0.34375 0.046875 -0.578125q0.046875 -0.234375 0.125 -0.390625q0.078125 -0.15625 0.1875 -0.21875q0.125 -0.0625 0.265625 -0.0625l2.28125 0l0 -3.90625q0 -0.125 0.0625 -0.234375q0.0625 -0.109375 0.234375 -0.1875q0.171875 -0.09375 0.46875 -0.125q0.296875 -0.03125 0.734375 -0.03125q0.453125 0 0.734375 0.03125q0.296875 0.03125 0.453125 0.125q0.171875 0.078125 0.234375 0.1875q0.078125 0.109375 0.078125 0.234375l0 3.90625l4.21875 0q0.140625 0 0.25 0.0625q0.109375 0.0625 0.1875 0.21875q0.09375 0.15625 0.125 0.390625q0.03125 0.234375 0.03125 0.578125q0 0.65625 -0.171875 0.953125q-0.15625 0.28125 -0.421875 0.28125l-4.21875 0l0 9.15625q0 1.703125 0.5 2.5625q0.515625 0.859375 1.796875 0.859375q0.421875 0 0.75 -0.078125q0.328125 -0.078125 0.578125 -0.171875q0.265625 -0.09375 0.4375 -0.171875q0.1875 -0.078125 0.34375 -0.078125q0.078125 0 0.15625 0.046875q0.09375 0.046875 0.140625 0.171875q0.046875 0.125 0.078125 0.34375q0.03125 0.21875 0.03125 0.546875zm18.112823 1.203125q0 0.140625 -0.078125 0.25q-0.078125 0.09375 -0.25 0.171875q-0.15625 0.0625 -0.453125 0.09375q-0.28125 0.046875 -0.71875 0.046875q-0.453125 0 -0.75 -0.046875q-0.296875 -0.03125 -0.46875 -0.09375q-0.15625 -0.078125 -0.234375 -0.171875q-0.0625 -0.109375 -0.0625 -0.25l0 -9.609375q0 -1.40625 -0.21875 -2.25q-0.21875 -0.859375 -0.640625 -1.484375q-0.421875 -0.625 -1.09375 -0.953125q-0.65625 -0.328125 -1.53125 -0.328125q-1.125 0 -2.265625 0.8125q-1.125 0.796875 -2.359375 2.34375l0 11.46875q0 0.140625 -0.078125 0.25q-0.0625 0.09375 -0.234375 0.171875q-0.15625 0.0625 -0.453125 0.09375q-0.296875 0.046875 -0.75 0.046875q-0.4375 0 -0.734375 -0.046875q-0.28125 -0.03125 -0.453125 -0.09375q-0.171875 -0.078125 -0.25 -0.171875q-0.0625 -0.109375 -0.0625 -0.25l0 -24.359375q0 -0.140625 0.0625 -0.25q0.078125 -0.109375 0.25 -0.171875q0.171875 -0.078125 0.453125 -0.109375q0.296875 -0.046875 0.734375 -0.046875q0.453125 0 0.75 0.046875q0.296875 0.03125 0.453125 0.109375q0.171875 0.0625 0.234375 0.171875q0.078125 0.109375 0.078125 0.25l0 9.828125q1.296875 -1.359375 2.609375 -2.03125q1.3125 -0.671875 2.640625 -0.671875q1.640625 0 2.75 0.5625q1.125 0.5625 1.8125 1.5q0.703125 0.921875 1.0 2.171875q0.3125 1.234375 0.3125 3.015625l0 9.984375zm19.471222 -8.921875q0 0.71875 -0.359375 1.015625q-0.34375 0.296875 -0.796875 0.296875l-10.765625 0q0 1.375 0.265625 2.46875q0.28125 1.09375 0.921875 1.875q0.640625 0.78125 1.65625 1.203125q1.03125 0.421875 2.5 0.421875q1.171875 0 2.078125 -0.1875q0.921875 -0.203125 1.578125 -0.4375q0.671875 -0.234375 1.09375 -0.421875q0.4375 -0.1875 0.65625 -0.1875q0.125 0 0.21875 0.0625q0.109375 0.0625 0.15625 0.1875q0.0625 0.125 0.078125 0.359375q0.03125 0.21875 0.03125 0.546875q0 0.234375 -0.015625 0.421875q-0.015625 0.171875 -0.046875 0.3125q-0.03125 0.125 -0.09375 0.234375q-0.0625 0.109375 -0.171875 0.21875q-0.09375 0.09375 -0.59375 0.328125q-0.484375 0.21875 -1.265625 0.4375q-0.78125 0.21875 -1.8125 0.390625q-1.03125 0.171875 -2.203125 0.171875q-2.015625 0 -3.546875 -0.5625q-1.515625 -0.5625 -2.5625 -1.671875q-1.03125 -1.109375 -1.5625 -2.78125q-0.53125 -1.6875 -0.53125 -3.90625q0 -2.125 0.546875 -3.8125q0.546875 -1.6875 1.578125 -2.859375q1.03125 -1.171875 2.484375 -1.796875q1.46875 -0.640625 3.265625 -0.640625q1.9375 0 3.296875 0.625q1.359375 0.625 2.234375 1.671875q0.875 1.046875 1.28125 2.46875q0.40625 1.40625 0.40625 3.0l0 0.546875zm-3.015625 -0.890625q0.046875 -2.359375 -1.0625 -3.703125q-1.09375 -1.359375 -3.265625 -1.359375q-1.109375 0 -1.953125 0.421875q-0.828125 0.421875 -1.40625 1.109375q-0.5625 0.6875 -0.875 1.609375q-0.296875 0.921875 -0.34375 1.921875l8.90625 0z" fill-rule="nonzero"/><path fill="#d5a6bd" d="m155.94489 335.82153l138.01575 0l0 94.01575l-138.01575 0z" fill-rule="evenodd"/><path stroke="#212121" stroke-width="1.0" stroke-linejoin="round" stroke-linecap="butt" d="m155.94489 335.82153l138.01575 0l0 94.01575l-138.01575 0z" fill-rule="evenodd"/><path fill="#3f3f3f" d="m212.91199 396.49686q0 1.265625 -0.46875 2.25q-0.46875 0.984375 -1.328125 1.65625q-0.859375 0.671875 -2.046875 1.015625q-1.171875 0.34375 -2.59375 0.34375q-0.875 0 -1.671875 -0.140625q-0.796875 -0.125 -1.421875 -0.328125q-0.625 -0.21875 -1.0625 -0.4375q-0.4375 -0.234375 -0.640625 -0.421875q-0.203125 -0.1875 -0.296875 -0.515625q-0.09375 -0.328125 -0.09375 -0.890625q0 -0.34375 0.03125 -0.578125q0.046875 -0.234375 0.09375 -0.375q0.0625 -0.15625 0.15625 -0.21875q0.109375 -0.0625 0.234375 -0.0625q0.203125 0 0.59375 0.25q0.390625 0.234375 0.96875 0.53125q0.578125 0.296875 1.359375 0.546875q0.78125 0.234375 1.796875 0.234375q0.765625 0 1.390625 -0.15625q0.625 -0.171875 1.078125 -0.484375q0.453125 -0.328125 0.6875 -0.8125q0.25 -0.5 0.25 -1.171875q0 -0.6875 -0.359375 -1.15625q-0.34375 -0.484375 -0.9375 -0.84375q-0.578125 -0.359375 -1.3125 -0.640625q-0.71875 -0.296875 -1.5 -0.59375q-0.765625 -0.3125 -1.515625 -0.703125q-0.734375 -0.390625 -1.3125 -0.953125q-0.578125 -0.578125 -0.9375 -1.359375q-0.359375 -0.78125 -0.359375 -1.875q0 -0.96875 0.375 -1.84375q0.375 -0.890625 1.125 -1.546875q0.75 -0.671875 1.859375 -1.078125q1.125 -0.40625 2.625 -0.40625q0.65625 0 1.3125 0.109375q0.65625 0.109375 1.171875 0.28125q0.53125 0.15625 0.90625 0.359375q0.375 0.1875 0.5625 0.34375q0.203125 0.140625 0.265625 0.25q0.0625 0.109375 0.078125 0.25q0.03125 0.125 0.0625 0.328125q0.03125 0.203125 0.03125 0.484375q0 0.3125 -0.03125 0.546875q-0.03125 0.21875 -0.09375 0.375q-0.0625 0.140625 -0.15625 0.203125q-0.078125 0.0625 -0.1875 0.0625q-0.171875 0 -0.484375 -0.1875q-0.3125 -0.203125 -0.8125 -0.4375q-0.484375 -0.234375 -1.15625 -0.421875q-0.65625 -0.203125 -1.515625 -0.203125q-0.765625 0 -1.34375 0.171875q-0.578125 0.171875 -0.953125 0.5q-0.375 0.3125 -0.578125 0.75q-0.1875 0.4375 -0.1875 0.9375q0 0.71875 0.359375 1.203125q0.375 0.484375 0.953125 0.84375q0.59375 0.359375 1.328125 0.65625q0.75 0.296875 1.53125 0.609375q0.78125 0.296875 1.53125 0.6875q0.75 0.375 1.328125 0.921875q0.59375 0.546875 0.953125 1.3125q0.359375 0.765625 0.359375 1.828125zm7.302658 4.46875q0 0.140625 -0.078125 0.25q-0.0625 0.09375 -0.234375 0.171875q-0.15625 0.0625 -0.453125 0.09375q-0.296875 0.046875 -0.75 0.046875q-0.4375 0 -0.734375 -0.046875q-0.28125 -0.03125 -0.453125 -0.09375q-0.171875 -0.078125 -0.25 -0.171875q-0.0625 -0.109375 -0.0625 -0.25l0 -16.40625q0 -0.125 0.0625 -0.234375q0.078125 -0.109375 0.25 -0.1875q0.171875 -0.078125 0.453125 -0.109375q0.296875 -0.03125 0.734375 -0.03125q0.453125 0 0.75 0.03125q0.296875 0.03125 0.453125 0.109375q0.171875 0.078125 0.234375 0.1875q0.078125 0.109375 0.078125 0.234375l0 16.40625zm0.34375 -21.953125q0 1.0625 -0.40625 1.453125q-0.390625 0.375 -1.46875 0.375q-1.0625 0 -1.453125 -0.375q-0.390625 -0.375 -0.390625 -1.40625q0 -1.0625 0.390625 -1.4375q0.40625 -0.390625 1.484375 -0.390625q1.0625 0 1.453125 0.375q0.390625 0.375 0.390625 1.40625zm13.738388 20.75q0 0.53125 -0.078125 0.84375q-0.0625 0.296875 -0.21875 0.453125q-0.140625 0.140625 -0.4375 0.265625q-0.28125 0.125 -0.65625 0.203125q-0.375 0.09375 -0.796875 0.140625q-0.40625 0.0625 -0.828125 0.0625q-1.28125 0 -2.203125 -0.328125q-0.90625 -0.34375 -1.484375 -1.03125q-0.578125 -0.6875 -0.84375 -1.734375q-0.265625 -1.046875 -0.265625 -2.46875l0 -9.59375l-2.296875 0q-0.28125 0 -0.453125 -0.28125q-0.15625 -0.296875 -0.15625 -0.953125q0 -0.34375 0.046875 -0.578125q0.046875 -0.234375 0.125 -0.390625q0.078125 -0.15625 0.1875 -0.21875q0.125 -0.0625 0.265625 -0.0625l2.28125 0l0 -3.90625q0 -0.125 0.0625 -0.234375q0.0625 -0.109375 0.234375 -0.1875q0.171875 -0.09375 0.46875 -0.125q0.296875 -0.03125 0.734375 -0.03125q0.453125 0 0.734375 0.03125q0.296875 0.03125 0.453125 0.125q0.171875 0.078125 0.234375 0.1875q0.078125 0.109375 0.078125 0.234375l0 3.90625l4.21875 0q0.140625 0 0.25 0.0625q0.109375 0.0625 0.1875 0.21875q0.09375 0.15625 0.125 0.390625q0.03125 0.234375 0.03125 0.578125q0 0.65625 -0.171875 0.953125q-0.15625 0.28125 -0.421875 0.28125l-4.21875 0l0 9.15625q0 1.703125 0.5 2.5625q0.515625 0.859375 1.796875 0.859375q0.421875 0 0.75 -0.078125q0.328125 -0.078125 0.578125 -0.171875q0.265625 -0.09375 0.4375 -0.171875q0.1875 -0.078125 0.34375 -0.078125q0.078125 0 0.15625 0.046875q0.09375 0.046875 0.140625 0.171875q0.046875 0.125 0.078125 0.34375q0.03125 0.21875 0.03125 0.546875zm14.284714 -3.265625q0 1.265625 -0.46875 2.25q-0.46875 0.984375 -1.328125 1.65625q-0.859375 0.671875 -2.046875 1.015625q-1.171875 0.34375 -2.59375 0.34375q-0.875 0 -1.671875 -0.140625q-0.796875 -0.125 -1.421875 -0.328125q-0.625 -0.21875 -1.0625 -0.4375q-0.4375 -0.234375 -0.640625 -0.421875q-0.203125 -0.1875 -0.296875 -0.515625q-0.09375 -0.328125 -0.09375 -0.890625q0 -0.34375 0.03125 -0.578125q0.046875 -0.234375 0.09375 -0.375q0.0625 -0.15625 0.15625 -0.21875q0.109375 -0.0625 0.234375 -0.0625q0.203125 0 0.59375 0.25q0.390625 0.234375 0.96875 0.53125q0.578125 0.296875 1.359375 0.546875q0.78125 0.234375 1.796875 0.234375q0.765625 0 1.390625 -0.15625q0.625 -0.171875 1.078125 -0.484375q0.453125 -0.328125 0.6875 -0.8125q0.25 -0.5 0.25 -1.171875q0 -0.6875 -0.359375 -1.15625q-0.34375 -0.484375 -0.9375 -0.84375q-0.578125 -0.359375 -1.3125 -0.640625q-0.71875 -0.296875 -1.5 -0.59375q-0.765625 -0.3125 -1.515625 -0.703125q-0.734375 -0.390625 -1.3125 -0.953125q-0.578125 -0.578125 -0.9375 -1.359375q-0.359375 -0.78125 -0.359375 -1.875q0 -0.96875 0.375 -1.84375q0.375 -0.890625 1.125 -1.546875q0.75 -0.671875 1.859375 -1.078125q1.125 -0.40625 2.625 -0.40625q0.65625 0 1.3125 0.109375q0.65625 0.109375 1.171875 0.28125q0.53125 0.15625 0.90625 0.359375q0.375 0.1875 0.5625 0.34375q0.203125 0.140625 0.265625 0.25q0.0625 0.109375 0.078125 0.25q0.03125 0.125 0.0625 0.328125q0.03125 0.203125 0.03125 0.484375q0 0.3125 -0.03125 0.546875q-0.03125 0.21875 -0.09375 0.375q-0.0625 0.140625 -0.15625 0.203125q-0.078125 0.0625 -0.1875 0.0625q-0.171875 0 -0.484375 -0.1875q-0.3125 -0.203125 -0.8125 -0.4375q-0.484375 -0.234375 -1.15625 -0.421875q-0.65625 -0.203125 -1.515625 -0.203125q-0.765625 0 -1.34375 0.171875q-0.578125 0.171875 -0.953125 0.5q-0.375 0.3125 -0.578125 0.75q-0.1875 0.4375 -0.1875 0.9375q0 0.71875 0.359375 1.203125q0.375 0.484375 0.953125 0.84375q0.59375 0.359375 1.328125 0.65625q0.75 0.296875 1.53125 0.609375q0.78125 0.296875 1.53125 0.6875q0.75 0.375 1.328125 0.921875q0.59375 0.546875 0.953125 1.3125q0.359375 0.765625 0.359375 1.828125z" fill-rule="nonzero"/><path fill="#000000" fill-opacity="0.0" d="m69.00787 94.01575l0 80.06299" fill-rule="evenodd"/><path stroke="#212121" stroke-width="4.0" stroke-linejoin="round" stroke-linecap="butt" d="m69.00787 94.01575l0 56.06299" fill-rule="evenodd"/><path fill="#212121" stroke="#212121" stroke-width="4.0" stroke-linecap="butt" d="m62.400944 150.07874l6.60693 18.15239l6.6069336 -18.15239z" fill-rule="evenodd"/><path fill="#000000" fill-opacity="0.0" d="m255.85039 94.01575l299.2126 80.06299" fill-rule="evenodd"/><path stroke="#212121" stroke-width="4.0" stroke-linejoin="round" stroke-linecap="butt" d="m255.85039 94.01575l276.0282 73.859344" fill-rule="evenodd"/><path fill="#212121" stroke="#212121" stroke-width="4.0" stroke-linecap="butt" d="m530.17084 174.25749l19.243286 -1.6902771l-15.827698 -11.074524z" fill-rule="evenodd"/><path fill="#000000" fill-opacity="0.0" d="m435.63516 94.01575l-61.07086 80.06299" fill-rule="evenodd"/><path stroke="#212121" stroke-width="4.0" stroke-linejoin="round" stroke-linecap="butt" d="m435.63516 94.01575l-46.515198 60.980743" fill-rule="evenodd"/><path fill="#212121" stroke="#212121" stroke-width="4.0" stroke-linecap="butt" d="m383.86685 150.98947l-5.7560425 18.439865l16.262299 -10.425842z" fill-rule="evenodd"/><path fill="#000000" fill-opacity="0.0" d="m584.52234 94.01575l-359.55908 80.06299" fill-rule="evenodd"/><path stroke="#212121" stroke-width="4.0" stroke-linejoin="round" stroke-linecap="butt" d="m584.52234 94.01575l-336.1328 74.84668" fill-rule="evenodd"/><path fill="#212121" stroke="#212121" stroke-width="4.0" stroke-linecap="butt" d="m246.95352 162.41342l-16.282455 10.394363l19.15445 2.5036163z" fill-rule="evenodd"/><path fill="#000000" fill-opacity="0.0" d="m69.00787 268.09973l0 67.71655" fill-rule="evenodd"/><path stroke="#212121" stroke-width="4.0" stroke-linejoin="round" stroke-linecap="butt" d="m69.00787 268.09973l0 43.716553" fill-rule="evenodd"/><path fill="#212121" stroke="#212121" stroke-width="4.0" stroke-linecap="butt" d="m62.400944 311.81628l6.60693 18.152374l6.6069336 -18.152374z" fill-rule="evenodd"/><path fill="#000000" fill-opacity="0.0" d="m224.95276 268.09973l0 67.71655" fill-rule="evenodd"/><path stroke="#212121" stroke-width="4.0" stroke-linejoin="round" stroke-linecap="butt" d="m224.95276 268.09973l0 43.716553" fill-rule="evenodd"/><path fill="#212121" stroke="#212121" stroke-width="4.0" stroke-linecap="butt" d="m218.34583 311.81628l6.6069336 18.152374l6.6069336 -18.152374z" fill-rule="evenodd"/><path fill="#000000" fill-opacity="0.0" d="m374.55118 268.09973l0 67.71655" fill-rule="evenodd"/><path stroke="#212121" stroke-width="4.0" stroke-linejoin="round" stroke-linecap="butt" d="m374.55118 268.09973l0 43.716553" fill-rule="evenodd"/><path fill="#212121" stroke="#212121" stroke-width="4.0" stroke-linecap="butt" d="m367.94424 311.81628l6.6069336 18.152374l6.6069336 -18.152374z" fill-rule="evenodd"/><path fill="#000000" fill-opacity="0.0" d="m555.04724 268.09973l0 67.71655" fill-rule="evenodd"/><path stroke="#212121" stroke-width="4.0" stroke-linejoin="round" stroke-linecap="butt" d="m555.04724 268.09973l0 43.716553" fill-rule="evenodd"/><path fill="#212121" stroke="#212121" stroke-width="4.0" stroke-linecap="butt" d="m548.4403 311.81628l6.6069336 18.152374l6.6069336 -18.152374z" fill-rule="evenodd"/></g></svg>