<svg version="1.1" viewBox="0.0 0.0 1032.3228346456692 567.9842519685039" fill="none" stroke="none" stroke-linecap="square" stroke-miterlimit="10" xmlns:xlink="http://www.w3.org/1999/xlink" xmlns="http://www.w3.org/2000/svg"><clipPath id="p.0"><path d="m0 0l1032.3229 0l0 567.98425l-1032.3229 0l0 -567.98425z" clip-rule="nonzero"/></clipPath><g clip-path="url(#p.0)"><path fill="#000000" fill-opacity="0.0" d="m0 0l1032.3229 0l0 567.98425l-1032.3229 0z" fill-rule="evenodd"/><path fill="#000000" fill-opacity="0.0" d="m-67.438324 481.86353l1168.0945 0l0 82.42517l-1168.0945 0z" fill-rule="evenodd"/><path fill="#000000" d="m25.784702 540.7835l0 -32.828125l-12.265625 0l0 -4.390625l29.5 0l0 4.390625l-12.3125 0l0 32.828125l-4.921875 0zm21.701172 0l0 -37.21875l4.578125 0l0 13.34375q3.203125 -3.703125 8.078125 -3.703125q2.984375 0 5.187496 1.1875q2.21875 1.171875 3.171875 3.265625q0.953125 2.078125 0.953125 6.03125l0 17.09375l-4.5625 0l0 -17.09375q0 -3.421875 -1.4999962 -4.984375q-1.484375 -1.5625 -4.1875 -1.5625q-2.03125 0 -3.828125 1.0625q-1.796875 1.046875 -2.5625 2.859375q-0.75 1.796875 -0.75 4.96875l0 14.75l-4.578125 0zm47.388668 -8.6875l4.71875 0.59375q-1.109375 4.125 -4.140625 6.421875q-3.015625 2.28125 -7.71875 2.28125q-5.90625 0 -9.375 -3.640625q-3.46875 -3.640625 -3.46875 -10.21875q0 -6.8125 3.5 -10.5625q3.5 -3.765625 9.09375 -3.765625q5.40625 0 8.828125 3.6875q3.4375 3.671875 3.4375 10.359375q0 0.40625 -0.03125 1.21875l-20.109375 0q0.25 4.4375 2.515625 6.796875q2.265625 2.359375 5.640625 2.359375q2.515625 0 4.28125 -1.3125q1.78125 -1.328125 2.828125 -4.21875zm-15.015625 -7.390625l15.0625 0q-0.296875 -3.390625 -1.71875 -5.09375q-2.1875 -2.640625 -5.671875 -2.640625q-3.140625 0 -5.296875 2.109375q-2.140625 2.09375 -2.375 5.625zm39.085938 18.3125l4.4375 0.65625q0.28125 2.0625 1.546875 3.0q1.703125 1.265625 4.65625 1.265625q3.171875 0 4.890625 -1.265625q1.734375 -1.265625 2.34375 -3.546875q0.359375 -1.40625 0.328125 -5.875q-3.0 3.53125 -7.46875 3.53125q-5.5625 0 -8.609375 -4.015625q-3.046875 -4.015625 -3.046875 -9.625q0 -3.859375 1.390625 -7.109375q1.40625 -3.265625 4.0625 -5.046875q2.65625 -1.78125 6.234375 -1.78125q4.765625 0 7.875 3.859375l0 -3.25l4.203125 0l0 23.3125q0 6.296875 -1.28125 8.921875q-1.28125 2.625 -4.0625 4.140625q-2.78125 1.53125 -6.84375 1.53125q-4.8125 0 -7.796875 -2.171875q-2.96875 -2.15625 -2.859375 -6.53125zm3.78125 -16.203125q0 5.3125 2.109375 7.75q2.109375 2.4375 5.28125 2.4375q3.140625 0 5.265625 -2.421875q2.140625 -2.4375 2.140625 -7.609375q0 -4.953125 -2.203125 -7.46875q-2.1875 -2.515625 -5.28125 -2.515625q-3.046875 0 -5.1875 2.484375q-2.125 2.46875 -2.125 7.34375zm25.998047 -18.0l0 -5.25l4.578125 0l0 5.25l-4.578125 0zm0 31.96875l0 -26.96875l4.578125 0l0 26.96875l-4.578125 0zm11.474609 0l0 -26.96875l4.109375 0l0 4.09375q1.578125 -2.875 2.90625 -3.78125q1.34375 -0.921875 2.9375 -0.921875q2.3125 0 4.703125 1.46875l-1.578125 4.25q-1.671875 -1.0 -3.34375 -1.0q-1.5 0 -2.703125 0.90625q-1.1875 0.90625 -1.703125 2.5q-0.75 2.4375 -0.75 5.328125l0 14.125l-4.578125 0zm17.269531 0l0 -37.21875l4.5625 0l0 37.21875l-4.5625 0zm12.849609 0l0 -5.203125l5.203125 0l0 5.203125q0 2.875 -1.015625 4.640625q-1.015625 1.765625 -3.21875 2.71875l-1.28125 -1.953125q1.453125 -0.625 2.140625 -1.859375q0.6875 -1.234375 0.765625 -3.546875l-2.59375 0zm32.67578 0l-8.25 -26.96875l4.71875 0l4.296875 15.5625l1.59375 5.796875q0.109375 -0.4375 1.390625 -5.5625l4.296875 -15.796875l4.703125 0l4.03125 15.640625l1.34375 5.15625l1.546875 -5.203125l4.625 -15.59375l4.4375 0l-8.421875 26.96875l-4.75 0l-4.296875 -16.15625l-1.03125 -4.59375l-5.46875 20.75l-4.765625 0zm32.56836 0l0 -37.21875l4.578125 0l0 13.34375q3.203125 -3.703125 8.078125 -3.703125q2.984375 0 5.1875 1.1875q2.21875 1.171875 3.171875 3.265625q0.953125 2.078125 0.953125 6.03125l0 17.09375l-4.5625 0l0 -17.09375q0 -3.421875 -1.5 -4.984375q-1.484375 -1.5625 -4.1875 -1.5625q-2.03125 0 -3.828125 1.0625q-1.796875 1.046875 -2.5625 2.859375q-0.75 1.796875 -0.75 4.96875l0 14.75l-4.578125 0zm27.232422 -13.484375q0 -7.484375 4.15625 -11.09375q3.484375 -3.0 8.484375 -3.0q5.5625 0 9.078125 3.65625q3.53125 3.640625 3.53125 10.0625q0 5.203125 -1.5625 8.1875q-1.546875 2.984375 -4.53125 4.640625q-2.984375 1.640625 -6.515625 1.640625q-5.671875 0 -9.15625 -3.625q-3.484375 -3.640625 -3.484375 -10.46875zm4.6875 0q0 5.1875 2.25 7.765625q2.265625 2.5625 5.703125 2.5625q3.40625 0 5.65625 -2.578125q2.265625 -2.59375 2.265625 -7.90625q0 -5.0 -2.28125 -7.578125q-2.265625 -2.578125 -5.640625 -2.578125q-3.4375 0 -5.703125 2.578125q-2.25 2.5625 -2.25 7.734375zm40.398438 -18.484375l0 -5.25l4.578125 0l0 5.25l-4.578125 0zm0 31.96875l0 -26.96875l4.578125 0l0 26.96875l-4.578125 0zm9.693359 -8.046875l4.53125 -0.71875q0.375 2.71875 2.109375 4.171875q1.75 1.4375 4.875 1.4375q3.140625 0 4.65625 -1.28125q1.53125 -1.28125 1.53125 -3.0q0 -1.546875 -1.34375 -2.4375q-0.9375 -0.609375 -4.671875 -1.546875q-5.03125 -1.28125 -6.96875 -2.203125q-1.9375 -0.921875 -2.953125 -2.5625q-1.0 -1.640625 -1.0 -3.625q0 -1.796875 0.828125 -3.328125q0.828125 -1.546875 2.25 -2.5625q1.0625 -0.78125 2.90625 -1.328125q1.84375 -0.546875 3.953125 -0.546875q3.171875 0 5.5625 0.921875q2.40625 0.90625 3.546875 2.46875q1.140625 1.5625 1.578125 4.171875l-4.46875 0.609375q-0.3125 -2.078125 -1.78125 -3.234375q-1.453125 -1.171875 -4.109375 -1.171875q-3.15625 0 -4.5 1.046875q-1.34375 1.03125 -1.34375 2.421875q0 0.890625 0.5625 1.609375q0.546875 0.734375 1.75 1.21875q0.6875 0.25 4.03125 1.15625q4.859375 1.296875 6.765625 2.125q1.921875 0.828125 3.015625 2.40625q1.09375 1.5625 1.09375 3.90625q0 2.28125 -1.34375 4.3125q-1.328125 2.015625 -3.84375 3.125q-2.515625 1.09375 -5.6875 1.09375q-5.25 0 -8.015625 -2.1875q-2.75 -2.1875 -3.515625 -6.46875zm42.27539 18.375l0 -37.296875l4.171875 0l0 3.5q1.46875 -2.046875 3.3125 -3.078125q1.859375 -1.03125 4.5 -1.03125q3.453125 0 6.09375 1.78125q2.640625 1.78125 3.984375 5.015625q1.359375 3.234375 1.359375 7.09375q0 4.140625 -1.484375 7.453125q-1.484375 3.3125 -4.328125 5.078125q-2.828125 1.765625 -5.953125 1.765625q-2.28125 0 -4.09375 -0.96875q-1.8125 -0.96875 -2.984375 -2.4375l0 13.125l-4.578125 0zm4.140625 -23.65625q0 5.203125 2.109375 7.6875q2.109375 2.484375 5.109375 2.484375q3.046875 0 5.21875 -2.5625q2.171875 -2.578125 2.171875 -8.0q0 -5.140625 -2.125 -7.703125q-2.125 -2.578125 -5.0625 -2.578125q-2.921875 0 -5.171875 2.734375q-2.25 2.734375 -2.25 7.9375zm24.685547 13.328125l0 -37.21875l4.5625 0l0 37.21875l-4.5625 0zm29.25586 -3.328125q-2.546875 2.15625 -4.90625 3.046875q-2.34375 0.890625 -5.03125 0.890625q-4.4375 0 -6.828125 -2.171875q-2.390625 -2.171875 -2.390625 -5.546875q0 -1.984375 0.90625 -3.609375q0.90625 -1.640625 2.359375 -2.625q1.46875 -1.0 3.296875 -1.515625q1.34375 -0.34375 4.0625 -0.6875q5.53125 -0.65625 8.140625 -1.5625q0.03125 -0.9375 0.03125 -1.203125q0 -2.78125 -1.296875 -3.9375q-1.75 -1.546875 -5.203125 -1.546875q-3.234375 0 -4.765625 1.140625q-1.53125 1.125 -2.265625 4.0l-4.46875 -0.609375q0.609375 -2.875 2.0 -4.640625q1.390625 -1.765625 4.03125 -2.71875q2.640625 -0.953125 6.125 -0.953125q3.453125 0 5.609375 0.8125q2.15625 0.8125 3.171875 2.046875q1.015625 1.234375 1.421875 3.109375q0.234375 1.171875 0.234375 4.21875l0 6.09375q0 6.375 0.28125 8.0625q0.296875 1.6875 1.171875 3.234375l-4.78125 0q-0.703125 -1.421875 -0.90625 -3.328125zm-0.390625 -10.203125q-2.484375 1.015625 -7.46875 1.71875q-2.8125 0.40625 -3.984375 0.921875q-1.15625 0.5 -1.796875 1.484375q-0.640625 0.96875 -0.640625 2.171875q0 1.828125 1.375 3.046875q1.390625 1.21875 4.0625 1.21875q2.640625 0 4.6875 -1.15625q2.0625 -1.15625 3.03125 -3.15625q0.734375 -1.5625 0.734375 -4.578125l0 -1.671875zm11.498047 23.921875l-0.5 -4.296875q1.5 0.40625 2.609375 0.40625q1.53125 0 2.4375 -0.515625q0.921875 -0.5 1.5 -1.40625q0.4375 -0.6875 1.40625 -3.40625q0.125 -0.390625 0.40625 -1.125l-10.234375 -27.015625l4.921875 0l5.609375 15.625q1.09375 2.96875 1.953125 6.234375q0.796875 -3.140625 1.875 -6.140625l5.765625 -15.71875l4.578125 0l-10.265625 27.421875q-1.640625 4.453125 -2.5625 6.125q-1.21875 2.265625 -2.796875 3.3125q-1.5625 1.046875 -3.75 1.046875q-1.328125 0 -2.953125 -0.546875zm26.234375 -42.359375l0 -5.25l4.578125 0l0 5.25l-4.578125 0zm0 31.96875l0 -26.96875l4.578125 0l0 26.96875l-4.578125 0zm11.521484 0l0 -26.96875l4.125 0l0 3.84375q2.96875 -4.453125 8.578125 -4.453125q2.4375 0 4.484375 0.875q2.046875 0.875 3.0625 2.296875q1.015625 1.421875 1.421875 3.375q0.25 1.28125 0.25 4.453125l0 16.578125l-4.578125 0l0 -16.40625q0 -2.796875 -0.53125 -4.171875q-0.53125 -1.390625 -1.890625 -2.203125q-1.359375 -0.828125 -3.1875 -0.828125q-2.921875 0 -5.046875 1.859375q-2.109375 1.84375 -2.109375 7.015625l0 14.734375l-4.578125 0zm28.091827 2.234375l4.4375 0.65625q0.28125 2.0625 1.546875 3.0q1.703125 1.265625 4.65625 1.265625q3.171875 0 4.890625 -1.265625q1.734375 -1.265625 2.34375 -3.546875q0.359375 -1.40625 0.328125 -5.875q-3.0 3.53125 -7.46875 3.53125q-5.5625 0 -8.609375 -4.015625q-3.046875 -4.015625 -3.046875 -9.625q0 -3.859375 1.390625 -7.109375q1.40625 -3.265625 4.0625 -5.046875q2.65625 -1.78125 6.234375 -1.78125q4.765625 0 7.875 3.859375l0 -3.25l4.203125 0l0 23.3125q0 6.296875 -1.28125 8.921875q-1.28125 2.625 -4.0625 4.140625q-2.78125 1.53125 -6.84375 1.53125q-4.8125 0 -7.796875 -2.171875q-2.96875 -2.15625 -2.859375 -6.53125zm3.78125 -16.203125q0 5.3125 2.109375 7.75q2.109375 2.4375 5.28125 2.4375q3.140625 0 5.265625 -2.421875q2.140625 -2.4375 2.140625 -7.609375q0 -4.953125 -2.203125 -7.46875q-2.1875 -2.515625 -5.28125 -2.515625q-3.046875 0 -5.1875 2.484375q-2.125 2.46875 -2.125 7.34375zm45.398438 13.96875l-8.25 -26.96875l4.71875 0l4.296875 15.5625l1.59375 5.796875q0.109375 -0.4375 1.390625 -5.5625l4.296875 -15.796875l4.703125 0l4.03125 15.640625l1.34375 5.15625l1.546875 -5.203125l4.625 -15.59375l4.4375 0l-8.421875 26.96875l-4.75 0l-4.296875 -16.15625l-1.03125 -4.59375l-5.46875 20.75l-4.765625 0zm32.59961 -31.96875l0 -5.25l4.578125 0l0 5.25l-4.578125 0zm0 31.96875l0 -26.96875l4.578125 0l0 26.96875l-4.578125 0zm21.50586 -4.09375l0.65625 4.046875q-1.921875 0.40625 -3.453125 0.40625q-2.484375 0 -3.859375 -0.78125q-1.359375 -0.796875 -1.921875 -2.078125q-0.5625 -1.28125 -0.5625 -5.390625l0 -15.515625l-3.34375 0l0 -3.5625l3.34375 0l0 -6.671875l4.546875 -2.75l0 9.421875l4.59375 0l0 3.5625l-4.59375 0l0 15.765625q0 1.953125 0.234375 2.515625q0.25 0.546875 0.796875 0.890625q0.546875 0.328125 1.5625 0.328125q0.75 0 2.0 -0.1875zm4.4628906 4.09375l0 -37.21875l4.578125 0l0 13.34375q3.203125 -3.703125 8.078125 -3.703125q2.984375 0 5.1875 1.1875q2.21875 1.171875 3.171875 3.265625q0.953125 2.078125 0.953125 6.03125l0 17.09375l-4.5625 0l0 -17.09375q0 -3.421875 -1.5 -4.984375q-1.484375 -1.5625 -4.1875 -1.5625q-2.03125 0 -3.828125 1.0625q-1.796875 1.046875 -2.5625 2.859375q-0.75 1.796875 -0.75 4.96875l0 14.75l-4.578125 0zm60.976562 -9.875l4.484375 0.578125q-0.734375 4.65625 -3.765625 7.28125q-3.03125 2.625 -7.453125 2.625q-5.53125 0 -8.90625 -3.609375q-3.359375 -3.625 -3.359375 -10.375q0 -4.375 1.4375 -7.640625q1.453125 -3.28125 4.40625 -4.921875q2.96875 -1.640625 6.453125 -1.640625q4.390625 0 7.171875 2.234375q2.796875 2.21875 3.59375 6.296875l-4.453125 0.6875q-0.625 -2.71875 -2.25 -4.078125q-1.609375 -1.375 -3.890625 -1.375q-3.453125 0 -5.609375 2.484375q-2.15625 2.46875 -2.15625 7.8125q0 5.4375 2.078125 7.90625q2.078125 2.453125 5.4375 2.453125q2.6875 0 4.484375 -1.640625q1.8125 -1.65625 2.296875 -5.078125zm26.0 6.546875q-2.546875 2.15625 -4.90625 3.046875q-2.34375 0.890625 -5.03125 0.890625q-4.4375 0 -6.828125 -2.171875q-2.390625 -2.171875 -2.390625 -5.546875q0 -1.984375 0.90625 -3.609375q0.90625 -1.640625 2.359375 -2.625q1.46875 -1.0 3.296875 -1.515625q1.34375 -0.34375 4.0625 -0.6875q5.53125 -0.65625 8.140625 -1.5625q0.03125 -0.9375 0.03125 -1.203125q0 -2.78125 -1.296875 -3.9375q-1.75 -1.546875 -5.203125 -1.546875q-3.234375 0 -4.765625 1.140625q-1.53125 1.125 -2.265625 4.0l-4.46875 -0.609375q0.609375 -2.875 2.0 -4.640625q1.390625 -1.765625 4.03125 -2.71875q2.640625 -0.953125 6.125 -0.953125q3.453125 0 5.609375 0.8125q2.15625 0.8125 3.171875 2.046875q1.015625 1.234375 1.421875 3.109375q0.234375 1.171875 0.234375 4.21875l0 6.09375q0 6.375 0.28125 8.0625q0.296875 1.6875 1.171875 3.234375l-4.78125 0q-0.703125 -1.421875 -0.90625 -3.328125zm-0.390625 -10.203125q-2.484375 1.015625 -7.46875 1.71875q-2.8125 0.40625 -3.984375 0.921875q-1.15625 0.5 -1.796875 1.484375q-0.640625 0.96875 -0.640625 2.171875q0 1.828125 1.375 3.046875q1.390625 1.21875 4.0625 1.21875q2.640625 0 4.6875 -1.15625q2.0625 -1.15625 3.03125 -3.15625q0.734375 -1.5625 0.734375 -4.578125l0 -1.671875zm11.654297 13.53125l0 -26.96875l4.109375 0l0 4.09375q1.578125 -2.875 2.90625 -3.78125q1.34375 -0.921875 2.9375 -0.921875q2.3125 0 4.703125 1.46875l-1.578125 4.25q-1.671875 -1.0 -3.34375 -1.0q-1.5 0 -2.703125 0.90625q-1.1875 0.90625 -1.703125 2.5q-0.75 2.4375 -0.75 5.328125l0 14.125l-4.578125 0zm15.535156 -8.046875l4.53125 -0.71875q0.375 2.71875 2.109375 4.171875q1.75 1.4375 4.875 1.4375q3.140625 0 4.65625 -1.28125q1.53125 -1.28125 1.53125 -3.0q0 -1.546875 -1.34375 -2.4375q-0.9375 -0.609375 -4.671875 -1.546875q-5.03125 -1.28125 -6.96875 -2.203125q-1.9375 -0.921875 -2.953125 -2.5625q-1.0 -1.640625 -1.0 -3.625q0 -1.796875 0.828125 -3.328125q0.828125 -1.546875 2.25 -2.5625q1.0625 -0.78125 2.90625 -1.328125q1.84375 -0.546875 3.953125 -0.546875q3.171875 0 5.5625 0.921875q2.40625 0.90625 3.546875 2.46875q1.140625 1.5625 1.578125 4.171875l-4.46875 0.609375q-0.3125 -2.078125 -1.78125 -3.234375q-1.453125 -1.171875 -4.109375 -1.171875q-3.15625 0 -4.5 1.046875q-1.34375 1.03125 -1.34375 2.421875q0 0.890625 0.5625 1.609375q0.546875 0.734375 1.75 1.21875q0.6875 0.25 4.03125 1.15625q4.859375 1.296875 6.765625 2.125q1.921875 0.828125 3.015625 2.40625q1.09375 1.5625 1.09375 3.90625q0 2.28125 -1.34375 4.3125q-1.328125 2.015625 -3.84375 3.125q-2.515625 1.09375 -5.6875 1.09375q-5.25 0 -8.015625 -2.1875q-2.75 -2.1875 -3.515625 -6.46875zm29.03125 8.046875l0 -5.203125l5.203125 0l0 5.203125q0 2.875 -1.015625 4.640625q-1.015625 1.765625 -3.21875 2.71875l-1.28125 -1.953125q1.453125 -0.625 2.140625 -1.859375q0.6875 -1.234375 0.765625 -3.546875l-2.59375 0zm27.597656 0l0 -37.21875l4.5625 0l0 37.21875l-4.5625 0zm11.677734 -31.96875l0 -5.25l4.578125 0l0 5.25l-4.578125 0zm0 31.96875l0 -26.96875l4.578125 0l0 26.96875l-4.578125 0zm11.552734 0l0 -37.21875l4.578125 0l0 21.21875l10.8125 -10.96875l5.90625 0l-10.296875 10.0l11.34375 16.96875l-5.640625 0l-8.90625 -13.78125l-3.21875 3.09375l0 10.6875l-4.578125 0zm44.4375 -8.6875l4.71875 0.59375q-1.109375 4.125 -4.140625 6.421875q-3.015625 2.28125 -7.71875 2.28125q-5.90625 0 -9.375 -3.640625q-3.46875 -3.640625 -3.46875 -10.21875q0 -6.8125 3.5 -10.5625q3.5 -3.765625 9.09375 -3.765625q5.40625 0 8.828125 3.6875q3.4375 3.671875 3.4375 10.359375q0 0.40625 -0.03125 1.21875l-20.109375 0q0.25 4.4375 2.515625 6.796875q2.265625 2.359375 5.640625 2.359375q2.515625 0 4.28125 -1.3125q1.78125 -1.328125 2.828125 -4.21875zm-15.015625 -7.390625l15.0625 0q-0.296875 -3.390625 -1.71875 -5.09375q-2.1875 -2.640625 -5.671875 -2.640625q-3.140625 0 -5.296875 2.109375q-2.140625 2.09375 -2.375 5.625zm23.638672 8.03125l4.53125 -0.71875q0.375 2.71875 2.109375 4.171875q1.75 1.4375 4.875 1.4375q3.140625 0 4.65625 -1.28125q1.53125 -1.28125 1.53125 -3.0q0 -1.546875 -1.34375 -2.4375q-0.9375 -0.609375 -4.671875 -1.546875q-5.03125 -1.28125 -6.96875 -2.203125q-1.9375 -0.921875 -2.953125 -2.5625q-1.0 -1.640625 -1.0 -3.625q0 -1.796875 0.828125 -3.328125q0.828125 -1.546875 2.25 -2.5625q1.0625 -0.78125 2.90625 -1.328125q1.84375 -0.546875 3.953125 -0.546875q3.171875 0 5.5625 0.921875q2.40625 0.90625 3.546875 2.46875q1.140625 1.5625 1.578125 4.171875l-4.46875 0.609375q-0.3125 -2.078125 -1.78125 -3.234375q-1.453125 -1.171875 -4.109375 -1.171875q-3.15625 0 -4.5 1.046875q-1.34375 1.03125 -1.34375 2.421875q0 0.890625 0.5625 1.609375q0.546875 0.734375 1.75 1.21875q0.6875 0.25 4.03125 1.15625q4.859375 1.296875 6.765625 2.125q1.921875 0.828125 3.015625 2.40625q1.09375 1.5625 1.09375 3.90625q0 2.28125 -1.34375 4.3125q-1.328125 2.015625 -3.84375 3.125q-2.515625 1.09375 -5.6875 1.09375q-5.25 0 -8.015625 -2.1875q-2.75 -2.1875 -3.515625 -6.46875zm52.259766 3.953125l0.65625 4.046875q-1.921875 0.40625 -3.453125 0.40625q-2.484375 0 -3.859375 -0.78125q-1.359375 -0.796875 -1.921875 -2.078125q-0.5625 -1.28125 -0.5625 -5.390625l0 -15.515625l-3.34375 0l0 -3.5625l3.34375 0l0 -6.671875l4.546875 -2.75l0 9.421875l4.59375 0l0 3.5625l-4.59375 0l0 15.765625q0 1.953125 0.234375 2.515625q0.25 0.546875 0.796875 0.890625q0.546875 0.328125 1.5625 0.328125q0.75 0 2.0 -0.1875zm2.7753906 -9.390625q0 -7.484375 4.15625 -11.09375q3.484375 -3.0 8.484375 -3.0q5.5625 0 9.078125 3.65625q3.53125 3.640625 3.53125 10.0625q0 5.203125 -1.5625 8.1875q-1.546875 2.984375 -4.53125 4.640625q-2.984375 1.640625 -6.515625 1.640625q-5.671875 0 -9.15625 -3.625q-3.484375 -3.640625 -3.484375 -10.46875zm4.6875 0q0 5.1875 2.25 7.765625q2.265625 2.5625 5.703125 2.5625q3.40625 0 5.65625 -2.578125q2.265625 -2.59375 2.265625 -7.90625q0 -5.0 -2.28125 -7.578125q-2.265625 -2.578125 -5.640625 -2.578125q-3.4375 0 -5.703125 2.578125q-2.25 2.5625 -2.25 7.734375zm43.529297 10.15625q-2.546875 2.15625 -4.90625 3.046875q-2.34375 0.890625 -5.03125 0.890625q-4.4375 0 -6.828125 -2.171875q-2.390625 -2.171875 -2.390625 -5.546875q0 -1.984375 0.90625 -3.609375q0.90625 -1.640625 2.359375 -2.625q1.46875 -1.0 3.296875 -1.515625q1.34375 -0.34375 4.0625 -0.6875q5.53125 -0.65625 8.140625 -1.5625q0.03125 -0.9375 0.03125 -1.203125q0 -2.78125 -1.296875 -3.9375q-1.75 -1.546875 -5.203125 -1.546875q-3.234375 0 -4.765625 1.140625q-1.53125 1.125 -2.265625 4.0l-4.46875 -0.609375q0.609375 -2.875 2.0 -4.640625q1.390625 -1.765625 4.03125 -2.71875q2.640625 -0.953125 6.125 -0.953125q3.453125 0 5.609375 0.8125q2.15625 0.8125 3.171875 2.046875q1.015625 1.234375 1.421875 3.109375q0.234375 1.171875 0.234375 4.21875l0 6.09375q0 6.375 0.28125 8.0625q0.296875 1.6875 1.171875 3.234375l-4.78125 0q-0.703125 -1.421875 -0.90625 -3.328125zm-0.390625 -10.203125q-2.484375 1.015625 -7.46875 1.71875q-2.8125 0.40625 -3.984375 0.921875q-1.15625 0.5 -1.796875 1.484375q-0.640625 0.96875 -0.640625 2.171875q0 1.828125 1.375 3.046875q1.390625 1.21875 4.0625 1.21875q2.640625 0 4.6875 -1.15625q2.0625 -1.15625 3.03125 -3.15625q0.734375 -1.5625 0.734375 -4.578125l0 -1.671875zm9.873047 5.484375l4.53125 -0.71875q0.375 2.71875 2.109375 4.171875q1.75 1.4375 4.875 1.4375q3.140625 0 4.65625 -1.28125q1.53125 -1.28125 1.53125 -3.0q0 -1.546875 -1.34375 -2.4375q-0.9375 -0.609375 -4.671875 -1.546875q-5.03125 -1.28125 -6.96875 -2.203125q-1.9375 -0.921875 -2.953125 -2.5625q-1.0 -1.640625 -1.0 -3.625q0 -1.796875 0.828125 -3.328125q0.828125 -1.546875 2.25 -2.5625q1.0625 -0.78125 2.90625 -1.328125q1.84375 -0.546875 3.953125 -0.546875q3.171875 0 5.5625 0.921875q2.40625 0.90625 3.546875 2.46875q1.140625 1.5625 1.578125 4.171875l-4.46875 0.609375q-0.3125 -2.078125 -1.78125 -3.234375q-1.453125 -1.171875 -4.109375 -1.171875q-3.15625 0 -4.5 1.046875q-1.34375 1.03125 -1.34375 2.421875q0 0.890625 0.5625 1.609375q0.546875 0.734375 1.75 1.21875q0.6875 0.25 4.03125 1.15625q4.859375 1.296875 6.765625 2.125q1.921875 0.828125 3.015625 2.40625q1.09375 1.5625 1.09375 3.90625q0 2.28125 -1.34375 4.3125q-1.328125 2.015625 -3.84375 3.125q-2.515625 1.09375 -5.6875 1.09375q-5.25 0 -8.015625 -2.1875q-2.75 -2.1875 -3.515625 -6.46875zm37.8125 3.953125l0.65625 4.046875q-1.921875 0.40625 -3.453125 0.40625q-2.484375 0 -3.859375 -0.78125q-1.359375 -0.796875 -1.921875 -2.078125q-0.5625 -1.28125 -0.5625 -5.390625l0 -15.515625l-3.34375 0l0 -3.5625l3.34375 0l0 -6.671875l4.546875 -2.75l0 9.421875l4.59375 0l0 3.5625l-4.59375 0l0 15.765625q0 1.953125 0.234375 2.515625q0.25 0.546875 0.796875 0.890625q0.546875 0.328125 1.5625 0.328125q0.75 0 2.0 -0.1875z" fill-rule="nonzero"/><path fill="#cdd0d1" d="m12.073491 419.042l82.45669 0l0 43.18109l-82.45669 0z" fill-rule="evenodd"/><path stroke="#212121" stroke-width="1.0" stroke-linejoin="round" stroke-linecap="butt" d="m12.073491 419.042l82.45669 0l0 43.18109l-82.45669 0z" fill-rule="evenodd"/><path fill="#000000" d="m37.597843 450.23254l0 -19.078125l6.5625 0q2.234375 0 3.40625 0.265625q1.640625 0.375 2.796875 1.375q1.5 1.265625 2.25 3.25q0.75 1.984375 0.75 4.546875q0 2.171875 -0.515625 3.859375q-0.5 1.671875 -1.296875 2.78125q-0.78125 1.09375 -1.734375 1.71875q-0.9375 0.625 -2.28125 0.953125q-1.328125 0.328125 -3.0625 0.328125l-6.875 0zm2.515625 -2.25l4.078125 0q1.890625 0 2.953125 -0.34375q1.078125 -0.359375 1.71875 -1.0q0.890625 -0.890625 1.390625 -2.40625q0.515625 -1.515625 0.515625 -3.6875q0 -2.984375 -0.984375 -4.59375q-0.984375 -1.609375 -2.390625 -2.15625q-1.015625 -0.390625 -3.265625 -0.390625l-4.015625 0l0 14.578125zm21.578415 2.25l0 -16.828125l-6.28125 0l0 -2.25l15.125004 0l0 2.25l-6.3125 0l0 16.828125l-2.5312538 0z" fill-rule="nonzero"/><path fill="#cdd0d1" d="m109.54593 419.042l82.456696 0l0 43.18109l-82.456696 0z" fill-rule="evenodd"/><path stroke="#212121" stroke-width="1.0" stroke-linejoin="round" stroke-linecap="butt" d="m109.54593 419.042l82.456696 0l0 43.18109l-82.456696 0z" fill-rule="evenodd"/><path fill="#000000" d="m133.55524 450.23254l0 -19.078125l2.59375 0l10.015625 14.984375l0 -14.984375l2.421875 0l0 19.078125l-2.59375 0l-10.015625 -15.0l0 15.0l-2.421875 0zm19.25029 0l0 -19.078125l2.59375 0l10.015625 14.984375l0 -14.984375l2.421875 0l0 19.078125l-2.59375 0l-10.015625 -15.0l0 15.0l-2.421875 0z" fill-rule="nonzero"/><path fill="#cdd0d1" d="m220.75853 419.042l82.45668 0l0 43.18109l-82.45668 0z" fill-rule="evenodd"/><path stroke="#212121" stroke-width="1.0" stroke-linejoin="round" stroke-linecap="butt" d="m220.75853 419.042l82.45668 0l0 43.18109l-82.45668 0z" fill-rule="evenodd"/><path fill="#000000" d="m245.90804 450.23254l-5.0625 -19.078125l2.59375 0l2.890625 12.5q0.46875 1.96875 0.8125 3.90625q0.734375 -3.0625 0.859375 -3.53125l3.625 -12.875l3.046875 0l2.7343597 9.65625q1.03125 3.59375 1.484375 6.75q0.375 -1.8125 0.953125 -4.140625l3.0 -12.265625l2.53125 0l-5.234375 19.078125l-2.4375 0l-4.0156097 -14.53125q-0.5 -1.828125 -0.59375 -2.25q-0.296875 1.3125 -0.5625 2.25l-4.046875 14.53125l-2.578125 0zm21.831314 0l0 -19.078125l7.1875 0q1.90625 0 2.90625 0.171875q1.40625 0.234375 2.359375 0.90625q0.953125 0.65625 1.53125 1.84375q0.578125 1.171875 0.578125 2.59375q0 2.4375 -1.5625 4.125q-1.546875 1.6875 -5.59375 1.6875l-4.890625 0l0 7.75l-2.515625 0zm2.515625 -10.015625l4.9375 0q2.453125 0 3.46875 -0.90625q1.03125 -0.90625 1.03125 -2.5625q0 -1.203125 -0.609375 -2.046875q-0.59375 -0.859375 -1.59375 -1.125q-0.625 -0.171875 -2.34375 -0.171875l-4.890625 0l0 6.8125z" fill-rule="nonzero"/><path fill="#cdd0d1" d="m312.34122 419.042l82.456696 0l0 43.18109l-82.456696 0z" fill-rule="evenodd"/><path stroke="#212121" stroke-width="1.0" stroke-linejoin="round" stroke-linecap="butt" d="m312.34122 419.042l82.456696 0l0 43.18109l-82.456696 0z" fill-rule="evenodd"/><path fill="#000000" d="m335.1643 450.23254l-7.40625 -19.078125l2.734375 0l4.96875 13.859375q0.59375 1.671875 1.0 3.125q0.4375 -1.5625 1.03125 -3.125l5.15625 -13.859375l2.578125 0l-7.484375 19.078125l-2.578125 0zm12.2170105 0l0 -19.078125l7.15625 0q2.1875 0 3.5 0.578125q1.328125 0.578125 2.078125 1.78125q0.75 1.203125 0.75 2.515625q0 1.21875 -0.671875 2.3125q-0.65625 1.078125 -2.0 1.734375q1.734375 0.515625 2.65625 1.734375q0.9375 1.21875 0.9375 2.890625q0 1.34375 -0.5625 2.5q-0.5625 1.140625 -1.40625 1.765625q-0.828125 0.625 -2.09375 0.953125q-1.25 0.3125 -3.0625 0.3125l-7.28125 0zm2.53125 -11.0625l4.125 0q1.671875 0 2.40625 -0.21875q0.953125 -0.296875 1.4375 -0.953125q0.5 -0.671875 0.5 -1.671875q0 -0.9375 -0.453125 -1.65625q-0.453125 -0.734375 -1.3125 -1.0q-0.84375 -0.265625 -2.890625 -0.265625l-3.8125 0l0 5.765625zm0 8.8125l4.75 0q1.21875 0 1.71875 -0.09375q0.859375 -0.15625 1.4375 -0.515625q0.59375 -0.375 0.96875 -1.0625q0.390625 -0.703125 0.390625 -1.609375q0 -1.0625 -0.546875 -1.84375q-0.546875 -0.796875 -1.515625 -1.109375q-0.96875 -0.328125 -2.796875 -0.328125l-4.40625 0l0 6.5625zm13.8263855 2.25l0 -2.34375l9.78125 -12.21875q1.03125 -1.296875 1.96875 -2.265625l-10.640625 0l0 -2.25l13.671875 0l0 2.25l-10.71875 13.234375l-1.15625 1.34375l12.1875 0l0 2.25l-15.09375 0z" fill-rule="nonzero"/><path fill="#cdd0d1" d="m416.68503 419.042l82.456696 0l0 43.18109l-82.456696 0z" fill-rule="evenodd"/><path stroke="#212121" stroke-width="1.0" stroke-linejoin="round" stroke-linecap="butt" d="m416.68503 419.042l82.456696 0l0 43.18109l-82.456696 0z" fill-rule="evenodd"/><path fill="#000000" d="m437.28247 450.23254l-7.40625 -19.078125l2.734375 0l4.96875 13.859375q0.59375 1.671875 1.0 3.125q0.4375 -1.5625 1.03125 -3.125l5.15625 -13.859375l2.578125 0l-7.484375 19.078125l-2.578125 0zm12.2170105 0l0 -19.078125l7.15625 0q2.1875 0 3.5 0.578125q1.328125 0.578125 2.078125 1.78125q0.75 1.203125 0.75 2.515625q0 1.21875 -0.671875 2.3125q-0.65625 1.078125 -2.0 1.734375q1.734375 0.515625 2.65625 1.734375q0.9375 1.21875 0.9375 2.890625q0 1.34375 -0.5625 2.5q-0.5625 1.140625 -1.40625 1.765625q-0.828125 0.625 -2.09375 0.953125q-1.25 0.3125 -3.0625 0.3125l-7.28125 0zm2.53125 -11.0625l4.125 0q1.671875 0 2.40625 -0.21875q0.953125 -0.296875 1.4375 -0.953125q0.5 -0.671875 0.5 -1.671875q0 -0.9375 -0.453125 -1.65625q-0.453125 -0.734375 -1.3125 -1.0q-0.84375 -0.265625 -2.890625 -0.265625l-3.8125 0l0 5.765625zm0 8.8125l4.75 0q1.21875 0 1.71875 -0.09375q0.859375 -0.15625 1.4375 -0.515625q0.59375 -0.375 0.96875 -1.0625q0.390625 -0.703125 0.390625 -1.609375q0 -1.0625 -0.546875 -1.84375q-0.546875 -0.796875 -1.515625 -1.109375q-0.96875 -0.328125 -2.796875 -0.328125l-4.40625 0l0 6.5625zm24.27951 -5.234375l0 -2.234375l8.078125 -0.015625l0 7.078125q-1.859375 1.484375 -3.84375 2.234375q-1.96875 0.75 -4.046875 0.75q-2.8125 0 -5.109375 -1.203125q-2.296875 -1.203125 -3.46875 -3.484375q-1.171875 -2.28125 -1.171875 -5.09375q0 -2.78125 1.15625 -5.1875q1.171875 -2.421875 3.359375 -3.59375q2.1875 -1.171875 5.03125 -1.171875q2.078125 0 3.75 0.671875q1.671875 0.671875 2.609375 1.875q0.953125 1.1875 1.453125 3.109375l-2.28125 0.625q-0.421875 -1.453125 -1.0625 -2.28125q-0.640625 -0.84375 -1.828125 -1.34375q-1.171875 -0.5 -2.625 -0.5q-1.734375 0 -3.0 0.53125q-1.25 0.53125 -2.03125 1.390625q-0.765625 0.859375 -1.203125 1.890625q-0.734375 1.765625 -0.734375 3.828125q0 2.5625 0.875 4.28125q0.890625 1.703125 2.5625 2.546875q1.6875 0.828125 3.578125 0.828125q1.640625 0 3.1875 -0.625q1.5625 -0.640625 2.375 -1.359375l0 -3.546875l-5.609375 0z" fill-rule="nonzero"/><path fill="#cdd0d1" d="m553.42255 419.042l82.456726 0l0 43.18109l-82.456726 0z" fill-rule="evenodd"/><path stroke="#212121" stroke-width="1.0" stroke-linejoin="round" stroke-linecap="butt" d="m553.42255 419.042l82.456726 0l0 43.18109l-82.456726 0z" fill-rule="evenodd"/><path fill="#000000" d="m583.8072 450.23254l0 -19.078125l2.53125 0l0 19.078125l-2.53125 0zm6.95282 0l0 -19.078125l2.59375 0l10.015625 14.984375l0 -14.984375l2.421875 0l0 19.078125l-2.59375 0l-10.015625 -15.0l0 15.0l-2.421875 0z" fill-rule="nonzero"/><path fill="#cdd0d1" d="m671.5092 419.042l82.456665 0l0 43.18109l-82.456665 0z" fill-rule="evenodd"/><path stroke="#212121" stroke-width="1.0" stroke-linejoin="round" stroke-linecap="butt" d="m671.5092 419.042l82.456665 0l0 43.18109l-82.456665 0z" fill-rule="evenodd"/><path fill="#000000" d="m686.6287 450.23254l0 -19.078125l2.59375 0l10.015625 14.984375l0 -14.984375l2.421875 0l0 19.078125l-2.59375 0l-10.015625 -15.0l0 15.0l-2.421875 0zm19.250305 0l0 -19.078125l2.59375 0l10.015625 14.984375l0 -14.984375l2.421875 0l0 19.078125l-2.59375 0l-10.015625 -15.0l0 15.0l-2.421875 0zm19.281555 0l0 -19.078125l7.1875 0q1.90625 0 2.90625 0.171875q1.40625 0.234375 2.359375 0.90625q0.953125 0.65625 1.53125 1.84375q0.578125 1.171875 0.578125 2.59375q0 2.4375 -1.5625 4.125q-1.546875 1.6875 -5.59375 1.6875l-4.890625 0l0 7.75l-2.515625 0zm2.515625 -10.015625l4.9375 0q2.453125 0 3.46875 -0.90625q1.03125 -0.90625 1.03125 -2.5625q0 -1.203125 -0.609375 -2.046875q-0.59375 -0.859375 -1.59375 -1.125q-0.625 -0.171875 -2.34375 -0.171875l-4.890625 0l0 6.8125z" fill-rule="nonzero"/><path fill="#cdd0d1" d="m801.3727 419.042l82.456726 0l0 43.18109l-82.456726 0z" fill-rule="evenodd"/><path stroke="#212121" stroke-width="1.0" stroke-linejoin="round" stroke-linecap="butt" d="m801.3727 419.042l82.456726 0l0 43.18109l-82.456726 0z" fill-rule="evenodd"/><path fill="#000000" d="m824.1958 450.23254l-7.40625 -19.078125l2.734375 0l4.96875 13.859375q0.59375 1.671875 1.0 3.125q0.4375 -1.5625 1.03125 -3.125l5.15625 -13.859375l2.578125 0l-7.484375 19.078125l-2.578125 0zm12.217041 0l0 -19.078125l7.15625 0q2.1875 0 3.5 0.578125q1.328125 0.578125 2.078125 1.78125q0.75 1.203125 0.75 2.515625q0 1.21875 -0.671875 2.3125q-0.65625 1.078125 -2.0 1.734375q1.734375 0.515625 2.65625 1.734375q0.9375 1.21875 0.9375 2.890625q0 1.34375 -0.5625 2.5q-0.5625 1.140625 -1.40625 1.765625q-0.828125 0.625 -2.09375 0.953125q-1.25 0.3125 -3.0625 0.3125l-7.28125 0zm2.53125 -11.0625l4.125 0q1.671875 0 2.40625 -0.21875q0.953125 -0.296875 1.4375 -0.953125q0.5 -0.671875 0.5 -1.671875q0 -0.9375 -0.453125 -1.65625q-0.453125 -0.734375 -1.3125 -1.0q-0.84375 -0.265625 -2.890625 -0.265625l-3.8125 0l0 5.765625zm0 8.8125l4.75 0q1.21875 0 1.71875 -0.09375q0.859375 -0.15625 1.4375 -0.515625q0.59375 -0.375 0.96875 -1.0625q0.390625 -0.703125 0.390625 -1.609375q0 -1.0625 -0.546875 -1.84375q-0.546875 -0.796875 -1.515625 -1.109375q-0.96875 -0.328125 -2.796875 -0.328125l-4.40625 0l0 6.5625zm13.826355 2.25l0 -2.34375l9.78125 -12.21875q1.03125 -1.296875 1.96875 -2.265625l-10.640625 0l0 -2.25l13.671875 0l0 2.25l-10.71875 13.234375l-1.15625 1.34375l12.1875 0l0 2.25l-15.09375 0z" fill-rule="nonzero"/><path fill="#cdd0d1" d="m916.51447 419.042l82.456665 0l0 43.18109l-82.456665 0z" fill-rule="evenodd"/><path stroke="#212121" stroke-width="1.0" stroke-linejoin="round" stroke-linecap="butt" d="m916.51447 419.042l82.456665 0l0 43.18109l-82.456665 0z" fill-rule="evenodd"/><path fill="#000000" d="m940.52374 450.23254l0 -19.078125l2.59375 0l10.015625 14.984375l0 -14.984375l2.421875 0l0 19.078125l-2.59375 0l-10.015625 -15.0l0 15.0l-2.421875 0zm19.250305 0l0 -19.078125l2.59375 0l10.015625 14.984375l0 -14.984375l2.421875 0l0 19.078125l-2.59375 0l-10.015625 -15.0l0 15.0l-2.421875 0z" fill-rule="nonzero"/><path fill="#cdd0d1" d="m58.7979 313.32547l82.456696 0l0 43.18109l-82.456696 0z" fill-rule="evenodd"/><path stroke="#212121" stroke-width="1.0" stroke-linejoin="round" stroke-linecap="butt" d="m58.7979 313.32547l82.456696 0l0 43.18109l-82.456696 0z" fill-rule="evenodd"/><path fill="#000000" d="m83.542595 344.51602l0 -19.078125l2.59375 0l10.015625 14.984375l0 -14.984375l2.421875 0l0 19.078125l-2.59375 0l-10.015625 -15.0l0 15.0l-2.421875 0zm19.28154 0l0 -19.078125l7.1875 0q1.90625 0 2.90625 0.171875q1.40625 0.234375 2.359375 0.90625q0.953125 0.65625 1.53125 1.84375q0.578125 1.171875 0.578125 2.59375q0 2.4375 -1.5625 4.125q-1.546875 1.6875 -5.59375 1.6875l-4.890625 0l0 7.75l-2.515625 0zm2.515625 -10.015625l4.9375 0q2.453125 0 3.46875 -0.90625q1.03125 -0.90625 1.03125 -2.5625q0 -1.203125 -0.609375 -2.046875q-0.59375 -0.859375 -1.59375 -1.125q-0.625 -0.171875 -2.34375 -0.171875l-4.890625 0l0 6.8125z" fill-rule="nonzero"/><path fill="#cdd0d1" d="m370.25986 320.49344l82.456665 0l0 43.18109l-82.456665 0z" fill-rule="evenodd"/><path stroke="#212121" stroke-width="1.0" stroke-linejoin="round" stroke-linecap="butt" d="m370.25986 320.49344l82.456665 0l0 43.18109l-82.456665 0z" fill-rule="evenodd"/><path fill="#000000" d="m401.2243 351.684l-7.40625 -19.078125l2.734375 0l4.96875 13.859375q0.59375 1.671875 1.0 3.125q0.4375 -1.5625 1.03125 -3.125l5.15625 -13.859375l2.578125 0l-7.484375 19.078125l-2.578125 0zm12.3263855 0l0 -19.078125l7.1875 0q1.90625 0 2.90625 0.171875q1.40625 0.234375 2.359375 0.90625q0.953125 0.65625 1.53125 1.84375q0.578125 1.171875 0.578125 2.59375q0 2.4375 -1.5625 4.125q-1.546875 1.6875 -5.59375 1.6875l-4.890625 0l0 7.75l-2.515625 0zm2.515625 -10.015625l4.9375 0q2.453125 0 3.46875 -0.90625q1.03125 -0.90625 1.03125 -2.5625q0 -1.203125 -0.609375 -2.046875q-0.59375 -0.859375 -1.59375 -1.125q-0.625 -0.171875 -2.34375 -0.171875l-4.890625 0l0 6.8125z" fill-rule="nonzero"/><path fill="#cdd0d1" d="m609.5722 320.49344l82.456665 0l0 43.18109l-82.456665 0z" fill-rule="evenodd"/><path stroke="#212121" stroke-width="1.0" stroke-linejoin="round" stroke-linecap="butt" d="m609.5722 320.49344l82.456665 0l0 43.18109l-82.456665 0z" fill-rule="evenodd"/><path fill="#000000" d="m635.0835 351.684l0 -19.078125l7.1875 0q1.90625 0 2.90625 0.171875q1.40625 0.234375 2.359375 0.90625q0.953125 0.65625 1.53125 1.84375q0.578125 1.171875 0.578125 2.59375q0 2.4375 -1.5625 4.125q-1.546875 1.6875 -5.59375 1.6875l-4.890625 0l0 7.75l-2.515625 0zm2.515625 -10.015625l4.9375 0q2.453125 0 3.46875 -0.90625q1.03125 -0.90625 1.03125 -2.5625q0 -1.203125 -0.609375 -2.046875q-0.59375 -0.859375 -1.59375 -1.125q-0.625 -0.171875 -2.34375 -0.171875l-4.890625 0l0 6.8125zm15.263916 10.015625l0 -19.078125l7.1875 0q1.90625 0 2.90625 0.171875q1.40625 0.234375 2.359375 0.90625q0.953125 0.65625 1.53125 1.84375q0.578125 1.171875 0.578125 2.59375q0 2.4375 -1.5625 4.125q-1.546875 1.6875 -5.59375 1.6875l-4.890625 0l0 7.75l-2.515625 0zm2.515625 -10.015625l4.9375 0q2.453125 0 3.46875 -0.90625q1.03125 -0.90625 1.03125 -2.5625q0 -1.203125 -0.609375 -2.046875q-0.59375 -0.859375 -1.59375 -1.125q-0.625 -0.171875 -2.34375 -0.171875l-4.890625 0l0 6.8125z" fill-rule="nonzero"/><path fill="#cdd0d1" d="m858.94354 320.49344l82.456726 0l0 43.18109l-82.456726 0z" fill-rule="evenodd"/><path stroke="#212121" stroke-width="1.0" stroke-linejoin="round" stroke-linecap="butt" d="m858.94354 320.49344l82.456726 0l0 43.18109l-82.456726 0z" fill-rule="evenodd"/><path fill="#000000" d="m889.908 351.684l-7.40625 -19.078125l2.734375 0l4.96875 13.859375q0.59375 1.671875 1.0 3.125q0.4375 -1.5625 1.03125 -3.125l5.15625 -13.859375l2.578125 0l-7.484375 19.078125l-2.578125 0zm12.326416 0l0 -19.078125l7.1875 0q1.90625 0 2.90625 0.171875q1.40625 0.234375 2.359375 0.90625q0.953125 0.65625 1.53125 1.84375q0.578125 1.171875 0.578125 2.59375q0 2.4375 -1.5625 4.125q-1.546875 1.6875 -5.59375 1.6875l-4.890625 0l0 7.75l-2.515625 0zm2.515625 -10.015625l4.9375 0q2.453125 0 3.46875 -0.90625q1.03125 -0.90625 1.03125 -2.5625q0 -1.203125 -0.609375 -2.046875q-0.59375 -0.859375 -1.59375 -1.125q-0.625 -0.171875 -2.34375 -0.171875l-4.890625 0l0 6.8125z" fill-rule="nonzero"/><path fill="#cdd0d1" d="m358.77692 213.4672l82.456665 0l0 43.18109l-82.456665 0z" fill-rule="evenodd"/><path stroke="#212121" stroke-width="1.0" stroke-linejoin="round" stroke-linecap="butt" d="m358.77692 213.4672l82.456665 0l0 43.18109l-82.456665 0z" fill-rule="evenodd"/><path fill="#000000" d="m398.63953 237.97025l2.53125 0.640625q-0.796875 3.109375 -2.859375 4.75q-2.0625 1.625 -5.046875 1.625q-3.09375 0 -5.03125 -1.25q-1.921875 -1.265625 -2.9375 -3.640625q-1.0 -2.390625 -1.0 -5.125q0 -2.984375 1.140625 -5.203125q1.140625 -2.21875 3.234375 -3.359375q2.109375 -1.15625 4.625 -1.15625q2.875 0 4.828125 1.46875q1.953125 1.453125 2.71875 4.09375l-2.484375 0.578125q-0.671875 -2.078125 -1.9375 -3.03125q-1.25 -0.953125 -3.171875 -0.953125q-2.203125 0 -3.6875 1.0625q-1.46875 1.046875 -2.0625 2.828125q-0.59375 1.78125 -0.59375 3.65625q0 2.4375 0.703125 4.265625q0.703125 1.8125 2.203125 2.71875q1.5 0.890625 3.25 0.890625q2.109375 0 3.578125 -1.21875q1.484375 -1.234375 2.0 -3.640625zm5.5315247 6.6875l0 -19.078125l2.53125 0l0 16.828125l9.390625 0l0 2.25l-11.921875 0z" fill-rule="nonzero"/><path fill="#cdd0d1" d="m249.13124 106.44095l82.45668 0l0 43.18109l-82.45668 0z" fill-rule="evenodd"/><path stroke="#212121" stroke-width="1.0" stroke-linejoin="round" stroke-linecap="butt" d="m249.13124 106.44095l82.45668 0l0 43.18109l-82.45668 0z" fill-rule="evenodd"/><path fill="#000000" d="m273.87595 137.6315l0 -19.078133l2.59375 0l10.015625 14.984383l0 -14.984383l2.421875 0l0 19.078133l-2.59375 0l-10.015625 -15.000008l0 15.000008l-2.421875 0zm19.281525 0l0 -19.078133l7.1875 0q1.90625 0 2.90625 0.171875q1.40625 0.234375 2.359375 0.90625q0.953125 0.65625 1.53125 1.84375q0.578125 1.171875 0.578125 2.59375q0 2.4375 -1.5625 4.1250076q-1.546875 1.6875 -5.59375 1.6875l-4.890625 0l0 7.75l-2.515625 0zm2.515625 -10.015633l4.9375 0q2.453125 0 3.46875 -0.90625q1.03125 -0.90625 1.03125 -2.5625q0 -1.203125 -0.609375 -2.046875q-0.59375 -0.859375 -1.59375 -1.125q-0.625 -0.171875 -2.34375 -0.171875l-4.890625 0l0 6.8125z" fill-rule="nonzero"/><path fill="#cdd0d1" d="m499.14172 -0.5853018l82.456726 0l0 43.181103l-82.456726 0z" fill-rule="evenodd"/><path stroke="#212121" stroke-width="1.0" stroke-linejoin="round" stroke-linecap="butt" d="m499.14172 -0.5853018l82.456726 0l0 43.181103l-82.456726 0z" fill-rule="evenodd"/><path fill="#000000" d="m532.6835 24.480247l2.375 -0.21875q0.171875 1.4375 0.78125 2.359375q0.625 0.90625 1.921875 1.484375q1.3125 0.5625 2.9375 0.5625q1.4375 0 2.546875 -0.421875q1.109375 -0.4375 1.640625 -1.1875q0.546875 -0.75 0.546875 -1.640625q0 -0.890625 -0.53125 -1.5625q-0.515625 -0.671875 -1.703125 -1.125q-0.765625 -0.296875 -3.40625 -0.921875q-2.625 -0.640625 -3.671875 -1.203125q-1.375 -0.71875 -2.046875 -1.765625q-0.671875 -1.0625 -0.671875 -2.375q0 -1.453124 0.8125 -2.703124q0.828125 -1.265625 2.40625 -1.90625q1.578125 -0.65625 3.5 -0.65625q2.125 0 3.734375 0.6875q1.625 0.671875 2.5 2.0q0.875 1.328125 0.9375 3.015624l-2.421875 0.1875q-0.1875 -1.812499 -1.3125 -2.734374q-1.125 -0.9375 -3.328125 -0.9375q-2.296875 0 -3.34375 0.84375q-1.046875 0.84375 -1.046875 2.031249q0 1.015625 0.75 1.6875q0.71875 0.65625 3.796875 1.359375q3.078125 0.703125 4.234375 1.21875q1.65625 0.765625 2.453125 1.953125q0.796875 1.171875 0.796875 2.703125q0 1.53125 -0.875 2.875q-0.875 1.34375 -2.515625 2.09375q-1.625 0.75 -3.671875 0.75q-2.59375 0 -4.34375 -0.75q-1.75 -0.765625 -2.75 -2.28125q-0.984375 -1.515625 -1.03125 -3.421875z" fill-rule="nonzero"/><path fill="#000000" fill-opacity="0.0" d="m540.37006 42.595802l-250.01572 63.84252" fill-rule="evenodd"/><path stroke="#212121" stroke-width="3.0" stroke-linejoin="round" stroke-linecap="butt" d="m540.37006 42.595802l-232.57535 59.389046" fill-rule="evenodd"/><path fill="#212121" stroke="#212121" stroke-width="3.0" stroke-linecap="butt" d="m306.56873 97.183716l-11.965027 8.1695175l14.416992 1.4327545z" fill-rule="evenodd"/><path fill="#000000" fill-opacity="0.0" d="m540.37006 42.595802l359.81104 277.88977" fill-rule="evenodd"/><path stroke="#212121" stroke-width="3.0" stroke-linejoin="round" stroke-linecap="butt" d="m540.37006 42.595802l345.56512 266.88733" fill-rule="evenodd"/><path fill="#212121" stroke="#212121" stroke-width="3.0" stroke-linecap="butt" d="m882.9063 313.40488l13.803772 4.399933l-7.7460327 -12.243408z" fill-rule="evenodd"/><path fill="#000000" fill-opacity="0.0" d="m290.3596 149.62204l-190.33072 163.71655" fill-rule="evenodd"/><path stroke="#212121" stroke-width="3.0" stroke-linejoin="round" stroke-linecap="butt" d="m290.3596 149.62204l-176.68452 151.97852" fill-rule="evenodd"/><path fill="#212121" stroke="#212121" stroke-width="3.0" stroke-linecap="butt" d="m110.44372 297.8439l-7.089943 12.634705l13.552635 -5.121399z" fill-rule="evenodd"/><path fill="#000000" fill-opacity="0.0" d="m290.3596 149.62204l109.63779 63.84253" fill-rule="evenodd"/><path stroke="#212121" stroke-width="3.0" stroke-linejoin="round" stroke-linecap="butt" d="m290.3596 149.62204l94.082794 54.784805" fill-rule="evenodd"/><path fill="#212121" stroke="#212121" stroke-width="3.0" stroke-linecap="butt" d="m381.9489 208.68895l14.258484 2.568695l-9.271515 -11.132919z" fill-rule="evenodd"/><path fill="#000000" fill-opacity="0.0" d="m400.00525 256.6483l-138.01575 162.3937" fill-rule="evenodd"/><path stroke="#212121" stroke-width="3.0" stroke-linejoin="round" stroke-linecap="butt" d="m400.00525 256.6483l-126.35901 148.67801" fill-rule="evenodd"/><path fill="#212121" stroke="#212121" stroke-width="3.0" stroke-linecap="butt" d="m269.87048 402.11734l-5.040802 13.582825l12.592346 -7.1648865z" fill-rule="evenodd"/><path fill="#000000" fill-opacity="0.0" d="m400.00525 256.6483l11.496063 63.84253" fill-rule="evenodd"/><path stroke="#212121" stroke-width="3.0" stroke-linejoin="round" stroke-linecap="butt" d="m400.00525 256.6483l8.306152 46.12744" fill-rule="evenodd"/><path fill="#212121" stroke="#212121" stroke-width="3.0" stroke-linecap="butt" d="m403.4346 303.65387l7.2894897 12.52066l2.4640503 -14.276947z" fill-rule="evenodd"/><path fill="#000000" fill-opacity="0.0" d="m400.00525 256.6483l250.80316 63.84253" fill-rule="evenodd"/><path stroke="#212121" stroke-width="3.0" stroke-linejoin="round" stroke-linecap="butt" d="m400.00525 256.6483l233.35944 59.40219" fill-rule="evenodd"/><path fill="#212121" stroke="#212121" stroke-width="3.0" stroke-linecap="butt" d="m632.14233 320.85254l14.415894 -1.4436035l-11.971191 -8.160522z" fill-rule="evenodd"/><path fill="#000000" fill-opacity="0.0" d="m100.026245 356.50656l-46.70866 62.551178" fill-rule="evenodd"/><path stroke="#212121" stroke-width="3.0" stroke-linejoin="round" stroke-linecap="butt" d="m100.026245 356.50656l-35.938896 48.12857" fill-rule="evenodd"/><path fill="#212121" stroke="#212121" stroke-width="3.0" stroke-linecap="butt" d="m60.116962 401.67032l-4.1753197 13.873352l12.1160965 -7.943756z" fill-rule="evenodd"/><path fill="#000000" fill-opacity="0.0" d="m100.026245 356.50656l50.740158 62.551178" fill-rule="evenodd"/><path stroke="#212121" stroke-width="3.0" stroke-linejoin="round" stroke-linecap="butt" d="m100.026245 356.50656l39.40062 48.572083" fill-rule="evenodd"/><path fill="#212121" stroke="#212121" stroke-width="3.0" stroke-linecap="butt" d="m135.57858 408.2003l12.424942 7.4514465l-4.728363 -13.694733z" fill-rule="evenodd"/><path fill="#000000" fill-opacity="0.0" d="m411.4882 363.67453l-57.921265 55.370087" fill-rule="evenodd"/><path stroke="#212121" stroke-width="3.0" stroke-linejoin="round" stroke-linecap="butt" d="m411.4882 363.67453l-44.910034 42.931946" fill-rule="evenodd"/><path fill="#212121" stroke="#212121" stroke-width="3.0" stroke-linecap="butt" d="m363.15408 403.02463l-6.4169617 12.989441l13.265137 -5.8257446z" fill-rule="evenodd"/><path fill="#000000" fill-opacity="0.0" d="m411.4882 363.67453l46.4252 55.370087" fill-rule="evenodd"/><path stroke="#212121" stroke-width="3.0" stroke-linejoin="round" stroke-linecap="butt" d="m411.4882 363.67453l34.86029 41.576904" fill-rule="evenodd"/><path fill="#212121" stroke="#212121" stroke-width="3.0" stroke-linecap="butt" d="m442.55133 408.43512l12.5442505 7.2487793l-4.950012 -13.61618z" fill-rule="evenodd"/><path fill="#000000" fill-opacity="0.0" d="m650.80054 363.67453l-56.15747 55.370087" fill-rule="evenodd"/><path stroke="#212121" stroke-width="3.0" stroke-linejoin="round" stroke-linecap="butt" d="m650.80054 363.67453l-43.340027 42.73233" fill-rule="evenodd"/><path fill="#212121" stroke="#212121" stroke-width="3.0" stroke-linecap="butt" d="m603.9815 402.87836l-6.215454 13.087067l13.173462 -6.03006z" fill-rule="evenodd"/><path fill="#000000" fill-opacity="0.0" d="m650.80054 363.67453l61.95276 55.370087" fill-rule="evenodd"/><path stroke="#212121" stroke-width="3.0" stroke-linejoin="round" stroke-linecap="butt" d="m650.80054 363.67453l48.5318 43.375183" fill-rule="evenodd"/><path fill="#212121" stroke="#212121" stroke-width="3.0" stroke-linecap="butt" d="m696.0303 410.74432l13.453003 5.377716l-6.848877 -12.766968z" fill-rule="evenodd"/><path fill="#000000" fill-opacity="0.0" d="m900.17194 363.67453l-57.57483 55.370087" fill-rule="evenodd"/><path stroke="#212121" stroke-width="3.0" stroke-linejoin="round" stroke-linecap="butt" d="m900.17194 363.67453l-44.60089 42.893005" fill-rule="evenodd"/><path fill="#212121" stroke="#212121" stroke-width="3.0" stroke-linecap="butt" d="m852.1362 402.99597l-6.3779907 13.008606l13.247559 -5.8654785z" fill-rule="evenodd"/><path fill="#000000" fill-opacity="0.0" d="m900.17194 363.67453l57.574768 55.370087" fill-rule="evenodd"/><path stroke="#212121" stroke-width="3.0" stroke-linejoin="round" stroke-linecap="butt" d="m900.17194 363.67453l44.60089 42.893005" fill-rule="evenodd"/><path fill="#212121" stroke="#212121" stroke-width="3.0" stroke-linecap="butt" d="m941.338 410.1391l13.24762 5.8654785l-6.3779907 -13.008606z" fill-rule="evenodd"/></g></svg>