<svg version="1.1" viewBox="0.0 0.0 970.1338582677165 398.002624671916" fill="none" stroke="none" stroke-linecap="square" stroke-miterlimit="10" xmlns:xlink="http://www.w3.org/1999/xlink" xmlns="http://www.w3.org/2000/svg"><clipPath id="p.0"><path d="m0 0l970.13385 0l0 398.00262l-970.13385 0l0 -398.00262z" clip-rule="nonzero"/></clipPath><g clip-path="url(#p.0)"><path fill="#000000" fill-opacity="0.0" d="m0 0l970.13385 0l0 398.00262l-970.13385 0z" fill-rule="evenodd"/><path fill="#cfe2f3" d="m77.38845 70.99869l0 0c0 7.1557846 27.532722 12.956696 61.49607 12.956696c33.963333 0 61.496063 -5.800911 61.496063 -12.956696l0 77.74016c0 7.155777 -27.53273 12.956696 -61.496063 12.956696c-33.96335 0 -61.49607 -5.8009186 -61.49607 -12.956696z" fill-rule="evenodd"/><path fill="#e2edf7" d="m77.38845 70.99869l0 0c0 -7.1557846 27.532722 -12.956692 61.49607 -12.956692c33.963333 0 61.496063 5.800907 61.496063 12.956692l0 0c0 7.1557846 -27.53273 12.956696 -61.496063 12.956696c-33.96335 0 -61.49607 -5.800911 -61.49607 -12.956696z" fill-rule="evenodd"/><path fill="#000000" fill-opacity="0.0" d="m200.38058 70.99869l0 0c0 7.1557846 -27.53273 12.956696 -61.496063 12.956696c-33.96335 0 -61.49607 -5.800911 -61.49607 -12.956696l0 0c0 -7.1557846 27.532722 -12.956692 61.49607 -12.956692c33.963333 0 61.496063 5.800907 61.496063 12.956692l0 77.74016c0 7.155777 -27.53273 12.956696 -61.496063 12.956696c-33.96335 0 -61.49607 -5.8009186 -61.49607 -12.956696l0 -77.74016" fill-rule="evenodd"/><path stroke="#000000" stroke-width="1.0" stroke-linejoin="round" stroke-linecap="butt" d="m200.38058 70.99869l0 0c0 7.1557846 -27.53273 12.956696 -61.496063 12.956696c-33.96335 0 -61.49607 -5.800911 -61.49607 -12.956696l0 0c0 -7.1557846 27.532722 -12.956692 61.49607 -12.956692c33.963333 0 61.496063 5.800907 61.496063 12.956692l0 77.74016c0 7.155777 -27.53273 12.956696 -61.496063 12.956696c-33.96335 0 -61.49607 -5.8009186 -61.49607 -12.956696l0 -77.74016" fill-rule="evenodd"/><path fill="#000000" d="m129.94284 92.52649l0 2.0625l-5.8593826 0l0 16.078125l-2.453125 0l0 -16.078125l-5.890625 0l0 -2.0625l14.203133 0zm4.64299 5.109375q1.15625 0 2.125 0.390625q0.984375 0.375 1.6875 1.109375q0.71875 0.734375 1.109375 1.8125q0.40625 1.0625 0.40625 2.421875q0 0.53125 -0.125 0.71875q-0.109375 0.171875 -0.421875 0.171875l-8.53125 0q0.015625 1.21875 0.3125 2.125q0.3125 0.890625 0.84375 1.5q0.53125 0.59375 1.265625 0.890625q0.734375 0.296875 1.65625 0.296875q0.84375 0 1.453125 -0.1875q0.625 -0.203125 1.0625 -0.421875q0.4375 -0.234375 0.734375 -0.4375q0.296875 -0.203125 0.515625 -0.203125q0.28125 0 0.4375 0.21875l0.625 0.828125q-0.421875 0.5 -1.0 0.875q-0.578125 0.375 -1.25 0.625q-0.65625 0.234375 -1.375 0.34375q-0.703125 0.125 -1.40625 0.125q-1.328125 0 -2.453125 -0.4375q-1.109375 -0.453125 -1.9375 -1.3125q-0.8125 -0.875 -1.265625 -2.15625q-0.453125 -1.28125 -0.453125 -2.9375q0 -1.34375 0.40625 -2.5q0.421875 -1.171875 1.1875 -2.03125q0.78125 -0.859375 1.890625 -1.34375q1.109375 -0.484375 2.5 -0.484375zm0.0625 1.65625q-1.640625 0 -2.578125 0.953125q-0.9375 0.9375 -1.171875 2.609375l6.984375 0q0 -0.78125 -0.21875 -1.4375q-0.203125 -0.65625 -0.625 -1.125q-0.421875 -0.484375 -1.03125 -0.734375q-0.59375 -0.265625 -1.359375 -0.265625zm10.371323 4.796875l-4.3125 -6.25l2.171875 0q0.265625 0 0.390625 0.09375q0.140625 0.078125 0.234375 0.25l3.140625 4.8125q0.109375 -0.359375 0.328125 -0.71875l2.765625 -4.046875q0.125 -0.171875 0.25 -0.28125q0.125 -0.109375 0.3125 -0.109375l2.078125 0l-4.3125 6.125l4.5 6.703125l-2.171875 0q-0.28125 0 -0.4375 -0.140625q-0.15625 -0.15625 -0.265625 -0.328125l-3.21875 -5.03125q-0.09375 0.375 -0.265625 0.65625l-2.984375 4.375q-0.140625 0.171875 -0.28125 0.328125q-0.140625 0.140625 -0.390625 0.140625l-2.015625 0l4.484375 -6.578125zm13.656021 6.78125q-1.515625 0 -2.34375 -0.84375q-0.8125 -0.859375 -0.8125 -2.453125l0 -7.84375l-1.546875 0q-0.203125 0 -0.34375 -0.125q-0.125 -0.125 -0.125 -0.375l0 -0.890625l2.09375 -0.265625l0.515625 -3.96875q0.03125 -0.1875 0.171875 -0.3125q0.140625 -0.125 0.359375 -0.125l1.140625 0l0 4.421875l3.671875 0l0 1.640625l-3.671875 0l0 7.703125q0 0.796875 0.390625 1.203125q0.390625 0.390625 1.015625 0.390625q0.34375 0 0.609375 -0.09375q0.265625 -0.109375 0.453125 -0.21875q0.1875 -0.109375 0.3125 -0.203125q0.140625 -0.09375 0.234375 -0.09375q0.1875 0 0.328125 0.21875l0.65625 1.0625q-0.59375 0.546875 -1.421875 0.859375q-0.8125 0.3125 -1.6875 0.3125z" fill-rule="nonzero"/><path fill="#000000" d="m116.562996 133.08899l0 7.578125l-2.453125 0l0 -18.140625l5.125 0q1.734375 0 2.984375 0.34375q1.25 0.34375 2.0625 1.0q0.828125 0.65625 1.21875 1.59375q0.390625 0.9375 0.390625 2.078125q0 0.96875 -0.3125 1.8125q-0.296875 0.828125 -0.875 1.5q-0.578125 0.65625 -1.40625 1.125q-0.828125 0.46875 -1.875 0.703125q0.453125 0.265625 0.8125 0.78125l5.296875 7.203125l-2.1875 0q-0.671875 0 -0.984375 -0.515625l-4.71875 -6.484375q-0.203125 -0.3125 -0.46875 -0.4375q-0.25 -0.140625 -0.75 -0.140625l-1.859375 0zm0 -1.78125l2.5625 0q1.078125 0 1.890625 -0.25q0.828125 -0.265625 1.375 -0.734375q0.546875 -0.484375 0.828125 -1.140625q0.28125 -0.65625 0.28125 -1.453125q0 -1.625 -1.078125 -2.4375q-1.0625 -0.828125 -3.1875 -0.828125l-2.671875 0l0 6.84375zm29.342598 0.296875q0 2.03125 -0.65625 3.703125q-0.640625 1.671875 -1.828125 2.875q-1.171875 1.1875 -2.8125 1.84375q-1.640625 0.640625 -3.65625 0.640625l-6.78125 0l0 -18.140625l6.78125 0q2.015625 0 3.65625 0.65625q1.640625 0.640625 2.8125 1.84375q1.1875 1.1875 1.828125 2.859375q0.65625 1.671875 0.65625 3.71875zm-2.53125 0q0 -1.671875 -0.453125 -2.984375q-0.453125 -1.328125 -1.296875 -2.234375q-0.828125 -0.921875 -2.015625 -1.390625q-1.1875 -0.484375 -2.65625 -0.484375l-4.3125 0l0 14.171875l4.3125 0q1.46875 0 2.65625 -0.484375q1.1875 -0.484375 2.015625 -1.390625q0.84375 -0.90625 1.296875 -2.21875q0.453125 -1.3125 0.453125 -2.984375zm21.603348 0q0 2.03125 -0.65625 3.703125q-0.640625 1.671875 -1.828125 2.875q-1.171875 1.1875 -2.8125 1.84375q-1.640625 0.640625 -3.65625 0.640625l-6.78125 0l0 -18.140625l6.78125 0q2.015625 0 3.65625 0.65625q1.640625 0.640625 2.8125 1.84375q1.1875 1.1875 1.828125 2.859375q0.65625 1.671875 0.65625 3.71875zm-2.53125 0q0 -1.671875 -0.453125 -2.984375q-0.453125 -1.328125 -1.296875 -2.234375q-0.828125 -0.921875 -2.015625 -1.390625q-1.1875 -0.484375 -2.65625 -0.484375l-4.3125 0l0 14.171875l4.3125 0q1.46875 0 2.65625 -0.484375q1.1875 -0.484375 2.015625 -1.390625q0.84375 -0.90625 1.296875 -2.21875q0.453125 -1.3125 0.453125 -2.984375z" fill-rule="nonzero"/><path fill="#d5a6bd" d="m279.87576 77.16568l0 0c0 -9.030975 7.321045 -16.352032 16.35205 -16.352032l127.61087 0c4.336853 0 8.496033 1.7227974 11.562653 4.789402c3.0665894 3.066597 4.789398 7.2257996 4.789398 11.56263l0 65.40617c0 9.030975 -7.3210754 16.352036 -16.35205 16.352036l-127.61087 0c-9.031006 0 -16.35205 -7.32106 -16.35205 -16.352036z" fill-rule="evenodd"/><path stroke="#000000" stroke-width="1.0" stroke-linejoin="round" stroke-linecap="butt" d="m279.87576 77.16568l0 0c0 -9.030975 7.321045 -16.352032 16.35205 -16.352032l127.61087 0c4.336853 0 8.496033 1.7227974 11.562653 4.789402c3.0665894 3.066597 4.789398 7.2257996 4.789398 11.56263l0 65.40617c0 9.030975 -7.3210754 16.352036 -16.35205 16.352036l-127.61087 0c-9.031006 0 -16.35205 -7.32106 -16.35205 -16.352036z" fill-rule="evenodd"/><path fill="#000000" d="m337.3327 101.364395q0 0.265625 -0.109375 0.515625q-0.09375 0.234375 -0.296875 0.421875q-0.3125 0.328125 -0.890625 0.515625q-0.578125 0.171875 -1.34375 0.171875q-0.484375 0 -0.984375 -0.09375q-0.5 -0.109375 -0.90625 -0.359375q-0.421875 -0.25 -0.703125 -0.65625q-0.265625 -0.40625 -0.3125 -1.0l-1.921875 0q0 0.71875 0.328125 1.390625q0.328125 0.65625 0.953125 1.15625q0.609375 0.515625 1.5 0.828125q0.90625 0.296875 2.046875 0.296875q1.0 0 1.84375 -0.234375q0.84375 -0.234375 1.453125 -0.671875q0.59375 -0.4375 0.921875 -1.046875q0.34375 -0.625 0.34375 -1.375q0 -0.703125 -0.296875 -1.234375q-0.28125 -0.53125 -0.84375 -0.9375q-0.5625 -0.390625 -1.390625 -0.671875q-0.828125 -0.296875 -1.859375 -0.515625q-0.796875 -0.15625 -1.3125 -0.3125q-0.515625 -0.171875 -0.8125 -0.375q-0.3125 -0.21875 -0.4375 -0.46875q-0.125 -0.265625 -0.125 -0.59375q0 -0.328125 0.15625 -0.625q0.15625 -0.3125 0.46875 -0.53125q0.296875 -0.234375 0.75 -0.359375q0.46875 -0.140625 1.09375 -0.140625q0.59375 0 1.0625 0.171875q0.46875 0.15625 0.8125 0.421875q0.328125 0.28125 0.515625 0.625q0.1875 0.34375 0.1875 0.71875l1.921875 0q0 -0.75 -0.3125 -1.390625q-0.3125 -0.640625 -0.90625 -1.109375q-0.578125 -0.484375 -1.421875 -0.75q-0.828125 -0.265625 -1.859375 -0.265625q-0.96875 0 -1.78125 0.265625q-0.8125 0.25 -1.390625 0.6875q-0.578125 0.453125 -0.90625 1.0625q-0.328125 0.59375 -0.328125 1.28125q0 0.6875 0.3125 1.21875q0.3125 0.53125 0.890625 0.90625q0.5625 0.40625 1.359375 0.6875q0.796875 0.28125 1.765625 0.46875q0.796875 0.15625 1.328125 0.359375q0.53125 0.1875 0.84375 0.421875q0.328125 0.21875 0.453125 0.5q0.140625 0.28125 0.140625 0.625zm5.2989807 7.3125l1.9375 0l0 -5.40625q0.203125 0.21875 0.4375 0.421875q0.25 0.1875 0.515625 0.34375q0.453125 0.25 1.0 0.375q0.5625 0.140625 1.203125 0.140625q1.0625 0 1.890625 -0.4375q0.828125 -0.4375 1.390625 -1.203125q0.5625 -0.765625 0.84375 -1.8125q0.296875 -1.046875 0.296875 -2.265625l0 -0.21875q0 -1.25 -0.296875 -2.3125q-0.28125 -1.0625 -0.84375 -1.8125q-0.5625 -0.765625 -1.390625 -1.1875q-0.828125 -0.421875 -1.921875 -0.421875q-0.609375 0 -1.15625 0.125q-0.53125 0.125 -0.96875 0.375q-0.3125 0.171875 -0.578125 0.40625q-0.265625 0.234375 -0.5 0.515625l-0.09375 -1.21875l-1.765625 0l0 15.59375zm7.59375 -10.0625l0 0.21875q0 0.828125 -0.1875 1.578125q-0.171875 0.75 -0.546875 1.328125q-0.375 0.5625 -0.96875 0.90625q-0.578125 0.34375 -1.375 0.34375q-0.5 0 -0.921875 -0.125q-0.40625 -0.125 -0.734375 -0.34375q-0.296875 -0.1875 -0.53125 -0.453125q-0.21875 -0.28125 -0.390625 -0.59375l0 -5.421875q0.1875 -0.359375 0.453125 -0.640625q0.265625 -0.296875 0.59375 -0.5q0.296875 -0.203125 0.671875 -0.296875q0.390625 -0.109375 0.84375 -0.109375q0.8125 0 1.390625 0.34375q0.578125 0.328125 0.96875 0.890625q0.375 0.5625 0.546875 1.3125q0.1875 0.75 0.1875 1.5625zm5.5177 -10.265625l0 1.6875l3.84375 0l0 12.640625l-3.84375 0l0 1.671875l9.4375 0l0 -1.671875l-3.671875 0l0 -14.328125l-5.765625 0zm12.798981 4.734375l0 1.671875l3.84375 0l0 7.921875l-3.84375 0l0 1.671875l9.4375 0l0 -1.671875l-3.671875 0l0 -9.59375l-5.765625 0zm3.59375 -2.953125q0 0.46875 0.28125 0.78125q0.28125 0.3125 0.875 0.3125q0.5625 0 0.859375 -0.3125q0.296875 -0.3125 0.296875 -0.78125q0 -0.265625 -0.09375 -0.484375q-0.078125 -0.21875 -0.25 -0.359375q-0.125 -0.140625 -0.34375 -0.21875q-0.203125 -0.078125 -0.46875 -0.078125q-0.28125 0 -0.5 0.078125q-0.203125 0.078125 -0.34375 0.21875q-0.15625 0.15625 -0.234375 0.375q-0.078125 0.21875 -0.078125 0.46875zm13.470825 0.21875l-1.9375 0l0 2.734375l-2.953125 0l0 1.484375l2.953125 0l0 6.125q0 1.046875 0.265625 1.78125q0.28125 0.734375 0.765625 1.1875q0.484375 0.46875 1.125 0.6875q0.65625 0.203125 1.40625 0.203125q0.453125 0 0.90625 -0.046875q0.453125 -0.03125 0.859375 -0.109375q0.40625 -0.078125 0.734375 -0.1875q0.34375 -0.109375 0.59375 -0.25l-0.28125 -1.375q-0.171875 0.046875 -0.453125 0.109375q-0.265625 0.046875 -0.578125 0.109375q-0.328125 0.046875 -0.65625 0.09375q-0.328125 0.03125 -0.640625 0.03125q-0.4375 0 -0.8125 -0.109375q-0.375 -0.109375 -0.671875 -0.359375q-0.296875 -0.25 -0.46875 -0.671875q-0.15625 -0.4375 -0.15625 -1.09375l0 -6.125l4.296875 0l0 -1.484375l-4.296875 0l0 -2.734375z" fill-rule="nonzero"/><path fill="#000000" d="m344.25668 118.00502l0 1.53125l1.890625 0l0 -1.5625q0 -0.890625 0.234375 -1.65625q0.25 -0.78125 0.734375 -1.515625l-1.046875 -0.75q-0.4375 0.375 -0.78125 0.859375q-0.328125 0.46875 -0.546875 1.0q-0.25 0.53125 -0.375 1.078125q-0.109375 0.53125 -0.109375 1.015625zm3.390625 0l0 1.53125l1.890625 0l0 -1.5625q0 -0.890625 0.234375 -1.65625q0.25 -0.78125 0.734375 -1.515625l-1.046875 -0.75q-0.4375 0.375 -0.78125 0.859375q-0.328125 0.46875 -0.546875 1.0q-0.25 0.53125 -0.375 1.078125q-0.109375 0.53125 -0.109375 1.015625zm22.207306 0l0 1.53125l1.890625 0l0 -1.5625q0 -0.890625 0.234375 -1.65625q0.25 -0.78125 0.734375 -1.515625l-1.046875 -0.75q-0.4375 0.375 -0.78125 0.859375q-0.328125 0.46875 -0.546875 1.0q-0.25 0.53125 -0.375 1.078125q-0.109375 0.53125 -0.109375 1.015625zm3.390625 0l0 1.53125l1.890625 0l0 -1.5625q0 -0.890625 0.234375 -1.65625q0.25 -0.78125 0.734375 -1.515625l-1.046875 -0.75q-0.4375 0.375 -0.78125 0.859375q-0.328125 0.46875 -0.546875 1.0q-0.25 0.53125 -0.375 1.078125q-0.109375 0.53125 -0.109375 1.015625z" fill-rule="nonzero"/><path fill="#d5a6bd" d="m519.6859 77.16568l0 0c0 -9.030975 7.321045 -16.352032 16.35205 -16.352032l127.6109 0c4.336792 0 8.496033 1.7227974 11.562622 4.789402c3.0665894 3.066597 4.7893677 7.2257996 4.7893677 11.56263l0 65.40617c0 9.030975 -7.321045 16.352036 -16.35199 16.352036l-127.6109 0c-9.031006 0 -16.35205 -7.32106 -16.35205 -16.352036z" fill-rule="evenodd"/><path stroke="#000000" stroke-width="1.0" stroke-linejoin="round" stroke-linecap="butt" d="m519.6859 77.16568l0 0c0 -9.030975 7.321045 -16.352032 16.35205 -16.352032l127.6109 0c4.336792 0 8.496033 1.7227974 11.562622 4.789402c3.0665894 3.066597 4.7893677 7.2257996 4.7893677 11.56263l0 65.40617c0 9.030975 -7.321045 16.352036 -16.35199 16.352036l-127.6109 0c-9.031006 0 -16.35205 -7.32106 -16.35205 -16.352036z" fill-rule="evenodd"/><path fill="#000000" d="m585.4094 95.92939l-1.515625 0l0 9.859375l1.609375 0l0 -7.84375q0.046875 -0.140625 0.125 -0.265625q0.09375 -0.140625 0.21875 -0.234375q0.15625 -0.125 0.375 -0.1875q0.21875 -0.078125 0.53125 -0.078125q0.265625 0 0.46875 0.078125q0.203125 0.0625 0.34375 0.203125q0.15625 0.15625 0.21875 0.390625q0.0625 0.234375 0.0625 0.546875l0 7.390625l1.609375 0l0 -7.375q0 -0.0625 0 -0.09375q0 -0.046875 0 -0.09375q0.03125 -0.21875 0.109375 -0.40625q0.078125 -0.1875 0.21875 -0.34375q0.15625 -0.125 0.375 -0.203125q0.21875 -0.09375 0.515625 -0.09375q0.28125 0 0.484375 0.078125q0.21875 0.0625 0.375 0.21875q0.140625 0.15625 0.203125 0.390625q0.078125 0.234375 0.078125 0.546875l0 7.375l1.59375 0l0 -7.359375q0 -0.71875 -0.171875 -1.234375q-0.15625 -0.53125 -0.453125 -0.859375q-0.28125 -0.28125 -0.703125 -0.421875q-0.40625 -0.15625 -0.921875 -0.15625q-0.359375 0 -0.6875 0.09375q-0.3125 0.09375 -0.5625 0.25q-0.203125 0.125 -0.375 0.3125q-0.171875 0.1875 -0.296875 0.390625q-0.109375 -0.21875 -0.25 -0.40625q-0.140625 -0.1875 -0.3125 -0.3125q-0.234375 -0.15625 -0.546875 -0.234375q-0.3125 -0.09375 -0.703125 -0.09375q-0.6875 0 -1.1875 0.296875q-0.484375 0.28125 -0.78125 0.8125l-0.046875 -0.9375zm16.898682 9.859375l1.75 0l0 -0.140625q-0.15625 -0.421875 -0.25 -0.96875q-0.09375 -0.546875 -0.09375 -1.046875l0 -4.578125q0 -0.828125 -0.296875 -1.4375q-0.296875 -0.625 -0.8125 -1.046875q-0.53125 -0.40625 -1.25 -0.609375q-0.71875 -0.203125 -1.5625 -0.203125q-0.921875 0 -1.65625 0.25q-0.71875 0.25 -1.21875 0.65625q-0.5 0.421875 -0.78125 0.953125q-0.265625 0.515625 -0.265625 1.046875l1.6875 0q0 -0.3125 0.140625 -0.59375q0.15625 -0.28125 0.4375 -0.5q0.265625 -0.203125 0.65625 -0.328125q0.40625 -0.140625 0.90625 -0.140625q0.546875 0 0.96875 0.140625q0.4375 0.140625 0.734375 0.390625q0.296875 0.25 0.453125 0.609375q0.171875 0.34375 0.171875 0.796875l0 0.78125l-1.828125 0q-1.03125 0 -1.875 0.203125q-0.828125 0.1875 -1.421875 0.59375q-0.59375 0.40625 -0.921875 1.015625q-0.3125 0.609375 -0.3125 1.421875q0 0.625 0.234375 1.15625q0.25 0.53125 0.6875 0.90625q0.4375 0.40625 1.0625 0.640625q0.640625 0.21875 1.4375 0.21875q0.46875 0 0.890625 -0.109375q0.4375 -0.09375 0.828125 -0.265625q0.375 -0.171875 0.6875 -0.390625q0.3125 -0.234375 0.5625 -0.5q0.03125 0.3125 0.09375 0.609375q0.0625 0.28125 0.15625 0.46875zm-2.984375 -1.28125q-0.484375 0 -0.859375 -0.125q-0.375 -0.140625 -0.625 -0.359375q-0.234375 -0.21875 -0.359375 -0.53125q-0.125 -0.3125 -0.125 -0.671875q0 -0.390625 0.140625 -0.6875q0.140625 -0.296875 0.40625 -0.515625q0.390625 -0.3125 1.03125 -0.453125q0.65625 -0.15625 1.53125 -0.15625l1.5625 0l0 2.0q-0.140625 0.28125 -0.40625 0.5625q-0.25 0.265625 -0.59375 0.46875q-0.34375 0.203125 -0.78125 0.34375q-0.421875 0.125 -0.921875 0.125zm7.6955566 5.078125l1.6875 0l0 -4.75q0.171875 0.203125 0.375 0.375q0.21875 0.171875 0.453125 0.3125q0.390625 0.21875 0.875 0.328125q0.5 0.125 1.0625 0.125q0.921875 0 1.640625 -0.375q0.734375 -0.390625 1.234375 -1.0625q0.484375 -0.6875 0.734375 -1.59375q0.265625 -0.921875 0.265625 -1.96875l0 -0.203125q0 -1.09375 -0.265625 -2.015625q-0.25 -0.9375 -0.734375 -1.59375q-0.5 -0.671875 -1.234375 -1.03125q-0.71875 -0.375 -1.671875 -0.375q-0.53125 0 -1.0 0.109375q-0.46875 0.109375 -0.859375 0.328125q-0.265625 0.140625 -0.515625 0.359375q-0.234375 0.203125 -0.421875 0.453125l-0.09375 -1.078125l-1.53125 0l0 13.65625zm6.640625 -8.8125l0 0.203125q0 0.71875 -0.171875 1.375q-0.15625 0.65625 -0.484375 1.15625q-0.328125 0.5 -0.84375 0.796875q-0.5 0.296875 -1.203125 0.296875q-0.4375 0 -0.796875 -0.109375q-0.359375 -0.109375 -0.640625 -0.3125q-0.265625 -0.15625 -0.46875 -0.390625q-0.1875 -0.234375 -0.34375 -0.515625l0 -4.75q0.171875 -0.296875 0.390625 -0.546875q0.234375 -0.265625 0.53125 -0.4375q0.265625 -0.171875 0.59375 -0.265625q0.328125 -0.09375 0.71875 -0.09375q0.71875 0 1.21875 0.296875q0.515625 0.28125 0.84375 0.78125q0.328125 0.5 0.484375 1.15625q0.171875 0.640625 0.171875 1.359375z" fill-rule="nonzero"/><path fill="#000000" d="m543.924 121.58564l-2.609375 -3.65625l-1.9375 0l3.65625 4.875l-3.765625 4.984375l1.96875 0l2.71875 -3.75l2.734375 3.75l1.9375 0l-3.765625 -4.984375l3.671875 -4.875l-1.96875 0l-2.640625 3.65625zm26.437988 -0.90625l0 -1.46875l-8.125 0l0 1.46875l8.125 0zm0 3.78125l0 -1.453125l-8.125 0l0 1.453125l8.125 0zm3.1174927 1.53125l8.046875 -3.453125l0 -1.328125l-8.046875 -3.4375l0 1.734375l5.890625 2.1875l0.546875 0.171875l-0.546875 0.15625l-5.890625 2.21875l0 1.75zm24.016113 -3.59375l0 0.09375q0 1.3125 0.203125 2.46875q0.203125 1.140625 0.5625 2.109375q0.328125 0.9843674 0.78125 1.7812424q0.453125 0.8125 0.953125 1.4375q0.484375 0.640625 0.984375 1.078125q0.515625 0.453125 0.96875 0.703125l0.359375 -1.03125q-0.375 -0.296875 -0.75 -0.71875q-0.359375 -0.421875 -0.703125 -0.96875q-0.34375 -0.578125 -0.65625 -1.3125q-0.3125 -0.7187424 -0.546875 -1.5624924q-0.21875 -0.84375 -0.34375 -1.828125q-0.125 -1.0 -0.125 -2.140625l0 -0.125q0 -1.1875 0.125 -2.203125q0.140625 -1.03125 0.390625 -1.890625q0.265625 -0.953125 0.640625 -1.75q0.390625 -0.796875 0.796875 -1.390625q0.28125 -0.375 0.578125 -0.6875q0.296875 -0.3125 0.59375 -0.53125l-0.359375 -1.109375q-0.453125 0.25 -0.953125 0.703125q-0.5 0.453125 -1.0 1.078125q-0.5 0.625 -0.953125 1.4375q-0.4375 0.8125 -0.78125 1.78125q-0.359375 0.984375 -0.5625 2.140625q-0.203125 1.140625 -0.203125 2.4375zm13.601807 -0.8125l-2.609375 -3.65625l-1.9375 0l3.65625 4.875l-3.765625 4.984375l1.96875 0l2.71875 -3.75l2.734375 3.75l1.9375 0l-3.765625 -4.984375l3.671875 -4.875l-1.96875 0l-2.640625 3.65625zm11.398743 5.8125l0 -1.609375l-1.828125 0l0 1.640625q0 0.7656174 -0.1875 1.4843674q-0.1875 0.71875 -0.625 1.359375l1.046875 0.578125q0.734375 -0.65625 1.15625 -1.609375q0.4375 -0.9375 0.4375 -1.8437424zm23.578613 0.390625l0 -13.265625l-0.125 0l-5.03125 1.9375l0 1.53125l3.46875 -1.3125l0 11.109375l1.6875 0zm11.883057 -5.296875l0 -0.09375q0 -1.390625 -0.21875 -2.5q-0.203125 -1.125 -0.53125 -2.078125q-0.34375 -0.984375 -0.796875 -1.78125q-0.4375 -0.796875 -0.953125 -1.4375q-0.484375 -0.625 -1.0 -1.078125q-0.515625 -0.453125 -0.96875 -0.703125l-0.34375 1.03125q0.296875 0.25 0.609375 0.609375q0.328125 0.34375 0.625 0.796875q0.390625 0.59375 0.765625 1.390625q0.375 0.796875 0.640625 1.796875q0.171875 0.703125 0.328125 1.71875q0.15625 1.0 0.15625 2.21875l0 0.125q0 1.09375 -0.125 2.046875q-0.109375 0.953125 -0.3125 1.765625q-0.203125 0.890625 -0.53125 1.625q-0.3125 0.7499924 -0.640625 1.3437424q-0.359375 0.578125 -0.75 1.015625q-0.390625 0.453125 -0.765625 0.734375l0.34375 1.03125q0.453125 -0.25 0.953125 -0.703125q0.515625 -0.4375 1.015625 -1.078125q0.5 -0.625 0.9375 -1.4375q0.453125 -0.796875 0.8125 -1.7812424q0.34375 -0.96875 0.546875 -2.109375q0.203125 -1.15625 0.203125 -2.46875z" fill-rule="nonzero"/><path fill="#d5a6bd" d="m759.49603 77.16568l0 0c0 -9.030975 7.321106 -16.352032 16.35205 -16.352032l127.6109 0c4.336853 0 8.496033 1.7227974 11.562622 4.789402c3.0665894 3.066597 4.7894287 7.2257996 4.7894287 11.56263l0 65.40617c0 9.030975 -7.321045 16.352036 -16.35205 16.352036l-127.6109 0c-9.030945 0 -16.35205 -7.32106 -16.35205 -16.352036z" fill-rule="evenodd"/><path stroke="#000000" stroke-width="1.0" stroke-linejoin="round" stroke-linecap="butt" d="m759.49603 77.16568l0 0c0 -9.030975 7.321106 -16.352032 16.35205 -16.352032l127.6109 0c4.336853 0 8.496033 1.7227974 11.562622 4.789402c3.0665894 3.066597 4.7894287 7.2257996 4.7894287 11.56263l0 65.40617c0 9.030975 -7.321045 16.352036 -16.35205 16.352036l-127.6109 0c-9.030945 0 -16.35205 -7.32106 -16.35205 -16.352036z" fill-rule="evenodd"/><path fill="#000000" d="m786.12476 95.757515q-1.078125 0 -1.921875 0.46875q-0.84375 0.46875 -1.4375 1.265625l-0.015625 -0.234375l-0.078125 -1.328125l-1.59375 0l0 9.859375l1.6875 0l0 -6.328125q0.171875 -0.453125 0.421875 -0.8125q0.25 -0.375 0.578125 -0.625q0.375 -0.296875 0.875 -0.4375q0.5 -0.15625 1.125 -0.15625q0.484375 0 0.921875 0.046875q0.453125 0.046875 0.9375 0.15625l0.234375 -1.640625q-0.265625 -0.109375 -0.765625 -0.171875q-0.5 -0.0625 -0.96875 -0.0625zm9.086243 10.21875q1.4375 0 2.421875 -0.578125q0.984375 -0.578125 1.46875 -1.328125l-1.03125 -0.796875q-0.46875 0.59375 -1.171875 0.96875q-0.6875 0.359375 -1.59375 0.359375q-0.6875 0 -1.25 -0.25q-0.5625 -0.265625 -0.96875 -0.71875q-0.390625 -0.40625 -0.609375 -0.953125q-0.21875 -0.546875 -0.28125 -1.265625l0 -0.078125l7.03125 0l0 -0.75q0 -1.03125 -0.265625 -1.90625q-0.25 -0.890625 -0.78125 -1.546875q-0.53125 -0.640625 -1.328125 -1.0q-0.796875 -0.375 -1.859375 -0.375q-0.84375 0 -1.65625 0.34375q-0.796875 0.34375 -1.4375 0.984375q-0.625 0.65625 -1.015625 1.609375q-0.375 0.9375 -0.375 2.125l0 0.390625q0 1.03125 0.34375 1.90625q0.34375 0.875 0.96875 1.5q0.609375 0.640625 1.484375 1.0q0.875 0.359375 1.90625 0.359375zm-0.21875 -8.84375q0.65625 0 1.125 0.234375q0.46875 0.234375 0.765625 0.625q0.3125 0.375 0.484375 0.90625q0.171875 0.515625 0.171875 0.984375l0 0.078125l-5.296875 0q0.09375 -0.6875 0.34375 -1.203125q0.265625 -0.53125 0.625 -0.890625q0.359375 -0.359375 0.8125 -0.546875q0.453125 -0.1875 0.96875 -0.1875zm6.7424316 3.640625l0 0.203125q0 1.046875 0.28125 1.96875q0.28125 0.90625 0.796875 1.59375q0.5 0.671875 1.21875 1.0625q0.734375 0.375 1.625 0.375q0.921875 0 1.59375 -0.3125q0.6875 -0.3125 1.1875 -0.90625l0.0625 1.03125l1.546875 0l0 -14.0l-1.6875 0l0 5.125q-0.46875 -0.578125 -1.140625 -0.859375q-0.65625 -0.296875 -1.546875 -0.296875q-0.890625 0 -1.625 0.375q-0.734375 0.359375 -1.234375 1.03125q-0.515625 0.65625 -0.796875 1.59375q-0.28125 0.921875 -0.28125 2.015625zm1.6875 0.203125l0 -0.203125q0 -0.71875 0.15625 -1.359375q0.15625 -0.65625 0.484375 -1.15625q0.3125 -0.5 0.8125 -0.78125q0.515625 -0.296875 1.21875 -0.296875q0.828125 0 1.375 0.390625q0.5625 0.390625 0.890625 0.984375l0 4.578125q-0.328125 0.640625 -0.890625 1.03125q-0.546875 0.375 -1.390625 0.375q-0.703125 0 -1.203125 -0.28125q-0.5 -0.296875 -0.8125 -0.78125q-0.328125 -0.5 -0.484375 -1.140625q-0.15625 -0.640625 -0.15625 -1.359375zm16.320557 4.8125l1.53125 0l0 -9.859375l-1.6875 0l0 7.078125q-0.140625 0.3125 -0.34375 0.578125q-0.203125 0.265625 -0.484375 0.46875q-0.328125 0.234375 -0.78125 0.375q-0.4375 0.125 -1.0 0.125q-0.484375 0 -0.859375 -0.125q-0.359375 -0.140625 -0.625 -0.453125q-0.25 -0.3125 -0.375 -0.828125q-0.125 -0.53125 -0.125 -1.34375l0 -5.875l-1.6875 0l0 5.859375q0 1.109375 0.234375 1.890625q0.25 0.78125 0.6875 1.296875q0.453125 0.515625 1.078125 0.765625q0.625 0.234375 1.40625 0.234375q0.96875 0 1.703125 -0.40625q0.734375 -0.40625 1.234375 -1.140625l0.09375 1.359375zm8.898682 -1.1875q-0.796875 0 -1.328125 -0.3125q-0.53125 -0.3125 -0.84375 -0.828125q-0.328125 -0.5 -0.46875 -1.125q-0.140625 -0.640625 -0.140625 -1.28125l0 -0.390625q0 -0.625 0.140625 -1.25q0.140625 -0.640625 0.46875 -1.15625q0.328125 -0.5 0.859375 -0.8125q0.53125 -0.3125 1.3125 -0.3125q0.515625 0 0.953125 0.171875q0.4375 0.171875 0.765625 0.484375q0.3125 0.296875 0.5 0.6875q0.1875 0.390625 0.203125 0.84375l1.59375 0q0 -0.75 -0.3125 -1.40625q-0.296875 -0.65625 -0.828125 -1.140625q-0.53125 -0.46875 -1.265625 -0.734375q-0.734375 -0.28125 -1.609375 -0.28125q-1.109375 0 -1.953125 0.40625q-0.84375 0.390625 -1.390625 1.0625q-0.5625 0.6875 -0.859375 1.578125q-0.28125 0.890625 -0.28125 1.859375l0 0.390625q0 0.984375 0.28125 1.875q0.296875 0.875 0.859375 1.5625q0.546875 0.671875 1.390625 1.078125q0.84375 0.40625 1.953125 0.40625q0.78125 0 1.5 -0.265625q0.71875 -0.28125 1.28125 -0.734375q0.5625 -0.4375 0.890625 -1.03125q0.328125 -0.609375 0.34375 -1.265625l-1.59375 0q-0.015625 0.40625 -0.21875 0.765625q-0.203125 0.34375 -0.546875 0.609375q-0.328125 0.265625 -0.765625 0.40625q-0.4375 0.140625 -0.890625 0.140625zm11.351868 1.375q1.4375 0 2.421875 -0.578125q0.984375 -0.578125 1.46875 -1.328125l-1.03125 -0.796875q-0.46875 0.59375 -1.171875 0.96875q-0.6875 0.359375 -1.59375 0.359375q-0.6875 0 -1.25 -0.25q-0.5625 -0.265625 -0.96875 -0.71875q-0.390625 -0.40625 -0.609375 -0.953125q-0.21875 -0.546875 -0.28125 -1.265625l0 -0.078125l7.03125 0l0 -0.75q0 -1.03125 -0.265625 -1.90625q-0.25 -0.890625 -0.78125 -1.546875q-0.53125 -0.640625 -1.328125 -1.0q-0.796875 -0.375 -1.859375 -0.375q-0.84375 0 -1.65625 0.34375q-0.796875 0.34375 -1.4375 0.984375q-0.625 0.65625 -1.015625 1.609375q-0.375 0.9375 -0.375 2.125l0 0.390625q0 1.03125 0.34375 1.90625q0.34375 0.875 0.96875 1.5q0.609375 0.640625 1.484375 1.0q0.875 0.359375 1.90625 0.359375zm-0.21875 -8.84375q0.65625 0 1.125 0.234375q0.46875 0.234375 0.765625 0.625q0.3125 0.375 0.484375 0.90625q0.171875 0.515625 0.171875 0.984375l0 0.078125l-5.296875 0q0.09375 -0.6875 0.34375 -1.203125q0.265625 -0.53125 0.625 -0.890625q0.359375 -0.359375 0.8125 -0.546875q0.453125 -0.1875 0.96875 -0.1875zm7.0393066 8.65625l4.25 0q0.84375 -0.015625 1.640625 -0.265625q0.796875 -0.25 1.40625 -0.734375q0.609375 -0.46875 0.96875 -1.171875q0.375 -0.71875 0.359375 -1.65625q0 -0.59375 -0.171875 -1.09375q-0.171875 -0.515625 -0.5 -0.921875q-0.296875 -0.375 -0.765625 -0.6875q-0.453125 -0.3125 -0.96875 -0.421875l0 -0.03125q0.484375 -0.21875 0.828125 -0.453125q0.34375 -0.234375 0.625 -0.578125q0.28125 -0.34375 0.4375 -0.765625q0.15625 -0.421875 0.171875 -0.953125q0 -0.921875 -0.359375 -1.578125q-0.359375 -0.671875 -0.96875 -1.109375q-0.625 -0.421875 -1.40625 -0.625q-0.78125 -0.203125 -1.59375 -0.21875l-3.953125 0l0 13.265625zm1.703125 -6.203125l2.6875 0q0.53125 0.015625 1.0 0.1875q0.46875 0.15625 0.8125 0.453125q0.34375 0.3125 0.53125 0.75q0.203125 0.4375 0.1875 1.0q0 0.5625 -0.21875 1.0q-0.203125 0.4375 -0.5625 0.734375q-0.375 0.296875 -0.84375 0.46875q-0.46875 0.171875 -1.0 0.171875l-2.59375 0l0 -4.765625zm0 -1.40625l0 -4.21875l2.296875 0q0.5 0.015625 0.96875 0.140625q0.46875 0.109375 0.828125 0.359375q0.359375 0.25 0.5625 0.640625q0.21875 0.390625 0.21875 0.953125q0 0.515625 -0.21875 0.90625q-0.21875 0.390625 -0.578125 0.65625q-0.34375 0.28125 -0.8125 0.421875q-0.453125 0.140625 -0.921875 0.140625l-2.34375 0zm10.304932 11.59375q0.671875 0 1.171875 -0.25q0.515625 -0.25 0.90625 -0.609375q0.375 -0.359375 0.640625 -0.796875q0.265625 -0.421875 0.4375 -0.8125l5.015625 -11.375l-1.890625 0l-2.546875 6.390625l-0.46875 1.15625l-0.4375 -1.1875l-2.703125 -6.359375l-1.875 0l4.234375 9.390625l-0.671875 1.3125q-0.09375 0.1875 -0.25 0.46875q-0.15625 0.28125 -0.375 0.546875q-0.234375 0.265625 -0.515625 0.453125q-0.28125 0.1875 -0.640625 0.1875q-0.125 0 -0.34375 -0.015625q-0.21875 0 -0.453125 -0.03125l-0.265625 1.375q0.15625 0.046875 0.46875 0.09375q0.328125 0.0625 0.5625 0.0625zm13.586182 -10.140625l4.0 6.15625l2.0625 0l-4.953125 -7.453125l4.640625 -5.8125l-2.046875 0l-3.890625 4.875l-1.296875 1.609375l0 -6.484375l-1.71875 0l0 13.265625l1.71875 0l0 -4.484375l1.484375 -1.671875zm12.367493 6.34375q1.4375 0 2.421875 -0.578125q0.984375 -0.578125 1.46875 -1.328125l-1.03125 -0.796875q-0.46875 0.59375 -1.171875 0.96875q-0.6875 0.359375 -1.59375 0.359375q-0.6875 0 -1.25 -0.25q-0.5625 -0.265625 -0.96875 -0.71875q-0.390625 -0.40625 -0.609375 -0.953125q-0.21875 -0.546875 -0.28125 -1.265625l0 -0.078125l7.03125 0l0 -0.75q0 -1.03125 -0.265625 -1.90625q-0.25 -0.890625 -0.78125 -1.546875q-0.53125 -0.640625 -1.328125 -1.0q-0.796875 -0.375 -1.859375 -0.375q-0.84375 0 -1.65625 0.34375q-0.796875 0.34375 -1.4375 0.984375q-0.625 0.65625 -1.015625 1.609375q-0.375 0.9375 -0.375 2.125l0 0.390625q0 1.03125 0.34375 1.90625q0.34375 0.875 0.96875 1.5q0.609375 0.640625 1.484375 1.0q0.875 0.359375 1.90625 0.359375zm-0.21875 -8.84375q0.65625 0 1.125 0.234375q0.46875 0.234375 0.765625 0.625q0.3125 0.375 0.484375 0.90625q0.171875 0.515625 0.171875 0.984375l0 0.078125l-5.296875 0q0.09375 -0.6875 0.34375 -1.203125q0.265625 -0.53125 0.625 -0.890625q0.359375 -0.359375 0.8125 -0.546875q0.453125 -0.1875 0.96875 -0.1875zm7.8518066 12.640625q0.671875 0 1.171875 -0.25q0.515625 -0.25 0.90625 -0.609375q0.375 -0.359375 0.640625 -0.796875q0.265625 -0.421875 0.4375 -0.8125l5.015625 -11.375l-1.890625 0l-2.546875 6.390625l-0.46875 1.15625l-0.4375 -1.1875l-2.703125 -6.359375l-1.875 0l4.234375 9.390625l-0.671875 1.3125q-0.09375 0.1875 -0.25 0.46875q-0.15625 0.28125 -0.375 0.546875q-0.234375 0.265625 -0.515625 0.453125q-0.28125 0.1875 -0.640625 0.1875q-0.125 0 -0.34375 -0.015625q-0.21875 0 -0.453125 -0.03125l-0.265625 1.375q0.15625 0.046875 0.46875 0.09375q0.328125 0.0625 0.5625 0.0625z" fill-rule="nonzero"/><path fill="#000000" d="m806.1253 121.58564l-2.609375 -3.65625l-1.9375 0l3.65625 4.875l-3.765625 4.984375l1.96875 0l2.71875 -3.75l2.734375 3.75l1.9375 0l-3.765625 -4.984375l3.671875 -4.875l-1.96875 0l-2.640625 3.65625zm12.586182 6.203125l0 -13.265625l-0.125 0l-5.03125 1.9375l0 1.53125l3.46875 -1.3125l0 11.109375l1.6875 0zm21.81305 -7.109375l0 -3.875l-1.6875 0l0 3.875l-3.703125 0l0 1.671875l3.703125 0l0 4.109375l1.6875 0l0 -4.109375l3.703125 0l0 -1.671875l-3.703125 0zm21.578613 0.90625l-2.609375 -3.65625l-1.9375 0l3.65625 4.875l-3.765625 4.984375l1.96875 0l2.71875 -3.75l2.734375 3.75l1.9375 0l-3.765625 -4.984375l3.671875 -4.875l-1.96875 0l-2.640625 3.65625zm15.258057 6.203125l0 -1.375l-6.65625 0l3.5625 -3.859375q0.5 -0.546875 0.953125 -1.09375q0.453125 -0.5625 0.796875 -1.125q0.328125 -0.5625 0.53125 -1.140625q0.203125 -0.578125 0.203125 -1.171875q0 -0.796875 -0.28125 -1.46875q-0.28125 -0.671875 -0.796875 -1.15625q-0.515625 -0.5 -1.265625 -0.78125q-0.75 -0.28125 -1.6875 -0.28125q-1.03125 0 -1.828125 0.328125q-0.796875 0.328125 -1.34375 0.890625q-0.546875 0.5625 -0.84375 1.3125q-0.28125 0.734375 -0.28125 1.5625l1.6875 0q0 -0.609375 0.15625 -1.109375q0.15625 -0.515625 0.484375 -0.859375q0.328125 -0.34375 0.8125 -0.53125q0.484375 -0.203125 1.15625 -0.203125q0.546875 0 0.96875 0.1875q0.4375 0.1875 0.75 0.5q0.296875 0.328125 0.453125 0.765625q0.171875 0.421875 0.171875 0.921875q0 0.390625 -0.109375 0.78125q-0.09375 0.375 -0.328125 0.796875q-0.25 0.421875 -0.640625 0.921875q-0.390625 0.5 -0.96875 1.140625l-4.34375 4.828125l0 1.21875l8.6875 0z" fill-rule="nonzero"/><path fill="#d5a6bd" d="m759.49603 251.79692l0 0c0 -9.030991 7.321106 -16.352036 16.35205 -16.352036l127.6109 0c4.336853 0 8.496033 1.7227936 11.562622 4.789398c3.0665894 3.0666046 4.7894287 7.2257996 4.7894287 11.562637l0 65.40617c0 9.030975 -7.321045 16.35202 -16.35205 16.35202l-127.6109 0c-9.030945 0 -16.35205 -7.321045 -16.35205 -16.35202z" fill-rule="evenodd"/><path stroke="#000000" stroke-width="1.0" stroke-linejoin="round" stroke-linecap="butt" d="m759.49603 251.79692l0 0c0 -9.030991 7.321106 -16.352036 16.35205 -16.352036l127.6109 0c4.336853 0 8.496033 1.7227936 11.562622 4.789398c3.0665894 3.0666046 4.7894287 7.2257996 4.7894287 11.562637l0 65.40617c0 9.030975 -7.321045 16.35202 -16.35205 16.35202l-127.6109 0c-9.030945 0 -16.35205 -7.321045 -16.35205 -16.35202z" fill-rule="evenodd"/><path fill="#000000" d="m810.5535 275.99564q0 0.265625 -0.109375 0.515625q-0.09375 0.234375 -0.296875 0.421875q-0.3125 0.328125 -0.890625 0.515625q-0.578125 0.171875 -1.34375 0.171875q-0.484375 0 -0.984375 -0.09375q-0.5 -0.109375 -0.90625 -0.359375q-0.421875 -0.25 -0.703125 -0.65625q-0.265625 -0.40625 -0.3125 -1.0l-1.921875 0q0 0.71875 0.328125 1.390625q0.328125 0.65625 0.953125 1.15625q0.609375 0.515625 1.5 0.828125q0.90625 0.296875 2.046875 0.296875q1.0 0 1.84375 -0.234375q0.84375 -0.234375 1.453125 -0.671875q0.59375 -0.4375 0.921875 -1.046875q0.34375 -0.625 0.34375 -1.375q0 -0.703125 -0.296875 -1.234375q-0.28125 -0.53125 -0.84375 -0.9375q-0.5625 -0.390625 -1.390625 -0.671875q-0.828125 -0.296875 -1.859375 -0.515625q-0.796875 -0.15625 -1.3125 -0.3125q-0.515625 -0.171875 -0.8125 -0.375q-0.3125 -0.21875 -0.4375 -0.46875q-0.125 -0.265625 -0.125 -0.59375q0 -0.328125 0.15625 -0.625q0.15625 -0.3125 0.46875 -0.53125q0.296875 -0.234375 0.75 -0.359375q0.46875 -0.140625 1.09375 -0.140625q0.59375 0 1.0625 0.171875q0.46875 0.15625 0.8125 0.421875q0.328125 0.28125 0.515625 0.625q0.1875 0.34375 0.1875 0.71875l1.921875 0q0 -0.75 -0.3125 -1.390625q-0.3125 -0.640625 -0.90625 -1.109375q-0.578125 -0.484375 -1.421875 -0.75q-0.828125 -0.265625 -1.859375 -0.265625q-0.96875 0 -1.78125 0.265625q-0.8125 0.25 -1.390625 0.6875q-0.578125 0.453125 -0.90625 1.0625q-0.328125 0.59375 -0.328125 1.28125q0 0.6875 0.3125 1.21875q0.3125 0.53125 0.890625 0.90625q0.5625 0.40625 1.359375 0.6875q0.796875 0.28125 1.765625 0.46875q0.796875 0.15625 1.328125 0.359375q0.53125 0.1875 0.84375 0.421875q0.328125 0.21875 0.453125 0.5q0.140625 0.28125 0.140625 0.625zm4.7677 -2.75l0 0.21875q0 1.21875 0.359375 2.265625q0.359375 1.046875 1.015625 1.8125q0.65625 0.765625 1.609375 1.203125q0.953125 0.4375 2.15625 0.4375q1.1875 0 2.125 -0.4375q0.953125 -0.4375 1.625 -1.203125q0.65625 -0.765625 1.0 -1.8125q0.359375 -1.046875 0.359375 -2.265625l0 -0.21875q0 -1.21875 -0.359375 -2.265625q-0.34375 -1.046875 -1.0 -1.828125q-0.671875 -0.765625 -1.625 -1.203125q-0.953125 -0.4375 -2.140625 -0.4375q-1.1875 0 -2.140625 0.4375q-0.953125 0.4375 -1.609375 1.203125q-0.65625 0.78125 -1.015625 1.828125q-0.359375 1.046875 -0.359375 2.265625zm1.9375 0.21875l0 -0.21875q0 -0.828125 0.1875 -1.578125q0.203125 -0.765625 0.609375 -1.328125q0.390625 -0.578125 0.984375 -0.90625q0.59375 -0.34375 1.40625 -0.34375q0.796875 0 1.390625 0.34375q0.609375 0.328125 1.015625 0.90625q0.390625 0.5625 0.59375 1.328125q0.203125 0.75 0.203125 1.578125l0 0.21875q0 0.84375 -0.203125 1.59375q-0.1875 0.75 -0.59375 1.328125q-0.40625 0.578125 -1.0 0.90625q-0.59375 0.328125 -1.390625 0.328125q-0.796875 0 -1.40625 -0.328125q-0.609375 -0.328125 -1.0 -0.90625q-0.40625 -0.578125 -0.609375 -1.328125q-0.1875 -0.75 -0.1875 -1.59375zm18.79895 -5.953125q-1.234375 0 -2.203125 0.53125q-0.953125 0.53125 -1.640625 1.453125l-0.015625 -0.28125l-0.078125 -1.5l-1.84375 0l0 11.265625l1.9375 0l0 -7.234375q0.1875 -0.515625 0.46875 -0.9375q0.296875 -0.421875 0.6875 -0.71875q0.421875 -0.328125 0.984375 -0.5q0.578125 -0.171875 1.296875 -0.171875q0.546875 0 1.046875 0.0625q0.515625 0.046875 1.0625 0.171875l0.265625 -1.875q-0.296875 -0.125 -0.875 -0.1875q-0.5625 -0.078125 -1.09375 -0.078125zm9.970886 -2.53125l-1.9375 0l0 2.734375l-2.953125 0l0 1.484375l2.953125 0l0 6.125q0 1.046875 0.265625 1.78125q0.28125 0.734375 0.765625 1.1875q0.484375 0.46875 1.125 0.6875q0.65625 0.203125 1.40625 0.203125q0.453125 0 0.90625 -0.046875q0.453125 -0.03125 0.859375 -0.109375q0.40625 -0.078125 0.734375 -0.1875q0.34375 -0.109375 0.59375 -0.25l-0.28125 -1.375q-0.171875 0.046875 -0.453125 0.109375q-0.265625 0.046875 -0.578125 0.109375q-0.328125 0.046875 -0.65625 0.09375q-0.328125 0.03125 -0.640625 0.03125q-0.4375 0 -0.8125 -0.109375q-0.375 -0.109375 -0.671875 -0.359375q-0.296875 -0.25 -0.46875 -0.671875q-0.15625 -0.4375 -0.15625 -1.09375l0 -6.125l4.296875 0l0 -1.484375l-4.296875 0l0 -2.734375zm8.220825 14.0l4.84375 0q0.96875 -0.015625 1.875 -0.296875q0.921875 -0.296875 1.625 -0.84375q0.6875 -0.546875 1.09375 -1.359375q0.421875 -0.8125 0.421875 -1.875q0 -0.671875 -0.203125 -1.25q-0.203125 -0.59375 -0.578125 -1.0625q-0.328125 -0.421875 -0.859375 -0.78125q-0.53125 -0.359375 -1.109375 -0.484375l0 -0.03125q0.546875 -0.25 0.9375 -0.515625q0.390625 -0.265625 0.71875 -0.671875q0.3125 -0.375 0.484375 -0.859375q0.1875 -0.5 0.203125 -1.09375q0 -1.0625 -0.421875 -1.8125q-0.40625 -0.765625 -1.09375 -1.25q-0.703125 -0.5 -1.609375 -0.734375q-0.890625 -0.234375 -1.828125 -0.234375l-4.5 0l0 15.15625zm1.9375 -7.09375l3.0625 0q0.625 0.015625 1.15625 0.203125q0.53125 0.1875 0.921875 0.53125q0.390625 0.359375 0.609375 0.859375q0.234375 0.5 0.21875 1.140625q0 0.640625 -0.25 1.140625q-0.234375 0.5 -0.65625 0.84375q-0.40625 0.34375 -0.953125 0.546875q-0.546875 0.1875 -1.140625 0.1875l-2.96875 0l0 -5.453125zm0 -1.609375l0 -4.8125l2.625 0q0.5625 0.015625 1.09375 0.15625q0.546875 0.125 0.96875 0.40625q0.40625 0.296875 0.640625 0.75q0.25 0.4375 0.25 1.078125q0 0.578125 -0.25 1.03125q-0.25 0.453125 -0.65625 0.75q-0.40625 0.3125 -0.9375 0.484375q-0.515625 0.15625 -1.046875 0.15625l-2.6875 0zm11.783325 13.25q0.765625 0 1.34375 -0.28125q0.578125 -0.28125 1.015625 -0.6875q0.4375 -0.421875 0.75 -0.921875q0.3125 -0.484375 0.5 -0.921875l5.71875 -13.0l-2.15625 0l-2.90625 7.3125l-0.53125 1.3125l-0.5 -1.359375l-3.09375 -7.265625l-2.15625 0l4.859375 10.734375l-0.765625 1.5q-0.109375 0.203125 -0.296875 0.53125q-0.171875 0.328125 -0.421875 0.625q-0.265625 0.296875 -0.59375 0.515625q-0.328125 0.21875 -0.71875 0.21875q-0.15625 0 -0.40625 -0.015625q-0.25 -0.015625 -0.515625 -0.03125l-0.3125 1.578125q0.1875 0.03125 0.546875 0.09375q0.375 0.0625 0.640625 0.0625z" fill-rule="nonzero"/><path fill="#000000" d="m820.52435 297.88626l-2.984375 -4.171875l-2.21875 0l4.1875 5.5625l-4.3125 5.703125l2.25 0l3.125 -4.296875l3.109375 4.296875l2.21875 0l-4.296875 -5.703125l4.1875 -5.5625l-2.25 0l-3.015625 4.171875zm14.8927 -8.65625l0 -1.578125l-4.125 0l0 20.578125l4.125 0l0 -1.578125l-2.296875 0l0 -17.421875l2.296875 0zm15.345886 15.75l0 -1.578125l-7.609375 0l4.078125 -4.40625q0.5625 -0.625 1.078125 -1.25q0.515625 -0.640625 0.921875 -1.28125q0.375 -0.65625 0.609375 -1.3125q0.234375 -0.65625 0.234375 -1.328125q0 -0.90625 -0.328125 -1.671875q-0.3125 -0.78125 -0.90625 -1.34375q-0.59375 -0.5625 -1.453125 -0.875q-0.859375 -0.328125 -1.9375 -0.328125q-1.15625 0 -2.078125 0.375q-0.90625 0.375 -1.53125 1.015625q-0.640625 0.640625 -0.96875 1.484375q-0.328125 0.84375 -0.328125 1.8125l1.9375 0q0 -0.71875 0.171875 -1.28125q0.1875 -0.578125 0.5625 -0.984375q0.359375 -0.390625 0.921875 -0.609375q0.5625 -0.21875 1.3125 -0.21875q0.625 0 1.125 0.21875q0.5 0.203125 0.84375 0.5625q0.34375 0.375 0.53125 0.875q0.1875 0.484375 0.1875 1.046875q0 0.453125 -0.125 0.890625q-0.109375 0.421875 -0.375 0.90625q-0.28125 0.484375 -0.734375 1.0625q-0.4375 0.578125 -1.109375 1.3125l-4.96875 5.515625l0 1.390625l9.9375 0zm5.908325 -17.328125l0 1.578125l2.3125 0l0 17.421875l-2.3125 0l0 1.578125l4.140625 0l0 -20.578125l-4.140625 0z" fill-rule="nonzero"/><path fill="#d5a6bd" d="m519.6859 251.79692l0 0c0 -9.030991 7.321045 -16.352036 16.35205 -16.352036l127.6109 0c4.336792 0 8.496033 1.7227936 11.562622 4.789398c3.0665894 3.0666046 4.7893677 7.2257996 4.7893677 11.562637l0 65.40617c0 9.030975 -7.321045 16.35202 -16.35199 16.35202l-127.6109 0c-9.031006 0 -16.35205 -7.321045 -16.35205 -16.35202z" fill-rule="evenodd"/><path stroke="#000000" stroke-width="1.0" stroke-linejoin="round" stroke-linecap="butt" d="m519.6859 251.79692l0 0c0 -9.030991 7.321045 -16.352036 16.35205 -16.352036l127.6109 0c4.336792 0 8.496033 1.7227936 11.562622 4.789398c3.0665894 3.0666046 4.7893677 7.2257996 4.7893677 11.562637l0 65.40617c0 9.030975 -7.321045 16.35202 -16.35199 16.35202l-127.6109 0c-9.031006 0 -16.35205 -7.321045 -16.35205 -16.35202z" fill-rule="evenodd"/><path fill="#000000" d="m583.3481 271.7144l-1.734375 0l0 11.265625l1.828125 0l0 -8.96875q0.0625 -0.171875 0.15625 -0.3125q0.109375 -0.140625 0.25 -0.265625q0.171875 -0.140625 0.421875 -0.21875q0.265625 -0.078125 0.609375 -0.078125q0.3125 0 0.546875 0.078125q0.234375 0.078125 0.390625 0.25q0.15625 0.171875 0.234375 0.453125q0.078125 0.265625 0.078125 0.609375l0 8.453125l1.84375 0l0 -8.4375q0 -0.0625 0 -0.109375q0 -0.046875 0 -0.09375q0.03125 -0.265625 0.125 -0.46875q0.09375 -0.21875 0.25 -0.390625q0.171875 -0.15625 0.421875 -0.25q0.25 -0.09375 0.59375 -0.09375q0.328125 0 0.5625 0.09375q0.25 0.078125 0.421875 0.234375q0.15625 0.1875 0.234375 0.453125q0.078125 0.265625 0.078125 0.625l0 8.4375l1.828125 0l0 -8.421875q0 -0.8125 -0.1875 -1.40625q-0.1875 -0.59375 -0.53125 -0.96875q-0.328125 -0.328125 -0.796875 -0.5q-0.46875 -0.171875 -1.046875 -0.171875q-0.421875 0 -0.78125 0.109375q-0.359375 0.109375 -0.65625 0.28125q-0.234375 0.15625 -0.4375 0.359375q-0.1875 0.203125 -0.328125 0.453125q-0.125 -0.265625 -0.28125 -0.46875q-0.15625 -0.203125 -0.359375 -0.359375q-0.265625 -0.1875 -0.625 -0.28125q-0.359375 -0.09375 -0.8125 -0.09375q-0.796875 0 -1.359375 0.34375q-0.546875 0.328125 -0.890625 0.921875l-0.046875 -1.0625zm19.314575 11.265625l2.0 0l0 -0.171875q-0.1875 -0.46875 -0.296875 -1.09375q-0.09375 -0.625 -0.09375 -1.1875l0 -5.25q0 -0.9375 -0.34375 -1.640625q-0.34375 -0.71875 -0.9375 -1.203125q-0.59375 -0.453125 -1.421875 -0.6875q-0.828125 -0.234375 -1.78125 -0.234375q-1.046875 0 -1.875 0.296875q-0.828125 0.28125 -1.40625 0.75q-0.578125 0.46875 -0.890625 1.0625q-0.3125 0.59375 -0.3125 1.21875l1.9375 0q0 -0.359375 0.171875 -0.6875q0.171875 -0.328125 0.484375 -0.5625q0.3125 -0.25 0.765625 -0.390625q0.453125 -0.140625 1.015625 -0.140625q0.625 0 1.109375 0.15625q0.5 0.15625 0.84375 0.4375q0.34375 0.28125 0.53125 0.6875q0.1875 0.40625 0.1875 0.921875l0 0.890625l-2.109375 0q-1.171875 0 -2.125 0.234375q-0.953125 0.21875 -1.625 0.671875q-0.6875 0.46875 -1.0625 1.171875q-0.359375 0.703125 -0.359375 1.625q0 0.703125 0.265625 1.3125q0.28125 0.609375 0.796875 1.046875q0.5 0.453125 1.21875 0.71875q0.734375 0.25 1.625 0.25q0.546875 0 1.03125 -0.109375q0.5 -0.109375 0.9375 -0.3125q0.421875 -0.203125 0.78125 -0.453125q0.359375 -0.265625 0.65625 -0.5625q0.03125 0.359375 0.09375 0.6875q0.078125 0.328125 0.1875 0.546875zm-3.40625 -1.46875q-0.5625 0 -1.0 -0.140625q-0.421875 -0.15625 -0.703125 -0.40625q-0.28125 -0.25 -0.421875 -0.609375q-0.140625 -0.359375 -0.140625 -0.765625q0 -0.4375 0.15625 -0.78125q0.171875 -0.34375 0.484375 -0.59375q0.4375 -0.359375 1.171875 -0.53125q0.75 -0.171875 1.75 -0.171875l1.796875 0l0 2.28125q-0.171875 0.328125 -0.46875 0.640625q-0.28125 0.3125 -0.671875 0.546875q-0.40625 0.234375 -0.90625 0.390625q-0.484375 0.140625 -1.046875 0.140625zm8.783325 5.796875l1.9375 0l0 -5.40625q0.203125 0.21875 0.4375 0.421875q0.25 0.1875 0.515625 0.34375q0.453125 0.25 1.0 0.375q0.5625 0.140625 1.203125 0.140625q1.0625 0 1.890625 -0.4375q0.828125 -0.4375 1.390625 -1.203125q0.5625 -0.765625 0.84375 -1.8125q0.296875 -1.046875 0.296875 -2.265625l0 -0.21875q0 -1.25 -0.296875 -2.3125q-0.28125 -1.0625 -0.84375 -1.8125q-0.5625 -0.765625 -1.390625 -1.1875q-0.828125 -0.421875 -1.921875 -0.421875q-0.609375 0 -1.15625 0.125q-0.53125 0.125 -0.96875 0.375q-0.3125 0.171875 -0.578125 0.40625q-0.265625 0.234375 -0.5 0.515625l-0.09375 -1.21875l-1.765625 0l0 15.59375zm7.59375 -10.0625l0 0.21875q0 0.828125 -0.1875 1.578125q-0.171875 0.75 -0.546875 1.328125q-0.375 0.5625 -0.96875 0.90625q-0.578125 0.34375 -1.375 0.34375q-0.5 0 -0.921875 -0.125q-0.40625 -0.125 -0.734375 -0.34375q-0.296875 -0.1875 -0.53125 -0.453125q-0.21875 -0.28125 -0.390625 -0.59375l0 -5.421875q0.1875 -0.359375 0.453125 -0.640625q0.265625 -0.296875 0.59375 -0.5q0.296875 -0.203125 0.671875 -0.296875q0.390625 -0.109375 0.84375 -0.109375q0.8125 0 1.390625 0.34375q0.578125 0.328125 0.96875 0.890625q0.375 0.5625 0.546875 1.3125q0.1875 0.75 0.1875 1.5625z" fill-rule="nonzero"/><path fill="#000000" d="m540.8396 298.3456l0 0.078125q0 1.015625 0.15625 1.921875q0.15625 0.90625 0.4375 1.671875q0.25 0.765625 0.609375 1.390625q0.359375 0.640625 0.75 1.140625q0.390625 0.5 0.78125 0.84375q0.40625 0.34375 0.75 0.546875l0.28125 -0.796875q-0.28125 -0.25 -0.578125 -0.578125q-0.296875 -0.328125 -0.5625 -0.765625q-0.265625 -0.453125 -0.515625 -1.015625q-0.234375 -0.5625 -0.421875 -1.234375q-0.171875 -0.65625 -0.28125 -1.4375q-0.09375 -0.78125 -0.09375 -1.671875l0 -0.109375q0 -0.921875 0.109375 -1.734375q0.109375 -0.8125 0.296875 -1.484375q0.203125 -0.734375 0.5 -1.359375q0.3125 -0.625 0.640625 -1.09375q0.21875 -0.296875 0.453125 -0.546875q0.234375 -0.25 0.453125 -0.421875l-0.28125 -0.875q-0.34375 0.203125 -0.75 0.5625q-0.390625 0.34375 -0.78125 0.84375q-0.390625 0.484375 -0.75 1.125q-0.34375 0.640625 -0.609375 1.40625q-0.28125 0.765625 -0.4375 1.671875q-0.15625 0.90625 -0.15625 1.921875zm10.670227 -0.640625l-2.046875 -2.875l-1.53125 0l2.890625 3.828125l-2.96875 3.921875l1.546875 0l2.140625 -2.953125l2.140625 2.953125l1.53125 0l-2.953125 -3.921875l2.875 -3.828125l-1.546875 0l-2.078125 2.875zm8.951416 4.5625l0 -1.25l-1.4375 0l0 1.28125q0 0.609375 -0.140625 1.171875q-0.140625 0.5625 -0.484375 1.0625l0.828125 0.453125q0.5625 -0.515625 0.890625 -1.265625q0.34375 -0.734375 0.34375 -1.453125zm6.076416 3.4375q0.515625 0 0.90625 -0.203125q0.40625 -0.1875 0.71875 -0.46875q0.296875 -0.28125 0.5 -0.625q0.21875 -0.328125 0.34375 -0.640625l3.9375 -8.9375l-1.484375 0l-2.0 5.03125l-0.359375 0.90625l-0.34375 -0.9375l-2.125 -5.0l-1.484375 0l3.34375 7.390625l-0.53125 1.03125q-0.078125 0.140625 -0.203125 0.359375q-0.125 0.21875 -0.296875 0.421875q-0.171875 0.21875 -0.40625 0.359375q-0.21875 0.15625 -0.5 0.15625q-0.09375 0 -0.265625 -0.015625q-0.171875 0 -0.359375 -0.015625l-0.21875 1.078125q0.140625 0.03125 0.390625 0.0625q0.25 0.046875 0.4375 0.046875zm12.998291 -7.28125l0 -0.078125q0 -1.09375 -0.171875 -1.96875q-0.171875 -0.875 -0.421875 -1.625q-0.265625 -0.78125 -0.625 -1.40625q-0.34375 -0.625 -0.75 -1.125q-0.375 -0.5 -0.78125 -0.84375q-0.40625 -0.359375 -0.765625 -0.5625l-0.265625 0.8125q0.234375 0.203125 0.484375 0.484375q0.25 0.265625 0.484375 0.625q0.3125 0.46875 0.59375 1.09375q0.296875 0.625 0.5 1.421875q0.15625 0.546875 0.265625 1.34375q0.125 0.78125 0.125 1.734375l0 0.109375q0 0.84375 -0.09375 1.59375q-0.09375 0.75 -0.25 1.390625q-0.15625 0.703125 -0.40625 1.28125q-0.25 0.578125 -0.515625 1.046875q-0.28125 0.453125 -0.59375 0.796875q-0.296875 0.359375 -0.59375 0.59375l0.265625 0.796875q0.359375 -0.203125 0.75 -0.546875q0.40625 -0.34375 0.796875 -0.84375q0.390625 -0.5 0.734375 -1.140625q0.359375 -0.625 0.640625 -1.390625q0.265625 -0.765625 0.421875 -1.671875q0.171875 -0.90625 0.171875 -1.921875zm19.137268 -1.421875l0 -1.15625l-6.390625 0l0 1.15625l6.390625 0zm0 2.96875l0 -1.140625l-6.390625 0l0 1.140625l6.390625 0zm2.451416 1.203125l6.3125 -2.71875l0 -1.046875l-6.3125 -2.703125l0 1.375l4.625 1.71875l0.421875 0.125l-0.421875 0.125l-4.625 1.75l0 1.375zm18.871643 -2.828125l0 0.078125q0 1.015625 0.15625 1.921875q0.15625 0.90625 0.4375 1.671875q0.25 0.765625 0.609375 1.390625q0.359375 0.640625 0.75 1.140625q0.390625 0.5 0.78125 0.84375q0.40625 0.34375 0.75 0.546875l0.28125 -0.796875q-0.28125 -0.25 -0.578125 -0.578125q-0.296875 -0.328125 -0.5625 -0.765625q-0.265625 -0.453125 -0.515625 -1.015625q-0.234375 -0.5625 -0.421875 -1.234375q-0.171875 -0.65625 -0.28125 -1.4375q-0.09375 -0.78125 -0.09375 -1.671875l0 -0.109375q0 -0.921875 0.109375 -1.734375q0.109375 -0.8125 0.296875 -1.484375q0.203125 -0.734375 0.5 -1.359375q0.3125 -0.625 0.640625 -1.09375q0.21875 -0.296875 0.453125 -0.546875q0.234375 -0.25 0.453125 -0.421875l-0.28125 -0.875q-0.34375 0.203125 -0.75 0.5625q-0.390625 0.34375 -0.78125 0.84375q-0.390625 0.484375 -0.75 1.125q-0.34375 0.640625 -0.609375 1.40625q-0.28125 0.765625 -0.4375 1.671875q-0.15625 0.90625 -0.15625 1.921875zm8.107666 7.359375q0.515625 0 0.90625 -0.203125q0.40625 -0.1875 0.71875 -0.46875q0.296875 -0.28125 0.5 -0.625q0.21875 -0.328125 0.34375 -0.640625l3.9375 -8.9375l-1.484375 0l-2.0 5.03125l-0.359375 0.90625l-0.34375 -0.9375l-2.125 -5.0l-1.484375 0l3.34375 7.390625l-0.53125 1.03125q-0.078125 0.140625 -0.203125 0.359375q-0.125 0.21875 -0.296875 0.421875q-0.171875 0.21875 -0.40625 0.359375q-0.21875 0.15625 -0.5 0.15625q-0.09375 0 -0.265625 -0.015625q-0.171875 0 -0.359375 -0.015625l-0.21875 1.078125q0.140625 0.03125 0.390625 0.0625q0.25 0.046875 0.4375 0.046875zm11.513916 -3.4375l0 -1.25l-1.4375 0l0 1.28125q0 0.609375 -0.140625 1.171875q-0.140625 0.5625 -0.484375 1.0625l0.828125 0.453125q0.5625 -0.515625 0.890625 -1.265625q0.34375 -0.734375 0.34375 -1.453125zm8.638916 -4.5625l-2.046875 -2.875l-1.53125 0l2.890625 3.828125l-2.96875 3.921875l1.546875 0l2.140625 -2.953125l2.140625 2.953125l1.53125 0l-2.953125 -3.921875l2.875 -3.828125l-1.546875 0l-2.078125 2.875zm10.435852 0.71875l0 -0.078125q0 -1.09375 -0.171875 -1.96875q-0.171875 -0.875 -0.421875 -1.625q-0.265625 -0.78125 -0.625 -1.40625q-0.34375 -0.625 -0.75 -1.125q-0.375 -0.5 -0.78125 -0.84375q-0.40625 -0.359375 -0.765625 -0.5625l-0.265625 0.8125q0.234375 0.203125 0.484375 0.484375q0.25 0.265625 0.484375 0.625q0.3125 0.46875 0.59375 1.09375q0.296875 0.625 0.5 1.421875q0.15625 0.546875 0.265625 1.34375q0.125 0.78125 0.125 1.734375l0 0.109375q0 0.84375 -0.09375 1.59375q-0.09375 0.75 -0.25 1.390625q-0.15625 0.703125 -0.40625 1.28125q-0.25 0.578125 -0.515625 1.046875q-0.28125 0.453125 -0.59375 0.796875q-0.296875 0.359375 -0.59375 0.59375l0.265625 0.796875q0.359375 -0.203125 0.75 -0.546875q0.40625 -0.34375 0.796875 -0.84375q0.390625 -0.5 0.734375 -1.140625q0.359375 -0.625 0.640625 -1.390625q0.265625 -0.765625 0.421875 -1.671875q0.171875 -0.90625 0.171875 -1.921875z" fill-rule="nonzero"/><path fill="#d5a6bd" d="m279.87576 251.79692l0 0c0 -9.030991 7.321045 -16.352036 16.35205 -16.352036l127.61087 0c4.336853 0 8.496033 1.7227936 11.562653 4.789398c3.0665894 3.0666046 4.789398 7.2257996 4.789398 11.562637l0 65.40617c0 9.030975 -7.3210754 16.35202 -16.35205 16.35202l-127.61087 0c-9.031006 0 -16.35205 -7.321045 -16.35205 -16.35202z" fill-rule="evenodd"/><path stroke="#000000" stroke-width="1.0" stroke-linejoin="round" stroke-linecap="butt" d="m279.87576 251.79692l0 0c0 -9.030991 7.321045 -16.352036 16.35205 -16.352036l127.61087 0c4.336853 0 8.496033 1.7227936 11.562653 4.789398c3.0665894 3.0666046 4.789398 7.2257996 4.789398 11.562637l0 65.40617c0 9.030975 -7.3210754 16.35202 -16.35205 16.35202l-127.61087 0c-9.031006 0 -16.35205 -7.321045 -16.35205 -16.35202z" fill-rule="evenodd"/><path fill="#000000" d="m346.40494 264.385l-2.046875 0l0 2.90625l-3.140625 0l0 1.578125l3.140625 0l0 6.5q0 1.109375 0.28125 1.890625q0.296875 0.78125 0.8125 1.265625q0.5 0.5 1.1875 0.734375q0.703125 0.21875 1.5 0.21875q0.46875 0 0.953125 -0.046875q0.484375 -0.046875 0.90625 -0.125q0.4375 -0.078125 0.796875 -0.1875q0.375 -0.125 0.625 -0.28125l-0.28125 -1.453125q-0.1875 0.046875 -0.484375 0.109375q-0.296875 0.0625 -0.625 0.125q-0.34375 0.046875 -0.703125 0.09375q-0.34375 0.03125 -0.6875 0.03125q-0.453125 0 -0.859375 -0.109375q-0.390625 -0.109375 -0.703125 -0.390625q-0.3125 -0.265625 -0.5 -0.71875q-0.171875 -0.453125 -0.171875 -1.15625l0 -6.5l4.5625 0l0 -1.578125l-4.5625 0l0 -2.90625zm8.174072 8.78125l0 0.234375q0 1.296875 0.375 2.40625q0.390625 1.109375 1.09375 1.921875q0.6875 0.828125 1.703125 1.296875q1.015625 0.453125 2.28125 0.453125q1.265625 0 2.265625 -0.453125q1.015625 -0.46875 1.71875 -1.296875q0.703125 -0.8125 1.078125 -1.921875q0.375 -1.109375 0.375 -2.40625l0 -0.234375q0 -1.296875 -0.375 -2.40625q-0.375 -1.109375 -1.078125 -1.9375q-0.703125 -0.8125 -1.71875 -1.28125q-1.015625 -0.46875 -2.28125 -0.46875q-1.265625 0 -2.28125 0.46875q-1.0 0.46875 -1.6875 1.28125q-0.703125 0.828125 -1.09375 1.9375q-0.375 1.109375 -0.375 2.40625zm2.046875 0.234375l0 -0.234375q0 -0.875 0.203125 -1.671875q0.21875 -0.8125 0.65625 -1.421875q0.421875 -0.609375 1.046875 -0.96875q0.625 -0.359375 1.484375 -0.359375q0.859375 0 1.484375 0.359375q0.640625 0.359375 1.078125 0.96875q0.40625 0.609375 0.625 1.421875q0.21875 0.796875 0.21875 1.671875l0 0.234375q0 0.890625 -0.21875 1.703125q-0.203125 0.796875 -0.625 1.40625q-0.421875 0.609375 -1.0625 0.96875q-0.640625 0.34375 -1.484375 0.34375q-0.84375 0 -1.484375 -0.34375q-0.640625 -0.359375 -1.0625 -0.96875q-0.4375 -0.609375 -0.65625 -1.40625q-0.203125 -0.8125 -0.203125 -1.703125zm12.111603 10.46875l2.046875 0l0 -5.765625q0.234375 0.25 0.484375 0.453125q0.25 0.203125 0.546875 0.375q0.46875 0.265625 1.0625 0.40625q0.59375 0.140625 1.28125 0.140625q1.125 0 2.0 -0.453125q0.875 -0.46875 1.484375 -1.296875q0.59375 -0.8125 0.90625 -1.921875q0.3125 -1.109375 0.3125 -2.40625l0 -0.21875q0 -1.34375 -0.3125 -2.46875q-0.3125 -1.125 -0.90625 -1.921875q-0.609375 -0.8125 -1.5 -1.265625q-0.875 -0.453125 -2.015625 -0.453125q-0.65625 0 -1.234375 0.140625q-0.5625 0.125 -1.03125 0.390625q-0.328125 0.1875 -0.625 0.4375q-0.28125 0.25 -0.515625 0.546875l-0.109375 -1.296875l-1.875 0l0 16.578125zm8.078125 -10.6875l0 0.21875q0 0.875 -0.203125 1.671875q-0.1875 0.796875 -0.59375 1.40625q-0.390625 0.609375 -1.015625 0.96875q-0.609375 0.359375 -1.46875 0.359375q-0.53125 0 -0.96875 -0.125q-0.4375 -0.140625 -0.796875 -0.375q-0.296875 -0.1875 -0.546875 -0.46875q-0.234375 -0.296875 -0.4375 -0.625l0 -5.765625q0.21875 -0.375 0.484375 -0.6875q0.28125 -0.3125 0.640625 -0.515625q0.328125 -0.21875 0.71875 -0.328125q0.40625 -0.109375 0.890625 -0.109375q0.859375 0 1.46875 0.359375q0.625 0.34375 1.03125 0.9375q0.40625 0.609375 0.59375 1.40625q0.203125 0.796875 0.203125 1.671875z" fill-rule="nonzero"/><path fill="#000000" d="m354.9998 306.26l0 -16.109375l-0.171875 0l-6.09375 2.34375l0 1.875l4.21875 -1.609375l0 13.5l2.046875 0zm17.064697 -6.15625l0 -3.78125q0 -1.53125 -0.359375 -2.71875q-0.34375 -1.1875 -1.0 -2.015625q-0.6875 -0.8125 -1.65625 -1.234375q-0.96875 -0.4375 -2.203125 -0.4375q-1.21875 0 -2.1875 0.4375q-0.96875 0.421875 -1.640625 1.234375q-0.671875 0.828125 -1.03125 2.015625q-0.34375 1.1875 -0.34375 2.71875l0 3.78125q0 1.53125 0.34375 2.71875q0.359375 1.1875 1.03125 2.0q0.671875 0.828125 1.640625 1.25q0.984375 0.40625 2.21875 0.40625q1.234375 0 2.1875 -0.421875q0.96875 -0.421875 1.640625 -1.234375q0.65625 -0.8125 1.0 -2.0q0.359375 -1.1875 0.359375 -2.71875zm-8.375 -0.421875q0 -0.28125 0 -0.546875q0 -0.28125 0 -0.5625l0 -2.703125q0 -1.125 0.21875 -1.984375q0.234375 -0.859375 0.703125 -1.390625q0.390625 -0.4375 0.9375 -0.65625q0.5625 -0.234375 1.296875 -0.234375q0.71875 0 1.265625 0.21875q0.546875 0.203125 0.921875 0.625q0.390625 0.40625 0.609375 1.015625q0.234375 0.609375 0.328125 1.40625l-6.28125 4.8125zm6.328125 0.84375q0 1.1875 -0.25 2.0625q-0.234375 0.875 -0.734375 1.421875q-0.375 0.390625 -0.921875 0.609375q-0.546875 0.203125 -1.234375 0.203125q-0.671875 0 -1.203125 -0.1875q-0.53125 -0.203125 -0.90625 -0.578125q-0.40625 -0.390625 -0.671875 -1.0q-0.25 -0.625 -0.34375 -1.4375l6.265625 -4.78125q0 0.3125 0 0.78125q0 0.46875 0 0.625l0 2.28125z" fill-rule="nonzero"/><path fill="#ea9999" d="m77.38845 284.5l0 0c0 -18.255829 27.532722 -33.055115 61.49607 -33.055115l0 0c33.963333 0 61.496063 14.799286 61.496063 33.055115l0 0c0 18.255829 -27.53273 33.055115 -61.496063 33.055115l0 0c-33.96335 0 -61.49607 -14.799286 -61.49607 -33.055115z" fill-rule="evenodd"/><path stroke="#000000" stroke-width="1.0" stroke-linejoin="round" stroke-linecap="butt" d="m77.38845 284.5l0 0c0 -18.255829 27.532722 -33.055115 61.49607 -33.055115l0 0c33.963333 0 61.496063 14.799286 61.496063 33.055115l0 0c0 18.255829 -27.53273 33.055115 -61.496063 33.055115l0 0c-33.96335 0 -61.49607 -14.799286 -61.49607 -33.055115z" fill-rule="evenodd"/><path fill="#000000" d="m110.080894 285.86813l0 7.171875l-2.3125 0l0 -17.203125l4.859375 0q1.625 0 2.8125 0.34375q1.203125 0.328125 1.96875 0.953125q0.78125 0.625 1.140625 1.5q0.375 0.875 0.375 1.96875q0 0.921875 -0.296875 1.71875q-0.28125 0.78125 -0.828125 1.421875q-0.546875 0.625 -1.328125 1.078125q-0.78125 0.4375 -1.78125 0.65625q0.4375 0.25 0.765625 0.734375l5.015625 6.828125l-2.0625 0q-0.625 0 -0.9375 -0.484375l-4.453125 -6.15625q-0.203125 -0.28125 -0.453125 -0.40625q-0.234375 -0.125 -0.71875 -0.125l-1.765625 0zm0 -1.703125l2.4375 0q1.015625 0 1.78125 -0.234375q0.78125 -0.25 1.296875 -0.703125q0.53125 -0.453125 0.796875 -1.078125q0.265625 -0.625 0.265625 -1.375q0 -1.53125 -1.015625 -2.3125q-1.015625 -0.78125 -3.015625 -0.78125l-2.546875 0l0 6.484375zm17.37799 -3.46875q1.0937576 0 2.0156326 0.375q0.921875 0.359375 1.59375 1.046875q0.671875 0.6875 1.046875 1.703125q0.390625 1.015625 0.390625 2.3125q0 0.5 -0.109375 0.671875q-0.109375 0.15625 -0.40625 0.15625l-8.093758 0q0.03125 1.15625 0.3125 2.015625q0.28125 0.84375 0.78125 1.421875q0.515625 0.5625 1.203125 0.84375q0.703125 0.28125 1.5625 0.28125q0.8125076 0 1.3906326 -0.1875q0.578125 -0.1875 1.0 -0.390625q0.421875 -0.21875 0.703125 -0.40625q0.28125 -0.1875 0.484375 -0.1875q0.265625 0 0.40625 0.203125l0.609375 0.78125q-0.40625 0.484375 -0.953125 0.84375q-0.546875 0.34375 -1.1875 0.578125q-0.625 0.21875 -1.296875 0.328125q-0.671875 0.125 -1.3281326 0.125q-1.265625 0 -2.328125 -0.421875q-1.0625 -0.4375 -1.84375 -1.25q-0.765625 -0.828125 -1.203125 -2.03125q-0.421875 -1.21875 -0.421875 -2.796875q0 -1.265625 0.390625 -2.359375q0.390625 -1.109375 1.109375 -1.921875q0.734375 -0.8125 1.796875 -1.265625q1.0625 -0.46875 2.375 -0.46875zm0.046875 1.5625q-1.546875 0 -2.4375 0.90625q-0.890625 0.890625 -1.09375 2.46875l6.6093826 0q0 -0.734375 -0.203125 -1.359375q-0.203125 -0.625 -0.609375 -1.0625q-0.390625 -0.453125 -0.96875 -0.703125q-0.5625 -0.25 -1.2968826 -0.25zm14.685478 0.625q-0.15625 0.265625 -0.453125 0.265625q-0.171875 0 -0.40625 -0.125q-0.234375 -0.140625 -0.5625 -0.296875q-0.328125 -0.15625 -0.78125 -0.296875q-0.453125 -0.140625 -1.078125 -0.140625q-0.546875 0 -0.984375 0.140625q-0.421875 0.140625 -0.734375 0.375q-0.296875 0.234375 -0.46875 0.5625q-0.15625 0.3125 -0.15625 0.6875q0 0.46875 0.265625 0.78125q0.28125 0.3125 0.71875 0.546875q0.453125 0.21875 1.015625 0.390625q0.5625 0.171875 1.15625 0.375q0.59375 0.1875 1.15625 0.4375q0.5625 0.234375 1.0 0.59375q0.453125 0.359375 0.71875 0.890625q0.265625 0.515625 0.265625 1.25q0 0.84375 -0.296875 1.5625q-0.296875 0.703125 -0.890625 1.234375q-0.578125 0.515625 -1.4375 0.8125q-0.84375 0.296875 -1.96875 0.296875q-1.265625 0 -2.296875 -0.40625q-1.03125 -0.421875 -1.75 -1.0625l0.5 -0.8125q0.09375 -0.15625 0.21875 -0.234375q0.140625 -0.09375 0.359375 -0.09375q0.21875 0 0.453125 0.171875q0.234375 0.15625 0.578125 0.359375q0.34375 0.203125 0.828125 0.375q0.484375 0.171875 1.21875 0.171875q0.625 0 1.09375 -0.15625q0.46875 -0.171875 0.78125 -0.4375q0.3125 -0.28125 0.453125 -0.640625q0.15625 -0.359375 0.15625 -0.765625q0 -0.515625 -0.265625 -0.84375q-0.265625 -0.328125 -0.71875 -0.5625q-0.4375 -0.234375 -1.015625 -0.40625q-0.5625 -0.171875 -1.15625 -0.359375q-0.59375 -0.203125 -1.171875 -0.4375q-0.5625 -0.25 -1.015625 -0.625q-0.4375 -0.375 -0.71875 -0.921875q-0.265625 -0.546875 -0.265625 -1.3125q0 -0.703125 0.28125 -1.34375q0.296875 -0.640625 0.84375 -1.125q0.5625 -0.484375 1.359375 -0.765625q0.8125 -0.296875 1.84375 -0.296875q1.203125 0 2.15625 0.375q0.953125 0.375 1.640625 1.03125l-0.46875 0.78125zm5.2910767 -2.0l0 7.75q0 1.375 0.640625 2.140625q0.640625 0.75 1.921875 0.75q0.9375 0 1.765625 -0.4375q0.828125 -0.453125 1.515625 -1.234375l0 -8.96875l2.140625 0l0 12.15625l-1.265625 0q-0.453125 0 -0.578125 -0.4375l-0.171875 -1.3125q-0.796875 0.875 -1.78125 1.40625q-0.984375 0.53125 -2.25 0.53125q-1.0 0 -1.765625 -0.328125q-0.75 -0.328125 -1.265625 -0.921875q-0.515625 -0.609375 -0.78125 -1.453125q-0.25 -0.859375 -0.25 -1.890625l0 -7.75l2.125 0zm13.875351 -5.515625l0 17.671875l-2.140625 0l0 -17.671875l2.140625 0zm7.456543 17.859375q-1.4375 0 -2.21875 -0.796875q-0.765625 -0.8125 -0.765625 -2.3125l0 -7.453125l-1.46875 0q-0.1875 0 -0.328125 -0.109375q-0.125 -0.109375 -0.125 -0.359375l0 -0.84375l1.984375 -0.25l0.5 -3.765625q0.015625 -0.171875 0.140625 -0.28125q0.140625 -0.125 0.34375 -0.125l1.078125 0l0 4.1875l3.484375 0l0 1.546875l-3.484375 0l0 7.296875q0 0.78125 0.375 1.15625q0.375 0.359375 0.96875 0.359375q0.328125 0 0.578125 -0.078125q0.25 -0.09375 0.421875 -0.203125q0.1875 -0.109375 0.3125 -0.203125q0.125 -0.09375 0.21875 -0.09375q0.171875 0 0.296875 0.203125l0.625 1.03125q-0.546875 0.515625 -1.328125 0.8125q-0.78125 0.28125 -1.609375 0.28125z" fill-rule="nonzero"/><path fill="#6aa84f" d="m226.47507 99.1601l13.653549 0l0 -10.708656l13.653534 21.41732l-13.653534 21.41732l0 -10.708656l-13.653549 0z" fill-rule="evenodd"/><path stroke="#000000" stroke-width="1.0" stroke-linejoin="round" stroke-linecap="butt" d="m226.47507 99.1601l13.653549 0l0 -10.708656l13.653534 21.41732l-13.653534 21.41732l0 -10.708656l-13.653549 0z" fill-rule="evenodd"/><path fill="#6aa84f" d="m466.2848 99.1601l13.653534 0l0 -10.708656l13.653534 21.41732l-13.653534 21.41732l0 -10.708656l-13.653534 0z" fill-rule="evenodd"/><path stroke="#000000" stroke-width="1.0" stroke-linejoin="round" stroke-linecap="butt" d="m466.2848 99.1601l13.653534 0l0 -10.708656l13.653534 21.41732l-13.653534 21.41732l0 -10.708656l-13.653534 0z" fill-rule="evenodd"/><path fill="#6aa84f" d="m706.0932 99.1601l13.653503 0l0 -10.708656l13.653564 21.41732l-13.653564 21.41732l0 -10.708656l-13.653503 0z" fill-rule="evenodd"/><path stroke="#000000" stroke-width="1.0" stroke-linejoin="round" stroke-linecap="butt" d="m706.0932 99.1601l13.653503 0l0 -10.708656l13.653564 21.41732l-13.653564 21.41732l0 -10.708656l-13.653503 0z" fill-rule="evenodd"/><path fill="#6aa84f" d="m850.3609 177.16536l0 13.653534l10.708679 0l-21.417358 13.653549l-21.417297 -13.653549l10.708618 0l0 -13.653534z" fill-rule="evenodd"/><path stroke="#000000" stroke-width="1.0" stroke-linejoin="round" stroke-linecap="butt" d="m850.3609 177.16536l0 13.653534l10.708679 0l-21.417358 13.653549l-21.417297 -13.653549l10.708618 0l0 -13.653534z" fill-rule="evenodd"/><path fill="#6aa84f" d="m733.40027 295.20996l-13.653564 0l0 10.708679l-13.653503 -21.417328l13.653503 -21.417328l0 10.708679l13.653564 0z" fill-rule="evenodd"/><path stroke="#000000" stroke-width="1.0" stroke-linejoin="round" stroke-linecap="butt" d="m733.40027 295.20996l-13.653564 0l0 10.708679l-13.653503 -21.417328l13.653503 -21.417328l0 10.708679l13.653564 0z" fill-rule="evenodd"/><path fill="#6aa84f" d="m493.59055 295.20996l-13.653534 0l0 10.708679l-13.653534 -21.417328l13.653534 -21.417328l0 10.708679l13.653534 0z" fill-rule="evenodd"/><path stroke="#000000" stroke-width="1.0" stroke-linejoin="round" stroke-linecap="butt" d="m493.59055 295.20996l-13.653534 0l0 10.708679l-13.653534 -21.417328l13.653534 -21.417328l0 10.708679l13.653534 0z" fill-rule="evenodd"/><path fill="#6aa84f" d="m253.78215 295.20996l-13.653534 0l0 10.708679l-13.653549 -21.417328l13.653549 -21.417328l0 10.708679l13.653534 0z" fill-rule="evenodd"/><path stroke="#000000" stroke-width="1.0" stroke-linejoin="round" stroke-linecap="butt" d="m253.78215 295.20996l-13.653534 0l0 10.708679l-13.653549 -21.417328l13.653549 -21.417328l0 10.708679l13.653534 0z" fill-rule="evenodd"/></g></svg>