<svg version="1.1" viewBox="0.0 0.0 830.5564304461942 413.20472440944883" fill="none" stroke="none" stroke-linecap="square" stroke-miterlimit="10" xmlns:xlink="http://www.w3.org/1999/xlink" xmlns="http://www.w3.org/2000/svg"><clipPath id="p.0"><path d="m0 0l830.55646 0l0 413.2047l-830.55646 0l0 -413.2047z" clip-rule="nonzero"/></clipPath><g clip-path="url(#p.0)"><path fill="#000000" fill-opacity="0.0" d="m0 0l830.55646 0l0 413.2047l-830.55646 0z" fill-rule="evenodd"/><path fill="#88d19d" d="m17.510498 21.569984l0 0c0 -11.912773 9.657211 -21.569984 21.569984 -21.569984l158.27734 0c5.7207184 0 11.207123 2.2725456 15.252289 6.3177023c4.0451508 4.0451574 6.3177032 9.531568 6.3177032 15.252282l0 86.27735c0 11.912773 -9.657211 21.569992 -21.569992 21.569992l-158.27734 0c-11.912773 0 -21.569984 -9.657219 -21.569984 -21.569992z" fill-rule="evenodd"/><path stroke="#44546a" stroke-width="1.0" stroke-linejoin="round" stroke-linecap="butt" d="m17.510498 21.569984l0 0c0 -11.912773 9.657211 -21.569984 21.569984 -21.569984l158.27734 0c5.7207184 0 11.207123 2.2725456 15.252289 6.3177023c4.0451508 4.0451574 6.3177032 9.531568 6.3177032 15.252282l0 86.27735c0 11.912773 -9.657211 21.569992 -21.569992 21.569992l-158.27734 0c-11.912773 0 -21.569984 -9.657219 -21.569984 -21.569992z" fill-rule="evenodd"/><path fill="#000000" d="m78.44377 53.718037q0 0.359375 -0.046875 0.625q-0.03125 0.25 -0.125 0.4375q-0.09375 0.171875 -0.234375 0.25q-0.125 0.078125 -0.28125 0.078125l-12.125 0q-0.453125 0 -0.859375 -0.296875q-0.390625 -0.3125 -0.390625 -1.078125l0 -22.531252q0 -0.765625 0.390625 -1.0625q0.40625 -0.3125 0.859375 -0.3125l12.0 0q0.15625 0 0.28125 0.078125q0.125 0.078125 0.203125 0.265625q0.078125 0.171875 0.125 0.4375q0.046875 0.265625 0.046875 0.65625q0 0.34375 -0.046875 0.609375q-0.046875 0.2656269 -0.125 0.4375019q-0.078125 0.15625 -0.203125 0.234375q-0.125 0.078125 -0.28125 0.078125l-9.890625 0l0 7.9375l8.484375 0q0.15625 0 0.28125 0.09375q0.125 0.078125 0.203125 0.234375q0.09375 0.15625 0.125 0.4375q0.046875 0.265625 0.046875 0.640625q0 0.34375 -0.046875 0.609375q-0.03125 0.25 -0.125 0.40625q-0.078125 0.15625 -0.203125 0.21875q-0.125 0.0625 -0.28125 0.0625l-8.484375 0l0 9.046875l10.015625 0q0.15625 0 0.28125 0.078125q0.140625 0.078125 0.234375 0.25q0.09375 0.15625 0.125 0.421875q0.046875 0.265625 0.046875 0.65625zm20.234375 0.90625q0 0.15625 -0.078125 0.265625q-0.078125 0.09375 -0.25 0.1875q-0.171875 0.078125 -0.484375 0.109375q-0.3125 0.046875 -0.78125 0.046875q-0.5 0 -0.8125 -0.046875q-0.3125 -0.03125 -0.484375 -0.109375q-0.171875 -0.09375 -0.25 -0.1875q-0.078125 -0.109375 -0.078125 -0.265625l0 -10.296875q0 -1.5 -0.234375 -2.421875q-0.234375 -0.921875 -0.6875 -1.578125q-0.453125 -0.671875 -1.171875 -1.015625q-0.703125 -0.359375 -1.640625 -0.359375q-1.203125 0 -2.421875 0.859375q-1.203125 0.859375 -2.53125 2.515625l0 12.296875q0 0.15625 -0.078125 0.265625q-0.078125 0.09375 -0.265625 0.1875q-0.171875 0.078125 -0.484375 0.109375q-0.3125 0.046875 -0.796875 0.046875q-0.46875 0 -0.78125 -0.046875q-0.3125 -0.03125 -0.5 -0.109375q-0.1875 -0.09375 -0.265625 -0.1875q-0.0625 -0.109375 -0.0625 -0.265625l0 -17.578125q0 -0.15625 0.0625 -0.265625q0.0625 -0.109375 0.234375 -0.1875q0.171875 -0.09375 0.4375 -0.125q0.28125 -0.03125 0.734375 -0.03125q0.4375 0 0.71875 0.03125q0.28125 0.03125 0.4375 0.125q0.15625 0.078125 0.21875 0.1875q0.078125 0.109375 0.078125 0.265625l0 2.3125q1.484375 -1.65625 2.953125 -2.421875q1.46875 -0.78125 2.984375 -0.78125q1.75 0 2.953125 0.609375q1.203125 0.59375 1.9375 1.59375q0.75 0.984375 1.0625 2.328125q0.328125 1.328125 0.328125 3.203125l0 10.734375zm20.5625 -16.78125q0 0.6875 -0.1875 0.984375q-0.171875 0.296875 -0.46875 0.296875l-2.515625 0q0.671875 0.703125 0.9375 1.5625q0.28125 0.84375 0.28125 1.765625q0 1.515625 -0.484375 2.6875q-0.484375 1.171875 -1.390625 1.984375q-0.90625 0.8125 -2.15625 1.25q-1.25 0.421875 -2.78125 0.421875q-1.078125 0 -2.046875 -0.28125q-0.953125 -0.28125 -1.484375 -0.71875q-0.359375 0.359375 -0.578125 0.8125q-0.21875 0.4375 -0.21875 1.03125q0 0.6875 0.625 1.140625q0.640625 0.4375 1.6875 0.484375l4.59375 0.1875q1.3125 0.046875 2.40625 0.375q1.09375 0.3125 1.890625 0.90625q0.796875 0.59375 1.25 1.46875q0.453125 0.859375 0.453125 2.015625q0 1.21875 -0.515625 2.3125q-0.5 1.09375 -1.546875 1.921875q-1.046875 0.828125 -2.671875 1.296875q-1.609375 0.484375 -3.828125 0.484375q-2.125 0 -3.625 -0.359375q-1.484375 -0.359375 -2.453125 -0.984375q-0.953125 -0.625 -1.390625 -1.5q-0.421875 -0.859375 -0.421875 -1.875q0 -0.640625 0.15625 -1.25q0.15625 -0.609375 0.484375 -1.15625q0.328125 -0.546875 0.796875 -1.046875q0.484375 -0.5 1.109375 -0.984375q-0.953125 -0.484375 -1.421875 -1.21875q-0.453125 -0.75 -0.453125 -1.609375q0 -1.203125 0.484375 -2.140625q0.484375 -0.9375 1.21875 -1.671875q-0.609375 -0.71875 -0.96875 -1.625q-0.34375 -0.921875 -0.34375 -2.203125q0 -1.5 0.5 -2.6875q0.515625 -1.203125 1.40625 -2.015625q0.90625 -0.828125 2.15625 -1.265625q1.265625 -0.4375 2.75 -0.4375q0.796875 0 1.484375 0.09375q0.703125 0.078125 1.3125 0.234375l5.3125 0q0.328125 0 0.484375 0.328125q0.171875 0.3125 0.171875 0.984375zm-5.03125 4.625q0 -1.796875 -0.984375 -2.796875q-0.984375 -1.015625 -2.8125 -1.015625q-0.9375 0 -1.625 0.3125q-0.6875 0.3125 -1.15625 0.859375q-0.453125 0.546875 -0.6875 1.265625q-0.21875 0.71875 -0.21875 1.5q0 1.734375 0.984375 2.734375q0.984375 0.984375 2.765625 0.984375q0.953125 0 1.65625 -0.296875q0.703125 -0.296875 1.15625 -0.828125q0.46875 -0.546875 0.6875 -1.25q0.234375 -0.703125 0.234375 -1.46875zm1.625 13.9375q0 -1.140625 -0.9375 -1.75q-0.921875 -0.625 -2.5 -0.65625l-4.5625 -0.15625q-0.625 0.484375 -1.03125 0.921875q-0.390625 0.4375 -0.625 0.84375q-0.234375 0.40625 -0.328125 0.796875q-0.078125 0.390625 -0.078125 0.796875q0 1.265625 1.28125 1.921875q1.296875 0.65625 3.59375 0.65625q1.46875 0 2.453125 -0.28125q0.984375 -0.28125 1.59375 -0.75q0.609375 -0.46875 0.875 -1.078125q0.265625 -0.609375 0.265625 -1.265625zm10.78125 -1.78125q0 0.15625 -0.078125 0.265625q-0.078125 0.09375 -0.265625 0.1875q-0.171875 0.078125 -0.484375 0.109375q-0.3125 0.046875 -0.796875 0.046875q-0.46875 0 -0.78125 -0.046875q-0.3125 -0.03125 -0.5 -0.109375q-0.1875 -0.09375 -0.265625 -0.1875q-0.0625 -0.109375 -0.0625 -0.265625l0 -26.093752q0 -0.15625 0.0625 -0.265625q0.078125 -0.125 0.265625 -0.203125q0.1875 -0.078125 0.5 -0.109375q0.3125 -0.046875 0.78125 -0.046875q0.484375 0 0.796875 0.046875q0.3125 0.03125 0.484375 0.109375q0.1875 0.078125 0.265625 0.203125q0.078125 0.109375 0.078125 0.265625l0 26.093752zm9.1796875 0q0 0.15625 -0.078125 0.265625q-0.078125 0.09375 -0.265625 0.1875q-0.171875 0.078125 -0.484375 0.109375q-0.3125 0.046875 -0.796875 0.046875q-0.46875 0 -0.78125 -0.046875q-0.3125 -0.03125 -0.5 -0.109375q-0.1875 -0.09375 -0.265625 -0.1875q-0.0625 -0.109375 -0.0625 -0.265625l0 -17.578125q0 -0.140625 0.0625 -0.25q0.078125 -0.125 0.265625 -0.203125q0.1875 -0.078125 0.5 -0.109375q0.3125 -0.046875 0.78125 -0.046875q0.484375 0 0.796875 0.046875q0.3125 0.03125 0.484375 0.109375q0.1875 0.078125 0.265625 0.203125q0.078125 0.109375 0.078125 0.25l0 17.578125zm0.359375 -23.515627q0 1.1250019 -0.4375 1.5468769q-0.421875 0.40625 -1.5625 0.40625q-1.140625 0 -1.5625 -0.40625q-0.421875 -0.40625 -0.421875 -1.5156269q0 -1.125 0.421875 -1.53125q0.4375 -0.421875 1.59375 -0.421875q1.140625 0 1.546875 0.40625q0.421875 0.390625 0.421875 1.515625zm16.632797 18.718752q0 1.359375 -0.5 2.421875q-0.49998474 1.046875 -1.4218597 1.765625q-0.921875 0.71875 -2.1875 1.09375q-1.265625 0.375 -2.796875 0.375q-0.9375 0 -1.78125 -0.15625q-0.84375 -0.140625 -1.53125 -0.359375q-0.671875 -0.234375 -1.140625 -0.46875q-0.46875 -0.25 -0.6875 -0.4375q-0.203125 -0.203125 -0.3125 -0.546875q-0.09375 -0.359375 -0.09375 -0.96875q0 -0.375 0.03125 -0.625q0.046875 -0.25 0.109375 -0.40625q0.0625 -0.15625 0.171875 -0.21875q0.109375 -0.078125 0.234375 -0.078125q0.21875 0 0.640625 0.265625q0.421875 0.265625 1.03125 0.578125q0.625 0.3125 1.453125 0.578125q0.84375 0.265625 1.9375 0.265625q0.828125 0 1.484375 -0.171875q0.671875 -0.1875 1.15625 -0.53125q0.484375 -0.34375 0.75 -0.859375q0.265625 -0.53125 0.265625 -1.25q0 -0.75 -0.390625 -1.25q-0.375 -0.515625 -1.0 -0.90625q-0.625 -0.390625 -1.40625 -0.6875q-0.78125 -0.3125 -1.609375 -0.640625q-0.828125 -0.328125 -1.625 -0.75q-0.78125 -0.421875 -1.40625 -1.015625q-0.625 -0.609375 -1.015625 -1.453125q-0.375 -0.84375 -0.375 -2.015625q0 -1.03125 0.390625 -1.96875q0.40625 -0.953125 1.203125 -1.671875q0.8125 -0.71875 2.0 -1.140625q1.203125 -0.4375 2.8125 -0.4375q0.703125 0 1.40625 0.125q0.703125 0.109375 1.265625 0.296875q0.5625 0.171875 0.96875 0.375q0.40625 0.203125 0.609375 0.359375q0.203125 0.15625 0.265625 0.28125q0.078125 0.109375 0.09375 0.265625q0.03125 0.140625 0.06248474 0.359375q0.03125 0.203125 0.03125 0.515625q0 0.34375 -0.03125 0.59375q-0.031234741 0.234375 -0.09373474 0.390625q-0.0625 0.15625 -0.171875 0.234375q-0.09375 0.0625 -0.203125 0.0625q-0.1875 0 -0.515625 -0.21875q-0.328125 -0.21875 -0.859375 -0.453125q-0.53125 -0.25 -1.25 -0.46875q-0.703125 -0.21875 -1.625 -0.21875q-0.8125 0 -1.4375 0.1875q-0.625 0.1875 -1.03125 0.53125q-0.390625 0.34375 -0.609375 0.8125q-0.203125 0.46875 -0.203125 1.015625q0 0.765625 0.390625 1.28125q0.390625 0.515625 1.015625 0.90625q0.625 0.390625 1.421875 0.703125q0.8125 0.3125 1.640625 0.640625q0.828125 0.328125 1.640625 0.75q0.8125 0.40625 1.4375 1.0q0.62498474 0.578125 0.99998474 1.40625q0.390625 0.8125 0.390625 1.9375zm19.738281 4.796875q0 0.15625 -0.078125 0.265625q-0.078125 0.09375 -0.25 0.1875q-0.171875 0.078125 -0.484375 0.109375q-0.3125 0.046875 -0.78125 0.046875q-0.5 0 -0.8125 -0.046875q-0.3125 -0.03125 -0.484375 -0.109375q-0.171875 -0.09375 -0.25 -0.1875q-0.078125 -0.109375 -0.078125 -0.265625l0 -10.296875q0 -1.5 -0.234375 -2.421875q-0.234375 -0.921875 -0.6875 -1.578125q-0.453125 -0.671875 -1.171875 -1.015625q-0.703125 -0.359375 -1.640625 -0.359375q-1.203125 0 -2.421875 0.859375q-1.203125 0.859375 -2.53125 2.515625l0 12.296875q0 0.15625 -0.078125 0.265625q-0.078125 0.09375 -0.265625 0.1875q-0.171875 0.078125 -0.484375 0.109375q-0.3125 0.046875 -0.796875 0.046875q-0.46875 0 -0.78125 -0.046875q-0.3125 -0.03125 -0.5 -0.109375q-0.1875 -0.09375 -0.265625 -0.1875q-0.0625 -0.109375 -0.0625 -0.265625l0 -26.093752q0 -0.15625 0.0625 -0.265625q0.078125 -0.125 0.265625 -0.203125q0.1875 -0.078125 0.5 -0.109375q0.3125 -0.046875 0.78125 -0.046875q0.484375 0 0.796875 0.046875q0.3125 0.03125 0.484375 0.109375q0.1875 0.078125 0.265625 0.203125q0.078125 0.109375 0.078125 0.265625l0 10.515627q1.375 -1.453125 2.78125 -2.171875q1.40625 -0.71875 2.84375 -0.71875q1.75 0 2.953125 0.609375q1.203125 0.59375 1.9375 1.59375q0.75 0.984375 1.0625 2.328125q0.328125 1.328125 0.328125 3.234375l0 10.703125z" fill-rule="nonzero"/><path fill="#000000" d="m103.28166 90.09304q0 3.28125 -0.84375 5.734375q-0.84375 2.453125 -2.453125 4.0625q-1.609375 1.609375 -3.953125 2.421875q-2.34375 0.796875 -5.578125 0.796875l-5.359375 0q-0.453125 0 -0.859375 -0.296875q-0.390625 -0.3125 -0.390625 -1.078125l0 -22.53125q0 -0.765625 0.390625 -1.0625q0.40625 -0.3125 0.859375 -0.3125l5.71875 0q3.28125 0 5.546875 0.859375q2.265625 0.84375 3.796875 2.4375q1.546875 1.59375 2.328125 3.859375q0.796875 2.265625 0.796875 5.109375zm-3.53125 0.140625q0 -2.046875 -0.515625 -3.8125q-0.5 -1.765625 -1.59375 -3.046875q-1.078125 -1.296875 -2.75 -2.015625q-1.65625 -0.734375 -4.265625 -0.734375l-3.421875 0l0 19.671875l3.453125 0q2.421875 0 4.078125 -0.609375q1.671875 -0.609375 2.78125 -1.859375q1.109375 -1.25 1.671875 -3.125q0.5625 -1.890625 0.5625 -4.46875zm21.578125 12.40625q0 0.234375 -0.15625 0.359375q-0.15625 0.109375 -0.4375 0.171875q-0.265625 0.0625 -0.796875 0.0625q-0.5 0 -0.8125 -0.0625q-0.296875 -0.0625 -0.4375 -0.171875q-0.140625 -0.125 -0.140625 -0.359375l0 -1.765625q-1.140625 1.234375 -2.5625 1.921875q-1.421875 0.6875 -3.0 0.6875q-1.390625 0 -2.515625 -0.375q-1.109375 -0.359375 -1.90625 -1.03125q-0.796875 -0.6875 -1.234375 -1.6875q-0.4375 -1.0 -0.4375 -2.265625q0 -1.484375 0.609375 -2.578125q0.609375 -1.09375 1.734375 -1.8125q1.140625 -0.71875 2.78125 -1.078125q1.640625 -0.375 3.6875 -0.375l2.421875 0l0 -1.359375q0 -1.015625 -0.21875 -1.796875q-0.21875 -0.78125 -0.703125 -1.296875q-0.46875 -0.515625 -1.234375 -0.78125q-0.75 -0.265625 -1.875 -0.265625q-1.1875 0 -2.140625 0.28125q-0.9375 0.28125 -1.65625 0.625q-0.703125 0.34375 -1.1875 0.625q-0.484375 0.28125 -0.71875 0.28125q-0.15625 0 -0.28125 -0.078125q-0.109375 -0.078125 -0.203125 -0.234375q-0.078125 -0.15625 -0.125 -0.390625q-0.03125 -0.25 -0.03125 -0.546875q0 -0.484375 0.0625 -0.765625q0.078125 -0.28125 0.34375 -0.53125q0.265625 -0.265625 0.90625 -0.609375q0.640625 -0.34375 1.484375 -0.625q0.84375 -0.28125 1.828125 -0.46875q1.0 -0.1875 2.015625 -0.1875q1.890625 0 3.21875 0.4375q1.328125 0.421875 2.140625 1.265625q0.828125 0.828125 1.203125 2.0625q0.375 1.21875 0.375 2.859375l0 11.859375zm-3.203125 -8.03125l-2.75 0q-1.328125 0 -2.3125 0.234375q-0.96875 0.21875 -1.625 0.65625q-0.640625 0.4375 -0.953125 1.0625q-0.296875 0.609375 -0.296875 1.40625q0 1.375 0.875 2.1875q0.875 0.796875 2.4375 0.796875q1.265625 0 2.34375 -0.640625q1.09375 -0.640625 2.28125 -1.96875l0 -3.734375zm17.882812 6.71875q0 0.5625 -0.078125 0.90625q-0.078125 0.328125 -0.234375 0.484375q-0.15625 0.15625 -0.46875 0.296875q-0.3125 0.140625 -0.71875 0.21875q-0.390625 0.09375 -0.84375 0.140625q-0.4375 0.0625 -0.890625 0.0625q-1.375 0 -2.359375 -0.359375q-0.96875 -0.359375 -1.59375 -1.09375q-0.625 -0.734375 -0.90625 -1.859375q-0.28125 -1.125 -0.28125 -2.640625l0 -10.28125l-2.453125 0q-0.296875 0 -0.484375 -0.3125q-0.171875 -0.3125 -0.171875 -1.015625q0 -0.359375 0.046875 -0.609375q0.0625 -0.265625 0.140625 -0.421875q0.078125 -0.171875 0.203125 -0.234375q0.125 -0.078125 0.28125 -0.078125l2.4375 0l0 -4.171875q0 -0.140625 0.0625 -0.25q0.078125 -0.125 0.265625 -0.203125q0.1875 -0.09375 0.5 -0.125q0.3125 -0.046875 0.78125 -0.046875q0.484375 0 0.796875 0.046875q0.3125 0.03125 0.484375 0.125q0.171875 0.078125 0.25 0.203125q0.078125 0.109375 0.078125 0.25l0 4.171875l4.515625 0q0.15625 0 0.265625 0.078125q0.125 0.0625 0.203125 0.234375q0.09375 0.15625 0.125 0.421875q0.046875 0.25 0.046875 0.609375q0 0.703125 -0.171875 1.015625q-0.171875 0.3125 -0.46875 0.3125l-4.515625 0l0 9.8125q0 1.8125 0.53125 2.75q0.546875 0.921875 1.9375 0.921875q0.453125 0 0.796875 -0.078125q0.359375 -0.09375 0.625 -0.1875q0.28125 -0.109375 0.46875 -0.1875q0.203125 -0.09375 0.359375 -0.09375q0.09375 0 0.171875 0.046875q0.09375 0.046875 0.140625 0.1875q0.046875 0.140625 0.078125 0.375q0.046875 0.234375 0.046875 0.578125zm17.019516 1.3125q0 0.234375 -0.15625 0.359375q-0.15625 0.109375 -0.4375 0.171875q-0.265625 0.0625 -0.79685974 0.0625q-0.5 0 -0.8125 -0.0625q-0.296875 -0.0625 -0.4375 -0.171875q-0.140625 -0.125 -0.140625 -0.359375l0 -1.765625q-1.140625 1.234375 -2.5625 1.921875q-1.421875 0.6875 -3.0 0.6875q-1.390625 0 -2.515625 -0.375q-1.109375 -0.359375 -1.90625 -1.03125q-0.796875 -0.6875 -1.234375 -1.6875q-0.4375 -1.0 -0.4375 -2.265625q0 -1.484375 0.609375 -2.578125q0.609375 -1.09375 1.734375 -1.8125q1.140625 -0.71875 2.78125 -1.078125q1.640625 -0.375 3.6875 -0.375l2.421875 0l0 -1.359375q0 -1.015625 -0.21875 -1.796875q-0.21875 -0.78125 -0.703125 -1.296875q-0.46875 -0.515625 -1.234375 -0.78125q-0.75 -0.265625 -1.875 -0.265625q-1.1875 0 -2.140625 0.28125q-0.9375 0.28125 -1.65625 0.625q-0.703125 0.34375 -1.1875 0.625q-0.484375 0.28125 -0.71875 0.28125q-0.15625 0 -0.28125 -0.078125q-0.109375 -0.078125 -0.203125 -0.234375q-0.078125 -0.15625 -0.125 -0.390625q-0.03125 -0.25 -0.03125 -0.546875q0 -0.484375 0.0625 -0.765625q0.078125 -0.28125 0.34375 -0.53125q0.265625 -0.265625 0.90625 -0.609375q0.640625 -0.34375 1.484375 -0.625q0.84375 -0.28125 1.828125 -0.46875q1.0 -0.1875 2.015625 -0.1875q1.890625 0 3.21875 0.4375q1.328125 0.421875 2.140625 1.265625q0.82810974 0.828125 1.2031097 2.0625q0.375 1.21875 0.375 2.859375l0 11.859375zm-3.2031097 -8.03125l-2.75 0q-1.328125 0 -2.3125 0.234375q-0.96875 0.21875 -1.625 0.65625q-0.640625 0.4375 -0.953125 1.0625q-0.296875 0.609375 -0.296875 1.40625q0 1.375 0.875 2.1875q0.875 0.796875 2.4375 0.796875q1.265625 0 2.34375 -0.640625q1.09375 -0.640625 2.28125 -1.96875l0 -3.734375z" fill-rule="nonzero"/><path fill="#88d19d" d="m17.510498 272.05554l0 0c0 -11.912781 9.657211 -21.569977 21.569984 -21.569977l158.27734 0c5.7207184 0 11.207123 2.2725372 15.252289 6.317688c4.0451508 4.045166 6.3177032 9.531586 6.3177032 15.252289l0 86.277374c0 11.91275 -9.657211 21.569977 -21.569992 21.569977l-158.27734 0c-11.912773 0 -21.569984 -9.657227 -21.569984 -21.569977z" fill-rule="evenodd"/><path stroke="#44546a" stroke-width="1.0" stroke-linejoin="round" stroke-linecap="butt" d="m17.510498 272.05554l0 0c0 -11.912781 9.657211 -21.569977 21.569984 -21.569977l158.27734 0c5.7207184 0 11.207123 2.2725372 15.252289 6.317688c4.0451508 4.045166 6.3177032 9.531586 6.3177032 15.252289l0 86.277374c0 11.91275 -9.657211 21.569977 -21.569992 21.569977l-158.27734 0c-11.912773 0 -21.569984 -9.657227 -21.569984 -21.569977z" fill-rule="evenodd"/><path fill="#000000" d="m66.22307 320.2505q0 2.3125 -0.671875 4.125q-0.671875 1.796875 -1.921875 3.046875q-1.25 1.25 -3.046875 1.90625q-1.796875 0.640625 -4.078125 0.640625q-2.09375 0 -3.8125 -0.609375q-1.71875 -0.609375 -2.953125 -1.78125q-1.21875 -1.1875 -1.890625 -2.96875q-0.65625 -1.78125 -0.65625 -4.09375l0 -15.6875q0 -0.15625 0.078125 -0.265625q0.078125 -0.125 0.265625 -0.1875q0.203125 -0.078125 0.515625 -0.125q0.3125 -0.046875 0.8125 -0.046875q0.46875 0 0.796875 0.046875q0.34375 0.046875 0.515625 0.125q0.1875 0.0625 0.265625 0.1875q0.078125 0.109375 0.078125 0.265625l0 15.265625q0 1.765625 0.421875 3.078125q0.4375 1.296875 1.25 2.171875q0.8125 0.875 1.953125 1.3125q1.140625 0.4375 2.578125 0.4375q1.453125 0 2.59375 -0.421875q1.15625 -0.4375 1.9375 -1.296875q0.796875 -0.859375 1.21875 -2.125q0.421875 -1.28125 0.421875 -2.96875l0 -15.453125q0 -0.15625 0.078125 -0.265625q0.078125 -0.125 0.265625 -0.1875q0.203125 -0.078125 0.515625 -0.125q0.328125 -0.046875 0.8125 -0.046875q0.46875 0 0.78125 0.046875q0.328125 0.046875 0.515625 0.125q0.1875 0.0625 0.265625 0.1875q0.09375 0.109375 0.09375 0.265625l0 15.421875zm23.523438 8.828125q0 0.15625 -0.0625 0.28125q-0.0625 0.109375 -0.265625 0.203125q-0.1875 0.078125 -0.546875 0.109375q-0.34375 0.046875 -0.921875 0.046875q-0.515625 0 -0.84375 -0.046875q-0.3125 -0.03125 -0.515625 -0.125q-0.1875 -0.09375 -0.296875 -0.25q-0.109375 -0.15625 -0.1875 -0.390625l-2.3125 -5.953125q-0.421875 -1.015625 -0.859375 -1.859375q-0.4375 -0.859375 -1.046875 -1.46875q-0.59375 -0.625 -1.421875 -0.953125q-0.8125 -0.34375 -1.96875 -0.34375l-2.25 0l0 10.75q0 0.15625 -0.09375 0.28125q-0.078125 0.109375 -0.265625 0.1875q-0.1875 0.0625 -0.515625 0.109375q-0.3125 0.0625 -0.796875 0.0625q-0.5 0 -0.828125 -0.0625q-0.3125 -0.046875 -0.515625 -0.109375q-0.1875 -0.078125 -0.265625 -0.1875q-0.078125 -0.125 -0.078125 -0.28125l0 -23.390625q0 -0.765625 0.390625 -1.0625q0.40625 -0.3125 0.859375 -0.3125l5.375 0q0.953125 0 1.578125 0.0625q0.640625 0.046875 1.15625 0.09375q1.46875 0.265625 2.578125 0.8125q1.125 0.546875 1.890625 1.390625q0.765625 0.828125 1.140625 1.921875q0.390625 1.078125 0.390625 2.390625q0 1.265625 -0.34375 2.28125q-0.34375 1.0 -1.0 1.765625q-0.640625 0.765625 -1.546875 1.34375q-0.890625 0.5625 -2.0 0.953125q0.625 0.265625 1.125 0.6875q0.515625 0.421875 0.953125 1.015625q0.4375 0.578125 0.828125 1.34375q0.390625 0.765625 0.78125 1.71875l2.265625 5.5625q0.28125 0.703125 0.359375 0.984375q0.078125 0.28125 0.078125 0.4375zm-5.0625 -17.75q0 -1.484375 -0.671875 -2.5q-0.65625 -1.03125 -2.21875 -1.484375q-0.484375 -0.140625 -1.109375 -0.1875q-0.609375 -0.0625 -1.609375 -0.0625l-2.828125 0l0 8.515625l3.28125 0q1.328125 0 2.296875 -0.3125q0.96875 -0.328125 1.609375 -0.90625q0.640625 -0.578125 0.9375 -1.359375q0.3125 -0.78125 0.3125 -1.703125zm23.03125 16.796875q0 0.390625 -0.046875 0.65625q-0.03125 0.265625 -0.125 0.453125q-0.078125 0.1875 -0.21875 0.28125q-0.125 0.078125 -0.296875 0.078125l-11.171875 0q-0.453125 0 -0.859375 -0.296875q-0.390625 -0.3125 -0.390625 -1.078125l0 -23.390625q0 -0.15625 0.078125 -0.265625q0.078125 -0.125 0.265625 -0.1875q0.203125 -0.078125 0.53125 -0.125q0.34375 -0.046875 0.8125 -0.046875q0.484375 0 0.796875 0.046875q0.328125 0.046875 0.515625 0.125q0.203125 0.0625 0.28125 0.1875q0.078125 0.109375 0.078125 0.265625l0 21.859375l9.0625 0q0.171875 0 0.296875 0.09375q0.140625 0.078125 0.21875 0.25q0.09375 0.15625 0.125 0.4375q0.046875 0.265625 0.046875 0.65625zm32.1875 -11.546875q0 3.28125 -0.84375 5.734375q-0.84375 2.453125 -2.453125 4.0625q-1.609375 1.609375 -3.953125 2.421875q-2.34375 0.796875 -5.578125 0.796875l-5.359375 0q-0.453125 0 -0.859375 -0.296875q-0.390625 -0.3125 -0.390625 -1.078125l0 -22.53125q0 -0.765625 0.390625 -1.0625q0.40625 -0.3125 0.859375 -0.3125l5.71875 0q3.28125 0 5.546875 0.859375q2.265625 0.84375 3.796875 2.4375q1.546875 1.59375 2.328125 3.859375q0.796875 2.265625 0.796875 5.109375zm-3.53125 0.140625q0 -2.046875 -0.515625 -3.8125q-0.5 -1.765625 -1.59375 -3.046875q-1.078125 -1.296875 -2.75 -2.015625q-1.65625 -0.734375 -4.265625 -0.734375l-3.421875 0l0 19.671875l3.453125 0q2.421875 0 4.078125 -0.609375q1.671875 -0.609375 2.78125 -1.859375q1.109375 -1.25 1.671875 -3.125q0.5625 -1.890625 0.5625 -4.46875zm21.57811 12.40625q0 0.234375 -0.15625 0.359375q-0.15625 0.109375 -0.4375 0.171875q-0.265625 0.0625 -0.796875 0.0625q-0.5 0 -0.8125 -0.0625q-0.296875 -0.0625 -0.4375 -0.171875q-0.140625 -0.125 -0.140625 -0.359375l0 -1.765625q-1.140625 1.234375 -2.5625 1.921875q-1.4218597 0.6875 -2.9999847 0.6875q-1.390625 0 -2.515625 -0.375q-1.109375 -0.359375 -1.90625 -1.03125q-0.796875 -0.6875 -1.234375 -1.6875q-0.4375 -1.0 -0.4375 -2.265625q0 -1.484375 0.609375 -2.578125q0.609375 -1.09375 1.734375 -1.8125q1.140625 -0.71875 2.78125 -1.078125q1.640625 -0.375 3.6874847 -0.375l2.421875 0l0 -1.359375q0 -1.015625 -0.21875 -1.796875q-0.21875 -0.78125 -0.703125 -1.296875q-0.46875 -0.515625 -1.234375 -0.78125q-0.75 -0.265625 -1.8749847 -0.265625q-1.1875 0 -2.140625 0.28125q-0.9375 0.28125 -1.65625 0.625q-0.703125 0.34375 -1.1875 0.625q-0.484375 0.28125 -0.71875 0.28125q-0.15625 0 -0.28125 -0.078125q-0.109375 -0.078125 -0.203125 -0.234375q-0.078125 -0.15625 -0.125 -0.390625q-0.03125 -0.25 -0.03125 -0.546875q0 -0.484375 0.0625 -0.765625q0.078125 -0.28125 0.34375 -0.53125q0.265625 -0.265625 0.90625 -0.609375q0.640625 -0.34375 1.484375 -0.625q0.84375 -0.28125 1.828125 -0.46875q1.0 -0.1875 2.015625 -0.1875q1.8906097 0 3.2187347 0.4375q1.328125 0.421875 2.140625 1.265625q0.828125 0.828125 1.203125 2.0625q0.375 1.21875 0.375 2.859375l0 11.859375zm-3.203125 -8.03125l-2.75 0q-1.3281097 0 -2.3124847 0.234375q-0.96875 0.21875 -1.625 0.65625q-0.640625 0.4375 -0.953125 1.0625q-0.296875 0.609375 -0.296875 1.40625q0 1.375 0.875 2.1875q0.875 0.796875 2.4375 0.796875q1.265625 0 2.3437347 -0.640625q1.09375 -0.640625 2.28125 -1.96875l0 -3.734375zm17.882812 6.71875q0 0.5625 -0.078125 0.90625q-0.078125 0.328125 -0.234375 0.484375q-0.15625 0.15625 -0.46875 0.296875q-0.3125 0.140625 -0.71875 0.21875q-0.390625 0.09375 -0.84375 0.140625q-0.4375 0.0625 -0.890625 0.0625q-1.375 0 -2.359375 -0.359375q-0.96875 -0.359375 -1.59375 -1.09375q-0.625 -0.734375 -0.90625 -1.859375q-0.28125 -1.125 -0.28125 -2.640625l0 -10.28125l-2.453125 0q-0.296875 0 -0.484375 -0.3125q-0.171875 -0.3125 -0.171875 -1.015625q0 -0.359375 0.046875 -0.609375q0.0625 -0.265625 0.140625 -0.421875q0.078125 -0.171875 0.203125 -0.234375q0.125 -0.078125 0.28125 -0.078125l2.4375 0l0 -4.171875q0 -0.140625 0.0625 -0.25q0.078125 -0.125 0.265625 -0.203125q0.1875 -0.09375 0.5 -0.125q0.3125 -0.046875 0.78125 -0.046875q0.484375 0 0.796875 0.046875q0.3125 0.03125 0.484375 0.125q0.171875 0.078125 0.25 0.203125q0.078125 0.109375 0.078125 0.25l0 4.171875l4.515625 0q0.15625 0 0.265625 0.078125q0.125 0.0625 0.203125 0.234375q0.09375 0.15625 0.125 0.421875q0.046875 0.25 0.046875 0.609375q0 0.703125 -0.171875 1.015625q-0.171875 0.3125 -0.46875 0.3125l-4.515625 0l0 9.8125q0 1.8125 0.53125 2.75q0.546875 0.921875 1.9375 0.921875q0.453125 0 0.796875 -0.078125q0.359375 -0.09375 0.625 -0.1875q0.28125 -0.109375 0.46875 -0.1875q0.203125 -0.09375 0.359375 -0.09375q0.09375 0 0.171875 0.046875q0.09375 0.046875 0.140625 0.1875q0.046875 0.140625 0.078125 0.375q0.046875 0.234375 0.046875 0.578125zm17.019531 1.3125q0 0.234375 -0.15625 0.359375q-0.15625 0.109375 -0.4375 0.171875q-0.265625 0.0625 -0.796875 0.0625q-0.5 0 -0.8125 -0.0625q-0.296875 -0.0625 -0.4375 -0.171875q-0.140625 -0.125 -0.140625 -0.359375l0 -1.765625q-1.140625 1.234375 -2.5625 1.921875q-1.421875 0.6875 -3.0 0.6875q-1.390625 0 -2.515625 -0.375q-1.109375 -0.359375 -1.90625 -1.03125q-0.796875 -0.6875 -1.234375 -1.6875q-0.4375 -1.0 -0.4375 -2.265625q0 -1.484375 0.609375 -2.578125q0.609375 -1.09375 1.734375 -1.8125q1.140625 -0.71875 2.78125 -1.078125q1.640625 -0.375 3.6875 -0.375l2.421875 0l0 -1.359375q0 -1.015625 -0.21875 -1.796875q-0.21875 -0.78125 -0.703125 -1.296875q-0.46875 -0.515625 -1.234375 -0.78125q-0.75 -0.265625 -1.875 -0.265625q-1.1875 0 -2.140625 0.28125q-0.9375 0.28125 -1.65625 0.625q-0.703125 0.34375 -1.1875 0.625q-0.484375 0.28125 -0.71875 0.28125q-0.15625 0 -0.28125 -0.078125q-0.109375 -0.078125 -0.203125 -0.234375q-0.078125 -0.15625 -0.125 -0.390625q-0.03125 -0.25 -0.03125 -0.546875q0 -0.484375 0.0625 -0.765625q0.078125 -0.28125 0.34375 -0.53125q0.265625 -0.265625 0.90625 -0.609375q0.640625 -0.34375 1.484375 -0.625q0.84375 -0.28125 1.828125 -0.46875q1.0 -0.1875 2.015625 -0.1875q1.890625 0 3.21875 0.4375q1.328125 0.421875 2.140625 1.265625q0.828125 0.828125 1.203125 2.0625q0.375 1.21875 0.375 2.859375l0 11.859375zm-3.203125 -8.03125l-2.75 0q-1.328125 0 -2.3125 0.234375q-0.96875 0.21875 -1.625 0.65625q-0.640625 0.4375 -0.953125 1.0625q-0.296875 0.609375 -0.296875 1.40625q0 1.375 0.875 2.1875q0.875 0.796875 2.4375 0.796875q1.265625 0 2.34375 -0.640625q1.09375 -0.640625 2.28125 -1.96875l0 -3.734375z" fill-rule="nonzero"/><path fill="#cfc498" d="m599.7808 21.569984l0 0c0 -11.912773 9.657227 -21.569984 21.570007 -21.569984l158.27734 0c5.720703 0 11.207153 2.2725456 15.252258 6.3177023c4.045166 4.0451574 6.317749 9.531568 6.317749 15.252282l0 86.27735c0 11.912773 -9.657227 21.569992 -21.570007 21.569992l-158.27734 0c-11.912781 0 -21.570007 -9.657219 -21.570007 -21.569992z" fill-rule="evenodd"/><path stroke="#44546a" stroke-width="1.0" stroke-linejoin="round" stroke-linecap="butt" d="m599.7808 21.569984l0 0c0 -11.912773 9.657227 -21.569984 21.570007 -21.569984l158.27734 0c5.720703 0 11.207153 2.2725456 15.252258 6.3177023c4.045166 4.0451574 6.317749 9.531568 6.317749 15.252282l0 86.27735c0 11.912773 -9.657227 21.569992 -21.570007 21.569992l-158.27734 0c-11.912781 0 -21.570007 -9.657219 -21.570007 -21.569992z" fill-rule="evenodd"/><path fill="#000000" d="m660.7141 53.718037q0 0.359375 -0.046875 0.625q-0.03125 0.25 -0.125 0.4375q-0.09375 0.171875 -0.234375 0.25q-0.125 0.078125 -0.28125 0.078125l-12.125 0q-0.453125 0 -0.859375 -0.296875q-0.390625 -0.3125 -0.390625 -1.078125l0 -22.531252q0 -0.765625 0.390625 -1.0625q0.40625 -0.3125 0.859375 -0.3125l12.0 0q0.15625 0 0.28125 0.078125q0.125 0.078125 0.203125 0.265625q0.078125 0.171875 0.125 0.4375q0.046875 0.265625 0.046875 0.65625q0 0.34375 -0.046875 0.609375q-0.046875 0.2656269 -0.125 0.4375019q-0.078125 0.15625 -0.203125 0.234375q-0.125 0.078125 -0.28125 0.078125l-9.890625 0l0 7.9375l8.484375 0q0.15625 0 0.28125 0.09375q0.125 0.078125 0.203125 0.234375q0.09375 0.15625 0.125 0.4375q0.046875 0.265625 0.046875 0.640625q0 0.34375 -0.046875 0.609375q-0.03125 0.25 -0.125 0.40625q-0.078125 0.15625 -0.203125 0.21875q-0.125 0.0625 -0.28125 0.0625l-8.484375 0l0 9.046875l10.015625 0q0.15625 0 0.28125 0.078125q0.140625 0.078125 0.234375 0.25q0.09375 0.15625 0.125 0.421875q0.046875 0.265625 0.046875 0.65625zm20.234375 0.90625q0 0.15625 -0.078125 0.265625q-0.078125 0.09375 -0.25 0.1875q-0.171875 0.078125 -0.484375 0.109375q-0.3125 0.046875 -0.78125 0.046875q-0.5 0 -0.8125 -0.046875q-0.3125 -0.03125 -0.484375 -0.109375q-0.171875 -0.09375 -0.25 -0.1875q-0.078125 -0.109375 -0.078125 -0.265625l0 -10.296875q0 -1.5 -0.234375 -2.421875q-0.234375 -0.921875 -0.6875 -1.578125q-0.453125 -0.671875 -1.171875 -1.015625q-0.703125 -0.359375 -1.640625 -0.359375q-1.203125 0 -2.421875 0.859375q-1.203125 0.859375 -2.53125 2.515625l0 12.296875q0 0.15625 -0.078125 0.265625q-0.078125 0.09375 -0.265625 0.1875q-0.171875 0.078125 -0.484375 0.109375q-0.3125 0.046875 -0.796875 0.046875q-0.46875 0 -0.78125 -0.046875q-0.3125 -0.03125 -0.5 -0.109375q-0.1875 -0.09375 -0.265625 -0.1875q-0.0625 -0.109375 -0.0625 -0.265625l0 -17.578125q0 -0.15625 0.0625 -0.265625q0.0625 -0.109375 0.234375 -0.1875q0.171875 -0.09375 0.4375 -0.125q0.28125 -0.03125 0.734375 -0.03125q0.4375 0 0.71875 0.03125q0.28125 0.03125 0.4375 0.125q0.15625 0.078125 0.21875 0.1875q0.078125 0.109375 0.078125 0.265625l0 2.3125q1.484375 -1.65625 2.953125 -2.421875q1.46875 -0.78125 2.984375 -0.78125q1.75 0 2.953125 0.609375q1.203125 0.59375 1.9375 1.59375q0.75 0.984375 1.0625 2.328125q0.328125 1.328125 0.328125 3.203125l0 10.734375zm20.5625 -16.78125q0 0.6875 -0.1875 0.984375q-0.171875 0.296875 -0.46875 0.296875l-2.515625 0q0.671875 0.703125 0.9375 1.5625q0.28125 0.84375 0.28125 1.765625q0 1.515625 -0.484375 2.6875q-0.484375 1.171875 -1.390625 1.984375q-0.90625 0.8125 -2.15625 1.25q-1.25 0.421875 -2.78125 0.421875q-1.078125 0 -2.046875 -0.28125q-0.953125 -0.28125 -1.484375 -0.71875q-0.359375 0.359375 -0.578125 0.8125q-0.21875 0.4375 -0.21875 1.03125q0 0.6875 0.625 1.140625q0.640625 0.4375 1.6875 0.484375l4.59375 0.1875q1.3125 0.046875 2.40625 0.375q1.09375 0.3125 1.890625 0.90625q0.796875 0.59375 1.25 1.46875q0.453125 0.859375 0.453125 2.015625q0 1.21875 -0.515625 2.3125q-0.5 1.09375 -1.546875 1.921875q-1.046875 0.828125 -2.671875 1.296875q-1.609375 0.484375 -3.828125 0.484375q-2.125 0 -3.625 -0.359375q-1.484375 -0.359375 -2.453125 -0.984375q-0.953125 -0.625 -1.390625 -1.5q-0.421875 -0.859375 -0.421875 -1.875q0 -0.640625 0.15625 -1.25q0.15625 -0.609375 0.484375 -1.15625q0.328125 -0.546875 0.796875 -1.046875q0.484375 -0.5 1.109375 -0.984375q-0.953125 -0.484375 -1.421875 -1.21875q-0.453125 -0.75 -0.453125 -1.609375q0 -1.203125 0.484375 -2.140625q0.484375 -0.9375 1.21875 -1.671875q-0.609375 -0.71875 -0.96875 -1.625q-0.34375 -0.921875 -0.34375 -2.203125q0 -1.5 0.5 -2.6875q0.515625 -1.203125 1.40625 -2.015625q0.90625 -0.828125 2.15625 -1.265625q1.265625 -0.4375 2.75 -0.4375q0.796875 0 1.484375 0.09375q0.703125 0.078125 1.3125 0.234375l5.3125 0q0.328125 0 0.484375 0.328125q0.171875 0.3125 0.171875 0.984375zm-5.03125 4.625q0 -1.796875 -0.984375 -2.796875q-0.984375 -1.015625 -2.8125 -1.015625q-0.9375 0 -1.625 0.3125q-0.6875 0.3125 -1.15625 0.859375q-0.453125 0.546875 -0.6875 1.265625q-0.21875 0.71875 -0.21875 1.5q0 1.734375 0.984375 2.734375q0.984375 0.984375 2.765625 0.984375q0.953125 0 1.65625 -0.296875q0.703125 -0.296875 1.15625 -0.828125q0.46875 -0.546875 0.6875 -1.25q0.234375 -0.703125 0.234375 -1.46875zm1.625 13.9375q0 -1.140625 -0.9375 -1.75q-0.921875 -0.625 -2.5 -0.65625l-4.5625 -0.15625q-0.625 0.484375 -1.03125 0.921875q-0.390625 0.4375 -0.625 0.84375q-0.234375 0.40625 -0.328125 0.796875q-0.078125 0.390625 -0.078125 0.796875q0 1.265625 1.28125 1.921875q1.296875 0.65625 3.59375 0.65625q1.46875 0 2.453125 -0.28125q0.984375 -0.28125 1.59375 -0.75q0.609375 -0.46875 0.875 -1.078125q0.265625 -0.609375 0.265625 -1.265625zm10.78125 -1.78125q0 0.15625 -0.078125 0.265625q-0.078125 0.09375 -0.265625 0.1875q-0.171875 0.078125 -0.484375 0.109375q-0.3125 0.046875 -0.796875 0.046875q-0.46875 0 -0.78125 -0.046875q-0.3125 -0.03125 -0.5 -0.109375q-0.1875 -0.09375 -0.265625 -0.1875q-0.0625 -0.109375 -0.0625 -0.265625l0 -26.093752q0 -0.15625 0.0625 -0.265625q0.078125 -0.125 0.265625 -0.203125q0.1875 -0.078125 0.5 -0.109375q0.3125 -0.046875 0.78125 -0.046875q0.484375 0 0.796875 0.046875q0.3125 0.03125 0.484375 0.109375q0.1875 0.078125 0.265625 0.203125q0.078125 0.109375 0.078125 0.265625l0 26.093752zm9.1796875 0q0 0.15625 -0.078125 0.265625q-0.078125 0.09375 -0.265625 0.1875q-0.171875 0.078125 -0.484375 0.109375q-0.3125 0.046875 -0.796875 0.046875q-0.46875 0 -0.78125 -0.046875q-0.3125 -0.03125 -0.5 -0.109375q-0.1875 -0.09375 -0.265625 -0.1875q-0.0625 -0.109375 -0.0625 -0.265625l0 -17.578125q0 -0.140625 0.0625 -0.25q0.078125 -0.125 0.265625 -0.203125q0.1875 -0.078125 0.5 -0.109375q0.3125 -0.046875 0.78125 -0.046875q0.484375 0 0.796875 0.046875q0.3125 0.03125 0.484375 0.109375q0.1875 0.078125 0.265625 0.203125q0.078125 0.109375 0.078125 0.25l0 17.578125zm0.359375 -23.515627q0 1.1250019 -0.4375 1.5468769q-0.421875 0.40625 -1.5625 0.40625q-1.140625 0 -1.5625 -0.40625q-0.421875 -0.40625 -0.421875 -1.5156269q0 -1.125 0.421875 -1.53125q0.4375 -0.421875 1.59375 -0.421875q1.140625 0 1.546875 0.40625q0.421875 0.390625 0.421875 1.515625zm16.632812 18.718752q0 1.359375 -0.5 2.421875q-0.5 1.046875 -1.421875 1.765625q-0.921875 0.71875 -2.1875 1.09375q-1.265625 0.375 -2.796875 0.375q-0.9375 0 -1.78125 -0.15625q-0.84375 -0.140625 -1.53125 -0.359375q-0.671875 -0.234375 -1.140625 -0.46875q-0.46875 -0.25 -0.6875 -0.4375q-0.203125 -0.203125 -0.3125 -0.546875q-0.09375 -0.359375 -0.09375 -0.96875q0 -0.375 0.03125 -0.625q0.046875 -0.25 0.109375 -0.40625q0.0625 -0.15625 0.171875 -0.21875q0.109375 -0.078125 0.234375 -0.078125q0.21875 0 0.640625 0.265625q0.421875 0.265625 1.03125 0.578125q0.625 0.3125 1.453125 0.578125q0.84375 0.265625 1.9375 0.265625q0.828125 0 1.484375 -0.171875q0.671875 -0.1875 1.15625 -0.53125q0.484375 -0.34375 0.75 -0.859375q0.265625 -0.53125 0.265625 -1.25q0 -0.75 -0.390625 -1.25q-0.375 -0.515625 -1.0 -0.90625q-0.625 -0.390625 -1.40625 -0.6875q-0.78125 -0.3125 -1.609375 -0.640625q-0.828125 -0.328125 -1.625 -0.75q-0.78125 -0.421875 -1.40625 -1.015625q-0.625 -0.609375 -1.015625 -1.453125q-0.375 -0.84375 -0.375 -2.015625q0 -1.03125 0.390625 -1.96875q0.40625 -0.953125 1.203125 -1.671875q0.8125 -0.71875 2.0 -1.140625q1.203125 -0.4375 2.8125 -0.4375q0.703125 0 1.40625 0.125q0.703125 0.109375 1.265625 0.296875q0.5625 0.171875 0.96875 0.375q0.40625 0.203125 0.609375 0.359375q0.203125 0.15625 0.265625 0.28125q0.078125 0.109375 0.09375 0.265625q0.03125 0.140625 0.0625 0.359375q0.03125 0.203125 0.03125 0.515625q0 0.34375 -0.03125 0.59375q-0.03125 0.234375 -0.09375 0.390625q-0.0625 0.15625 -0.171875 0.234375q-0.09375 0.0625 -0.203125 0.0625q-0.1875 0 -0.515625 -0.21875q-0.328125 -0.21875 -0.859375 -0.453125q-0.53125 -0.25 -1.25 -0.46875q-0.703125 -0.21875 -1.625 -0.21875q-0.8125 0 -1.4375 0.1875q-0.625 0.1875 -1.03125 0.53125q-0.390625 0.34375 -0.609375 0.8125q-0.203125 0.46875 -0.203125 1.015625q0 0.765625 0.390625 1.28125q0.390625 0.515625 1.015625 0.90625q0.625 0.390625 1.421875 0.703125q0.8125 0.3125 1.640625 0.640625q0.828125 0.328125 1.640625 0.75q0.8125 0.40625 1.4375 1.0q0.625 0.578125 1.0 1.40625q0.390625 0.8125 0.390625 1.9375zm19.738281 4.796875q0 0.15625 -0.078125 0.265625q-0.078125 0.09375 -0.25 0.1875q-0.171875 0.078125 -0.484375 0.109375q-0.3125 0.046875 -0.78125 0.046875q-0.5 0 -0.8125 -0.046875q-0.3125 -0.03125 -0.484375 -0.109375q-0.171875 -0.09375 -0.25 -0.1875q-0.078125 -0.109375 -0.078125 -0.265625l0 -10.296875q0 -1.5 -0.234375 -2.421875q-0.234375 -0.921875 -0.6875 -1.578125q-0.453125 -0.671875 -1.171875 -1.015625q-0.703125 -0.359375 -1.640625 -0.359375q-1.203125 0 -2.421875 0.859375q-1.203125 0.859375 -2.53125 2.515625l0 12.296875q0 0.15625 -0.078125 0.265625q-0.078125 0.09375 -0.265625 0.1875q-0.171875 0.078125 -0.484375 0.109375q-0.3125 0.046875 -0.796875 0.046875q-0.46875 0 -0.78125 -0.046875q-0.3125 -0.03125 -0.5 -0.109375q-0.1875 -0.09375 -0.265625 -0.1875q-0.0625 -0.109375 -0.0625 -0.265625l0 -26.093752q0 -0.15625 0.0625 -0.265625q0.078125 -0.125 0.265625 -0.203125q0.1875 -0.078125 0.5 -0.109375q0.3125 -0.046875 0.78125 -0.046875q0.484375 0 0.796875 0.046875q0.3125 0.03125 0.484375 0.109375q0.1875 0.078125 0.265625 0.203125q0.078125 0.109375 0.078125 0.265625l0 10.515627q1.375 -1.453125 2.78125 -2.171875q1.40625 -0.71875 2.84375 -0.71875q1.75 0 2.953125 0.609375q1.203125 0.59375 1.9375 1.59375q0.75 0.984375 1.0625 2.328125q0.328125 1.328125 0.328125 3.234375l0 10.703125z" fill-rule="nonzero"/><path fill="#000000" d="m686.0403 79.28054q0 0.375 -0.046875 0.65625q-0.03125 0.265625 -0.125 0.4375q-0.078125 0.15625 -0.21875 0.234375q-0.125 0.078125 -0.28125 0.078125l-7.109375 0l0 21.90625q0 0.15625 -0.078125 0.28125q-0.078125 0.109375 -0.28125 0.1875q-0.1875 0.0625 -0.515625 0.109375q-0.3125 0.0625 -0.796875 0.0625q-0.46875 0 -0.8125 -0.0625q-0.328125 -0.046875 -0.53125 -0.109375q-0.1875 -0.078125 -0.265625 -0.1875q-0.078125 -0.125 -0.078125 -0.28125l0 -21.90625l-7.109375 0q-0.15625 0 -0.28125 -0.078125q-0.125 -0.078125 -0.203125 -0.234375q-0.078125 -0.171875 -0.125 -0.4375q-0.046875 -0.28125 -0.046875 -0.65625q0 -0.375 0.046875 -0.65625q0.046875 -0.28125 0.125 -0.453125q0.078125 -0.1875 0.203125 -0.265625q0.125 -0.078125 0.28125 -0.078125l17.578125 0q0.15625 0 0.28125 0.078125q0.140625 0.078125 0.21875 0.265625q0.09375 0.171875 0.125 0.453125q0.046875 0.28125 0.046875 0.65625zm16.078125 14.359375q0 2.140625 -0.578125 3.953125q-0.5625 1.796875 -1.6875 3.109375q-1.125 1.3125 -2.8125 2.046875q-1.6875 0.734375 -3.90625 0.734375q-2.171875 0 -3.78125 -0.640625q-1.609375 -0.65625 -2.6875 -1.875q-1.078125 -1.234375 -1.609375 -2.984375q-0.515625 -1.765625 -0.515625 -4.0q0 -2.140625 0.546875 -3.953125q0.5625 -1.8125 1.6875 -3.109375q1.125 -1.3125 2.796875 -2.03125q1.6875 -0.734375 3.921875 -0.734375q2.171875 0 3.78125 0.65625q1.609375 0.640625 2.6875 1.875q1.078125 1.21875 1.609375 2.984375q0.546875 1.75 0.546875 3.96875zm-3.40625 0.203125q0 -1.421875 -0.265625 -2.6875q-0.265625 -1.265625 -0.875 -2.21875q-0.59375 -0.96875 -1.640625 -1.515625q-1.03125 -0.5625 -2.5625 -0.5625q-1.4375 0 -2.46875 0.515625q-1.015625 0.5 -1.6875 1.4375q-0.65625 0.921875 -0.984375 2.1875q-0.3125 1.265625 -0.3125 2.765625q0 1.453125 0.265625 2.71875q0.265625 1.265625 0.875 2.21875q0.609375 0.953125 1.640625 1.515625q1.046875 0.546875 2.59375 0.546875q1.40625 0 2.4375 -0.5q1.03125 -0.515625 1.6875 -1.4375q0.671875 -0.921875 0.984375 -2.1875q0.3125 -1.265625 0.3125 -2.796875zm24.5 -0.203125q0 2.140625 -0.578125 3.953125q-0.5625 1.796875 -1.6875 3.109375q-1.125 1.3125 -2.8125 2.046875q-1.6875 0.734375 -3.90625 0.734375q-2.171875 0 -3.78125 -0.640625q-1.609375 -0.65625 -2.6875 -1.875q-1.078125 -1.234375 -1.609375 -2.984375q-0.515625 -1.765625 -0.515625 -4.0q0 -2.140625 0.546875 -3.953125q0.5625 -1.8125 1.6875 -3.109375q1.125 -1.3125 2.796875 -2.03125q1.6875 -0.734375 3.921875 -0.734375q2.171875 0 3.78125 0.65625q1.609375 0.640625 2.6875 1.875q1.078125 1.21875 1.609375 2.984375q0.546875 1.75 0.546875 3.96875zm-3.40625 0.203125q0 -1.421875 -0.265625 -2.6875q-0.265625 -1.265625 -0.875 -2.21875q-0.59375 -0.96875 -1.640625 -1.515625q-1.03125 -0.5625 -2.5625 -0.5625q-1.4375 0 -2.46875 0.515625q-1.015625 0.5 -1.6875 1.4375q-0.65625 0.921875 -0.984375 2.1875q-0.3125 1.265625 -0.3125 2.765625q0 1.453125 0.265625 2.71875q0.265625 1.265625 0.875 2.21875q0.609375 0.953125 1.640625 1.515625q1.046875 0.546875 2.59375 0.546875q1.40625 0 2.4375 -0.5q1.03125 -0.515625 1.6875 -1.4375q0.671875 -0.921875 0.984375 -2.1875q0.3125 -1.265625 0.3125 -2.796875zm11.375 8.78125q0 0.15625 -0.078125 0.265625q-0.078125 0.09375 -0.265625 0.1875q-0.171875 0.078125 -0.484375 0.109375q-0.3125 0.046875 -0.796875 0.046875q-0.46875 0 -0.78125 -0.046875q-0.3125 -0.03125 -0.5 -0.109375q-0.1875 -0.09375 -0.265625 -0.1875q-0.0625 -0.109375 -0.0625 -0.265625l0 -26.09375q0 -0.15625 0.0625 -0.265625q0.078125 -0.125 0.265625 -0.203125q0.1875 -0.078125 0.5 -0.109375q0.3125 -0.046875 0.78125 -0.046875q0.484375 0 0.796875 0.046875q0.3125 0.03125 0.484375 0.109375q0.1875 0.078125 0.265625 0.203125q0.078125 0.109375 0.078125 0.265625l0 26.09375z" fill-rule="nonzero"/><path fill="#cfc498" d="m599.7808 272.05554l0 0c0 -11.912781 9.657227 -21.569977 21.570007 -21.569977l158.27734 0c5.720703 0 11.207153 2.2725372 15.252258 6.317688c4.045166 4.045166 6.317749 9.531586 6.317749 15.252289l0 86.277374c0 11.91275 -9.657227 21.569977 -21.570007 21.569977l-158.27734 0c-11.912781 0 -21.570007 -9.657227 -21.570007 -21.569977z" fill-rule="evenodd"/><path stroke="#44546a" stroke-width="1.0" stroke-linejoin="round" stroke-linecap="butt" d="m599.7808 272.05554l0 0c0 -11.912781 9.657227 -21.569977 21.570007 -21.569977l158.27734 0c5.720703 0 11.207153 2.2725372 15.252258 6.317688c4.045166 4.045166 6.317749 9.531586 6.317749 15.252289l0 86.277374c0 11.91275 -9.657227 21.569977 -21.570007 21.569977l-158.27734 0c-11.912781 0 -21.570007 -9.657227 -21.570007 -21.569977z" fill-rule="evenodd"/><path fill="#000000" d="m652.57544 320.2505q0 2.3125 -0.671875 4.125q-0.671875 1.796875 -1.921875 3.046875q-1.25 1.25 -3.046875 1.90625q-1.796875 0.640625 -4.078125 0.640625q-2.09375 0 -3.8125 -0.609375q-1.71875 -0.609375 -2.953125 -1.78125q-1.21875 -1.1875 -1.890625 -2.96875q-0.65625 -1.78125 -0.65625 -4.09375l0 -15.6875q0 -0.15625 0.078125 -0.265625q0.078125 -0.125 0.265625 -0.1875q0.203125 -0.078125 0.515625 -0.125q0.3125 -0.046875 0.8125 -0.046875q0.46875 0 0.796875 0.046875q0.34375 0.046875 0.515625 0.125q0.1875 0.0625 0.265625 0.1875q0.078125 0.109375 0.078125 0.265625l0 15.265625q0 1.765625 0.421875 3.078125q0.4375 1.296875 1.25 2.171875q0.8125 0.875 1.953125 1.3125q1.140625 0.4375 2.578125 0.4375q1.453125 0 2.59375 -0.421875q1.15625 -0.4375 1.9375 -1.296875q0.796875 -0.859375 1.21875 -2.125q0.421875 -1.28125 0.421875 -2.96875l0 -15.453125q0 -0.15625 0.078125 -0.265625q0.078125 -0.125 0.265625 -0.1875q0.203125 -0.078125 0.515625 -0.125q0.328125 -0.046875 0.8125 -0.046875q0.46875 0 0.78125 0.046875q0.328125 0.046875 0.515625 0.125q0.1875 0.0625 0.265625 0.1875q0.09375 0.109375 0.09375 0.265625l0 15.421875zm23.523438 8.828125q0 0.15625 -0.0625 0.28125q-0.0625 0.109375 -0.265625 0.203125q-0.1875 0.078125 -0.546875 0.109375q-0.34375 0.046875 -0.921875 0.046875q-0.515625 0 -0.84375 -0.046875q-0.3125 -0.03125 -0.515625 -0.125q-0.1875 -0.09375 -0.296875 -0.25q-0.109375 -0.15625 -0.1875 -0.390625l-2.3125 -5.953125q-0.421875 -1.015625 -0.859375 -1.859375q-0.4375 -0.859375 -1.046875 -1.46875q-0.59375 -0.625 -1.421875 -0.953125q-0.8125 -0.34375 -1.96875 -0.34375l-2.25 0l0 10.75q0 0.15625 -0.09375 0.28125q-0.078125 0.109375 -0.265625 0.1875q-0.1875 0.0625 -0.515625 0.109375q-0.3125 0.0625 -0.796875 0.0625q-0.5 0 -0.828125 -0.0625q-0.3125 -0.046875 -0.515625 -0.109375q-0.1875 -0.078125 -0.265625 -0.1875q-0.078125 -0.125 -0.078125 -0.28125l0 -23.390625q0 -0.765625 0.390625 -1.0625q0.40625 -0.3125 0.859375 -0.3125l5.375 0q0.953125 0 1.578125 0.0625q0.640625 0.046875 1.15625 0.09375q1.46875 0.265625 2.578125 0.8125q1.125 0.546875 1.890625 1.390625q0.765625 0.828125 1.140625 1.921875q0.390625 1.078125 0.390625 2.390625q0 1.265625 -0.34375 2.28125q-0.34375 1.0 -1.0 1.765625q-0.640625 0.765625 -1.546875 1.34375q-0.890625 0.5625 -2.0 0.953125q0.625 0.265625 1.125 0.6875q0.515625 0.421875 0.953125 1.015625q0.4375 0.578125 0.828125 1.34375q0.390625 0.765625 0.78125 1.71875l2.265625 5.5625q0.28125 0.703125 0.359375 0.984375q0.078125 0.28125 0.078125 0.4375zm-5.0625 -17.75q0 -1.484375 -0.671875 -2.5q-0.65625 -1.03125 -2.21875 -1.484375q-0.484375 -0.140625 -1.109375 -0.1875q-0.609375 -0.0625 -1.609375 -0.0625l-2.828125 0l0 8.515625l3.28125 0q1.328125 0 2.296875 -0.3125q0.96875 -0.328125 1.609375 -0.90625q0.640625 -0.578125 0.9375 -1.359375q0.3125 -0.78125 0.3125 -1.703125zm23.03125 16.796875q0 0.390625 -0.046875 0.65625q-0.03125 0.265625 -0.125 0.453125q-0.078125 0.1875 -0.21875 0.28125q-0.125 0.078125 -0.296875 0.078125l-11.171875 0q-0.453125 0 -0.859375 -0.296875q-0.390625 -0.3125 -0.390625 -1.078125l0 -23.390625q0 -0.15625 0.078125 -0.265625q0.078125 -0.125 0.265625 -0.1875q0.203125 -0.078125 0.53125 -0.125q0.34375 -0.046875 0.8125 -0.046875q0.484375 0 0.796875 0.046875q0.328125 0.046875 0.515625 0.125q0.203125 0.0625 0.28125 0.1875q0.078125 0.109375 0.078125 0.265625l0 21.859375l9.0625 0q0.171875 0 0.296875 0.09375q0.140625 0.078125 0.21875 0.25q0.09375 0.15625 0.125 0.4375q0.046875 0.265625 0.046875 0.65625zm28.59375 -22.359375q0 0.375 -0.046875 0.65625q-0.03125 0.265625 -0.125 0.4375q-0.078125 0.15625 -0.21875 0.234375q-0.125 0.078125 -0.28125 0.078125l-7.109375 0l0 21.90625q0 0.15625 -0.078125 0.28125q-0.078125 0.109375 -0.28125 0.1875q-0.1875 0.0625 -0.515625 0.109375q-0.3125 0.0625 -0.796875 0.0625q-0.46875 0 -0.8125 -0.0625q-0.328125 -0.046875 -0.53125 -0.109375q-0.1875 -0.078125 -0.265625 -0.1875q-0.078125 -0.125 -0.078125 -0.28125l0 -21.90625l-7.109375 0q-0.15625 0 -0.28125 -0.078125q-0.125 -0.078125 -0.203125 -0.234375q-0.078125 -0.171875 -0.125 -0.4375q-0.046875 -0.28125 -0.046875 -0.65625q0 -0.375 0.046875 -0.65625q0.046875 -0.28125 0.125 -0.453125q0.078125 -0.1875 0.203125 -0.265625q0.125 -0.078125 0.28125 -0.078125l17.578125 0q0.15625 0 0.28125 0.078125q0.140625 0.078125 0.21875 0.265625q0.09375 0.171875 0.125 0.453125q0.046875 0.28125 0.046875 0.65625zm16.078125 14.359375q0 2.140625 -0.578125 3.953125q-0.5625 1.796875 -1.6875 3.109375q-1.125 1.3125 -2.8125 2.046875q-1.6875 0.734375 -3.90625 0.734375q-2.171875 0 -3.78125 -0.640625q-1.609375 -0.65625 -2.6875 -1.875q-1.078125 -1.234375 -1.609375 -2.984375q-0.515625 -1.765625 -0.515625 -4.0q0 -2.140625 0.546875 -3.953125q0.5625 -1.8125 1.6875 -3.109375q1.125 -1.3125 2.796875 -2.03125q1.6875 -0.734375 3.921875 -0.734375q2.171875 0 3.78125 0.65625q1.609375 0.640625 2.6875 1.875q1.078125 1.21875 1.609375 2.984375q0.546875 1.75 0.546875 3.96875zm-3.40625 0.203125q0 -1.421875 -0.265625 -2.6875q-0.265625 -1.265625 -0.875 -2.21875q-0.59375 -0.96875 -1.640625 -1.515625q-1.03125 -0.5625 -2.5625 -0.5625q-1.4375 0 -2.46875 0.515625q-1.015625 0.5 -1.6875 1.4375q-0.65625 0.921875 -0.984375 2.1875q-0.3125 1.265625 -0.3125 2.765625q0 1.453125 0.265625 2.71875q0.265625 1.265625 0.875 2.21875q0.609375 0.953125 1.640625 1.515625q1.046875 0.546875 2.59375 0.546875q1.40625 0 2.4375 -0.5q1.03125 -0.515625 1.6875 -1.4375q0.671875 -0.921875 0.984375 -2.1875q0.3125 -1.265625 0.3125 -2.796875zm24.5 -0.203125q0 2.140625 -0.578125 3.953125q-0.5625 1.796875 -1.6875 3.109375q-1.125 1.3125 -2.8125 2.046875q-1.6875 0.734375 -3.90625 0.734375q-2.171875 0 -3.78125 -0.640625q-1.609375 -0.65625 -2.6875 -1.875q-1.078125 -1.234375 -1.609375 -2.984375q-0.515625 -1.765625 -0.515625 -4.0q0 -2.140625 0.546875 -3.953125q0.5625 -1.8125 1.6875 -3.109375q1.125 -1.3125 2.796875 -2.03125q1.6875 -0.734375 3.921875 -0.734375q2.171875 0 3.78125 0.65625q1.609375 0.640625 2.6875 1.875q1.078125 1.21875 1.609375 2.984375q0.546875 1.75 0.546875 3.96875zm-3.40625 0.203125q0 -1.421875 -0.265625 -2.6875q-0.265625 -1.265625 -0.875 -2.21875q-0.59375 -0.96875 -1.640625 -1.515625q-1.03125 -0.5625 -2.5625 -0.5625q-1.4375 0 -2.46875 0.515625q-1.015625 0.5 -1.6875 1.4375q-0.65625 0.921875 -0.984375 2.1875q-0.3125 1.265625 -0.3125 2.765625q0 1.453125 0.265625 2.71875q0.265625 1.265625 0.875 2.21875q0.609375 0.953125 1.640625 1.515625q1.046875 0.546875 2.59375 0.546875q1.40625 0 2.4375 -0.5q1.03125 -0.515625 1.6875 -1.4375q0.671875 -0.921875 0.984375 -2.1875q0.3125 -1.265625 0.3125 -2.796875zm11.375 8.78125q0 0.15625 -0.078125 0.265625q-0.078125 0.09375 -0.265625 0.1875q-0.171875 0.078125 -0.484375 0.109375q-0.3125 0.046875 -0.796875 0.046875q-0.46875 0 -0.78125 -0.046875q-0.3125 -0.03125 -0.5 -0.109375q-0.1875 -0.09375 -0.265625 -0.1875q-0.0625 -0.109375 -0.0625 -0.265625l0 -26.09375q0 -0.15625 0.0625 -0.265625q0.078125 -0.125 0.265625 -0.203125q0.1875 -0.078125 0.5 -0.109375q0.3125 -0.046875 0.78125 -0.046875q0.484375 0 0.796875 0.046875q0.3125 0.03125 0.484375 0.109375q0.1875 0.078125 0.265625 0.203125q0.078125 0.109375 0.078125 0.265625l0 26.09375z" fill-rule="nonzero"/><path fill="#e7e6e6" d="m265.6181 48.650917l265.62207 0l0 -16.543304l33.08661 33.086617l-33.08661 33.08661l0 -16.543304l-265.62207 0z" fill-rule="evenodd"/><path stroke="#44546a" stroke-width="1.0" stroke-linejoin="round" stroke-linecap="butt" d="m265.6181 48.650917l265.62207 0l0 -16.543304l33.08661 33.086617l-33.08661 33.08661l0 -16.543304l-265.62207 0z" fill-rule="evenodd"/><path fill="#000000" d="m390.26328 57.851723q0 0.296875 -0.03125 0.515625q-0.03125 0.21875 -0.109375 0.359375q-0.0625 0.125 -0.171875 0.1875q-0.09375 0.0625 -0.21875 0.0625l-5.6875 0l0 17.53125q0 0.125 -0.0625 0.21875q-0.0625 0.09375 -0.21875 0.15625q-0.15625 0.046875 -0.421875 0.078125q-0.25 0.046875 -0.640625 0.046875q-0.375 0 -0.640625 -0.046875q-0.265625 -0.03125 -0.421875 -0.078125q-0.15625 -0.0625 -0.21875 -0.15625q-0.0625 -0.09375 -0.0625 -0.21875l0 -17.53125l-5.6875 0q-0.125 0 -0.234375 -0.0625q-0.09375 -0.0625 -0.15625 -0.1875q-0.0625 -0.140625 -0.109375 -0.359375q-0.03125 -0.21875 -0.03125 -0.515625q0 -0.296875 0.03125 -0.515625q0.046875 -0.234375 0.109375 -0.375q0.0625 -0.140625 0.15625 -0.203125q0.109375 -0.0625 0.234375 -0.0625l14.0625 0q0.125 0 0.21875 0.0625q0.109375 0.0625 0.171875 0.203125q0.078125 0.140625 0.109375 0.375q0.03125 0.21875 0.03125 0.515625zm8.859375 5.53125q0 0.34375 -0.015625 0.578125q-0.015625 0.234375 -0.0625 0.375q-0.046875 0.125 -0.125 0.203125q-0.0625 0.0625 -0.1875 0.0625q-0.125 0 -0.3125 -0.0625q-0.171875 -0.078125 -0.40625 -0.140625q-0.21875 -0.078125 -0.5 -0.140625q-0.28125 -0.0625 -0.609375 -0.0625q-0.390625 0 -0.765625 0.15625q-0.375 0.15625 -0.796875 0.515625q-0.40625 0.359375 -0.859375 0.953125q-0.453125 0.59375 -1.0 1.453125l0 9.25q0 0.125 -0.0625 0.21875q-0.0625 0.078125 -0.203125 0.140625q-0.140625 0.0625 -0.390625 0.09375q-0.25 0.03125 -0.640625 0.03125q-0.375 0 -0.625 -0.03125q-0.25 -0.03125 -0.40625 -0.09375q-0.140625 -0.0625 -0.203125 -0.140625q-0.046875 -0.09375 -0.046875 -0.21875l0 -14.0625q0 -0.125 0.046875 -0.203125q0.046875 -0.09375 0.1875 -0.15625q0.140625 -0.078125 0.359375 -0.09375q0.21875 -0.03125 0.578125 -0.03125q0.34375 0 0.5625 0.03125q0.234375 0.015625 0.359375 0.09375q0.125 0.0625 0.171875 0.15625q0.0625 0.078125 0.0625 0.203125l0 2.046875q0.578125 -0.84375 1.078125 -1.375q0.515625 -0.53125 0.96875 -0.828125q0.453125 -0.3125 0.890625 -0.421875q0.453125 -0.125 0.90625 -0.125q0.203125 0 0.453125 0.03125q0.265625 0.015625 0.546875 0.078125q0.28125 0.0625 0.5 0.140625q0.234375 0.078125 0.328125 0.15625q0.09375 0.078125 0.125 0.15625q0.03125 0.0625 0.046875 0.171875q0.03125 0.109375 0.03125 0.328125q0.015625 0.203125 0.015625 0.5625zm12.875 13.15625q0 0.1875 -0.125 0.28125q-0.125 0.09375 -0.34375 0.140625q-0.21875 0.046875 -0.640625 0.046875q-0.40625 0 -0.65625 -0.046875q-0.234375 -0.046875 -0.34375 -0.140625q-0.109375 -0.09375 -0.109375 -0.28125l0 -1.40625q-0.921875 0.984375 -2.0625 1.53125q-1.125 0.546875 -2.390625 0.546875q-1.109375 0 -2.015625 -0.296875q-0.890625 -0.28125 -1.53125 -0.828125q-0.625 -0.546875 -0.984375 -1.34375q-0.34375 -0.796875 -0.34375 -1.8125q0 -1.1875 0.484375 -2.0625q0.484375 -0.875 1.390625 -1.453125q0.90625 -0.578125 2.21875 -0.859375q1.3125 -0.296875 2.953125 -0.296875l1.9375 0l0 -1.09375q0 -0.8125 -0.171875 -1.4375q-0.171875 -0.625 -0.5625 -1.03125q-0.375 -0.421875 -0.984375 -0.625q-0.609375 -0.21875 -1.5 -0.21875q-0.953125 0 -1.71875 0.234375q-0.75 0.21875 -1.328125 0.5q-0.5625 0.265625 -0.953125 0.5q-0.375 0.21875 -0.5625 0.21875q-0.125 0 -0.21875 -0.0625q-0.09375 -0.0625 -0.171875 -0.1875q-0.0625 -0.125 -0.09375 -0.3125q-0.03125 -0.203125 -0.03125 -0.4375q0 -0.390625 0.046875 -0.609375q0.0625 -0.234375 0.265625 -0.4375q0.21875 -0.203125 0.734375 -0.46875q0.515625 -0.28125 1.1875 -0.5q0.671875 -0.234375 1.46875 -0.375q0.796875 -0.15625 1.609375 -0.15625q1.515625 0 2.578125 0.34375q1.0625 0.34375 1.71875 1.015625q0.65625 0.65625 0.953125 1.640625q0.296875 0.984375 0.296875 2.296875l0 9.484375zm-2.5625 -6.421875l-2.203125 0q-1.0625 0 -1.84375 0.1875q-0.78125 0.171875 -1.296875 0.53125q-0.515625 0.34375 -0.765625 0.84375q-0.234375 0.484375 -0.234375 1.125q0 1.09375 0.6875 1.75q0.703125 0.640625 1.953125 0.640625q1.015625 0 1.875 -0.515625q0.875 -0.515625 1.828125 -1.578125l0 -2.984375zm9.875 6.40625q0 0.125 -0.0625 0.21875q-0.0625 0.078125 -0.203125 0.140625q-0.140625 0.0625 -0.390625 0.09375q-0.25 0.03125 -0.640625 0.03125q-0.375 0 -0.625 -0.03125q-0.25 -0.03125 -0.40625 -0.09375q-0.140625 -0.0625 -0.203125 -0.140625q-0.046875 -0.09375 -0.046875 -0.21875l0 -14.0625q0 -0.109375 0.046875 -0.203125q0.0625 -0.09375 0.203125 -0.15625q0.15625 -0.0625 0.40625 -0.09375q0.25 -0.03125 0.625 -0.03125q0.390625 0 0.640625 0.03125q0.25 0.03125 0.390625 0.09375q0.140625 0.0625 0.203125 0.15625q0.0625 0.09375 0.0625 0.203125l0 14.0625zm0.296875 -18.8125q0 0.90625 -0.34375 1.234375q-0.34375 0.328125 -1.265625 0.328125q-0.90625 0 -1.25 -0.3125q-0.328125 -0.328125 -0.328125 -1.21875q0 -0.90625 0.34375 -1.234375q0.34375 -0.328125 1.265625 -0.328125q0.90625 0 1.234375 0.328125q0.34375 0.3125 0.34375 1.203125zm16.578125 18.8125q0 0.125 -0.0625 0.21875q-0.0625 0.078125 -0.203125 0.140625q-0.140625 0.0625 -0.390625 0.09375q-0.25 0.03125 -0.625 0.03125q-0.390625 0 -0.640625 -0.03125q-0.25 -0.03125 -0.390625 -0.09375q-0.140625 -0.0625 -0.203125 -0.140625q-0.0625 -0.09375 -0.0625 -0.21875l0 -8.234375q0 -1.203125 -0.1875 -1.9375q-0.1875 -0.734375 -0.546875 -1.265625q-0.359375 -0.53125 -0.9375 -0.8125q-0.5625 -0.28125 -1.3125 -0.28125q-0.96875 0 -1.9375 0.6875q-0.96875 0.6875 -2.03125 2.015625l0 9.828125q0 0.125 -0.0625 0.21875q-0.0625 0.078125 -0.203125 0.140625q-0.140625 0.0625 -0.390625 0.09375q-0.25 0.03125 -0.640625 0.03125q-0.375 0 -0.625 -0.03125q-0.25 -0.03125 -0.40625 -0.09375q-0.140625 -0.0625 -0.203125 -0.140625q-0.046875 -0.09375 -0.046875 -0.21875l0 -14.0625q0 -0.125 0.046875 -0.203125q0.046875 -0.09375 0.1875 -0.15625q0.140625 -0.078125 0.359375 -0.09375q0.21875 -0.03125 0.578125 -0.03125q0.34375 0 0.5625 0.03125q0.234375 0.015625 0.359375 0.09375q0.125 0.0625 0.171875 0.15625q0.0625 0.078125 0.0625 0.203125l0 1.859375q1.1875 -1.328125 2.359375 -1.9375q1.1875 -0.625 2.390625 -0.625q1.40625 0 2.359375 0.484375q0.96875 0.46875 1.5625 1.265625q0.59375 0.796875 0.84375 1.875q0.265625 1.0625 0.265625 2.5625l0 8.578125z" fill-rule="nonzero"/><path fill="#e7e6e6" d="m265.6181 298.6509l265.62207 0l0 -16.543304l33.08661 33.08661l-33.08661 33.08664l0 -16.543335l-265.62207 0z" fill-rule="evenodd"/><path stroke="#44546a" stroke-width="1.0" stroke-linejoin="round" stroke-linecap="butt" d="m265.6181 298.6509l265.62207 0l0 -16.543304l33.08661 33.08661l-33.08661 33.08664l0 -16.543335l-265.62207 0z" fill-rule="evenodd"/><path fill="#000000" d="m390.26328 307.8517q0 0.296875 -0.03125 0.515625q-0.03125 0.21875 -0.109375 0.359375q-0.0625 0.125 -0.171875 0.1875q-0.09375 0.0625 -0.21875 0.0625l-5.6875 0l0 17.53125q0 0.125 -0.0625 0.21875q-0.0625 0.09375 -0.21875 0.15625q-0.15625 0.046875 -0.421875 0.078125q-0.25 0.046875 -0.640625 0.046875q-0.375 0 -0.640625 -0.046875q-0.265625 -0.03125 -0.421875 -0.078125q-0.15625 -0.0625 -0.21875 -0.15625q-0.0625 -0.09375 -0.0625 -0.21875l0 -17.53125l-5.6875 0q-0.125 0 -0.234375 -0.0625q-0.09375 -0.0625 -0.15625 -0.1875q-0.0625 -0.140625 -0.109375 -0.359375q-0.03125 -0.21875 -0.03125 -0.515625q0 -0.296875 0.03125 -0.515625q0.046875 -0.234375 0.109375 -0.375q0.0625 -0.140625 0.15625 -0.203125q0.109375 -0.0625 0.234375 -0.0625l14.0625 0q0.125 0 0.21875 0.0625q0.109375 0.0625 0.171875 0.203125q0.078125 0.140625 0.109375 0.375q0.03125 0.21875 0.03125 0.515625zm8.859375 5.53125q0 0.34375 -0.015625 0.578125q-0.015625 0.234375 -0.0625 0.375q-0.046875 0.125 -0.125 0.203125q-0.0625 0.0625 -0.1875 0.0625q-0.125 0 -0.3125 -0.0625q-0.171875 -0.078125 -0.40625 -0.140625q-0.21875 -0.078125 -0.5 -0.140625q-0.28125 -0.0625 -0.609375 -0.0625q-0.390625 0 -0.765625 0.15625q-0.375 0.15625 -0.796875 0.515625q-0.40625 0.359375 -0.859375 0.953125q-0.453125 0.59375 -1.0 1.453125l0 9.25q0 0.125 -0.0625 0.21875q-0.0625 0.078125 -0.203125 0.140625q-0.140625 0.0625 -0.390625 0.09375q-0.25 0.03125 -0.640625 0.03125q-0.375 0 -0.625 -0.03125q-0.25 -0.03125 -0.40625 -0.09375q-0.140625 -0.0625 -0.203125 -0.140625q-0.046875 -0.09375 -0.046875 -0.21875l0 -14.0625q0 -0.125 0.046875 -0.203125q0.046875 -0.09375 0.1875 -0.15625q0.140625 -0.078125 0.359375 -0.09375q0.21875 -0.03125 0.578125 -0.03125q0.34375 0 0.5625 0.03125q0.234375 0.015625 0.359375 0.09375q0.125 0.0625 0.171875 0.15625q0.0625 0.078125 0.0625 0.203125l0 2.046875q0.578125 -0.84375 1.078125 -1.375q0.515625 -0.53125 0.96875 -0.828125q0.453125 -0.3125 0.890625 -0.421875q0.453125 -0.125 0.90625 -0.125q0.203125 0 0.453125 0.03125q0.265625 0.015625 0.546875 0.078125q0.28125 0.0625 0.5 0.140625q0.234375 0.078125 0.328125 0.15625q0.09375 0.078125 0.125 0.15625q0.03125 0.0625 0.046875 0.171875q0.03125 0.109375 0.03125 0.328125q0.015625 0.203125 0.015625 0.5625zm12.875 13.15625q0 0.1875 -0.125 0.28125q-0.125 0.09375 -0.34375 0.140625q-0.21875 0.046875 -0.640625 0.046875q-0.40625 0 -0.65625 -0.046875q-0.234375 -0.046875 -0.34375 -0.140625q-0.109375 -0.09375 -0.109375 -0.28125l0 -1.40625q-0.921875 0.984375 -2.0625 1.53125q-1.125 0.546875 -2.390625 0.546875q-1.109375 0 -2.015625 -0.296875q-0.890625 -0.28125 -1.53125 -0.828125q-0.625 -0.546875 -0.984375 -1.34375q-0.34375 -0.796875 -0.34375 -1.8125q0 -1.1875 0.484375 -2.0625q0.484375 -0.875 1.390625 -1.453125q0.90625 -0.578125 2.21875 -0.859375q1.3125 -0.296875 2.953125 -0.296875l1.9375 0l0 -1.09375q0 -0.8125 -0.171875 -1.4375q-0.171875 -0.625 -0.5625 -1.03125q-0.375 -0.421875 -0.984375 -0.625q-0.609375 -0.21875 -1.5 -0.21875q-0.953125 0 -1.71875 0.234375q-0.75 0.21875 -1.328125 0.5q-0.5625 0.265625 -0.953125 0.5q-0.375 0.21875 -0.5625 0.21875q-0.125 0 -0.21875 -0.0625q-0.09375 -0.0625 -0.171875 -0.1875q-0.0625 -0.125 -0.09375 -0.3125q-0.03125 -0.203125 -0.03125 -0.4375q0 -0.390625 0.046875 -0.609375q0.0625 -0.234375 0.265625 -0.4375q0.21875 -0.203125 0.734375 -0.46875q0.515625 -0.28125 1.1875 -0.5q0.671875 -0.234375 1.46875 -0.375q0.796875 -0.15625 1.609375 -0.15625q1.515625 0 2.578125 0.34375q1.0625 0.34375 1.71875 1.015625q0.65625 0.65625 0.953125 1.640625q0.296875 0.984375 0.296875 2.296875l0 9.484375zm-2.5625 -6.421875l-2.203125 0q-1.0625 0 -1.84375 0.1875q-0.78125 0.171875 -1.296875 0.53125q-0.515625 0.34375 -0.765625 0.84375q-0.234375 0.484375 -0.234375 1.125q0 1.09375 0.6875 1.75q0.703125 0.640625 1.953125 0.640625q1.015625 0 1.875 -0.515625q0.875 -0.515625 1.828125 -1.578125l0 -2.984375zm9.875 6.40625q0 0.125 -0.0625 0.21875q-0.0625 0.078125 -0.203125 0.140625q-0.140625 0.0625 -0.390625 0.09375q-0.25 0.03125 -0.640625 0.03125q-0.375 0 -0.625 -0.03125q-0.25 -0.03125 -0.40625 -0.09375q-0.140625 -0.0625 -0.203125 -0.140625q-0.046875 -0.09375 -0.046875 -0.21875l0 -14.0625q0 -0.109375 0.046875 -0.203125q0.0625 -0.09375 0.203125 -0.15625q0.15625 -0.0625 0.40625 -0.09375q0.25 -0.03125 0.625 -0.03125q0.390625 0 0.640625 0.03125q0.25 0.03125 0.390625 0.09375q0.140625 0.0625 0.203125 0.15625q0.0625 0.09375 0.0625 0.203125l0 14.0625zm0.296875 -18.8125q0 0.90625 -0.34375 1.234375q-0.34375 0.328125 -1.265625 0.328125q-0.90625 0 -1.25 -0.3125q-0.328125 -0.328125 -0.328125 -1.21875q0 -0.90625 0.34375 -1.234375q0.34375 -0.328125 1.265625 -0.328125q0.90625 0 1.234375 0.328125q0.34375 0.3125 0.34375 1.203125zm16.578125 18.8125q0 0.125 -0.0625 0.21875q-0.0625 0.078125 -0.203125 0.140625q-0.140625 0.0625 -0.390625 0.09375q-0.25 0.03125 -0.625 0.03125q-0.390625 0 -0.640625 -0.03125q-0.25 -0.03125 -0.390625 -0.09375q-0.140625 -0.0625 -0.203125 -0.140625q-0.0625 -0.09375 -0.0625 -0.21875l0 -8.234375q0 -1.203125 -0.1875 -1.9375q-0.1875 -0.734375 -0.546875 -1.265625q-0.359375 -0.53125 -0.9375 -0.8125q-0.5625 -0.28125 -1.3125 -0.28125q-0.96875 0 -1.9375 0.6875q-0.96875 0.6875 -2.03125 2.015625l0 9.828125q0 0.125 -0.0625 0.21875q-0.0625 0.078125 -0.203125 0.140625q-0.140625 0.0625 -0.390625 0.09375q-0.25 0.03125 -0.640625 0.03125q-0.375 0 -0.625 -0.03125q-0.25 -0.03125 -0.40625 -0.09375q-0.140625 -0.0625 -0.203125 -0.140625q-0.046875 -0.09375 -0.046875 -0.21875l0 -14.0625q0 -0.125 0.046875 -0.203125q0.046875 -0.09375 0.1875 -0.15625q0.140625 -0.078125 0.359375 -0.09375q0.21875 -0.03125 0.578125 -0.03125q0.34375 0 0.5625 0.03125q0.234375 0.015625 0.359375 0.09375q0.125 0.0625 0.171875 0.15625q0.0625 0.078125 0.0625 0.203125l0 1.859375q1.1875 -1.328125 2.359375 -1.9375q1.1875 -0.625 2.390625 -0.625q1.40625 0 2.359375 0.484375q0.96875 0.46875 1.5625 1.265625q0.59375 0.796875 0.84375 1.875q0.265625 1.0625 0.265625 2.5625l0 8.578125z" fill-rule="nonzero"/><path fill="#e7e6e6" d="m-0.001312336 189.95145l59.110237 0l0 -30.519684l118.22047 0l0 30.519684l59.110245 0l-118.220474 30.519684z" fill-rule="evenodd"/><path stroke="#44546a" stroke-width="1.0" stroke-linejoin="round" stroke-linecap="butt" d="m-0.001312336 189.95145l59.110237 0l0 -30.519684l118.22047 0l0 30.519684l59.110245 0l-118.220474 30.519684z" fill-rule="evenodd"/><path fill="#000000" d="m85.695724 176.56465q0 0.21875 -0.03125 0.390625q-0.015625 0.15625 -0.0625 0.265625q-0.046875 0.09375 -0.125 0.140625q-0.078125 0.046875 -0.171875 0.046875l-4.265625 0l0 13.140625q0 0.09375 -0.046875 0.171875q-0.046875 0.0625 -0.171875 0.109375q-0.109375 0.046875 -0.3125 0.078125q-0.1875 0.03125 -0.484375 0.03125q-0.28125 0 -0.484375 -0.03125q-0.1875 -0.03125 -0.3125 -0.078125q-0.109375 -0.046875 -0.15625 -0.109375q-0.046875 -0.078125 -0.046875 -0.171875l0 -13.140625l-4.265625 0q-0.09375 0 -0.171875 -0.046875q-0.078125 -0.046875 -0.125 -0.140625q-0.046875 -0.109375 -0.078125 -0.265625q-0.03125 -0.171875 -0.03125 -0.390625q0 -0.21875 0.03125 -0.390625q0.03125 -0.171875 0.078125 -0.28125q0.046875 -0.109375 0.125 -0.15625q0.078125 -0.046875 0.171875 -0.046875l10.546875 0q0.09375 0 0.171875 0.046875q0.078125 0.046875 0.125 0.15625q0.046875 0.109375 0.0625 0.28125q0.03125 0.171875 0.03125 0.390625zm6.6445312 4.140625q0 0.265625 -0.015625 0.4375q0 0.171875 -0.046875 0.28125q-0.03125 0.09375 -0.078125 0.15625q-0.046875 0.046875 -0.140625 0.046875q-0.09375 0 -0.234375 -0.046875q-0.140625 -0.0625 -0.3125 -0.109375q-0.15625 -0.0625 -0.375 -0.109375q-0.203125 -0.046875 -0.453125 -0.046875q-0.296875 0 -0.578125 0.125q-0.28125 0.109375 -0.59375 0.390625q-0.3125 0.265625 -0.65625 0.71875q-0.328125 0.4375 -0.734375 1.078125l0 6.9375q0 0.09375 -0.046875 0.15625q-0.046875 0.0625 -0.15625 0.125q-0.109375 0.046875 -0.296875 0.0625q-0.1875 0.03125 -0.484375 0.03125q-0.28125 0 -0.46875 -0.03125q-0.1875 -0.015625 -0.296875 -0.0625q-0.109375 -0.0625 -0.15625 -0.125q-0.03125 -0.0625 -0.03125 -0.15625l0 -10.546875q0 -0.09375 0.03125 -0.15625q0.03125 -0.0625 0.140625 -0.109375q0.109375 -0.0625 0.265625 -0.078125q0.171875 -0.015625 0.4375 -0.015625q0.265625 0 0.421875 0.015625q0.171875 0.015625 0.265625 0.078125q0.09375 0.046875 0.140625 0.109375q0.046875 0.0625 0.046875 0.15625l0 1.53125q0.421875 -0.625 0.796875 -1.015625q0.390625 -0.40625 0.734375 -0.625q0.34375 -0.234375 0.671875 -0.328125q0.328125 -0.09375 0.671875 -0.09375q0.15625 0 0.34375 0.03125q0.203125 0.015625 0.40625 0.0625q0.21875 0.046875 0.375 0.109375q0.171875 0.046875 0.234375 0.109375q0.078125 0.0625 0.09375 0.109375q0.03125 0.046875 0.046875 0.140625q0.03125 0.078125 0.03125 0.234375q0 0.15625 0 0.421875zm9.65625 9.875q0 0.140625 -0.09375 0.21875q-0.09375 0.0625 -0.265625 0.09375q-0.15625 0.046875 -0.46875 0.046875q-0.296875 0 -0.484375 -0.046875q-0.1875 -0.03125 -0.265625 -0.09375q-0.078125 -0.078125 -0.078125 -0.21875l0 -1.0625q-0.6875 0.75 -1.546875 1.15625q-0.84375 0.40625 -1.796875 0.40625q-0.828125 0 -1.5 -0.21875q-0.671875 -0.21875 -1.15625 -0.625q-0.46875 -0.40625 -0.734375 -1.0q-0.265625 -0.609375 -0.265625 -1.359375q0 -0.890625 0.359375 -1.546875q0.375 -0.65625 1.046875 -1.09375q0.6875 -0.4375 1.671875 -0.65625q0.984375 -0.21875 2.203125 -0.21875l1.453125 0l0 -0.8125q0 -0.609375 -0.125 -1.078125q-0.125 -0.46875 -0.421875 -0.78125q-0.28125 -0.3125 -0.734375 -0.46875q-0.453125 -0.15625 -1.125 -0.15625q-0.71875 0 -1.296875 0.171875q-0.5625 0.171875 -0.984375 0.375q-0.421875 0.203125 -0.71875 0.375q-0.28125 0.171875 -0.421875 0.171875q-0.09375 0 -0.171875 -0.046875q-0.0625 -0.046875 -0.125 -0.140625q-0.046875 -0.09375 -0.078125 -0.234375q-0.015625 -0.15625 -0.015625 -0.328125q0 -0.296875 0.03125 -0.46875q0.046875 -0.171875 0.203125 -0.3125q0.171875 -0.15625 0.546875 -0.359375q0.390625 -0.21875 0.890625 -0.375q0.515625 -0.171875 1.109375 -0.28125q0.59375 -0.125 1.203125 -0.125q1.140625 0 1.9375 0.265625q0.796875 0.25 1.28125 0.75q0.5 0.5 0.71875 1.25q0.21875 0.734375 0.21875 1.71875l0 7.109375zm-1.921875 -4.8125l-1.640625 0q-0.796875 0 -1.390625 0.140625q-0.578125 0.125 -0.96875 0.390625q-0.390625 0.265625 -0.578125 0.640625q-0.171875 0.359375 -0.171875 0.84375q0 0.8125 0.515625 1.296875q0.53125 0.484375 1.46875 0.484375q0.75 0 1.40625 -0.375q0.65625 -0.390625 1.359375 -1.1875l0 -2.234375zm14.558594 4.796875q0 0.09375 -0.046875 0.15625q-0.046875 0.0625 -0.15625 0.125q-0.09375 0.046875 -0.28125 0.0625q-0.1875 0.03125 -0.46875 0.03125q-0.296875 0 -0.484375 -0.03125q-0.1875 -0.015625 -0.296875 -0.0625q-0.109375 -0.0625 -0.15625 -0.125q-0.046875 -0.0625 -0.046875 -0.15625l0 -6.171875q0 -0.90625 -0.140625 -1.453125q-0.140625 -0.546875 -0.40625 -0.9375q-0.265625 -0.40625 -0.703125 -0.609375q-0.421875 -0.21875 -0.984375 -0.21875q-0.71875 0 -1.453125 0.515625q-0.71875 0.515625 -1.515625 1.5l0 7.375q0 0.09375 -0.046875 0.15625q-0.046875 0.0625 -0.15625 0.125q-0.109375 0.046875 -0.296875 0.0625q-0.1875 0.03125 -0.484375 0.03125q-0.28125 0 -0.46875 -0.03125q-0.1875 -0.015625 -0.296875 -0.0625q-0.109375 -0.0625 -0.15625 -0.125q-0.03125 -0.0625 -0.03125 -0.15625l0 -10.546875q0 -0.09375 0.03125 -0.15625q0.03125 -0.0625 0.140625 -0.109375q0.109375 -0.0625 0.265625 -0.078125q0.171875 -0.015625 0.4375 -0.015625q0.265625 0 0.421875 0.015625q0.171875 0.015625 0.265625 0.078125q0.09375 0.046875 0.140625 0.109375q0.046875 0.0625 0.046875 0.15625l0 1.390625q0.890625 -0.984375 1.765625 -1.453125q0.890625 -0.46875 1.796875 -0.46875q1.046875 0 1.765625 0.359375q0.71875 0.359375 1.15625 0.96875q0.453125 0.59375 0.640625 1.390625q0.203125 0.796875 0.203125 1.921875l0 6.4375zm10.15625 -2.875q0 0.8125 -0.3125 1.453125q-0.296875 0.625 -0.84375 1.0625q-0.546875 0.4375 -1.3125 0.65625q-0.765625 0.21875 -1.671875 0.21875q-0.5625 0 -1.078125 -0.09375q-0.5 -0.078125 -0.90625 -0.203125q-0.40625 -0.140625 -0.6875 -0.28125q-0.28125 -0.15625 -0.421875 -0.265625q-0.125 -0.125 -0.1875 -0.328125q-0.046875 -0.21875 -0.046875 -0.578125q0 -0.234375 0.015625 -0.375q0.03125 -0.15625 0.0625 -0.25q0.03125 -0.09375 0.09375 -0.125q0.078125 -0.046875 0.15625 -0.046875q0.125 0 0.375 0.15625q0.25 0.15625 0.625 0.34375q0.375 0.1875 0.875 0.34375q0.5 0.15625 1.15625 0.15625q0.5 0 0.890625 -0.09375q0.40625 -0.109375 0.6875 -0.3125q0.296875 -0.21875 0.453125 -0.53125q0.15625 -0.3125 0.15625 -0.75q0 -0.4375 -0.234375 -0.734375q-0.21875 -0.3125 -0.59375 -0.546875q-0.375 -0.234375 -0.84375 -0.421875q-0.46875 -0.1875 -0.96875 -0.375q-0.5 -0.203125 -0.96875 -0.453125q-0.46875 -0.25 -0.84375 -0.609375q-0.375 -0.375 -0.609375 -0.875q-0.234375 -0.5 -0.234375 -1.203125q0 -0.625 0.234375 -1.1875q0.25 -0.578125 0.734375 -1.0q0.484375 -0.4375 1.203125 -0.6875q0.71875 -0.265625 1.671875 -0.265625q0.421875 0 0.84375 0.078125q0.421875 0.0625 0.765625 0.171875q0.34375 0.109375 0.578125 0.234375q0.25 0.125 0.359375 0.21875q0.125 0.09375 0.171875 0.171875q0.046875 0.0625 0.0625 0.15625q0.015625 0.078125 0.03125 0.203125q0.015625 0.125 0.015625 0.3125q0 0.203125 -0.015625 0.359375q-0.015625 0.140625 -0.0625 0.234375q-0.03125 0.09375 -0.09375 0.140625q-0.0625 0.03125 -0.125 0.03125q-0.109375 0 -0.3125 -0.125q-0.203125 -0.125 -0.515625 -0.265625q-0.3125 -0.15625 -0.75 -0.28125q-0.421875 -0.140625 -0.96875 -0.140625q-0.5 0 -0.875 0.125q-0.375 0.109375 -0.609375 0.3125q-0.234375 0.203125 -0.359375 0.484375q-0.125 0.28125 -0.125 0.609375q0 0.453125 0.234375 0.765625q0.234375 0.3125 0.609375 0.546875q0.375 0.234375 0.84375 0.421875q0.484375 0.1875 0.984375 0.390625q0.5 0.1875 0.984375 0.4375q0.484375 0.25 0.859375 0.609375q0.375 0.34375 0.609375 0.84375q0.234375 0.484375 0.234375 1.15625zm4.6992188 2.875q0 0.09375 -0.046875 0.15625q-0.046875 0.0625 -0.15625 0.125q-0.109375 0.046875 -0.296875 0.0625q-0.1875 0.03125 -0.484375 0.03125q-0.28125 0 -0.46875 -0.03125q-0.1875 -0.015625 -0.296875 -0.0625q-0.109375 -0.0625 -0.15625 -0.125q-0.03125 -0.0625 -0.03125 -0.15625l0 -15.65625q0 -0.09375 0.03125 -0.15625q0.046875 -0.078125 0.15625 -0.125q0.109375 -0.046875 0.296875 -0.0625q0.1875 -0.03125 0.46875 -0.03125q0.296875 0 0.484375 0.03125q0.1875 0.015625 0.296875 0.0625q0.109375 0.046875 0.15625 0.125q0.046875 0.0625 0.046875 0.15625l0 15.65625zm11.5078125 0.015625q0 0.140625 -0.09375 0.21875q-0.09375 0.0625 -0.265625 0.09375q-0.15625 0.046875 -0.46875 0.046875q-0.296875 0 -0.484375 -0.046875q-0.1875 -0.03125 -0.265625 -0.09375q-0.078125 -0.078125 -0.078125 -0.21875l0 -1.0625q-0.6875 0.75 -1.546875 1.15625q-0.84375 0.40625 -1.796875 0.40625q-0.828125 0 -1.5 -0.21875q-0.671875 -0.21875 -1.15625 -0.625q-0.46875 -0.40625 -0.734375 -1.0q-0.265625 -0.609375 -0.265625 -1.359375q0 -0.890625 0.359375 -1.546875q0.375 -0.65625 1.046875 -1.09375q0.6875 -0.4375 1.671875 -0.65625q0.984375 -0.21875 2.203125 -0.21875l1.453125 0l0 -0.8125q0 -0.609375 -0.125 -1.078125q-0.125 -0.46875 -0.421875 -0.78125q-0.28125 -0.3125 -0.734375 -0.46875q-0.453125 -0.15625 -1.125 -0.15625q-0.71875 0 -1.296875 0.171875q-0.5625 0.171875 -0.984375 0.375q-0.421875 0.203125 -0.71875 0.375q-0.28125 0.171875 -0.421875 0.171875q-0.09375 0 -0.171875 -0.046875q-0.0625 -0.046875 -0.125 -0.140625q-0.046875 -0.09375 -0.078125 -0.234375q-0.015625 -0.15625 -0.015625 -0.328125q0 -0.296875 0.03125 -0.46875q0.046875 -0.171875 0.203125 -0.3125q0.171875 -0.15625 0.546875 -0.359375q0.390625 -0.21875 0.890625 -0.375q0.515625 -0.171875 1.109375 -0.28125q0.59375 -0.125 1.203125 -0.125q1.140625 0 1.9375 0.265625q0.796875 0.25 1.28125 0.75q0.5 0.5 0.71875 1.25q0.21875 0.734375 0.21875 1.71875l0 7.109375zm-1.921875 -4.8125l-1.640625 0q-0.796875 0 -1.390625 0.140625q-0.578125 0.125 -0.96875 0.390625q-0.390625 0.265625 -0.578125 0.640625q-0.171875 0.359375 -0.171875 0.84375q0 0.8125 0.515625 1.296875q0.53125 0.484375 1.46875 0.484375q0.75 0 1.40625 -0.375q0.65625 -0.390625 1.359375 -1.1875l0 -2.234375zm10.7421875 4.03125q0 0.328125 -0.046875 0.53125q-0.046875 0.203125 -0.140625 0.296875q-0.09375 0.09375 -0.28125 0.1875q-0.1875 0.078125 -0.4375 0.125q-0.234375 0.046875 -0.5 0.078125q-0.265625 0.046875 -0.546875 0.046875q-0.8125 0 -1.40625 -0.21875q-0.578125 -0.21875 -0.953125 -0.65625q-0.375 -0.4375 -0.546875 -1.109375q-0.171875 -0.6875 -0.171875 -1.59375l0 -6.171875l-1.46875 0q-0.1875 0 -0.296875 -0.1875q-0.09375 -0.1875 -0.09375 -0.609375q0 -0.21875 0.03125 -0.359375q0.03125 -0.15625 0.078125 -0.25q0.046875 -0.109375 0.109375 -0.140625q0.078125 -0.046875 0.171875 -0.046875l1.46875 0l0 -2.515625q0 -0.078125 0.03125 -0.140625q0.046875 -0.078125 0.15625 -0.125q0.125 -0.0625 0.3125 -0.078125q0.1875 -0.03125 0.46875 -0.03125q0.28125 0 0.46875 0.03125q0.1875 0.015625 0.296875 0.078125q0.109375 0.046875 0.15625 0.125q0.046875 0.0625 0.046875 0.140625l0 2.515625l2.703125 0q0.09375 0 0.15625 0.046875q0.078125 0.03125 0.125 0.140625q0.0625 0.09375 0.078125 0.25q0.03125 0.140625 0.03125 0.359375q0 0.421875 -0.109375 0.609375q-0.109375 0.1875 -0.28125 0.1875l-2.703125 0l0 5.890625q0 1.09375 0.3125 1.65625q0.328125 0.546875 1.15625 0.546875q0.28125 0 0.484375 -0.046875q0.21875 -0.0625 0.375 -0.109375q0.171875 -0.0625 0.28125 -0.109375q0.125 -0.0625 0.21875 -0.0625q0.046875 0 0.09375 0.03125q0.0625 0.03125 0.09375 0.109375q0.03125 0.078125 0.046875 0.21875q0.03125 0.140625 0.03125 0.359375zm11.296875 -4.96875q0 0.46875 -0.234375 0.65625q-0.21875 0.1875 -0.515625 0.1875l-6.921875 0q0 0.890625 0.171875 1.59375q0.1875 0.703125 0.59375 1.203125q0.40625 0.5 1.0625 0.78125q0.65625 0.265625 1.609375 0.265625q0.75 0 1.328125 -0.125q0.59375 -0.125 1.015625 -0.28125q0.4375 -0.15625 0.703125 -0.265625q0.28125 -0.125 0.421875 -0.125q0.078125 0 0.140625 0.046875q0.078125 0.03125 0.109375 0.109375q0.03125 0.078125 0.046875 0.234375q0.015625 0.140625 0.015625 0.359375q0 0.140625 -0.015625 0.265625q0 0.109375 -0.015625 0.203125q-0.015625 0.078125 -0.0625 0.15625q-0.046875 0.0625 -0.109375 0.125q-0.0625 0.0625 -0.375 0.21875q-0.3125 0.140625 -0.828125 0.28125q-0.5 0.140625 -1.171875 0.25q-0.65625 0.109375 -1.40625 0.109375q-1.296875 0 -2.28125 -0.359375q-0.96875 -0.359375 -1.640625 -1.078125q-0.671875 -0.71875 -1.015625 -1.796875q-0.328125 -1.078125 -0.328125 -2.5q0 -1.359375 0.34375 -2.4375q0.359375 -1.09375 1.015625 -1.84375q0.671875 -0.765625 1.609375 -1.171875q0.9375 -0.40625 2.09375 -0.40625q1.234375 0 2.109375 0.40625q0.875 0.390625 1.4375 1.078125q0.5625 0.671875 0.828125 1.578125q0.265625 0.90625 0.265625 1.9375l0 0.34375zm-1.953125 -0.5625q0.046875 -1.53125 -0.671875 -2.390625q-0.703125 -0.875 -2.09375 -0.875q-0.71875 0 -1.265625 0.28125q-0.53125 0.265625 -0.90625 0.71875q-0.359375 0.4375 -0.5625 1.03125q-0.1875 0.578125 -0.21875 1.234375l5.71875 0z" fill-rule="nonzero"/><path fill="#e7e6e6" d="m582.26904 189.95013l59.11023 0l0 -30.519684l118.22046 0l0 30.519684l59.11023 0l-118.22046 30.519684z" fill-rule="evenodd"/><path stroke="#44546a" stroke-width="1.0" stroke-linejoin="round" stroke-linecap="butt" d="m582.26904 189.95013l59.11023 0l0 -30.519684l118.22046 0l0 30.519684l59.11023 0l-118.22046 30.519684z" fill-rule="evenodd"/><path fill="#000000" d="m667.96606 176.56334q0 0.21875 -0.03125 0.390625q-0.015625 0.15625 -0.0625 0.265625q-0.046875 0.09375 -0.125 0.140625q-0.078125 0.046875 -0.171875 0.046875l-4.265625 0l0 13.140625q0 0.09375 -0.046875 0.171875q-0.046875 0.0625 -0.171875 0.109375q-0.109375 0.046875 -0.3125 0.078125q-0.1875 0.03125 -0.484375 0.03125q-0.28125 0 -0.484375 -0.03125q-0.1875 -0.03125 -0.3125 -0.078125q-0.109375 -0.046875 -0.15625 -0.109375q-0.046875 -0.078125 -0.046875 -0.171875l0 -13.140625l-4.265625 0q-0.09375 0 -0.171875 -0.046875q-0.078125 -0.046875 -0.125 -0.140625q-0.046875 -0.109375 -0.078125 -0.265625q-0.03125 -0.171875 -0.03125 -0.390625q0 -0.21875 0.03125 -0.390625q0.03125 -0.171875 0.078125 -0.28125q0.046875 -0.109375 0.125 -0.15625q0.078125 -0.046875 0.171875 -0.046875l10.546875 0q0.09375 0 0.171875 0.046875q0.078125 0.046875 0.125 0.15625q0.046875 0.109375 0.0625 0.28125q0.03125 0.171875 0.03125 0.390625zm6.6445312 4.140625q0 0.265625 -0.015625 0.4375q0 0.171875 -0.046875 0.28125q-0.03125 0.09375 -0.078125 0.15625q-0.046875 0.046875 -0.140625 0.046875q-0.09375 0 -0.234375 -0.046875q-0.140625 -0.0625 -0.3125 -0.109375q-0.15625 -0.0625 -0.375 -0.109375q-0.203125 -0.046875 -0.453125 -0.046875q-0.296875 0 -0.578125 0.125q-0.28125 0.109375 -0.59375 0.390625q-0.3125 0.265625 -0.65625 0.71875q-0.328125 0.4375 -0.734375 1.078125l0 6.9375q0 0.09375 -0.046875 0.15625q-0.046875 0.0625 -0.15625 0.125q-0.109375 0.046875 -0.296875 0.0625q-0.1875 0.03125 -0.484375 0.03125q-0.28125 0 -0.46875 -0.03125q-0.1875 -0.015625 -0.296875 -0.0625q-0.109375 -0.0625 -0.15625 -0.125q-0.03125 -0.0625 -0.03125 -0.15625l0 -10.546875q0 -0.09375 0.03125 -0.15625q0.03125 -0.0625 0.140625 -0.109375q0.109375 -0.0625 0.265625 -0.078125q0.171875 -0.015625 0.4375 -0.015625q0.265625 0 0.421875 0.015625q0.171875 0.015625 0.265625 0.078125q0.09375 0.046875 0.140625 0.109375q0.046875 0.0625 0.046875 0.15625l0 1.53125q0.421875 -0.625 0.796875 -1.015625q0.390625 -0.40625 0.734375 -0.625q0.34375 -0.234375 0.671875 -0.328125q0.328125 -0.09375 0.671875 -0.09375q0.15625 0 0.34375 0.03125q0.203125 0.015625 0.40625 0.0625q0.21875 0.046875 0.375 0.109375q0.171875 0.046875 0.234375 0.109375q0.078125 0.0625 0.09375 0.109375q0.03125 0.046875 0.046875 0.140625q0.03125 0.078125 0.03125 0.234375q0 0.15625 0 0.421875zm9.65625 9.875q0 0.140625 -0.09375 0.21875q-0.09375 0.0625 -0.265625 0.09375q-0.15625 0.046875 -0.46875 0.046875q-0.296875 0 -0.484375 -0.046875q-0.1875 -0.03125 -0.265625 -0.09375q-0.078125 -0.078125 -0.078125 -0.21875l0 -1.0625q-0.6875 0.75 -1.546875 1.15625q-0.84375 0.40625 -1.796875 0.40625q-0.828125 0 -1.5 -0.21875q-0.671875 -0.21875 -1.15625 -0.625q-0.46875 -0.40625 -0.734375 -1.0q-0.265625 -0.609375 -0.265625 -1.359375q0 -0.890625 0.359375 -1.546875q0.375 -0.65625 1.046875 -1.09375q0.6875 -0.4375 1.671875 -0.65625q0.984375 -0.21875 2.203125 -0.21875l1.453125 0l0 -0.8125q0 -0.609375 -0.125 -1.078125q-0.125 -0.46875 -0.421875 -0.78125q-0.28125 -0.3125 -0.734375 -0.46875q-0.453125 -0.15625 -1.125 -0.15625q-0.71875 0 -1.296875 0.171875q-0.5625 0.171875 -0.984375 0.375q-0.421875 0.203125 -0.71875 0.375q-0.28125 0.171875 -0.421875 0.171875q-0.09375 0 -0.171875 -0.046875q-0.0625 -0.046875 -0.125 -0.140625q-0.046875 -0.09375 -0.078125 -0.234375q-0.015625 -0.15625 -0.015625 -0.328125q0 -0.296875 0.03125 -0.46875q0.046875 -0.171875 0.203125 -0.3125q0.171875 -0.15625 0.546875 -0.359375q0.390625 -0.21875 0.890625 -0.375q0.515625 -0.171875 1.109375 -0.28125q0.59375 -0.125 1.203125 -0.125q1.140625 0 1.9375 0.265625q0.796875 0.25 1.28125 0.75q0.5 0.5 0.71875 1.25q0.21875 0.734375 0.21875 1.71875l0 7.109375zm-1.921875 -4.8125l-1.640625 0q-0.796875 0 -1.390625 0.140625q-0.578125 0.125 -0.96875 0.390625q-0.390625 0.265625 -0.578125 0.640625q-0.171875 0.359375 -0.171875 0.84375q0 0.8125 0.515625 1.296875q0.53125 0.484375 1.46875 0.484375q0.75 0 1.40625 -0.375q0.65625 -0.390625 1.359375 -1.1875l0 -2.234375zm14.558594 4.796875q0 0.09375 -0.046875 0.15625q-0.046875 0.0625 -0.15625 0.125q-0.09375 0.046875 -0.28125 0.0625q-0.1875 0.03125 -0.46875 0.03125q-0.296875 0 -0.484375 -0.03125q-0.1875 -0.015625 -0.296875 -0.0625q-0.109375 -0.0625 -0.15625 -0.125q-0.046875 -0.0625 -0.046875 -0.15625l0 -6.171875q0 -0.90625 -0.140625 -1.453125q-0.140625 -0.546875 -0.40625 -0.9375q-0.265625 -0.40625 -0.703125 -0.609375q-0.421875 -0.21875 -0.984375 -0.21875q-0.71875 0 -1.453125 0.515625q-0.71875 0.515625 -1.515625 1.5l0 7.375q0 0.09375 -0.046875 0.15625q-0.046875 0.0625 -0.15625 0.125q-0.109375 0.046875 -0.296875 0.0625q-0.1875 0.03125 -0.484375 0.03125q-0.28125 0 -0.46875 -0.03125q-0.1875 -0.015625 -0.296875 -0.0625q-0.109375 -0.0625 -0.15625 -0.125q-0.03125 -0.0625 -0.03125 -0.15625l0 -10.546875q0 -0.09375 0.03125 -0.15625q0.03125 -0.0625 0.140625 -0.109375q0.109375 -0.0625 0.265625 -0.078125q0.171875 -0.015625 0.4375 -0.015625q0.265625 0 0.421875 0.015625q0.171875 0.015625 0.265625 0.078125q0.09375 0.046875 0.140625 0.109375q0.046875 0.0625 0.046875 0.15625l0 1.390625q0.890625 -0.984375 1.765625 -1.453125q0.890625 -0.46875 1.796875 -0.46875q1.046875 0 1.765625 0.359375q0.71875 0.359375 1.15625 0.96875q0.453125 0.59375 0.640625 1.390625q0.203125 0.796875 0.203125 1.921875l0 6.4375zm10.15625 -2.875q0 0.8125 -0.3125 1.453125q-0.296875 0.625 -0.84375 1.0625q-0.546875 0.4375 -1.3125 0.65625q-0.765625 0.21875 -1.671875 0.21875q-0.5625 0 -1.078125 -0.09375q-0.5 -0.078125 -0.90625 -0.203125q-0.40625 -0.140625 -0.6875 -0.28125q-0.28125 -0.15625 -0.421875 -0.265625q-0.125 -0.125 -0.1875 -0.328125q-0.046875 -0.21875 -0.046875 -0.578125q0 -0.234375 0.015625 -0.375q0.03125 -0.15625 0.0625 -0.25q0.03125 -0.09375 0.09375 -0.125q0.078125 -0.046875 0.15625 -0.046875q0.125 0 0.375 0.15625q0.25 0.15625 0.625 0.34375q0.375 0.1875 0.875 0.34375q0.5 0.15625 1.15625 0.15625q0.5 0 0.890625 -0.09375q0.40625 -0.109375 0.6875 -0.3125q0.296875 -0.21875 0.453125 -0.53125q0.15625 -0.3125 0.15625 -0.75q0 -0.4375 -0.234375 -0.734375q-0.21875 -0.3125 -0.59375 -0.546875q-0.375 -0.234375 -0.84375 -0.421875q-0.46875 -0.1875 -0.96875 -0.375q-0.5 -0.203125 -0.96875 -0.453125q-0.46875 -0.25 -0.84375 -0.609375q-0.375 -0.375 -0.609375 -0.875q-0.234375 -0.5 -0.234375 -1.203125q0 -0.625 0.234375 -1.1875q0.25 -0.578125 0.734375 -1.0q0.484375 -0.4375 1.203125 -0.6875q0.71875 -0.265625 1.671875 -0.265625q0.421875 0 0.84375 0.078125q0.421875 0.0625 0.765625 0.171875q0.34375 0.109375 0.578125 0.234375q0.25 0.125 0.359375 0.21875q0.125 0.09375 0.171875 0.171875q0.046875 0.0625 0.0625 0.15625q0.015625 0.078125 0.03125 0.203125q0.015625 0.125 0.015625 0.3125q0 0.203125 -0.015625 0.359375q-0.015625 0.140625 -0.0625 0.234375q-0.03125 0.09375 -0.09375 0.140625q-0.0625 0.03125 -0.125 0.03125q-0.109375 0 -0.3125 -0.125q-0.203125 -0.125 -0.515625 -0.265625q-0.3125 -0.15625 -0.75 -0.28125q-0.421875 -0.140625 -0.96875 -0.140625q-0.5 0 -0.875 0.125q-0.375 0.109375 -0.609375 0.3125q-0.234375 0.203125 -0.359375 0.484375q-0.125 0.28125 -0.125 0.609375q0 0.453125 0.234375 0.765625q0.234375 0.3125 0.609375 0.546875q0.375 0.234375 0.84375 0.421875q0.484375 0.1875 0.984375 0.390625q0.5 0.1875 0.984375 0.4375q0.484375 0.25 0.859375 0.609375q0.375 0.34375 0.609375 0.84375q0.234375 0.484375 0.234375 1.15625zm4.6992188 2.875q0 0.09375 -0.046875 0.15625q-0.046875 0.0625 -0.15625 0.125q-0.109375 0.046875 -0.296875 0.0625q-0.1875 0.03125 -0.484375 0.03125q-0.28125 0 -0.46875 -0.03125q-0.1875 -0.015625 -0.296875 -0.0625q-0.109375 -0.0625 -0.15625 -0.125q-0.03125 -0.0625 -0.03125 -0.15625l0 -15.65625q0 -0.09375 0.03125 -0.15625q0.046875 -0.078125 0.15625 -0.125q0.109375 -0.046875 0.296875 -0.0625q0.1875 -0.03125 0.46875 -0.03125q0.296875 0 0.484375 0.03125q0.1875 0.015625 0.296875 0.0625q0.109375 0.046875 0.15625 0.125q0.046875 0.0625 0.046875 0.15625l0 15.65625zm11.5078125 0.015625q0 0.140625 -0.09375 0.21875q-0.09375 0.0625 -0.265625 0.09375q-0.15625 0.046875 -0.46875 0.046875q-0.296875 0 -0.484375 -0.046875q-0.1875 -0.03125 -0.265625 -0.09375q-0.078125 -0.078125 -0.078125 -0.21875l0 -1.0625q-0.6875 0.75 -1.546875 1.15625q-0.84375 0.40625 -1.796875 0.40625q-0.828125 0 -1.5 -0.21875q-0.671875 -0.21875 -1.15625 -0.625q-0.46875 -0.40625 -0.734375 -1.0q-0.265625 -0.609375 -0.265625 -1.359375q0 -0.890625 0.359375 -1.546875q0.375 -0.65625 1.046875 -1.09375q0.6875 -0.4375 1.671875 -0.65625q0.984375 -0.21875 2.203125 -0.21875l1.453125 0l0 -0.8125q0 -0.609375 -0.125 -1.078125q-0.125 -0.46875 -0.421875 -0.78125q-0.28125 -0.3125 -0.734375 -0.46875q-0.453125 -0.15625 -1.125 -0.15625q-0.71875 0 -1.296875 0.171875q-0.5625 0.171875 -0.984375 0.375q-0.421875 0.203125 -0.71875 0.375q-0.28125 0.171875 -0.421875 0.171875q-0.09375 0 -0.171875 -0.046875q-0.0625 -0.046875 -0.125 -0.140625q-0.046875 -0.09375 -0.078125 -0.234375q-0.015625 -0.15625 -0.015625 -0.328125q0 -0.296875 0.03125 -0.46875q0.046875 -0.171875 0.203125 -0.3125q0.171875 -0.15625 0.546875 -0.359375q0.390625 -0.21875 0.890625 -0.375q0.515625 -0.171875 1.109375 -0.28125q0.59375 -0.125 1.203125 -0.125q1.140625 0 1.9375 0.265625q0.796875 0.25 1.28125 0.75q0.5 0.5 0.71875 1.25q0.21875 0.734375 0.21875 1.71875l0 7.109375zm-1.921875 -4.8125l-1.640625 0q-0.796875 0 -1.390625 0.140625q-0.578125 0.125 -0.96875 0.390625q-0.390625 0.265625 -0.578125 0.640625q-0.171875 0.359375 -0.171875 0.84375q0 0.8125 0.515625 1.296875q0.53125 0.484375 1.46875 0.484375q0.75 0 1.40625 -0.375q0.65625 -0.390625 1.359375 -1.1875l0 -2.234375zm10.7421875 4.03125q0 0.328125 -0.046875 0.53125q-0.046875 0.203125 -0.140625 0.296875q-0.09375 0.09375 -0.28125 0.1875q-0.1875 0.078125 -0.4375 0.125q-0.234375 0.046875 -0.5 0.078125q-0.265625 0.046875 -0.546875 0.046875q-0.8125 0 -1.40625 -0.21875q-0.578125 -0.21875 -0.953125 -0.65625q-0.375 -0.4375 -0.546875 -1.109375q-0.171875 -0.6875 -0.171875 -1.59375l0 -6.171875l-1.46875 0q-0.1875 0 -0.296875 -0.1875q-0.09375 -0.1875 -0.09375 -0.609375q0 -0.21875 0.03125 -0.359375q0.03125 -0.15625 0.078125 -0.25q0.046875 -0.109375 0.109375 -0.140625q0.078125 -0.046875 0.171875 -0.046875l1.46875 0l0 -2.515625q0 -0.078125 0.03125 -0.140625q0.046875 -0.078125 0.15625 -0.125q0.125 -0.0625 0.3125 -0.078125q0.1875 -0.03125 0.46875 -0.03125q0.28125 0 0.46875 0.03125q0.1875 0.015625 0.296875 0.078125q0.109375 0.046875 0.15625 0.125q0.046875 0.0625 0.046875 0.140625l0 2.515625l2.703125 0q0.09375 0 0.15625 0.046875q0.078125 0.03125 0.125 0.140625q0.0625 0.09375 0.078125 0.25q0.03125 0.140625 0.03125 0.359375q0 0.421875 -0.109375 0.609375q-0.109375 0.1875 -0.28125 0.1875l-2.703125 0l0 5.890625q0 1.09375 0.3125 1.65625q0.328125 0.546875 1.15625 0.546875q0.28125 0 0.484375 -0.046875q0.21875 -0.0625 0.375 -0.109375q0.171875 -0.0625 0.28125 -0.109375q0.125 -0.0625 0.21875 -0.0625q0.046875 0 0.09375 0.03125q0.0625 0.03125 0.09375 0.109375q0.03125 0.078125 0.046875 0.21875q0.03125 0.140625 0.03125 0.359375zm11.296875 -4.96875q0 0.46875 -0.234375 0.65625q-0.21875 0.1875 -0.515625 0.1875l-6.921875 0q0 0.890625 0.171875 1.59375q0.1875 0.703125 0.59375 1.203125q0.40625 0.5 1.0625 0.78125q0.65625 0.265625 1.609375 0.265625q0.75 0 1.328125 -0.125q0.59375 -0.125 1.015625 -0.28125q0.4375 -0.15625 0.703125 -0.265625q0.28125 -0.125 0.421875 -0.125q0.078125 0 0.140625 0.046875q0.078125 0.03125 0.109375 0.109375q0.03125 0.078125 0.046875 0.234375q0.015625 0.140625 0.015625 0.359375q0 0.140625 -0.015625 0.265625q0 0.109375 -0.015625 0.203125q-0.015625 0.078125 -0.0625 0.15625q-0.046875 0.0625 -0.109375 0.125q-0.0625 0.0625 -0.375 0.21875q-0.3125 0.140625 -0.828125 0.28125q-0.5 0.140625 -1.171875 0.25q-0.65625 0.109375 -1.40625 0.109375q-1.296875 0 -2.28125 -0.359375q-0.96875 -0.359375 -1.640625 -1.078125q-0.671875 -0.71875 -1.015625 -1.796875q-0.328125 -1.078125 -0.328125 -2.5q0 -1.359375 0.34375 -2.4375q0.359375 -1.09375 1.015625 -1.84375q0.671875 -0.765625 1.609375 -1.171875q0.9375 -0.40625 2.09375 -0.40625q1.234375 0 2.109375 0.40625q0.875 0.390625 1.4375 1.078125q0.5625 0.671875 0.828125 1.578125q0.265625 0.90625 0.265625 1.9375l0 0.34375zm-1.953125 -0.5625q0.046875 -1.53125 -0.671875 -2.390625q-0.703125 -0.875 -2.09375 -0.875q-0.71875 0 -1.265625 0.28125q-0.53125 0.265625 -0.90625 0.71875q-0.359375 0.4375 -0.5625 1.03125q-0.1875 0.578125 -0.21875 1.234375l5.71875 0z" fill-rule="nonzero"/></g></svg>