<?xml version="1.0" encoding="utf-8"?>
<!-- Generator: Adobe Illustrator 26.5.0, SVG Export Plug-In . SVG Version: 6.00 Build 0)  -->
<svg version="1.1" id="Layer_1" xmlns="http://www.w3.org/2000/svg" xmlns:xlink="http://www.w3.org/1999/xlink" x="0px" y="0px"
	 viewBox="0 0 1687 637.7" style="enable-background:new 0 0 1687 637.7;" xml:space="preserve">
<style type="text/css">
	.st0{fill:#422626;}
	.st1{fill:#FFFFFF;}
	.st2{fill:#A80050;}
	.st3{fill:none;stroke:#fff;}
	.st4{fill:none;stroke:#FFFFFF;stroke-width:9;stroke-miterlimit:10;}
	.st5{fill:#AA0554;}
</style>
<g>
	<path class="st3" d="M1436.8,383.9l-5.5-13.5l-9,22c0,0,0,0,0,0C1425.7,389.3,1430.4,386.1,1436.8,383.9z"/>
	<path class="st3" d="M1179.4,265.8C1179.4,265.8,1179.4,265.8,1179.4,265.8c3.4-3.2,8.1-6.4,14.5-8.6l-5.5-13.5L1179.4,265.8z"/>
	<path class="st3" d="M1050.6,263.9C1050.7,263.9,1050.7,263.9,1050.6,263.9c2.7-2.6,6.5-5.1,11.6-6.9l-4.4-10.8L1050.6,263.9z"/>
	<path class="st3" d="M887.4,239.6c-2.6-1.9-5.5-2.9-8.7-2.9c-2.9,0-5.5,0.8-7.7,2.3c-2.2,1.5-4,3.6-5.3,6.4c-1.3,2.8-1.9,6-1.9,9.8
		c0,4.6,0.8,8.7,2.3,12.2c1.6,3.5,3.7,6.2,6.3,8.1c2.7,1.9,5.6,2.9,8.9,2.9c2.9,0,5.5-0.8,7.7-2.3c2.2-1.5,3.9-3.7,5.2-6.4
		c1.2-2.8,1.9-6,1.9-9.8c0-4.6-0.8-8.7-2.3-12.1C892.1,244.2,890.1,241.5,887.4,239.6z"/>
	<path class="st3" d="M630.4,231.2c-4-2.8-8.4-4.1-13.2-4.1c-4.5,0-8.4,1.1-11.8,3.3c-3.4,2.2-6.1,5.3-8,9.4
		c-1.9,4-2.9,8.8-2.9,14.3c0,6.7,1.2,12.6,3.5,17.6c2.4,5,5.5,8.9,9.6,11.7c4,2.8,8.5,4.1,13.5,4.1c4.4,0,8.4-1.1,11.7-3.3
		c3.4-2.2,6-5.4,7.9-9.4c1.9-4,2.8-8.8,2.8-14.3c0-6.7-1.2-12.6-3.5-17.6C637.6,237.9,634.4,234,630.4,231.2z"/>
	<path class="st3" d="M878,380c1.9-1.7,2.9-3.9,2.9-6.5c0-2.7-0.9-4.9-2.8-6.4c-1.9-1.6-4.5-2.3-7.8-2.3H866v17.8h4.7
		C873.6,382.6,876.1,381.7,878,380z"/>
	<path class="st3" d="M1102.9,398.9c2.1,1.5,4.5,2.3,7.1,2.3c2.3,0,4.4-0.6,6.1-1.8c1.8-1.2,3.1-2.9,4.1-5.2c1-2.2,1.5-4.8,1.5-7.9
		c0-3.7-0.6-6.9-1.8-9.7c-1.2-2.8-2.9-4.9-5-6.5c-2.1-1.5-4.4-2.3-7-2.3c-2.3,0-4.4,0.6-6.2,1.8c-1.8,1.2-3.2,2.9-4.2,5.1
		c-1,2.2-1.5,4.8-1.5,7.9c0,3.7,0.6,7,1.9,9.7C1099.1,395.2,1100.8,397.4,1102.9,398.9z"/>
	<path class="st3" d="M1278.5,383.9l-5.5-13.5l-9,22c0,0,0,0,0,0C1267.4,389.3,1272.1,386.1,1278.5,383.9z"/>
	<polygon points="695.4,277.3 678.4,277.3 678.4,238 685,235.1 685,234 665.1,234 665.1,235.1 670.9,238 670.9,277.3 665.1,280.1 
		665.1,281.3 701.7,281.3 701.7,265 700.5,265 	"/>
	<polygon points="742.6,277.3 725.6,277.3 725.6,238 732.1,235.1 732.1,234 712.3,234 712.3,235.1 718.1,238 718.1,277.3 
		712.3,280.1 712.3,281.3 748.8,281.3 748.8,265 747.7,265 	"/>
	<path d="M786.2,257.9c-1.9-1.3-4.3-2.6-7.1-4c-3.2-1.5-5.6-3-7.1-4.3c-1.5-1.3-2.2-3.2-2.2-5.5c0-2.1,0.7-3.8,2-5.2
		c1.4-1.4,3.1-2.1,5.1-2.1c1.6,0,3,0.3,4.2,0.8c1.2,0.5,2.6,1.4,4.2,2.6l3.7,7.7h1.1l-0.7-11.5c-1.9-1-3.8-1.8-5.8-2.3
		c-2-0.5-4.1-0.8-6.3-0.8c-1.9,0-3.8,0.4-5.5,1.1s-3.4,1.8-4.8,3c-1.4,1.3-2.6,2.7-3.4,4.3c-0.8,1.6-1.3,3.3-1.3,5
		c0,3.2,0.9,5.8,2.7,7.6c1.8,1.8,4.4,3.5,7.8,5.1c2.5,1.2,4.7,2.3,6.4,3.3c1.7,0.9,3.1,2,3.9,3.2c0.9,1.2,1.3,2.7,1.3,4.7
		c0,2.5-0.8,4.4-2.4,5.9c-1.6,1.4-3.8,2.1-6.6,2.1c-1.6,0-3.2-0.3-4.9-0.9c-1.6-0.6-3.3-1.6-4.9-3l-3.8-7.8H761l0.7,11.8
		c2.2,1.1,4.4,1.9,6.6,2.5c2.1,0.6,4.7,0.9,7.7,0.9c1.8,0,3.6-0.3,5.5-0.9c1.8-0.6,3.5-1.5,5.1-2.7c1.6-1.2,2.8-2.6,3.8-4.3
		c1-1.7,1.4-3.7,1.4-5.9c0-2.4-0.5-4.4-1.4-6C789.5,260.5,788.1,259.1,786.2,257.9z"/>
	<path d="M838.3,274.9c-1.3,0.9-2.9,1.7-4.6,2.4c-1.7,0.7-3.8,1-6.3,1c-3,0-5.8-0.8-8.2-2.5c-2.5-1.7-4.5-4.1-5.9-7.3
		c-1.5-3.2-2.2-7-2.2-11.4c0-4,0.8-7.5,2.3-10.5c1.5-3,3.6-5.4,6.2-7.1c2.6-1.7,5.6-2.6,8.9-2.6c1.6,0,3.1,0.3,4.4,0.8
		c1.3,0.5,2.8,1.4,4.4,2.5l4.9,9.3h1.3l-0.4-12.8c-1.3-0.7-2.7-1.3-4-1.8c-1.3-0.5-2.8-0.9-4.5-1.2c-1.7-0.3-3.7-0.5-6.2-0.5
		c-3.4,0-6.6,0.7-9.6,2c-3,1.4-5.7,3.2-8,5.6c-2.3,2.4-4.1,5.1-5.5,8.2c-1.3,3.1-2,6.3-2,9.7c0,4.4,1,8.4,2.9,11.9
		c2,3.5,4.7,6.2,8.3,8.2c3.6,2,7.8,3,12.8,3c3.8,0,6.9-0.3,9.3-1c2.4-0.7,4.6-1.5,6.7-2.6l0.9-11.5h-1.2L838.3,274.9z"/>
	<path d="M897.1,240.2c-2.2-2.2-4.7-3.9-7.7-5.1c-2.9-1.2-6.1-1.8-9.6-1.8s-6.6,0.6-9.6,1.8c-2.9,1.2-5.5,2.9-7.7,5.1
		c-2.2,2.2-3.9,4.7-5.1,7.7c-1.2,3-1.8,6.2-1.8,9.7c0,3.5,0.6,6.8,1.8,9.7c1.2,3,2.9,5.5,5.1,7.7c2.2,2.2,4.7,3.9,7.7,5.1
		c2.9,1.2,6.1,1.8,9.6,1.8s6.6-0.6,9.6-1.8c2.9-1.2,5.5-2.9,7.7-5.1c2.2-2.2,3.9-4.7,5.1-7.7c1.2-3,1.8-6.2,1.8-9.7
		c0-3.5-0.6-6.8-1.8-9.7C900.9,244.9,899.2,242.3,897.1,240.2z M894.1,269.7c-1.2,2.8-3,4.9-5.2,6.4c-2.2,1.5-4.8,2.3-7.7,2.3
		c-3.2,0-6.2-1-8.9-2.9c-2.7-1.9-4.8-4.6-6.3-8.1c-1.6-3.5-2.3-7.5-2.3-12.2c0-3.8,0.6-7,1.9-9.8c1.3-2.8,3-4.9,5.3-6.4
		c2.2-1.5,4.8-2.3,7.7-2.3c3.2,0,6.1,1,8.7,2.9c2.6,1.9,4.7,4.6,6.2,8.1c1.5,3.5,2.3,7.5,2.3,12.1
		C896,263.6,895.3,266.9,894.1,269.7z"/>
	<polygon points="912.2,235.1 918,238 918,277.3 912.2,280.1 912.2,281.3 931.3,281.3 931.3,280.1 925.5,277.3 925.5,238 
		931.3,235.1 931.3,234 912.2,234 	"/>
	<polygon points="972.7,277.3 955.8,277.3 955.8,238 962.3,235.1 962.3,234 942.4,234 942.4,235.1 948.2,238 948.2,277.3 
		942.4,280.1 942.4,281.3 979,281.3 979,265 977.8,265 	"/>
	<polygon points="1022.8,239.6 1028.7,241.9 1028.7,265.7 1006.7,238.7 997.7,238.7 997.7,239.6 1002.3,242.1 1002.3,273.4 
		997.6,275.7 997.6,276.6 1012.2,276.6 1012.2,275.7 1006.3,273.4 1006.3,247.5 1030.2,276.9 1032.7,276.9 1032.7,241.9 
		1037.3,239.6 1037.3,238.7 1022.8,238.7 	"/>
	<path d="M1068.8,258.1C1068.8,258.1,1068.8,258.1,1068.8,258.1c1.7-0.3,3.5-0.5,5.4-0.5l-1.1-2.6c-1.9,0.1-3.7,0.3-5.4,0.6
		c0,0,0,0,0,0l-7.1-17.2h-3.1l-14.7,35.2l-3.6,1.9v0.9h12.3v-0.9l-4.7-1.9c0.7-1.7,4.6-10.2,16.4-14.1c0,0,0,0,0,0l5.7,14l-5,2v0.9
		h15.1v-0.9l-3.8-2.1L1068.8,258.1z M1050.7,263.9C1050.7,263.9,1050.7,263.9,1050.7,263.9l7.2-17.6l4.4,10.8
		C1057.1,258.7,1053.4,261.3,1050.7,263.9z"/>
	<path d="M642.5,232.7c-3-3.1-6.5-5.5-10.5-7.2c-4-1.7-8.4-2.6-13.1-2.6c-4.7,0-9.1,0.9-13.1,2.6c-4,1.7-7.5,4.1-10.4,7.2
		c-2.9,3.1-5.2,6.7-6.9,10.9c-1.7,4.2-2.5,8.8-2.5,13.8c0,5,0.8,9.6,2.5,13.8c1.7,4.2,3.9,7.8,6.9,10.9c2.9,3.1,6.4,5.5,10.4,7.2
		c4,1.7,8.4,2.6,13.1,2.6c4.7,0,9.1-0.9,13.1-2.6c4-1.7,7.5-4.1,10.5-7.2c3-3.1,5.3-6.7,6.9-10.9c1.7-4.2,2.5-8.8,2.5-13.8
		c0-5-0.8-9.6-2.5-13.8C647.7,239.4,645.4,235.8,642.5,232.7z M640.7,274.7c-1.9,4-4.5,7.2-7.9,9.4c-3.4,2.2-7.3,3.3-11.7,3.3
		c-5,0-9.5-1.4-13.5-4.1c-4-2.8-7.2-6.7-9.6-11.7c-2.4-5-3.5-10.9-3.5-17.6c0-5.5,1-10.2,2.9-14.3c1.9-4,4.6-7.2,8-9.4
		c3.4-2.2,7.4-3.3,11.8-3.3c4.9,0,9.3,1.4,13.2,4.1c4,2.8,7.1,6.6,9.5,11.6c2.4,5,3.5,10.9,3.5,17.6
		C643.5,265.9,642.5,270.7,640.7,274.7z"/>
	<path d="M1475.1,235.3l5.7,2.9V255c-1.2,0.3-2.4,0.7-3.6,1.1c-6.6,2.2-11.4,5.5-14.9,8.8c-2,1.9-3.6,3.8-4.8,5.4v-32.1l5.7-2.9
		v-1.1h-19v1.1l5.8,2.9v39.2l-5.8,2.9v1.1h19v-1.1l-5.7-2.9v-0.5c1.2-2.8,6.5-13,21-17.8c0.7-0.2,1.5-0.4,2.3-0.6v18.9l-5.7,2.9v1.1
		h19v-1.1l-5.8-2.9v-20.4c1.4-0.2,2.9-0.3,4.5-0.4l-1.4-3.3c-1.1,0.1-2.1,0.2-3.1,0.3v-15.5l5.8-2.9v-1.1h-19V235.3z"/>
	<polygon points="1222.9,235.3 1228.8,238.2 1228.8,277.5 1222.9,280.4 1222.9,281.5 1242,281.5 1242,280.4 1236.2,277.5 
		1236.2,238.2 1242,235.3 1242,234.2 1222.9,234.2 	"/>
	<polygon points="1343.6,235.3 1349.5,238.2 1349.5,277.5 1343.6,280.4 1343.6,281.5 1362.8,281.5 1362.8,280.4 1356.9,277.5 
		1356.9,238.2 1362.8,235.3 1362.8,234.2 1343.6,234.2 	"/>
	<polygon points="1284.5,277.6 1267.6,277.6 1267.6,238.2 1274.1,235.3 1274.1,234.2 1254.2,234.2 1254.2,235.3 1260,238.2 
		1260,277.5 1254.2,280.4 1254.2,281.5 1290.8,281.5 1290.8,265.2 1289.6,265.2 	"/>
	<polygon points="1331.7,277.6 1314.7,277.6 1314.7,238.2 1321.3,235.3 1321.3,234.2 1301.4,234.2 1301.4,235.3 1307.2,238.2 
		1307.2,277.5 1301.4,280.4 1301.4,281.5 1338,281.5 1338,265.2 1336.8,265.2 	"/>
	<polygon points="1534.6,277.6 1515.8,277.6 1515.8,259.1 1527.7,259.1 1531.3,264.9 1532.5,264.9 1532.5,249.1 1531.3,249.1 
		1527.7,255.1 1515.8,255.1 1515.8,238.1 1532.6,238.1 1537.3,246.5 1538.4,246.5 1538.4,234.2 1502.5,234.2 1502.5,235.3 
		1508.3,238.2 1508.3,277.5 1502.5,280.4 1502.5,281.5 1540.4,281.5 1540.4,268.1 1539.3,268.1 	"/>
	<polygon points="1419.9,233.8 1417,233.8 1404,268.2 1403.5,268.2 1390.6,233.8 1387.6,233.8 1374.2,277.8 1369.4,280.3 
		1369.4,281.5 1385.3,281.5 1385.3,280.3 1379.2,277.6 1387.8,247.5 1388.3,247.5 1400.9,281.9 1403.9,281.9 1416.3,247.5 
		1416.7,247.5 1425.5,277.7 1419.4,280.3 1419.4,281.5 1438.7,281.5 1438.7,280.3 1433.2,277.7 	"/>
	<path d="M1202.1,258.5C1202.1,258.5,1202.1,258.5,1202.1,258.5c2.1-0.3,4.3-0.6,6.7-0.7l-1.3-3.2c-2.4,0.1-4.6,0.4-6.7,0.8
		c0,0,0,0,0,0l-8.9-21.5h-3.9l-18.4,44l-4.5,2.4v1.1h15.4v-1.1l-5.9-2.4c0.8-2.1,5.8-12.8,20.5-17.6c0,0,0,0,0,0l7.1,17.5l-6.3,2.5
		v1.1h18.9v-1.1l-4.8-2.6L1202.1,258.5z M1179.4,265.8C1179.4,265.8,1179.4,265.8,1179.4,265.8l9-22l5.5,13.5
		C1187.5,259.3,1182.8,262.5,1179.4,265.8z"/>
	<path d="M1135.8,264.2l8.9,3.2v17.7c-2.4,0.9-4.6,1.6-6.8,1.9c-2.2,0.3-4.5,0.5-6.8,0.5c-5.1,0-9.8-1.3-14.1-3.8
		c-4.3-2.6-7.7-6.2-10.3-11c-2.6-4.8-3.8-10.6-3.8-17.3c0-5.1,1.2-9.7,3.5-13.8c2.3-4.1,5.5-7.4,9.7-9.9c4.1-2.4,8.9-3.6,14.4-3.6
		c2.8,0,5.4,0.4,7.6,1.3c2.2,0.8,4.8,2.3,7.6,4.3l5.5,11.3h1.8l-0.5-16.3c-1.9-0.9-3.8-1.8-5.8-2.5c-2-0.7-4.2-1.3-6.7-1.7
		c-2.5-0.4-5.5-0.6-9.1-0.6c-4.9,0-9.4,0.9-13.8,2.7c-4.3,1.8-8.1,4.4-11.3,7.6c-3.2,3.3-5.8,7.1-7.6,11.5
		c-1.9,4.4-2.8,9.2-2.8,14.4c0,6.3,1.4,11.8,4.3,16.7c2.9,4.9,6.9,8.7,12,11.6c5.1,2.8,10.9,4.2,17.3,4.2c4.1,0,8.4-0.7,12.7-2.2
		c4.4-1.4,8-3.4,10.9-5.9v-17l7.3-3.2v-2h-24.1V264.2z"/>
	<rect x="586" y="318.9" width="954.4" height="3.3"/>
	<path d="M1095.1,398.5c1.7,1.7,3.8,3.1,6.1,4.1c2.4,1,4.9,1.5,7.7,1.5c2.8,0,5.3-0.5,7.7-1.5c2.4-1,4.4-2.3,6.1-4.1
		c1.7-1.7,3.1-3.8,4.1-6.2c1-2.4,1.5-5,1.5-7.8c0-2.8-0.5-5.4-1.5-7.8c-1-2.4-2.3-4.4-4.1-6.2c-1.7-1.7-3.8-3.1-6.1-4.1
		c-2.4-1-4.9-1.5-7.7-1.5c-2.8,0-5.3,0.5-7.7,1.5c-2.4,1-4.4,2.3-6.1,4.1c-1.7,1.7-3.1,3.8-4,6.2c-1,2.4-1.4,5-1.4,7.8
		c0,2.8,0.5,5.4,1.4,7.8C1092,394.7,1093.3,396.8,1095.1,398.5z M1097.5,374.8c1-2.2,2.4-3.9,4.2-5.1c1.8-1.2,3.9-1.8,6.2-1.8
		c2.6,0,4.9,0.8,7,2.3c2.1,1.5,3.8,3.7,5,6.5c1.2,2.8,1.8,6,1.8,9.7c0,3-0.5,5.6-1.5,7.9c-1,2.2-2.4,3.9-4.1,5.2
		c-1.8,1.2-3.8,1.8-6.1,1.8c-2.6,0-5-0.8-7.1-2.3c-2.1-1.5-3.8-3.7-5-6.5c-1.2-2.8-1.9-6-1.9-9.7
		C1096,379.6,1096.5,377,1097.5,374.8z"/>
	<polygon points="1151.4,402.6 1146.1,400.3 1146.1,385.5 1155,385.5 1158,390.2 1158.9,390.2 1158.9,377.6 1158,377.6 1155,382.4 
		1146.1,382.4 1146.1,368.8 1159.1,368.8 1162.7,375.5 1163.6,375.5 1163.6,365.6 1135.4,365.6 1135.4,366.6 1140.1,368.8 
		1140.1,400.3 1135.4,402.6 1135.4,403.5 1151.4,403.5 	"/>
	<polygon points="1343.8,391.9 1342.6,391.9 1337.6,404.3 1320.6,404.3 1320.6,364.9 1327.1,362.1 1327.1,360.9 1307.2,360.9 
		1307.2,362.1 1313,364.9 1313,404.2 1307.2,407.1 1307.2,408.2 1343.8,408.2 	"/>
	<polygon points="1361.9,408.6 1364.7,408.6 1377.8,374.2 1378.3,374.2 1391.2,408.6 1394.1,408.6 1407.6,364.6 1412.4,362.1 
		1412.4,360.9 1396.5,360.9 1396.5,362.1 1402.6,364.8 1393.9,395 1393.5,395 1380.9,360.5 1377.8,360.5 1365.4,395 1365,395 
		1356.3,364.7 1362.4,362.1 1362.4,360.9 1343.1,360.9 1343.1,362.1 1348.5,364.7 	"/>
	<polygon points="1475.2,386.1 1475.2,404.2 1468.7,407.1 1468.7,408.2 1489.1,408.2 1489.1,407.1 1482.6,404.2 1482.6,386.1 
		1497.8,364.4 1502.4,362.1 1502.4,360.9 1486.9,360.9 1486.9,362.1 1492.2,364.7 1492.2,365 1480.8,382.2 1468.1,364.9 
		1468.1,364.6 1473.3,362.1 1473.3,360.9 1454.8,360.9 1454.8,362.1 1459.3,364.6 	"/>
	<path d="M1265.1,407l-5.9-2.4c0.8-2.1,5.8-12.8,20.5-17.6c0,0,0,0,0,0l7.1,17.5l-6.3,2.5v1.1h18.9V407l-4.8-2.6l-7.9-19.1
		c0,0,0,0,0,0c2.1-0.3,4.3-0.6,6.7-0.7l-1.3-3.2c-2.4,0.1-4.6,0.4-6.7,0.8c0,0,0,0,0,0l-8.9-21.5h-3.9l-18.4,44l-4.5,2.4v1.1h15.4
		V407z M1273,370.5l5.5,13.5c-6.3,2.2-11,5.4-14.4,8.6c0,0,0,0,0,0L1273,370.5z"/>
	<path d="M1408,408.1h15.4V407l-5.9-2.4c0.8-2.1,5.8-12.8,20.5-17.6c0,0,0,0,0,0l7.1,17.5l-6.3,2.5v1.1h18.9V407l-4.8-2.6l-7.9-19.1
		c0,0,0,0,0,0c2.1-0.3,4.3-0.6,6.7-0.7l-1.3-3.2c-2.4,0.1-4.6,0.4-6.7,0.8c0,0,0,0,0,0l-8.9-21.5h-3.9l-18.4,44l-4.5,2.4V408.1z
		 M1431.3,370.5l5.5,13.5c-6.3,2.2-11,5.4-14.4,8.6c0,0,0,0,0,0L1431.3,370.5z"/>
	<path d="M1197.1,415c5.1,2.8,10.9,4.2,17.3,4.2c4.1,0,8.4-0.7,12.7-2.2c4.4-1.4,8-3.4,10.9-5.9v-17l7.3-3.2v-2h-24.1v2l8.9,3.2
		v17.7c-2.4,0.9-4.6,1.6-6.8,1.9c-2.2,0.3-4.5,0.5-6.8,0.5c-5.1,0-9.8-1.3-14.1-3.8c-4.3-2.6-7.7-6.2-10.3-11
		c-2.6-4.8-3.8-10.6-3.8-17.3c0-5.1,1.2-9.7,3.5-13.8c2.3-4.1,5.5-7.4,9.7-9.9c4.1-2.4,8.9-3.6,14.4-3.6c2.8,0,5.4,0.4,7.6,1.3
		c2.2,0.8,4.8,2.3,7.6,4.3l5.5,11.3h1.8l-0.5-16.3c-1.9-0.9-3.8-1.8-5.8-2.5c-2-0.7-4.2-1.3-6.7-1.7c-2.5-0.4-5.5-0.6-9.1-0.6
		c-4.9,0-9.4,0.9-13.8,2.7c-4.3,1.8-8.1,4.4-11.3,7.6c-3.2,3.3-5.8,7.1-7.6,11.5c-1.9,4.4-2.8,9.2-2.8,14.4c0,6.3,1.4,11.8,4.3,16.7
		C1188,408.3,1192,412.1,1197.1,415z"/>
	<polygon points="678.4,407 671,404.2 671,371.8 700.9,408.5 704,408.5 704,364.8 709.7,362 709.7,360.9 691.6,360.9 691.6,362 
		698.9,364.8 698.9,394.6 671.5,360.9 660.2,360.9 660.2,362 666,365 666,404.2 660.2,407 660.2,408.2 678.4,408.2 	"/>
	<polygon points="738.4,407 732.6,404.2 732.6,364.9 738.4,362 738.4,360.9 719.3,360.9 719.3,362 725.2,364.9 725.2,404.2 
		719.3,407 719.3,408.2 738.4,408.2 	"/>
	<polygon points="770.6,408.5 773.4,408.5 792.1,364.2 796.2,362 796.2,360.9 781.1,360.9 781.1,362 787,364.5 773.8,397 773.4,397 
		760,364.7 766.3,362 766.3,360.9 747.3,360.9 747.3,362 752.2,364.6 	"/>
	<polygon points="841.5,394.8 840.3,394.8 835.6,404.2 816.8,404.2 816.8,386.8 828.7,386.8 832.4,392.7 833.5,392.7 833.5,376.9 
		832.4,376.9 828.7,382.9 816.8,382.9 816.8,364.8 833.7,364.8 838.3,373.2 839.5,373.2 839.5,360.9 803.5,360.9 803.5,362 
		809.3,364.9 809.3,404.2 803.5,407 803.5,408.2 841.5,408.2 	"/>
	<path d="M871.4,407l-5.4-2.9v-17.7h6l13.8,21.8h11.5V407l-4.8-2.7l-13.5-20c3-1.1,5.4-2.7,7.2-4.7c1.8-2.1,2.7-4.4,2.7-7.1
		c0-3.6-1.4-6.5-4.3-8.6c-2.9-2.1-6.8-3.1-11.9-3.1h-19.9v1.1l5.8,2.9v39.3l-5.8,2.9v1.1h18.7V407z M866,364.8h4.2
		c3.3,0,6,0.8,7.8,2.3c1.9,1.6,2.8,3.7,2.8,6.4c0,2.6-1,4.8-2.9,6.5c-1.9,1.7-4.4,2.5-7.3,2.5H866V364.8z"/>
	<path d="M910,408c2.1,0.6,4.7,0.9,7.7,0.9c1.8,0,3.6-0.3,5.5-0.9c1.8-0.6,3.5-1.5,5.1-2.7c1.6-1.2,2.8-2.6,3.8-4.3
		c1-1.7,1.4-3.7,1.4-5.9c0-2.4-0.5-4.4-1.4-6c-0.9-1.6-2.3-3-4.2-4.3c-1.9-1.3-4.3-2.6-7.1-4c-3.2-1.5-5.6-3-7.1-4.3
		c-1.5-1.3-2.2-3.2-2.2-5.5c0-2.1,0.7-3.8,2-5.2c1.4-1.4,3.1-2.1,5.1-2.1c1.6,0,3,0.3,4.2,0.8c1.2,0.5,2.6,1.4,4.2,2.6l3.7,7.7h1.1
		l-0.7-11.5c-1.9-1-3.8-1.8-5.8-2.3c-2-0.5-4.1-0.8-6.3-0.8c-1.9,0-3.8,0.4-5.5,1.1c-1.8,0.8-3.4,1.8-4.8,3
		c-1.4,1.3-2.6,2.7-3.4,4.3c-0.8,1.6-1.3,3.3-1.3,5c0,3.2,0.9,5.8,2.7,7.6c1.8,1.8,4.4,3.5,7.8,5.1c2.5,1.2,4.7,2.3,6.4,3.3
		c1.7,0.9,3.1,2,3.9,3.2c0.9,1.2,1.3,2.7,1.3,4.7c0,2.5-0.8,4.4-2.4,5.9c-1.6,1.4-3.8,2.2-6.6,2.2c-1.6,0-3.2-0.3-4.9-0.9
		c-1.6-0.6-3.3-1.6-4.9-3l-3.8-7.8h-1.1l0.7,11.8C905.7,406.6,907.9,407.5,910,408z"/>
	<polygon points="965.7,407 959.9,404.2 959.9,364.9 965.7,362 965.7,360.9 946.6,360.9 946.6,362 952.4,364.9 952.4,404.2 
		946.6,407 946.6,408.2 965.7,408.2 	"/>
	<polygon points="982.5,364.8 993.8,364.8 993.8,404.2 986.6,407 986.6,408.2 1008.6,408.2 1008.6,407 1001.3,404.2 1001.3,364.8 
		1012.7,364.8 1017.7,375.6 1018.9,375.6 1018.9,360.9 976.3,360.9 976.3,375.6 977.4,375.6 	"/>
	<polygon points="1046,386.1 1046,404.2 1039.5,407 1039.5,408.2 1059.9,408.2 1059.9,407 1053.4,404.2 1053.4,386 1068.5,364.4 
		1073.2,362 1073.2,360.9 1057.7,360.9 1057.7,362 1063,364.7 1063,365 1051.6,382.2 1038.9,364.9 1038.9,364.6 1044.1,362 
		1044.1,360.9 1025.6,360.9 1025.6,362 1030.1,364.5 	"/>
	<path d="M594.1,390.8c0,6.1,1.1,11.1,3.3,15c2.2,3.8,5.3,6.7,9.2,8.5c3.9,1.8,8.3,2.7,13.2,2.7c4.9,0,9.3-0.9,13.2-2.7
		c3.9-1.8,6.9-4.7,9.2-8.5c2.2-3.8,3.3-8.8,3.3-15v-36.6l8-2.9v-2h-24v2l10.1,2.8v38.4c0,4.6-0.8,8.3-2.4,11.1
		c-1.6,2.8-3.7,4.9-6.3,6.2c-2.6,1.3-5.6,2-8.8,2c-3.9,0-7.4-0.7-10.4-2.1c-3-1.4-5.4-3.8-7.1-7c-1.7-3.3-2.6-7.7-2.6-13.3v-35.1
		l8.1-3v-2H586v2l8.1,3V390.8z"/>
	<path class="st2" d="M305.5,254.3c0,0-2.4,1.3-2.4,5.8v23.3l4.7-1.7v-23.3C307.8,255.6,305.5,254.3,305.5,254.3z"/>
	<path class="st2" d="M273.2,273.3c0.5,0.2,1.2,0.4,1.9,0.4c0.7,0,1.4-0.1,1.9-0.4c0.5-0.2,1-0.6,1.3-1c0.3-0.4,0.4-1,0.5-1.6
		c0-0.6-0.2-1.2-0.5-1.6c-0.3-0.5-0.7-0.9-1.3-1.1c-0.5-0.3-1.2-0.4-1.9-0.4c-0.7,0-1.3,0.1-1.9,0.4c-0.5,0.3-1,0.6-1.3,1.1
		c-0.3,0.5-0.5,1-0.5,1.6c0,0.6,0.1,1.1,0.4,1.6C272.2,272.7,272.6,273.1,273.2,273.3z"/>
	<path class="st2" d="M273.5,265.1c0.5,0.2,1,0.4,1.6,0.4c0.6,0,1.1-0.1,1.6-0.4c0.5-0.2,0.8-0.6,1.1-1c0.3-0.4,0.4-0.9,0.4-1.5
		c0-0.6-0.1-1-0.4-1.5c-0.3-0.4-0.6-0.7-1.1-1c-0.5-0.2-1-0.3-1.6-0.3c-0.6,0-1.2,0.1-1.6,0.3c-0.5,0.2-0.8,0.6-1.1,1
		c-0.3,0.4-0.4,0.9-0.4,1.5c0,0.6,0.1,1.1,0.4,1.5C272.7,264.5,273.1,264.8,273.5,265.1z"/>
	<path class="st2" d="M201.1,232.6l7,11.6c0,0,0,0,0,0c-0.3-2.7-0.1-5.9,1-9.5L201.1,232.6z"/>
	<path class="st2" d="M334.7,260.1c0-4.5-2.4-5.8-2.4-5.8s-2.3,1.3-2.3,4.1v23.3l4.7,1.7V260.1z"/>
	<path class="st2" d="M292.4,328.2l-0.7-0.2l-0.7,0.2c-1.2,0.3-3.3,1.8-3.3,4.6v19.8h7.9v-19.8C295.6,330.1,293.6,328.6,292.4,328.2
		z"/>
	<path class="st2" d="M319.6,319l-0.6-0.2l-0.6,0.2c-3.1,1-9,4.9-9,12.9v21h19v-21C328.4,322.4,319.9,319.1,319.6,319z"/>
	<path class="st2" d="M350.1,332.8c0-2.7-2-4.2-3.2-4.6l-0.7-0.2l-0.7,0.2c-1.1,0.3-3.3,1.8-3.3,4.6v19.8h7.9V332.8z"/>
	<path class="st2" d="M319.6,252.5l-0.7-0.2l-0.7,0.2c-1.2,0.3-3.4,1.8-3.4,4.7v23.3h8v-23.3C322.9,254.5,320.8,253,319.6,252.5z"/>
	<polygon class="st2" points="356.1,269.7 356.1,269.8 361.7,269.8 361.7,261.1 361.6,261.1 	"/>
	<path class="st2" d="M232.8,432.8c2.6-0.4,5.9-0.4,9.6,0.7l1.8-8.1L232.8,432.8C232.8,432.8,232.8,432.8,232.8,432.8z"/>
	<path class="st2" d="M263.2,155.9c-90,30.8-138,128.7-107.3,218.7c30.8,90,128.7,138,218.7,107.3c90-30.8,138-128.7,107.3-218.7
		C451.1,173.2,353.2,125.1,263.2,155.9z M401.2,223.2l2.9,1.1l23.7-10.5l1.1,1.3l-9.9,18.2l0.2,0.2l19.5-7.2l1.1,1.2L426,249.4
		l0.9,3.3l-0.5,0.4l-7.1-8.2l0.5-0.4l3.4,1.6l9.7-14.9l-0.2-0.2l-19.3,7.5l-1.1-1.3l10-18.1l-0.2-0.2l-16.1,7.5l1.1,3.6l-0.5,0.4
		l-5.9-6.8L401.2,223.2z M385.8,351.5v-25.1H419c-0.7,8.7-2.4,17.1-5.1,25.1H385.8z M412.3,355.9c-4.8,12-11.8,22.9-20.5,32.1h-5.9
		v-32.1H412.3z M385.8,321.6v-10.2H419c0.2,2.4,0.3,4.9,0.3,7.4c0,0.9,0,1.9,0,2.8H385.8z M371.3,205.2l3.7,0.1l10.2-19.8l-2.2-3
		l0.3-0.6l9.6,4.9l-0.3,0.6l-3.7-0.1l-10.2,19.8l2.2,2.9l-0.3,0.6l-9.6-5L371.3,205.2z M325.7,193.6l3.5-1.2l3.1-22l-3-2.1l0.1-0.6
		l11.1,1.5l-0.1,0.6l-3.9,1.1l-3.1,22l9.5,1.3l3.8-6.5l0.6,0.1l-1.3,9.1l-20.5-2.8L325.7,193.6z M418.6,306.8h-3.9
		c-2.6-21.2-12.2-40.9-27.5-56.3c-17.1-17.1-39.4-27-63.3-28.2c-0.2-1.2-0.3-2.5-0.4-3.9C372.7,220.7,412.8,258.5,418.6,306.8z
		 M376.9,296.5v-8.3h4v99.8h-12.2v-99.8h4v8.3H376.9z M380.7,272.9c-0.5,0.9-1.2,1.6-2.1,2.1c-0.9,0.5-2,0.8-3.1,0.8
		c-1.1,0-2-0.2-2.9-0.6c-0.9-0.4-1.5-1-2.1-1.7c-0.5-0.7-0.8-1.6-0.8-2.5h2.6c0.1,0.8,0.4,1.4,1,1.9c0.6,0.5,1.3,0.7,2.2,0.7
		c0.7,0,1.3-0.2,1.8-0.5c0.5-0.3,0.9-0.7,1.2-1.3c0.3-0.6,0.5-1.2,0.5-1.9c0-0.7-0.2-1.4-0.5-1.9c-0.3-0.6-0.7-1-1.3-1.3
		c-0.5-0.3-1.2-0.5-1.9-0.5c-0.5,0-1.1,0.1-1.6,0.3c-0.5,0.2-1,0.4-1.3,0.7l-2.4-0.4l1-8.9h9.7v2.3h-7.5l-0.6,4.9h0.1
		c0.3-0.3,0.8-0.6,1.4-0.8c0.6-0.2,1.2-0.3,1.8-0.3c1.1,0,2,0.3,2.9,0.8c0.8,0.5,1.5,1.2,2,2.1c0.5,0.9,0.7,1.9,0.7,3
		C381.4,271,381.2,272,380.7,272.9z M323.4,370.6l-0.9-0.4c-2.2-0.9-4.7-0.9-7,0l-1,0.4c-3.9,1.5-6.5,5.2-6.5,9.4v7.9h0v0.1h-34.4
		v-0.1h0v-25h90.7v25h0v0.1h-34.4v-0.1h0V380C329.9,375.8,327.3,372.1,323.4,370.6z M260.5,260.5l-4.3,2.8v-2.6l4.4-2.9h2.6v17.8
		h-2.7v-15.1H260.5z M256.8,288.2h4v8.3h4.1v-8.3h4v99.8h-12.2V288.2z M268.8,270.9c0-0.8,0.1-1.4,0.5-2.1c0.3-0.6,0.7-1.2,1.3-1.6
		c0.5-0.4,1.2-0.7,1.8-0.8v-0.1c-0.9-0.2-1.6-0.7-2.1-1.4c-0.5-0.7-0.8-1.6-0.8-2.5c0-0.9,0.2-1.7,0.7-2.4c0.5-0.7,1.2-1.3,2-1.7
		c0.9-0.4,1.8-0.6,2.9-0.6c1.1,0,2.1,0.2,2.9,0.6c0.9,0.4,1.5,1,2,1.7c0.5,0.7,0.7,1.5,0.7,2.4c0,1-0.3,1.8-0.8,2.5
		c-0.5,0.7-1.2,1.2-2.1,1.4v0.1c0.7,0.1,1.3,0.4,1.8,0.8c0.5,0.4,1,1,1.3,1.6c0.3,0.6,0.5,1.3,0.5,2.1c0,1-0.3,1.8-0.8,2.6
		c-0.5,0.8-1.3,1.3-2.2,1.8c-1,0.4-2,0.6-3.3,0.6c-1.2,0-2.3-0.2-3.3-0.6c-1-0.4-1.7-1-2.2-1.8C269,272.7,268.8,271.9,268.8,270.9z
		 M318.9,285.5c-2.8,0-5.1,2.3-5.1,5.1c0,0.7,0.1,1.3,0.4,1.8l-10.9,7.6h-4.9v-47.9l11.2-4.1h18.8l11.2,4.1v47.9h-4.9l-11-7.6
		c0.2-0.6,0.4-1.2,0.4-1.8C324,287.8,321.7,285.5,318.9,285.5z M304.6,304.4l14.3-10l14.4,10H364v10.3h-29.4l-15.7-11l-15.7,11
		h-29.4v-10.3H304.6z M364,318.9v39.7h-90.2v-39.7h30.8l14.3-10l14.4,10H364z M364.2,272.1v3.4h-2.5v-3.4h-8.3v-2.2l7.6-12h3.3v11.9
		h2.3v2.3H364.2z M318.6,218.4c0.1,0,0.2,0,0.3,0c0.1,0,0.3,0,0.4,0c0.5,6.6,1.8,14.1,4.6,16.6c5.4,4.9,11.8,5.3,13.7,13.9l-9.1-3.3
		h-18.8l-9.1,3.3c1.9-8.6,8.2-9,13.7-13.9C316.8,232.5,318,225.1,318.6,218.4z M284.4,171.7l0.2,0.6l-3.2,2.4l5.2,21.6l9.3-2.2
		l1.2-7.4l0.6-0.2l2.1,9l-20.1,4.8l-0.1-0.6l2.8-2.3l-5.1-21.6l-3.6-0.8l-0.2-0.6L284.4,171.7z M314.4,218.5
		c-0.1,1.4-0.3,2.7-0.4,3.9c-24,1.2-46.3,11.1-63.4,28.2c-15.4,15.4-24.9,35-27.5,56.3h-3.9C224.9,258.5,265,220.7,314.4,218.5z
		 M223.8,351.5c-2.7-7.9-4.5-16.3-5.1-25.1h33.2v25.1H223.8z M251.9,355.9v32.1v0.1H246c-8.8-9.2-15.8-20.1-20.5-32.1H251.9z
		 M218.5,321.6c0-0.9,0-1.9,0-2.8c0-2.5,0.1-4.9,0.3-7.4h33.2v10.2H218.5z M241.2,189l0.4,0.5l-1.9,3.1l12.1,18.6l3.6-0.4l0.4,0.5
		l-9.1,5.9l-0.4-0.5l1.9-3.2L236.1,195l-3.7,0.4l-0.4-0.5L241.2,189z M197.8,227.6l12.9,3.3c0,0,0,0,0,0c0.5-1.1,1.2-2.2,1.9-3.3
		l1.9,0.5c-0.8,1.1-1.4,2.2-2,3.3c0,0,0,0,0,0l11.4,2.9l2.8-1.3l0.5,0.4l-6.5,8.6l-0.5-0.4l1-3.7l-10.4-2.8c0,0,0,0,0,0
		c-2.8,8.4,0.4,14.3,1,15.4l3.1-1.9l0.5,0.4l-5.3,7l-0.5-0.4l0.5-2.9l-13.8-23.5L197.8,227.6z M183.4,344.6
		c-2.4,0.1-4.3-1.8-4.4-4.1c-0.1-2.4,1.8-4.3,4.1-4.4c2.4-0.1,4.3,1.8,4.4,4.1C187.6,342.6,185.8,344.5,183.4,344.6z M182.4,299.8
		c-2-0.5-3.8-1.3-5.3-2.4c-1.5-1.2-2.8-2.5-3.7-4.2c-1-1.6-1.6-3.4-1.9-5.2c-0.3-1.9-0.2-3.8,0.3-5.7c0.3-1.4,0.7-2.6,1.1-3.5
		c0.4-0.9,0.8-1.8,1.3-2.5c0.5-0.7,1-1.4,1.5-2l6.7,1.3l-0.1,0.6l-5.4,1.7c-0.9,0.9-1.6,1.6-2,2.3c-0.4,0.7-0.8,1.5-1,2.5
		c-0.5,1.9-0.4,3.8,0.1,5.5c0.5,1.7,1.5,3.2,2.9,4.5c1.4,1.2,3.1,2.1,5.1,2.6c2.6,0.6,4.8,0.7,6.9,0.2c2-0.5,3.7-1.4,5-2.7
		c1.3-1.3,2.2-2.9,2.7-4.8c0.2-0.8,0.3-1.5,0.4-2.3c0.1-0.8,0.1-1.6,0-2.4l-6.7-1.6l-2.4,3.1l-0.6-0.1l2.5-10.4l0.6,0.1l1.1,3.2
		l6.2,1.5c0.5,1,0.9,2,1.1,3.3c0.2,1.2,0.3,2.5,0.3,3.7c0,1.3-0.1,2.5-0.4,3.6c-0.4,1.9-1.2,3.6-2.2,5c-1,1.5-2.2,2.7-3.7,3.6
		c-1.4,0.9-3,1.5-4.7,1.8C186,300.3,184.2,300.2,182.4,299.8z M213.2,400.4l-0.4-0.5l2.5-5.1c0-1.3-0.1-2.3-0.3-3.1
		c-0.2-0.8-0.6-1.6-1.1-2.4c-1.1-1.7-2.5-2.9-4.1-3.7c-1.6-0.8-3.4-1.1-5.2-1c-1.8,0.1-3.6,0.8-5.4,1.9c-2.2,1.4-3.8,3-4.9,4.9
		c-1,1.8-1.5,3.6-1.5,5.5c0,1.9,0.6,3.6,1.7,5.3c0.4,0.7,0.9,1.3,1.4,1.9c0.5,0.6,1.1,1.1,1.7,1.7l5.8-3.8l-0.6-3.9l0.5-0.4l5.8,9
		l-0.5,0.4l-3-1.4l-5.4,3.5c-1-0.3-2.1-0.8-3.1-1.5c-1-0.7-2-1.5-2.9-2.3c-0.9-0.9-1.7-1.8-2.3-2.8c-1.1-1.6-1.8-3.3-2.1-5.1
		c-0.4-1.7-0.4-3.5-0.1-5.1c0.3-1.7,1-3.2,1.9-4.7c1-1.4,2.2-2.7,3.8-3.7c1.7-1.1,3.6-1.9,5.5-2.2c1.9-0.3,3.8-0.3,5.6,0.2
		c1.8,0.4,3.5,1.2,5.1,2.2c1.6,1.1,2.9,2.5,4,4.1c0.8,1.2,1.4,2.3,1.8,3.2c0.4,0.9,0.7,1.8,0.9,2.6c0.2,0.8,0.3,1.7,0.4,2.5
		L213.2,400.4z M249.1,438.6c-1.2-0.7-2.3-1.4-3.4-1.9h0l-2.5,11.6l1.4,2.8l-0.4,0.5l-8.9-6.1l0.4-0.5l3.8,0.9l2.3-10.5h0
		c-8.5-2.5-14.2,0.9-15.3,1.6l2,3l-0.4,0.5l-7.2-5l0.4-0.5l2.9,0.4l22.9-14.7l1.8,1.3l-2.8,13c0,0,0,0,0,0c1.1,0.5,2.2,1.1,3.4,1.8
		L249.1,438.6z M304.4,392.4l-21.1,20.4c-12.3-4.6-23.4-11.6-32.9-20.4H304.4z M294.2,468.5l-20.1-4.7l0.1-0.6l3.6-0.8l5.1-21.6
		l-2.8-2.3l0.1-0.6l10.9,2.6l-0.1,0.6l-4,0.7l-5.1,21.7l9.4,2.2l4.4-6.1l0.6,0.1L294.2,468.5z M318.9,419.3
		c-10.8,0-21.1-1.7-30.8-4.8l22.4-22.1h17.7l22.2,21.8C340.4,417.5,329.9,419.3,318.9,419.3z M357.2,440.6l-3.2,25.8l-1.6,0.3
		l-10.6-17.8l-0.3,0l-3.9,20.4l-1.6,0.3l-11.7-23.1l-3.3-0.9l-0.1-0.6l10.7-1.9l0.1,0.6l-3.1,2.1l7.9,16l0.2,0l3.5-20.4l1.7-0.3
		l10.4,17.9l0.2,0l1.9-17.7l-3.7-0.9l-0.1-0.6l8.9-1.6l0.1,0.6L357.2,440.6z M355,412.6l-20.8-20.2h53.1
		C378,401,367.1,407.9,355,412.6z M405.6,442.7l-0.4-0.5l2.2-3.2l-9-6c-5.4,7-4.3,13.6-4,14.9l3.5-0.8l0.4,0.5l-7.3,4.9l-0.4-0.5
		l1.4-2.6l-5.4-26.7l1.9-1.3l11.1,7.3c0,0,0,0,0,0c0.9-0.8,1.8-1.7,2.9-2.5l1.7,1.1c-1.1,0.8-2.1,1.6-3,2.5c0,0,0,0,0,0l9.9,6.5
		l3.1-0.3l0.4,0.5L405.6,442.7z M438.9,410.7l-0.5-0.4l0.8-3.9l-8.3-5.9l-15.1,0.3l-2.6,1.3l-0.5-0.4l6-8.5l0.5,0.4l-0.5,3.3
		l0.1,0.1l12.1-0.2l-4.2-10.9l-0.1-0.1l-3,1.6l-0.5-0.4l5.1-7.2l0.5,0.4l-0.4,2.9l5.1,14l8.4,5.9l3.4-2l0.5,0.4L438.9,410.7z
		 M459.7,345c-2.5,0.1-4.5-1.8-4.6-4.3c-0.1-2.5,1.8-4.5,4.3-4.6c2.4-0.1,4.5,1.8,4.6,4.3C464.1,342.9,462.2,345,459.7,345z
		 M468,294.2l-2.4-2.8l-8.5,2.2c0.2,0.5,0.4,1.1,0.6,1.6l-1.6,1.2c-0.3-0.8-0.5-1.6-0.8-2.4l-11.1,2.9l-0.7,3.6l-0.6,0.2l-2.7-10.4
		l0.6-0.2l2.4,2.7l10.4-2.7c-0.2-0.4-0.5-0.8-0.7-1.2c-4.7-7.2-11-8.7-12.8-8.9l-0.3,0.1l-0.8,3.5l-0.6,0.2l-2.7-10.4l0.6-0.2
		l2.4,2.8l21.5-5.7l0.7-3.6l0.6-0.2l2.7,10.4l-0.6,0.2l-2.4-2.7l-17.6,4.6c1.1,0.4,2.4,1,3.7,1.8c2.3,1.5,4.8,3.6,7,6.9
		c0.4,0.6,0.7,1.2,1.1,1.8l9.2-2.4l0.7-3.5l0.6-0.2l2.7,10.4L468,294.2z"/>
	<path class="st2" d="M392.8,440.6C392.8,440.6,392.8,440.6,392.8,440.6c0.6-2.6,1.8-5.6,4.1-8.7l-6.9-4.6L392.8,440.6z"/>
	<polygon class="st1" points="277.2,175.7 282.4,197.3 279.6,199.6 279.7,200.3 299.8,195.5 297.7,186.5 297.1,186.7 295.9,194.1 
		286.5,196.4 281.4,174.7 284.6,172.3 284.4,171.7 273.5,174.3 273.7,174.9 	"/>
	<path class="st1" d="M411,436.4l-9.9-6.5c0,0,0,0,0,0c0.9-0.8,1.9-1.7,3-2.5l-1.7-1.1c-1.1,0.8-2,1.7-2.9,2.5c0,0,0,0,0,0
		l-11.1-7.3l-1.9,1.3l5.4,26.7l-1.4,2.6l0.4,0.5l7.3-4.9l-0.4-0.5l-3.5,0.8c-0.3-1.3-1.4-7.9,4-14.9l9,6l-2.2,3.2l0.4,0.5l8.9-6
		l-0.4-0.5L411,436.4z M392.8,440.6C392.8,440.6,392.8,440.6,392.8,440.6l-2.8-13.3l6.9,4.6C394.6,435,393.4,438,392.8,440.6z"/>
	<polygon class="st1" points="407.1,229.9 406,226.3 422,218.9 422.2,219 412.2,237.2 413.3,238.4 432.6,231 432.7,231.2 
		423.1,246.1 419.7,244.5 419.2,244.9 426.4,253.1 426.8,252.7 426,249.4 439.7,227.5 438.7,226.3 419.2,233.4 419,233.2 428.9,215 
		427.8,213.7 404,224.2 401.2,223.2 400.7,223.6 406.6,230.4 	"/>
	<polygon class="st1" points="441.6,403 433.2,397.1 428.2,383 428.6,380.1 428.1,379.7 423,386.9 423.5,387.3 426.5,385.7 
		426.6,385.8 430.8,396.7 418.7,396.9 418.6,396.8 419.1,393.6 418.6,393.2 412.5,401.7 413.1,402.1 415.7,400.8 430.8,400.6 
		439.2,406.4 438.4,410.4 438.9,410.7 445.6,401.3 445,401 	"/>
	<path class="st1" d="M465.3,283.8l-0.7,3.5l-9.2,2.4c-0.4-0.6-0.7-1.2-1.1-1.8c-2.2-3.3-4.7-5.4-7-6.9c-1.3-0.8-2.6-1.4-3.7-1.8
		l17.6-4.6l2.4,2.7l0.6-0.2l-2.7-10.4l-0.6,0.2l-0.7,3.6l-21.5,5.7l-2.4-2.8l-0.6,0.2l2.7,10.4l0.6-0.2l0.8-3.5l0.3-0.1
		c1.7,0.3,8,1.7,12.8,8.9c0.2,0.4,0.5,0.8,0.7,1.2l-10.4,2.7l-2.4-2.7l-0.6,0.2l2.7,10.4l0.6-0.2l0.7-3.6l11.1-2.9
		c0.3,0.8,0.6,1.5,0.8,2.4l1.6-1.2c-0.2-0.6-0.4-1.1-0.6-1.6l8.5-2.2l2.4,2.8l0.6-0.2l-2.7-10.4L465.3,283.8z"/>
	<path class="st1" d="M459.4,336.2c-2.5,0.1-4.4,2.1-4.3,4.6c0.1,2.4,2.1,4.4,4.6,4.3c2.4-0.1,4.4-2.1,4.3-4.6
		C463.9,338,461.9,336.1,459.4,336.2z"/>
	<path class="st1" d="M246.1,434.8l2.8-13l-1.8-1.3l-22.9,14.7l-2.9-0.4l-0.4,0.5l7.2,5l0.4-0.5l-2-3c1.1-0.7,6.8-4.1,15.3-1.6h0
		l-2.3,10.5l-3.8-0.9l-0.4,0.5l8.9,6.1l0.4-0.5l-1.4-2.8l2.5-11.6h0c1.1,0.5,2.2,1.1,3.4,1.9l0.4-2
		C248.4,435.9,247.3,435.3,246.1,434.8C246.1,434.8,246.1,434.8,246.1,434.8z M242.3,433.4c-3.7-1-6.9-1.1-9.6-0.7c0,0,0,0,0,0
		l11.4-7.4L242.3,433.4z"/>
	<polygon class="st1" points="350.7,439.6 350.8,440.3 354.4,441.2 352.6,458.8 352.3,458.9 341.9,441 340.3,441.3 336.7,461.6 
		336.5,461.7 328.6,445.7 331.8,443.6 331.7,443 320.9,444.9 321,445.5 324.3,446.5 336.1,469.6 337.7,469.3 341.6,448.9 
		341.8,448.8 352.4,466.7 354,466.4 357.2,440.6 359.6,438.7 359.5,438.1 	"/>
	<path class="st1" d="M196.1,294.6c1-1.5,1.7-3.1,2.2-5c0.3-1.1,0.4-2.3,0.4-3.6c0-1.3-0.1-2.5-0.3-3.7c-0.2-1.2-0.6-2.3-1.1-3.3
		l-6.2-1.5l-1.1-3.2l-0.6-0.1l-2.5,10.4l0.6,0.1l2.4-3.1l6.7,1.6c0.1,0.8,0.1,1.6,0,2.4c-0.1,0.8-0.2,1.5-0.4,2.3
		c-0.5,1.9-1.3,3.5-2.7,4.8c-1.3,1.3-3,2.2-5,2.7c-2,0.5-4.3,0.4-6.9-0.2c-2-0.5-3.7-1.3-5.1-2.6c-1.4-1.2-2.3-2.7-2.9-4.5
		c-0.5-1.7-0.6-3.6-0.1-5.5c0.2-1,0.6-1.8,1-2.5c0.4-0.7,1.1-1.4,2-2.3l5.4-1.7l0.1-0.6l-6.7-1.3c-0.5,0.6-1,1.3-1.5,2
		c-0.5,0.7-0.9,1.5-1.3,2.5c-0.4,0.9-0.7,2.1-1.1,3.5c-0.5,1.9-0.5,3.9-0.3,5.7c0.3,1.9,0.9,3.6,1.9,5.2c1,1.6,2.2,3,3.7,4.2
		c1.5,1.2,3.3,2,5.3,2.4c1.8,0.4,3.6,0.5,5.3,0.2c1.7-0.3,3.3-0.9,4.7-1.8C193.8,297.2,195.1,296,196.1,294.6z"/>
	<path class="st1" d="M183.1,336.1c-2.4,0.1-4.2,2-4.1,4.4c0.1,2.4,2,4.2,4.4,4.1c2.4-0.1,4.2-2,4.1-4.4
		C187.5,337.9,185.5,336,183.1,336.1z"/>
	<polygon class="st1" points="380.9,210.2 378.7,207.2 388.9,187.5 392.5,187.5 392.8,186.9 383.2,182 382.9,182.6 385.1,185.5 
		374.9,205.3 371.3,205.2 371,205.8 380.6,210.7 	"/>
	<polygon class="st1" points="347.3,188 346.7,187.9 342.9,194.4 333.4,193.1 336.4,171 340.3,169.9 340.4,169.3 329.3,167.7 
		329.2,168.4 332.2,170.4 329.2,192.4 325.7,193.6 325.6,194.2 346.1,197.1 	"/>
	<path class="st1" d="M217.5,391.3c-0.4-0.9-1-2-1.8-3.2c-1.1-1.7-2.4-3.1-4-4.1c-1.6-1.1-3.3-1.8-5.1-2.2c-1.8-0.4-3.7-0.5-5.6-0.2
		c-1.9,0.3-3.7,1-5.5,2.2c-1.6,1-2.9,2.3-3.8,3.7c-1,1.4-1.6,3-1.9,4.7c-0.3,1.7-0.3,3.4,0.1,5.1c0.4,1.7,1.1,3.4,2.1,5.1
		c0.6,1,1.4,1.9,2.3,2.8c0.9,0.9,1.9,1.7,2.9,2.3c1,0.7,2.1,1.2,3.1,1.5l5.4-3.5l3,1.4l0.5-0.4l-5.8-9l-0.5,0.4l0.6,3.9l-5.8,3.8
		c-0.7-0.5-1.2-1.1-1.7-1.7c-0.5-0.6-1-1.2-1.4-1.9c-1.1-1.7-1.6-3.4-1.7-5.3c0-1.9,0.5-3.7,1.5-5.5c1-1.8,2.7-3.4,4.9-4.9
		c1.7-1.1,3.5-1.8,5.4-1.9c1.8-0.1,3.6,0.2,5.2,1c1.6,0.8,3,2.1,4.1,3.7c0.5,0.8,0.9,1.6,1.1,2.4c0.2,0.8,0.3,1.8,0.3,3.1l-2.5,5.1
		l0.4,0.5l5.6-3.9c-0.1-0.8-0.2-1.7-0.4-2.5C218.2,393.1,217.9,392.2,217.5,391.3z"/>
	<polygon class="st1" points="236.1,195 248.2,213.6 246.3,216.8 246.7,217.4 255.7,211.5 255.4,210.9 251.8,211.4 239.7,192.7 
		241.5,189.6 241.2,189 232.1,194.9 232.5,195.5 	"/>
	<polygon class="st1" points="291.3,465.5 281.9,463.3 287,441.6 291,440.9 291.1,440.3 280.2,437.7 280.1,438.3 282.9,440.7 
		277.8,462.3 274.2,463.1 274.1,463.8 294.2,468.5 296.3,459.5 295.7,459.4 	"/>
	<path class="st1" d="M209.8,255.8l0.5,0.4l5.3-7l-0.5-0.4l-3.1,1.9c-0.7-1.1-3.8-7-1-15.4c0,0,0,0,0,0l10.4,2.8l-1,3.7l0.5,0.4
		l6.5-8.6l-0.5-0.4l-2.8,1.3l-11.4-2.9c0,0,0,0,0,0c0.6-1.1,1.2-2.2,2-3.3l-1.9-0.5c-0.7,1.1-1.4,2.2-1.9,3.3c0,0,0,0,0,0l-12.9-3.3
		l-1.3,1.8l13.8,23.5L209.8,255.8z M208.1,244.3C208.1,244.3,208.1,244.3,208.1,244.3l-7-11.6l8,2.1
		C208,238.4,207.8,241.6,208.1,244.3z"/>
	<path class="st1" d="M219.1,306.8h3.9c2.6-21.2,12.2-40.9,27.5-56.3c17.1-17.1,39.5-27,63.4-28.2c0.2-1.2,0.3-2.5,0.4-3.9
		C265,220.7,224.9,258.5,219.1,306.8z"/>
	<path class="st1" d="M251.9,311.5h-33.2c-0.2,2.4-0.3,4.9-0.3,7.4c0,0.9,0,1.9,0,2.8h33.5V311.5z"/>
	<path class="st1" d="M300.4,249l9.1-3.3h18.8l9.1,3.3c-1.9-8.6-8.2-9-13.7-13.9c-2.8-2.5-4-10-4.6-16.6c-0.1,0-0.3,0-0.4,0
		c-0.1,0-0.2,0-0.3,0c-0.5,6.6-1.8,14.1-4.6,16.6C308.6,240,302.3,240.3,300.4,249z"/>
	<path class="st1" d="M387.1,250.6c15.4,15.4,24.9,35,27.5,56.3h3.9c-5.8-48.3-45.9-86.1-95.2-88.3c0.1,1.4,0.3,2.7,0.4,3.9
		C347.7,223.6,370.1,233.5,387.1,250.6z"/>
	<path class="st1" d="M318.9,308.9l-14.3,10h-30.8v39.7H364v-39.7h-30.8L318.9,308.9z M295.6,352.7h-7.9v-19.8
		c0-2.8,2.2-4.3,3.3-4.6l0.7-0.2l0.7,0.2c1.2,0.5,3.2,1.9,3.2,4.6V352.7z M328.4,352.9h-19v-21c0-8,5.9-11.9,9-12.9l0.6-0.2l0.6,0.2
		c0.3,0.1,8.8,3.4,8.8,12.8V352.9z M342.2,332.8c0-2.8,2.2-4.3,3.3-4.6l0.7-0.2l0.7,0.2c1.2,0.5,3.2,1.9,3.2,4.6v19.8h-7.9V332.8z"
		/>
	<path class="st1" d="M334.6,300.1h4.9v-47.9l-11.2-4.1h-18.8l-11.2,4.1v47.9h4.9l10.9-7.6c-0.2-0.6-0.4-1.2-0.4-1.8
		c0-2.8,2.3-5.1,5.1-5.1c2.8,0,5.1,2.3,5.1,5.1c0,0.7-0.1,1.3-0.4,1.8L334.6,300.1z M330,258.4c0-2.8,2.3-4.1,2.3-4.1
		s2.4,1.3,2.4,5.8v23.3l-4.7-1.7V258.4z M307.8,281.7l-4.7,1.7v-23.3c0-4.5,2.4-5.8,2.4-5.8s2.3,1.3,2.3,4.1V281.7z M322.9,280.5h-8
		v-23.3c0-2.9,2.2-4.4,3.4-4.7l0.7-0.2l0.7,0.2c1.2,0.5,3.3,2,3.3,4.7V280.5z"/>
	<path class="st1" d="M251.9,326.5h-33.2c0.7,8.7,2.4,17.1,5.1,25.1h28.1V326.5z"/>
	<polygon class="st1" points="273.8,314.7 303.2,314.7 318.9,303.7 334.6,314.7 364,314.7 364,304.4 333.3,304.4 318.9,294.4 
		304.6,304.4 273.8,304.4 	"/>
	<path class="st1" d="M328.1,392.4h-17.7L288,414.5c9.7,3.1,20.1,4.8,30.8,4.8c11,0,21.6-1.8,31.5-5L328.1,392.4z"/>
	<path class="st1" d="M334.2,392.4l20.8,20.2c12-4.6,23-11.5,32.2-20.2H334.2z"/>
	<path class="st1" d="M304.4,392.4h-53.9c9.4,8.8,20.6,15.8,32.9,20.4L304.4,392.4z"/>
	<path class="st1" d="M419.3,318.9c0-2.5-0.1-4.9-0.3-7.4h-33.2v10.2h33.5C419.3,320.7,419.3,319.8,419.3,318.9z"/>
	<path class="st1" d="M251.9,388L251.9,388l-2.7-0.1L251.9,388v-32.1h-26.5c4.8,12,11.8,22.9,20.5,32.1H251.9z"/>
	<path class="st1" d="M419,326.5h-33.2v25.1h28.1C416.6,343.6,418.4,335.2,419,326.5z"/>
	<path class="st1" d="M385.8,388h5.9c8.8-9.2,15.8-20.1,20.5-32.1h-26.5V388z"/>
	<polygon class="st1" points="329.9,387.9 329.9,387.9 329.9,388 364.3,388 364.3,387.9 329.9,387.9 	"/>
	<polygon class="st1" points="273.6,387.9 273.6,388 308,388 308,387.9 308,387.9 308,387.9 	"/>
	<path class="st1" d="M364.3,387.9L364.3,387.9L364.3,387.9l0-25h-90.7v25h0v0H308V380c0-4.2,2.6-7.9,6.5-9.4l1-0.4
		c2.3-0.8,4.7-0.8,7,0l0.9,0.4c3.9,1.5,6.5,5.2,6.5,9.4v7.9H364.3z"/>
	<rect x="329.9" y="387.9" class="st1" width="34.4" height="0"/>
	<rect x="273.6" y="387.9" class="st1" width="34.4" height="0"/>
	<polygon class="st1" points="269,288.2 265,288.2 265,296.5 260.8,296.5 260.8,288.2 256.8,288.2 256.8,387.9 269,387.9 	"/>
	<polygon class="st1" points="368.8,288.2 368.8,387.9 381,387.9 381,288.2 376.9,288.2 376.9,296.5 372.8,296.5 372.8,288.2 	"/>
	<path class="st1" d="M380.7,266.8c-0.5-0.9-1.1-1.6-2-2.1c-0.8-0.5-1.8-0.8-2.9-0.8c-0.7,0-1.3,0.1-1.8,0.3c-0.6,0.2-1,0.5-1.4,0.8
		h-0.1l0.6-4.9h7.5v-2.3h-9.7l-1,8.9l2.4,0.4c0.3-0.3,0.8-0.5,1.3-0.7c0.5-0.2,1.1-0.3,1.6-0.3c0.7,0,1.3,0.2,1.9,0.5
		c0.5,0.3,1,0.8,1.3,1.3c0.3,0.6,0.5,1.2,0.5,1.9c0,0.7-0.2,1.3-0.5,1.9c-0.3,0.5-0.7,1-1.2,1.3c-0.5,0.3-1.1,0.5-1.8,0.5
		c-0.8,0-1.6-0.2-2.2-0.7c-0.6-0.5-0.9-1.1-1-1.9h-2.6c0,0.9,0.3,1.8,0.8,2.5c0.5,0.7,1.2,1.3,2.1,1.7c0.9,0.4,1.8,0.6,2.9,0.6
		c1.2,0,2.2-0.3,3.1-0.8c0.9-0.5,1.6-1.2,2.1-2.1c0.5-0.9,0.8-1.9,0.8-3.1C381.4,268.7,381.2,267.7,380.7,266.8z"/>
	<path class="st1" d="M366.6,269.8h-2.3v-11.9H361l-7.6,12v2.2h8.3v3.4h2.5v-3.4h2.3V269.8z M361.7,269.8h-5.6v-0.1l5.4-8.6h0.1
		V269.8z"/>
	<path class="st1" d="M271.8,275.3c1,0.4,2.1,0.6,3.3,0.6c1.2,0,2.3-0.2,3.3-0.6c1-0.4,1.7-1,2.2-1.8c0.5-0.8,0.8-1.6,0.8-2.6
		c0-0.8-0.2-1.4-0.5-2.1c-0.3-0.6-0.7-1.2-1.3-1.6c-0.5-0.4-1.1-0.7-1.8-0.8v-0.1c0.9-0.2,1.6-0.7,2.1-1.4c0.5-0.7,0.8-1.6,0.8-2.5
		c0-0.9-0.3-1.7-0.7-2.4c-0.5-0.7-1.2-1.3-2-1.7c-0.9-0.4-1.8-0.6-2.9-0.6c-1.1,0-2.1,0.2-2.9,0.6c-0.9,0.4-1.5,1-2,1.7
		c-0.5,0.7-0.7,1.5-0.7,2.4c0,1,0.3,1.8,0.8,2.5c0.5,0.7,1.2,1.2,2.1,1.4v0.1c-0.7,0.1-1.3,0.4-1.8,0.8c-0.5,0.4-1,1-1.3,1.6
		c-0.3,0.6-0.5,1.3-0.5,2.1c0,1,0.3,1.8,0.8,2.6C270.1,274.2,270.9,274.8,271.8,275.3z M272.1,262.6c0-0.6,0.1-1,0.4-1.5
		c0.3-0.4,0.6-0.7,1.1-1c0.5-0.2,1-0.3,1.6-0.3c0.6,0,1.1,0.1,1.6,0.3c0.5,0.2,0.8,0.6,1.1,1c0.3,0.4,0.4,0.9,0.4,1.5
		c0,0.6-0.1,1.1-0.4,1.5c-0.3,0.4-0.6,0.8-1.1,1c-0.5,0.2-1,0.4-1.6,0.4c-0.6,0-1.1-0.1-1.6-0.4c-0.5-0.2-0.8-0.6-1.1-1
		C272.2,263.6,272,263.1,272.1,262.6z M272,269.1c0.3-0.5,0.7-0.9,1.3-1.1c0.5-0.3,1.2-0.4,1.9-0.4c0.7,0,1.3,0.1,1.9,0.4
		c0.5,0.3,1,0.6,1.3,1.1c0.3,0.5,0.5,1,0.5,1.6c0,0.6-0.2,1.1-0.5,1.6c-0.3,0.4-0.7,0.8-1.3,1c-0.5,0.2-1.2,0.4-1.9,0.4
		c-0.7,0-1.4-0.1-1.9-0.4c-0.5-0.2-1-0.6-1.3-1c-0.3-0.4-0.4-1-0.4-1.6C271.5,270.1,271.6,269.6,272,269.1z"/>
	<polygon class="st1" points="263.3,275.7 263.3,257.9 260.7,257.9 256.3,260.8 256.3,263.3 260.5,260.5 260.6,260.5 260.6,275.7 	
		"/>
</g>
</svg>
