<svg version="1.1" viewBox="0.0 0.0 894.1259842519685 496.12335958005247" fill="none" stroke="none" stroke-linecap="square" stroke-miterlimit="10" xmlns:xlink="http://www.w3.org/1999/xlink" xmlns="http://www.w3.org/2000/svg"><clipPath id="p.0"><path d="m0 0l894.126 0l0 496.12335l-894.126 0l0 -496.12335z" clip-rule="nonzero"/></clipPath><g clip-path="url(#p.0)"><path fill="#000000" fill-opacity="0.0" d="m0 0l894.126 0l0 496.12335l-894.126 0z" fill-rule="evenodd"/><path fill="#c0504d" d="m93.70604 44.939632l29.637794 0l0 87.968506l-29.637794 0z" fill-rule="evenodd"/><path stroke="#1f497d" stroke-width="1.0" stroke-linejoin="round" stroke-linecap="butt" d="m93.70604 44.939632l29.637794 0l0 87.968506l-29.637794 0z" fill-rule="evenodd"/><path fill="#000000" d="m104.940414 92.66389l-2.09375 -5.53125l0.984375 0l1.1875 3.3125q0.1875 0.53125 0.359375 1.109375q0.109375 -0.4375 0.34375 -1.046875l1.21875 -3.375l0.96875 0l-2.09375 5.53125l-0.875 0z" fill-rule="nonzero"/><path fill="#000000" d="m110.690414 96.66389l-0.625 0l0 -3.984375q-0.234375 0.21875 -0.609375 0.4375q-0.359375 0.203125 -0.640625 0.3125l0 -0.59375q0.515625 -0.25 0.90625 -0.59375q0.390625 -0.359375 0.5625 -0.6875l0.40625 0l0 5.109375z" fill-rule="nonzero"/><path fill="#c0504d" d="m93.70604 144.12599l29.637794 0l0 87.96849l-29.637794 0z" fill-rule="evenodd"/><path stroke="#1f497d" stroke-width="1.0" stroke-linejoin="round" stroke-linecap="butt" d="m93.70604 144.12599l29.637794 0l0 87.96849l-29.637794 0z" fill-rule="evenodd"/><path fill="#000000" d="m104.940414 191.85023l-2.09375 -5.53125l0.984375 0l1.1875 3.3125q0.1875 0.53125 0.359375 1.109375q0.109375 -0.4375 0.34375 -1.046875l1.21875 -3.375l0.96875 0l-2.09375 5.53125l-0.875 0z" fill-rule="nonzero"/><path fill="#000000" d="m111.61229 195.25648l0 0.59375l-3.359375 0q-0.015625 -0.21875 0.0625 -0.4375q0.140625 -0.34375 0.421875 -0.671875q0.28125 -0.328125 0.8125 -0.765625q0.828125 -0.6875 1.125 -1.078125q0.296875 -0.40625 0.296875 -0.75q0 -0.375 -0.265625 -0.625q-0.265625 -0.265625 -0.703125 -0.265625q-0.453125 0 -0.71875 0.28125q-0.265625 0.265625 -0.28125 0.734375l-0.640625 -0.0625q0.078125 -0.71875 0.5 -1.09375q0.4375 -0.375 1.15625 -0.375q0.734375 0 1.15625 0.40625q0.4375 0.40625 0.4375 1.0q0 0.3125 -0.125 0.609375q-0.125 0.296875 -0.421875 0.625q-0.28125 0.3125 -0.96875 0.890625q-0.5625 0.46875 -0.71875 0.640625q-0.15625 0.171875 -0.265625 0.34375l2.5 0z" fill-rule="nonzero"/><path fill="#c0504d" d="m93.70604 243.31233l29.637794 0l0 87.96852l-29.637794 0z" fill-rule="evenodd"/><path stroke="#1f497d" stroke-width="1.0" stroke-linejoin="round" stroke-linecap="butt" d="m93.70604 243.31233l29.637794 0l0 87.96852l-29.637794 0z" fill-rule="evenodd"/><path fill="#000000" d="m104.940414 291.0366l-2.09375 -5.53125l0.984375 0l1.1875 3.3125q0.1875 0.53125 0.359375 1.109375q0.109375 -0.4375 0.34375 -1.046875l1.21875 -3.375l0.96875 0l-2.09375 5.53125l-0.875 0z" fill-rule="nonzero"/><path fill="#000000" d="m108.33104 293.69284l0.625 -0.078125q0.109375 0.53125 0.359375 0.765625q0.265625 0.234375 0.640625 0.234375q0.4375 0 0.734375 -0.296875q0.3125 -0.3125 0.3125 -0.765625q0 -0.4375 -0.28125 -0.71875q-0.28125 -0.28125 -0.71875 -0.28125q-0.171875 0 -0.4375 0.078125l0.0625 -0.546875q0.0625 0 0.109375 0q0.390625 0 0.703125 -0.203125q0.328125 -0.21875 0.328125 -0.640625q0 -0.34375 -0.234375 -0.5625q-0.21875 -0.234375 -0.59375 -0.234375q-0.359375 0 -0.609375 0.234375q-0.234375 0.21875 -0.3125 0.6875l-0.625 -0.125q0.109375 -0.625 0.515625 -0.96875q0.40625 -0.34375 1.015625 -0.34375q0.421875 0 0.765625 0.1875q0.359375 0.171875 0.53125 0.484375q0.1875 0.296875 0.1875 0.65625q0 0.328125 -0.171875 0.59375q-0.171875 0.265625 -0.515625 0.4375q0.4375 0.09375 0.6875 0.421875q0.25 0.328125 0.25 0.828125q0 0.65625 -0.484375 1.125q-0.484375 0.46875 -1.21875 0.46875q-0.671875 0 -1.125 -0.390625q-0.4375 -0.40625 -0.5 -1.046875z" fill-rule="nonzero"/><path fill="#c0504d" d="m93.70604 349.1942l29.637794 0l0 87.968506l-29.637794 0z" fill-rule="evenodd"/><path stroke="#1f497d" stroke-width="1.0" stroke-linejoin="round" stroke-linecap="butt" d="m93.70604 349.1942l29.637794 0l0 87.968506l-29.637794 0z" fill-rule="evenodd"/><path fill="#000000" d="m104.940414 396.9185l-2.09375 -5.53125l0.984375 0l1.1875 3.3125q0.1875 0.53125 0.359375 1.109375q0.109375 -0.4375 0.34375 -1.046875l1.21875 -3.375l0.96875 0l-2.09375 5.53125l-0.875 0z" fill-rule="nonzero"/><path fill="#000000" d="m110.33104 400.9185l0 -1.21875l-2.203125 0l0 -0.578125l2.3125 -3.296875l0.515625 0l0 3.296875l0.6875 0l0 0.578125l-0.6875 0l0 1.21875l-0.625 0zm0 -1.796875l0 -2.28125l-1.59375 2.28125l1.59375 0z" fill-rule="nonzero"/><path fill="#000000" fill-opacity="0.0" d="m0 72.66929l77.44882 0l0 34.4252l-77.44882 0z" fill-rule="evenodd"/><path fill="#000000" d="m16.475615 89.00054q-0.234375 -0.1875 -0.65625 -0.359375q-0.421875 -0.171875 -0.9375 -0.171875q-0.53125 0 -0.90625 0.203125q-0.375 0.1875 -0.625 0.53125q-0.234375 0.328125 -0.34375 0.796875q-0.109375 0.46875 -0.109375 1.0q0 1.21875 0.59375 1.875q0.609375 0.65625 1.609375 0.65625q0.5 0 0.84375 -0.046875q0.34375 -0.046875 0.53125 -0.09375l0 -4.390625zm0 -4.65625l1.234375 -0.21875l0 10.140625q-0.421875 0.125 -1.09375 0.234375q-0.65625 0.125 -1.53125 0.125q-0.796875 0 -1.4375 -0.25q-0.640625 -0.25 -1.09375 -0.71875q-0.453125 -0.46875 -0.703125 -1.140625q-0.234375 -0.671875 -0.234375 -1.515625q0 -0.796875 0.203125 -1.453125q0.203125 -0.671875 0.59375 -1.15625q0.40625 -0.484375 0.984375 -0.75q0.578125 -0.265625 1.328125 -0.265625q0.59375 0 1.046875 0.171875q0.46875 0.15625 0.703125 0.296875l0 -3.5zm5.70961 9.234375q0.453125 0 0.78125 -0.015625q0.34375 -0.03125 0.578125 -0.078125l0 -2.0625q-0.140625 -0.078125 -0.4375 -0.125q-0.296875 -0.046875 -0.734375 -0.046875q-0.28125 0 -0.59375 0.046875q-0.3125 0.046875 -0.578125 0.171875q-0.25 0.125 -0.421875 0.34375q-0.171875 0.21875 -0.171875 0.578125q0 0.671875 0.421875 0.9375q0.421875 0.25 1.15625 0.25zm-0.09375 -6.21875q0.734375 0 1.25 0.203125q0.515625 0.1875 0.828125 0.546875q0.3125 0.34375 0.4375 0.84375q0.140625 0.484375 0.140625 1.0625l0 4.328125q-0.15625 0.03125 -0.453125 0.078125q-0.28125 0.046875 -0.640625 0.078125q-0.359375 0.046875 -0.78125 0.078125q-0.421875 0.03125 -0.828125 0.03125q-0.59375 0 -1.09375 -0.125q-0.484375 -0.109375 -0.84375 -0.359375q-0.359375 -0.265625 -0.5625 -0.6875q-0.1875 -0.4375 -0.1875 -1.03125q0 -0.578125 0.234375 -0.984375q0.234375 -0.421875 0.625 -0.671875q0.40625 -0.25 0.9375 -0.375q0.53125 -0.125 1.109375 -0.125q0.1875 0 0.390625 0.03125q0.203125 0.015625 0.375 0.046875q0.1875 0.03125 0.3125 0.0625q0.140625 0.03125 0.203125 0.046875l0 -0.359375q0 -0.296875 -0.078125 -0.59375q-0.0625 -0.3125 -0.234375 -0.53125q-0.171875 -0.234375 -0.484375 -0.375q-0.296875 -0.140625 -0.765625 -0.140625q-0.625 0 -1.078125 0.09375q-0.453125 0.078125 -0.6875 0.171875l-0.140625 -1.03125q0.234375 -0.109375 0.796875 -0.203125q0.5625 -0.109375 1.21875 -0.109375zm10.222887 6.90625q-0.4218769 0.109375 -1.1250019 0.21875q-0.6875 0.125 -1.609375 0.125q-0.8125 0 -1.359375 -0.21875q-0.53125 -0.234375 -0.875 -0.65625q-0.328125 -0.4375 -0.484375 -1.015625q-0.140625 -0.578125 -0.140625 -1.28125l0 -3.90625l1.234375 0l0 3.625q0 1.265625 0.40625 1.8125q0.40625 0.546875 1.34375 0.546875q0.203125 0 0.40625 0q0.21875 -0.015625 0.40625 -0.03125q0.1875 -0.03125 0.34375 -0.046875q0.15625 -0.015625 0.21875 -0.046875l0 -5.859375l1.2343769 0l0 6.734375zm6.4784393 -0.484375q-0.15625 0.09375 -0.625 0.265625q-0.453125 0.171875 -1.0625 0.171875q-0.625 0 -1.1875 -0.203125q-0.546875 -0.203125 -0.96875 -0.625q-0.40625 -0.421875 -0.640625 -1.046875q-0.234375 -0.625 -0.234375 -1.484375q0 -0.765625 0.21875 -1.390625q0.234375 -0.640625 0.65625 -1.09375q0.4375 -0.46875 1.0625 -0.71875q0.625 -0.265625 1.40625 -0.265625q0.875 0 1.515625 0.125q0.65625 0.125 1.09375 0.234375l0 6.1875q0 1.59375 -0.828125 2.3125q-0.828125 0.71875 -2.5 0.71875q-0.65625 0 -1.234375 -0.109375q-0.578125 -0.09375 -1.015625 -0.25l0.234375 -1.078125q0.375 0.15625 0.90625 0.265625q0.546875 0.109375 1.125 0.109375q1.109375 0 1.59375 -0.4375q0.484375 -0.4375 0.484375 -1.40625l0 -0.28125zm-0.015625 -5.15625q-0.171875 -0.046875 -0.5 -0.09375q-0.3125 -0.046875 -0.84375 -0.046875q-1.0 0 -1.546875 0.65625q-0.53125 0.65625 -0.53125 1.734375q0 0.59375 0.15625 1.03125q0.15625 0.421875 0.40625 0.703125q0.265625 0.265625 0.609375 0.40625q0.34375 0.140625 0.703125 0.140625q0.484375 0 0.890625 -0.140625q0.421875 -0.140625 0.65625 -0.328125l0 -4.0625zm3.3755035 5.84375l0 -10.125l1.25 -0.21875l0 3.546875q0.34375 -0.140625 0.734375 -0.203125q0.390625 -0.078125 0.78125 -0.078125q0.828125 0 1.375 0.234375q0.546875 0.234375 0.859375 0.65625q0.328125 0.421875 0.453125 1.015625q0.140625 0.578125 0.140625 1.28125l0 3.890625l-1.234375 0l0 -3.625q0 -0.640625 -0.09375 -1.09375q-0.078125 -0.453125 -0.28125 -0.734375q-0.203125 -0.28125 -0.53125 -0.40625q-0.328125 -0.125 -0.828125 -0.125q-0.203125 0 -0.421875 0.03125q-0.203125 0.015625 -0.40625 0.0625q-0.1875 0.03125 -0.34375 0.078125q-0.140625 0.03125 -0.203125 0.0625l0 5.75l-1.25 0zm8.766586 -6.9375l2.625 0l0 1.046875l-2.625 0l0 3.203125q0 0.515625 0.078125 0.859375q0.09375 0.328125 0.25 0.53125q0.15625 0.1875 0.390625 0.265625q0.25 0.078125 0.5625 0.078125q0.5625 0 0.90625 -0.125q0.34375 -0.125 0.46875 -0.171875l0.25 1.015625q-0.1875 0.09375 -0.65625 0.234375q-0.46875 0.140625 -1.0625 0.140625q-0.71875 0 -1.1875 -0.171875q-0.453125 -0.1875 -0.734375 -0.546875q-0.265625 -0.359375 -0.390625 -0.875q-0.109375 -0.53125 -0.109375 -1.21875l0 -6.1875l1.234375 -0.21875l0 2.140625zm3.693283 3.484375q0 -0.921875 0.265625 -1.609375q0.265625 -0.6875 0.703125 -1.140625q0.4375 -0.453125 1.0 -0.671875q0.578125 -0.234375 1.1875 -0.234375q1.390625 0 2.140625 0.875q0.75 0.875 0.75 2.65625q0 0.09375 0 0.21875q0 0.125 -0.015625 0.234375l-4.75 0q0.078125 1.078125 0.625 1.640625q0.546875 0.546875 1.71875 0.546875q0.640625 0 1.078125 -0.109375q0.453125 -0.109375 0.6875 -0.21875l0.171875 1.03125q-0.21875 0.125 -0.796875 0.25q-0.5625 0.140625 -1.28125 0.140625q-0.90625 0 -1.5625 -0.265625q-0.65625 -0.28125 -1.09375 -0.75q-0.421875 -0.484375 -0.625 -1.140625q-0.203125 -0.671875 -0.203125 -1.453125zm4.75 -0.671875q0.015625 -0.84375 -0.421875 -1.375q-0.4375 -0.546875 -1.1875 -0.546875q-0.421875 0 -0.75 0.171875q-0.328125 0.15625 -0.5625 0.421875q-0.21875 0.265625 -0.34375 0.625q-0.125 0.34375 -0.171875 0.703125l3.4375 0zm5.6378937 -2.953125q0.15625 0 0.359375 0.03125q0.21875 0.015625 0.40625 0.046875q0.203125 0.03125 0.375 0.0625q0.171875 0.03125 0.25 0.0625l-0.21875 1.078125q-0.140625 -0.046875 -0.484375 -0.125q-0.34375 -0.078125 -0.875 -0.078125q-0.34375 0 -0.6875 0.078125q-0.34375 0.078125 -0.4375 0.09375l0 5.828125l-1.25 0l0 -6.640625q0.4375 -0.15625 1.09375 -0.296875q0.65625 -0.140625 1.46875 -0.140625z" fill-rule="nonzero"/><path fill="#000000" fill-opacity="0.0" d="m2.2624671 170.89764l77.44882 0l0 34.425186l-77.44882 0z" fill-rule="evenodd"/><path fill="#000000" d="m41.670273 189.22888q0 0.828125 -0.25 1.5q-0.234375 0.65625 -0.671875 1.140625q-0.421875 0.484375 -1.03125 0.75q-0.59375 0.25 -1.296875 0.25q-0.71875 0 -1.3125 -0.25q-0.59375 -0.265625 -1.03125 -0.75q-0.4375 -0.484375 -0.671875 -1.140625q-0.234375 -0.671875 -0.234375 -1.5q0 -0.8125 0.234375 -1.484375q0.234375 -0.671875 0.671875 -1.140625q0.4375 -0.484375 1.03125 -0.75q0.59375 -0.265625 1.3125 -0.265625q0.703125 0 1.296875 0.265625q0.609375 0.265625 1.03125 0.75q0.4375 0.46875 0.671875 1.140625q0.25 0.671875 0.25 1.484375zm-1.296875 0q0 -1.171875 -0.53125 -1.859375q-0.515625 -0.6875 -1.421875 -0.6875q-0.90625 0 -1.4375 0.6875q-0.53125 0.6875 -0.53125 1.859375q0 1.171875 0.53125 1.859375q0.53125 0.6875 1.4375 0.6875q0.90625 0 1.421875 -0.6875q0.53125 -0.6875 0.53125 -1.859375zm5.738571 -6.875q0.546875 0 0.9375 0.078125q0.40625 0.078125 0.5625 0.15625l-0.234375 1.0625q-0.15625 -0.078125 -0.453125 -0.15625q-0.28125 -0.078125 -0.71875 -0.078125q-0.859375 0 -1.203125 0.484375q-0.34375 0.46875 -0.34375 1.265625l0 0.59375l2.65625 0l0 1.046875l-2.65625 0l0 5.890625l-1.25 0l0 -7.5625q0 -1.328125 0.65625 -2.046875q0.65625 -0.734375 2.046875 -0.734375z" fill-rule="nonzero"/><path fill="#000000" fill-opacity="0.0" d="m2.2624671 269.12598l77.44882 0l0 34.4252l-77.44882 0z" fill-rule="evenodd"/><path fill="#000000" d="m37.08934 290.03537q0.453125 0 0.78125 -0.015625q0.34375 -0.03125 0.578125 -0.078125l0 -2.0625q-0.140625 -0.078125 -0.4375 -0.125q-0.296875 -0.046875 -0.734375 -0.046875q-0.28125 0 -0.59375 0.046875q-0.3125 0.046875 -0.578125 0.171875q-0.25 0.125 -0.421875 0.34375q-0.171875 0.21875 -0.171875 0.578125q0 0.671875 0.421875 0.9375q0.421875 0.25 1.15625 0.25zm-0.09375 -6.21875q0.734375 0 1.25 0.203125q0.515625 0.1875 0.828125 0.546875q0.3125 0.34375 0.4375 0.84375q0.140625 0.484375 0.140625 1.0625l0 4.328125q-0.15625 0.03125 -0.453125 0.078125q-0.28125 0.046875 -0.640625 0.078125q-0.359375 0.046875 -0.78125 0.078125q-0.421875 0.03125 -0.828125 0.03125q-0.59375 0 -1.09375 -0.125q-0.484375 -0.109375 -0.84375 -0.359375q-0.359375 -0.265625 -0.5625 -0.6875q-0.1875 -0.4375 -0.1875 -1.03125q0 -0.578125 0.234375 -0.984375q0.234375 -0.421875 0.625 -0.671875q0.40625 -0.25 0.9375 -0.375q0.53125 -0.125 1.109375 -0.125q0.1875 0 0.390625 0.03125q0.203125 0.015625 0.375 0.046875q0.1875 0.03125 0.3125 0.0625q0.140625 0.03125 0.203125 0.046875l0 -0.359375q0 -0.296875 -0.078125 -0.59375q-0.0625 -0.3125 -0.234375 -0.53125q-0.171875 -0.234375 -0.484375 -0.375q-0.296875 -0.140625 -0.765625 -0.140625q-0.625 0 -1.078125 0.09375q-0.453125 0.078125 -0.6875 0.171875l-0.140625 -1.03125q0.234375 -0.109375 0.796875 -0.203125q0.5625 -0.109375 1.21875 -0.109375zm4.70726 0.375q0.4375 -0.109375 1.140625 -0.21875q0.703125 -0.125 1.625 -0.125q0.828125 0 1.375 0.234375q0.546875 0.234375 0.859375 0.65625q0.328125 0.421875 0.453125 1.015625q0.140625 0.578125 0.140625 1.28125l0 3.890625l-1.234375 0l0 -3.625q0 -0.640625 -0.09375 -1.09375q-0.078125 -0.453125 -0.28125 -0.734375q-0.203125 -0.28125 -0.53125 -0.40625q-0.328125 -0.125 -0.828125 -0.125q-0.203125 0 -0.421875 0.015625q-0.203125 0.015625 -0.40625 0.03125q-0.1875 0.015625 -0.34375 0.046875q-0.140625 0.03125 -0.203125 0.046875l0 5.84375l-1.25 0l0 -6.734375z" fill-rule="nonzero"/><path fill="#000000" fill-opacity="0.0" d="m6.7874017 375.96588l77.44882 0l0 34.4252l-77.44882 0z" fill-rule="evenodd"/><path fill="#000000" d="m28.206223 396.87524q0.453125 0 0.78125 -0.015625q0.34375 -0.03125 0.578125 -0.078125l0 -2.0625q-0.140625 -0.078125 -0.4375 -0.125q-0.296875 -0.046875 -0.734375 -0.046875q-0.28125 0 -0.59375 0.046875q-0.3125 0.046875 -0.578125 0.171875q-0.25 0.125 -0.421875 0.34375q-0.171875 0.21875 -0.171875 0.578125q0 0.671875 0.421875 0.9375q0.421875 0.25 1.15625 0.25zm-0.09375 -6.21875q0.734375 0 1.25 0.203125q0.515625 0.1875 0.828125 0.546875q0.3125 0.34375 0.4375 0.84375q0.140625 0.484375 0.140625 1.0625l0 4.328125q-0.15625 0.03125 -0.453125 0.078125q-0.28125 0.046875 -0.640625 0.078125q-0.359375 0.046875 -0.78125 0.078125q-0.421875 0.03125 -0.828125 0.03125q-0.59375 0 -1.09375 -0.125q-0.484375 -0.109375 -0.84375 -0.359375q-0.359375 -0.265625 -0.5625 -0.6875q-0.1875 -0.4375 -0.1875 -1.03125q0 -0.578125 0.234375 -0.984375q0.234375 -0.421875 0.625 -0.671875q0.40625 -0.25 0.9375 -0.375q0.53125 -0.125 1.109375 -0.125q0.1875 0 0.390625 0.03125q0.203125 0.015625 0.375 0.046875q0.1875 0.03125 0.3125 0.0625q0.140625 0.03125 0.203125 0.046875l0 -0.359375q0 -0.296875 -0.078125 -0.59375q-0.0625 -0.3125 -0.234375 -0.53125q-0.171875 -0.234375 -0.484375 -0.375q-0.296875 -0.140625 -0.765625 -0.140625q-0.625 0 -1.078125 0.09375q-0.453125 0.078125 -0.6875 0.171875l-0.140625 -1.03125q0.234375 -0.109375 0.796875 -0.203125q0.5625 -0.109375 1.21875 -0.109375zm7.410385 -3.234375q0.546875 0 0.9375 0.078125q0.40625 0.078125 0.5625 0.15625l-0.234375 1.0625q-0.15625 -0.078125 -0.453125 -0.15625q-0.28125 -0.078125 -0.71875 -0.078125q-0.859375 0 -1.203125 0.484375q-0.34375 0.46875 -0.34375 1.265625l0 0.59375l2.65625 0l0 1.046875l-2.65625 0l0 5.890625l-1.25 0l0 -7.5625q0 -1.328125 0.65625 -2.046875q0.65625 -0.734375 2.046875 -0.734375zm5.004017 3.265625q0.15625 0 0.359375 0.03125q0.21875 0.015625 0.40625 0.046875q0.203125 0.03125 0.375 0.0625q0.171875 0.03125 0.25 0.0625l-0.21875 1.078125q-0.140625 -0.046875 -0.484375 -0.125q-0.34375 -0.078125 -0.875 -0.078125q-0.34375 0 -0.6875 0.078125q-0.34375 0.078125 -0.4375 0.09375l0 5.828125l-1.2500038 0l0 -6.640625q0.4375 -0.15625 1.0937538 -0.296875q0.65625 -0.140625 1.46875 -0.140625zm3.832138 7.078125l-1.25 0l0 -6.9375l1.25 0l0 6.9375zm-0.640625 -8.1875q-0.328125 0 -0.5625 -0.21875q-0.234375 -0.21875 -0.234375 -0.59375q0 -0.375 0.234375 -0.59375q0.234375 -0.21875 0.5625 -0.21875q0.34375 0 0.578125 0.21875q0.234375 0.21875 0.234375 0.59375q0 0.375 -0.234375 0.59375q-0.234375 0.21875 -0.578125 0.21875zm5.7782593 8.34375q-0.84375 0 -1.484375 -0.265625q-0.625 -0.265625 -1.0625 -0.734375q-0.421875 -0.484375 -0.640625 -1.140625q-0.203125 -0.671875 -0.203125 -1.46875q0 -0.796875 0.21875 -1.453125q0.234375 -0.671875 0.65625 -1.15625q0.4375 -0.5 1.046875 -0.765625q0.625 -0.28125 1.390625 -0.28125q0.46875 0 0.921875 0.09375q0.46875 0.078125 0.90625 0.25l-0.28125 1.046875q-0.28125 -0.125 -0.65625 -0.203125q-0.359375 -0.09375 -0.765625 -0.09375q-1.046875 0 -1.609375 0.65625q-0.546875 0.65625 -0.546875 1.90625q0 0.5625 0.125 1.03125q0.125 0.46875 0.390625 0.796875q0.28125 0.328125 0.703125 0.515625q0.4375 0.171875 1.046875 0.171875q0.5 0 0.890625 -0.09375q0.40625 -0.09375 0.625 -0.1875l0.1875 1.03125q-0.109375 0.0625 -0.3125 0.125q-0.203125 0.0625 -0.453125 0.109375q-0.25 0.046875 -0.546875 0.078125q-0.28125 0.03125 -0.546875 0.03125zm5.5256805 -1.046875q0.453125 0 0.78125 -0.015625q0.34375 -0.03125 0.578125 -0.078125l0 -2.0625q-0.140625 -0.078125 -0.4375 -0.125q-0.296875 -0.046875 -0.734375 -0.046875q-0.28125 0 -0.59375 0.046875q-0.3125 0.046875 -0.578125 0.171875q-0.25 0.125 -0.421875 0.34375q-0.171875 0.21875 -0.171875 0.578125q0 0.671875 0.421875 0.9375q0.421875 0.25 1.15625 0.25zm-0.09375 -6.21875q0.734375 0 1.25 0.203125q0.515625 0.1875 0.828125 0.546875q0.3125 0.34375 0.4375 0.84375q0.140625 0.484375 0.140625 1.0625l0 4.328125q-0.15625 0.03125 -0.453125 0.078125q-0.28125 0.046875 -0.640625 0.078125q-0.359375 0.046875 -0.78125 0.078125q-0.421875 0.03125 -0.828125 0.03125q-0.59375 0 -1.09375 -0.125q-0.484375 -0.109375 -0.84375 -0.359375q-0.359375 -0.265625 -0.5625 -0.6875q-0.1875 -0.4375 -0.1875 -1.03125q0 -0.578125 0.234375 -0.984375q0.234375 -0.421875 0.625 -0.671875q0.40625 -0.25 0.9375 -0.375q0.53125 -0.125 1.109375 -0.125q0.1875 0 0.390625 0.03125q0.203125 0.015625 0.375 0.046875q0.1875 0.03125 0.3125 0.0625q0.140625 0.03125 0.203125 0.046875l0 -0.359375q0 -0.296875 -0.078125 -0.59375q-0.0625 -0.3125 -0.234375 -0.53125q-0.171875 -0.234375 -0.484375 -0.375q-0.296875 -0.140625 -0.765625 -0.140625q-0.625 0 -1.078125 0.09375q-0.453125 0.078125 -0.6875 0.171875l-0.140625 -1.03125q0.234375 -0.109375 0.796875 -0.203125q0.5625 -0.109375 1.21875 -0.109375zm4.70726 0.375q0.4375 -0.109375 1.140625 -0.21875q0.703125 -0.125 1.625 -0.125q0.828125 0 1.375 0.234375q0.5468712 0.234375 0.8593712 0.65625q0.328125 0.421875 0.453125 1.015625q0.140625 0.578125 0.140625 1.28125l0 3.890625l-1.2343712 0l0 -3.625q0 -0.640625 -0.09375 -1.09375q-0.078125 -0.453125 -0.28125 -0.734375q-0.203125 -0.28125 -0.53125 -0.40625q-0.328125 -0.125 -0.828125 -0.125q-0.203125 0 -0.421875 0.015625q-0.203125 0.015625 -0.40625 0.03125q-0.1875 0.015625 -0.34375 0.046875q-0.140625 0.03125 -0.203125 0.046875l0 5.84375l-1.25 0l0 -6.734375z" fill-rule="nonzero"/><path fill="#4bacc6" d="m432.1916 132.90814l29.637817 0l0 209.41733l-29.637817 0z" fill-rule="evenodd"/><path stroke="#1f497d" stroke-width="1.0" stroke-linejoin="round" stroke-linecap="butt" d="m432.1916 132.90814l29.637817 0l0 209.41733l-29.637817 0z" fill-rule="evenodd"/><path fill="#000000" d="m442.42596 244.5368l0 -13.359375l1.640625 0l0 4.796875q1.140625 -1.328125 2.890625 -1.328125q1.078125 0 1.859375 0.421875q0.796875 0.421875 1.140625 1.171875q0.34375 0.75 0.34375 2.171875l0 6.125l-1.640625 0l0 -6.125q0 -1.234375 -0.53125 -1.796875q-0.53125 -0.5625 -1.515625 -0.5625q-0.71875 0 -1.359375 0.390625q-0.640625 0.375 -0.921875 1.015625q-0.265625 0.640625 -0.265625 1.78125l0 5.296875l-1.640625 0z" fill-rule="nonzero"/><path fill="#c0504d" d="m746.5197 193.63255l29.637756 0l0 87.96849l-29.637756 0z" fill-rule="evenodd"/><path stroke="#1f497d" stroke-width="1.0" stroke-linejoin="round" stroke-linecap="butt" d="m746.5197 193.63255l29.637756 0l0 87.96849l-29.637756 0z" fill-rule="evenodd"/><path fill="#000000" d="m756.5197 246.67993l-0.15625 -1.328125q0.453125 0.125 0.796875 0.125q0.46875 0 0.75 -0.15625q0.28125 -0.15625 0.46875 -0.4375q0.125 -0.203125 0.421875 -1.046875q0.046875 -0.109375 0.125 -0.34375l-3.140625 -8.3125l1.515625 0l1.71875 4.796875q0.34375 0.921875 0.609375 1.921875q0.234375 -0.96875 0.578125 -1.890625l1.765625 -4.828125l1.40625 0l-3.15625 8.4375q-0.5 1.375 -0.78125 1.890625q-0.375 0.6875 -0.859375 1.015625q-0.484375 0.328125 -1.15625 0.328125q-0.40625 0 -0.90625 -0.171875z" fill-rule="nonzero"/><path fill="#000000" fill-opacity="0.0" d="m799.2021 220.4042l77.44885 0l0 34.425186l-77.44885 0z" fill-rule="evenodd"/><path fill="#000000" d="m813.7303 241.31357q0.453125 0 0.78125 -0.015625q0.34375 -0.03125 0.578125 -0.078125l0 -2.0625q-0.140625 -0.078125 -0.4375 -0.125q-0.296875 -0.046875 -0.734375 -0.046875q-0.28125 0 -0.59375 0.046875q-0.3125 0.046875 -0.578125 0.171875q-0.25 0.125 -0.421875 0.34375q-0.171875 0.21875 -0.171875 0.578125q0 0.671875 0.421875 0.9375q0.421875 0.25 1.15625 0.25zm-0.09375 -6.21875q0.734375 0 1.25 0.203125q0.515625 0.1875 0.828125 0.546875q0.3125 0.34375 0.4375 0.84375q0.140625 0.484375 0.140625 1.0625l0 4.328125q-0.15625 0.03125 -0.453125 0.078125q-0.28125 0.046875 -0.640625 0.078125q-0.359375 0.046875 -0.78125 0.078125q-0.421875 0.03125 -0.828125 0.03125q-0.59375 0 -1.09375 -0.125q-0.484375 -0.109375 -0.84375 -0.359375q-0.359375 -0.265625 -0.5625 -0.6875q-0.1875 -0.4375 -0.1875 -1.03125q0 -0.578125 0.234375 -0.984375q0.234375 -0.421875 0.625 -0.671875q0.40625 -0.25 0.9375 -0.375q0.53125 -0.125 1.109375 -0.125q0.1875 0 0.390625 0.03125q0.203125 0.015625 0.375 0.046875q0.1875 0.03125 0.3125 0.0625q0.140625 0.03125 0.203125 0.046875l0 -0.359375q0 -0.296875 -0.078125 -0.59375q-0.0625 -0.3125 -0.234375 -0.53125q-0.171875 -0.234375 -0.484375 -0.375q-0.296875 -0.140625 -0.765625 -0.140625q-0.625 0 -1.078125 0.09375q-0.453125 0.078125 -0.6875 0.171875l-0.140625 -1.03125q0.234375 -0.109375 0.796875 -0.203125q0.5625 -0.109375 1.21875 -0.109375zm4.7072754 0.375q0.4375 -0.109375 1.125 -0.21875q0.703125 -0.125 1.625 -0.125q0.671875 0 1.125 0.1875q0.453125 0.171875 0.75 0.515625q0.09375 -0.0625 0.296875 -0.171875q0.203125 -0.125 0.484375 -0.234375q0.296875 -0.125 0.65625 -0.203125q0.359375 -0.09375 0.78125 -0.09375q0.796875 0 1.296875 0.234375q0.515625 0.234375 0.796875 0.671875q0.296875 0.421875 0.390625 1.015625q0.09375 0.578125 0.09375 1.265625l0 3.890625l-1.234375 0l0 -3.625q0 -0.609375 -0.0625 -1.046875q-0.0625 -0.453125 -0.234375 -0.734375q-0.15625 -0.296875 -0.453125 -0.4375q-0.28125 -0.140625 -0.734375 -0.140625q-0.625 0 -1.03125 0.171875q-0.40625 0.15625 -0.546875 0.296875q0.109375 0.34375 0.15625 0.765625q0.046875 0.40625 0.046875 0.859375l0 3.890625l-1.234375 0l0 -3.625q0 -0.609375 -0.0625 -1.046875q-0.0625 -0.453125 -0.234375 -0.734375q-0.171875 -0.296875 -0.453125 -0.4375q-0.28125 -0.140625 -0.734375 -0.140625q-0.1875 0 -0.40625 0.015625q-0.203125 0.015625 -0.40625 0.03125q-0.1875 0.015625 -0.34375 0.046875q-0.15625 0.03125 -0.203125 0.046875l0 5.84375l-1.25 0l0 -6.734375zm11.100464 3.28125q0 -0.921875 0.265625 -1.609375q0.265625 -0.6875 0.703125 -1.140625q0.4375 -0.453125 1.0 -0.671875q0.578125 -0.234375 1.1875 -0.234375q1.390625 0 2.140625 0.875q0.75 0.875 0.75 2.65625q0 0.09375 0 0.21875q0 0.125 -0.015625 0.234375l-4.75 0q0.078125 1.078125 0.625 1.640625q0.546875 0.546875 1.71875 0.546875q0.640625 0 1.078125 -0.109375q0.453125 -0.109375 0.6875 -0.21875l0.171875 1.03125q-0.21875 0.125 -0.796875 0.25q-0.5625 0.140625 -1.28125 0.140625q-0.90625 0 -1.5625 -0.265625q-0.65625 -0.28125 -1.09375 -0.75q-0.421875 -0.484375 -0.625 -1.140625q-0.203125 -0.671875 -0.203125 -1.453125zm4.75 -0.671875q0.015625 -0.84375 -0.421875 -1.375q-0.4375 -0.546875 -1.1875 -0.546875q-0.421875 0 -0.75 0.171875q-0.328125 0.15625 -0.5625 0.421875q-0.21875 0.265625 -0.34375 0.625q-0.125 0.34375 -0.171875 0.703125l3.4375 0zm5.6379395 -2.953125q0.15625 0 0.359375 0.03125q0.21875 0.015625 0.40625 0.046875q0.203125 0.03125 0.375 0.0625q0.171875 0.03125 0.25 0.0625l-0.21875 1.078125q-0.140625 -0.046875 -0.484375 -0.125q-0.34375 -0.078125 -0.875 -0.078125q-0.34375 0 -0.6875 0.078125q-0.34375 0.078125 -0.4375 0.09375l0 5.828125l-1.25 0l0 -6.640625q0.4375 -0.15625 1.09375 -0.296875q0.65625 -0.140625 1.46875 -0.140625zm3.8320923 7.078125l-1.25 0l0 -6.9375l1.25 0l0 6.9375zm-0.640625 -8.1875q-0.328125 0 -0.5625 -0.21875q-0.234375 -0.21875 -0.234375 -0.59375q0 -0.375 0.234375 -0.59375q0.234375 -0.21875 0.5625 -0.21875q0.34375 0 0.578125 0.21875q0.234375 0.21875 0.234375 0.59375q0 0.375 -0.234375 0.59375q-0.234375 0.21875 -0.578125 0.21875zm5.7782593 8.34375q-0.84375 0 -1.484375 -0.265625q-0.625 -0.265625 -1.0625 -0.734375q-0.421875 -0.484375 -0.640625 -1.140625q-0.203125 -0.671875 -0.203125 -1.46875q0 -0.796875 0.21875 -1.453125q0.234375 -0.671875 0.65625 -1.15625q0.4375 -0.5 1.046875 -0.765625q0.625 -0.28125 1.390625 -0.28125q0.46875 0 0.921875 0.09375q0.46875 0.078125 0.90625 0.25l-0.28125 1.046875q-0.28125 -0.125 -0.65625 -0.203125q-0.359375 -0.09375 -0.765625 -0.09375q-1.046875 0 -1.609375 0.65625q-0.546875 0.65625 -0.546875 1.90625q0 0.5625 0.125 1.03125q0.125 0.46875 0.390625 0.796875q0.28125 0.328125 0.703125 0.515625q0.4375 0.171875 1.046875 0.171875q0.5 0 0.890625 -0.09375q0.40625 -0.09375 0.625 -0.1875l0.1875 1.03125q-0.109375 0.0625 -0.3125 0.125q-0.203125 0.0625 -0.453125 0.109375q-0.25 0.046875 -0.546875 0.078125q-0.28125 0.03125 -0.546875 0.03125zm5.525696 -1.046875q0.453125 0 0.78125 -0.015625q0.34375 -0.03125 0.578125 -0.078125l0 -2.0625q-0.140625 -0.078125 -0.4375 -0.125q-0.296875 -0.046875 -0.734375 -0.046875q-0.28125 0 -0.59375 0.046875q-0.3125 0.046875 -0.578125 0.171875q-0.25 0.125 -0.421875 0.34375q-0.171875 0.21875 -0.171875 0.578125q0 0.671875 0.421875 0.9375q0.421875 0.25 1.15625 0.25zm-0.09375 -6.21875q0.734375 0 1.25 0.203125q0.515625 0.1875 0.828125 0.546875q0.3125 0.34375 0.4375 0.84375q0.140625 0.484375 0.140625 1.0625l0 4.328125q-0.15625 0.03125 -0.453125 0.078125q-0.28125 0.046875 -0.640625 0.078125q-0.359375 0.046875 -0.78125 0.078125q-0.421875 0.03125 -0.828125 0.03125q-0.59375 0 -1.09375 -0.125q-0.484375 -0.109375 -0.84375 -0.359375q-0.359375 -0.265625 -0.5625 -0.6875q-0.1875 -0.4375 -0.1875 -1.03125q0 -0.578125 0.234375 -0.984375q0.234375 -0.421875 0.625 -0.671875q0.40625 -0.25 0.9375 -0.375q0.53125 -0.125 1.109375 -0.125q0.1875 0 0.390625 0.03125q0.203125 0.015625 0.375 0.046875q0.1875 0.03125 0.3125 0.0625q0.140625 0.03125 0.203125 0.046875l0 -0.359375q0 -0.296875 -0.078125 -0.59375q-0.0625 -0.3125 -0.234375 -0.53125q-0.171875 -0.234375 -0.484375 -0.375q-0.296875 -0.140625 -0.765625 -0.140625q-0.625 0 -1.078125 0.09375q-0.453125 0.078125 -0.6875 0.171875l-0.140625 -1.03125q0.234375 -0.109375 0.796875 -0.203125q0.5625 -0.109375 1.21875 -0.109375zm4.7072754 0.375q0.4375 -0.109375 1.140625 -0.21875q0.703125 -0.125 1.625 -0.125q0.828125 0 1.375 0.234375q0.546875 0.234375 0.859375 0.65625q0.328125 0.421875 0.453125 1.015625q0.140625 0.578125 0.140625 1.28125l0 3.890625l-1.234375 0l0 -3.625q0 -0.640625 -0.09375 -1.09375q-0.078125 -0.453125 -0.28125 -0.734375q-0.203125 -0.28125 -0.53125 -0.40625q-0.328125 -0.125 -0.828125 -0.125q-0.203125 0 -0.421875 0.015625q-0.203125 0.015625 -0.40625 0.03125q-0.1875 0.015625 -0.34375 0.046875q-0.140625 0.03125 -0.203125 0.046875l0 5.84375l-1.25 0l0 -6.734375z" fill-rule="nonzero"/><path fill="#eeece1" d="m227.57217 5.7376475l0 0c0 -3.1688151 2.5688324 -5.7376475 5.7376556 -5.7376475l153.94203 0c1.521698 0 2.9811096 0.6045004 4.057129 1.680518c1.0760193 1.0760177 1.6805115 2.535411 1.6805115 4.0571294l0 22.949902c0 3.1688156 -2.5688477 5.737648 -5.7376404 5.737648l-153.94203 0c-3.1688232 0 -5.7376556 -2.5688324 -5.7376556 -5.737648z" fill-rule="evenodd"/><path stroke="#1f497d" stroke-width="1.0" stroke-linejoin="round" stroke-linecap="butt" d="m227.57217 5.7376475l0 0c0 -3.1688151 2.5688324 -5.7376475 5.7376556 -5.7376475l153.94203 0c1.521698 0 2.9811096 0.6045004 4.057129 1.680518c1.0760193 1.0760177 1.6805115 2.535411 1.6805115 4.0571294l0 22.949902c0 3.1688156 -2.5688477 5.737648 -5.7376404 5.737648l-153.94203 0c-3.1688232 0 -5.7376556 -2.5688324 -5.7376556 -5.737648z" fill-rule="evenodd"/><path fill="#000000" d="m241.17456 13.023222l0 1.90625l-1.75 0l0 -1.515625q0 -1.21875 0.28125 -1.765625q0.390625 -0.71875 1.21875 -1.09375l0.390625 0.640625q-0.5 0.203125 -0.734375 0.625q-0.234375 0.40625 -0.265625 1.203125l0.859375 0zm2.1291962 4.609375q0 -3.328125 1.78125 -5.203125q1.78125 -1.890625 4.609375 -1.890625q1.84375 0 3.328125 0.890625q1.484375 0.875 2.265625 2.46875q0.78123474 1.578125 0.78123474 3.578125q0 2.03125 -0.82810974 3.640625q-0.8125 1.59375 -2.3125 2.421875q-1.5 0.828125 -3.25 0.828125q-1.875 0 -3.359375 -0.90625q-1.484375 -0.921875 -2.25 -2.5q-0.765625 -1.578125 -0.765625 -3.328125zm1.8125 0.015625q0 2.421875 1.296875 3.8125q1.296875 1.390625 3.265625 1.390625q2.0 0 3.28125 -1.40625q1.28125 -1.40625 1.28125 -3.984375q0 -1.625 -0.546875 -2.84375q-0.546875 -1.21875 -1.609375 -1.875q-1.0625 -0.671875 -2.375 -0.671875q-1.890625 0 -3.25 1.296875q-1.34375 1.28125 -1.34375 4.28125zm13.027054 6.484375l0 -9.671875l1.46875 0l0 1.375q1.0625 -1.59375 3.078125 -1.59375q0.875 0 1.609375 0.3125q0.734375 0.3125 1.09375 0.828125q0.375 0.5 0.515625 1.203125q0.09375 0.453125 0.09375 1.59375l0 5.953125l-1.640625 0l0 -5.890625q0 -1.0 -0.203125 -1.484375q-0.1875 -0.5 -0.671875 -0.796875q-0.484375 -0.296875 -1.140625 -0.296875q-1.046875 0 -1.8125 0.671875q-0.75 0.65625 -0.75 2.515625l0 5.28125l-1.640625 0zm17.000702 -3.109375l1.6875 0.203125q-0.40625 1.484375 -1.484375 2.3125q-1.078125 0.8125 -2.765625 0.8125q-2.125 0 -3.375 -1.296875q-1.234375 -1.3125 -1.234375 -3.671875q0 -2.453125 1.25 -3.796875q1.265625 -1.34375 3.265625 -1.34375q1.9375 0 3.15625 1.328125q1.234375 1.3125 1.234375 3.703125q0 0.15625 0 0.4375l-7.21875 0q0.09375 1.59375 0.90625 2.453125q0.8125 0.84375 2.015625 0.84375q0.90625 0 1.546875 -0.46875q0.640625 -0.484375 1.015625 -1.515625zm-5.390625 -2.65625l5.40625 0q-0.109375 -1.21875 -0.625 -1.828125q-0.78125 -0.953125 -2.03125 -0.953125q-1.125 0 -1.90625 0.765625q-0.765625 0.75 -0.84375 2.015625zm8.500732 1.75l0 -1.640625l5.03125 0l0 1.640625l-5.03125 0zm6.853302 4.015625l0 -13.359375l1.640625 0l0 4.796875q1.140625 -1.328125 2.890625 -1.328125q1.078125 0 1.859375 0.421875q0.796875 0.421875 1.140625 1.171875q0.34375 0.75 0.34375 2.171875l0 6.125l-1.640625 0l0 -6.125q0 -1.234375 -0.53125 -1.796875q-0.53125 -0.5625 -1.515625 -0.5625q-0.71875 0 -1.359375 0.390625q-0.640625 0.375 -0.921875 1.015625q-0.265625 0.640625 -0.265625 1.78125l0 5.296875l-1.640625 0zm9.766327 -4.84375q0 -2.6875 1.484375 -3.96875q1.25 -1.078125 3.046875 -1.078125q2.0 0 3.265625 1.3125q1.265625 1.296875 1.265625 3.609375q0 1.859375 -0.5625 2.9375q-0.5625 1.0625 -1.640625 1.65625q-1.0625 0.59375 -2.328125 0.59375q-2.03125 0 -3.28125 -1.296875q-1.25 -1.3125 -1.25 -3.765625zm1.6875 0q0 1.859375 0.796875 2.796875q0.8125 0.921875 2.046875 0.921875q1.21875 0 2.03125 -0.921875q0.8125 -0.9375 0.8125 -2.84375q0 -1.796875 -0.8125 -2.71875q-0.8125 -0.921875 -2.03125 -0.921875q-1.234375 0 -2.046875 0.921875q-0.796875 0.90625 -0.796875 2.765625zm12.875732 3.375l0.234375 1.453125q-0.6875 0.140625 -1.234375 0.140625q-0.890625 0 -1.390625 -0.28125q-0.484375 -0.28125 -0.6875 -0.734375q-0.203125 -0.46875 -0.203125 -1.9375l0 -5.578125l-1.203125 0l0 -1.265625l1.203125 0l0 -2.390625l1.625 -0.984375l0 3.375l1.65625 0l0 1.265625l-1.65625 0l0 5.671875q0 0.6875 0.078125 0.890625q0.09375 0.203125 0.28125 0.328125q0.203125 0.109375 0.578125 0.109375q0.265625 0 0.71875 -0.0625zm1.4957886 -10.125l0 -1.890625l1.765625 0l0 1.5q0 1.21875 -0.28125 1.75q-0.390625 0.75 -1.21875 1.109375l-0.40625 -0.640625q0.484375 -0.203125 0.71875 -0.625q0.25 -0.4375 0.28125 -1.203125l-0.859375 0zm11.4322815 11.59375l-3.6875 -9.671875l1.734375 0l2.078125 5.796875q0.328125 0.9375 0.625 1.9375q0.203125 -0.765625 0.609375 -1.828125l2.140625 -5.90625l1.6875 0l-3.65625 9.671875l-1.53125 0zm13.265625 -3.109375l1.6875 0.203125q-0.40625 1.484375 -1.484375 2.3125q-1.078125 0.8125 -2.765625 0.8125q-2.125 0 -3.375 -1.296875q-1.234375 -1.3125 -1.234375 -3.671875q0 -2.453125 1.25 -3.796875q1.265625 -1.34375 3.265625 -1.34375q1.9375 0 3.15625 1.328125q1.234375 1.3125 1.234375 3.703125q0 0.15625 0 0.4375l-7.21875 0q0.09375 1.59375 0.90625 2.453125q0.8125 0.84375 2.015625 0.84375q0.90625 0 1.546875 -0.46875q0.640625 -0.484375 1.015625 -1.515625zm-5.390625 -2.65625l5.40625 0q-0.109375 -1.21875 -0.625 -1.828125q-0.78125 -0.953125 -2.03125 -0.953125q-1.125 0 -1.90625 0.765625q-0.765625 0.75 -0.84375 2.015625zm15.453857 2.21875l1.609375 0.21875q-0.265625 1.65625 -1.359375 2.609375q-1.078125 0.9375 -2.671875 0.9375q-1.984375 0 -3.1875 -1.296875q-1.203125 -1.296875 -1.203125 -3.71875q0 -1.578125 0.515625 -2.75q0.515625 -1.171875 1.578125 -1.75q1.0625 -0.59375 2.3125 -0.59375q1.578125 0 2.578125 0.796875q1.0 0.796875 1.28125 2.265625l-1.59375 0.234375q-0.234375 -0.96875 -0.8125 -1.453125q-0.578125 -0.5 -1.390625 -0.5q-1.234375 0 -2.015625 0.890625q-0.78125 0.890625 -0.78125 2.8125q0 1.953125 0.75 2.84375q0.75 0.875 1.953125 0.875q0.96875 0 1.609375 -0.59375q0.65625 -0.59375 0.828125 -1.828125zm6.59375 2.078125l0.234375 1.453125q-0.6875 0.140625 -1.234375 0.140625q-0.890625 0 -1.390625 -0.28125q-0.484375 -0.28125 -0.6875 -0.734375q-0.203125 -0.46875 -0.203125 -1.9375l0 -5.578125l-1.203125 0l0 -1.265625l1.203125 0l0 -2.390625l1.625 -0.984375l0 3.375l1.65625 0l0 1.265625l-1.65625 0l0 5.671875q0 0.6875 0.078125 0.890625q0.09375 0.203125 0.28125 0.328125q0.203125 0.109375 0.578125 0.109375q0.265625 0 0.71875 -0.0625zm0.9957886 -3.375q0 -2.6875 1.484375 -3.96875q1.25 -1.078125 3.046875 -1.078125q2.0 0 3.265625 1.3125q1.265625 1.296875 1.265625 3.609375q0 1.859375 -0.5625 2.9375q-0.5625 1.0625 -1.640625 1.65625q-1.0625 0.59375 -2.328125 0.59375q-2.03125 0 -3.28125 -1.296875q-1.25 -1.3125 -1.25 -3.765625zm1.6875 0q0 1.859375 0.796875 2.796875q0.8125 0.921875 2.046875 0.921875q1.21875 0 2.03125 -0.921875q0.8125 -0.9375 0.8125 -2.84375q0 -1.796875 -0.8125 -2.71875q-0.8125 -0.921875 -2.03125 -0.921875q-1.234375 0 -2.046875 0.921875q-0.796875 0.90625 -0.796875 2.765625zm9.281982 4.84375l0 -9.671875l1.46875 0l0 1.46875q0.5625 -1.03125 1.03125 -1.359375q0.484375 -0.328125 1.0625 -0.328125q0.828125 0 1.6875 0.53125l-0.5625 1.515625q-0.609375 -0.359375 -1.203125 -0.359375q-0.546875 0 -0.96875 0.328125q-0.421875 0.328125 -0.609375 0.890625q-0.28125 0.875 -0.28125 1.921875l0 5.0625l-1.625 0z" fill-rule="nonzero"/><path fill="#000000" fill-opacity="0.0" d="m310.28085 34.425198l-186.92914 54.488186" fill-rule="evenodd"/><path stroke="#1f497d" stroke-width="3.0" stroke-linejoin="round" stroke-linecap="butt" stroke-dasharray="24.0,9.0" d="m310.28085 34.425198l-177.05867 51.611034" fill-rule="evenodd"/><path fill="#1f497d" stroke="#1f497d" stroke-width="3.0" stroke-linecap="butt" d="m133.22218 86.03623l2.2948303 -4.1830826l-7.954834 5.8329163l9.843079 0.644989z" fill-rule="evenodd"/><path fill="#000000" fill-opacity="0.0" d="m310.28085 34.425198l-186.92914 153.70079" fill-rule="evenodd"/><path stroke="#1f497d" stroke-width="3.0" stroke-linejoin="round" stroke-linecap="butt" stroke-dasharray="24.0,9.0" d="m310.28085 34.425198l-178.98772 147.171" fill-rule="evenodd"/><path fill="#1f497d" stroke="#1f497d" stroke-width="3.0" stroke-linecap="butt" d="m131.29314 181.5962l0.46324158 -4.748657l-5.0170746 8.493011l9.3025055 -3.2811127z" fill-rule="evenodd"/><path fill="#000000" fill-opacity="0.0" d="m310.28085 34.425198l-186.92914 252.8819" fill-rule="evenodd"/><path stroke="#1f497d" stroke-width="3.0" stroke-linejoin="round" stroke-linecap="butt" stroke-dasharray="24.0,9.0" d="m310.28085 34.425198l-180.81772 244.6142" fill-rule="evenodd"/><path fill="#1f497d" stroke="#1f497d" stroke-width="3.0" stroke-linecap="butt" d="m129.46313 279.0394l-0.70755005 -4.718445l-2.7969055 9.459351l8.222916 -5.448456z" fill-rule="evenodd"/><path fill="#000000" fill-opacity="0.0" d="m310.28085 34.425198l-186.92914 358.74014" fill-rule="evenodd"/><path stroke="#1f497d" stroke-width="3.0" stroke-linejoin="round" stroke-linecap="butt" stroke-dasharray="24.0,9.0" d="m310.28085 34.425198l-182.17818 349.62247" fill-rule="evenodd"/><path fill="#1f497d" stroke="#1f497d" stroke-width="3.0" stroke-linecap="butt" d="m128.10268 384.04764l-1.4329224 -4.550934l-1.2914124 9.779297l7.275284 -6.6612854z" fill-rule="evenodd"/><path fill="#eeece1" d="m367.58005 449.32294l0 0c0 -3.1687927 2.5688477 -5.7376404 5.7376404 -5.7376404l153.94202 0c1.5217285 0 2.9811401 0.6044922 4.057129 1.6805115c1.0760498 1.0760193 1.680542 2.535431 1.680542 4.057129l0 22.94992c0 3.1688232 -2.5688477 5.7376404 -5.737671 5.7376404l-153.94202 0c-3.1687927 0 -5.7376404 -2.5688171 -5.7376404 -5.7376404z" fill-rule="evenodd"/><path stroke="#1f497d" stroke-width="1.0" stroke-linejoin="round" stroke-linecap="butt" d="m367.58005 449.32294l0 0c0 -3.1687927 2.5688477 -5.7376404 5.7376404 -5.7376404l153.94202 0c1.5217285 0 2.9811401 0.6044922 4.057129 1.6805115c1.0760498 1.0760193 1.680542 2.535431 1.680542 4.057129l0 22.94992c0 3.1688232 -2.5688477 5.7376404 -5.737671 5.7376404l-153.94202 0c-3.1687927 0 -5.7376404 -2.5688171 -5.7376404 -5.7376404z" fill-rule="evenodd"/><path fill="#000000" d="m382.02618 467.7179l-3.53125 -13.359375l1.8125 0l2.03125 8.765625q0.328125 1.375 0.5625 2.71875q0.5 -2.140625 0.59375 -2.46875l2.546875 -9.015625l2.125 0l1.921875 6.765625q0.71875 2.515625 1.03125 4.71875q0.265625 -1.265625 0.671875 -2.890625l2.09375 -8.59375l1.78125 0l-3.671875 13.359375l-1.703125 0l-2.8125 -10.171875q-0.359375 -1.28125 -0.421875 -1.5625q-0.203125 0.90625 -0.390625 1.5625l-2.828125 10.171875l-1.8125 0zm14.130768 -4.84375q0 -2.6875 1.484375 -3.96875q1.25 -1.078125 3.046875 -1.078125q2.0 0 3.265625 1.3125q1.265625 1.296875 1.265625 3.609375q0 1.859375 -0.5625 2.9375q-0.5625 1.0625 -1.640625 1.65625q-1.0625 0.59375 -2.328125 0.59375q-2.03125 0 -3.28125 -1.296875q-1.25 -1.3125 -1.25 -3.765625zm1.6875 0q0 1.859375 0.796875 2.796875q0.8125 0.921875 2.046875 0.921875q1.21875 0 2.03125 -0.921875q0.8125 -0.9375 0.8125 -2.84375q0 -1.796875 -0.8125 -2.71875q-0.8125 -0.921875 -2.03125 -0.921875q-1.234375 0 -2.046875 0.921875q-0.796875 0.90625 -0.796875 2.765625zm9.281982 4.84375l0 -9.671875l1.46875 0l0 1.46875q0.5625 -1.03125 1.03125 -1.359375q0.484375 -0.328125 1.0625 -0.328125q0.828125 0 1.6875 0.53125l-0.5625 1.515625q-0.609375 -0.359375 -1.203125 -0.359375q-0.546875 0 -0.96875 0.328125q-0.421875 0.328125 -0.609375 0.890625q-0.28125 0.875 -0.28125 1.921875l0 5.0625l-1.625 0zm12.493927 0l0 -1.21875q-0.90625 1.4375 -2.703125 1.4375q-1.15625 0 -2.125 -0.640625q-0.96875 -0.640625 -1.5 -1.78125q-0.53125 -1.140625 -0.53125 -2.625q0 -1.453125 0.484375 -2.625q0.484375 -1.1875 1.4375 -1.8125q0.96875 -0.625 2.171875 -0.625q0.875 0 1.546875 0.375q0.6875 0.359375 1.109375 0.953125l0 -4.796875l1.640625 0l0 13.359375l-1.53125 0zm-5.171875 -4.828125q0 1.859375 0.78125 2.78125q0.78125 0.921875 1.84375 0.921875q1.078125 0 1.828125 -0.875q0.75 -0.890625 0.75 -2.6875q0 -1.984375 -0.765625 -2.90625q-0.765625 -0.9375 -1.890625 -0.9375q-1.078125 0 -1.8125 0.890625q-0.734375 0.890625 -0.734375 2.8125zm21.090271 1.71875l1.6875 0.203125q-0.40625 1.484375 -1.484375 2.3125q-1.078125 0.8125 -2.765625 0.8125q-2.125 0 -3.375 -1.296875q-1.234375 -1.3125 -1.234375 -3.671875q0 -2.453125 1.25 -3.796875q1.265625 -1.34375 3.265625 -1.34375q1.9375 0 3.15625 1.328125q1.234375 1.3125 1.234375 3.703125q0 0.15625 0 0.4375l-7.21875 0q0.09375 1.59375 0.90625 2.453125q0.8125 0.84375 2.015625 0.84375q0.90625 0 1.546875 -0.46875q0.640625 -0.484375 1.015625 -1.515625zm-5.390625 -2.65625l5.40625 0q-0.109375 -1.21875 -0.625 -1.828125q-0.78125 -0.953125 -2.03125 -0.953125q-1.125 0 -1.90625 0.765625q-0.765625 0.75 -0.84375 2.015625zm9.141327 5.765625l0 -9.671875l1.46875 0l0 1.359375q0.453125 -0.71875 1.203125 -1.140625q0.765625 -0.4375 1.71875 -0.4375q1.078125 0 1.765625 0.453125q0.6875 0.4375 0.96875 1.234375q1.15625 -1.6875 2.984375 -1.6875q1.453125 0 2.21875 0.796875q0.78125 0.796875 0.78125 2.453125l0 6.640625l-1.640625 0l0 -6.09375q0 -0.984375 -0.15625 -1.40625q-0.15625 -0.4375 -0.578125 -0.703125q-0.421875 -0.265625 -0.984375 -0.265625q-1.015625 0 -1.6875 0.6875q-0.671875 0.671875 -0.671875 2.15625l0 5.625l-1.640625 0l0 -6.28125q0 -1.09375 -0.40625 -1.640625q-0.40625 -0.546875 -1.3125 -0.546875q-0.6875 0 -1.28125 0.359375q-0.59375 0.359375 -0.859375 1.0625q-0.25 0.703125 -0.25 2.03125l0 5.015625l-1.640625 0zm17.040802 0l-1.515625 0l0 -13.359375l1.640625 0l0 4.765625q1.046875 -1.296875 2.65625 -1.296875q0.890625 0 1.6875 0.359375q0.796875 0.359375 1.3125 1.015625q0.515625 0.640625 0.796875 1.5625q0.296875 0.921875 0.296875 1.96875q0 2.484375 -1.234375 3.84375q-1.21875 1.359375 -2.953125 1.359375q-1.703125 0 -2.6875 -1.4375l0 1.21875zm-0.015625 -4.90625q0 1.734375 0.484375 2.515625q0.765625 1.265625 2.09375 1.265625q1.078125 0 1.859375 -0.9375q0.78125 -0.9375 0.78125 -2.78125q0 -1.890625 -0.75 -2.796875q-0.75 -0.90625 -1.828125 -0.90625q-1.0625 0 -1.859375 0.9375q-0.78125 0.9375 -0.78125 2.703125zm15.516357 1.796875l1.6875 0.203125q-0.40625 1.484375 -1.484375 2.3125q-1.078125 0.8125 -2.765625 0.8125q-2.125 0 -3.375 -1.296875q-1.234375 -1.3125 -1.234375 -3.671875q0 -2.453125 1.25 -3.796875q1.265625 -1.34375 3.265625 -1.34375q1.9375 0 3.15625 1.328125q1.234375 1.3125 1.234375 3.703125q0 0.15625 0 0.4375l-7.21875 0q0.09375 1.59375 0.90625 2.453125q0.8125 0.84375 2.015625 0.84375q0.90625 0 1.546875 -0.46875q0.640625 -0.484375 1.015625 -1.515625zm-5.390625 -2.65625l5.40625 0q-0.109375 -1.21875 -0.625 -1.828125q-0.78125 -0.953125 -2.03125 -0.953125q-1.125 0 -1.90625 0.765625q-0.765625 0.75 -0.84375 2.015625zm15.406952 5.765625l0 -1.21875q-0.90625 1.4375 -2.703125 1.4375q-1.15625 0 -2.125 -0.640625q-0.96875 -0.640625 -1.5 -1.78125q-0.53125 -1.140625 -0.53125 -2.625q0 -1.453125 0.484375 -2.625q0.484375 -1.1875 1.4375 -1.8125q0.96875 -0.625 2.171875 -0.625q0.875 0 1.546875 0.375q0.6875 0.359375 1.109375 0.953125l0 -4.796875l1.640625 0l0 13.359375l-1.53125 0zm-5.171875 -4.828125q0 1.859375 0.78125 2.78125q0.78125 0.921875 1.84375 0.921875q1.078125 0 1.828125 -0.875q0.75 -0.890625 0.75 -2.6875q0 -1.984375 -0.765625 -2.90625q-0.765625 -0.9375 -1.890625 -0.9375q-1.078125 0 -1.8125 0.890625q-0.734375 0.890625 -0.734375 2.8125zm15.547607 4.828125l0 -1.21875q-0.90625 1.4375 -2.703125 1.4375q-1.15625 0 -2.125 -0.640625q-0.96875 -0.640625 -1.5 -1.78125q-0.53125 -1.140625 -0.53125 -2.625q0 -1.453125 0.484375 -2.625q0.484375 -1.1875 1.4375 -1.8125q0.96875 -0.625 2.171875 -0.625q0.875 0 1.546875 0.375q0.6875 0.359375 1.109375 0.953125l0 -4.796875l1.640625 0l0 13.359375l-1.53125 0zm-5.171875 -4.828125q0 1.859375 0.78125 2.78125q0.78125 0.921875 1.84375 0.921875q1.078125 0 1.828125 -0.875q0.75 -0.890625 0.75 -2.6875q0 -1.984375 -0.765625 -2.90625q-0.765625 -0.9375 -1.890625 -0.9375q-1.078125 0 -1.8125 0.890625q-0.734375 0.890625 -0.734375 2.8125zm9.281952 -6.640625l0 -1.890625l1.640625 0l0 1.890625l-1.640625 0zm0 11.46875l0 -9.671875l1.640625 0l0 9.671875l-1.640625 0zm4.1448364 0l0 -9.671875l1.46875 0l0 1.375q1.0625 -1.59375 3.078125 -1.59375q0.875 0 1.609375 0.3125q0.734375 0.3125 1.09375 0.828125q0.375 0.5 0.515625 1.203125q0.09375 0.453125 0.09375 1.59375l0 5.953125l-1.640625 0l0 -5.890625q0 -1.0 -0.203125 -1.484375q-0.1875 -0.5 -0.671875 -0.796875q-0.484375 -0.296875 -1.140625 -0.296875q-1.046875 0 -1.8125 0.671875q-0.75 0.65625 -0.75 2.515625l0 5.28125l-1.640625 0zm10.063202 0.796875l1.5937805 0.234375q0.109375 0.75 0.5625 1.078125q0.609375 0.453125 1.671875 0.453125q1.140625 0 1.75 -0.453125q0.625 -0.453125 0.84375 -1.265625q0.125 -0.5 0.109375 -2.109375q-1.0625 1.265625 -2.671875 1.265625q-2.0 0 -3.0937805 -1.4375q-1.09375 -1.4375 -1.09375 -3.453125q0 -1.390625 0.5 -2.5625q0.515625 -1.171875 1.4531555 -1.796875q0.953125 -0.640625 2.25 -0.640625q1.703125 0 2.8125 1.375l0 -1.15625l1.515625 0l0 8.359375q0 2.265625 -0.46875 3.203125q-0.453125 0.9375 -1.453125 1.484375q-0.984375 0.546875 -2.453125 0.546875q-1.71875 0 -2.7969055 -0.78125q-1.0625 -0.765625 -1.03125 -2.34375zm1.359375 -5.8125q0 1.90625 0.7500305 2.78125q0.765625 0.875 1.90625 0.875q1.125 0 1.890625 -0.859375q0.765625 -0.875 0.765625 -2.734375q0 -1.78125 -0.796875 -2.671875q-0.78125 -0.90625 -1.890625 -0.90625q-1.09375 0 -1.859375 0.890625q-0.7656555 0.875 -0.7656555 2.625z" fill-rule="nonzero"/><path fill="#000000" fill-opacity="0.0" d="m450.28873 443.5853l-3.2756042 -101.25983" fill-rule="evenodd"/><path stroke="#1f497d" stroke-width="3.0" stroke-linejoin="round" stroke-linecap="butt" stroke-dasharray="24.0,9.0" d="m450.28873 443.5853l-2.9432068 -90.98395" fill-rule="evenodd"/><path fill="#1f497d" stroke="#1f497d" stroke-width="3.0" stroke-linecap="butt" d="m447.34552 352.60135l3.481079 3.262909l-3.671692 -9.1553955l-3.0722961 9.373535z" fill-rule="evenodd"/><path fill="#9bbb59" d="m261.99738 183.54855l65.49606 0l0 -55.456696l65.49606 110.91339l-65.49606 110.91339l0 -55.456696l-65.49606 0z" fill-rule="evenodd"/><path stroke="#1f497d" stroke-width="1.0" stroke-linejoin="round" stroke-linecap="butt" d="m261.99738 183.54855l65.49606 0l0 -55.456696l65.49606 110.91339l-65.49606 110.91339l0 -55.456696l-65.49606 0z" fill-rule="evenodd"/><path fill="#eeece1" d="m447.01312 28.210136l0 0c0 -4.4908466 3.640564 -8.131395 8.131409 -8.131395l149.15454 0c2.1565552 0 4.2247925 0.8566971 5.749756 2.38163c1.5249023 1.5249329 2.3815918 3.5931854 2.3815918 5.7497654l0 32.52461c0 4.4908485 -3.640503 8.131397 -8.131348 8.131397l-149.15454 0c-4.4908447 0 -8.131409 -3.6405487 -8.131409 -8.131397z" fill-rule="evenodd"/><path stroke="#1f497d" stroke-width="1.0" stroke-linejoin="round" stroke-linecap="butt" d="m447.01312 28.210136l0 0c0 -4.4908466 3.640564 -8.131395 8.131409 -8.131395l149.15454 0c2.1565552 0 4.2247925 0.8566971 5.749756 2.38163c1.5249023 1.5249329 2.3815918 3.5931854 2.3815918 5.7497654l0 32.52461c0 4.4908485 -3.640503 8.131397 -8.131348 8.131397l-149.15454 0c-4.4908447 0 -8.131409 -3.6405487 -8.131409 -8.131397z" fill-rule="evenodd"/><path fill="#000000" d="m459.7541 40.39244l0 -13.359377l1.78125 0l0 11.781252l6.5625 0l0 1.578125l-8.34375 0zm10.250732 -11.468752l0 -1.890625l1.640625 0l0 1.890625l-1.640625 0zm0 11.468752l0 -9.671877l1.640625 0l0 9.671877l-1.640625 0zm4.144806 0l0 -9.671877l1.46875 0l0 1.3750019q1.0625 -1.5937519 3.078125 -1.5937519q0.875 0 1.609375 0.3125q0.734375 0.3125 1.09375 0.828125q0.375 0.5000019 0.515625 1.2031269q0.09375 0.453125 0.09375 1.59375l0 5.953125l-1.640625 0l0 -5.890625q0 -1.0 -0.203125 -1.484375q-0.1875 -0.5 -0.671875 -0.796875q-0.484375 -0.2968769 -1.140625 -0.2968769q-1.046875 0 -1.8125 0.6718769q-0.75 0.65625 -0.75 2.515625l0 5.28125l-1.640625 0zm17.000732 -3.109375l1.6875 0.203125q-0.40625 1.484375 -1.484375 2.3125q-1.078125 0.8125 -2.765625 0.8125q-2.125 0 -3.375 -1.296875q-1.234375 -1.3125 -1.234375 -3.671875q0 -2.453125 1.25 -3.796877q1.265625 -1.34375 3.265625 -1.34375q1.9375 0 3.15625 1.328125q1.234375 1.3125019 1.234375 3.703127q0 0.15625 0 0.4375l-7.21875 0q0.09375 1.59375 0.90625 2.453125q0.8125 0.84375 2.015625 0.84375q0.90625 0 1.546875 -0.46875q0.640625 -0.484375 1.015625 -1.515625zm-5.390625 -2.65625l5.40625 0q-0.109375 -1.21875 -0.625 -1.828125q-0.78125 -0.9531269 -2.03125 -0.9531269q-1.125 0 -1.90625 0.7656269q-0.765625 0.75 -0.84375 2.015625zm15.453827 4.578125q-0.921875 0.765625 -1.765625 1.09375q-0.828125 0.3125 -1.796875 0.3125q-1.59375 0 -2.453125 -0.78125q-0.859375 -0.78125 -0.859375 -1.984375q0 -0.71875 0.328125 -1.296875q0.328125 -0.59375 0.84375 -0.9375q0.53125 -0.359375 1.1875 -0.546875q0.46875 -0.125 1.453125 -0.25q1.984375 -0.234375 2.921875 -0.5625q0.015625 -0.34375 0.015625 -0.421875q0 -1.0 -0.46875 -1.421875q-0.625 -0.5468769 -1.875 -0.5468769q-1.15625 0 -1.703125 0.4062519q-0.546875 0.40625 -0.8125 1.421875l-1.609375 -0.21875q0.21875 -1.015625 0.71875 -1.6406269q0.5 -0.640625 1.453125 -0.984375q0.953125 -0.34375 2.1875 -0.34375q1.25 0 2.015625 0.296875q0.78125 0.28125 1.140625 0.734375q0.375 0.4375 0.515625 1.1093769q0.078125 0.421875 0.078125 1.515625l0 2.1875q0 2.28125 0.109375 2.890625q0.109375 0.59375 0.40625 1.15625l-1.703125 0q-0.265625 -0.515625 -0.328125 -1.1875zm-0.140625 -3.671875q-0.890625 0.375 -2.671875 0.625q-1.015625 0.140625 -1.4375 0.328125q-0.421875 0.1875 -0.65625 0.53125q-0.21875 0.34375 -0.21875 0.78125q0 0.65625 0.5 1.09375q0.5 0.4375 1.453125 0.4375q0.9375 0 1.671875 -0.40625q0.75 -0.421875 1.09375 -1.140625q0.265625 -0.5625 0.265625 -1.640625l0 -0.609375zm4.1882324 4.859375l0 -9.671877l1.46875 0l0 1.4687519q0.5625 -1.0312519 1.03125 -1.3593769q0.484375 -0.328125 1.0625 -0.328125q0.828125 0 1.6875 0.53125l-0.5625 1.5156269q-0.609375 -0.359375 -1.203125 -0.359375q-0.546875 0 -0.96875 0.328125q-0.421875 0.328125 -0.609375 0.890625q-0.28125 0.875 -0.28125 1.921875l0 5.0625l-1.625 0z" fill-rule="nonzero"/><path fill="#000000" d="m463.2072 60.92369l0.234375 1.453125q-0.6875 0.140625 -1.234375 0.140625q-0.890625 0 -1.390625 -0.28125q-0.484375 -0.28125 -0.6875 -0.734375q-0.203125 -0.46875 -0.203125 -1.9375l0 -5.578125l-1.203125 0l0 -1.265625l1.203125 0l0 -2.390625l1.625 -0.984375l0 3.375l1.65625 0l0 1.265625l-1.65625 0l0 5.671875q0 0.6875 0.078125 0.890625q0.09375 0.203125 0.28125 0.328125q0.203125 0.109375 0.578125 0.109375q0.265625 0 0.71875 -0.0625zm1.5895691 1.46875l0 -9.671875l1.46875 0l0 1.46875q0.5625 -1.03125 1.03125 -1.359375q0.484375 -0.328125 1.0625 -0.328125q0.828125 0 1.6875 0.53125l-0.5625 1.515625q-0.609375 -0.359375 -1.203125 -0.359375q-0.546875 0 -0.96875 0.328125q-0.421875 0.328125 -0.609375 0.890625q-0.28125 0.875 -0.28125 1.921875l0 5.0625l-1.625 0zm12.540802 -1.1875q-0.921875 0.765625 -1.765625 1.09375q-0.828125 0.3125 -1.796875 0.3125q-1.59375 0 -2.453125 -0.78125q-0.859375 -0.78125 -0.859375 -1.984375q0 -0.71875 0.328125 -1.296875q0.328125 -0.59375 0.84375 -0.9375q0.53125 -0.359375 1.1875 -0.546875q0.46875 -0.125 1.453125 -0.25q1.984375 -0.234375 2.921875 -0.5625q0.015625 -0.34375 0.015625 -0.421875q0 -1.0 -0.46875 -1.421875q-0.625 -0.546875 -1.875 -0.546875q-1.15625 0 -1.703125 0.40625q-0.546875 0.40625 -0.8125 1.421875l-1.609375 -0.21875q0.21875 -1.015625 0.71875 -1.640625q0.5 -0.640625 1.453125 -0.984375q0.953125 -0.34375 2.1875 -0.34375q1.25 0 2.015625 0.296875q0.78125 0.28125 1.140625 0.734375q0.375 0.4375 0.515625 1.109375q0.078125 0.421875 0.078125 1.515625l0 2.1875q0 2.28125 0.109375 2.890625q0.109375 0.59375 0.40625 1.15625l-1.703125 0q-0.265625 -0.515625 -0.328125 -1.1875zm-0.140625 -3.671875q-0.890625 0.375 -2.671875 0.625q-1.015625 0.140625 -1.4375 0.328125q-0.421875 0.1875 -0.65625 0.53125q-0.21875 0.34375 -0.21875 0.78125q0 0.65625 0.5 1.09375q0.5 0.4375 1.453125 0.4375q0.9375 0 1.671875 -0.40625q0.75 -0.421875 1.09375 -1.140625q0.265625 -0.5625 0.265625 -1.640625l0 -0.609375zm4.203827 4.859375l0 -9.671875l1.46875 0l0 1.375q1.0625 -1.59375 3.078125 -1.59375q0.875 0 1.609375 0.3125q0.734375 0.3125 1.09375 0.828125q0.375 0.5 0.515625 1.203125q0.09375 0.453125 0.09375 1.59375l0 5.953125l-1.640625 0l0 -5.890625q0 -1.0 -0.203125 -1.484375q-0.1875 -0.5 -0.671875 -0.796875q-0.484375 -0.296875 -1.140625 -0.296875q-1.046875 0 -1.8125 0.671875q-0.75 0.65625 -0.75 2.515625l0 5.28125l-1.640625 0zm9.719482 -2.890625l1.625 -0.25q0.125 0.96875 0.75 1.5q0.625 0.515625 1.75 0.515625q1.125 0 1.671875 -0.453125q0.546875 -0.46875 0.546875 -1.09375q0 -0.546875 -0.484375 -0.875q-0.328125 -0.21875 -1.671875 -0.546875q-1.8125 -0.46875 -2.515625 -0.796875q-0.6875 -0.328125 -1.046875 -0.90625q-0.359375 -0.59375 -0.359375 -1.3125q0 -0.640625 0.296875 -1.1875q0.296875 -0.5625 0.8125 -0.921875q0.375 -0.28125 1.03125 -0.46875q0.671875 -0.203125 1.421875 -0.203125q1.140625 0 2.0 0.328125q0.859375 0.328125 1.265625 0.890625q0.421875 0.5625 0.578125 1.5l-1.609375 0.21875q-0.109375 -0.75 -0.640625 -1.171875q-0.515625 -0.421875 -1.46875 -0.421875q-1.140625 0 -1.625 0.375q-0.46875 0.375 -0.46875 0.875q0 0.3125 0.1875 0.578125q0.203125 0.265625 0.640625 0.4375q0.234375 0.09375 1.4375 0.421875q1.75 0.453125 2.4375 0.75q0.6875 0.296875 1.078125 0.859375q0.390625 0.5625 0.390625 1.40625q0 0.828125 -0.484375 1.546875q-0.46875 0.71875 -1.375 1.125q-0.90625 0.390625 -2.046875 0.390625q-1.875 0 -2.875 -0.78125q-0.984375 -0.78125 -1.25 -2.328125zm10.375 2.890625l0 -8.40625l-1.453125 0l0 -1.265625l1.453125 0l0 -1.03125q0 -0.96875 0.171875 -1.453125q0.234375 -0.640625 0.828125 -1.03125q0.59375 -0.390625 1.671875 -0.390625q0.6875 0 1.53125 0.15625l-0.25 1.4375q-0.5 -0.09375 -0.953125 -0.09375q-0.75 0 -1.0625 0.328125q-0.3125 0.3125 -0.3125 1.1875l0 0.890625l1.890625 0l0 1.265625l-1.890625 0l0 8.40625l-1.625 0zm4.1832886 -4.84375q0 -2.6875 1.484375 -3.96875q1.25 -1.078125 3.046875 -1.078125q2.0000305 0 3.2656555 1.3125q1.265625 1.296875 1.265625 3.609375q0 1.859375 -0.5625 2.9375q-0.5625 1.0625 -1.640625 1.65625q-1.0625305 0.59375 -2.3281555 0.59375q-2.03125 0 -3.28125 -1.296875q-1.25 -1.3125 -1.25 -3.765625zm1.6875 0q0 1.859375 0.796875 2.796875q0.8125 0.921875 2.046875 0.921875q1.21875 0 2.0312805 -0.921875q0.8125 -0.9375 0.8125 -2.84375q0 -1.796875 -0.8125 -2.71875q-0.8125305 -0.921875 -2.0312805 -0.921875q-1.234375 0 -2.046875 0.921875q-0.796875 0.90625 -0.796875 2.765625zm9.281952 4.84375l0 -9.671875l1.46875 0l0 1.46875q0.5625 -1.03125 1.03125 -1.359375q0.484375 -0.328125 1.0625 -0.328125q0.828125 0 1.6875 0.53125l-0.5625 1.515625q-0.609375 -0.359375 -1.203125 -0.359375q-0.546875 0 -0.96875 0.328125q-0.421875 0.328125 -0.609375 0.890625q-0.28125 0.875 -0.28125 1.921875l0 5.0625l-1.625 0zm6.2283325 0l0 -9.671875l1.46875 0l0 1.359375q0.453125 -0.71875 1.203125 -1.140625q0.765625 -0.4375 1.71875 -0.4375q1.078125 0 1.765625 0.453125q0.6875 0.4375 0.96875 1.234375q1.15625 -1.6875 2.984375 -1.6875q1.453125 0 2.21875 0.796875q0.78125 0.796875 0.78125 2.453125l0 6.640625l-1.640625 0l0 -6.09375q0 -0.984375 -0.15625 -1.40625q-0.15625 -0.4375 -0.578125 -0.703125q-0.421875 -0.265625 -0.984375 -0.265625q-1.015625 0 -1.6875 0.6875q-0.671875 0.671875 -0.671875 2.15625l0 5.625l-1.640625 0l0 -6.28125q0 -1.09375 -0.40625 -1.640625q-0.40625 -0.546875 -1.3125 -0.546875q-0.6875 0 -1.28125 0.359375q-0.59375 0.359375 -0.859375 1.0625q-0.25 0.703125 -0.25 2.03125l0 5.015625l-1.640625 0zm21.853271 -1.1875q-0.921875 0.765625 -1.765625 1.09375q-0.828125 0.3125 -1.796875 0.3125q-1.59375 0 -2.453125 -0.78125q-0.859375 -0.78125 -0.859375 -1.984375q0 -0.71875 0.328125 -1.296875q0.328125 -0.59375 0.84375 -0.9375q0.53125 -0.359375 1.1875 -0.546875q0.46875 -0.125 1.453125 -0.25q1.984375 -0.234375 2.921875 -0.5625q0.015625 -0.34375 0.015625 -0.421875q0 -1.0 -0.46875 -1.421875q-0.625 -0.546875 -1.875 -0.546875q-1.15625 0 -1.703125 0.40625q-0.546875 0.40625 -0.8125 1.421875l-1.609375 -0.21875q0.21875 -1.015625 0.71875 -1.640625q0.5 -0.640625 1.453125 -0.984375q0.953125 -0.34375 2.1875 -0.34375q1.25 0 2.015625 0.296875q0.78125 0.28125 1.140625 0.734375q0.375 0.4375 0.515625 1.109375q0.078125 0.421875 0.078125 1.515625l0 2.1875q0 2.28125 0.109375 2.890625q0.109375 0.59375 0.40625 1.15625l-1.703125 0q-0.265625 -0.515625 -0.328125 -1.1875zm-0.140625 -3.671875q-0.890625 0.375 -2.671875 0.625q-1.015625 0.140625 -1.4375 0.328125q-0.421875 0.1875 -0.65625 0.53125q-0.21875 0.34375 -0.21875 0.78125q0 0.65625 0.5 1.09375q0.5 0.4375 1.453125 0.4375q0.9375 0 1.671875 -0.40625q0.75 -0.421875 1.09375 -1.140625q0.265625 -0.5625 0.265625 -1.640625l0 -0.609375zm7.7819824 3.390625l0.234375 1.453125q-0.6875 0.140625 -1.234375 0.140625q-0.890625 0 -1.390625 -0.28125q-0.484375 -0.28125 -0.6875 -0.734375q-0.203125 -0.46875 -0.203125 -1.9375l0 -5.578125l-1.203125 0l0 -1.265625l1.203125 0l0 -2.390625l1.625 -0.984375l0 3.375l1.65625 0l0 1.265625l-1.65625 0l0 5.671875q0 0.6875 0.078125 0.890625q0.09375 0.203125 0.28125 0.328125q0.203125 0.109375 0.578125 0.109375q0.265625 0 0.71875 -0.0625zm1.6051636 -10.0l0 -1.890625l1.640625 0l0 1.890625l-1.640625 0zm0 11.46875l0 -9.671875l1.640625 0l0 9.671875l-1.640625 0zm3.5354614 -4.84375q0 -2.6875 1.484375 -3.96875q1.25 -1.078125 3.046875 -1.078125q2.0 0 3.265625 1.3125q1.265625 1.296875 1.265625 3.609375q0 1.859375 -0.5625 2.9375q-0.5625 1.0625 -1.640625 1.65625q-1.0625 0.59375 -2.328125 0.59375q-2.03125 0 -3.28125 -1.296875q-1.25 -1.3125 -1.25 -3.765625zm1.6875 0q0 1.859375 0.796875 2.796875q0.8125 0.921875 2.046875 0.921875q1.21875 0 2.03125 -0.921875q0.8125 -0.9375 0.8125 -2.84375q0 -1.796875 -0.8125 -2.71875q-0.8125 -0.921875 -2.03125 -0.921875q-1.234375 0 -2.046875 0.921875q-0.796875 0.90625 -0.796875 2.765625zm9.297607 4.84375l0 -9.671875l1.46875 0l0 1.375q1.0625 -1.59375 3.078125 -1.59375q0.875 0 1.609375 0.3125q0.734375 0.3125 1.09375 0.828125q0.375 0.5 0.515625 1.203125q0.09375 0.453125 0.09375 1.59375l0 5.953125l-1.640625 0l0 -5.890625q0 -1.0 -0.203125 -1.484375q-0.1875 -0.5 -0.671875 -0.796875q-0.484375 -0.296875 -1.140625 -0.296875q-1.046875 0 -1.8125 0.671875q-0.75 0.65625 -0.75 2.515625l0 5.28125l-1.640625 0z" fill-rule="nonzero"/><path fill="#000000" fill-opacity="0.0" d="m529.7218 68.86614l-168.28348 114.70866" fill-rule="evenodd"/><path stroke="#1f497d" stroke-width="3.0" stroke-linejoin="round" stroke-linecap="butt" stroke-dasharray="12.0,9.0" d="m529.7218 68.86614l-159.78812 108.91787" fill-rule="evenodd"/><path fill="#1f497d" stroke="#1f497d" stroke-width="3.0" stroke-linecap="butt" d="m369.9337 177.78403l0.8875122 -4.6879425l-5.758972 8.00853l9.559387 -2.4330902z" fill-rule="evenodd"/><path fill="#9bbb59" d="m532.90814 188.36482l65.49603 0l0 -55.45668l65.49609 110.913376l-65.49609 110.913376l0 -55.456665l-65.49603 0z" fill-rule="evenodd"/><path stroke="#1f497d" stroke-width="1.0" stroke-linejoin="round" stroke-linecap="butt" d="m532.90814 188.36482l65.49603 0l0 -55.45668l65.49609 110.913376l-65.49609 110.913376l0 -55.456665l-65.49603 0z" fill-rule="evenodd"/><path fill="#000000" fill-opacity="0.0" d="m529.7218 68.86614l43.02362 119.496056" fill-rule="evenodd"/><path stroke="#1f497d" stroke-width="3.0" stroke-linejoin="round" stroke-linecap="butt" stroke-dasharray="24.0,9.0" d="m529.7218 68.86614l39.54077 109.822685" fill-rule="evenodd"/><path fill="#1f497d" stroke="#1f497d" stroke-width="3.0" stroke-linecap="butt" d="m569.2626 178.68883l-4.3171387 -2.0314026l6.31427 7.5783844l0.034301758 -9.864136z" fill-rule="evenodd"/><path fill="#eeece1" d="m700.14435 368.6512l0 0c0 -8.097443 6.56427 -14.661713 14.661743 -14.661713l136.09387 0c3.8885498 0 7.617798 1.5447083 10.367371 4.2943115c2.7496338 2.7496033 4.2943726 6.478882 4.2943726 10.367401l0 58.64508c0 8.097443 -6.56427 14.661713 -14.661743 14.661713l-136.09387 0c-8.097473 0 -14.661743 -6.56427 -14.661743 -14.661713z" fill-rule="evenodd"/><path stroke="#1f497d" stroke-width="1.0" stroke-linejoin="round" stroke-linecap="butt" d="m700.14435 368.6512l0 0c0 -8.097443 6.56427 -14.661713 14.661743 -14.661713l136.09387 0c3.8885498 0 7.617798 1.5447083 10.367371 4.2943115c2.7496338 2.7496033 4.2943726 6.478882 4.2943726 10.367401l0 58.64508c0 8.097443 -6.56427 14.661713 -14.661743 14.661713l-136.09387 0c-8.097473 0 -14.661743 -6.56427 -14.661743 -14.661713z" fill-rule="evenodd"/><path fill="#000000" d="m713.40735 382.89374l5.125 -13.359375l1.90625 0l5.46875 13.359375l-2.015625 0l-1.546875 -4.046875l-5.59375 0l-1.46875 4.046875l-1.875 0zm3.859375 -5.484375l4.53125 0l-1.40625 -3.703125q-0.625 -1.6875 -0.9375 -2.765625q-0.265625 1.28125 -0.71875 2.546875l-1.46875 3.921875zm13.4279785 4.015625l0.234375 1.453125q-0.6875 0.140625 -1.234375 0.140625q-0.890625 0 -1.390625 -0.28125q-0.484375 -0.28125 -0.6875 -0.734375q-0.203125 -0.46875 -0.203125 -1.9375l0 -5.578125l-1.203125 0l0 -1.265625l1.203125 0l0 -2.390625l1.625 -0.984375l0 3.375l1.65625 0l0 1.265625l-1.65625 0l0 5.671875q0 0.6875 0.078125 0.890625q0.09375 0.203125 0.28125 0.328125q0.203125 0.109375 0.578125 0.109375q0.265625 0 0.71875 -0.0625zm5.1832886 0l0.234375 1.453125q-0.6875 0.140625 -1.234375 0.140625q-0.890625 0 -1.390625 -0.28125q-0.484375 -0.28125 -0.6875 -0.734375q-0.203125 -0.46875 -0.203125 -1.9375l0 -5.578125l-1.203125 0l0 -1.265625l1.203125 0l0 -2.390625l1.625 -0.984375l0 3.375l1.65625 0l0 1.265625l-1.65625 0l0 5.671875q0 0.6875 0.078125 0.890625q0.09375 0.203125 0.28125 0.328125q0.203125 0.109375 0.578125 0.109375q0.265625 0 0.71875 -0.0625zm8.230164 -1.640625l1.6875 0.203125q-0.40625 1.484375 -1.484375 2.3125q-1.078125 0.8125 -2.765625 0.8125q-2.125 0 -3.375 -1.296875q-1.234375 -1.3125 -1.234375 -3.671875q0 -2.453125 1.25 -3.796875q1.265625 -1.34375 3.265625 -1.34375q1.9375 0 3.15625 1.328125q1.234375 1.3125 1.234375 3.703125q0 0.15625 0 0.4375l-7.21875 0q0.09375 1.59375 0.90625 2.453125q0.8125 0.84375 2.015625 0.84375q0.90625 0 1.546875 -0.46875q0.640625 -0.484375 1.015625 -1.515625zm-5.390625 -2.65625l5.40625 0q-0.109375 -1.21875 -0.625 -1.828125q-0.78125 -0.953125 -2.03125 -0.953125q-1.125 0 -1.90625 0.765625q-0.765625 0.75 -0.84375 2.015625zm9.141357 5.765625l0 -9.671875l1.46875 0l0 1.359375q0.453125 -0.71875 1.203125 -1.140625q0.765625 -0.4375 1.71875 -0.4375q1.078125 0 1.765625 0.453125q0.6875 0.4375 0.96875 1.234375q1.15625 -1.6875 2.984375 -1.6875q1.453125 0 2.21875 0.796875q0.78125 0.796875 0.78125 2.453125l0 6.640625l-1.640625 0l0 -6.09375q0 -0.984375 -0.15625 -1.40625q-0.15625 -0.4375 -0.578125 -0.703125q-0.421875 -0.265625 -0.984375 -0.265625q-1.015625 0 -1.6875 0.6875q-0.671875 0.671875 -0.671875 2.15625l0 5.625l-1.640625 0l0 -6.28125q0 -1.09375 -0.40625 -1.640625q-0.40625 -0.546875 -1.3125 -0.546875q-0.6875 0 -1.28125 0.359375q-0.59375 0.359375 -0.859375 1.0625q-0.25 0.703125 -0.25 2.03125l0 5.015625l-1.640625 0zm15.5408325 3.703125l0 -13.375l1.484375 0l0 1.25q0.53125 -0.734375 1.1875 -1.09375q0.671875 -0.375 1.625 -0.375q1.234375 0 2.171875 0.640625q0.953125 0.625 1.4375 1.796875q0.484375 1.15625 0.484375 2.546875q0 1.484375 -0.53125 2.671875q-0.53125 1.1875 -1.546875 1.828125q-1.015625 0.625 -2.140625 0.625q-0.8125 0 -1.46875 -0.34375q-0.65625 -0.34375 -1.0625 -0.875l0 4.703125l-1.640625 0zm1.484375 -8.484375q0 1.859375 0.75 2.765625q0.765625 0.890625 1.828125 0.890625q1.09375 0 1.875 -0.921875q0.78125 -0.9375 0.78125 -2.875q0 -1.84375 -0.765625 -2.765625q-0.75 -0.921875 -1.8125 -0.921875q-1.046875 0 -1.859375 0.984375q-0.796875 0.96875 -0.796875 2.84375zm12.469421 3.3125l0.234375 1.453125q-0.6875 0.140625 -1.234375 0.140625q-0.890625 0 -1.390625 -0.28125q-0.484375 -0.28125 -0.6875 -0.734375q-0.203125 -0.46875 -0.203125 -1.9375l0 -5.578125l-1.203125 0l0 -1.265625l1.203125 0l0 -2.390625l1.625 -0.984375l0 3.375l1.65625 0l0 1.265625l-1.65625 0l0 5.671875q0 0.6875 0.078125 0.890625q0.09375 0.203125 0.28125 0.328125q0.203125 0.109375 0.578125 0.109375q0.265625 0 0.71875 -0.0625zm10.366638 0l0.234375 1.453125q-0.6875 0.140625 -1.234375 0.140625q-0.890625 0 -1.390625 -0.28125q-0.484375 -0.28125 -0.6875 -0.734375q-0.203125 -0.46875 -0.203125 -1.9375l0 -5.578125l-1.203125 0l0 -1.265625l1.203125 0l0 -2.390625l1.625 -0.984375l0 3.375l1.65625 0l0 1.265625l-1.65625 0l0 5.671875q0 0.6875 0.078125 0.890625q0.09375 0.203125 0.28125 0.328125q0.203125 0.109375 0.578125 0.109375q0.265625 0 0.71875 -0.0625zm0.9957886 -3.375q0 -2.6875 1.484375 -3.96875q1.25 -1.078125 3.046875 -1.078125q2.0 0 3.265625 1.3125q1.265625 1.296875 1.265625 3.609375q0 1.859375 -0.5625 2.9375q-0.5625 1.0625 -1.640625 1.65625q-1.0625 0.59375 -2.328125 0.59375q-2.03125 0 -3.28125 -1.296875q-1.25 -1.3125 -1.25 -3.765625zm1.6875 0q0 1.859375 0.796875 2.796875q0.8125 0.921875 2.046875 0.921875q1.21875 0 2.03125 -0.921875q0.8125 -0.9375 0.8125 -2.84375q0 -1.796875 -0.8125 -2.71875q-0.8125 -0.921875 -2.03125 -0.921875q-1.234375 0 -2.046875 0.921875q-0.796875 0.90625 -0.796875 2.765625z" fill-rule="nonzero"/><path fill="#000000" d="m720.9855 403.70624q-0.921875 0.765625 -1.765625 1.09375q-0.828125 0.3125 -1.796875 0.3125q-1.59375 0 -2.453125 -0.78125q-0.859375 -0.78125 -0.859375 -1.984375q0 -0.71875 0.328125 -1.296875q0.328125 -0.59375 0.84375 -0.9375q0.53125 -0.359375 1.1875 -0.546875q0.46875 -0.125 1.453125 -0.25q1.984375 -0.234375 2.921875 -0.5625q0.015625 -0.34375 0.015625 -0.421875q0 -1.0 -0.46875 -1.421875q-0.625 -0.546875 -1.875 -0.546875q-1.15625 0 -1.703125 0.40625q-0.546875 0.40625 -0.8125 1.421875l-1.609375 -0.21875q0.21875 -1.015625 0.71875 -1.640625q0.5 -0.640625 1.453125 -0.984375q0.953125 -0.34375 2.1875 -0.34375q1.25 0 2.015625 0.296875q0.78125 0.28125 1.140625 0.734375q0.375 0.4375 0.515625 1.109375q0.078125 0.421875 0.078125 1.515625l0 2.1875q0 2.28125 0.109375 2.890625q0.109375 0.59375 0.40625 1.15625l-1.703125 0q-0.265625 -0.515625 -0.328125 -1.1875zm-0.140625 -3.671875q-0.890625 0.375 -2.671875 0.625q-1.015625 0.140625 -1.4375 0.328125q-0.421875 0.1875 -0.65625 0.53125q-0.21875 0.34375 -0.21875 0.78125q0 0.65625 0.5 1.09375q0.5 0.4375 1.453125 0.4375q0.9375 0 1.671875 -0.40625q0.75 -0.421875 1.09375 -1.140625q0.265625 -0.5625 0.265625 -1.640625l0 -0.609375zm4.2038574 8.5625l0 -13.375l1.484375 0l0 1.25q0.53125 -0.734375 1.1875 -1.09375q0.671875 -0.375 1.625 -0.375q1.234375 0 2.171875 0.640625q0.953125 0.625 1.4375 1.796875q0.484375 1.15625 0.484375 2.546875q0 1.484375 -0.53125 2.671875q-0.53125 1.1875 -1.546875 1.828125q-1.015625 0.625 -2.140625 0.625q-0.8125 0 -1.46875 -0.34375q-0.65625 -0.34375 -1.0625 -0.875l0 4.703125l-1.640625 0zm1.484375 -8.484375q0 1.859375 0.75 2.765625q0.765625 0.890625 1.828125 0.890625q1.09375 0 1.875 -0.921875q0.78125 -0.9375 0.78125 -2.875q0 -1.84375 -0.765625 -2.765625q-0.75 -0.921875 -1.8125 -0.921875q-1.046875 0 -1.859375 0.984375q-0.796875 0.96875 -0.796875 2.84375zm8.891357 8.484375l0 -13.375l1.484375 0l0 1.25q0.53125 -0.734375 1.1875 -1.09375q0.671875 -0.375 1.625 -0.375q1.234375 0 2.171875 0.640625q0.953125 0.625 1.4375 1.796875q0.484375 1.15625 0.484375 2.546875q0 1.484375 -0.53125 2.671875q-0.53125 1.1875 -1.546875 1.828125q-1.015625 0.625 -2.140625 0.625q-0.8125 0 -1.46875 -0.34375q-0.65625 -0.34375 -1.0625 -0.875l0 4.703125l-1.640625 0zm1.484375 -8.484375q0 1.859375 0.75 2.765625q0.765625 0.890625 1.828125 0.890625q1.09375 0 1.875 -0.921875q0.78125 -0.9375 0.78125 -2.875q0 -1.84375 -0.765625 -2.765625q-0.75 -0.921875 -1.8125 -0.921875q-1.046875 0 -1.859375 0.984375q-0.796875 0.96875 -0.796875 2.84375zm8.875732 4.78125l0 -9.671875l1.46875 0l0 1.46875q0.5625 -1.03125 1.03125 -1.359375q0.484375 -0.328125 1.0625 -0.328125q0.828125 0 1.6875 0.53125l-0.5625 1.515625q-0.609375 -0.359375 -1.203125 -0.359375q-0.546875 0 -0.96875 0.328125q-0.421875 0.328125 -0.609375 0.890625q-0.28125 0.875 -0.28125 1.921875l0 5.0625l-1.625 0zm5.6188965 -4.84375q0 -2.6875 1.484375 -3.96875q1.25 -1.078125 3.046875 -1.078125q2.0 0 3.265625 1.3125q1.265625 1.296875 1.265625 3.609375q0 1.859375 -0.5625 2.9375q-0.5625 1.0625 -1.640625 1.65625q-1.0625 0.59375 -2.328125 0.59375q-2.03125 0 -3.28125 -1.296875q-1.25 -1.3125 -1.25 -3.765625zm1.6875 0q0 1.859375 0.796875 2.796875q0.8125 0.921875 2.046875 0.921875q1.21875 0 2.03125 -0.921875q0.8125 -0.9375 0.8125 -2.84375q0 -1.796875 -0.8125 -2.71875q-0.8125 -0.921875 -2.03125 -0.921875q-1.234375 0 -2.046875 0.921875q-0.796875 0.90625 -0.796875 2.765625zm8.203857 4.84375l3.53125 -5.03125l-3.265625 -4.640625l2.046875 0l1.484375 2.265625q0.421875 0.640625 0.671875 1.078125q0.40625 -0.59375 0.734375 -1.0625l1.640625 -2.28125l1.953125 0l-3.34375 4.546875l3.59375 5.125l-2.015625 0l-1.984375 -3.0l-0.515625 -0.8125l-2.546875 3.8125l-1.984375 0zm10.421875 -11.46875l0 -1.890625l1.640625 0l0 1.890625l-1.640625 0zm0 11.46875l0 -9.671875l1.640625 0l0 9.671875l-1.640625 0zm4.1448364 0l0 -9.671875l1.46875 0l0 1.359375q0.453125 -0.71875 1.203125 -1.140625q0.765625 -0.4375 1.71875 -0.4375q1.078125 0 1.765625 0.453125q0.6875 0.4375 0.96875 1.234375q1.15625 -1.6875 2.984375 -1.6875q1.453125 0 2.21875 0.796875q0.78125 0.796875 0.78125 2.453125l0 6.640625l-1.640625 0l0 -6.09375q0 -0.984375 -0.15625 -1.40625q-0.15625 -0.4375 -0.578125 -0.703125q-0.421875 -0.265625 -0.984375 -0.265625q-1.015625 0 -1.6875 0.6875q-0.671875 0.671875 -0.671875 2.15625l0 5.625l-1.640625 0l0 -6.28125q0 -1.09375 -0.40625 -1.640625q-0.40625 -0.546875 -1.3125 -0.546875q-0.6875 0 -1.28125 0.359375q-0.59375 0.359375 -0.859375 1.0625q-0.25 0.703125 -0.25 2.03125l0 5.015625l-1.640625 0zm21.853271 -1.1875q-0.921875 0.765625 -1.765625 1.09375q-0.828125 0.3125 -1.796875 0.3125q-1.59375 0 -2.453125 -0.78125q-0.859375 -0.78125 -0.859375 -1.984375q0 -0.71875 0.328125 -1.296875q0.328125 -0.59375 0.84375 -0.9375q0.53125 -0.359375 1.1875 -0.546875q0.46875 -0.125 1.453125 -0.25q1.984375 -0.234375 2.921875 -0.5625q0.015625 -0.34375 0.015625 -0.421875q0 -1.0 -0.46875 -1.421875q-0.625 -0.546875 -1.875 -0.546875q-1.15625 0 -1.703125 0.40625q-0.546875 0.40625 -0.8125 1.421875l-1.609375 -0.21875q0.21875 -1.015625 0.71875 -1.640625q0.5 -0.640625 1.453125 -0.984375q0.953125 -0.34375 2.1875 -0.34375q1.25 0 2.015625 0.296875q0.78125 0.28125 1.140625 0.734375q0.375 0.4375 0.515625 1.109375q0.078125 0.421875 0.078125 1.515625l0 2.1875q0 2.28125 0.109375 2.890625q0.109375 0.59375 0.40625 1.15625l-1.703125 0q-0.265625 -0.515625 -0.328125 -1.1875zm-0.140625 -3.671875q-0.890625 0.375 -2.671875 0.625q-1.015625 0.140625 -1.4375 0.328125q-0.421875 0.1875 -0.65625 0.53125q-0.21875 0.34375 -0.21875 0.78125q0 0.65625 0.5 1.09375q0.5 0.4375 1.453125 0.4375q0.9375 0 1.671875 -0.40625q0.75 -0.421875 1.09375 -1.140625q0.265625 -0.5625 0.265625 -1.640625l0 -0.609375zm7.7819824 3.390625l0.234375 1.453125q-0.6875 0.140625 -1.234375 0.140625q-0.890625 0 -1.390625 -0.28125q-0.484375 -0.28125 -0.6875 -0.734375q-0.203125 -0.46875 -0.203125 -1.9375l0 -5.578125l-1.203125 0l0 -1.265625l1.203125 0l0 -2.390625l1.625 -0.984375l0 3.375l1.65625 0l0 1.265625l-1.65625 0l0 5.671875q0 0.6875 0.078125 0.890625q0.09375 0.203125 0.28125 0.328125q0.203125 0.109375 0.578125 0.109375q0.265625 0 0.71875 -0.0625zm8.230164 -1.640625l1.6875 0.203125q-0.40625 1.484375 -1.484375 2.3125q-1.078125 0.8125 -2.765625 0.8125q-2.125 0 -3.375 -1.296875q-1.234375 -1.3125 -1.234375 -3.671875q0 -2.453125 1.25 -3.796875q1.265625 -1.34375 3.265625 -1.34375q1.9375 0 3.15625 1.328125q1.234375 1.3125 1.234375 3.703125q0 0.15625 0 0.4375l-7.21875 0q0.09375 1.59375 0.90625 2.453125q0.8125 0.84375 2.015625 0.84375q0.90625 0 1.546875 -0.46875q0.640625 -0.484375 1.015625 -1.515625zm-5.390625 -2.65625l5.40625 0q-0.109375 -1.21875 -0.625 -1.828125q-0.78125 -0.953125 -2.03125 -0.953125q-1.125 0 -1.90625 0.765625q-0.765625 0.75 -0.84375 2.015625z" fill-rule="nonzero"/><path fill="#000000" d="m716.3605 415.7844l0 1.90625l-1.75 0l0 -1.515625q0 -1.21875 0.28125 -1.765625q0.390625 -0.71875 1.21875 -1.09375l0.390625 0.640625q-0.5 0.203125 -0.734375 0.625q-0.234375 0.40625 -0.265625 1.203125l0.859375 0zm1.8479614 6.265625q0 -2.6875 1.484375 -3.96875q1.25 -1.078125 3.046875 -1.078125q2.0 0 3.265625 1.3125q1.265625 1.296875 1.265625 3.609375q0 1.859375 -0.5625 2.9375q-0.5625 1.0625 -1.640625 1.65625q-1.0625 0.59375 -2.328125 0.59375q-2.03125 0 -3.28125 -1.296875q-1.25 -1.3125 -1.25 -3.765625zm1.6875 0q0 1.859375 0.796875 2.796875q0.8125 0.921875 2.046875 0.921875q1.21875 0 2.03125 -0.921875q0.8125 -0.9375 0.8125 -2.84375q0 -1.796875 -0.8125 -2.71875q-0.8125 -0.921875 -2.03125 -0.921875q-1.234375 0 -2.046875 0.921875q-0.796875 0.90625 -0.796875 2.765625zm9.297607 4.84375l0 -9.671875l1.46875 0l0 1.375q1.0625 -1.59375 3.078125 -1.59375q0.875 0 1.609375 0.3125q0.734375 0.3125 1.09375 0.828125q0.375 0.5 0.515625 1.203125q0.09375 0.453125 0.09375 1.59375l0 5.953125l-1.640625 0l0 -5.890625q0 -1.0 -0.203125 -1.484375q-0.1875 -0.5 -0.671875 -0.796875q-0.484375 -0.296875 -1.140625 -0.296875q-1.046875 0 -1.8125 0.671875q-0.75 0.65625 -0.75 2.515625l0 5.28125l-1.640625 0zm17.000732 -3.109375l1.6875 0.203125q-0.40625 1.484375 -1.484375 2.3125q-1.078125 0.8125 -2.765625 0.8125q-2.125 0 -3.375 -1.296875q-1.234375 -1.3125 -1.234375 -3.671875q0 -2.453125 1.25 -3.796875q1.265625 -1.34375 3.265625 -1.34375q1.9375 0 3.15625 1.328125q1.234375 1.3125 1.234375 3.703125q0 0.15625 0 0.4375l-7.21875 0q0.09375 1.59375 0.90625 2.453125q0.8125 0.84375 2.015625 0.84375q0.90625 0 1.546875 -0.46875q0.640625 -0.484375 1.015625 -1.515625zm-5.390625 -2.65625l5.40625 0q-0.109375 -1.21875 -0.625 -1.828125q-0.78125 -0.953125 -2.03125 -0.953125q-1.125 0 -1.90625 0.765625q-0.765625 0.75 -0.84375 2.015625zm8.500671 1.75l0 -1.640625l5.03125 0l0 1.640625l-5.03125 0zm6.8533325 4.015625l0 -13.359375l1.640625 0l0 4.796875q1.140625 -1.328125 2.890625 -1.328125q1.078125 0 1.859375 0.421875q0.796875 0.421875 1.140625 1.171875q0.34375 0.75 0.34375 2.171875l0 6.125l-1.640625 0l0 -6.125q0 -1.234375 -0.53125 -1.796875q-0.53125 -0.5625 -1.515625 -0.5625q-0.71875 0 -1.359375 0.390625q-0.640625 0.375 -0.921875 1.015625q-0.265625 0.640625 -0.265625 1.78125l0 5.296875l-1.640625 0zm9.766357 -4.84375q0 -2.6875 1.484375 -3.96875q1.25 -1.078125 3.046875 -1.078125q2.0 0 3.265625 1.3125q1.265625 1.296875 1.265625 3.609375q0 1.859375 -0.5625 2.9375q-0.5625 1.0625 -1.640625 1.65625q-1.0625 0.59375 -2.328125 0.59375q-2.03125 0 -3.28125 -1.296875q-1.25 -1.3125 -1.25 -3.765625zm1.6875 0q0 1.859375 0.796875 2.796875q0.8125 0.921875 2.046875 0.921875q1.21875 0 2.03125 -0.921875q0.8125 -0.9375 0.8125 -2.84375q0 -1.796875 -0.8125 -2.71875q-0.8125 -0.921875 -2.03125 -0.921875q-1.234375 0 -2.046875 0.921875q-0.796875 0.90625 -0.796875 2.765625zm12.875671 3.375l0.234375 1.453125q-0.6875 0.140625 -1.234375 0.140625q-0.890625 0 -1.390625 -0.28125q-0.484375 -0.28125 -0.6875 -0.734375q-0.203125 -0.46875 -0.203125 -1.9375l0 -5.578125l-1.203125 0l0 -1.265625l1.203125 0l0 -2.390625l1.625 -0.984375l0 3.375l1.65625 0l0 1.265625l-1.65625 0l0 5.671875q0 0.6875 0.078125 0.890625q0.09375 0.203125 0.28125 0.328125q0.203125 0.109375 0.578125 0.109375q0.265625 0 0.71875 -0.0625zm1.4958496 -10.125l0 -1.890625l1.765625 0l0 1.5q0 1.21875 -0.28125 1.75q-0.390625 0.75 -1.21875 1.109375l-0.40625 -0.640625q0.484375 -0.203125 0.71875 -0.625q0.25 -0.4375 0.28125 -1.203125l-0.859375 0zm11.432251 11.59375l-3.6875 -9.671875l1.734375 0l2.078125 5.796875q0.328125 0.9375 0.625 1.9375q0.203125 -0.765625 0.609375 -1.828125l2.140625 -5.90625l1.6875 0l-3.65625 9.671875l-1.53125 0zm13.265625 -3.109375l1.6875 0.203125q-0.40625 1.484375 -1.484375 2.3125q-1.078125 0.8125 -2.765625 0.8125q-2.125 0 -3.375 -1.296875q-1.234375 -1.3125 -1.234375 -3.671875q0 -2.453125 1.25 -3.796875q1.265625 -1.34375 3.265625 -1.34375q1.9375 0 3.15625 1.328125q1.234375 1.3125 1.234375 3.703125q0 0.15625 0 0.4375l-7.21875 0q0.09375 1.59375 0.90625 2.453125q0.8125 0.84375 2.015625 0.84375q0.90625 0 1.546875 -0.46875q0.640625 -0.484375 1.015625 -1.515625zm-5.390625 -2.65625l5.40625 0q-0.109375 -1.21875 -0.625 -1.828125q-0.78125 -0.953125 -2.03125 -0.953125q-1.125 0 -1.90625 0.765625q-0.765625 0.75 -0.84375 2.015625zm15.453857 2.21875l1.609375 0.21875q-0.265625 1.65625 -1.359375 2.609375q-1.078125 0.9375 -2.671875 0.9375q-1.984375 0 -3.1875 -1.296875q-1.203125 -1.296875 -1.203125 -3.71875q0 -1.578125 0.515625 -2.75q0.515625 -1.171875 1.578125 -1.75q1.0625 -0.59375 2.3125 -0.59375q1.578125 0 2.578125 0.796875q1.0 0.796875 1.28125 2.265625l-1.59375 0.234375q-0.234375 -0.96875 -0.8125 -1.453125q-0.578125 -0.5 -1.390625 -0.5q-1.234375 0 -2.015625 0.890625q-0.78125 0.890625 -0.78125 2.8125q0 1.953125 0.75 2.84375q0.75 0.875 1.953125 0.875q0.96875 0 1.609375 -0.59375q0.65625 -0.59375 0.828125 -1.828125zm6.59375 2.078125l0.234375 1.453125q-0.6875 0.140625 -1.234375 0.140625q-0.890625 0 -1.390625 -0.28125q-0.484375 -0.28125 -0.6875 -0.734375q-0.203125 -0.46875 -0.203125 -1.9375l0 -5.578125l-1.203125 0l0 -1.265625l1.203125 0l0 -2.390625l1.625 -0.984375l0 3.375l1.65625 0l0 1.265625l-1.65625 0l0 5.671875q0 0.6875 0.078125 0.890625q0.09375 0.203125 0.28125 0.328125q0.203125 0.109375 0.578125 0.109375q0.265625 0 0.71875 -0.0625zm0.9957886 -3.375q0 -2.6875 1.484375 -3.96875q1.25 -1.078125 3.046875 -1.078125q2.0 0 3.265625 1.3125q1.265625 1.296875 1.265625 3.609375q0 1.859375 -0.5625 2.9375q-0.5625 1.0625 -1.640625 1.65625q-1.0625 0.59375 -2.328125 0.59375q-2.03125 0 -3.28125 -1.296875q-1.25 -1.3125 -1.25 -3.765625zm1.6875 0q0 1.859375 0.796875 2.796875q0.8125 0.921875 2.046875 0.921875q1.21875 0 2.03125 -0.921875q0.8125 -0.9375 0.8125 -2.84375q0 -1.796875 -0.8125 -2.71875q-0.8125 -0.921875 -2.03125 -0.921875q-1.234375 0 -2.046875 0.921875q-0.796875 0.90625 -0.796875 2.765625zm9.281982 4.84375l0 -9.671875l1.46875 0l0 1.46875q0.5625 -1.03125 1.03125 -1.359375q0.484375 -0.328125 1.0625 -0.328125q0.828125 0 1.6875 0.53125l-0.5625 1.515625q-0.609375 -0.359375 -1.203125 -0.359375q-0.546875 0 -0.96875 0.328125q-0.421875 0.328125 -0.609375 0.890625q-0.28125 0.875 -0.28125 1.921875l0 5.0625l-1.625 0z" fill-rule="nonzero"/><path fill="#000000" fill-opacity="0.0" d="m782.853 353.9895l-21.51184 -72.37796" fill-rule="evenodd"/><path stroke="#1f497d" stroke-width="3.0" stroke-linejoin="round" stroke-linecap="butt" stroke-dasharray="24.0,9.0" d="m782.853 353.9895l-18.582703 -62.522766" fill-rule="evenodd"/><path fill="#1f497d" stroke="#1f497d" stroke-width="3.0" stroke-linecap="butt" d="m764.2703 291.46674l4.1951294 2.272766l-5.874756 -7.924011l-0.59313965 9.846344z" fill-rule="evenodd"/></g></svg>